<svg class="plot-d6a7b5 aa58db44d" fill="currentColor" font-family="system-ui, sans-serif" font-size="10" text-anchor="middle" width="928" height="240" viewBox="0 0 928 240" style="overflow: visible;" xmlns="http://www.w3.org/2000/svg" xmlns:xlink="http://www.w3.org/1999/xlink"><style>:where(.plot-d6a7b5) {
  --plot-background: white;
  display: block;
  height: auto;
  height: intrinsic;
  max-width: 100%;
}
:where(.plot-d6a7b5 text),
:where(.plot-d6a7b5 tspan) {
  white-space: pre;
}</style><g aria-label="fx-axis tick label" transform="translate(0,-9)"><g transform="translate(1,0)"><text transform="translate(140,30)">I</text></g><g transform="translate(223,0)"><text transform="translate(140,30)">II</text></g><g transform="translate(445,0)"><text transform="translate(140,30)">III</text></g><g transform="translate(667,0)"><text transform="translate(140,30)">IV</text></g></g><g aria-label="fx-axis label" transform="translate(0,-27)"><text y="0.71em" transform="translate(474,30)">group</text></g><g aria-label="y-grid" aria-hidden="true"><g stroke="currentColor" stroke-opacity="0.1" transform="translate(1,0)"><line x1="40" x2="240" y1="185.0622406639004" y2="185.0622406639004"/><line x1="40" x2="240" y1="151.86721991701245" y2="151.86721991701245"/><line x1="40" x2="240" y1="118.67219917012449" y2="118.67219917012449"/><line x1="40" x2="240" y1="85.47717842323651" y2="85.47717842323651"/><line x1="40" x2="240" y1="52.28215767634856" y2="52.28215767634856"/></g><g stroke="currentColor" stroke-opacity="0.1" transform="translate(223,0)"><line x1="40" x2="240" y1="185.0622406639004" y2="185.0622406639004"/><line x1="40" x2="240" y1="151.86721991701245" y2="151.86721991701245"/><line x1="40" x2="240" y1="118.67219917012449" y2="118.67219917012449"/><line x1="40" x2="240" y1="85.47717842323651" y2="85.47717842323651"/><line x1="40" x2="240" y1="52.28215767634856" y2="52.28215767634856"/></g><g stroke="currentColor" stroke-opacity="0.1" transform="translate(445,0)"><line x1="40" x2="240" y1="185.0622406639004" y2="185.0622406639004"/><line x1="40" x2="240" y1="151.86721991701245" y2="151.86721991701245"/><line x1="40" x2="240" y1="118.67219917012449" y2="118.67219917012449"/><line x1="40" x2="240" y1="85.47717842323651" y2="85.47717842323651"/><line x1="40" x2="240" y1="52.28215767634856" y2="52.28215767634856"/></g><g stroke="currentColor" stroke-opacity="0.1" transform="translate(667,0)"><line x1="40" x2="240" y1="185.0622406639004" y2="185.0622406639004"/><line x1="40" x2="240" y1="151.86721991701245" y2="151.86721991701245"/><line x1="40" x2="240" y1="118.67219917012449" y2="118.67219917012449"/><line x1="40" x2="240" y1="85.47717842323651" y2="85.47717842323651"/><line x1="40" x2="240" y1="52.28215767634856" y2="52.28215767634856"/></g></g><g aria-label="y-axis tick" aria-hidden="true"><g fill="none" stroke="currentColor" transform="translate(1,0)"><path transform="translate(40,185.0622406639004)" d="M0,0L-6,0" style="pointer-events: visiblestroke;"/><path transform="translate(40,151.86721991701245)" d="M0,0L-6,0" style="pointer-events: visiblestroke;"/><path transform="translate(40,118.67219917012449)" d="M0,0L-6,0" style="pointer-events: visiblestroke;"/><path transform="translate(40,85.47717842323651)" d="M0,0L-6,0" style="pointer-events: visiblestroke;"/><path transform="translate(40,52.28215767634856)" d="M0,0L-6,0" style="pointer-events: visiblestroke;"/></g></g><g aria-label="y-axis tick label" transform="translate(-9,0)"><g text-anchor="end" font-variant="tabular-nums" transform="translate(1,0)"><text y="0.32em" transform="translate(40,185.0622406639004)">4</text><text y="0.32em" transform="translate(40,151.86721991701245)">6</text><text y="0.32em" transform="translate(40,118.67219917012449)">8</text><text y="0.32em" transform="translate(40,85.47717842323651)">10</text><text y="0.32em" transform="translate(40,52.28215767634856)">12</text></g></g><g aria-label="y-axis label" text-anchor="start" transform="translate(-37,-27)"><text y="0.71em" transform="translate(41,30)">↑ y</text></g><g aria-label="x-grid" aria-hidden="true"><g stroke="currentColor" stroke-opacity="0.1" transform="translate(1,0)"><line x1="62" x2="62" y1="30" y2="210"/><line x1="122" x2="122" y1="30" y2="210"/><line x1="182" x2="182" y1="30" y2="210"/></g><g stroke="currentColor" stroke-opacity="0.1" transform="translate(223,0)"><line x1="62" x2="62" y1="30" y2="210"/><line x1="122" x2="122" y1="30" y2="210"/><line x1="182" x2="182" y1="30" y2="210"/></g><g stroke="currentColor" stroke-opacity="0.1" transform="translate(445,0)"><line x1="62" x2="62" y1="30" y2="210"/><line x1="122" x2="122" y1="30" y2="210"/><line x1="182" x2="182" y1="30" y2="210"/></g><g stroke="currentColor" stroke-opacity="0.1" transform="translate(667,0)"><line x1="62" x2="62" y1="30" y2="210"/><line x1="122" x2="122" y1="30" y2="210"/><line x1="182" x2="182" y1="30" y2="210"/></g></g><g aria-label="x-axis tick" aria-hidden="true"><g fill="none" stroke="currentColor" transform="translate(1,0)"><path transform="translate(62,210)" d="M0,0L0,6" style="pointer-events: visiblestroke;"/><path transform="translate(122,210)" d="M0,0L0,6" style="pointer-events: visiblestroke;"/><path transform="translate(182,210)" d="M0,0L0,6" style="pointer-events: visiblestroke;"/></g><g fill="none" stroke="currentColor" transform="translate(223,0)"><path transform="translate(62,210)" d="M0,0L0,6" style="pointer-events: visiblestroke;"/><path transform="translate(122,210)" d="M0,0L0,6" style="pointer-events: visiblestroke;"/><path transform="translate(182,210)" d="M0,0L0,6" style="pointer-events: visiblestroke;"/></g><g fill="none" stroke="currentColor" transform="translate(445,0)"><path transform="translate(62,210)" d="M0,0L0,6" style="pointer-events: visiblestroke;"/><path transform="translate(122,210)" d="M0,0L0,6" style="pointer-events: visiblestroke;"/><path transform="translate(182,210)" d="M0,0L0,6" style="pointer-events: visiblestroke;"/></g><g fill="none" stroke="currentColor" transform="translate(667,0)"><path transform="translate(62,210)" d="M0,0L0,6" style="pointer-events: visiblestroke;"/><path transform="translate(122,210)" d="M0,0L0,6" style="pointer-events: visiblestroke;"/><path transform="translate(182,210)" d="M0,0L0,6" style="pointer-events: visiblestroke;"/></g></g><g aria-label="x-axis tick label" transform="translate(0,9)"><g font-variant="tabular-nums" transform="translate(1,0)"><text y="0.71em" transform="translate(62,210)">5</text><text y="0.71em" transform="translate(122,210)">10</text><text y="0.71em" transform="translate(182,210)">15</text></g><g font-variant="tabular-nums" transform="translate(223,0)"><text y="0.71em" transform="translate(62,210)">5</text><text y="0.71em" transform="translate(122,210)">10</text><text y="0.71em" transform="translate(182,210)">15</text></g><g font-variant="tabular-nums" transform="translate(445,0)"><text y="0.71em" transform="translate(62,210)">5</text><text y="0.71em" transform="translate(122,210)">10</text><text y="0.71em" transform="translate(182,210)">15</text></g><g font-variant="tabular-nums" transform="translate(667,0)"><text y="0.71em" transform="translate(62,210)">5</text><text y="0.71em" transform="translate(122,210)">10</text><text y="0.71em" transform="translate(182,210)">15</text></g></g><g aria-label="x-axis label" text-anchor="end" transform="translate(17,27)"><text transform="translate(907,210)">x →</text></g><g aria-label="frame"><rect fill="none" stroke="currentColor" x="40" y="30" width="200" height="180" transform="translate(1,0)"/><rect fill="none" stroke="currentColor" x="40" y="30" width="200" height="180" transform="translate(223,0)"/><rect fill="none" stroke="currentColor" x="40" y="30" width="200" height="180" transform="translate(445,0)"/><rect fill="none" stroke="currentColor" x="40" y="30" width="200" height="180" transform="translate(667,0)"/></g><g aria-label="dot"><g fill="none" stroke="currentColor" stroke-width="1.5" transform="translate(1,0)"><circle cx="122" cy="118.00829875518673" r="3"/><circle cx="98" cy="136.0995850622407" r="3"/><circle cx="158" cy="125.64315352697096" r="3"/><circle cx="110" cy="105.22821576763485" r="3"/><circle cx="134" cy="113.19502074688798" r="3"/><circle cx="169.99999999999997" cy="86.14107883817425" r="3"/><circle cx="74" cy="131.2863070539419" r="3"/><circle cx="50" cy="180.746887966805" r="3"/><circle cx="146" cy="71.53526970954358" r="3"/><circle cx="86" cy="171.45228215767634" r="3"/><circle cx="62" cy="157.17842323651453" r="3"/></g><g fill="none" stroke="currentColor" stroke-width="1.5" transform="translate(223,0)"><circle cx="122" cy="99.75103734439833" r="3"/><circle cx="98" cy="116.34854771784231" r="3"/><circle cx="158" cy="106.39004149377593" r="3"/><circle cx="110" cy="105.89211618257262" r="3"/><circle cx="134" cy="97.75933609958507" r="3"/><circle cx="169.99999999999997" cy="117.0124481327801" r="3"/><circle cx="74" cy="149.70954356846474" r="3"/><circle cx="50" cy="200" r="3"/><circle cx="146" cy="99.91701244813277" r="3"/><circle cx="86" cy="130.95435684647302" r="3"/><circle cx="62" cy="172.78008298755185" r="3"/></g><g fill="none" stroke="currentColor" stroke-width="1.5" transform="translate(445,0)"><circle cx="122" cy="127.63485477178423" r="3"/><circle cx="98" cy="139.0871369294606" r="3"/><circle cx="158" cy="40" r="3"/><circle cx="110" cy="133.44398340248964" r="3"/><circle cx="134" cy="121.82572614107887" r="3"/><circle cx="169.99999999999997" cy="104.73029045643153" r="3"/><circle cx="74" cy="150.53941908713693" r="3"/><circle cx="50" cy="161.9917012448133" r="3"/><circle cx="146" cy="116.18257261410788" r="3"/><circle cx="86" cy="144.896265560166" r="3"/><circle cx="62" cy="156.34854771784234" r="3"/></g><g fill="none" stroke="currentColor" stroke-width="1.5" transform="translate(667,0)"><circle cx="98" cy="142.24066390041492" r="3"/><circle cx="98" cy="155.85062240663902" r="3"/><circle cx="98" cy="123.48547717842327" r="3"/><circle cx="98" cy="104.73029045643153" r="3"/><circle cx="98" cy="110.8713692946058" r="3"/><circle cx="98" cy="134.6058091286307" r="3"/><circle cx="98" cy="164.31535269709542" r="3"/><circle cx="230" cy="43.983402489626556" r="3"/><circle cx="98" cy="159.1701244813278" r="3"/><circle cx="98" cy="120.16597510373444" r="3"/><circle cx="98" cy="137.09543568464733" r="3"/></g></g><g aria-label="linear-regression"><g fill="steelblue" fill-opacity="0.1" stroke="steelblue" stroke-width="1.5" stroke-linejoin="round" stroke-linecap="round" transform="translate(1,0)"><path fill="none" d="M50,168.45718596755952L169.99999999999997,85.45454545454534" style="pointer-events: visiblestroke;"/></g><g fill="steelblue" fill-opacity="0.1" stroke="steelblue" stroke-width="1.5" stroke-linejoin="round" stroke-linecap="round" transform="translate(223,0)"><path fill="none" d="M50,168.44964164466242L169.99999999999997,85.46208977744251" style="pointer-events: visiblestroke;"/></g><g fill="steelblue" fill-opacity="0.1" stroke="steelblue" stroke-width="1.5" stroke-linejoin="round" stroke-linecap="round" transform="translate(445,0)"><path fill="none" d="M50,168.44209732176557L169.99999999999997,85.49981139192747" style="pointer-events: visiblestroke;"/></g><g fill="steelblue" fill-opacity="0.1" stroke="steelblue" stroke-width="1.5" stroke-linejoin="round" stroke-linecap="round" transform="translate(667,0)"><path fill="none" d="M98,135.253112033195L230,43.98340248962674" style="pointer-events: visiblestroke;"/></g></g><g class="hover" style="pointer-events: none; text-anchor: middle;"/><style xmlns="http://www.w3.org/1999/xhtml">
  .aa58db44d .has-title { cursor: pointer;  pointer-events: all; }
  .aa58db44d .has-title:hover { stroke: blue; stroke-width: 3; }</style></svg>