<?xml version="1.0" encoding="utf-8"?>
<!-- Generator: Adobe Illustrator 27.6.1, SVG Export Plug-In . SVG Version: 6.00 Build 0)  -->
<svg version="1.1" id="Calque_1" xmlns="http://www.w3.org/2000/svg" xmlns:xlink="http://www.w3.org/1999/xlink" x="0px" y="0px"
	 viewBox="0 0 713.3 374" style="enable-background:new 0 0 713.3 374;" xml:space="preserve">
<style type="text/css">
	.st0{fill:#00839B;}
	.st1{fill:#5C9699;}
	.st2{fill:#67D8D9;}
	.st3{fill:#475151;}
	.st4{fill:none;}
	.st5{font-family:'ArialMT';}
	.st6{font-size:14px;}
	.st7{font-size:21px;}
	.st8{font-size:24px;}
	.st9{fill:none;stroke:#000000;stroke-width:2;stroke-miterlimit:10;}
	.st10{fill:none;stroke:#7578BF;stroke-width:4;stroke-miterlimit:10;}
	.st11{fill:none;stroke:#D9A404;stroke-width:4;stroke-miterlimit:10;}
	.st12{fill:none;stroke:#A61414;stroke-width:4;stroke-miterlimit:10;}
</style>
<rect x="104.3" y="65" class="st0" width="62.2" height="310"/>
<rect x="194.6" y="65" class="st1" width="129.3" height="310"/>
<rect x="362.1" y="65" class="st2" width="228" height="310"/>
<g id="JzQ8yW">
	
		<image style="overflow:visible;enable-background:new    ;" width="99" height="139" id="JzQ8yW-2" xlink:href="6508DAD0EB5410B8.png"  transform="matrix(0.4179 0 0 0.4179 115.1061 184.3139)">
	</image>
</g>
<g id="PkxzIr">
	
		<image style="overflow:visible;enable-background:new    ;" width="240" height="176" id="PkxzIr-2" xlink:href="6508DAD0EB5410B7.png"  transform="matrix(0.4145 0 0 0.4145 214.5419 176.8814)">
	</image>
</g>
<g id="EjfQzm">
	
		<image style="overflow:visible;enable-background:new    ;" width="244" height="176" id="EjfQzm-2" xlink:href="6508DAD0EB5410C6.png"  transform="matrix(0.4145 0 0 0.4145 417.6375 176.8814)">
	</image>
</g>
<circle class="st3" cx="626.8" cy="229.4" r="9.4"/>
<circle class="st3" cx="686.2" cy="229.3" r="9.4"/>
<circle class="st3" cx="657.4" cy="229.4" r="9.4"/>
<rect x="362.1" y="50.5" class="st4" width="67" height="40"/>
<text transform="matrix(1 0 0 1 362.0971 60.457)" class="st5 st6">Features</text>
<rect x="279.2" y="21.3" class="st4" width="112.7" height="28"/>
<text transform="matrix(1 0 0 1 279.2158 36.1611)" class="st5 st7">Modalities</text>
<text transform="matrix(1 0 0 1 7.2904 213.3555)" class="st5 st8">Samples</text>
<rect x="194.6" y="50.5" class="st4" width="67" height="40"/>
<text transform="matrix(1 0 0 1 194.6469 60.457)" class="st5 st6">Features</text>
<g>
	<g>
		<line class="st9" x1="47.9" y1="92.8" x2="47.9" y2="176.9"/>
		<g>
			<polygon points="37.9,95.8 47.9,78.5 57.9,95.8 			"/>
		</g>
	</g>
</g>
<g>
	<g>
		<line class="st9" x1="47.9" y1="329.8" x2="47.9" y2="245.8"/>
		<g>
			<polygon points="57.9,326.9 47.9,344.2 37.9,326.9 			"/>
		</g>
	</g>
</g>
<g>
	<g>
		<line class="st9" x1="465.5" y1="28.5" x2="381.4" y2="28.5"/>
		<g>
			<polygon points="462.5,18.5 479.8,28.5 462.5,38.5 			"/>
		</g>
	</g>
</g>
<g>
	<g>
		<line class="st9" x1="182.5" y1="28.5" x2="266.5" y2="28.5"/>
		<g>
			<polygon points="185.4,38.5 168.1,28.5 185.4,18.5 			"/>
		</g>
	</g>
</g>
<rect x="104.3" y="33.7" class="st4" width="67" height="40"/>
<text transform="matrix(1 0 0 1 104.2901 43.6211)" class="st5 st6">Response </text>
<text transform="matrix(1 0 0 1 104.2901 60.4211)" class="st5 st6">(optional)</text>
<rect x="104.3" y="65" class="st10" width="62.2" height="98.2"/>
<rect x="104.3" y="299" class="st11" width="62.2" height="76.2"/>
<rect x="104.3" y="163.3" class="st12" width="62.2" height="135.7"/>
<rect x="193.4" y="64.9" class="st10" width="130.5" height="98.2"/>
<rect x="193.4" y="298.9" class="st11" width="130.5" height="76.2"/>
<rect x="193.4" y="163.2" class="st12" width="130.5" height="135.7"/>
<rect x="363.2" y="66.9" class="st10" width="226.8" height="98.2"/>
<rect x="363.2" y="300.9" class="st11" width="226.8" height="76.2"/>
<rect x="363.2" y="165.2" class="st12" width="226.8" height="135.7"/>
</svg>
