<?xml version="1.0" encoding="UTF-8"?>
<svg id="Calque_1" xmlns="http://www.w3.org/2000/svg" version="1.1" viewBox="0 0 472 360.6">
  <!-- Generator: Adobe Illustrator 29.5.1, SVG Export Plug-In . SVG Version: 2.1.0 Build 141)  -->
  <defs>
    <style>
      .st0, .st1 {
        font-family: ArialMT, Arial;
      }

      .st0, .st1, .st2 {
        font-size: 24px;
      }

      .st0, .st1, .st2, .st3 {
        isolation: isolate;
      }

      .st1 {
        fill: #717171;
      }

      .st2 {
        font-family: Arial-ItalicMT, Arial;
        font-style: italic;
      }

      .st4 {
        fill: #fff;
      }

      .st4, .st5 {
        stroke: #000;
        stroke-miterlimit: 10;
      }

      .st5 {
        fill: none;
        stroke-width: 5px;
      }
    </style>
  </defs>
  <g>
    <line class="st5" x1="236.7" y1="187.2" x2="371.2" y2="189.6"/>
    <polygon points="367.3 202 389.1 189.9 367.8 177.1 367.3 202"/>
  </g>
  <g>
    <line class="st5" x1="362.4" y1="67.4" x2="406.8" y2="134.7"/>
    <polygon points="394.4 138.5 416.7 149.6 415.2 124.8 394.4 138.5"/>
  </g>
  <g>
    <line class="st5" x1="219.9" y1="157.9" x2="294.1" y2="83"/>
    <polygon points="300.4 94.4 306.7 70.3 282.6 76.9 300.4 94.4"/>
  </g>
  <path class="st4" d="M167.4,40.2"/>
  <g>
    <path class="st5" d="M32.5,276C14.9,146.3,129.7,40.2,252.6,28.1"/>
    <polygon points="250.2 41 270.4 26.3 247.6 16.2 250.2 41"/>
  </g>
  <g>
    <path class="st5" d="M403.2,249.7c-86.1,71.7-204.2,96.6-314.3,90"/>
    <polygon points="392.2 242.6 416.7 237.9 408.6 261.5 392.2 242.6"/>
  </g>
  <g class="st3">
    <g class="st3">
      <text class="st0" transform="translate(288.4 38.5)"><tspan x="0" y="0">Multiomics</tspan></text>
    </g>
  </g>
  <g class="st3">
    <g class="st3">
      <text class="st2" transform="translate(407 189.4)"><tspan x="0" y="0">L. crispatus</tspan></text>
      <text class="st0" transform="translate(407 218.2)"><tspan x="0" y="0">establishment</tspan></text>
    </g>
  </g>
  <g class="st3">
    <g class="st3">
      <text class="st0" transform="translate(94 178.4)"><tspan x="0" y="0">Lactin-V</tspan></text>
    </g>
    <g class="st3">
      <text class="st0" transform="translate(94 207.2)"><tspan x="0" y="0">Intervention</tspan></text>
    </g>
  </g>
  <g class="st3">
    <g class="st3">
      <text class="st0" transform="translate(-18.7 312.3)"><tspan x="0" y="0">Baseline</tspan></text>
    </g>
    <g class="st3">
      <text class="st0" transform="translate(-18.7 341.1)"><tspan x="0" y="0">features</tspan></text>
    </g>
  </g>
  <g class="st3">
    <g class="st3">
      <text class="st1" transform="translate(189.1 94.7)"><tspan x="0" y="0">Aim 1.2</tspan></text>
    </g>
  </g>
  <g class="st3">
    <g class="st3">
      <text class="st1" transform="translate(392.2 94.4)"><tspan x="0" y="0">Aim 1.3</tspan></text>
    </g>
  </g>
</svg>