<svg xmlns="http://www.w3.org/2000/svg" xmlns:xlink="http://www.w3.org/1999/xlink" class="httpgd" width="1347.00" height="682.00" viewBox="0 0 1077.60 545.60">
<defs>
  <style type='text/css'><![CDATA[
    .httpgd line, .httpgd polyline, .httpgd polygon, .httpgd path, .httpgd rect, .httpgd circle {
      fill: none;
      stroke: #000000;
      stroke-linecap: round;
      stroke-linejoin: round;
      stroke-miterlimit: 10.00;
    }
  ]]></style>
<clipPath id="c0"><rect x="0.00" y="0.00" width="1077.60" height="545.60"/></clipPath>
<clipPath id="c1"><rect x="59.04" y="59.04" width="988.32" height="413.12"/></clipPath>
<clipPath id="c2"><rect x="0.00" y="0.00" width="1077.60" height="545.60"/></clipPath>
</defs>
<rect width="100%" height="100%" style="stroke: none;fill: #FFFFFF;"/>
<g clip-path="url(#c0)">
</g><g clip-path="url(#c2)">
<polyline points="316.75,90.77 316.75,81.36 495.63,81.36" style="stroke-width: 0.69;stroke-linecap: butt;"/>
<polyline points="202.88,148.10 202.88,138.69 316.75,138.69" style="stroke-width: 0.69;stroke-linecap: butt;"/>
<polyline points="104.31,205.44 104.31,196.03 202.88,196.03" style="stroke-width: 0.69;stroke-linecap: butt;"/>
<polyline points="77.11,474.92 77.11,253.36 104.31,253.36" style="stroke-width: 0.69;stroke-linecap: butt;"/>
<polyline points="131.50,474.92 131.50,253.36 104.31,253.36" style="stroke-width: 0.69;stroke-linecap: butt;"/>
<polyline points="301.45,205.44 301.45,196.03 202.88,196.03" style="stroke-width: 0.69;stroke-linecap: butt;"/>
<polyline points="253.87,262.78 253.87,253.36 301.45,253.36" style="stroke-width: 0.69;stroke-linecap: butt;"/>
<polyline points="213.08,320.11 213.08,310.70 253.87,310.70" style="stroke-width: 0.69;stroke-linecap: butt;"/>
<polyline points="185.88,474.92 185.88,368.04 213.08,368.04" style="stroke-width: 0.69;stroke-linecap: butt;"/>
<polyline points="240.27,474.92 240.27,368.04 213.08,368.04" style="stroke-width: 0.69;stroke-linecap: butt;"/>
<polyline points="294.66,474.92 294.66,310.70 253.87,310.70" style="stroke-width: 0.69;stroke-linecap: butt;"/>
<polyline points="349.04,474.92 349.04,253.36 301.45,253.36" style="stroke-width: 0.69;stroke-linecap: butt;"/>
<polyline points="430.62,148.10 430.62,138.69 316.75,138.69" style="stroke-width: 0.69;stroke-linecap: butt;"/>
<polyline points="403.43,474.92 403.43,196.03 430.62,196.03" style="stroke-width: 0.69;stroke-linecap: butt;"/>
<polyline points="457.81,474.92 457.81,196.03 430.62,196.03" style="stroke-width: 0.69;stroke-linecap: butt;"/>
<polyline points="674.51,90.77 674.51,81.36 495.63,81.36" style="stroke-width: 0.69;stroke-linecap: butt;"/>
<polyline points="580.18,148.10 580.18,138.69 674.51,138.69" style="stroke-width: 0.69;stroke-linecap: butt;"/>
<polyline points="539.39,205.44 539.39,196.03 580.18,196.03" style="stroke-width: 0.69;stroke-linecap: butt;"/>
<polyline points="512.20,474.92 512.20,253.36 539.39,253.36" style="stroke-width: 0.69;stroke-linecap: butt;"/>
<polyline points="566.58,474.92 566.58,253.36 539.39,253.36" style="stroke-width: 0.69;stroke-linecap: butt;"/>
<polyline points="620.97,474.92 620.97,196.03 580.18,196.03" style="stroke-width: 0.69;stroke-linecap: butt;"/>
<polyline points="768.83,148.10 768.83,138.69 674.51,138.69" style="stroke-width: 0.69;stroke-linecap: butt;"/>
<polyline points="702.55,205.44 702.55,196.03 768.83,196.03" style="stroke-width: 0.69;stroke-linecap: butt;"/>
<polyline points="675.36,474.92 675.36,253.36 702.55,253.36" style="stroke-width: 0.69;stroke-linecap: butt;"/>
<polyline points="729.74,474.92 729.74,253.36 702.55,253.36" style="stroke-width: 0.69;stroke-linecap: butt;"/>
<polyline points="835.11,205.44 835.11,196.03 768.83,196.03" style="stroke-width: 0.69;stroke-linecap: butt;"/>
<polyline points="784.13,474.92 784.13,253.36 835.11,253.36" style="stroke-width: 0.69;stroke-linecap: butt;"/>
<polyline points="886.10,262.78 886.10,253.36 835.11,253.36" style="stroke-width: 0.69;stroke-linecap: butt;"/>
<polyline points="838.51,474.92 838.51,310.70 886.10,310.70" style="stroke-width: 0.69;stroke-linecap: butt;"/>
<polyline points="933.69,320.11 933.69,310.70 886.10,310.70" style="stroke-width: 0.69;stroke-linecap: butt;"/>
<polyline points="892.90,474.92 892.90,368.04 933.69,368.04" style="stroke-width: 0.69;stroke-linecap: butt;"/>
<polyline points="974.48,377.45 974.48,368.04 933.69,368.04" style="stroke-width: 0.69;stroke-linecap: butt;"/>
<polyline points="947.29,474.92 947.29,425.37 974.48,425.37" style="stroke-width: 0.69;stroke-linecap: butt;"/>
<polyline points="1001.67,474.92 1001.67,425.37 974.48,425.37" style="stroke-width: 0.69;stroke-linecap: butt;"/>
<polygon points="448.90,87.11 448.90,74.17 542.36,74.17 542.36,87.11 448.90,87.11" style="stroke-width: 0.69;stroke: #FFFFFF;fill: #FFFFFF;" />
<polygon points="274.99,144.44 274.99,131.50 358.51,131.50 358.51,144.44 274.99,144.44" style="stroke-width: 0.69;stroke: #FFFFFF;fill: #FFFFFF;" />
<polygon points="159.26,201.78 159.26,188.84 246.50,188.84 246.50,201.78 159.26,201.78" style="stroke-width: 0.69;stroke: #FFFFFF;fill: #FFFFFF;" />
<polygon points="62.54,259.12 62.54,246.17 146.07,246.17 146.07,259.12 62.54,259.12" style="stroke-width: 0.69;stroke: #FFFFFF;fill: #FFFFFF;" />
<polygon points="259.69,259.12 259.69,246.17 343.22,246.17 343.22,259.12 259.69,259.12" style="stroke-width: 0.69;stroke: #FFFFFF;fill: #FFFFFF;" />
<polygon points="212.10,316.45 212.10,303.51 295.63,303.51 295.63,316.45 212.10,316.45" style="stroke-width: 0.69;stroke: #FFFFFF;fill: #FFFFFF;" />
<polygon points="171.31,373.79 171.31,360.85 254.84,360.85 254.84,373.79 171.31,373.79" style="stroke-width: 0.69;stroke: #FFFFFF;fill: #FFFFFF;" />
<polygon points="390.10,201.78 390.10,188.84 471.14,188.84 471.14,201.78 390.10,201.78" style="stroke-width: 0.69;stroke: #FFFFFF;fill: #FFFFFF;" />
<polygon points="629.48,144.44 629.48,131.50 719.53,131.50 719.53,144.44 629.48,144.44" style="stroke-width: 0.69;stroke: #FFFFFF;fill: #FFFFFF;" />
<polygon points="538.42,201.78 538.42,188.84 621.95,188.84 621.95,201.78 538.42,201.78" style="stroke-width: 0.69;stroke: #FFFFFF;fill: #FFFFFF;" />
<polygon points="497.63,259.12 497.63,246.17 581.16,246.17 581.16,259.12 497.63,259.12" style="stroke-width: 0.69;stroke: #FFFFFF;fill: #FFFFFF;" />
<polygon points="726.91,201.78 726.91,188.84 810.75,188.84 810.75,201.78 726.91,201.78" style="stroke-width: 0.69;stroke: #FFFFFF;fill: #FFFFFF;" />
<polygon points="655.67,259.12 655.67,246.17 749.43,246.17 749.43,259.12 655.67,259.12" style="stroke-width: 0.69;stroke: #FFFFFF;fill: #FFFFFF;" />
<polygon points="796.30,259.12 796.30,246.17 873.93,246.17 873.93,259.12 796.30,259.12" style="stroke-width: 0.69;stroke: #FFFFFF;fill: #FFFFFF;" />
<polygon points="844.18,316.45 844.18,303.51 928.02,303.51 928.02,316.45 844.18,316.45" style="stroke-width: 0.69;stroke: #FFFFFF;fill: #FFFFFF;" />
<polygon points="891.77,373.79 891.77,360.85 975.61,360.85 975.61,373.79 891.77,373.79" style="stroke-width: 0.69;stroke: #FFFFFF;fill: #FFFFFF;" />
<polygon points="937.07,431.12 937.07,418.18 1011.89,418.18 1011.89,431.12 937.07,431.12" style="stroke-width: 0.69;stroke: #FFFFFF;fill: #FFFFFF;" />
<g><text x="495.63" y="84.59" text-anchor="middle" style="font-family: Arial;font-size: 10.98px;font-weight: bold;" textLength="89.92px" lengthAdjust="spacingAndGlyphs">tax114_26 &lt; -0.16</text></g>
<g><text x="316.75" y="141.92" text-anchor="middle" style="font-family: Arial;font-size: 10.98px;font-weight: bold;" textLength="80.17px" lengthAdjust="spacingAndGlyphs">tax105_39 &lt; 1.1</text></g>
<g><text x="202.88" y="199.25" text-anchor="middle" style="font-family: Arial;font-size: 10.98px;font-weight: bold;" textLength="83.82px" lengthAdjust="spacingAndGlyphs">tax13_24 &lt; -0.22</text></g>
<g><text x="104.31" y="256.59" text-anchor="middle" style="font-family: Arial;font-size: 10.98px;font-weight: bold;" textLength="80.17px" lengthAdjust="spacingAndGlyphs">tax111_39 &lt; 0.8</text></g>
<g><text x="301.45" y="256.59" text-anchor="middle" style="font-family: Arial;font-size: 10.98px;font-weight: bold;" textLength="80.17px" lengthAdjust="spacingAndGlyphs">tax53_31 &lt; 0.58</text></g>
<g><text x="253.87" y="313.93" text-anchor="middle" style="font-family: Arial;font-size: 10.98px;font-weight: bold;" textLength="80.17px" lengthAdjust="spacingAndGlyphs">tax78_25 &lt; 0.51</text></g>
<g><text x="213.08" y="371.27" text-anchor="middle" style="font-family: Arial;font-size: 10.98px;font-weight: bold;" textLength="80.17px" lengthAdjust="spacingAndGlyphs">tax62_22 &lt; 0.42</text></g>
<g><text x="430.62" y="199.26" text-anchor="middle" style="font-family: Arial;font-size: 10.98px;font-weight: bold;" textLength="77.72px" lengthAdjust="spacingAndGlyphs">tax10_1 &lt; -0.64</text></g>
<g><text x="674.51" y="141.93" text-anchor="middle" style="font-family: Arial;font-size: 10.98px;font-weight: bold;" textLength="86.57px" lengthAdjust="spacingAndGlyphs">tax36_33 &gt;= 0.94</text></g>
<g><text x="580.18" y="199.26" text-anchor="middle" style="font-family: Arial;font-size: 10.98px;font-weight: bold;" textLength="80.17px" lengthAdjust="spacingAndGlyphs">tax40_15 &lt; 0.36</text></g>
<g><text x="539.39" y="256.60" text-anchor="middle" style="font-family: Arial;font-size: 10.98px;font-weight: bold;" textLength="80.17px" lengthAdjust="spacingAndGlyphs">tax116_7 &lt; 0.43</text></g>
<g><text x="768.83" y="199.26" text-anchor="middle" style="font-family: Arial;font-size: 10.98px;font-weight: bold;" textLength="80.47px" lengthAdjust="spacingAndGlyphs">tax66_18 &gt;= 1.1</text></g>
<g><text x="702.55" y="256.58" text-anchor="middle" style="font-family: Arial;font-size: 10.98px;font-weight: bold;" textLength="90.22px" lengthAdjust="spacingAndGlyphs">tax121_37 &gt;= -1.1</text></g>
<g><text x="835.11" y="256.60" text-anchor="middle" style="font-family: Arial;font-size: 10.98px;font-weight: bold;" textLength="74.38px" lengthAdjust="spacingAndGlyphs">tax26_6 &gt;= 1.8</text></g>
<g><text x="886.10" y="313.92" text-anchor="middle" style="font-family: Arial;font-size: 10.98px;font-weight: bold;" textLength="80.47px" lengthAdjust="spacingAndGlyphs">tax38_34 &gt;= 1.4</text></g>
<g><text x="933.69" y="371.27" text-anchor="middle" style="font-family: Arial;font-size: 10.98px;font-weight: bold;" textLength="80.47px" lengthAdjust="spacingAndGlyphs">tax85_16 &gt;= 1.5</text></g>
<g><text x="974.48" y="428.60" text-anchor="middle" style="font-family: Arial;font-size: 10.98px;font-weight: bold;" textLength="71.63px" lengthAdjust="spacingAndGlyphs">tax79_5 &lt; -1.4</text></g>
<polygon points="472.97,40.60 473.46,38.75 474.91,37.02 477.23,35.53 480.24,34.39 483.75,33.68 487.52,33.43 503.74,33.43 507.51,33.68 511.02,34.39 514.03,35.53 516.34,37.02 517.80,38.75 518.29,40.60 518.29,64.61 517.80,66.47 516.34,68.20 514.03,69.68 511.02,70.82 507.51,71.54 503.74,71.78 487.52,71.78 483.75,71.54 480.24,70.82 477.23,69.68 474.91,68.20 473.46,66.47 472.97,64.61" style="stroke-width: 0.69;fill: #E5F5E0;" />
<polygon points="292.84,97.94 293.34,96.08 294.79,94.35 297.11,92.87 300.12,91.73 303.63,91.01 307.40,90.77 326.10,90.77 329.87,91.01 333.38,91.73 336.39,92.87 338.71,94.35 340.16,96.08 340.66,97.94 340.66,121.95 340.16,123.80 338.71,125.53 336.39,127.02 333.38,128.16 329.87,128.87 326.10,129.12 307.40,129.12 303.63,128.87 300.12,128.16 297.11,127.02 294.79,125.53 293.34,123.80 292.84,121.95" style="stroke-width: 0.69;fill: #C6DBEF;" />
<polygon points="178.97,155.28 179.47,153.42 180.92,151.69 183.24,150.20 186.25,149.07 189.76,148.35 193.52,148.10 212.23,148.10 216.00,148.35 219.51,149.07 222.52,150.20 224.84,151.69 226.29,153.42 226.79,155.28 226.79,179.28 226.29,181.14 224.84,182.87 222.52,184.35 219.51,185.49 216.00,186.21 212.23,186.45 193.52,186.45 189.76,186.21 186.25,185.49 183.24,184.35 180.92,182.87 179.47,181.14 178.97,179.28" style="stroke-width: 0.69;fill: #B2D2E8;" />
<polygon points="80.40,212.61 80.89,210.76 82.35,209.03 84.66,207.54 87.67,206.40 91.18,205.68 94.95,205.44 113.66,205.44 117.43,205.68 120.94,206.40 123.95,207.54 126.26,209.03 127.72,210.76 128.21,212.61 128.21,236.62 127.72,238.47 126.26,240.20 123.95,241.69 120.94,242.83 117.43,243.54 113.66,243.79 94.95,243.79 91.18,243.54 87.67,242.83 84.66,241.69 82.35,240.20 80.89,238.47 80.40,236.62" style="stroke-width: 0.69;fill: #84BCDB;" />
<polygon points="53.21,482.09 53.70,480.23 55.16,478.50 57.47,477.02 60.48,475.88 63.99,475.16 67.76,474.92 86.47,474.92 90.23,475.16 93.74,475.88 96.76,477.02 99.07,478.50 100.52,480.23 101.02,482.09 101.02,506.10 100.52,507.95 99.07,509.68 96.76,511.17 93.74,512.31 90.23,513.02 86.47,513.27 67.76,513.27 63.99,513.02 60.48,512.31 57.47,511.17 55.16,509.68 53.70,507.95 53.21,506.10" style="stroke-width: 0.69;fill: #84BCDB;" />
<polygon points="108.84,482.09 109.33,480.23 110.78,478.50 113.10,477.02 116.11,475.88 119.62,475.16 123.39,474.92 139.61,474.92 143.38,475.16 146.89,475.88 149.90,477.02 152.21,478.50 153.67,480.23 154.16,482.09 154.16,506.10 153.67,507.95 152.21,509.68 149.90,511.17 146.89,512.31 143.38,513.02 139.61,513.27 123.39,513.27 119.62,513.02 116.11,512.31 113.10,511.17 110.78,509.68 109.33,507.95 108.84,506.10" style="stroke-width: 0.69;fill: #E5F5E0;" />
<polygon points="277.55,212.61 278.04,210.76 279.50,209.03 281.81,207.54 284.82,206.40 288.33,205.68 292.10,205.44 310.81,205.44 314.57,205.68 318.08,206.40 321.10,207.54 323.41,209.03 324.86,210.76 325.36,212.61 325.36,236.62 324.86,238.47 323.41,240.20 321.10,241.69 318.08,242.83 314.57,243.54 310.81,243.79 292.10,243.79 288.33,243.54 284.82,242.83 281.81,241.69 279.50,240.20 278.04,238.47 277.55,236.62" style="stroke-width: 0.69;fill: #DEEBF7;" />
<polygon points="229.96,269.95 230.46,268.09 231.91,266.36 234.22,264.88 237.24,263.74 240.75,263.02 244.51,262.78 263.22,262.78 266.99,263.02 270.50,263.74 273.51,264.88 275.82,266.36 277.28,268.09 277.77,269.95 277.77,293.95 277.28,295.81 275.82,297.54 273.51,299.02 270.50,300.16 266.99,300.88 263.22,301.12 244.51,301.12 240.75,300.88 237.24,300.16 234.22,299.02 231.91,297.54 230.46,295.81 229.96,293.95" style="stroke-width: 0.69;fill: #D2E3F3;" />
<polygon points="189.17,327.28 189.67,325.43 191.12,323.70 193.43,322.21 196.45,321.07 199.96,320.36 203.72,320.11 222.43,320.11 226.20,320.36 229.71,321.07 232.72,322.21 235.03,323.70 236.49,325.43 236.98,327.28 236.98,351.29 236.49,353.14 235.03,354.87 232.72,356.36 229.71,357.50 226.20,358.21 222.43,358.46 203.72,358.46 199.96,358.21 196.45,357.50 193.43,356.36 191.12,354.87 189.67,353.14 189.17,351.29" style="stroke-width: 0.69;fill: #B2D2E8;" />
<polygon points="161.98,482.09 162.47,480.23 163.93,478.50 166.24,477.02 169.25,475.88 172.76,475.16 176.53,474.92 195.24,474.92 199.00,475.16 202.51,475.88 205.53,477.02 207.84,478.50 209.29,480.23 209.79,482.09 209.79,506.10 209.29,507.95 207.84,509.68 205.53,511.17 202.51,512.31 199.00,513.02 195.24,513.27 176.53,513.27 172.76,513.02 169.25,512.31 166.24,511.17 163.93,509.68 162.47,507.95 161.98,506.10" style="stroke-width: 0.69;fill: #6BAED6;" />
<polygon points="217.61,482.09 218.10,480.23 219.56,478.50 221.87,477.02 224.88,475.88 228.39,475.16 232.16,474.92 248.38,474.92 252.15,475.16 255.66,475.88 258.67,477.02 260.98,478.50 262.44,480.23 262.93,482.09 262.93,506.10 262.44,507.95 260.98,509.68 258.67,511.17 255.66,512.31 252.15,513.02 248.38,513.27 232.16,513.27 228.39,513.02 224.88,512.31 221.87,511.17 219.56,509.68 218.10,507.95 217.61,506.10" style="stroke-width: 0.69;fill: #C7E9C0;" />
<polygon points="271.99,482.09 272.49,480.23 273.94,478.50 276.25,477.02 279.27,475.88 282.78,475.16 286.54,474.92 302.77,474.92 306.53,475.16 310.04,475.88 313.06,477.02 315.37,478.50 316.82,480.23 317.32,482.09 317.32,506.10 316.82,507.95 315.37,509.68 313.06,511.17 310.04,512.31 306.53,513.02 302.77,513.27 286.54,513.27 282.78,513.02 279.27,512.31 276.25,511.17 273.94,509.68 272.49,507.95 271.99,506.10" style="stroke-width: 0.69;fill: #D6EFD0;" />
<polygon points="326.38,482.09 326.87,480.23 328.33,478.50 330.64,477.02 333.65,475.88 337.16,475.16 340.93,474.92 357.15,474.92 360.92,475.16 364.43,475.88 367.44,477.02 369.75,478.50 371.21,480.23 371.70,482.09 371.70,506.10 371.21,507.95 369.75,509.68 367.44,511.17 364.43,512.31 360.92,513.02 357.15,513.27 340.93,513.27 337.16,513.02 333.65,512.31 330.64,511.17 328.33,509.68 326.87,507.95 326.38,506.10" style="stroke-width: 0.69;fill: #8ACE88;" />
<polygon points="407.96,155.28 408.45,153.42 409.91,151.69 412.22,150.20 415.23,149.07 418.74,148.35 422.51,148.10 438.73,148.10 442.50,148.35 446.01,149.07 449.02,150.20 451.33,151.69 452.79,153.42 453.28,155.28 453.28,179.28 452.79,181.14 451.33,182.87 449.02,184.35 446.01,185.49 442.50,186.21 438.73,186.45 422.51,186.45 418.74,186.21 415.23,185.49 412.22,184.35 409.91,182.87 408.45,181.14 407.96,179.28" style="stroke-width: 0.69;fill: #B4E1AD;" />
<polygon points="379.52,482.09 380.02,480.23 381.47,478.50 383.78,477.02 386.80,475.88 390.31,475.16 394.07,474.92 412.78,474.92 416.55,475.16 420.06,475.88 423.07,477.02 425.38,478.50 426.84,480.23 427.33,482.09 427.33,506.10 426.84,507.95 425.38,509.68 423.07,511.17 420.06,512.31 416.55,513.02 412.78,513.27 394.07,513.27 390.31,513.02 386.80,512.31 383.78,511.17 381.47,509.68 380.02,507.95 379.52,506.10" style="stroke-width: 0.69;fill: #DEEBF7;" />
<polygon points="435.15,482.09 435.65,480.23 437.10,478.50 439.41,477.02 442.43,475.88 445.94,475.16 449.70,474.92 465.92,474.92 469.69,475.16 473.20,475.88 476.21,477.02 478.53,478.50 479.98,480.23 480.48,482.09 480.48,506.10 479.98,507.95 478.53,509.68 476.21,511.17 473.20,512.31 469.69,513.02 465.92,513.27 449.70,513.27 445.94,513.02 442.43,512.31 439.41,511.17 437.10,509.68 435.65,507.95 435.15,506.10" style="stroke-width: 0.69;fill: #74C476;" />
<polygon points="651.84,97.94 652.34,96.08 653.79,94.35 656.11,92.87 659.12,91.73 662.63,91.01 666.40,90.77 682.62,90.77 686.38,91.01 689.89,91.73 692.91,92.87 695.22,94.35 696.67,96.08 697.17,97.94 697.17,121.95 696.67,123.80 695.22,125.53 692.91,127.02 689.89,128.16 686.38,128.87 682.62,129.12 666.40,129.12 662.63,128.87 659.12,128.16 656.11,127.02 653.79,125.53 652.34,123.80 651.84,121.95" style="stroke-width: 0.69;fill: #D6EFD0;" />
<polygon points="556.28,155.28 556.77,153.42 558.22,151.69 560.54,150.20 563.55,149.07 567.06,148.35 570.83,148.10 589.54,148.10 593.30,148.35 596.81,149.07 599.83,150.20 602.14,151.69 603.59,153.42 604.09,155.28 604.09,179.28 603.59,181.14 602.14,182.87 599.83,184.35 596.81,185.49 593.30,186.21 589.54,186.45 570.83,186.45 567.06,186.21 563.55,185.49 560.54,184.35 558.22,182.87 556.77,181.14 556.28,179.28" style="stroke-width: 0.69;fill: #C6DBEF;" />
<polygon points="515.49,212.61 515.98,210.76 517.44,209.03 519.75,207.54 522.76,206.40 526.27,205.68 530.04,205.44 548.75,205.44 552.51,205.68 556.02,206.40 559.04,207.54 561.35,209.03 562.80,210.76 563.30,212.61 563.30,236.62 562.80,238.47 561.35,240.20 559.04,241.69 556.02,242.83 552.51,243.54 548.75,243.79 530.04,243.79 526.27,243.54 522.76,242.83 519.75,241.69 517.44,240.20 515.98,238.47 515.49,236.62" style="stroke-width: 0.69;fill: #9ECAE1;" />
<polygon points="488.29,482.09 488.79,480.23 490.24,478.50 492.55,477.02 495.57,475.88 499.08,475.16 502.84,474.92 521.55,474.92 525.32,475.16 528.83,475.88 531.84,477.02 534.16,478.50 535.61,480.23 536.10,482.09 536.10,506.10 535.61,507.95 534.16,509.68 531.84,511.17 528.83,512.31 525.32,513.02 521.55,513.27 502.84,513.27 499.08,513.02 495.57,512.31 492.55,511.17 490.24,509.68 488.79,507.95 488.29,506.10" style="stroke-width: 0.69;fill: #6BAED6;" />
<polygon points="543.92,482.09 544.42,480.23 545.87,478.50 548.18,477.02 551.20,475.88 554.71,475.16 558.47,474.92 574.70,474.92 578.46,475.16 581.97,475.88 584.99,477.02 587.30,478.50 588.75,480.23 589.25,482.09 589.25,506.10 588.75,507.95 587.30,509.68 584.99,511.17 581.97,512.31 578.46,513.02 574.70,513.27 558.47,513.27 554.71,513.02 551.20,512.31 548.18,511.17 545.87,509.68 544.42,507.95 543.92,506.10" style="stroke-width: 0.69;fill: #E5F5E0;" />
<polygon points="598.31,482.09 598.80,480.23 600.26,478.50 602.57,477.02 605.58,475.88 609.09,475.16 612.86,474.92 629.08,474.92 632.85,475.16 636.36,475.88 639.37,477.02 641.68,478.50 643.14,480.23 643.63,482.09 643.63,506.10 643.14,507.95 641.68,509.68 639.37,511.17 636.36,512.31 632.85,513.02 629.08,513.27 612.86,513.27 609.09,513.02 605.58,512.31 602.57,511.17 600.26,509.68 598.80,507.95 598.31,506.10" style="stroke-width: 0.69;fill: #74C476;" />
<polygon points="746.17,155.28 746.66,153.42 748.12,151.69 750.43,150.20 753.44,149.07 756.95,148.35 760.72,148.10 776.94,148.10 780.71,148.35 784.22,149.07 787.23,150.20 789.55,151.69 791.00,153.42 791.49,155.28 791.49,179.28 791.00,181.14 789.55,182.87 787.23,184.35 784.22,185.49 780.71,186.21 776.94,186.45 760.72,186.45 756.95,186.21 753.44,185.49 750.43,184.35 748.12,182.87 746.66,181.14 746.17,179.28" style="stroke-width: 0.69;fill: #C7E9C0;" />
<polygon points="678.64,212.61 679.14,210.76 680.59,209.03 682.91,207.54 685.92,206.40 689.43,205.68 693.19,205.44 711.90,205.44 715.67,205.68 719.18,206.40 722.19,207.54 724.51,209.03 725.96,210.76 726.46,212.61 726.46,236.62 725.96,238.47 724.51,240.20 722.19,241.69 719.18,242.83 715.67,243.54 711.90,243.79 693.19,243.79 689.43,243.54 685.92,242.83 682.91,241.69 680.59,240.20 679.14,238.47 678.64,236.62" style="stroke-width: 0.69;fill: #C6DBEF;" />
<polygon points="651.45,482.09 651.95,480.23 653.40,478.50 655.71,477.02 658.73,475.88 662.24,475.16 666.00,474.92 684.71,474.92 688.48,475.16 691.99,475.88 695.00,477.02 697.31,478.50 698.77,480.23 699.26,482.09 699.26,506.10 698.77,507.95 697.31,509.68 695.00,511.17 691.99,512.31 688.48,513.02 684.71,513.27 666.00,513.27 662.24,513.02 658.73,512.31 655.71,511.17 653.40,509.68 651.95,507.95 651.45,506.10" style="stroke-width: 0.69;fill: #6BAED6;" />
<polygon points="707.08,482.09 707.58,480.23 709.03,478.50 711.34,477.02 714.36,475.88 717.86,475.16 721.63,474.92 737.85,474.92 741.62,475.16 745.13,475.88 748.14,477.02 750.46,478.50 751.91,480.23 752.41,482.09 752.41,506.10 751.91,507.95 750.46,509.68 748.14,511.17 745.13,512.31 741.62,513.02 737.85,513.27 721.63,513.27 717.86,513.02 714.36,512.31 711.34,511.17 709.03,509.68 707.58,507.95 707.08,506.10" style="stroke-width: 0.69;fill: #B4E1AD;" />
<polygon points="812.45,212.61 812.95,210.76 814.40,209.03 816.71,207.54 819.73,206.40 823.24,205.68 827.00,205.44 843.23,205.44 846.99,205.68 850.50,206.40 853.52,207.54 855.83,209.03 857.28,210.76 857.78,212.61 857.78,236.62 857.28,238.47 855.83,240.20 853.52,241.69 850.50,242.83 846.99,243.54 843.23,243.79 827.00,243.79 823.24,243.54 819.73,242.83 816.71,241.69 814.40,240.20 812.95,238.47 812.45,236.62" style="stroke-width: 0.69;fill: #B4E1AD;" />
<polygon points="760.22,482.09 760.72,480.23 762.17,478.50 764.48,477.02 767.50,475.88 771.01,475.16 774.77,474.92 793.48,474.92 797.25,475.16 800.76,475.88 803.77,477.02 806.08,478.50 807.54,480.23 808.03,482.09 808.03,506.10 807.54,507.95 806.08,509.68 803.77,511.17 800.76,512.31 797.25,513.02 793.48,513.27 774.77,513.27 771.01,513.02 767.50,512.31 764.48,511.17 762.17,509.68 760.72,507.95 760.22,506.10" style="stroke-width: 0.69;fill: #9ECAE1;" />
<polygon points="863.44,269.95 863.93,268.09 865.39,266.36 867.70,264.88 870.71,263.74 874.22,263.02 877.99,262.78 894.21,262.78 897.98,263.02 901.49,263.74 904.50,264.88 906.81,266.36 908.27,268.09 908.76,269.95 908.76,293.95 908.27,295.81 906.81,297.54 904.50,299.02 901.49,300.16 897.98,300.88 894.21,301.12 877.99,301.12 874.22,300.88 870.71,300.16 867.70,299.02 865.39,297.54 863.93,295.81 863.44,293.95" style="stroke-width: 0.69;fill: #A1D99B;" />
<polygon points="814.61,482.09 815.10,480.23 816.56,478.50 818.87,477.02 821.88,475.88 825.39,475.16 829.16,474.92 847.87,474.92 851.63,475.16 855.14,475.88 858.16,477.02 860.47,478.50 861.92,480.23 862.42,482.09 862.42,506.10 861.92,507.95 860.47,509.68 858.16,511.17 855.14,512.31 851.63,513.02 847.87,513.27 829.16,513.27 825.39,513.02 821.88,512.31 818.87,511.17 816.56,509.68 815.10,507.95 814.61,506.10" style="stroke-width: 0.69;fill: #9ECAE1;" />
<polygon points="911.03,327.28 911.52,325.43 912.98,323.70 915.29,322.21 918.30,321.07 921.81,320.36 925.58,320.11 941.80,320.11 945.57,320.36 949.08,321.07 952.09,322.21 954.40,323.70 955.86,325.43 956.35,327.28 956.35,351.29 955.86,353.14 954.40,354.87 952.09,356.36 949.08,357.50 945.57,358.21 941.80,358.46 925.58,358.46 921.81,358.21 918.30,357.50 915.29,356.36 912.98,354.87 911.52,353.14 911.03,351.29" style="stroke-width: 0.69;fill: #A1D99B;" />
<polygon points="868.99,482.09 869.49,480.23 870.94,478.50 873.26,477.02 876.27,475.88 879.78,475.16 883.55,474.92 902.25,474.92 906.02,475.16 909.53,475.88 912.54,477.02 914.86,478.50 916.31,480.23 916.81,482.09 916.81,506.10 916.31,507.95 914.86,509.68 912.54,511.17 909.53,512.31 906.02,513.02 902.25,513.27 883.55,513.27 879.78,513.02 876.27,512.31 873.26,511.17 870.94,509.68 869.49,507.95 868.99,506.10" style="stroke-width: 0.69;fill: #D2E3F3;" />
<polygon points="951.82,384.62 952.31,382.76 953.77,381.03 956.08,379.55 959.09,378.41 962.60,377.69 966.37,377.45 982.59,377.45 986.36,377.69 989.87,378.41 992.88,379.55 995.19,381.03 996.65,382.76 997.14,384.62 997.14,408.62 996.65,410.48 995.19,412.21 992.88,413.69 989.87,414.83 986.36,415.55 982.59,415.79 966.37,415.79 962.60,415.55 959.09,414.83 956.08,413.69 953.77,412.21 952.31,410.48 951.82,408.62" style="stroke-width: 0.69;fill: #8ACE88;" />
<polygon points="923.38,482.09 923.88,480.23 925.33,478.50 927.64,477.02 930.66,475.88 934.16,475.16 937.93,474.92 956.64,474.92 960.41,475.16 963.92,475.88 966.93,477.02 969.24,478.50 970.70,480.23 971.19,482.09 971.19,506.10 970.70,507.95 969.24,509.68 966.93,511.17 963.92,512.31 960.41,513.02 956.64,513.27 937.93,513.27 934.16,513.02 930.66,512.31 927.64,511.17 925.33,509.68 923.88,507.95 923.38,506.10" style="stroke-width: 0.69;fill: #DEEBF7;" />
<polygon points="979.01,482.09 979.50,480.23 980.96,478.50 983.27,477.02 986.28,475.88 989.79,475.16 993.56,474.92 1009.78,474.92 1013.55,475.16 1017.06,475.88 1020.07,477.02 1022.38,478.50 1023.84,480.23 1024.33,482.09 1024.33,506.10 1023.84,507.95 1022.38,509.68 1020.07,511.17 1017.06,512.31 1013.55,513.02 1009.78,513.27 993.56,513.27 989.79,513.02 986.28,512.31 983.27,511.17 980.96,509.68 979.50,507.95 979.01,506.10" style="stroke-width: 0.69;fill: #74C476;" />
<g><text x="495.63" y="43.37" text-anchor="middle" style="font-family: Arial;font-size: 10.98px;" textLength="35.36px" lengthAdjust="spacingAndGlyphs">healthy</text></g>
<g><text x="495.63" y="56.54" text-anchor="middle" style="font-family: Arial;font-size: 10.98px;" textLength="21.34px" lengthAdjust="spacingAndGlyphs">0.52</text></g>
<g><text x="495.63" y="69.72" text-anchor="middle" style="font-family: Arial;font-size: 10.98px;" textLength="28.05px" lengthAdjust="spacingAndGlyphs">100%</text></g>
<g><text x="316.75" y="100.70" text-anchor="middle" style="font-family: Arial;font-size: 10.98px;" textLength="37.80px" lengthAdjust="spacingAndGlyphs">disease</text></g>
<g><text x="316.75" y="113.88" text-anchor="middle" style="font-family: Arial;font-size: 10.98px;" textLength="21.34px" lengthAdjust="spacingAndGlyphs">0.29</text></g>
<g><text x="316.75" y="127.05" text-anchor="middle" style="font-family: Arial;font-size: 10.98px;" textLength="21.95px" lengthAdjust="spacingAndGlyphs">44%</text></g>
<g><text x="202.88" y="158.04" text-anchor="middle" style="font-family: Arial;font-size: 10.98px;" textLength="37.80px" lengthAdjust="spacingAndGlyphs">disease</text></g>
<g><text x="202.88" y="171.21" text-anchor="middle" style="font-family: Arial;font-size: 10.98px;" textLength="21.34px" lengthAdjust="spacingAndGlyphs">0.21</text></g>
<g><text x="202.88" y="184.39" text-anchor="middle" style="font-family: Arial;font-size: 10.98px;" textLength="21.95px" lengthAdjust="spacingAndGlyphs">39%</text></g>
<g><text x="104.31" y="215.38" text-anchor="middle" style="font-family: Arial;font-size: 10.98px;" textLength="37.80px" lengthAdjust="spacingAndGlyphs">disease</text></g>
<g><text x="104.31" y="228.55" text-anchor="middle" style="font-family: Arial;font-size: 10.98px;" textLength="21.34px" lengthAdjust="spacingAndGlyphs">0.07</text></g>
<g><text x="104.31" y="241.72" text-anchor="middle" style="font-family: Arial;font-size: 10.98px;" textLength="21.95px" lengthAdjust="spacingAndGlyphs">24%</text></g>
<g><text x="77.11" y="484.85" text-anchor="middle" style="font-family: Arial;font-size: 10.98px;" textLength="37.80px" lengthAdjust="spacingAndGlyphs">disease</text></g>
<g><text x="77.11" y="498.03" text-anchor="middle" style="font-family: Arial;font-size: 10.98px;" textLength="21.34px" lengthAdjust="spacingAndGlyphs">0.03</text></g>
<g><text x="77.11" y="511.20" text-anchor="middle" style="font-family: Arial;font-size: 10.98px;" textLength="21.95px" lengthAdjust="spacingAndGlyphs">23%</text></g>
<g><text x="131.50" y="484.85" text-anchor="middle" style="font-family: Arial;font-size: 10.98px;" textLength="35.36px" lengthAdjust="spacingAndGlyphs">healthy</text></g>
<g><text x="131.50" y="498.03" text-anchor="middle" style="font-family: Arial;font-size: 10.98px;" textLength="21.34px" lengthAdjust="spacingAndGlyphs">0.57</text></g>
<g><text x="131.50" y="511.20" text-anchor="middle" style="font-family: Arial;font-size: 10.98px;" textLength="15.85px" lengthAdjust="spacingAndGlyphs">1%</text></g>
<g><text x="301.45" y="215.38" text-anchor="middle" style="font-family: Arial;font-size: 10.98px;" textLength="37.80px" lengthAdjust="spacingAndGlyphs">disease</text></g>
<g><text x="301.45" y="228.55" text-anchor="middle" style="font-family: Arial;font-size: 10.98px;" textLength="21.34px" lengthAdjust="spacingAndGlyphs">0.45</text></g>
<g><text x="301.45" y="241.72" text-anchor="middle" style="font-family: Arial;font-size: 10.98px;" textLength="21.95px" lengthAdjust="spacingAndGlyphs">14%</text></g>
<g><text x="253.87" y="272.71" text-anchor="middle" style="font-family: Arial;font-size: 10.98px;" textLength="37.80px" lengthAdjust="spacingAndGlyphs">disease</text></g>
<g><text x="253.87" y="285.88" text-anchor="middle" style="font-family: Arial;font-size: 10.98px;" textLength="21.34px" lengthAdjust="spacingAndGlyphs">0.30</text></g>
<g><text x="253.87" y="299.06" text-anchor="middle" style="font-family: Arial;font-size: 10.98px;" textLength="21.95px" lengthAdjust="spacingAndGlyphs">11%</text></g>
<g><text x="213.08" y="330.05" text-anchor="middle" style="font-family: Arial;font-size: 10.98px;" textLength="37.80px" lengthAdjust="spacingAndGlyphs">disease</text></g>
<g><text x="213.08" y="343.22" text-anchor="middle" style="font-family: Arial;font-size: 10.98px;" textLength="21.34px" lengthAdjust="spacingAndGlyphs">0.14</text></g>
<g><text x="213.08" y="356.39" text-anchor="middle" style="font-family: Arial;font-size: 10.98px;" textLength="15.85px" lengthAdjust="spacingAndGlyphs">7%</text></g>
<g><text x="185.88" y="484.85" text-anchor="middle" style="font-family: Arial;font-size: 10.98px;" textLength="37.80px" lengthAdjust="spacingAndGlyphs">disease</text></g>
<g><text x="185.88" y="498.03" text-anchor="middle" style="font-family: Arial;font-size: 10.98px;" textLength="21.34px" lengthAdjust="spacingAndGlyphs">0.00</text></g>
<g><text x="185.88" y="511.20" text-anchor="middle" style="font-family: Arial;font-size: 10.98px;" textLength="15.85px" lengthAdjust="spacingAndGlyphs">6%</text></g>
<g><text x="240.27" y="484.85" text-anchor="middle" style="font-family: Arial;font-size: 10.98px;" textLength="35.36px" lengthAdjust="spacingAndGlyphs">healthy</text></g>
<g><text x="240.27" y="498.03" text-anchor="middle" style="font-family: Arial;font-size: 10.98px;" textLength="21.34px" lengthAdjust="spacingAndGlyphs">0.71</text></g>
<g><text x="240.27" y="511.20" text-anchor="middle" style="font-family: Arial;font-size: 10.98px;" textLength="15.85px" lengthAdjust="spacingAndGlyphs">1%</text></g>
<g><text x="294.66" y="484.85" text-anchor="middle" style="font-family: Arial;font-size: 10.98px;" textLength="35.36px" lengthAdjust="spacingAndGlyphs">healthy</text></g>
<g><text x="294.66" y="498.03" text-anchor="middle" style="font-family: Arial;font-size: 10.98px;" textLength="21.34px" lengthAdjust="spacingAndGlyphs">0.61</text></g>
<g><text x="294.66" y="511.20" text-anchor="middle" style="font-family: Arial;font-size: 10.98px;" textLength="15.85px" lengthAdjust="spacingAndGlyphs">4%</text></g>
<g><text x="349.04" y="484.85" text-anchor="middle" style="font-family: Arial;font-size: 10.98px;" textLength="35.36px" lengthAdjust="spacingAndGlyphs">healthy</text></g>
<g><text x="349.04" y="498.03" text-anchor="middle" style="font-family: Arial;font-size: 10.98px;" textLength="21.34px" lengthAdjust="spacingAndGlyphs">0.94</text></g>
<g><text x="349.04" y="511.20" text-anchor="middle" style="font-family: Arial;font-size: 10.98px;" textLength="15.85px" lengthAdjust="spacingAndGlyphs">3%</text></g>
<g><text x="430.62" y="158.04" text-anchor="middle" style="font-family: Arial;font-size: 10.98px;" textLength="35.36px" lengthAdjust="spacingAndGlyphs">healthy</text></g>
<g><text x="430.62" y="171.21" text-anchor="middle" style="font-family: Arial;font-size: 10.98px;" textLength="21.34px" lengthAdjust="spacingAndGlyphs">0.86</text></g>
<g><text x="430.62" y="184.39" text-anchor="middle" style="font-family: Arial;font-size: 10.98px;" textLength="15.85px" lengthAdjust="spacingAndGlyphs">6%</text></g>
<g><text x="403.43" y="484.85" text-anchor="middle" style="font-family: Arial;font-size: 10.98px;" textLength="37.80px" lengthAdjust="spacingAndGlyphs">disease</text></g>
<g><text x="403.43" y="498.03" text-anchor="middle" style="font-family: Arial;font-size: 10.98px;" textLength="21.34px" lengthAdjust="spacingAndGlyphs">0.43</text></g>
<g><text x="403.43" y="511.20" text-anchor="middle" style="font-family: Arial;font-size: 10.98px;" textLength="15.85px" lengthAdjust="spacingAndGlyphs">1%</text></g>
<g><text x="457.81" y="484.85" text-anchor="middle" style="font-family: Arial;font-size: 10.98px;" textLength="35.36px" lengthAdjust="spacingAndGlyphs">healthy</text></g>
<g><text x="457.81" y="498.03" text-anchor="middle" style="font-family: Arial;font-size: 10.98px;" textLength="21.34px" lengthAdjust="spacingAndGlyphs">1.00</text></g>
<g><text x="457.81" y="511.20" text-anchor="middle" style="font-family: Arial;font-size: 10.98px;" textLength="15.85px" lengthAdjust="spacingAndGlyphs">4%</text></g>
<g><text x="674.51" y="100.70" text-anchor="middle" style="font-family: Arial;font-size: 10.98px;" textLength="35.36px" lengthAdjust="spacingAndGlyphs">healthy</text></g>
<g><text x="674.51" y="113.88" text-anchor="middle" style="font-family: Arial;font-size: 10.98px;" textLength="21.34px" lengthAdjust="spacingAndGlyphs">0.70</text></g>
<g><text x="674.51" y="127.05" text-anchor="middle" style="font-family: Arial;font-size: 10.98px;" textLength="21.95px" lengthAdjust="spacingAndGlyphs">56%</text></g>
<g><text x="580.18" y="158.04" text-anchor="middle" style="font-family: Arial;font-size: 10.98px;" textLength="37.80px" lengthAdjust="spacingAndGlyphs">disease</text></g>
<g><text x="580.18" y="171.21" text-anchor="middle" style="font-family: Arial;font-size: 10.98px;" textLength="21.34px" lengthAdjust="spacingAndGlyphs">0.23</text></g>
<g><text x="580.18" y="184.39" text-anchor="middle" style="font-family: Arial;font-size: 10.98px;" textLength="15.85px" lengthAdjust="spacingAndGlyphs">9%</text></g>
<g><text x="539.39" y="215.38" text-anchor="middle" style="font-family: Arial;font-size: 10.98px;" textLength="37.80px" lengthAdjust="spacingAndGlyphs">disease</text></g>
<g><text x="539.39" y="228.55" text-anchor="middle" style="font-family: Arial;font-size: 10.98px;" textLength="21.34px" lengthAdjust="spacingAndGlyphs">0.10</text></g>
<g><text x="539.39" y="241.72" text-anchor="middle" style="font-family: Arial;font-size: 10.98px;" textLength="15.85px" lengthAdjust="spacingAndGlyphs">8%</text></g>
<g><text x="512.20" y="484.85" text-anchor="middle" style="font-family: Arial;font-size: 10.98px;" textLength="37.80px" lengthAdjust="spacingAndGlyphs">disease</text></g>
<g><text x="512.20" y="498.03" text-anchor="middle" style="font-family: Arial;font-size: 10.98px;" textLength="21.34px" lengthAdjust="spacingAndGlyphs">0.00</text></g>
<g><text x="512.20" y="511.20" text-anchor="middle" style="font-family: Arial;font-size: 10.98px;" textLength="15.85px" lengthAdjust="spacingAndGlyphs">7%</text></g>
<g><text x="566.58" y="484.85" text-anchor="middle" style="font-family: Arial;font-size: 10.98px;" textLength="35.36px" lengthAdjust="spacingAndGlyphs">healthy</text></g>
<g><text x="566.58" y="498.03" text-anchor="middle" style="font-family: Arial;font-size: 10.98px;" textLength="21.34px" lengthAdjust="spacingAndGlyphs">0.57</text></g>
<g><text x="566.58" y="511.20" text-anchor="middle" style="font-family: Arial;font-size: 10.98px;" textLength="15.85px" lengthAdjust="spacingAndGlyphs">1%</text></g>
<g><text x="620.97" y="484.85" text-anchor="middle" style="font-family: Arial;font-size: 10.98px;" textLength="35.36px" lengthAdjust="spacingAndGlyphs">healthy</text></g>
<g><text x="620.97" y="498.03" text-anchor="middle" style="font-family: Arial;font-size: 10.98px;" textLength="21.34px" lengthAdjust="spacingAndGlyphs">1.00</text></g>
<g><text x="620.97" y="511.20" text-anchor="middle" style="font-family: Arial;font-size: 10.98px;" textLength="15.85px" lengthAdjust="spacingAndGlyphs">1%</text></g>
<g><text x="768.83" y="158.04" text-anchor="middle" style="font-family: Arial;font-size: 10.98px;" textLength="35.36px" lengthAdjust="spacingAndGlyphs">healthy</text></g>
<g><text x="768.83" y="171.21" text-anchor="middle" style="font-family: Arial;font-size: 10.98px;" textLength="21.34px" lengthAdjust="spacingAndGlyphs">0.79</text></g>
<g><text x="768.83" y="184.39" text-anchor="middle" style="font-family: Arial;font-size: 10.98px;" textLength="21.95px" lengthAdjust="spacingAndGlyphs">46%</text></g>
<g><text x="702.55" y="215.38" text-anchor="middle" style="font-family: Arial;font-size: 10.98px;" textLength="37.80px" lengthAdjust="spacingAndGlyphs">disease</text></g>
<g><text x="702.55" y="228.55" text-anchor="middle" style="font-family: Arial;font-size: 10.98px;" textLength="21.34px" lengthAdjust="spacingAndGlyphs">0.28</text></g>
<g><text x="702.55" y="241.72" text-anchor="middle" style="font-family: Arial;font-size: 10.98px;" textLength="15.85px" lengthAdjust="spacingAndGlyphs">5%</text></g>
<g><text x="675.36" y="484.85" text-anchor="middle" style="font-family: Arial;font-size: 10.98px;" textLength="37.80px" lengthAdjust="spacingAndGlyphs">disease</text></g>
<g><text x="675.36" y="498.03" text-anchor="middle" style="font-family: Arial;font-size: 10.98px;" textLength="21.34px" lengthAdjust="spacingAndGlyphs">0.00</text></g>
<g><text x="675.36" y="511.20" text-anchor="middle" style="font-family: Arial;font-size: 10.98px;" textLength="15.85px" lengthAdjust="spacingAndGlyphs">3%</text></g>
<g><text x="729.74" y="484.85" text-anchor="middle" style="font-family: Arial;font-size: 10.98px;" textLength="35.36px" lengthAdjust="spacingAndGlyphs">healthy</text></g>
<g><text x="729.74" y="498.03" text-anchor="middle" style="font-family: Arial;font-size: 10.98px;" textLength="21.34px" lengthAdjust="spacingAndGlyphs">0.88</text></g>
<g><text x="729.74" y="511.20" text-anchor="middle" style="font-family: Arial;font-size: 10.98px;" textLength="15.85px" lengthAdjust="spacingAndGlyphs">2%</text></g>
<g><text x="835.11" y="215.38" text-anchor="middle" style="font-family: Arial;font-size: 10.98px;" textLength="35.36px" lengthAdjust="spacingAndGlyphs">healthy</text></g>
<g><text x="835.11" y="228.55" text-anchor="middle" style="font-family: Arial;font-size: 10.98px;" textLength="21.34px" lengthAdjust="spacingAndGlyphs">0.85</text></g>
<g><text x="835.11" y="241.72" text-anchor="middle" style="font-family: Arial;font-size: 10.98px;" textLength="21.95px" lengthAdjust="spacingAndGlyphs">41%</text></g>
<g><text x="784.13" y="484.85" text-anchor="middle" style="font-family: Arial;font-size: 10.98px;" textLength="37.80px" lengthAdjust="spacingAndGlyphs">disease</text></g>
<g><text x="784.13" y="498.03" text-anchor="middle" style="font-family: Arial;font-size: 10.98px;" textLength="21.34px" lengthAdjust="spacingAndGlyphs">0.12</text></g>
<g><text x="784.13" y="511.20" text-anchor="middle" style="font-family: Arial;font-size: 10.98px;" textLength="15.85px" lengthAdjust="spacingAndGlyphs">2%</text></g>
<g><text x="886.10" y="272.71" text-anchor="middle" style="font-family: Arial;font-size: 10.98px;" textLength="35.36px" lengthAdjust="spacingAndGlyphs">healthy</text></g>
<g><text x="886.10" y="285.88" text-anchor="middle" style="font-family: Arial;font-size: 10.98px;" textLength="21.34px" lengthAdjust="spacingAndGlyphs">0.88</text></g>
<g><text x="886.10" y="299.06" text-anchor="middle" style="font-family: Arial;font-size: 10.98px;" textLength="21.95px" lengthAdjust="spacingAndGlyphs">40%</text></g>
<g><text x="838.51" y="484.85" text-anchor="middle" style="font-family: Arial;font-size: 10.98px;" textLength="37.80px" lengthAdjust="spacingAndGlyphs">disease</text></g>
<g><text x="838.51" y="498.03" text-anchor="middle" style="font-family: Arial;font-size: 10.98px;" textLength="21.34px" lengthAdjust="spacingAndGlyphs">0.12</text></g>
<g><text x="838.51" y="511.20" text-anchor="middle" style="font-family: Arial;font-size: 10.98px;" textLength="15.85px" lengthAdjust="spacingAndGlyphs">2%</text></g>
<g><text x="933.69" y="330.05" text-anchor="middle" style="font-family: Arial;font-size: 10.98px;" textLength="35.36px" lengthAdjust="spacingAndGlyphs">healthy</text></g>
<g><text x="933.69" y="343.22" text-anchor="middle" style="font-family: Arial;font-size: 10.98px;" textLength="21.34px" lengthAdjust="spacingAndGlyphs">0.92</text></g>
<g><text x="933.69" y="356.39" text-anchor="middle" style="font-family: Arial;font-size: 10.98px;" textLength="21.95px" lengthAdjust="spacingAndGlyphs">38%</text></g>
<g><text x="892.90" y="484.85" text-anchor="middle" style="font-family: Arial;font-size: 10.98px;" textLength="37.80px" lengthAdjust="spacingAndGlyphs">disease</text></g>
<g><text x="892.90" y="498.03" text-anchor="middle" style="font-family: Arial;font-size: 10.98px;" textLength="21.34px" lengthAdjust="spacingAndGlyphs">0.33</text></g>
<g><text x="892.90" y="511.20" text-anchor="middle" style="font-family: Arial;font-size: 10.98px;" textLength="15.85px" lengthAdjust="spacingAndGlyphs">2%</text></g>
<g><text x="974.48" y="387.38" text-anchor="middle" style="font-family: Arial;font-size: 10.98px;" textLength="35.36px" lengthAdjust="spacingAndGlyphs">healthy</text></g>
<g><text x="974.48" y="400.56" text-anchor="middle" style="font-family: Arial;font-size: 10.98px;" textLength="21.34px" lengthAdjust="spacingAndGlyphs">0.94</text></g>
<g><text x="974.48" y="413.73" text-anchor="middle" style="font-family: Arial;font-size: 10.98px;" textLength="21.95px" lengthAdjust="spacingAndGlyphs">36%</text></g>
<g><text x="947.29" y="484.85" text-anchor="middle" style="font-family: Arial;font-size: 10.98px;" textLength="37.80px" lengthAdjust="spacingAndGlyphs">disease</text></g>
<g><text x="947.29" y="498.03" text-anchor="middle" style="font-family: Arial;font-size: 10.98px;" textLength="21.34px" lengthAdjust="spacingAndGlyphs">0.43</text></g>
<g><text x="947.29" y="511.20" text-anchor="middle" style="font-family: Arial;font-size: 10.98px;" textLength="15.85px" lengthAdjust="spacingAndGlyphs">1%</text></g>
<g><text x="1001.67" y="484.85" text-anchor="middle" style="font-family: Arial;font-size: 10.98px;" textLength="35.36px" lengthAdjust="spacingAndGlyphs">healthy</text></g>
<g><text x="1001.67" y="498.03" text-anchor="middle" style="font-family: Arial;font-size: 10.98px;" textLength="21.34px" lengthAdjust="spacingAndGlyphs">0.97</text></g>
<g><text x="1001.67" y="511.20" text-anchor="middle" style="font-family: Arial;font-size: 10.98px;" textLength="21.95px" lengthAdjust="spacingAndGlyphs">35%</text></g>
<polygon points="420.71,77.48 420.80,77.15 421.06,76.84 421.47,76.57 422.02,76.36 422.65,76.23 423.33,76.19 441.17,76.19 441.85,76.23 442.48,76.36 443.02,76.57 443.44,76.84 443.70,77.15 443.79,77.48 443.79,85.23 443.70,85.57 443.44,85.88 443.02,86.14 442.48,86.35 441.85,86.48 441.17,86.52 423.33,86.52 422.65,86.48 422.02,86.35 421.47,86.14 421.06,85.88 420.80,85.57 420.71,85.23" style="stroke-width: 0.69;fill: #FFFFFF;" />
<polygon points="547.04,77.48 547.13,77.15 547.39,76.84 547.80,76.57 548.35,76.36 548.98,76.23 549.66,76.19 563.52,76.19 564.20,76.23 564.83,76.36 565.38,76.57 565.79,76.84 566.06,77.15 566.15,77.48 566.15,85.23 566.06,85.57 565.79,85.88 565.38,86.14 564.83,86.35 564.20,86.48 563.52,86.52 549.66,86.52 548.98,86.48 548.35,86.35 547.80,86.14 547.39,85.88 547.13,85.57 547.04,85.23" style="stroke-width: 0.69;fill: #FFFFFF;" />
<g><text x="431.33" y="83.63" text-anchor="middle" style="font-family: Arial;font-size: 8.78px;font-style: italic;" textLength="13.67px" lengthAdjust="spacingAndGlyphs">yes</text></g>
<g><text x="555.64" y="83.64" text-anchor="middle" style="font-family: Arial;font-size: 8.78px;font-style: italic;" textLength="9.76px" lengthAdjust="spacingAndGlyphs">no</text></g>
</g>
</svg>