<svg xmlns="http://www.w3.org/2000/svg" xmlns:xlink="http://www.w3.org/1999/xlink" class="httpgd" width="410.00" height="690.00" viewBox="0 0 328.00 552.00">
<defs>
  <style type='text/css'><![CDATA[
    .httpgd line, .httpgd polyline, .httpgd polygon, .httpgd path, .httpgd rect, .httpgd circle {
      fill: none;
      stroke: #000000;
      stroke-linecap: round;
      stroke-linejoin: round;
      stroke-miterlimit: 10.00;
    }
  ]]></style>
<clipPath id="c0"><rect x="0.00" y="0.00" width="328.00" height="552.00"/></clipPath>
<clipPath id="c1"><rect x="44.12" y="27.98" width="272.92" height="482.03"/></clipPath>
<clipPath id="c2"><rect x="0.00" y="0.00" width="328.00" height="552.00"/></clipPath>
<clipPath id="c3"><rect x="5.48" y="5.48" width="317.04" height="279.03"/></clipPath>
<clipPath id="c4"><rect x="0.00" y="0.00" width="328.00" height="552.00"/></clipPath>
<clipPath id="c5"><rect x="44.12" y="27.98" width="272.92" height="220.02"/></clipPath>
<clipPath id="c6"><rect x="0.00" y="0.00" width="328.00" height="552.00"/></clipPath>
<clipPath id="c7"><rect x="44.12" y="10.96" width="272.92" height="17.03"/></clipPath>
<clipPath id="c8"><rect x="0.00" y="0.00" width="328.00" height="552.00"/></clipPath>
<clipPath id="c9"><rect x="5.48" y="284.51" width="317.04" height="262.01"/></clipPath>
<clipPath id="c10"><rect x="0.00" y="0.00" width="328.00" height="552.00"/></clipPath>
<clipPath id="c11"><rect x="44.12" y="289.99" width="272.92" height="220.02"/></clipPath>
<clipPath id="c12"><rect x="0.00" y="0.00" width="328.00" height="552.00"/></clipPath>
</defs>
<rect width="100%" height="100%" style="stroke: none;fill: #FFFFFF;"/>
<g clip-path="url(#c0)">
<rect x="0.00" y="0.00" width="328.00" height="552.00" style="stroke-width: 1.07;stroke: #FFFFFF;fill: #FFFFFF;"/>
</g><g clip-path="url(#c3)">
<rect x="5.48" y="5.48" width="317.04" height="279.03" style="stroke-width: 1.07;stroke: #FFFFFF;fill: #FFFFFF;"/>
</g><g clip-path="url(#c5)">
<rect x="44.12" y="27.98" width="272.92" height="220.02" style="stroke-width: 1.07;stroke: none;fill: #FFFFFF;"/>
<polyline points="300.16,42.67 304.64,42.67" style="stroke-width: 1.07;stroke: #000000;stroke-opacity: 0.50;stroke-linecap: butt;"/>
<polyline points="302.40,42.67 302.40,53.58" style="stroke-width: 1.07;stroke: #000000;stroke-opacity: 0.50;stroke-linecap: butt;"/>
<polyline points="300.16,53.58 304.64,53.58" style="stroke-width: 1.07;stroke: #000000;stroke-opacity: 0.50;stroke-linecap: butt;"/>
<polyline points="295.19,42.67 299.66,42.67" style="stroke-width: 1.07;stroke: #000000;stroke-opacity: 0.50;stroke-linecap: butt;"/>
<polyline points="297.43,42.67 297.43,53.58" style="stroke-width: 1.07;stroke: #000000;stroke-opacity: 0.50;stroke-linecap: butt;"/>
<polyline points="295.19,53.58 299.66,53.58" style="stroke-width: 1.07;stroke: #000000;stroke-opacity: 0.50;stroke-linecap: butt;"/>
<polyline points="290.22,42.67 294.69,42.67" style="stroke-width: 1.07;stroke: #000000;stroke-opacity: 0.50;stroke-linecap: butt;"/>
<polyline points="292.45,42.67 292.45,53.58" style="stroke-width: 1.07;stroke: #000000;stroke-opacity: 0.50;stroke-linecap: butt;"/>
<polyline points="290.22,53.58 294.69,53.58" style="stroke-width: 1.07;stroke: #000000;stroke-opacity: 0.50;stroke-linecap: butt;"/>
<polyline points="285.24,42.67 289.72,42.67" style="stroke-width: 1.07;stroke: #000000;stroke-opacity: 0.50;stroke-linecap: butt;"/>
<polyline points="287.48,42.67 287.48,53.58" style="stroke-width: 1.07;stroke: #000000;stroke-opacity: 0.50;stroke-linecap: butt;"/>
<polyline points="285.24,53.58 289.72,53.58" style="stroke-width: 1.07;stroke: #000000;stroke-opacity: 0.50;stroke-linecap: butt;"/>
<polyline points="280.27,42.67 284.75,42.67" style="stroke-width: 1.07;stroke: #000000;stroke-opacity: 0.50;stroke-linecap: butt;"/>
<polyline points="282.51,42.67 282.51,53.58" style="stroke-width: 1.07;stroke: #000000;stroke-opacity: 0.50;stroke-linecap: butt;"/>
<polyline points="280.27,53.58 284.75,53.58" style="stroke-width: 1.07;stroke: #000000;stroke-opacity: 0.50;stroke-linecap: butt;"/>
<polyline points="275.30,42.67 279.77,42.67" style="stroke-width: 1.07;stroke: #000000;stroke-opacity: 0.50;stroke-linecap: butt;"/>
<polyline points="277.54,42.67 277.54,53.58" style="stroke-width: 1.07;stroke: #000000;stroke-opacity: 0.50;stroke-linecap: butt;"/>
<polyline points="275.30,53.58 279.77,53.58" style="stroke-width: 1.07;stroke: #000000;stroke-opacity: 0.50;stroke-linecap: butt;"/>
<polyline points="270.33,42.67 274.80,42.67" style="stroke-width: 1.07;stroke: #000000;stroke-opacity: 0.50;stroke-linecap: butt;"/>
<polyline points="272.56,42.67 272.56,53.58" style="stroke-width: 1.07;stroke: #000000;stroke-opacity: 0.50;stroke-linecap: butt;"/>
<polyline points="270.33,53.58 274.80,53.58" style="stroke-width: 1.07;stroke: #000000;stroke-opacity: 0.50;stroke-linecap: butt;"/>
<polyline points="265.36,42.67 269.83,42.67" style="stroke-width: 1.07;stroke: #000000;stroke-opacity: 0.50;stroke-linecap: butt;"/>
<polyline points="267.59,42.67 267.59,53.58" style="stroke-width: 1.07;stroke: #000000;stroke-opacity: 0.50;stroke-linecap: butt;"/>
<polyline points="265.36,53.58 269.83,53.58" style="stroke-width: 1.07;stroke: #000000;stroke-opacity: 0.50;stroke-linecap: butt;"/>
<polyline points="260.38,42.67 264.86,42.67" style="stroke-width: 1.07;stroke: #000000;stroke-opacity: 0.50;stroke-linecap: butt;"/>
<polyline points="262.62,42.67 262.62,53.58" style="stroke-width: 1.07;stroke: #000000;stroke-opacity: 0.50;stroke-linecap: butt;"/>
<polyline points="260.38,53.58 264.86,53.58" style="stroke-width: 1.07;stroke: #000000;stroke-opacity: 0.50;stroke-linecap: butt;"/>
<polyline points="255.41,42.15 259.89,42.15" style="stroke-width: 1.07;stroke: #000000;stroke-opacity: 0.50;stroke-linecap: butt;"/>
<polyline points="257.65,42.15 257.65,51.11" style="stroke-width: 1.07;stroke: #000000;stroke-opacity: 0.50;stroke-linecap: butt;"/>
<polyline points="255.41,51.11 259.89,51.11" style="stroke-width: 1.07;stroke: #000000;stroke-opacity: 0.50;stroke-linecap: butt;"/>
<polyline points="250.44,41.28 254.91,41.28" style="stroke-width: 1.07;stroke: #000000;stroke-opacity: 0.50;stroke-linecap: butt;"/>
<polyline points="252.68,41.28 252.68,48.99" style="stroke-width: 1.07;stroke: #000000;stroke-opacity: 0.50;stroke-linecap: butt;"/>
<polyline points="250.44,48.99 254.91,48.99" style="stroke-width: 1.07;stroke: #000000;stroke-opacity: 0.50;stroke-linecap: butt;"/>
<polyline points="245.47,41.28 249.94,41.28" style="stroke-width: 1.07;stroke: #000000;stroke-opacity: 0.50;stroke-linecap: butt;"/>
<polyline points="247.70,41.28 247.70,48.99" style="stroke-width: 1.07;stroke: #000000;stroke-opacity: 0.50;stroke-linecap: butt;"/>
<polyline points="245.47,48.99 249.94,48.99" style="stroke-width: 1.07;stroke: #000000;stroke-opacity: 0.50;stroke-linecap: butt;"/>
<polyline points="240.49,41.28 244.97,41.28" style="stroke-width: 1.07;stroke: #000000;stroke-opacity: 0.50;stroke-linecap: butt;"/>
<polyline points="242.73,41.28 242.73,48.99" style="stroke-width: 1.07;stroke: #000000;stroke-opacity: 0.50;stroke-linecap: butt;"/>
<polyline points="240.49,48.99 244.97,48.99" style="stroke-width: 1.07;stroke: #000000;stroke-opacity: 0.50;stroke-linecap: butt;"/>
<polyline points="235.52,41.28 240.00,41.28" style="stroke-width: 1.07;stroke: #000000;stroke-opacity: 0.50;stroke-linecap: butt;"/>
<polyline points="237.76,41.28 237.76,48.99" style="stroke-width: 1.07;stroke: #000000;stroke-opacity: 0.50;stroke-linecap: butt;"/>
<polyline points="235.52,48.99 240.00,48.99" style="stroke-width: 1.07;stroke: #000000;stroke-opacity: 0.50;stroke-linecap: butt;"/>
<polyline points="230.55,41.28 235.02,41.28" style="stroke-width: 1.07;stroke: #000000;stroke-opacity: 0.50;stroke-linecap: butt;"/>
<polyline points="232.79,41.28 232.79,48.99" style="stroke-width: 1.07;stroke: #000000;stroke-opacity: 0.50;stroke-linecap: butt;"/>
<polyline points="230.55,48.99 235.02,48.99" style="stroke-width: 1.07;stroke: #000000;stroke-opacity: 0.50;stroke-linecap: butt;"/>
<polyline points="225.58,41.28 230.05,41.28" style="stroke-width: 1.07;stroke: #000000;stroke-opacity: 0.50;stroke-linecap: butt;"/>
<polyline points="227.82,41.28 227.82,48.99" style="stroke-width: 1.07;stroke: #000000;stroke-opacity: 0.50;stroke-linecap: butt;"/>
<polyline points="225.58,48.99 230.05,48.99" style="stroke-width: 1.07;stroke: #000000;stroke-opacity: 0.50;stroke-linecap: butt;"/>
<polyline points="220.61,41.28 225.08,41.28" style="stroke-width: 1.07;stroke: #000000;stroke-opacity: 0.50;stroke-linecap: butt;"/>
<polyline points="222.84,41.28 222.84,48.99" style="stroke-width: 1.07;stroke: #000000;stroke-opacity: 0.50;stroke-linecap: butt;"/>
<polyline points="220.61,48.99 225.08,48.99" style="stroke-width: 1.07;stroke: #000000;stroke-opacity: 0.50;stroke-linecap: butt;"/>
<polyline points="215.63,41.28 220.11,41.28" style="stroke-width: 1.07;stroke: #000000;stroke-opacity: 0.50;stroke-linecap: butt;"/>
<polyline points="217.87,41.28 217.87,48.99" style="stroke-width: 1.07;stroke: #000000;stroke-opacity: 0.50;stroke-linecap: butt;"/>
<polyline points="215.63,48.99 220.11,48.99" style="stroke-width: 1.07;stroke: #000000;stroke-opacity: 0.50;stroke-linecap: butt;"/>
<polyline points="210.66,37.99 215.14,37.99" style="stroke-width: 1.07;stroke: #000000;stroke-opacity: 0.50;stroke-linecap: butt;"/>
<polyline points="212.90,37.99 212.90,49.30" style="stroke-width: 1.07;stroke: #000000;stroke-opacity: 0.50;stroke-linecap: butt;"/>
<polyline points="210.66,49.30 215.14,49.30" style="stroke-width: 1.07;stroke: #000000;stroke-opacity: 0.50;stroke-linecap: butt;"/>
<polyline points="205.69,37.99 210.16,37.99" style="stroke-width: 1.07;stroke: #000000;stroke-opacity: 0.50;stroke-linecap: butt;"/>
<polyline points="207.93,37.99 207.93,49.30" style="stroke-width: 1.07;stroke: #000000;stroke-opacity: 0.50;stroke-linecap: butt;"/>
<polyline points="205.69,49.30 210.16,49.30" style="stroke-width: 1.07;stroke: #000000;stroke-opacity: 0.50;stroke-linecap: butt;"/>
<polyline points="200.72,37.99 205.19,37.99" style="stroke-width: 1.07;stroke: #000000;stroke-opacity: 0.50;stroke-linecap: butt;"/>
<polyline points="202.95,37.99 202.95,49.30" style="stroke-width: 1.07;stroke: #000000;stroke-opacity: 0.50;stroke-linecap: butt;"/>
<polyline points="200.72,49.30 205.19,49.30" style="stroke-width: 1.07;stroke: #000000;stroke-opacity: 0.50;stroke-linecap: butt;"/>
<polyline points="195.74,40.00 200.22,40.00" style="stroke-width: 1.07;stroke: #000000;stroke-opacity: 0.50;stroke-linecap: butt;"/>
<polyline points="197.98,40.00 197.98,53.25" style="stroke-width: 1.07;stroke: #000000;stroke-opacity: 0.50;stroke-linecap: butt;"/>
<polyline points="195.74,53.25 200.22,53.25" style="stroke-width: 1.07;stroke: #000000;stroke-opacity: 0.50;stroke-linecap: butt;"/>
<polyline points="190.77,40.00 195.25,40.00" style="stroke-width: 1.07;stroke: #000000;stroke-opacity: 0.50;stroke-linecap: butt;"/>
<polyline points="193.01,40.00 193.01,53.25" style="stroke-width: 1.07;stroke: #000000;stroke-opacity: 0.50;stroke-linecap: butt;"/>
<polyline points="190.77,53.25 195.25,53.25" style="stroke-width: 1.07;stroke: #000000;stroke-opacity: 0.50;stroke-linecap: butt;"/>
<polyline points="185.80,38.02 190.28,38.02" style="stroke-width: 1.07;stroke: #000000;stroke-opacity: 0.50;stroke-linecap: butt;"/>
<polyline points="188.04,38.02 188.04,52.25" style="stroke-width: 1.07;stroke: #000000;stroke-opacity: 0.50;stroke-linecap: butt;"/>
<polyline points="185.80,52.25 190.28,52.25" style="stroke-width: 1.07;stroke: #000000;stroke-opacity: 0.50;stroke-linecap: butt;"/>
<polyline points="180.83,37.99 185.30,37.99" style="stroke-width: 1.07;stroke: #000000;stroke-opacity: 0.50;stroke-linecap: butt;"/>
<polyline points="183.07,37.99 183.07,49.30" style="stroke-width: 1.07;stroke: #000000;stroke-opacity: 0.50;stroke-linecap: butt;"/>
<polyline points="180.83,49.30 185.30,49.30" style="stroke-width: 1.07;stroke: #000000;stroke-opacity: 0.50;stroke-linecap: butt;"/>
<polyline points="175.86,39.96 180.33,39.96" style="stroke-width: 1.07;stroke: #000000;stroke-opacity: 0.50;stroke-linecap: butt;"/>
<polyline points="178.09,39.96 178.09,50.31" style="stroke-width: 1.07;stroke: #000000;stroke-opacity: 0.50;stroke-linecap: butt;"/>
<polyline points="175.86,50.31 180.33,50.31" style="stroke-width: 1.07;stroke: #000000;stroke-opacity: 0.50;stroke-linecap: butt;"/>
<polyline points="170.88,40.00 175.36,40.00" style="stroke-width: 1.07;stroke: #000000;stroke-opacity: 0.50;stroke-linecap: butt;"/>
<polyline points="173.12,40.00 173.12,53.25" style="stroke-width: 1.07;stroke: #000000;stroke-opacity: 0.50;stroke-linecap: butt;"/>
<polyline points="170.88,53.25 175.36,53.25" style="stroke-width: 1.07;stroke: #000000;stroke-opacity: 0.50;stroke-linecap: butt;"/>
<polyline points="165.91,40.00 170.39,40.00" style="stroke-width: 1.07;stroke: #000000;stroke-opacity: 0.50;stroke-linecap: butt;"/>
<polyline points="168.15,40.00 168.15,53.25" style="stroke-width: 1.07;stroke: #000000;stroke-opacity: 0.50;stroke-linecap: butt;"/>
<polyline points="165.91,53.25 170.39,53.25" style="stroke-width: 1.07;stroke: #000000;stroke-opacity: 0.50;stroke-linecap: butt;"/>
<polyline points="160.94,40.00 165.41,40.00" style="stroke-width: 1.07;stroke: #000000;stroke-opacity: 0.50;stroke-linecap: butt;"/>
<polyline points="163.18,40.00 163.18,53.25" style="stroke-width: 1.07;stroke: #000000;stroke-opacity: 0.50;stroke-linecap: butt;"/>
<polyline points="160.94,53.25 165.41,53.25" style="stroke-width: 1.07;stroke: #000000;stroke-opacity: 0.50;stroke-linecap: butt;"/>
<polyline points="155.97,41.67 160.44,41.67" style="stroke-width: 1.07;stroke: #000000;stroke-opacity: 0.50;stroke-linecap: butt;"/>
<polyline points="158.20,41.67 158.20,54.58" style="stroke-width: 1.07;stroke: #000000;stroke-opacity: 0.50;stroke-linecap: butt;"/>
<polyline points="155.97,54.58 160.44,54.58" style="stroke-width: 1.07;stroke: #000000;stroke-opacity: 0.50;stroke-linecap: butt;"/>
<polyline points="151.00,41.76 155.47,41.76" style="stroke-width: 1.07;stroke: #000000;stroke-opacity: 0.50;stroke-linecap: butt;"/>
<polyline points="153.23,41.76 153.23,57.47" style="stroke-width: 1.07;stroke: #000000;stroke-opacity: 0.50;stroke-linecap: butt;"/>
<polyline points="151.00,57.47 155.47,57.47" style="stroke-width: 1.07;stroke: #000000;stroke-opacity: 0.50;stroke-linecap: butt;"/>
<polyline points="146.02,42.15 150.50,42.15" style="stroke-width: 1.07;stroke: #000000;stroke-opacity: 0.50;stroke-linecap: butt;"/>
<polyline points="148.26,42.15 148.26,57.08" style="stroke-width: 1.07;stroke: #000000;stroke-opacity: 0.50;stroke-linecap: butt;"/>
<polyline points="146.02,57.08 150.50,57.08" style="stroke-width: 1.07;stroke: #000000;stroke-opacity: 0.50;stroke-linecap: butt;"/>
<polyline points="141.05,47.64 145.53,47.64" style="stroke-width: 1.07;stroke: #000000;stroke-opacity: 0.50;stroke-linecap: butt;"/>
<polyline points="143.29,47.64 143.29,60.55" style="stroke-width: 1.07;stroke: #000000;stroke-opacity: 0.50;stroke-linecap: butt;"/>
<polyline points="141.05,60.55 145.53,60.55" style="stroke-width: 1.07;stroke: #000000;stroke-opacity: 0.50;stroke-linecap: butt;"/>
<polyline points="136.08,45.98 140.55,45.98" style="stroke-width: 1.07;stroke: #000000;stroke-opacity: 0.50;stroke-linecap: butt;"/>
<polyline points="138.32,45.98 138.32,59.23" style="stroke-width: 1.07;stroke: #000000;stroke-opacity: 0.50;stroke-linecap: butt;"/>
<polyline points="136.08,59.23 140.55,59.23" style="stroke-width: 1.07;stroke: #000000;stroke-opacity: 0.50;stroke-linecap: butt;"/>
<polyline points="131.11,49.43 135.58,49.43" style="stroke-width: 1.07;stroke: #000000;stroke-opacity: 0.50;stroke-linecap: butt;"/>
<polyline points="133.34,49.43 133.34,61.75" style="stroke-width: 1.07;stroke: #000000;stroke-opacity: 0.50;stroke-linecap: butt;"/>
<polyline points="131.11,61.75 135.58,61.75" style="stroke-width: 1.07;stroke: #000000;stroke-opacity: 0.50;stroke-linecap: butt;"/>
<polyline points="126.13,45.30 130.61,45.30" style="stroke-width: 1.07;stroke: #000000;stroke-opacity: 0.50;stroke-linecap: butt;"/>
<polyline points="128.37,45.30 128.37,62.89" style="stroke-width: 1.07;stroke: #000000;stroke-opacity: 0.50;stroke-linecap: butt;"/>
<polyline points="126.13,62.89 130.61,62.89" style="stroke-width: 1.07;stroke: #000000;stroke-opacity: 0.50;stroke-linecap: butt;"/>
<polyline points="121.16,46.03 125.64,46.03" style="stroke-width: 1.07;stroke: #000000;stroke-opacity: 0.50;stroke-linecap: butt;"/>
<polyline points="123.40,46.03 123.40,65.16" style="stroke-width: 1.07;stroke: #000000;stroke-opacity: 0.50;stroke-linecap: butt;"/>
<polyline points="121.16,65.16 125.64,65.16" style="stroke-width: 1.07;stroke: #000000;stroke-opacity: 0.50;stroke-linecap: butt;"/>
<polyline points="116.19,57.34 120.66,57.34" style="stroke-width: 1.07;stroke: #000000;stroke-opacity: 0.50;stroke-linecap: butt;"/>
<polyline points="118.43,57.34 118.43,68.78" style="stroke-width: 1.07;stroke: #000000;stroke-opacity: 0.50;stroke-linecap: butt;"/>
<polyline points="116.19,68.78 120.66,68.78" style="stroke-width: 1.07;stroke: #000000;stroke-opacity: 0.50;stroke-linecap: butt;"/>
<polyline points="111.22,66.77 115.69,66.77" style="stroke-width: 1.07;stroke: #000000;stroke-opacity: 0.50;stroke-linecap: butt;"/>
<polyline points="113.46,66.77 113.46,74.29" style="stroke-width: 1.07;stroke: #000000;stroke-opacity: 0.50;stroke-linecap: butt;"/>
<polyline points="111.22,74.29 115.69,74.29" style="stroke-width: 1.07;stroke: #000000;stroke-opacity: 0.50;stroke-linecap: butt;"/>
<polyline points="106.25,61.38 110.72,61.38" style="stroke-width: 1.07;stroke: #000000;stroke-opacity: 0.50;stroke-linecap: butt;"/>
<polyline points="108.48,61.38 108.48,73.70" style="stroke-width: 1.07;stroke: #000000;stroke-opacity: 0.50;stroke-linecap: butt;"/>
<polyline points="106.25,73.70 110.72,73.70" style="stroke-width: 1.07;stroke: #000000;stroke-opacity: 0.50;stroke-linecap: butt;"/>
<polyline points="101.27,58.73 105.75,58.73" style="stroke-width: 1.07;stroke: #000000;stroke-opacity: 0.50;stroke-linecap: butt;"/>
<polyline points="103.51,58.73 103.51,73.37" style="stroke-width: 1.07;stroke: #000000;stroke-opacity: 0.50;stroke-linecap: butt;"/>
<polyline points="101.27,73.37 105.75,73.37" style="stroke-width: 1.07;stroke: #000000;stroke-opacity: 0.50;stroke-linecap: butt;"/>
<polyline points="96.30,61.47 100.78,61.47" style="stroke-width: 1.07;stroke: #000000;stroke-opacity: 0.50;stroke-linecap: butt;"/>
<polyline points="98.54,61.47 98.54,85.56" style="stroke-width: 1.07;stroke: #000000;stroke-opacity: 0.50;stroke-linecap: butt;"/>
<polyline points="96.30,85.56 100.78,85.56" style="stroke-width: 1.07;stroke: #000000;stroke-opacity: 0.50;stroke-linecap: butt;"/>
<polyline points="91.33,66.50 95.80,66.50" style="stroke-width: 1.07;stroke: #000000;stroke-opacity: 0.50;stroke-linecap: butt;"/>
<polyline points="93.57,66.50 93.57,92.49" style="stroke-width: 1.07;stroke: #000000;stroke-opacity: 0.50;stroke-linecap: butt;"/>
<polyline points="91.33,92.49 95.80,92.49" style="stroke-width: 1.07;stroke: #000000;stroke-opacity: 0.50;stroke-linecap: butt;"/>
<polyline points="86.36,73.94 90.83,73.94" style="stroke-width: 1.07;stroke: #000000;stroke-opacity: 0.50;stroke-linecap: butt;"/>
<polyline points="88.59,73.94 88.59,99.98" style="stroke-width: 1.07;stroke: #000000;stroke-opacity: 0.50;stroke-linecap: butt;"/>
<polyline points="86.36,99.98 90.83,99.98" style="stroke-width: 1.07;stroke: #000000;stroke-opacity: 0.50;stroke-linecap: butt;"/>
<polyline points="81.38,81.35 85.86,81.35" style="stroke-width: 1.07;stroke: #000000;stroke-opacity: 0.50;stroke-linecap: butt;"/>
<polyline points="83.62,81.35 83.62,113.48" style="stroke-width: 1.07;stroke: #000000;stroke-opacity: 0.50;stroke-linecap: butt;"/>
<polyline points="81.38,113.48 85.86,113.48" style="stroke-width: 1.07;stroke: #000000;stroke-opacity: 0.50;stroke-linecap: butt;"/>
<polyline points="76.41,94.84 80.89,94.84" style="stroke-width: 1.07;stroke: #000000;stroke-opacity: 0.50;stroke-linecap: butt;"/>
<polyline points="78.65,94.84 78.65,117.92" style="stroke-width: 1.07;stroke: #000000;stroke-opacity: 0.50;stroke-linecap: butt;"/>
<polyline points="76.41,117.92 80.89,117.92" style="stroke-width: 1.07;stroke: #000000;stroke-opacity: 0.50;stroke-linecap: butt;"/>
<polyline points="71.44,111.03 75.92,111.03" style="stroke-width: 1.07;stroke: #000000;stroke-opacity: 0.50;stroke-linecap: butt;"/>
<polyline points="73.68,111.03 73.68,128.62" style="stroke-width: 1.07;stroke: #000000;stroke-opacity: 0.50;stroke-linecap: butt;"/>
<polyline points="71.44,128.62 75.92,128.62" style="stroke-width: 1.07;stroke: #000000;stroke-opacity: 0.50;stroke-linecap: butt;"/>
<polyline points="66.47,115.76 70.94,115.76" style="stroke-width: 1.07;stroke: #000000;stroke-opacity: 0.50;stroke-linecap: butt;"/>
<polyline points="68.71,115.76 68.71,141.81" style="stroke-width: 1.07;stroke: #000000;stroke-opacity: 0.50;stroke-linecap: butt;"/>
<polyline points="66.47,141.81 70.94,141.81" style="stroke-width: 1.07;stroke: #000000;stroke-opacity: 0.50;stroke-linecap: butt;"/>
<polyline points="61.50,166.01 65.97,166.01" style="stroke-width: 1.07;stroke: #000000;stroke-opacity: 0.50;stroke-linecap: butt;"/>
<polyline points="63.73,166.01 63.73,223.01" style="stroke-width: 1.07;stroke: #000000;stroke-opacity: 0.50;stroke-linecap: butt;"/>
<polyline points="61.50,223.01 65.97,223.01" style="stroke-width: 1.07;stroke: #000000;stroke-opacity: 0.50;stroke-linecap: butt;"/>
<polyline points="56.52,198.82 61.00,198.82" style="stroke-width: 1.07;stroke: #000000;stroke-opacity: 0.50;stroke-linecap: butt;"/>
<polyline points="58.76,198.82 58.76,238.00" style="stroke-width: 1.07;stroke: #000000;stroke-opacity: 0.50;stroke-linecap: butt;"/>
<polyline points="56.52,238.00 61.00,238.00" style="stroke-width: 1.07;stroke: #000000;stroke-opacity: 0.50;stroke-linecap: butt;"/>
<circle cx="302.40" cy="48.12" r="1.95" style="stroke-width: 0.71;stroke: #545454;fill: #545454;"/>
<circle cx="297.43" cy="48.12" r="1.95" style="stroke-width: 0.71;stroke: #545454;fill: #545454;"/>
<circle cx="292.45" cy="48.12" r="1.95" style="stroke-width: 0.71;stroke: #545454;fill: #545454;"/>
<circle cx="287.48" cy="48.12" r="1.95" style="stroke-width: 0.71;stroke: #545454;fill: #545454;"/>
<circle cx="282.51" cy="48.12" r="1.95" style="stroke-width: 0.71;stroke: #545454;fill: #545454;"/>
<circle cx="277.54" cy="48.12" r="1.95" style="stroke-width: 0.71;stroke: #545454;fill: #545454;"/>
<circle cx="272.56" cy="48.12" r="1.95" style="stroke-width: 0.71;stroke: #545454;fill: #545454;"/>
<circle cx="267.59" cy="48.12" r="1.95" style="stroke-width: 0.71;stroke: #545454;fill: #545454;"/>
<circle cx="262.62" cy="48.12" r="1.95" style="stroke-width: 0.71;stroke: #545454;fill: #545454;"/>
<circle cx="257.65" cy="46.63" r="1.95" style="stroke-width: 0.71;stroke: #545454;fill: #545454;"/>
<circle cx="252.68" cy="45.13" r="1.95" style="stroke-width: 0.71;stroke: #545454;fill: #545454;"/>
<circle cx="247.70" cy="45.13" r="1.95" style="stroke-width: 0.71;stroke: #545454;fill: #545454;"/>
<circle cx="242.73" cy="45.13" r="1.95" style="stroke-width: 0.71;stroke: #545454;fill: #545454;"/>
<circle cx="237.76" cy="45.13" r="1.95" style="stroke-width: 0.71;stroke: #545454;fill: #545454;"/>
<circle cx="232.79" cy="45.13" r="1.95" style="stroke-width: 0.71;stroke: #545454;fill: #545454;"/>
<circle cx="227.82" cy="45.13" r="1.95" style="stroke-width: 0.71;stroke: #545454;fill: #545454;"/>
<circle cx="222.84" cy="45.13" r="1.95" style="stroke-width: 0.71;stroke: #545454;fill: #545454;"/>
<circle cx="217.87" cy="45.13" r="1.95" style="stroke-width: 0.71;stroke: #545454;fill: #545454;"/>
<circle cx="212.90" cy="43.64" r="1.95" style="stroke-width: 0.71;stroke: #545454;fill: #545454;"/>
<circle cx="207.93" cy="43.64" r="1.95" style="stroke-width: 0.71;stroke: #545454;fill: #545454;"/>
<circle cx="202.95" cy="43.64" r="1.95" style="stroke-width: 0.71;stroke: #545454;fill: #545454;"/>
<circle cx="197.98" cy="46.63" r="1.95" style="stroke-width: 0.71;stroke: #545454;fill: #545454;"/>
<circle cx="193.01" cy="46.63" r="1.95" style="stroke-width: 0.71;stroke: #545454;fill: #545454;"/>
<circle cx="188.04" cy="45.13" r="1.95" style="stroke-width: 0.71;stroke: #545454;fill: #545454;"/>
<circle cx="183.07" cy="43.64" r="1.95" style="stroke-width: 0.71;stroke: #545454;fill: #545454;"/>
<circle cx="178.09" cy="45.13" r="1.95" style="stroke-width: 0.71;stroke: #545454;fill: #545454;"/>
<circle cx="173.12" cy="46.63" r="1.95" style="stroke-width: 0.71;stroke: #545454;fill: #545454;"/>
<circle cx="168.15" cy="46.63" r="1.95" style="stroke-width: 0.71;stroke: #545454;fill: #545454;"/>
<circle cx="163.18" cy="46.63" r="1.95" style="stroke-width: 0.71;stroke: #545454;fill: #545454;"/>
<circle cx="158.20" cy="48.12" r="1.95" style="stroke-width: 0.71;stroke: #545454;fill: #545454;"/>
<circle cx="153.23" cy="49.62" r="1.95" style="stroke-width: 0.71;stroke: #545454;fill: #545454;"/>
<circle cx="148.26" cy="49.62" r="1.95" style="stroke-width: 0.71;stroke: #545454;fill: #545454;"/>
<circle cx="143.29" cy="54.10" r="1.95" style="stroke-width: 0.71;stroke: #545454;fill: #545454;"/>
<circle cx="138.32" cy="52.60" r="1.95" style="stroke-width: 0.71;stroke: #545454;fill: #545454;"/>
<circle cx="133.34" cy="55.59" r="1.95" style="stroke-width: 0.71;stroke: #545454;fill: #545454;"/>
<circle cx="128.37" cy="54.10" r="1.95" style="stroke-width: 0.71;stroke: #545454;fill: #545454;"/>
<circle cx="123.40" cy="55.59" r="1.95" style="stroke-width: 0.71;stroke: #545454;fill: #545454;"/>
<circle cx="118.43" cy="63.06" r="1.95" style="stroke-width: 0.71;stroke: #545454;fill: #545454;"/>
<circle cx="113.46" cy="70.53" r="1.95" style="stroke-width: 0.71;stroke: #545454;fill: #545454;"/>
<circle cx="108.48" cy="67.54" r="1.95" style="stroke-width: 0.71;stroke: #545454;fill: #545454;"/>
<circle cx="103.51" cy="66.05" r="1.95" style="stroke-width: 0.71;stroke: #545454;fill: #545454;"/>
<circle cx="98.54" cy="73.52" r="1.95" style="stroke-width: 0.71;stroke: #545454;fill: #545454;"/>
<circle cx="93.57" cy="79.49" r="1.95" style="stroke-width: 0.71;stroke: #545454;fill: #545454;"/>
<circle cx="88.59" cy="86.96" r="1.95" style="stroke-width: 0.71;stroke: #545454;fill: #545454;"/>
<circle cx="83.62" cy="97.42" r="1.95" style="stroke-width: 0.71;stroke: #545454;fill: #545454;"/>
<circle cx="78.65" cy="106.38" r="1.95" style="stroke-width: 0.71;stroke: #545454;fill: #545454;"/>
<circle cx="73.68" cy="119.82" r="1.95" style="stroke-width: 0.71;stroke: #545454;fill: #545454;"/>
<circle cx="68.71" cy="128.79" r="1.95" style="stroke-width: 0.71;stroke: #545454;fill: #545454;"/>
<circle cx="63.73" cy="194.51" r="1.95" style="stroke-width: 0.71;stroke: #545454;fill: #545454;"/>
<circle cx="58.76" cy="218.41" r="1.95" style="stroke-width: 0.71;stroke: #545454;fill: #545454;"/>
</g><g clip-path="url(#c7)">
<rect x="44.12" y="10.96" width="272.92" height="17.03" style="stroke-width: 2.13;fill: #FFFFFF;"/>
<g><text x="180.58" y="22.63" text-anchor="middle" style="font-family: Arial;font-size: 8.80px;fill: #1A1A1A;" textLength="35.22px" lengthAdjust="spacingAndGlyphs">accuracy</text></g>
</g><g clip-path="url(#c8)">
<polyline points="44.12,248.01 317.04,248.01" style="stroke-width: 1.07;stroke-linecap: butt;"/>
<polyline points="295.05,250.75 295.05,248.01" style="stroke-width: 1.07;stroke: #333333;stroke-linecap: butt;"/>
<polyline points="242.14,250.75 242.14,248.01" style="stroke-width: 1.07;stroke: #333333;stroke-linecap: butt;"/>
<polyline points="189.24,250.75 189.24,248.01" style="stroke-width: 1.07;stroke: #333333;stroke-linecap: butt;"/>
<polyline points="136.33,250.75 136.33,248.01" style="stroke-width: 1.07;stroke: #333333;stroke-linecap: butt;"/>
<polyline points="83.43,250.75 83.43,248.01" style="stroke-width: 1.07;stroke: #333333;stroke-linecap: butt;"/>
<g><text x="295.05" y="259.24" text-anchor="middle" style="font-family: Arial;font-size: 8.80px;fill: #4D4D4D;" textLength="7.83px" lengthAdjust="spacingAndGlyphs">-6</text></g>
<g><text x="242.14" y="259.24" text-anchor="middle" style="font-family: Arial;font-size: 8.80px;fill: #4D4D4D;" textLength="7.83px" lengthAdjust="spacingAndGlyphs">-5</text></g>
<g><text x="189.24" y="259.24" text-anchor="middle" style="font-family: Arial;font-size: 8.80px;fill: #4D4D4D;" textLength="7.83px" lengthAdjust="spacingAndGlyphs">-4</text></g>
<g><text x="136.33" y="259.24" text-anchor="middle" style="font-family: Arial;font-size: 8.80px;fill: #4D4D4D;" textLength="7.83px" lengthAdjust="spacingAndGlyphs">-3</text></g>
<g><text x="83.43" y="259.24" text-anchor="middle" style="font-family: Arial;font-size: 8.80px;fill: #4D4D4D;" textLength="7.83px" lengthAdjust="spacingAndGlyphs">-2</text></g>
<polyline points="44.12,248.01 44.12,27.98" style="stroke-width: 1.07;stroke-linecap: butt;"/>
<g><text x="39.19" y="182.73" text-anchor="end" style="font-family: Arial;font-size: 8.80px;fill: #4D4D4D;" textLength="12.23px" lengthAdjust="spacingAndGlyphs">0.6</text></g>
<g><text x="39.19" y="108.04" text-anchor="end" style="font-family: Arial;font-size: 8.80px;fill: #4D4D4D;" textLength="12.23px" lengthAdjust="spacingAndGlyphs">0.7</text></g>
<g><text x="39.19" y="33.35" text-anchor="end" style="font-family: Arial;font-size: 8.80px;fill: #4D4D4D;" textLength="12.23px" lengthAdjust="spacingAndGlyphs">0.8</text></g>
<polyline points="41.38,179.58 44.12,179.58" style="stroke-width: 1.07;stroke: #333333;stroke-linecap: butt;"/>
<polyline points="41.38,104.89 44.12,104.89" style="stroke-width: 1.07;stroke: #333333;stroke-linecap: butt;"/>
<polyline points="41.38,30.20 44.12,30.20" style="stroke-width: 1.07;stroke: #333333;stroke-linecap: butt;"/>
<g><text x="165.64" y="273.89" style="font-family: Arial;font-size: 11.00px;" textLength="14.68px" lengthAdjust="spacingAndGlyphs">log</text></g>
<g><text x="180.32" y="273.89" style="font-family: Symbol;font-size: 13.75px;" textLength="4.58px" lengthAdjust="spacingAndGlyphs">(</text></g>
<g><text x="184.90" y="273.89" style="font-family: Symbol;font-size: 11.00px;" textLength="6.03px" lengthAdjust="spacingAndGlyphs">λ</text></g>
<g><text x="190.94" y="273.89" style="font-family: Symbol;font-size: 13.75px;" textLength="4.58px" lengthAdjust="spacingAndGlyphs">)</text></g>
<g><text transform="translate(18.85,137.99) rotate(-90.00)" text-anchor="middle" style="font-family: Arial;font-size: 11.00px;" textLength="63.58px" lengthAdjust="spacingAndGlyphs">CV Accuracy</text></g>
</g><g clip-path="url(#c9)">
<rect x="5.48" y="284.51" width="317.04" height="262.01" style="stroke-width: 1.07;stroke: #FFFFFF;fill: #FFFFFF;"/>
</g><g clip-path="url(#c11)">
<rect x="44.12" y="289.99" width="272.92" height="220.02" style="stroke-width: 1.07;stroke: none;fill: #FFFFFF;"/>
<line x1="44.12" y1="424.36" x2="317.04" y2="424.36" style="stroke-width: 3.20;stroke-linecap: butt;"/>
<polyline points="56.52,409.25 59.03,409.24 61.54,409.22 64.04,409.19 66.55,409.15 69.05,409.10 71.56,409.03 74.07,408.96 76.57,408.88 79.08,408.79 81.59,408.69 84.09,408.59 86.60,408.48 89.10,408.35 91.61,408.22 94.12,408.08 96.62,407.94 99.13,407.78 101.63,407.61 104.14,407.43 106.65,407.25 109.15,407.07 111.66,406.87 114.17,406.68 116.67,406.50 119.18,406.32 121.68,406.15 124.19,405.96 126.70,405.78 129.20,405.59 131.71,405.40 134.22,405.23 136.72,405.05 139.23,404.88 141.73,404.71 144.24,404.54 146.75,404.36 149.25,404.18 151.76,403.99 154.26,403.81 156.77,403.62 159.28,403.45 161.78,403.27 164.29,403.10 166.80,402.94 169.30,402.78 171.81,402.62 174.31,402.47 176.82,402.31 179.33,402.16 181.83,402.01 184.34,401.87 186.85,401.72 189.35,401.57 191.86,401.43 194.36,401.29 196.87,401.16 199.38,401.02 201.88,400.89 204.39,400.76 206.89,400.64 209.40,400.52 211.91,400.40 214.41,400.28 216.92,400.17 219.43,400.06 221.93,399.95 224.44,399.85 226.94,399.74 229.45,399.65 231.96,399.55 234.46,399.46 236.97,399.36 239.47,399.27 241.98,399.18 244.49,399.10 246.99,399.02 249.50,398.94 252.01,398.87 254.51,398.80 257.02,398.73 259.52,398.66 262.03,398.60 264.54,398.53 267.04,398.47 269.55,398.41 272.06,398.36 274.56,398.30 277.07,398.25 279.57,398.20 282.08,398.16 284.59,398.11 287.09,398.07 289.60,398.02 292.10,397.98 294.61,397.94 297.12,397.91 299.62,397.87 302.13,397.84 304.64,397.80" style="stroke-width: 1.07;stroke: #0C0C0C;stroke-linecap: butt;"/>
<polyline points="81.59,421.34 84.09,416.60 86.60,411.57 89.10,406.80 91.61,402.47 94.12,398.65 96.62,394.96 99.13,391.52 101.63,388.17 104.14,384.88 106.65,381.87 109.15,379.01 111.66,376.98 114.17,375.31 116.67,374.12 119.18,373.50 121.68,372.44 124.19,370.93 126.70,369.40 129.20,367.86 131.71,366.33 134.22,364.80 136.72,363.16 139.23,361.67 141.73,360.23 144.24,358.81 146.75,358.02 149.25,357.45 151.76,356.92 154.26,356.53 156.77,356.18 159.28,355.72 161.78,355.20 164.29,354.48 166.80,353.80 169.30,353.34 171.81,352.91 174.31,352.56 176.82,352.19 179.33,351.83 181.83,351.47 184.34,351.12 186.85,350.71 189.35,350.38 191.86,350.30 194.36,350.94 196.87,351.86 199.38,352.55 201.88,353.24 204.39,354.04 206.89,354.62 209.40,355.22 211.91,355.83 214.41,356.44 216.92,357.06 219.43,357.67 221.93,358.28 224.44,358.69 226.94,359.32 229.45,359.74 231.96,360.15 234.46,360.35 236.97,360.58 239.47,360.85 241.98,361.13 244.49,361.41 246.99,361.68 249.50,361.93 252.01,362.18 254.51,362.40 257.02,362.56 259.52,362.74 262.03,362.89 264.54,363.00 267.04,363.11 269.55,363.21 272.06,363.29 274.56,363.36 277.07,363.43 279.57,363.48 282.08,363.53 284.59,363.57 287.09,363.61 289.60,363.64 292.10,363.67 294.61,363.70 297.12,363.72 299.62,363.73 302.13,363.75 304.64,363.76" style="stroke-width: 1.07;stroke: #0C0C0C;stroke-linecap: butt;"/>
<polyline points="186.85,424.31 189.35,424.08 191.86,423.64 194.36,422.57 196.87,421.23 199.38,420.13 201.88,419.00 204.39,417.76 206.89,416.75 209.40,415.71 211.91,414.66 214.41,413.61 216.92,412.56 219.43,411.51 221.93,410.46 224.44,409.67 226.94,408.61 229.45,407.82 231.96,407.03 234.46,406.48 236.97,405.94 239.47,405.40 241.98,404.87 244.49,404.35 246.99,403.84 249.50,403.35 252.01,402.83 254.51,402.35 257.02,402.02 259.52,401.67 262.03,401.35 264.54,401.06 267.04,400.81 269.55,400.60 272.06,400.41 274.56,400.24 277.07,400.09 279.57,399.95 282.08,399.81 284.59,399.69 287.09,399.57 289.60,399.45 292.10,399.35 294.61,399.25 297.12,399.15 299.62,399.06 302.13,398.97 304.64,398.89" style="stroke-width: 1.07;stroke: #0C0C0C;stroke-linecap: butt;"/>
<polyline points="229.45,424.39 231.96,424.48 234.46,424.60 236.97,424.74 239.47,424.85 241.98,424.95 244.49,425.04 246.99,425.14 249.50,425.23 252.01,425.35 254.51,425.46 257.02,425.54 259.52,425.64 262.03,425.70 264.54,425.76 267.04,425.78 269.55,425.78 272.06,425.78 274.56,425.77 277.07,425.77 279.57,425.77 282.08,425.76 284.59,425.75 287.09,425.73 289.60,425.72 292.10,425.71 294.61,425.69 297.12,425.68 299.62,425.66 302.13,425.65 304.64,425.63" style="stroke-width: 1.07;stroke: #0C0C0C;stroke-linecap: butt;"/>
<polyline points="59.03,416.11 61.54,408.21 64.04,400.64 66.55,393.36 69.05,386.37 71.56,380.76 74.07,377.19 76.57,377.32 79.08,377.34 81.59,379.35 84.09,383.20 86.60,390.40 89.10,396.80 91.61,402.75 94.12,407.92 96.62,412.75 99.13,416.69 101.63,420.54 104.14,424.19" style="stroke-width: 1.07;stroke: #0C0C0C;stroke-linecap: butt;"/>
<polyline points="74.07,424.20 76.57,422.23 79.08,420.26 81.59,416.42 84.09,410.90 86.60,402.97 89.10,395.56 91.61,388.43 94.12,381.23 96.62,374.23 99.13,368.41 101.63,362.76 104.14,357.28 106.65,353.92 109.15,350.48 111.66,347.44 114.17,345.02 116.67,343.48 119.18,343.60 121.68,342.95 124.19,341.40 126.70,339.76 129.20,338.13 131.71,336.54 134.22,334.99 136.72,333.83 139.23,332.50 141.73,331.17 144.24,329.82 146.75,328.52 149.25,327.58 151.76,326.70 154.26,326.02 156.77,325.04 159.28,323.82 161.78,322.78 164.29,322.57 166.80,322.21 169.30,321.70 171.81,321.46 174.31,321.04 176.82,320.98 179.33,320.59 181.83,320.49 184.34,320.10 186.85,319.54 189.35,319.05 191.86,318.65 194.36,318.39 196.87,318.13 199.38,317.88 201.88,317.65 204.39,317.47 206.89,317.27 209.40,317.08 211.91,316.89 214.41,316.71 216.92,316.53 219.43,316.36 221.93,316.19 224.44,316.01 226.94,315.85 229.45,315.66 231.96,315.44 234.46,315.18 236.97,314.90 239.47,314.60 241.98,314.24 244.49,313.87 246.99,313.48 249.50,313.09 252.01,312.72 254.51,312.35 257.02,312.01 259.52,311.68 262.03,311.33 264.54,311.08 267.04,310.82 269.55,310.57 272.06,310.33 274.56,310.09 277.07,309.86 279.57,309.64 282.08,309.43 284.59,309.22 287.09,309.03 289.60,308.84 292.10,308.66 294.61,308.49 297.12,308.33 299.62,308.18 302.13,308.03 304.64,307.89" style="stroke-width: 1.07;stroke: #0C0C0C;stroke-linecap: butt;"/>
<polyline points="186.85,424.11 189.35,423.58 191.86,422.94 194.36,422.06 196.87,421.01 199.38,420.07 201.88,419.08 204.39,417.97 206.89,417.01 209.40,416.04 211.91,415.07 214.41,414.11 216.92,413.15 219.43,412.21 221.93,411.28 224.44,410.54 226.94,409.65 229.45,408.95 231.96,408.26 234.46,407.75 236.97,407.28 239.47,406.85 241.98,406.46 244.49,406.08 246.99,405.72 249.50,405.37 252.01,405.04 254.51,404.71 257.02,404.39 259.52,404.08 262.03,403.79 264.54,403.50 267.04,403.24 269.55,402.98 272.06,402.74 274.56,402.52 277.07,402.32 279.57,402.13 282.08,401.97 284.59,401.82 287.09,401.68 289.60,401.56 292.10,401.44 294.61,401.35 297.12,401.26 299.62,401.18 302.13,401.11 304.64,401.04" style="stroke-width: 1.07;stroke: #0C0C0C;stroke-linecap: butt;"/>
<polyline points="99.13,422.72 101.63,420.83 104.14,419.00 106.65,417.12 109.15,415.37 111.66,413.33 114.17,411.27 116.67,409.16 119.18,406.52 121.68,404.54 124.19,402.75 126.70,401.13 129.20,399.61 131.71,398.08 134.22,396.55 136.72,394.90 139.23,393.17 141.73,391.44 144.24,389.76 146.75,387.99 149.25,385.97 151.76,383.92 154.26,381.56 156.77,379.51 159.28,377.99 161.78,376.30 164.29,373.94 166.80,372.20 169.30,371.03 171.81,369.73 174.31,368.79 176.82,367.66 179.33,366.80 181.83,365.78 184.34,364.98 186.85,364.58 189.35,364.36 191.86,364.40 194.36,364.96 196.87,365.81 199.38,366.57 201.88,367.38 204.39,368.36 206.89,369.17 209.40,370.01 211.91,370.87 214.41,371.75 216.92,372.62 219.43,373.50 221.93,374.36 224.44,375.02 226.94,375.88 229.45,376.53 231.96,377.17 234.46,377.60 236.97,378.01 239.47,378.36 241.98,378.68 244.49,378.98 246.99,379.26 249.50,379.53 252.01,379.79 254.51,380.02 257.02,380.27 259.52,380.50 262.03,380.71 264.54,380.89 267.04,381.08 269.55,381.25 272.06,381.40 274.56,381.54 277.07,381.66 279.57,381.78 282.08,381.89 284.59,381.99 287.09,382.09 289.60,382.18 292.10,382.26 294.61,382.34 297.12,382.41 299.62,382.48 302.13,382.54 304.64,382.59" style="stroke-width: 1.07;stroke: #0C0C0C;stroke-linecap: butt;"/>
<polyline points="134.22,424.01 136.72,423.58 139.23,423.02 141.73,422.47 144.24,421.91 146.75,421.56 149.25,421.38 151.76,421.23 154.26,421.13 156.77,420.94 159.28,420.98 161.78,421.39 164.29,423.08" style="stroke-width: 1.07;stroke: #0C0C0C;stroke-linecap: butt;"/>
<polyline points="186.85,423.89 189.35,423.41 191.86,422.84 194.36,422.39 196.87,421.95 199.38,421.40 201.88,420.80 204.39,420.21 206.89,419.55 209.40,418.88 211.91,418.19 214.41,417.49 216.92,416.79 219.43,416.08 221.93,415.37 224.44,414.67 226.94,413.96 229.45,413.28 231.96,412.63 234.46,412.02 236.97,411.41 239.47,410.78 241.98,410.14 244.49,409.51 246.99,408.87 249.50,408.25 252.01,407.64 254.51,407.03 257.02,406.45 259.52,405.89 262.03,405.33 264.54,404.82 267.04,404.46 269.55,404.20 272.06,403.95 274.56,403.71 277.07,403.49 279.57,403.28 282.08,403.08 284.59,402.88 287.09,402.69 289.60,402.51 292.10,402.34 294.61,402.17 297.12,402.01 299.62,401.86 302.13,401.70 304.64,401.55" style="stroke-width: 1.07;stroke: #0C0C0C;stroke-linecap: butt;"/>
<polyline points="156.77,424.25 159.28,423.45 161.78,422.75 164.29,422.22 166.80,421.69 169.30,421.08 171.81,420.54 174.31,420.02 176.82,419.57 179.33,419.09 181.83,418.65 184.34,418.21 186.85,418.19 189.35,418.24 191.86,418.32 194.36,418.25 196.87,418.11 199.38,418.11 201.88,418.14 204.39,418.16 206.89,418.27 209.40,418.40 211.91,418.55 214.41,418.71 216.92,418.89 219.43,419.08 221.93,419.28 224.44,419.50 226.94,419.72 229.45,419.96 231.96,420.20 234.46,420.44 236.97,420.70 239.47,421.00 241.98,421.33 244.49,421.66 246.99,422.01 249.50,422.36 252.01,422.71 254.51,423.06 257.02,423.39 259.52,423.73 262.03,424.05 264.54,424.31" style="stroke-width: 1.07;stroke: #0C0C0C;stroke-linecap: butt;"/>
<polyline points="109.15,424.50 111.66,426.55 114.17,428.81 116.67,431.34 119.18,434.32 121.68,436.03 124.19,437.11 126.70,438.04 129.20,438.89 131.71,439.71 134.22,440.48 136.72,440.84 139.23,441.50 141.73,442.17 144.24,442.85 146.75,443.70 149.25,444.65 151.76,445.55 154.26,446.52 156.77,447.54 159.28,448.27 161.78,449.05 164.29,449.58 166.80,449.83 169.30,450.16 171.81,450.43 174.31,450.64 176.82,450.70 179.33,450.83 181.83,450.87 184.34,451.01 186.85,451.22 189.35,451.36 191.86,451.66 194.36,452.15 196.87,452.64 199.38,453.06 201.88,453.46 204.39,453.80 206.89,454.10 209.40,454.37 211.91,454.61 214.41,454.82 216.92,455.01 219.43,455.18 221.93,455.34 224.44,455.49 226.94,455.62 229.45,455.74 231.96,455.83 234.46,455.92 236.97,456.03 239.47,456.23 241.98,456.44 244.49,456.64 246.99,456.84 249.50,457.02 252.01,457.14 254.51,457.27 257.02,457.42 259.52,457.56 262.03,457.71 264.54,457.90 267.04,458.10 269.55,458.30 272.06,458.49 274.56,458.67 277.07,458.85 279.57,459.02 282.08,459.19 284.59,459.36 287.09,459.52 289.60,459.68 292.10,459.84 294.61,459.99 297.12,460.15 299.62,460.30 302.13,460.44 304.64,460.58" style="stroke-width: 1.07;stroke: #0C0C0C;stroke-linecap: butt;"/>
<polyline points="74.07,423.93 76.57,419.23 79.08,415.20 81.59,411.09 84.09,406.88 86.60,402.91 89.10,399.54 91.61,396.21 94.12,393.00 96.62,389.90 99.13,386.62 101.63,383.36 104.14,380.17 106.65,378.05 109.15,376.11 111.66,374.67 114.17,373.15 116.67,371.55 119.18,369.61 121.68,367.98 124.19,366.53 126.70,365.20 129.20,363.89 131.71,362.61 134.22,361.28 136.72,359.92 139.23,358.46 141.73,357.01 144.24,355.57 146.75,353.30 149.25,350.86 151.76,348.36 154.26,345.79 156.77,343.41 159.28,340.96 161.78,338.67 164.29,336.38 166.80,334.41 169.30,332.68 171.81,330.94 174.31,329.38 176.82,327.79 179.33,326.33 181.83,324.84 184.34,323.46 186.85,322.19 189.35,320.94 191.86,319.89 194.36,319.18 196.87,318.40 199.38,317.65 201.88,316.93 204.39,316.27 206.89,315.57 209.40,314.90 211.91,314.25 214.41,313.60 216.92,312.96 219.43,312.34 221.93,311.73 224.44,311.10 226.94,310.53 229.45,309.94 231.96,309.36 234.46,308.77 236.97,308.21 239.47,307.73 241.98,307.26 244.49,306.82 246.99,306.39 249.50,305.97 252.01,305.58 254.51,305.19 257.02,304.81 259.52,304.43 262.03,304.09 264.54,303.73 267.04,303.37 269.55,303.03 272.06,302.71 274.56,302.41 277.07,302.12 279.57,301.86 282.08,301.62 284.59,301.39 287.09,301.18 289.60,300.97 292.10,300.78 294.61,300.60 297.12,300.44 299.62,300.28 302.13,300.13 304.64,299.99" style="stroke-width: 1.07;stroke: #0C0C0C;stroke-linecap: butt;"/>
<polyline points="234.46,424.35 236.97,424.35 257.02,424.34 259.52,424.33 262.03,424.33 264.54,424.27 267.04,424.23 269.55,424.21 272.06,424.20 274.56,424.20 277.07,424.19 279.57,424.18 282.08,424.16 284.59,424.13 287.09,424.10 289.60,424.06 292.10,424.02 294.61,423.97 297.12,423.92 299.62,423.86 302.13,423.81 304.64,423.75" style="stroke-width: 1.07;stroke: #0C0C0C;stroke-linecap: butt;"/>
<polyline points="206.89,424.36 209.40,424.34 211.91,424.33 214.41,424.31 216.92,424.27 219.43,424.22 221.93,424.15 224.44,424.07 226.94,423.97 229.45,423.88 231.96,423.78 234.46,423.69 236.97,423.61 239.47,423.61 241.98,423.63 244.49,423.67 246.99,423.71 249.50,423.76 252.01,423.81 254.51,423.86 257.02,423.86 259.52,423.87 262.03,423.89 264.54,423.87 267.04,423.83 269.55,423.80 272.06,423.77 274.56,423.75 277.07,423.74 279.57,423.73 282.08,423.72 284.59,423.72 287.09,423.71 289.60,423.72 292.10,423.72 294.61,423.73 297.12,423.73 299.62,423.74 302.13,423.75 304.64,423.77" style="stroke-width: 1.07;stroke: #0C0C0C;stroke-linecap: butt;"/>
<polyline points="191.86,424.29 194.36,424.14 196.87,423.98 199.38,423.76 201.88,423.51 204.39,423.22 206.89,422.95 209.40,422.68 211.91,422.40 214.41,422.13 216.92,421.86 219.43,421.59 221.93,421.33 224.44,421.13 226.94,420.87 229.45,420.68 231.96,420.49 234.46,420.36 236.97,420.29 239.47,420.30 241.98,420.33 244.49,420.38 246.99,420.44 249.50,420.51 252.01,420.59 254.51,420.67 257.02,420.77 259.52,420.89 262.03,421.00 264.54,421.06 267.04,421.13 269.55,421.21 272.06,421.30 274.56,421.38 277.07,421.46 279.57,421.54 282.08,421.61 284.59,421.68 287.09,421.74 289.60,421.80 292.10,421.86 294.61,421.92 297.12,421.97 299.62,422.01 302.13,422.05 304.64,422.09" style="stroke-width: 1.07;stroke: #0C0C0C;stroke-linecap: butt;"/>
<polyline points="191.86,424.70 194.36,425.47 196.87,426.22 199.38,426.95 201.88,427.59 204.39,428.16 206.89,428.69 209.40,429.14 211.91,429.53 214.41,429.86 216.92,430.15 219.43,430.39 221.93,430.59 224.44,430.81 226.94,430.92 229.45,431.09 231.96,431.24 234.46,431.44 236.97,431.68 239.47,431.98 241.98,432.27 244.49,432.56 246.99,432.84 249.50,433.11 252.01,433.33 254.51,433.53 257.02,433.76 259.52,433.95 262.03,434.11 264.54,434.32 267.04,434.49 269.55,434.61 272.06,434.72 274.56,434.83 277.07,434.93 279.57,435.03 282.08,435.13 284.59,435.22 287.09,435.31 289.60,435.40 292.10,435.50 294.61,435.59 297.12,435.69 299.62,435.78 302.13,435.87 304.64,435.96" style="stroke-width: 1.07;stroke: #0C0C0C;stroke-linecap: butt;"/>
<polyline points="201.88,424.43 204.39,424.52 206.89,424.64 209.40,424.80 211.91,424.99 214.41,425.20 216.92,425.43 219.43,425.68 221.93,425.93 224.44,426.17 226.94,426.47 229.45,426.72 231.96,426.98 234.46,427.18 236.97,427.39 239.47,427.60 241.98,427.79 244.49,427.98 246.99,428.15 249.50,428.32 252.01,428.52 254.51,428.71 257.02,428.86 259.52,429.02 262.03,429.16 264.54,429.26 267.04,429.40 269.55,429.56 272.06,429.71 274.56,429.85 277.07,429.99 279.57,430.12 282.08,430.23 284.59,430.34 287.09,430.44 289.60,430.52 292.10,430.59 294.61,430.66 297.12,430.71 299.62,430.76 302.13,430.80 304.64,430.84" style="stroke-width: 1.07;stroke: #0C0C0C;stroke-linecap: butt;"/>
<polyline points="114.17,425.14 116.67,427.15 119.18,430.01 121.68,432.51 124.19,434.32 126.70,436.08 129.20,437.80 131.71,439.45 134.22,441.05 136.72,442.61 139.23,444.12 141.73,445.60 144.24,447.04 146.75,448.16 149.25,449.15 151.76,450.11 154.26,451.03 156.77,451.95 159.28,452.95 161.78,454.01 164.29,455.33 166.80,456.79 169.30,458.25 171.81,459.64 174.31,461.10 176.82,462.51 179.33,463.93 181.83,465.29 184.34,466.63 186.85,467.93 189.35,469.22 191.86,470.48 194.36,471.73 196.87,472.97 199.38,474.20 201.88,475.40 204.39,476.62 206.89,477.80 209.40,478.95 211.91,480.07 214.41,481.17 216.92,482.25 219.43,483.30 221.93,484.33 224.44,485.30 226.94,486.27 229.45,487.18 231.96,488.03 234.46,488.82 236.97,489.51 239.47,490.12 241.98,490.67 244.49,491.18 246.99,491.66 249.50,492.12 252.01,492.55 254.51,492.94 257.02,493.38 259.52,493.77 262.03,494.19 264.54,494.60 267.04,495.00 269.55,495.40 272.06,495.80 274.56,496.19 277.07,496.56 279.57,496.92 282.08,497.27 284.59,497.62 287.09,497.95 289.60,498.27 292.10,498.59 294.61,498.89 297.12,499.19 299.62,499.47 302.13,499.75 304.64,500.01" style="stroke-width: 1.07;stroke: #0C0C0C;stroke-linecap: butt;"/>
<polyline points="74.07,424.16 76.57,418.64 79.08,414.20 81.59,411.38 84.09,409.61 86.60,408.49 89.10,407.84 91.61,407.57 94.12,407.14 96.62,406.62 99.13,406.67 101.63,406.82 104.14,406.94 106.65,406.49 109.15,405.91 111.66,406.34 114.17,406.76 116.67,407.13 119.18,408.42 121.68,409.52 124.19,410.17 126.70,410.88 129.20,411.59 131.71,412.32 134.22,412.98 136.72,413.80 139.23,414.25 141.73,414.64 144.24,415.01 146.75,414.65 149.25,414.34 151.76,413.97 154.26,413.45 156.77,412.83 159.28,411.79 161.78,410.92 164.29,410.09 166.80,409.11 169.30,407.97 171.81,406.89 174.31,405.70 176.82,404.55 179.33,403.41 181.83,402.31 184.34,401.23 186.85,400.15 189.35,399.24 191.86,398.36 194.36,397.57 196.87,396.64 199.38,395.72 201.88,394.82 204.39,393.94 206.89,393.06 209.40,392.22 211.91,391.40 214.41,390.60 216.92,389.81 219.43,389.05 221.93,388.29 224.44,387.56 226.94,386.85 229.45,386.16 231.96,385.50 234.46,384.87 236.97,384.32 239.47,383.85 241.98,383.40 244.49,382.99 246.99,382.59 249.50,382.22 252.01,381.91 254.51,381.62 257.02,381.33 259.52,381.05 262.03,380.80 264.54,380.53 267.04,380.25 269.55,379.97 272.06,379.71 274.56,379.46 277.07,379.22 279.57,378.99 282.08,378.78 284.59,378.58 287.09,378.39 289.60,378.20 292.10,378.02 294.61,377.84 297.12,377.67 299.62,377.51 302.13,377.36 304.64,377.22" style="stroke-width: 1.07;stroke: #0C0C0C;stroke-linecap: butt;"/>
<polyline points="76.57,425.47 79.08,427.73 81.59,430.37 84.09,433.16 86.60,435.71 89.10,437.52 91.61,439.26 94.12,440.57 96.62,441.77 99.13,442.71 101.63,443.61 104.14,444.50 106.65,445.08 109.15,445.55 111.66,446.03 114.17,446.74 116.67,447.78 119.18,449.33 121.68,450.89 124.19,452.11 126.70,453.35 129.20,454.61 131.71,455.87 134.22,457.10 136.72,458.60 139.23,459.82 141.73,461.00 144.24,462.15 146.75,463.14 149.25,464.20 151.76,465.25 154.26,466.20 156.77,466.98 159.28,467.54 161.78,468.21 164.29,469.31 166.80,470.38 169.30,471.21 171.81,472.13 174.31,472.98 176.82,473.98 179.33,474.83 181.83,475.79 184.34,476.61 186.85,477.37 189.35,478.18 191.86,479.06 194.36,480.14 196.87,481.19 199.38,482.20 201.88,483.20 204.39,484.22 206.89,485.12 209.40,486.02 211.91,486.89 214.41,487.74 216.92,488.57 219.43,489.39 221.93,490.18 224.44,490.87 226.94,491.64 229.45,492.31 231.96,492.96 234.46,493.51 236.97,494.05 239.47,494.59 241.98,495.09 244.49,495.58 246.99,496.03 249.50,496.47 252.01,496.80 254.51,497.08 257.02,497.33 259.52,497.54 262.03,497.66 264.54,497.78 267.04,497.93 269.55,498.07 272.06,498.21 274.56,498.34 277.07,498.48 279.57,498.60 282.08,498.70 284.59,498.80 287.09,498.89 289.60,498.97 292.10,499.04 294.61,499.11 297.12,499.18 299.62,499.25 302.13,499.32 304.64,499.38" style="stroke-width: 1.07;stroke: #0C0C0C;stroke-linecap: butt;"/>
<polyline points="206.89,424.38 209.40,424.41 211.91,424.44 214.41,424.46 216.92,424.48 219.43,424.49 221.93,424.50 224.44,424.54 226.94,424.52 229.45,424.53 231.96,424.52 234.46,424.54 236.97,424.53 239.47,424.51 241.98,424.50 244.49,424.48 246.99,424.47 249.50,424.47 252.01,424.54 254.51,424.62 257.02,424.76 259.52,424.88 262.03,425.07 264.54,425.25 267.04,425.40 269.55,425.53 272.06,425.65 274.56,425.76 277.07,425.87 279.57,425.98 282.08,426.10 284.59,426.22 287.09,426.33 289.60,426.45 292.10,426.56 294.61,426.66 297.12,426.77 299.62,426.86 302.13,426.96 304.64,427.05" style="stroke-width: 1.07;stroke: #0C0C0C;stroke-linecap: butt;"/>
<polyline points="299.62,424.37 302.13,424.38 304.64,424.38" style="stroke-width: 1.07;stroke: #0C0C0C;stroke-linecap: butt;"/>
<polyline points="119.18,424.95 121.68,426.51 124.19,427.93 126.70,429.50 129.20,431.11 131.71,432.75 134.22,434.29 136.72,436.25 139.23,437.68 141.73,439.02 144.24,440.31 146.75,441.03 149.25,441.65 151.76,442.24 154.26,442.68 156.77,443.02 159.28,443.59 161.78,444.27 164.29,445.58 166.80,447.02 169.30,447.87 171.81,448.66 174.31,449.50 176.82,450.38 179.33,451.24 181.83,452.10 184.34,452.90 186.85,453.61 189.35,454.38 191.86,455.09 194.36,455.72 196.87,456.29 199.38,456.90 201.88,457.52 204.39,458.15 206.89,458.81 209.40,459.46 211.91,460.12 214.41,460.77 216.92,461.42 219.43,462.07 221.93,462.70 224.44,463.30 226.94,463.91 229.45,464.50 231.96,465.10 234.46,465.67 236.97,466.24 239.47,466.73 241.98,467.18 244.49,467.61 246.99,468.02 249.50,468.42 252.01,468.70 254.51,468.94 257.02,469.16 259.52,469.34 262.03,469.46 264.54,469.59 267.04,469.69 269.55,469.77 272.06,469.85 274.56,469.92 277.07,469.99 279.57,470.05 282.08,470.09 284.59,470.12 287.09,470.14 289.60,470.16 292.10,470.17 294.61,470.18 297.12,470.17 299.62,470.17 302.13,470.15 304.64,470.13" style="stroke-width: 1.07;stroke: #0C0C0C;stroke-linecap: butt;"/>
<polyline points="249.50,424.37 252.01,424.59 254.51,424.80 257.02,425.01 259.52,425.22 262.03,425.44 264.54,425.61 267.04,425.77 269.55,425.91 272.06,426.05 274.56,426.18 277.07,426.30 279.57,426.43 282.08,426.55 284.59,426.68 287.09,426.80 289.60,426.92 292.10,427.04 294.61,427.15 297.12,427.25 299.62,427.35 302.13,427.45 304.64,427.54" style="stroke-width: 1.07;stroke: #0C0C0C;stroke-linecap: butt;"/>
<polyline points="159.28,422.88 161.78,420.63 164.29,415.79 166.80,411.77 169.30,410.10 171.81,409.01 174.31,408.07 176.82,407.55 179.33,406.73 181.83,406.24 184.34,405.52 186.85,404.57 189.35,403.68 191.86,402.79 194.36,401.91 196.87,401.04 199.38,400.16 201.88,399.29 204.39,398.49 206.89,397.67 209.40,396.84 211.91,396.00 214.41,395.17 216.92,394.34 219.43,393.53 221.93,392.73 224.44,391.95 226.94,391.18 229.45,390.45 231.96,389.75 234.46,389.08 236.97,388.42 239.47,387.76 241.98,387.09 244.49,386.42 246.99,385.75 249.50,385.08 252.01,384.40 254.51,383.77 257.02,383.20 259.52,382.68 262.03,382.15 264.54,381.65 267.04,381.13 269.55,380.62 272.06,380.11 274.56,379.63 277.07,379.17 279.57,378.75 282.08,378.35 284.59,377.98 287.09,377.63 289.60,377.30 292.10,377.00 294.61,376.71 297.12,376.45 299.62,376.20 302.13,375.96 304.64,375.73" style="stroke-width: 1.07;stroke: #0C0C0C;stroke-linecap: butt;"/>
<polyline points="91.61,422.97 94.12,421.40 96.62,420.02 99.13,418.82 101.63,417.65 104.14,416.48 106.65,415.08 109.15,413.74 111.66,412.40 114.17,411.04 116.67,409.62 119.18,408.11 121.68,406.35 124.19,404.46 126.70,402.53 129.20,400.59 131.71,398.67 134.22,396.85 136.72,394.85 139.23,393.22 141.73,391.65 144.24,390.12 146.75,388.52 149.25,386.76 151.76,385.03 154.26,383.48 156.77,382.10 159.28,381.88 161.78,382.18 164.29,384.18 166.80,385.54 169.30,385.28 171.81,384.59 174.31,383.78 176.82,382.64 179.33,381.76 181.83,380.66 184.34,379.79 186.85,379.15 189.35,378.49 191.86,377.94 194.36,377.56 196.87,377.19 199.38,376.84 201.88,376.48 204.39,376.06 206.89,375.66 209.40,375.28 211.91,374.90 214.41,374.54 216.92,374.17 219.43,373.81 221.93,373.45 224.44,373.09 226.94,372.75 229.45,372.40 231.96,372.06 234.46,371.73 236.97,371.45 239.47,371.24 241.98,371.11 244.49,371.02 246.99,370.96 249.50,370.93 252.01,370.89 254.51,370.86 257.02,370.76 259.52,370.66 262.03,370.56 264.54,370.49 267.04,370.45 269.55,370.42 272.06,370.39 274.56,370.36 277.07,370.33 279.57,370.29 282.08,370.24 284.59,370.19 287.09,370.13 289.60,370.06 292.10,370.00 294.61,369.93 297.12,369.86 299.62,369.80 302.13,369.73 304.64,369.66" style="stroke-width: 1.07;stroke: #0C0C0C;stroke-linecap: butt;"/>
<polyline points="71.56,421.98 74.07,418.56 76.57,416.60 79.08,415.33 81.59,415.60 84.09,416.73 86.60,418.32 89.10,419.63 91.61,421.21 94.12,422.17 96.62,422.92 99.13,423.23 101.63,423.48 104.14,423.74 106.65,423.37 109.15,422.81 111.66,422.06 114.17,421.43 116.67,420.98 119.18,421.04 121.68,421.29 124.19,421.38 126.70,421.53 129.20,421.75 131.71,421.95 134.22,422.13 136.72,422.55 139.23,422.56 141.73,422.52 144.24,422.47 146.75,422.87 149.25,423.51 151.76,424.14" style="stroke-width: 1.07;stroke: #0C0C0C;stroke-linecap: butt;"/>
<polyline points="76.57,423.56 79.08,421.58 81.59,418.59 84.09,415.07 86.60,412.08 89.10,409.12 91.61,405.72 94.12,402.39 96.62,399.21 99.13,397.15 101.63,395.31 104.14,393.49 106.65,391.77 109.15,390.06 111.66,388.36 114.17,386.85 116.67,385.59 119.18,384.34 121.68,382.05 124.19,379.80 126.70,377.32 129.20,374.77 131.71,372.31 134.22,370.04 136.72,367.82 139.23,366.18 141.73,364.63 144.24,363.12 146.75,361.97 149.25,361.05 151.76,360.26 154.26,360.08 156.77,359.78 159.28,359.27 161.78,358.72 164.29,358.32 166.80,357.42 169.30,356.56 171.81,355.96 174.31,355.00 176.82,354.35 179.33,353.38 181.83,352.69 184.34,351.75 186.85,350.71 189.35,349.72 191.86,348.86 194.36,348.11 196.87,347.43 199.38,346.72 201.88,346.02 204.39,345.30 206.89,344.60 209.40,343.90 211.91,343.20 214.41,342.50 216.92,341.82 219.43,341.14 221.93,340.47 224.44,339.83 226.94,339.17 229.45,338.56 231.96,337.94 234.46,337.37 236.97,336.85 239.47,336.37 241.98,335.92 244.49,335.48 246.99,335.06 249.50,334.65 252.01,334.20 254.51,333.80 257.02,333.44 259.52,333.09 262.03,332.72 264.54,332.45 267.04,332.18 269.55,331.92 272.06,331.65 274.56,331.39 277.07,331.13 279.57,330.87 282.08,330.61 284.59,330.35 287.09,330.09 289.60,329.83 292.10,329.58 294.61,329.33 297.12,329.09 299.62,328.85 302.13,328.62 304.64,328.40" style="stroke-width: 1.07;stroke: #0C0C0C;stroke-linecap: butt;"/>
<polyline points="146.75,422.98 149.25,421.18 151.76,419.41 154.26,418.45 156.77,417.89 159.28,417.37 161.78,417.01 164.29,417.90 166.80,418.72 169.30,419.02 171.81,420.22 174.31,420.51 176.82,422.05 179.33,422.46 181.83,423.80 184.34,424.24 186.85,424.19 189.35,424.19 191.86,424.20 234.46,424.30 236.97,424.27 239.47,424.20 241.98,424.10 244.49,424.00 246.99,423.90 249.50,423.79 252.01,423.71 254.51,423.61 257.02,423.48 259.52,423.35 262.03,423.23 264.54,423.12 267.04,422.99 269.55,422.85 272.06,422.73 274.56,422.61 277.07,422.51 279.57,422.42 282.08,422.33 284.59,422.26 287.09,422.20 289.60,422.14 292.10,422.09 294.61,422.04 297.12,422.00 299.62,421.96 302.13,421.94 304.64,421.92" style="stroke-width: 1.07;stroke: #0C0C0C;stroke-linecap: butt;"/>
<polyline points="164.29,424.34 166.80,424.31 169.30,424.30 171.81,424.29 174.31,424.29 176.82,424.28 179.33,424.27 181.83,424.27 184.34,424.26 186.85,424.25 189.35,424.25 191.86,424.25 194.36,424.36 224.44,424.33 229.45,424.34 231.96,424.34 234.46,424.33 236.97,424.34 239.47,424.33 241.98,424.32 244.49,424.31 246.99,424.30 249.50,424.30 252.01,424.30 254.51,424.30 257.02,424.29 259.52,424.28 262.03,424.28 264.54,424.27 267.04,424.30 269.55,424.32 272.06,424.34" style="stroke-width: 1.07;stroke: #0C0C0C;stroke-linecap: butt;"/>
<polyline points="151.76,424.30 154.26,423.42 156.77,422.32 159.28,421.42 161.78,420.38 164.29,417.99 166.80,415.92 169.30,414.69 171.81,412.58 174.31,411.44 176.82,409.09 179.33,407.91 181.83,405.83 184.34,404.67 186.85,404.10 189.35,403.55 191.86,403.03 194.36,402.30 196.87,401.80 199.38,401.37 201.88,400.97 204.39,400.61 206.89,400.27 209.40,399.96 211.91,399.67 214.41,399.39 216.92,399.14 219.43,398.90 221.93,398.67 224.44,398.47 226.94,398.23 229.45,398.05 231.96,397.85 234.46,397.71 236.97,397.53 239.47,397.34 241.98,397.17 244.49,397.01 246.99,396.85 249.50,396.71 252.01,396.57 254.51,396.45 257.02,396.35 259.52,396.25 262.03,396.16 264.54,396.09 267.04,396.02 269.55,395.95 272.06,395.88 274.56,395.81 277.07,395.75 279.57,395.69 282.08,395.63 284.59,395.57 287.09,395.52 289.60,395.46 292.10,395.41 294.61,395.36 297.12,395.31 299.62,395.26 302.13,395.21 304.64,395.16" style="stroke-width: 1.07;stroke: #0C0C0C;stroke-linecap: butt;"/>
<polyline points="166.80,424.03 169.30,423.13 171.81,422.15 174.31,421.01 176.82,419.82 179.33,418.69 181.83,417.54 184.34,416.47 186.85,415.45 189.35,414.47 191.86,413.45 194.36,412.34 196.87,411.25 199.38,410.20 201.88,409.18 204.39,408.16 206.89,407.20 209.40,406.28 211.91,405.38 214.41,404.53 216.92,403.72 219.43,402.94 221.93,402.19 224.44,401.49 226.94,400.80 229.45,400.16 231.96,399.58 234.46,399.05 236.97,398.54 239.47,398.00 241.98,397.47 244.49,396.96 246.99,396.48 249.50,396.03 252.01,395.59 254.51,395.18 257.02,394.91 259.52,394.60 262.03,394.31 264.54,394.07 267.04,393.84 269.55,393.58 272.06,393.33 274.56,393.08 277.07,392.83 279.57,392.60 282.08,392.39 284.59,392.18 287.09,391.98 289.60,391.80 292.10,391.62 294.61,391.45 297.12,391.29 299.62,391.14 302.13,391.00 304.64,390.86" style="stroke-width: 1.07;stroke: #0C0C0C;stroke-linecap: butt;"/>
<polyline points="71.56,423.88 74.07,421.07 76.57,420.10 79.08,419.28 81.59,418.27 84.09,417.05 86.60,415.17 89.10,413.36 91.61,411.92 94.12,411.67 96.62,411.64 99.13,411.61 101.63,411.56 104.14,411.53 106.65,412.55 109.15,413.80 111.66,414.46 114.17,414.93 116.67,415.18 119.18,414.46 121.68,414.36 124.19,414.63 126.70,414.99 129.20,415.33 131.71,415.62 134.22,416.04 136.72,416.18 139.23,416.61 141.73,417.05 144.24,417.50 146.75,417.74 149.25,417.53 151.76,417.28 154.26,416.99 156.77,417.02 159.28,417.26 161.78,417.26 164.29,416.39 166.80,416.01 169.30,416.27 171.81,416.36 174.31,416.69 176.82,416.82 179.33,417.15 181.83,417.32 184.34,417.64 186.85,418.08 189.35,418.52 191.86,418.82 194.36,418.94 196.87,419.10 199.38,419.30 201.88,419.53 204.39,419.81 206.89,420.10 209.40,420.42 211.91,420.75 214.41,421.11 216.92,421.48 219.43,421.87 221.93,422.28 224.44,422.65 226.94,423.06 229.45,423.44 231.96,423.85 234.46,424.21" style="stroke-width: 1.07;stroke: #0C0C0C;stroke-linecap: butt;"/>
<polyline points="94.12,422.97 96.62,421.31 99.13,419.54 101.63,417.82 104.14,416.13 106.65,414.10 109.15,411.93 111.66,410.62 114.17,409.46 116.67,408.46 119.18,408.44 121.68,408.27 124.19,407.77 126.70,407.30 129.20,406.88 131.71,406.50 134.22,406.06 136.72,405.93 139.23,405.35 141.73,404.73 144.24,404.09 146.75,404.06 149.25,404.51 151.76,404.98 154.26,405.27 156.77,405.29 159.28,405.39 161.78,405.83 164.29,407.43 166.80,408.60 169.30,408.81 171.81,408.90 174.31,408.87 176.82,408.77 179.33,408.70 181.83,408.59 184.34,408.51 186.85,408.42 189.35,408.35 191.86,408.30 194.36,408.32 196.87,408.37 199.38,408.39 201.88,408.43 204.39,408.47 206.89,408.48 209.40,408.52 211.91,408.57 214.41,408.63 216.92,408.69 219.43,408.76 221.93,408.84 224.44,408.89 226.94,408.99 229.45,409.05 231.96,409.10 234.46,409.13 236.97,409.24 239.47,409.37 241.98,409.47 244.49,409.55 246.99,409.62 249.50,409.69 252.01,409.78 254.51,409.84 257.02,409.95 259.52,410.02 262.03,410.09 264.54,410.17 267.04,410.24 269.55,410.30 272.06,410.36 274.56,410.41 277.07,410.46 279.57,410.50 282.08,410.54 284.59,410.57 287.09,410.60 289.60,410.63 292.10,410.66 294.61,410.68 297.12,410.70 299.62,410.71 302.13,410.73 304.64,410.74" style="stroke-width: 1.07;stroke: #0C0C0C;stroke-linecap: butt;"/>
<polyline points="206.89,424.29 209.40,424.20 211.91,424.09 214.41,423.96 216.92,423.82 219.43,423.66 221.93,423.48 224.44,423.25 226.94,423.11 229.45,422.88 231.96,422.66 234.46,422.40 236.97,422.18 239.47,422.04 241.98,421.96 244.49,421.90 246.99,421.86 249.50,421.82 252.01,421.77 254.51,421.71 257.02,421.60 259.52,421.50 262.03,421.42 264.54,421.35 267.04,421.31 269.55,421.26 272.06,421.21 274.56,421.17 277.07,421.12 279.57,421.09 282.08,421.05 284.59,421.03 287.09,421.00 289.60,420.98 292.10,420.97 294.61,420.95 297.12,420.94 299.62,420.93 302.13,420.92 304.64,420.91" style="stroke-width: 1.07;stroke: #0C0C0C;stroke-linecap: butt;"/>
<polyline points="104.14,424.22 106.65,420.90 109.15,417.33 111.66,415.92 114.17,415.66 116.67,416.78 119.18,421.50" style="stroke-width: 1.07;stroke: #0C0C0C;stroke-linecap: butt;"/>
<polyline points="86.60,422.24 89.10,420.20 91.61,418.47 94.12,417.53 96.62,416.75 99.13,415.73 101.63,414.66 104.14,413.75 106.65,416.15 109.15,418.97 111.66,419.98 114.17,419.97 116.67,418.72 119.18,414.04 121.68,411.32 124.19,411.08 126.70,410.93 129.20,410.79 131.71,410.63 134.22,410.50 136.72,410.17 139.23,409.95 141.73,409.75 144.24,409.56 146.75,409.10 149.25,408.31 151.76,407.49 154.26,406.60 156.77,405.96 159.28,405.51 161.78,404.98 164.29,403.99 166.80,403.43 169.30,403.24 171.81,402.92 174.31,402.83 176.82,402.59 179.33,402.53 181.83,402.33 184.34,402.29 186.85,402.37 189.35,402.42 191.86,402.64 194.36,402.80 196.87,403.03 199.38,403.32 201.88,403.62 204.39,403.94 206.89,404.32 209.40,404.72 211.91,405.12 214.41,405.55 216.92,405.98 219.43,406.42 221.93,406.87 224.44,407.35 226.94,407.78 229.45,408.25 231.96,408.73 234.46,409.22 236.97,409.63 239.47,409.91 241.98,410.11 244.49,410.28 246.99,410.43 249.50,410.57 252.01,410.73 254.51,410.86 257.02,411.01 259.52,411.16 262.03,411.28 264.54,411.40 267.04,411.50 269.55,411.59 272.06,411.67 274.56,411.75 277.07,411.83 279.57,411.91 282.08,411.97 284.59,412.03 287.09,412.09 289.60,412.14 292.10,412.19 294.61,412.24 297.12,412.29 299.62,412.33 302.13,412.37 304.64,412.40" style="stroke-width: 1.07;stroke: #0C0C0C;stroke-linecap: butt;"/>
<polyline points="89.10,426.14 91.61,427.79 94.12,429.36 96.62,430.91 99.13,432.34 101.63,433.71 104.14,435.04 106.65,435.97 109.15,436.93 111.66,439.02 114.17,441.11 116.67,443.11 119.18,445.59 121.68,447.51 124.19,448.83 126.70,450.14 129.20,451.40 131.71,452.12 134.22,452.51 136.72,450.67 139.23,449.28 141.73,447.85 144.24,446.53 146.75,446.32 149.25,445.55 151.76,444.55 154.26,442.36 156.77,441.18 159.28,440.73 161.78,440.22 164.29,437.52 166.80,435.69 169.30,434.99 171.81,432.79 174.31,431.86 176.82,428.97 179.33,427.85 181.83,425.27" style="stroke-width: 1.07;stroke: #0C0C0C;stroke-linecap: butt;"/>
<polyline points="129.20,424.39 131.71,424.99 134.22,425.89 136.72,428.76 139.23,431.27 141.73,433.82 144.24,436.24 146.75,437.23 149.25,438.63 151.76,440.18 154.26,442.87 156.77,444.69 159.28,445.45 161.78,446.17 164.29,448.37 166.80,449.80 169.30,450.59 171.81,452.86 174.31,453.89 176.82,456.78 179.33,457.98 181.83,460.57 184.34,461.58 186.85,461.78 189.35,461.98 191.86,462.24 194.36,462.55 196.87,462.86 199.38,463.13 201.88,463.37 204.39,463.60 206.89,463.80 209.40,463.98 211.91,464.14 214.41,464.28 216.92,464.41 219.43,464.52 221.93,464.62 224.44,464.71 226.94,464.78 229.45,464.86 231.96,464.96 234.46,465.06 236.97,465.20 239.47,465.40 241.98,465.61 244.49,465.81 246.99,466.01 249.50,466.21 252.01,466.42 254.51,466.63 257.02,466.78 259.52,466.94 262.03,467.04 264.54,467.17 267.04,467.24 269.55,467.29 272.06,467.34 274.56,467.38 277.07,467.42 279.57,467.44 282.08,467.46 284.59,467.48 287.09,467.49 289.60,467.51 292.10,467.52 294.61,467.53 297.12,467.54 299.62,467.55 302.13,467.57 304.64,467.58" style="stroke-width: 1.07;stroke: #0C0C0C;stroke-linecap: butt;"/>
<polyline points="257.02,424.19 259.52,424.09 262.03,423.96 264.54,423.85 267.04,423.74 269.55,423.63 272.06,423.52 274.56,423.42 277.07,423.31 279.57,423.21 282.08,423.13 284.59,423.07 287.09,423.03 289.60,423.00 292.10,422.98 294.61,422.98 297.12,422.98 299.62,423.00 302.13,423.02 304.64,423.05" style="stroke-width: 1.07;stroke: #0C0C0C;stroke-linecap: butt;"/>
<polyline points="279.57,424.35 282.08,424.32 284.59,424.27 287.09,424.21 289.60,424.13 292.10,424.05 294.61,423.96 297.12,423.86 299.62,423.76 302.13,423.66 304.64,423.55" style="stroke-width: 1.07;stroke: #0C0C0C;stroke-linecap: butt;"/>
<polyline points="279.57,424.39 282.08,424.45 284.59,424.53 287.09,424.63 289.60,424.74 292.10,424.86 294.61,424.98 297.12,425.11 299.62,425.25 302.13,425.38 304.64,425.51" style="stroke-width: 1.07;stroke: #0C0C0C;stroke-linecap: butt;"/>
<polyline points="277.07,424.36 279.57,424.37 282.08,424.37 284.59,424.37 287.09,424.37 289.60,424.37 292.10,424.37 294.61,424.37 297.12,424.37 299.62,424.37 302.13,424.37 304.64,424.37" style="stroke-width: 1.07;stroke: #0C0C0C;stroke-linecap: butt;"/>
<polyline points="259.52,424.40 262.03,424.55 264.54,424.64 267.04,424.76 269.55,424.88 272.06,425.01 274.56,425.14 277.07,425.27 279.57,425.38 282.08,425.47 284.59,425.54 287.09,425.58 289.60,425.62 292.10,425.65 294.61,425.68 297.12,425.69 299.62,425.70 302.13,425.71 304.64,425.71" style="stroke-width: 1.07;stroke: #0C0C0C;stroke-linecap: butt;"/>
</g><g clip-path="url(#c12)">
<polyline points="44.12,510.01 44.12,289.99" style="stroke-width: 1.07;stroke-linecap: butt;"/>
<g><text x="39.19" y="511.47" text-anchor="end" style="font-family: Arial;font-size: 8.80px;fill: #4D4D4D;" textLength="15.16px" lengthAdjust="spacingAndGlyphs">-0.4</text></g>
<g><text x="39.19" y="469.49" text-anchor="end" style="font-family: Arial;font-size: 8.80px;fill: #4D4D4D;" textLength="15.16px" lengthAdjust="spacingAndGlyphs">-0.2</text></g>
<g><text x="39.19" y="427.52" text-anchor="end" style="font-family: Arial;font-size: 8.80px;fill: #4D4D4D;" textLength="12.23px" lengthAdjust="spacingAndGlyphs">0.0</text></g>
<g><text x="39.19" y="385.54" text-anchor="end" style="font-family: Arial;font-size: 8.80px;fill: #4D4D4D;" textLength="12.23px" lengthAdjust="spacingAndGlyphs">0.2</text></g>
<g><text x="39.19" y="343.57" text-anchor="end" style="font-family: Arial;font-size: 8.80px;fill: #4D4D4D;" textLength="12.23px" lengthAdjust="spacingAndGlyphs">0.4</text></g>
<g><text x="39.19" y="301.59" text-anchor="end" style="font-family: Arial;font-size: 8.80px;fill: #4D4D4D;" textLength="12.23px" lengthAdjust="spacingAndGlyphs">0.6</text></g>
<polyline points="41.38,508.31 44.12,508.31" style="stroke-width: 1.07;stroke: #333333;stroke-linecap: butt;"/>
<polyline points="41.38,466.34 44.12,466.34" style="stroke-width: 1.07;stroke: #333333;stroke-linecap: butt;"/>
<polyline points="41.38,424.36 44.12,424.36" style="stroke-width: 1.07;stroke: #333333;stroke-linecap: butt;"/>
<polyline points="41.38,382.39 44.12,382.39" style="stroke-width: 1.07;stroke: #333333;stroke-linecap: butt;"/>
<polyline points="41.38,340.41 44.12,340.41" style="stroke-width: 1.07;stroke: #333333;stroke-linecap: butt;"/>
<polyline points="41.38,298.44 44.12,298.44" style="stroke-width: 1.07;stroke: #333333;stroke-linecap: butt;"/>
<polyline points="44.12,510.01 317.04,510.01" style="stroke-width: 1.07;stroke-linecap: butt;"/>
<polyline points="297.15,512.75 297.15,510.01" style="stroke-width: 1.07;stroke: #333333;stroke-linecap: butt;"/>
<polyline points="243.27,512.75 243.27,510.01" style="stroke-width: 1.07;stroke: #333333;stroke-linecap: butt;"/>
<polyline points="189.40,512.75 189.40,510.01" style="stroke-width: 1.07;stroke: #333333;stroke-linecap: butt;"/>
<polyline points="135.52,512.75 135.52,510.01" style="stroke-width: 1.07;stroke: #333333;stroke-linecap: butt;"/>
<polyline points="81.64,512.75 81.64,510.01" style="stroke-width: 1.07;stroke: #333333;stroke-linecap: butt;"/>
<g><text x="297.15" y="521.25" text-anchor="middle" style="font-family: Arial;font-size: 8.80px;fill: #4D4D4D;" textLength="7.83px" lengthAdjust="spacingAndGlyphs">-6</text></g>
<g><text x="243.27" y="521.25" text-anchor="middle" style="font-family: Arial;font-size: 8.80px;fill: #4D4D4D;" textLength="7.83px" lengthAdjust="spacingAndGlyphs">-5</text></g>
<g><text x="189.40" y="521.25" text-anchor="middle" style="font-family: Arial;font-size: 8.80px;fill: #4D4D4D;" textLength="7.83px" lengthAdjust="spacingAndGlyphs">-4</text></g>
<g><text x="135.52" y="521.25" text-anchor="middle" style="font-family: Arial;font-size: 8.80px;fill: #4D4D4D;" textLength="7.83px" lengthAdjust="spacingAndGlyphs">-3</text></g>
<g><text x="81.64" y="521.25" text-anchor="middle" style="font-family: Arial;font-size: 8.80px;fill: #4D4D4D;" textLength="7.83px" lengthAdjust="spacingAndGlyphs">-2</text></g>
<g><text x="165.64" y="535.90" style="font-family: Arial;font-size: 11.00px;" textLength="14.68px" lengthAdjust="spacingAndGlyphs">log</text></g>
<g><text x="180.32" y="535.90" style="font-family: Symbol;font-size: 13.75px;" textLength="4.58px" lengthAdjust="spacingAndGlyphs">(</text></g>
<g><text x="184.90" y="535.90" style="font-family: Symbol;font-size: 11.00px;" textLength="6.03px" lengthAdjust="spacingAndGlyphs">λ</text></g>
<g><text x="190.94" y="535.90" style="font-family: Symbol;font-size: 13.75px;" textLength="4.58px" lengthAdjust="spacingAndGlyphs">)</text></g>
<g><text transform="translate(18.85,400.00) rotate(-90.00)" text-anchor="middle" style="font-family: Arial;font-size: 11.00px;" textLength="97.80px" lengthAdjust="spacingAndGlyphs">Coefficient Estimate</text></g>
</g>
</svg>