<svg xmlns="http://www.w3.org/2000/svg" xmlns:xlink="http://www.w3.org/1999/xlink" class="httpgd" width="512.00" height="812.00" viewBox="0 0 409.60 649.60">
<defs>
  <style type='text/css'><![CDATA[
    .httpgd line, .httpgd polyline, .httpgd polygon, .httpgd path, .httpgd rect, .httpgd circle {
      fill: none;
      stroke: #000000;
      stroke-linecap: round;
      stroke-linejoin: round;
      stroke-miterlimit: 10.00;
    }
  ]]></style>
<clipPath id="c0"><rect x="0.00" y="0.00" width="409.60" height="649.60"/></clipPath>
<clipPath id="c1"><rect x="44.12" y="27.98" width="354.52" height="579.63"/></clipPath>
<clipPath id="c2"><rect x="0.00" y="0.00" width="409.60" height="649.60"/></clipPath>
<clipPath id="c3"><rect x="5.48" y="5.48" width="398.64" height="327.83"/></clipPath>
<clipPath id="c4"><rect x="0.00" y="0.00" width="409.60" height="649.60"/></clipPath>
<clipPath id="c5"><rect x="44.12" y="27.98" width="354.52" height="268.82"/></clipPath>
<clipPath id="c6"><rect x="0.00" y="0.00" width="409.60" height="649.60"/></clipPath>
<clipPath id="c7"><rect x="44.12" y="10.96" width="354.52" height="17.03"/></clipPath>
<clipPath id="c8"><rect x="0.00" y="0.00" width="409.60" height="649.60"/></clipPath>
<clipPath id="c9"><rect x="5.48" y="333.31" width="398.64" height="310.81"/></clipPath>
<clipPath id="c10"><rect x="0.00" y="0.00" width="409.60" height="649.60"/></clipPath>
<clipPath id="c11"><rect x="44.12" y="338.79" width="354.52" height="268.82"/></clipPath>
<clipPath id="c12"><rect x="0.00" y="0.00" width="409.60" height="649.60"/></clipPath>
</defs>
<rect width="100%" height="100%" style="stroke: none;fill: #FFFFFF;"/>
<g clip-path="url(#c0)">
<rect x="0.00" y="0.00" width="409.60" height="649.60" style="stroke-width: 1.07;stroke: #FFFFFF;fill: #FFFFFF;"/>
</g><g clip-path="url(#c3)">
<rect x="5.48" y="5.48" width="398.64" height="327.83" style="stroke-width: 1.07;stroke: #FFFFFF;fill: #FFFFFF;"/>
</g><g clip-path="url(#c5)">
<rect x="44.12" y="27.98" width="354.52" height="268.82" style="stroke-width: 1.07;stroke: none;fill: #FFFFFF;"/>
<polyline points="376.71,45.55 382.53,45.55" style="stroke-width: 1.07;stroke: #000000;stroke-opacity: 0.50;stroke-linecap: butt;"/>
<polyline points="379.62,45.55 379.62,71.79" style="stroke-width: 1.07;stroke: #000000;stroke-opacity: 0.50;stroke-linecap: butt;"/>
<polyline points="376.71,71.79 382.53,71.79" style="stroke-width: 1.07;stroke: #000000;stroke-opacity: 0.50;stroke-linecap: butt;"/>
<polyline points="370.25,45.55 376.07,45.55" style="stroke-width: 1.07;stroke: #000000;stroke-opacity: 0.50;stroke-linecap: butt;"/>
<polyline points="373.16,45.55 373.16,71.79" style="stroke-width: 1.07;stroke: #000000;stroke-opacity: 0.50;stroke-linecap: butt;"/>
<polyline points="370.25,71.79 376.07,71.79" style="stroke-width: 1.07;stroke: #000000;stroke-opacity: 0.50;stroke-linecap: butt;"/>
<polyline points="363.80,45.55 369.61,45.55" style="stroke-width: 1.07;stroke: #000000;stroke-opacity: 0.50;stroke-linecap: butt;"/>
<polyline points="366.70,45.55 366.70,71.79" style="stroke-width: 1.07;stroke: #000000;stroke-opacity: 0.50;stroke-linecap: butt;"/>
<polyline points="363.80,71.79 369.61,71.79" style="stroke-width: 1.07;stroke: #000000;stroke-opacity: 0.50;stroke-linecap: butt;"/>
<polyline points="357.34,45.55 363.15,45.55" style="stroke-width: 1.07;stroke: #000000;stroke-opacity: 0.50;stroke-linecap: butt;"/>
<polyline points="360.24,45.55 360.24,71.79" style="stroke-width: 1.07;stroke: #000000;stroke-opacity: 0.50;stroke-linecap: butt;"/>
<polyline points="357.34,71.79 363.15,71.79" style="stroke-width: 1.07;stroke: #000000;stroke-opacity: 0.50;stroke-linecap: butt;"/>
<polyline points="350.88,48.86 356.69,48.86" style="stroke-width: 1.07;stroke: #000000;stroke-opacity: 0.50;stroke-linecap: butt;"/>
<polyline points="353.78,48.86 353.78,74.84" style="stroke-width: 1.07;stroke: #000000;stroke-opacity: 0.50;stroke-linecap: butt;"/>
<polyline points="350.88,74.84 356.69,74.84" style="stroke-width: 1.07;stroke: #000000;stroke-opacity: 0.50;stroke-linecap: butt;"/>
<polyline points="344.42,48.86 350.23,48.86" style="stroke-width: 1.07;stroke: #000000;stroke-opacity: 0.50;stroke-linecap: butt;"/>
<polyline points="347.33,48.86 347.33,74.84" style="stroke-width: 1.07;stroke: #000000;stroke-opacity: 0.50;stroke-linecap: butt;"/>
<polyline points="344.42,74.84 350.23,74.84" style="stroke-width: 1.07;stroke: #000000;stroke-opacity: 0.50;stroke-linecap: butt;"/>
<polyline points="337.96,46.92 343.77,46.92" style="stroke-width: 1.07;stroke: #000000;stroke-opacity: 0.50;stroke-linecap: butt;"/>
<polyline points="340.87,46.92 340.87,76.77" style="stroke-width: 1.07;stroke: #000000;stroke-opacity: 0.50;stroke-linecap: butt;"/>
<polyline points="337.96,76.77 343.77,76.77" style="stroke-width: 1.07;stroke: #000000;stroke-opacity: 0.50;stroke-linecap: butt;"/>
<polyline points="331.50,46.92 337.31,46.92" style="stroke-width: 1.07;stroke: #000000;stroke-opacity: 0.50;stroke-linecap: butt;"/>
<polyline points="334.41,46.92 334.41,76.77" style="stroke-width: 1.07;stroke: #000000;stroke-opacity: 0.50;stroke-linecap: butt;"/>
<polyline points="331.50,76.77 337.31,76.77" style="stroke-width: 1.07;stroke: #000000;stroke-opacity: 0.50;stroke-linecap: butt;"/>
<polyline points="325.04,44.37 330.86,44.37" style="stroke-width: 1.07;stroke: #000000;stroke-opacity: 0.50;stroke-linecap: butt;"/>
<polyline points="327.95,44.37 327.95,76.14" style="stroke-width: 1.07;stroke: #000000;stroke-opacity: 0.50;stroke-linecap: butt;"/>
<polyline points="325.04,76.14 330.86,76.14" style="stroke-width: 1.07;stroke: #000000;stroke-opacity: 0.50;stroke-linecap: butt;"/>
<polyline points="318.58,44.37 324.40,44.37" style="stroke-width: 1.07;stroke: #000000;stroke-opacity: 0.50;stroke-linecap: butt;"/>
<polyline points="321.49,44.37 321.49,76.14" style="stroke-width: 1.07;stroke: #000000;stroke-opacity: 0.50;stroke-linecap: butt;"/>
<polyline points="318.58,76.14 324.40,76.14" style="stroke-width: 1.07;stroke: #000000;stroke-opacity: 0.50;stroke-linecap: butt;"/>
<polyline points="312.13,44.37 317.94,44.37" style="stroke-width: 1.07;stroke: #000000;stroke-opacity: 0.50;stroke-linecap: butt;"/>
<polyline points="315.03,44.37 315.03,76.14" style="stroke-width: 1.07;stroke: #000000;stroke-opacity: 0.50;stroke-linecap: butt;"/>
<polyline points="312.13,76.14 317.94,76.14" style="stroke-width: 1.07;stroke: #000000;stroke-opacity: 0.50;stroke-linecap: butt;"/>
<polyline points="305.67,44.37 311.48,44.37" style="stroke-width: 1.07;stroke: #000000;stroke-opacity: 0.50;stroke-linecap: butt;"/>
<polyline points="308.57,44.37 308.57,76.14" style="stroke-width: 1.07;stroke: #000000;stroke-opacity: 0.50;stroke-linecap: butt;"/>
<polyline points="305.67,76.14 311.48,76.14" style="stroke-width: 1.07;stroke: #000000;stroke-opacity: 0.50;stroke-linecap: butt;"/>
<polyline points="299.21,44.37 305.02,44.37" style="stroke-width: 1.07;stroke: #000000;stroke-opacity: 0.50;stroke-linecap: butt;"/>
<polyline points="302.11,44.37 302.11,76.14" style="stroke-width: 1.07;stroke: #000000;stroke-opacity: 0.50;stroke-linecap: butt;"/>
<polyline points="299.21,76.14 305.02,76.14" style="stroke-width: 1.07;stroke: #000000;stroke-opacity: 0.50;stroke-linecap: butt;"/>
<polyline points="292.75,44.37 298.56,44.37" style="stroke-width: 1.07;stroke: #000000;stroke-opacity: 0.50;stroke-linecap: butt;"/>
<polyline points="295.66,44.37 295.66,76.14" style="stroke-width: 1.07;stroke: #000000;stroke-opacity: 0.50;stroke-linecap: butt;"/>
<polyline points="292.75,76.14 298.56,76.14" style="stroke-width: 1.07;stroke: #000000;stroke-opacity: 0.50;stroke-linecap: butt;"/>
<polyline points="286.29,44.37 292.10,44.37" style="stroke-width: 1.07;stroke: #000000;stroke-opacity: 0.50;stroke-linecap: butt;"/>
<polyline points="289.20,44.37 289.20,76.14" style="stroke-width: 1.07;stroke: #000000;stroke-opacity: 0.50;stroke-linecap: butt;"/>
<polyline points="286.29,76.14 292.10,76.14" style="stroke-width: 1.07;stroke: #000000;stroke-opacity: 0.50;stroke-linecap: butt;"/>
<polyline points="279.83,44.37 285.64,44.37" style="stroke-width: 1.07;stroke: #000000;stroke-opacity: 0.50;stroke-linecap: butt;"/>
<polyline points="282.74,44.37 282.74,76.14" style="stroke-width: 1.07;stroke: #000000;stroke-opacity: 0.50;stroke-linecap: butt;"/>
<polyline points="279.83,76.14 285.64,76.14" style="stroke-width: 1.07;stroke: #000000;stroke-opacity: 0.50;stroke-linecap: butt;"/>
<polyline points="273.37,45.21 279.19,45.21" style="stroke-width: 1.07;stroke: #000000;stroke-opacity: 0.50;stroke-linecap: butt;"/>
<polyline points="276.28,45.21 276.28,78.48" style="stroke-width: 1.07;stroke: #000000;stroke-opacity: 0.50;stroke-linecap: butt;"/>
<polyline points="273.37,78.48 279.19,78.48" style="stroke-width: 1.07;stroke: #000000;stroke-opacity: 0.50;stroke-linecap: butt;"/>
<polyline points="266.91,45.21 272.73,45.21" style="stroke-width: 1.07;stroke: #000000;stroke-opacity: 0.50;stroke-linecap: butt;"/>
<polyline points="269.82,45.21 269.82,78.48" style="stroke-width: 1.07;stroke: #000000;stroke-opacity: 0.50;stroke-linecap: butt;"/>
<polyline points="266.91,78.48 272.73,78.48" style="stroke-width: 1.07;stroke: #000000;stroke-opacity: 0.50;stroke-linecap: butt;"/>
<polyline points="260.46,46.70 266.27,46.70" style="stroke-width: 1.07;stroke: #000000;stroke-opacity: 0.50;stroke-linecap: butt;"/>
<polyline points="263.36,46.70 263.36,77.00" style="stroke-width: 1.07;stroke: #000000;stroke-opacity: 0.50;stroke-linecap: butt;"/>
<polyline points="260.46,77.00 266.27,77.00" style="stroke-width: 1.07;stroke: #000000;stroke-opacity: 0.50;stroke-linecap: butt;"/>
<polyline points="254.00,46.70 259.81,46.70" style="stroke-width: 1.07;stroke: #000000;stroke-opacity: 0.50;stroke-linecap: butt;"/>
<polyline points="256.90,46.70 256.90,77.00" style="stroke-width: 1.07;stroke: #000000;stroke-opacity: 0.50;stroke-linecap: butt;"/>
<polyline points="254.00,77.00 259.81,77.00" style="stroke-width: 1.07;stroke: #000000;stroke-opacity: 0.50;stroke-linecap: butt;"/>
<polyline points="247.54,43.95 253.35,43.95" style="stroke-width: 1.07;stroke: #000000;stroke-opacity: 0.50;stroke-linecap: butt;"/>
<polyline points="250.44,43.95 250.44,76.56" style="stroke-width: 1.07;stroke: #000000;stroke-opacity: 0.50;stroke-linecap: butt;"/>
<polyline points="247.54,76.56 253.35,76.56" style="stroke-width: 1.07;stroke: #000000;stroke-opacity: 0.50;stroke-linecap: butt;"/>
<polyline points="241.08,42.97 246.89,42.97" style="stroke-width: 1.07;stroke: #000000;stroke-opacity: 0.50;stroke-linecap: butt;"/>
<polyline points="243.99,42.97 243.99,74.36" style="stroke-width: 1.07;stroke: #000000;stroke-opacity: 0.50;stroke-linecap: butt;"/>
<polyline points="241.08,74.36 246.89,74.36" style="stroke-width: 1.07;stroke: #000000;stroke-opacity: 0.50;stroke-linecap: butt;"/>
<polyline points="234.62,43.95 240.43,43.95" style="stroke-width: 1.07;stroke: #000000;stroke-opacity: 0.50;stroke-linecap: butt;"/>
<polyline points="237.53,43.95 237.53,76.56" style="stroke-width: 1.07;stroke: #000000;stroke-opacity: 0.50;stroke-linecap: butt;"/>
<polyline points="234.62,76.56 240.43,76.56" style="stroke-width: 1.07;stroke: #000000;stroke-opacity: 0.50;stroke-linecap: butt;"/>
<polyline points="228.16,44.81 233.97,44.81" style="stroke-width: 1.07;stroke: #000000;stroke-opacity: 0.50;stroke-linecap: butt;"/>
<polyline points="231.07,44.81 231.07,78.88" style="stroke-width: 1.07;stroke: #000000;stroke-opacity: 0.50;stroke-linecap: butt;"/>
<polyline points="228.16,78.88 233.97,78.88" style="stroke-width: 1.07;stroke: #000000;stroke-opacity: 0.50;stroke-linecap: butt;"/>
<polyline points="221.70,45.21 227.52,45.21" style="stroke-width: 1.07;stroke: #000000;stroke-opacity: 0.50;stroke-linecap: butt;"/>
<polyline points="224.61,45.21 224.61,78.48" style="stroke-width: 1.07;stroke: #000000;stroke-opacity: 0.50;stroke-linecap: butt;"/>
<polyline points="221.70,78.48 227.52,78.48" style="stroke-width: 1.07;stroke: #000000;stroke-opacity: 0.50;stroke-linecap: butt;"/>
<polyline points="215.24,45.75 221.06,45.75" style="stroke-width: 1.07;stroke: #000000;stroke-opacity: 0.50;stroke-linecap: butt;"/>
<polyline points="218.15,45.75 218.15,81.13" style="stroke-width: 1.07;stroke: #000000;stroke-opacity: 0.50;stroke-linecap: butt;"/>
<polyline points="215.24,81.13 221.06,81.13" style="stroke-width: 1.07;stroke: #000000;stroke-opacity: 0.50;stroke-linecap: butt;"/>
<polyline points="208.78,45.75 214.60,45.75" style="stroke-width: 1.07;stroke: #000000;stroke-opacity: 0.50;stroke-linecap: butt;"/>
<polyline points="211.69,45.75 211.69,81.13" style="stroke-width: 1.07;stroke: #000000;stroke-opacity: 0.50;stroke-linecap: butt;"/>
<polyline points="208.78,81.13 214.60,81.13" style="stroke-width: 1.07;stroke: #000000;stroke-opacity: 0.50;stroke-linecap: butt;"/>
<polyline points="202.33,48.29 208.14,48.29" style="stroke-width: 1.07;stroke: #000000;stroke-opacity: 0.50;stroke-linecap: butt;"/>
<polyline points="205.23,48.29 205.23,81.77" style="stroke-width: 1.07;stroke: #000000;stroke-opacity: 0.50;stroke-linecap: butt;"/>
<polyline points="202.33,81.77 208.14,81.77" style="stroke-width: 1.07;stroke: #000000;stroke-opacity: 0.50;stroke-linecap: butt;"/>
<polyline points="195.87,44.81 201.68,44.81" style="stroke-width: 1.07;stroke: #000000;stroke-opacity: 0.50;stroke-linecap: butt;"/>
<polyline points="198.77,44.81 198.77,78.88" style="stroke-width: 1.07;stroke: #000000;stroke-opacity: 0.50;stroke-linecap: butt;"/>
<polyline points="195.87,78.88 201.68,78.88" style="stroke-width: 1.07;stroke: #000000;stroke-opacity: 0.50;stroke-linecap: butt;"/>
<polyline points="189.41,41.93 195.22,41.93" style="stroke-width: 1.07;stroke: #000000;stroke-opacity: 0.50;stroke-linecap: butt;"/>
<polyline points="192.32,41.93 192.32,75.40" style="stroke-width: 1.07;stroke: #000000;stroke-opacity: 0.50;stroke-linecap: butt;"/>
<polyline points="189.41,75.40 195.22,75.40" style="stroke-width: 1.07;stroke: #000000;stroke-opacity: 0.50;stroke-linecap: butt;"/>
<polyline points="182.95,41.93 188.76,41.93" style="stroke-width: 1.07;stroke: #000000;stroke-opacity: 0.50;stroke-linecap: butt;"/>
<polyline points="185.86,41.93 185.86,75.40" style="stroke-width: 1.07;stroke: #000000;stroke-opacity: 0.50;stroke-linecap: butt;"/>
<polyline points="182.95,75.40 188.76,75.40" style="stroke-width: 1.07;stroke: #000000;stroke-opacity: 0.50;stroke-linecap: butt;"/>
<polyline points="176.49,40.24 182.30,40.24" style="stroke-width: 1.07;stroke: #000000;stroke-opacity: 0.50;stroke-linecap: butt;"/>
<polyline points="179.40,40.24 179.40,80.28" style="stroke-width: 1.07;stroke: #000000;stroke-opacity: 0.50;stroke-linecap: butt;"/>
<polyline points="176.49,80.28 182.30,80.28" style="stroke-width: 1.07;stroke: #000000;stroke-opacity: 0.50;stroke-linecap: butt;"/>
<polyline points="170.03,42.19 175.85,42.19" style="stroke-width: 1.07;stroke: #000000;stroke-opacity: 0.50;stroke-linecap: butt;"/>
<polyline points="172.94,42.19 172.94,78.33" style="stroke-width: 1.07;stroke: #000000;stroke-opacity: 0.50;stroke-linecap: butt;"/>
<polyline points="170.03,78.33 175.85,78.33" style="stroke-width: 1.07;stroke: #000000;stroke-opacity: 0.50;stroke-linecap: butt;"/>
<polyline points="163.57,40.20 169.39,40.20" style="stroke-width: 1.07;stroke: #000000;stroke-opacity: 0.50;stroke-linecap: butt;"/>
<polyline points="166.48,40.20 166.48,77.13" style="stroke-width: 1.07;stroke: #000000;stroke-opacity: 0.50;stroke-linecap: butt;"/>
<polyline points="163.57,77.13 169.39,77.13" style="stroke-width: 1.07;stroke: #000000;stroke-opacity: 0.50;stroke-linecap: butt;"/>
<polyline points="157.11,40.75 162.93,40.75" style="stroke-width: 1.07;stroke: #000000;stroke-opacity: 0.50;stroke-linecap: butt;"/>
<polyline points="160.02,40.75 160.02,79.76" style="stroke-width: 1.07;stroke: #000000;stroke-opacity: 0.50;stroke-linecap: butt;"/>
<polyline points="157.11,79.76 162.93,79.76" style="stroke-width: 1.07;stroke: #000000;stroke-opacity: 0.50;stroke-linecap: butt;"/>
<polyline points="150.66,47.51 156.47,47.51" style="stroke-width: 1.07;stroke: #000000;stroke-opacity: 0.50;stroke-linecap: butt;"/>
<polyline points="153.56,47.51 153.56,82.56" style="stroke-width: 1.07;stroke: #000000;stroke-opacity: 0.50;stroke-linecap: butt;"/>
<polyline points="150.66,82.56 156.47,82.56" style="stroke-width: 1.07;stroke: #000000;stroke-opacity: 0.50;stroke-linecap: butt;"/>
<polyline points="144.20,48.94 150.01,48.94" style="stroke-width: 1.07;stroke: #000000;stroke-opacity: 0.50;stroke-linecap: butt;"/>
<polyline points="147.10,48.94 147.10,87.48" style="stroke-width: 1.07;stroke: #000000;stroke-opacity: 0.50;stroke-linecap: butt;"/>
<polyline points="144.20,87.48 150.01,87.48" style="stroke-width: 1.07;stroke: #000000;stroke-opacity: 0.50;stroke-linecap: butt;"/>
<polyline points="137.74,52.47 143.55,52.47" style="stroke-width: 1.07;stroke: #000000;stroke-opacity: 0.50;stroke-linecap: butt;"/>
<polyline points="140.64,52.47 140.64,93.50" style="stroke-width: 1.07;stroke: #000000;stroke-opacity: 0.50;stroke-linecap: butt;"/>
<polyline points="137.74,93.50 143.55,93.50" style="stroke-width: 1.07;stroke: #000000;stroke-opacity: 0.50;stroke-linecap: butt;"/>
<polyline points="131.28,53.48 137.09,53.48" style="stroke-width: 1.07;stroke: #000000;stroke-opacity: 0.50;stroke-linecap: butt;"/>
<polyline points="134.19,53.48 134.19,92.49" style="stroke-width: 1.07;stroke: #000000;stroke-opacity: 0.50;stroke-linecap: butt;"/>
<polyline points="131.28,92.49 137.09,92.49" style="stroke-width: 1.07;stroke: #000000;stroke-opacity: 0.50;stroke-linecap: butt;"/>
<polyline points="124.82,58.06 130.63,58.06" style="stroke-width: 1.07;stroke: #000000;stroke-opacity: 0.50;stroke-linecap: butt;"/>
<polyline points="127.73,58.06 127.73,97.46" style="stroke-width: 1.07;stroke: #000000;stroke-opacity: 0.50;stroke-linecap: butt;"/>
<polyline points="124.82,97.46 130.63,97.46" style="stroke-width: 1.07;stroke: #000000;stroke-opacity: 0.50;stroke-linecap: butt;"/>
<polyline points="118.36,70.79 124.17,70.79" style="stroke-width: 1.07;stroke: #000000;stroke-opacity: 0.50;stroke-linecap: butt;"/>
<polyline points="121.27,70.79 121.27,110.19" style="stroke-width: 1.07;stroke: #000000;stroke-opacity: 0.50;stroke-linecap: butt;"/>
<polyline points="118.36,110.19 124.17,110.19" style="stroke-width: 1.07;stroke: #000000;stroke-opacity: 0.50;stroke-linecap: butt;"/>
<polyline points="111.90,82.56 117.72,82.56" style="stroke-width: 1.07;stroke: #000000;stroke-opacity: 0.50;stroke-linecap: butt;"/>
<polyline points="114.81,82.56 114.81,114.32" style="stroke-width: 1.07;stroke: #000000;stroke-opacity: 0.50;stroke-linecap: butt;"/>
<polyline points="111.90,114.32 117.72,114.32" style="stroke-width: 1.07;stroke: #000000;stroke-opacity: 0.50;stroke-linecap: butt;"/>
<polyline points="105.44,93.37 111.26,93.37" style="stroke-width: 1.07;stroke: #000000;stroke-opacity: 0.50;stroke-linecap: butt;"/>
<polyline points="108.35,93.37 108.35,116.24" style="stroke-width: 1.07;stroke: #000000;stroke-opacity: 0.50;stroke-linecap: butt;"/>
<polyline points="105.44,116.24 111.26,116.24" style="stroke-width: 1.07;stroke: #000000;stroke-opacity: 0.50;stroke-linecap: butt;"/>
<polyline points="98.99,111.21 104.80,111.21" style="stroke-width: 1.07;stroke: #000000;stroke-opacity: 0.50;stroke-linecap: butt;"/>
<polyline points="101.89,111.21 101.89,130.22" style="stroke-width: 1.07;stroke: #000000;stroke-opacity: 0.50;stroke-linecap: butt;"/>
<polyline points="98.99,130.22 104.80,130.22" style="stroke-width: 1.07;stroke: #000000;stroke-opacity: 0.50;stroke-linecap: butt;"/>
<polyline points="92.53,122.71 98.34,122.71" style="stroke-width: 1.07;stroke: #000000;stroke-opacity: 0.50;stroke-linecap: butt;"/>
<polyline points="95.43,122.71 95.43,147.36" style="stroke-width: 1.07;stroke: #000000;stroke-opacity: 0.50;stroke-linecap: butt;"/>
<polyline points="92.53,147.36 98.34,147.36" style="stroke-width: 1.07;stroke: #000000;stroke-opacity: 0.50;stroke-linecap: butt;"/>
<polyline points="86.07,120.36 91.88,120.36" style="stroke-width: 1.07;stroke: #000000;stroke-opacity: 0.50;stroke-linecap: butt;"/>
<polyline points="88.97,120.36 88.97,146.53" style="stroke-width: 1.07;stroke: #000000;stroke-opacity: 0.50;stroke-linecap: butt;"/>
<polyline points="86.07,146.53 91.88,146.53" style="stroke-width: 1.07;stroke: #000000;stroke-opacity: 0.50;stroke-linecap: butt;"/>
<polyline points="79.61,121.18 85.42,121.18" style="stroke-width: 1.07;stroke: #000000;stroke-opacity: 0.50;stroke-linecap: butt;"/>
<polyline points="82.52,121.18 82.52,158.43" style="stroke-width: 1.07;stroke: #000000;stroke-opacity: 0.50;stroke-linecap: butt;"/>
<polyline points="79.61,158.43 85.42,158.43" style="stroke-width: 1.07;stroke: #000000;stroke-opacity: 0.50;stroke-linecap: butt;"/>
<polyline points="73.15,110.60 78.96,110.60" style="stroke-width: 1.07;stroke: #000000;stroke-opacity: 0.50;stroke-linecap: butt;"/>
<polyline points="76.06,110.60 76.06,162.65" style="stroke-width: 1.07;stroke: #000000;stroke-opacity: 0.50;stroke-linecap: butt;"/>
<polyline points="73.15,162.65 78.96,162.65" style="stroke-width: 1.07;stroke: #000000;stroke-opacity: 0.50;stroke-linecap: butt;"/>
<polyline points="66.69,137.94 72.50,137.94" style="stroke-width: 1.07;stroke: #000000;stroke-opacity: 0.50;stroke-linecap: butt;"/>
<polyline points="69.60,137.94 69.60,211.68" style="stroke-width: 1.07;stroke: #000000;stroke-opacity: 0.50;stroke-linecap: butt;"/>
<polyline points="66.69,211.68 72.50,211.68" style="stroke-width: 1.07;stroke: #000000;stroke-opacity: 0.50;stroke-linecap: butt;"/>
<polyline points="60.23,249.58 66.05,249.58" style="stroke-width: 1.07;stroke: #000000;stroke-opacity: 0.50;stroke-linecap: butt;"/>
<polyline points="63.14,249.58 63.14,284.59" style="stroke-width: 1.07;stroke: #000000;stroke-opacity: 0.50;stroke-linecap: butt;"/>
<polyline points="60.23,284.59 66.05,284.59" style="stroke-width: 1.07;stroke: #000000;stroke-opacity: 0.50;stroke-linecap: butt;"/>
<circle cx="379.62" cy="58.67" r="1.95" style="stroke-width: 0.71;stroke: #545454;fill: #545454;"/>
<circle cx="373.16" cy="58.67" r="1.95" style="stroke-width: 0.71;stroke: #545454;fill: #545454;"/>
<circle cx="366.70" cy="58.67" r="1.95" style="stroke-width: 0.71;stroke: #545454;fill: #545454;"/>
<circle cx="360.24" cy="58.67" r="1.95" style="stroke-width: 0.71;stroke: #545454;fill: #545454;"/>
<circle cx="353.78" cy="61.85" r="1.95" style="stroke-width: 0.71;stroke: #545454;fill: #545454;"/>
<circle cx="347.33" cy="61.85" r="1.95" style="stroke-width: 0.71;stroke: #545454;fill: #545454;"/>
<circle cx="340.87" cy="61.85" r="1.95" style="stroke-width: 0.71;stroke: #545454;fill: #545454;"/>
<circle cx="334.41" cy="61.85" r="1.95" style="stroke-width: 0.71;stroke: #545454;fill: #545454;"/>
<circle cx="327.95" cy="60.26" r="1.95" style="stroke-width: 0.71;stroke: #545454;fill: #545454;"/>
<circle cx="321.49" cy="60.26" r="1.95" style="stroke-width: 0.71;stroke: #545454;fill: #545454;"/>
<circle cx="315.03" cy="60.26" r="1.95" style="stroke-width: 0.71;stroke: #545454;fill: #545454;"/>
<circle cx="308.57" cy="60.26" r="1.95" style="stroke-width: 0.71;stroke: #545454;fill: #545454;"/>
<circle cx="302.11" cy="60.26" r="1.95" style="stroke-width: 0.71;stroke: #545454;fill: #545454;"/>
<circle cx="295.66" cy="60.26" r="1.95" style="stroke-width: 0.71;stroke: #545454;fill: #545454;"/>
<circle cx="289.20" cy="60.26" r="1.95" style="stroke-width: 0.71;stroke: #545454;fill: #545454;"/>
<circle cx="282.74" cy="60.26" r="1.95" style="stroke-width: 0.71;stroke: #545454;fill: #545454;"/>
<circle cx="276.28" cy="61.85" r="1.95" style="stroke-width: 0.71;stroke: #545454;fill: #545454;"/>
<circle cx="269.82" cy="61.85" r="1.95" style="stroke-width: 0.71;stroke: #545454;fill: #545454;"/>
<circle cx="263.36" cy="61.85" r="1.95" style="stroke-width: 0.71;stroke: #545454;fill: #545454;"/>
<circle cx="256.90" cy="61.85" r="1.95" style="stroke-width: 0.71;stroke: #545454;fill: #545454;"/>
<circle cx="250.44" cy="60.26" r="1.95" style="stroke-width: 0.71;stroke: #545454;fill: #545454;"/>
<circle cx="243.99" cy="58.67" r="1.95" style="stroke-width: 0.71;stroke: #545454;fill: #545454;"/>
<circle cx="237.53" cy="60.26" r="1.95" style="stroke-width: 0.71;stroke: #545454;fill: #545454;"/>
<circle cx="231.07" cy="61.85" r="1.95" style="stroke-width: 0.71;stroke: #545454;fill: #545454;"/>
<circle cx="224.61" cy="61.85" r="1.95" style="stroke-width: 0.71;stroke: #545454;fill: #545454;"/>
<circle cx="218.15" cy="63.44" r="1.95" style="stroke-width: 0.71;stroke: #545454;fill: #545454;"/>
<circle cx="211.69" cy="63.44" r="1.95" style="stroke-width: 0.71;stroke: #545454;fill: #545454;"/>
<circle cx="205.23" cy="65.03" r="1.95" style="stroke-width: 0.71;stroke: #545454;fill: #545454;"/>
<circle cx="198.77" cy="61.85" r="1.95" style="stroke-width: 0.71;stroke: #545454;fill: #545454;"/>
<circle cx="192.32" cy="58.67" r="1.95" style="stroke-width: 0.71;stroke: #545454;fill: #545454;"/>
<circle cx="185.86" cy="58.67" r="1.95" style="stroke-width: 0.71;stroke: #545454;fill: #545454;"/>
<circle cx="179.40" cy="60.26" r="1.95" style="stroke-width: 0.71;stroke: #545454;fill: #545454;"/>
<circle cx="172.94" cy="60.26" r="1.95" style="stroke-width: 0.71;stroke: #545454;fill: #545454;"/>
<circle cx="166.48" cy="58.67" r="1.95" style="stroke-width: 0.71;stroke: #545454;fill: #545454;"/>
<circle cx="160.02" cy="60.26" r="1.95" style="stroke-width: 0.71;stroke: #545454;fill: #545454;"/>
<circle cx="153.56" cy="65.03" r="1.95" style="stroke-width: 0.71;stroke: #545454;fill: #545454;"/>
<circle cx="147.10" cy="68.21" r="1.95" style="stroke-width: 0.71;stroke: #545454;fill: #545454;"/>
<circle cx="140.64" cy="72.99" r="1.95" style="stroke-width: 0.71;stroke: #545454;fill: #545454;"/>
<circle cx="134.19" cy="72.99" r="1.95" style="stroke-width: 0.71;stroke: #545454;fill: #545454;"/>
<circle cx="127.73" cy="77.76" r="1.95" style="stroke-width: 0.71;stroke: #545454;fill: #545454;"/>
<circle cx="121.27" cy="90.49" r="1.95" style="stroke-width: 0.71;stroke: #545454;fill: #545454;"/>
<circle cx="114.81" cy="98.44" r="1.95" style="stroke-width: 0.71;stroke: #545454;fill: #545454;"/>
<circle cx="108.35" cy="104.80" r="1.95" style="stroke-width: 0.71;stroke: #545454;fill: #545454;"/>
<circle cx="101.89" cy="120.71" r="1.95" style="stroke-width: 0.71;stroke: #545454;fill: #545454;"/>
<circle cx="95.43" cy="135.03" r="1.95" style="stroke-width: 0.71;stroke: #545454;fill: #545454;"/>
<circle cx="88.97" cy="133.44" r="1.95" style="stroke-width: 0.71;stroke: #545454;fill: #545454;"/>
<circle cx="82.52" cy="139.81" r="1.95" style="stroke-width: 0.71;stroke: #545454;fill: #545454;"/>
<circle cx="76.06" cy="136.62" r="1.95" style="stroke-width: 0.71;stroke: #545454;fill: #545454;"/>
<circle cx="69.60" cy="174.81" r="1.95" style="stroke-width: 0.71;stroke: #545454;fill: #545454;"/>
<circle cx="63.14" cy="267.09" r="1.95" style="stroke-width: 0.71;stroke: #545454;fill: #545454;"/>
</g><g clip-path="url(#c7)">
<rect x="44.12" y="10.96" width="354.52" height="17.03" style="stroke-width: 2.13;fill: #FFFFFF;"/>
<g><text x="221.38" y="22.63" text-anchor="middle" style="font-family: Arial;font-size: 8.80px;fill: #1A1A1A;" textLength="35.22px" lengthAdjust="spacingAndGlyphs">accuracy</text></g>
</g><g clip-path="url(#c8)">
<polyline points="44.12,296.81 398.64,296.81" style="stroke-width: 1.07;stroke-linecap: butt;"/>
<polyline points="370.07,299.55 370.07,296.81" style="stroke-width: 1.07;stroke: #333333;stroke-linecap: butt;"/>
<polyline points="301.35,299.55 301.35,296.81" style="stroke-width: 1.07;stroke: #333333;stroke-linecap: butt;"/>
<polyline points="232.63,299.55 232.63,296.81" style="stroke-width: 1.07;stroke: #333333;stroke-linecap: butt;"/>
<polyline points="163.90,299.55 163.90,296.81" style="stroke-width: 1.07;stroke: #333333;stroke-linecap: butt;"/>
<polyline points="95.18,299.55 95.18,296.81" style="stroke-width: 1.07;stroke: #333333;stroke-linecap: butt;"/>
<g><text x="370.07" y="308.04" text-anchor="middle" style="font-family: Arial;font-size: 8.80px;fill: #4D4D4D;" textLength="7.83px" lengthAdjust="spacingAndGlyphs">-6</text></g>
<g><text x="301.35" y="308.04" text-anchor="middle" style="font-family: Arial;font-size: 8.80px;fill: #4D4D4D;" textLength="7.83px" lengthAdjust="spacingAndGlyphs">-5</text></g>
<g><text x="232.63" y="308.04" text-anchor="middle" style="font-family: Arial;font-size: 8.80px;fill: #4D4D4D;" textLength="7.83px" lengthAdjust="spacingAndGlyphs">-4</text></g>
<g><text x="163.90" y="308.04" text-anchor="middle" style="font-family: Arial;font-size: 8.80px;fill: #4D4D4D;" textLength="7.83px" lengthAdjust="spacingAndGlyphs">-3</text></g>
<g><text x="95.18" y="308.04" text-anchor="middle" style="font-family: Arial;font-size: 8.80px;fill: #4D4D4D;" textLength="7.83px" lengthAdjust="spacingAndGlyphs">-2</text></g>
<polyline points="44.12,296.81 44.12,27.98" style="stroke-width: 1.07;stroke-linecap: butt;"/>
<g><text x="39.19" y="284.56" text-anchor="end" style="font-family: Arial;font-size: 8.80px;fill: #4D4D4D;" textLength="12.23px" lengthAdjust="spacingAndGlyphs">0.5</text></g>
<g><text x="39.19" y="205.01" text-anchor="end" style="font-family: Arial;font-size: 8.80px;fill: #4D4D4D;" textLength="12.23px" lengthAdjust="spacingAndGlyphs">0.6</text></g>
<g><text x="39.19" y="125.46" text-anchor="end" style="font-family: Arial;font-size: 8.80px;fill: #4D4D4D;" textLength="12.23px" lengthAdjust="spacingAndGlyphs">0.7</text></g>
<g><text x="39.19" y="45.91" text-anchor="end" style="font-family: Arial;font-size: 8.80px;fill: #4D4D4D;" textLength="12.23px" lengthAdjust="spacingAndGlyphs">0.8</text></g>
<polyline points="41.38,281.40 44.12,281.40" style="stroke-width: 1.07;stroke: #333333;stroke-linecap: butt;"/>
<polyline points="41.38,201.85 44.12,201.85" style="stroke-width: 1.07;stroke: #333333;stroke-linecap: butt;"/>
<polyline points="41.38,122.31 44.12,122.31" style="stroke-width: 1.07;stroke: #333333;stroke-linecap: butt;"/>
<polyline points="41.38,42.76 44.12,42.76" style="stroke-width: 1.07;stroke: #333333;stroke-linecap: butt;"/>
<g><text x="206.44" y="322.69" style="font-family: Arial;font-size: 11.00px;" textLength="14.68px" lengthAdjust="spacingAndGlyphs">log</text></g>
<g><text x="221.12" y="322.69" style="font-family: Symbol;font-size: 13.75px;" textLength="4.58px" lengthAdjust="spacingAndGlyphs">(</text></g>
<g><text x="225.70" y="322.69" style="font-family: Symbol;font-size: 11.00px;" textLength="6.03px" lengthAdjust="spacingAndGlyphs">λ</text></g>
<g><text x="231.74" y="322.69" style="font-family: Symbol;font-size: 13.75px;" textLength="4.58px" lengthAdjust="spacingAndGlyphs">)</text></g>
<g><text transform="translate(18.85,162.39) rotate(-90.00)" text-anchor="middle" style="font-family: Arial;font-size: 11.00px;" textLength="63.58px" lengthAdjust="spacingAndGlyphs">CV Accuracy</text></g>
</g><g clip-path="url(#c9)">
<rect x="5.48" y="333.31" width="398.64" height="310.81" style="stroke-width: 1.07;stroke: #FFFFFF;fill: #FFFFFF;"/>
</g><g clip-path="url(#c11)">
<rect x="44.12" y="338.79" width="354.52" height="268.82" style="stroke-width: 1.07;stroke: none;fill: #FFFFFF;"/>
<line x1="44.12" y1="502.97" x2="398.64" y2="502.97" style="stroke-width: 3.20;stroke-linecap: butt;"/>
<polyline points="60.23,484.50 63.49,484.49 66.74,484.47 70.00,484.43 73.25,484.38 76.51,484.31 79.77,484.24 83.02,484.14 86.28,484.04 89.53,483.93 92.79,483.82 96.04,483.69 99.30,483.55 102.55,483.40 105.81,483.24 109.07,483.07 112.32,482.89 115.58,482.70 118.83,482.49 122.09,482.28 125.34,482.06 128.60,481.84 131.85,481.59 135.11,481.36 138.36,481.14 141.62,480.92 144.88,480.71 148.13,480.48 151.39,480.26 154.64,480.03 157.90,479.80 161.15,479.58 164.41,479.38 167.66,479.17 170.92,478.96 174.17,478.75 177.43,478.53 180.69,478.31 183.94,478.08 187.20,477.85 190.45,477.62 193.71,477.41 196.96,477.20 200.22,476.99 203.47,476.79 206.73,476.60 209.99,476.41 213.24,476.22 216.50,476.03 219.75,475.84 223.01,475.66 226.26,475.48 229.52,475.30 232.77,475.12 236.03,474.95 239.28,474.78 242.54,474.61 245.80,474.45 249.05,474.29 252.31,474.13 255.56,473.98 258.82,473.83 262.07,473.68 265.33,473.54 268.58,473.40 271.84,473.27 275.10,473.14 278.35,473.01 281.61,472.89 284.86,472.77 288.12,472.65 291.37,472.54 294.63,472.42 297.88,472.31 301.14,472.20 304.39,472.10 307.65,472.00 310.91,471.91 314.16,471.82 317.42,471.73 320.67,471.65 323.93,471.56 327.18,471.49 330.44,471.41 333.69,471.33 336.95,471.26 340.21,471.19 343.46,471.13 346.72,471.06 349.97,471.00 353.23,470.95 356.48,470.89 359.74,470.84 362.99,470.78 366.25,470.73 369.50,470.69 372.76,470.64 376.02,470.60 379.27,470.56 382.53,470.52" style="stroke-width: 1.07;stroke: #0C0C0C;stroke-linecap: butt;"/>
<polyline points="92.79,499.28 96.04,493.48 99.30,487.34 102.55,481.50 105.81,476.22 109.07,471.55 112.32,467.04 115.58,462.84 118.83,458.75 122.09,454.72 125.34,451.05 128.60,447.56 131.85,445.07 135.11,443.03 138.36,441.57 141.62,440.83 144.88,439.53 148.13,437.68 151.39,435.82 154.64,433.93 157.90,432.07 161.15,430.19 164.41,428.18 167.66,426.37 170.92,424.61 174.17,422.87 177.43,421.91 180.69,421.21 183.94,420.56 187.20,420.09 190.45,419.66 193.71,419.10 196.96,418.46 200.22,417.58 203.47,416.75 206.73,416.19 209.99,415.67 213.24,415.23 216.50,414.79 219.75,414.34 223.01,413.91 226.26,413.48 229.52,412.98 232.77,412.57 236.03,412.48 239.28,413.26 242.54,414.39 245.80,415.22 249.05,416.07 252.31,417.04 255.56,417.75 258.82,418.48 262.07,419.23 265.33,419.98 268.58,420.73 271.84,421.48 275.10,422.22 278.35,422.73 281.61,423.50 284.86,424.01 288.12,424.51 291.37,424.76 294.63,425.03 297.88,425.36 301.14,425.71 304.39,426.05 307.65,426.38 310.91,426.69 314.16,426.99 317.42,427.26 320.67,427.46 323.93,427.67 327.18,427.86 330.44,427.99 333.69,428.12 336.95,428.24 340.21,428.35 343.46,428.44 346.72,428.51 349.97,428.58 353.23,428.64 356.48,428.69 359.74,428.74 362.99,428.78 366.25,428.81 369.50,428.84 372.76,428.87 376.02,428.89 379.27,428.91 382.53,428.92" style="stroke-width: 1.07;stroke: #0C0C0C;stroke-linecap: butt;"/>
<polyline points="229.52,502.91 232.77,502.62 236.03,502.09 239.28,500.77 242.54,499.14 245.80,497.79 249.05,496.42 252.31,494.89 255.56,493.66 258.82,492.40 262.07,491.12 265.33,489.83 268.58,488.54 271.84,487.26 275.10,485.98 278.35,485.01 281.61,483.72 284.86,482.75 288.12,481.78 291.37,481.12 294.63,480.45 297.88,479.80 301.14,479.15 304.39,478.52 307.65,477.89 310.91,477.29 314.16,476.66 317.42,476.07 320.67,475.66 323.93,475.24 327.18,474.85 330.44,474.49 333.69,474.19 336.95,473.93 340.21,473.70 343.46,473.49 346.72,473.30 349.97,473.13 353.23,472.97 356.48,472.82 359.74,472.67 362.99,472.53 366.25,472.40 369.50,472.28 372.76,472.16 376.02,472.05 379.27,471.94 382.53,471.84" style="stroke-width: 1.07;stroke: #0C0C0C;stroke-linecap: butt;"/>
<polyline points="284.86,503.00 288.12,503.11 291.37,503.26 294.63,503.43 297.88,503.56 301.14,503.68 304.39,503.80 307.65,503.91 310.91,504.03 314.16,504.17 317.42,504.31 320.67,504.40 323.93,504.52 327.18,504.59 330.44,504.67 333.69,504.69 336.95,504.70 340.21,504.70 343.46,504.69 346.72,504.69 349.97,504.68 353.23,504.67 356.48,504.66 359.74,504.64 362.99,504.62 366.25,504.61 369.50,504.59 372.76,504.57 376.02,504.55 379.27,504.53 382.53,504.52" style="stroke-width: 1.07;stroke: #0C0C0C;stroke-linecap: butt;"/>
<polyline points="63.49,492.88 66.74,483.23 70.00,473.98 73.25,465.09 76.51,456.55 79.77,449.69 83.02,445.33 86.28,445.49 89.53,445.52 92.79,447.97 96.04,452.67 99.30,461.47 102.55,469.29 105.81,476.56 109.07,482.88 112.32,488.78 115.58,493.60 118.83,498.30 122.09,502.75" style="stroke-width: 1.07;stroke: #0C0C0C;stroke-linecap: butt;"/>
<polyline points="83.02,502.77 86.28,500.36 89.53,497.95 92.79,493.26 96.04,486.52 99.30,476.83 102.55,467.78 105.81,459.06 109.07,450.27 112.32,441.72 115.58,434.61 118.83,427.70 122.09,421.01 125.34,416.90 128.60,412.70 131.85,408.98 135.11,406.03 138.36,404.14 141.62,404.29 144.88,403.49 148.13,401.60 151.39,399.60 154.64,397.61 157.90,395.67 161.15,393.77 164.41,392.36 167.66,390.73 170.92,389.10 174.17,387.46 177.43,385.87 180.69,384.71 183.94,383.64 187.20,382.81 190.45,381.62 193.71,380.13 196.96,378.85 200.22,378.60 203.47,378.15 206.73,377.53 209.99,377.24 213.24,376.72 216.50,376.65 219.75,376.18 223.01,376.05 226.26,375.57 229.52,374.90 232.77,374.30 236.03,373.81 239.28,373.49 242.54,373.17 245.80,372.86 249.05,372.59 252.31,372.37 255.56,372.12 258.82,371.88 262.07,371.66 265.33,371.43 268.58,371.21 271.84,371.00 275.10,370.80 278.35,370.58 281.61,370.38 284.86,370.16 288.12,369.88 291.37,369.57 294.63,369.23 297.88,368.86 301.14,368.42 304.39,367.96 307.65,367.49 310.91,367.01 314.16,366.56 317.42,366.11 320.67,365.70 323.93,365.29 327.18,364.87 330.44,364.55 333.69,364.24 336.95,363.93 340.21,363.64 343.46,363.35 346.72,363.07 349.97,362.80 353.23,362.54 356.48,362.29 359.74,362.05 362.99,361.82 366.25,361.61 369.50,361.40 372.76,361.20 376.02,361.01 379.27,360.83 382.53,360.66" style="stroke-width: 1.07;stroke: #0C0C0C;stroke-linecap: butt;"/>
<polyline points="229.52,502.66 232.77,502.01 236.03,501.23 239.28,500.15 242.54,498.87 245.80,497.72 249.05,496.51 252.31,495.15 255.56,493.98 258.82,492.80 262.07,491.62 265.33,490.44 268.58,489.27 271.84,488.11 275.10,486.98 278.35,486.08 281.61,484.99 284.86,484.13 288.12,483.29 291.37,482.67 294.63,482.09 297.88,481.57 301.14,481.09 304.39,480.63 307.65,480.19 310.91,479.76 314.16,479.35 317.42,478.95 320.67,478.57 323.93,478.19 327.18,477.83 330.44,477.48 333.69,477.15 336.95,476.84 340.21,476.55 343.46,476.28 346.72,476.03 349.97,475.81 353.23,475.60 356.48,475.42 359.74,475.25 362.99,475.10 366.25,474.96 369.50,474.84 372.76,474.74 376.02,474.64 379.27,474.55 382.53,474.48" style="stroke-width: 1.07;stroke: #0C0C0C;stroke-linecap: butt;"/>
<polyline points="115.58,500.96 118.83,498.65 122.09,496.41 125.34,494.11 128.60,491.97 131.85,489.49 135.11,486.97 138.36,484.39 141.62,481.17 144.88,478.75 148.13,476.56 151.39,474.58 154.64,472.72 157.90,470.86 161.15,468.98 164.41,466.97 167.66,464.85 170.92,462.74 174.17,460.69 177.43,458.52 180.69,456.05 183.94,453.55 187.20,450.67 190.45,448.16 193.71,446.31 196.96,444.24 200.22,441.36 203.47,439.23 206.73,437.81 209.99,436.22 213.24,435.06 216.50,433.69 219.75,432.64 223.01,431.40 226.26,430.41 229.52,429.93 232.77,429.65 236.03,429.70 239.28,430.39 242.54,431.43 245.80,432.35 249.05,433.34 252.31,434.54 255.56,435.54 258.82,436.56 262.07,437.61 265.33,438.68 268.58,439.75 271.84,440.82 275.10,441.88 278.35,442.68 281.61,443.73 284.86,444.52 288.12,445.30 291.37,445.83 294.63,446.33 297.88,446.76 301.14,447.15 304.39,447.52 307.65,447.86 310.91,448.19 314.16,448.51 317.42,448.79 320.67,449.10 323.93,449.37 327.18,449.63 330.44,449.85 333.69,450.08 336.95,450.29 340.21,450.47 343.46,450.64 346.72,450.79 349.97,450.94 353.23,451.07 356.48,451.20 359.74,451.32 362.99,451.43 366.25,451.53 369.50,451.62 372.76,451.71 376.02,451.79 379.27,451.86 382.53,451.93" style="stroke-width: 1.07;stroke: #0C0C0C;stroke-linecap: butt;"/>
<polyline points="161.15,502.53 164.41,502.01 167.66,501.33 170.92,500.65 174.17,499.97 177.43,499.54 180.69,499.33 183.94,499.14 187.20,499.02 190.45,498.78 193.71,498.83 196.96,499.33 200.22,501.40" style="stroke-width: 1.07;stroke: #0C0C0C;stroke-linecap: butt;"/>
<polyline points="229.52,502.39 232.77,501.80 236.03,501.10 239.28,500.55 242.54,500.02 245.80,499.34 249.05,498.61 252.31,497.89 255.56,497.08 258.82,496.26 262.07,495.42 265.33,494.57 268.58,493.71 271.84,492.85 275.10,491.98 278.35,491.13 281.61,490.25 284.86,489.42 288.12,488.63 291.37,487.88 294.63,487.14 297.88,486.37 301.14,485.59 304.39,484.81 307.65,484.04 310.91,483.27 314.16,482.53 317.42,481.79 320.67,481.07 323.93,480.39 327.18,479.71 330.44,479.09 333.69,478.65 336.95,478.33 340.21,478.02 343.46,477.74 346.72,477.47 349.97,477.21 353.23,476.96 356.48,476.72 359.74,476.49 362.99,476.26 366.25,476.05 369.50,475.85 372.76,475.65 376.02,475.47 379.27,475.28 382.53,475.10" style="stroke-width: 1.07;stroke: #0C0C0C;stroke-linecap: butt;"/>
<polyline points="190.45,502.83 193.71,501.86 196.96,501.00 200.22,500.34 203.47,499.70 206.73,498.95 209.99,498.29 213.24,497.66 216.50,497.10 219.75,496.52 223.01,495.99 226.26,495.44 229.52,495.43 232.77,495.48 236.03,495.58 239.28,495.49 242.54,495.33 245.80,495.32 249.05,495.36 252.31,495.39 255.56,495.53 258.82,495.68 262.07,495.86 265.33,496.06 268.58,496.27 271.84,496.51 275.10,496.75 278.35,497.03 281.61,497.30 284.86,497.59 288.12,497.88 291.37,498.17 294.63,498.49 297.88,498.86 301.14,499.25 304.39,499.67 307.65,500.09 310.91,500.51 314.16,500.94 317.42,501.38 320.67,501.78 323.93,502.19 327.18,502.58 330.44,502.91" style="stroke-width: 1.07;stroke: #0C0C0C;stroke-linecap: butt;"/>
<polyline points="128.60,503.14 131.85,505.63 135.11,508.40 138.36,511.49 141.62,515.13 144.88,517.23 148.13,518.53 151.39,519.67 154.64,520.72 157.90,521.72 161.15,522.66 164.41,523.10 167.66,523.90 170.92,524.73 174.17,525.55 177.43,526.60 180.69,527.75 183.94,528.85 187.20,530.04 190.45,531.29 193.71,532.18 196.96,533.12 200.22,533.77 203.47,534.08 206.73,534.49 209.99,534.82 213.24,535.08 216.50,535.15 219.75,535.31 223.01,535.36 226.26,535.53 229.52,535.78 232.77,535.95 236.03,536.31 239.28,536.91 242.54,537.51 245.80,538.03 249.05,538.51 252.31,538.93 255.56,539.30 258.82,539.63 262.07,539.92 265.33,540.18 268.58,540.41 271.84,540.62 275.10,540.81 278.35,541.00 281.61,541.15 284.86,541.31 288.12,541.41 291.37,541.52 294.63,541.66 297.88,541.90 301.14,542.15 304.39,542.40 307.65,542.64 310.91,542.87 314.16,543.01 317.42,543.17 320.67,543.35 323.93,543.52 327.18,543.71 330.44,543.94 333.69,544.18 336.95,544.42 340.21,544.66 343.46,544.88 346.72,545.10 349.97,545.31 353.23,545.52 356.48,545.72 359.74,545.92 362.99,546.12 366.25,546.31 369.50,546.50 372.76,546.68 376.02,546.87 379.27,547.05 382.53,547.22" style="stroke-width: 1.07;stroke: #0C0C0C;stroke-linecap: butt;"/>
<polyline points="83.02,502.44 86.28,496.69 89.53,491.77 92.79,486.75 96.04,481.61 99.30,476.76 102.55,472.64 105.81,468.56 109.07,464.65 112.32,460.85 115.58,456.86 118.83,452.87 122.09,448.98 125.34,446.38 128.60,444.02 131.85,442.25 135.11,440.39 138.36,438.44 141.62,436.07 144.88,434.07 148.13,432.31 151.39,430.68 154.64,429.08 157.90,427.51 161.15,425.90 164.41,424.23 167.66,422.45 170.92,420.67 174.17,418.91 177.43,416.15 180.69,413.16 183.94,410.11 187.20,406.97 190.45,404.05 193.71,401.07 196.96,398.26 200.22,395.47 203.47,393.06 206.73,390.95 209.99,388.82 213.24,386.92 216.50,384.97 219.75,383.20 223.01,381.37 226.26,379.69 229.52,378.13 232.77,376.60 236.03,375.32 239.28,374.45 242.54,373.51 245.80,372.59 249.05,371.71 252.31,370.89 255.56,370.04 258.82,369.23 262.07,368.42 265.33,367.64 268.58,366.86 271.84,366.10 275.10,365.35 278.35,364.59 281.61,363.89 284.86,363.17 288.12,362.46 291.37,361.73 294.63,361.06 297.88,360.46 301.14,359.89 304.39,359.35 307.65,358.82 310.91,358.31 314.16,357.84 317.42,357.37 320.67,356.90 323.93,356.43 327.18,356.01 330.44,355.58 333.69,355.14 336.95,354.72 340.21,354.33 343.46,353.96 346.72,353.62 349.97,353.29 353.23,353.00 356.48,352.72 359.74,352.46 362.99,352.21 366.25,351.98 369.50,351.76 372.76,351.55 376.02,351.36 379.27,351.18 382.53,351.01" style="stroke-width: 1.07;stroke: #0C0C0C;stroke-linecap: butt;"/>
<polyline points="291.37,502.95 294.63,502.95 320.67,502.94 323.93,502.93 327.18,502.92 330.44,502.85 333.69,502.81 336.95,502.78 340.21,502.77 343.46,502.76 346.72,502.76 349.97,502.74 353.23,502.72 356.48,502.68 359.74,502.64 362.99,502.59 366.25,502.54 369.50,502.48 372.76,502.42 376.02,502.36 379.27,502.29 382.53,502.22" style="stroke-width: 1.07;stroke: #0C0C0C;stroke-linecap: butt;"/>
<polyline points="255.56,502.96 258.82,502.94 262.07,502.92 265.33,502.90 268.58,502.86 271.84,502.79 275.10,502.71 278.35,502.61 281.61,502.49 284.86,502.38 288.12,502.26 291.37,502.14 294.63,502.05 297.88,502.04 301.14,502.07 304.39,502.12 307.65,502.17 310.91,502.22 314.16,502.29 317.42,502.35 320.67,502.35 323.93,502.37 327.18,502.39 330.44,502.36 333.69,502.31 336.95,502.28 340.21,502.25 343.46,502.22 346.72,502.20 349.97,502.19 353.23,502.18 356.48,502.18 359.74,502.17 362.99,502.18 366.25,502.18 369.50,502.19 372.76,502.20 376.02,502.21 379.27,502.22 382.53,502.24" style="stroke-width: 1.07;stroke: #0C0C0C;stroke-linecap: butt;"/>
<polyline points="236.03,502.88 239.28,502.70 242.54,502.50 245.80,502.23 249.05,501.93 252.31,501.57 255.56,501.24 258.82,500.91 262.07,500.57 265.33,500.24 268.58,499.91 271.84,499.58 275.10,499.26 278.35,499.01 281.61,498.70 284.86,498.46 288.12,498.23 291.37,498.07 294.63,497.99 297.88,498.00 301.14,498.04 304.39,498.10 307.65,498.17 310.91,498.26 314.16,498.35 317.42,498.45 320.67,498.58 323.93,498.72 327.18,498.85 330.44,498.93 333.69,499.02 336.95,499.12 340.21,499.22 343.46,499.32 346.72,499.42 349.97,499.51 353.23,499.60 356.48,499.69 359.74,499.76 362.99,499.84 366.25,499.91 369.50,499.98 372.76,500.04 376.02,500.09 379.27,500.14 382.53,500.19" style="stroke-width: 1.07;stroke: #0C0C0C;stroke-linecap: butt;"/>
<polyline points="236.03,503.37 239.28,504.31 242.54,505.24 245.80,506.13 249.05,506.91 252.31,507.60 255.56,508.25 258.82,508.80 262.07,509.28 265.33,509.68 268.58,510.03 271.84,510.33 275.10,510.57 278.35,510.85 281.61,510.98 284.86,511.19 288.12,511.37 291.37,511.62 294.63,511.91 297.88,512.27 301.14,512.63 304.39,512.98 307.65,513.32 310.91,513.66 314.16,513.92 317.42,514.16 320.67,514.45 323.93,514.68 327.18,514.87 330.44,515.13 333.69,515.34 336.95,515.49 340.21,515.63 343.46,515.75 346.72,515.88 349.97,516.00 353.23,516.12 356.48,516.23 359.74,516.34 362.99,516.46 366.25,516.57 369.50,516.69 372.76,516.80 376.02,516.92 379.27,517.03 382.53,517.13" style="stroke-width: 1.07;stroke: #0C0C0C;stroke-linecap: butt;"/>
<polyline points="249.05,503.04 252.31,503.16 255.56,503.30 258.82,503.50 262.07,503.73 265.33,503.99 268.58,504.27 271.84,504.57 275.10,504.89 278.35,505.17 281.61,505.54 284.86,505.85 288.12,506.16 291.37,506.41 294.63,506.67 297.88,506.92 301.14,507.16 304.39,507.38 307.65,507.60 310.91,507.80 314.16,508.04 317.42,508.28 320.67,508.46 323.93,508.66 327.18,508.83 330.44,508.95 333.69,509.12 336.95,509.31 340.21,509.50 343.46,509.67 346.72,509.84 349.97,510.00 353.23,510.14 356.48,510.27 359.74,510.39 362.99,510.49 366.25,510.58 369.50,510.66 372.76,510.73 376.02,510.78 379.27,510.83 382.53,510.87" style="stroke-width: 1.07;stroke: #0C0C0C;stroke-linecap: butt;"/>
<polyline points="135.11,503.92 138.36,506.37 141.62,509.87 144.88,512.93 148.13,515.13 151.39,517.28 154.64,519.38 157.90,521.40 161.15,523.35 164.41,525.26 167.66,527.11 170.92,528.91 174.17,530.68 177.43,532.04 180.69,533.25 183.94,534.42 187.20,535.55 190.45,536.67 193.71,537.89 196.96,539.19 200.22,540.81 203.47,542.59 206.73,544.37 209.99,546.06 213.24,547.85 216.50,549.57 219.75,551.30 223.01,552.97 226.26,554.61 229.52,556.20 232.77,557.77 236.03,559.31 239.28,560.84 242.54,562.36 245.80,563.85 249.05,565.33 252.31,566.82 255.56,568.25 258.82,569.66 262.07,571.03 265.33,572.37 268.58,573.69 271.84,574.97 275.10,576.23 278.35,577.42 281.61,578.61 284.86,579.72 288.12,580.75 291.37,581.71 294.63,582.56 297.88,583.30 301.14,583.98 304.39,584.60 307.65,585.19 310.91,585.75 314.16,586.27 317.42,586.76 320.67,587.29 323.93,587.77 327.18,588.28 330.44,588.79 333.69,589.27 336.95,589.76 340.21,590.25 343.46,590.72 346.72,591.17 349.97,591.61 353.23,592.05 356.48,592.47 359.74,592.87 362.99,593.27 366.25,593.65 369.50,594.03 372.76,594.39 376.02,594.74 379.27,595.07 382.53,595.39" style="stroke-width: 1.07;stroke: #0C0C0C;stroke-linecap: butt;"/>
<polyline points="83.02,502.71 86.28,495.98 89.53,490.55 92.79,487.11 96.04,484.94 99.30,483.57 102.55,482.77 105.81,482.44 109.07,481.92 112.32,481.29 115.58,481.34 118.83,481.54 122.09,481.68 125.34,481.13 128.60,480.42 131.85,480.94 135.11,481.46 138.36,481.91 141.62,483.49 144.88,484.83 148.13,485.63 151.39,486.49 154.64,487.36 157.90,488.25 161.15,489.06 164.41,490.06 167.66,490.61 170.92,491.09 174.17,491.54 177.43,491.09 180.69,490.72 183.94,490.27 187.20,489.64 190.45,488.88 193.71,487.60 196.96,486.54 200.22,485.53 203.47,484.33 206.73,482.94 209.99,481.62 213.24,480.16 216.50,478.76 219.75,477.37 223.01,476.02 226.26,474.70 229.52,473.38 232.77,472.28 236.03,471.20 239.28,470.23 242.54,469.10 245.80,467.97 249.05,466.87 252.31,465.79 255.56,464.73 258.82,463.70 262.07,462.69 265.33,461.71 268.58,460.75 271.84,459.82 275.10,458.90 278.35,458.00 281.61,457.13 284.86,456.29 288.12,455.49 291.37,454.72 294.63,454.04 297.88,453.46 301.14,452.92 304.39,452.41 307.65,451.93 310.91,451.48 314.16,451.10 317.42,450.74 320.67,450.39 323.93,450.04 327.18,449.74 330.44,449.41 333.69,449.07 336.95,448.73 340.21,448.40 343.46,448.10 346.72,447.81 349.97,447.53 353.23,447.28 356.48,447.03 359.74,446.79 362.99,446.56 366.25,446.34 369.50,446.13 372.76,445.92 376.02,445.72 379.27,445.54 382.53,445.36" style="stroke-width: 1.07;stroke: #0C0C0C;stroke-linecap: butt;"/>
<polyline points="86.28,504.32 89.53,507.08 92.79,510.30 96.04,513.71 99.30,516.83 102.55,519.04 105.81,521.16 109.07,522.76 112.32,524.23 115.58,525.39 118.83,526.48 122.09,527.57 125.34,528.28 128.60,528.85 131.85,529.44 135.11,530.30 138.36,531.57 141.62,533.48 144.88,535.37 148.13,536.87 151.39,538.38 154.64,539.92 157.90,541.47 161.15,542.97 164.41,544.80 167.66,546.29 170.92,547.73 174.17,549.14 177.43,550.35 180.69,551.64 183.94,552.92 187.20,554.08 190.45,555.03 193.71,555.73 196.96,556.54 200.22,557.88 203.47,559.19 206.73,560.20 209.99,561.33 213.24,562.37 216.50,563.58 219.75,564.63 223.01,565.80 226.26,566.80 229.52,567.73 232.77,568.72 236.03,569.79 239.28,571.11 242.54,572.40 245.80,573.63 249.05,574.85 252.31,576.10 255.56,577.20 258.82,578.30 262.07,579.36 265.33,580.40 268.58,581.42 271.84,582.41 275.10,583.38 278.35,584.23 281.61,585.17 284.86,585.98 288.12,586.78 291.37,587.45 294.63,588.12 297.88,588.77 301.14,589.39 304.39,589.97 307.65,590.53 310.91,591.06 314.16,591.47 317.42,591.82 320.67,592.12 323.93,592.38 327.18,592.52 330.44,592.67 333.69,592.84 336.95,593.02 340.21,593.19 343.46,593.36 346.72,593.52 349.97,593.66 353.23,593.79 356.48,593.91 359.74,594.02 362.99,594.12 366.25,594.21 369.50,594.30 372.76,594.38 376.02,594.46 379.27,594.54 382.53,594.62" style="stroke-width: 1.07;stroke: #0C0C0C;stroke-linecap: butt;"/>
<polyline points="255.56,502.99 258.82,503.03 262.07,503.06 265.33,503.09 268.58,503.11 271.84,503.12 275.10,503.13 278.35,503.18 281.61,503.16 284.86,503.17 288.12,503.15 291.37,503.18 294.63,503.17 297.88,503.15 301.14,503.13 304.39,503.11 307.65,503.10 310.91,503.09 314.16,503.18 317.42,503.28 320.67,503.45 323.93,503.60 327.18,503.83 330.44,504.05 333.69,504.23 336.95,504.39 340.21,504.54 343.46,504.68 346.72,504.81 349.97,504.95 353.23,505.09 356.48,505.23 359.74,505.37 362.99,505.51 366.25,505.65 369.50,505.78 372.76,505.90 376.02,506.02 379.27,506.14 382.53,506.25" style="stroke-width: 1.07;stroke: #0C0C0C;stroke-linecap: butt;"/>
<polyline points="376.02,502.97 379.27,502.98 382.53,502.99" style="stroke-width: 1.07;stroke: #0C0C0C;stroke-linecap: butt;"/>
<polyline points="141.62,503.68 144.88,505.60 148.13,507.32 151.39,509.24 154.64,511.21 157.90,513.22 161.15,515.09 164.41,517.49 167.66,519.23 170.92,520.88 174.17,522.45 177.43,523.33 180.69,524.09 183.94,524.80 187.20,525.35 190.45,525.76 193.71,526.45 196.96,527.28 200.22,528.89 203.47,530.64 206.73,531.68 209.99,532.66 213.24,533.67 216.50,534.75 219.75,535.80 223.01,536.85 226.26,537.84 229.52,538.71 232.77,539.65 236.03,540.51 239.28,541.27 242.54,541.98 245.80,542.73 249.05,543.48 252.31,544.25 255.56,545.05 258.82,545.85 262.07,546.65 265.33,547.45 268.58,548.25 271.84,549.03 275.10,549.80 278.35,550.54 281.61,551.28 284.86,552.00 288.12,552.73 291.37,553.44 294.63,554.13 297.88,554.73 301.14,555.29 304.39,555.81 307.65,556.31 310.91,556.79 314.16,557.14 317.42,557.43 320.67,557.70 323.93,557.92 327.18,558.07 330.44,558.23 333.69,558.34 336.95,558.44 340.21,558.54 343.46,558.63 346.72,558.72 349.97,558.79 353.23,558.84 356.48,558.87 359.74,558.90 362.99,558.92 366.25,558.93 369.50,558.94 372.76,558.94 376.02,558.93 379.27,558.91 382.53,558.89" style="stroke-width: 1.07;stroke: #0C0C0C;stroke-linecap: butt;"/>
<polyline points="310.91,502.98 314.16,503.24 317.42,503.50 320.67,503.76 323.93,504.02 327.18,504.28 330.44,504.49 333.69,504.69 336.95,504.86 340.21,505.03 343.46,505.19 346.72,505.34 349.97,505.49 353.23,505.64 356.48,505.79 359.74,505.95 362.99,506.09 366.25,506.23 369.50,506.37 372.76,506.49 376.02,506.62 379.27,506.74 382.53,506.85" style="stroke-width: 1.07;stroke: #0C0C0C;stroke-linecap: butt;"/>
<polyline points="193.71,501.15 196.96,498.41 200.22,492.50 203.47,487.58 206.73,485.54 209.99,484.21 213.24,483.05 216.50,482.42 219.75,481.43 223.01,480.83 226.26,479.94 229.52,478.79 232.77,477.69 236.03,476.61 239.28,475.53 242.54,474.47 245.80,473.39 249.05,472.33 252.31,471.35 255.56,470.35 258.82,469.33 262.07,468.31 265.33,467.29 268.58,466.28 271.84,465.29 275.10,464.32 278.35,463.37 281.61,462.43 284.86,461.53 288.12,460.68 291.37,459.86 294.63,459.05 297.88,458.24 301.14,457.43 304.39,456.61 307.65,455.78 310.91,454.97 314.16,454.15 317.42,453.37 320.67,452.68 323.93,452.03 327.18,451.39 330.44,450.78 333.69,450.15 336.95,449.52 340.21,448.90 343.46,448.31 346.72,447.75 349.97,447.23 353.23,446.74 356.48,446.29 359.74,445.87 362.99,445.47 366.25,445.10 369.50,444.75 372.76,444.42 376.02,444.12 379.27,443.82 382.53,443.54" style="stroke-width: 1.07;stroke: #0C0C0C;stroke-linecap: butt;"/>
<polyline points="105.81,501.27 109.07,499.35 112.32,497.66 115.58,496.19 118.83,494.76 122.09,493.33 125.34,491.62 128.60,489.98 131.85,488.34 135.11,486.69 138.36,484.95 141.62,483.11 144.88,480.95 148.13,478.64 151.39,476.30 154.64,473.92 157.90,471.57 161.15,469.35 164.41,466.90 167.66,464.92 170.92,463.00 174.17,461.13 177.43,459.18 180.69,457.02 183.94,454.90 187.20,453.02 190.45,451.33 193.71,451.06 196.96,451.42 200.22,453.87 203.47,455.53 206.73,455.21 209.99,454.37 213.24,453.38 216.50,451.99 219.75,450.92 223.01,449.57 226.26,448.50 229.52,447.73 232.77,446.91 236.03,446.25 239.28,445.79 242.54,445.33 245.80,444.90 249.05,444.46 252.31,443.95 255.56,443.46 258.82,442.99 262.07,442.54 265.33,442.09 268.58,441.65 271.84,441.20 275.10,440.76 278.35,440.33 281.61,439.91 284.86,439.48 288.12,439.06 291.37,438.66 294.63,438.31 297.88,438.06 301.14,437.90 304.39,437.79 307.65,437.72 310.91,437.68 314.16,437.63 317.42,437.59 320.67,437.47 323.93,437.35 327.18,437.23 330.44,437.14 333.69,437.09 336.95,437.06 340.21,437.03 343.46,436.99 346.72,436.95 349.97,436.90 353.23,436.84 356.48,436.77 359.74,436.70 362.99,436.62 366.25,436.54 369.50,436.46 372.76,436.38 376.02,436.30 379.27,436.22 382.53,436.13" style="stroke-width: 1.07;stroke: #0C0C0C;stroke-linecap: butt;"/>
<polyline points="79.77,500.05 83.02,495.88 86.28,493.48 89.53,491.93 92.79,492.26 96.04,493.64 99.30,495.58 102.55,497.18 105.81,499.12 109.07,500.28 112.32,501.20 115.58,501.58 118.83,501.89 122.09,502.20 125.34,501.75 128.60,501.06 131.85,500.15 135.11,499.38 138.36,498.83 141.62,498.90 144.88,499.21 148.13,499.32 151.39,499.51 154.64,499.77 157.90,500.01 161.15,500.24 164.41,500.75 167.66,500.76 170.92,500.71 174.17,500.65 177.43,501.14 180.69,501.92 183.94,502.69" style="stroke-width: 1.07;stroke: #0C0C0C;stroke-linecap: butt;"/>
<polyline points="86.28,501.99 89.53,499.56 92.79,495.91 96.04,491.61 99.30,487.96 102.55,484.35 105.81,480.19 109.07,476.12 112.32,472.24 115.58,469.72 118.83,467.47 122.09,465.25 125.34,463.14 128.60,461.05 131.85,458.98 135.11,457.13 138.36,455.60 141.62,454.06 144.88,451.27 148.13,448.52 151.39,445.49 154.64,442.38 157.90,439.36 161.15,436.60 164.41,433.88 167.66,431.87 170.92,429.99 174.17,428.14 177.43,426.73 180.69,425.61 183.94,424.65 187.20,424.43 190.45,424.06 193.71,423.44 196.96,422.76 200.22,422.28 203.47,421.18 206.73,420.12 209.99,419.39 213.24,418.22 216.50,417.43 219.75,416.25 223.01,415.40 226.26,414.24 229.52,412.98 232.77,411.77 236.03,410.71 239.28,409.80 242.54,408.97 245.80,408.10 249.05,407.25 252.31,406.37 255.56,405.51 258.82,404.65 262.07,403.80 265.33,402.95 268.58,402.11 271.84,401.28 275.10,400.46 278.35,399.69 281.61,398.88 284.86,398.13 288.12,397.38 291.37,396.67 294.63,396.04 297.88,395.46 301.14,394.90 304.39,394.37 307.65,393.85 310.91,393.35 314.16,392.81 317.42,392.32 320.67,391.87 323.93,391.45 327.18,390.99 330.44,390.66 333.69,390.34 336.95,390.01 340.21,389.69 343.46,389.37 346.72,389.06 349.97,388.74 353.23,388.42 356.48,388.10 359.74,387.78 362.99,387.46 366.25,387.15 369.50,386.85 372.76,386.56 376.02,386.27 379.27,385.99 382.53,385.72" style="stroke-width: 1.07;stroke: #0C0C0C;stroke-linecap: butt;"/>
<polyline points="177.43,501.28 180.69,499.08 183.94,496.91 187.20,495.74 190.45,495.06 193.71,494.42 196.96,493.99 200.22,495.07 203.47,496.07 206.73,496.44 209.99,497.91 213.24,498.26 216.50,500.14 219.75,500.65 223.01,502.28 226.26,502.82 229.52,502.76 232.77,502.75 236.03,502.77 291.37,502.89 294.63,502.85 297.88,502.76 301.14,502.65 304.39,502.53 307.65,502.40 310.91,502.27 314.16,502.16 317.42,502.05 320.67,501.88 323.93,501.73 327.18,501.58 330.44,501.45 333.69,501.29 336.95,501.12 340.21,500.97 343.46,500.82 346.72,500.70 349.97,500.59 353.23,500.49 356.48,500.40 359.74,500.32 362.99,500.25 366.25,500.18 369.50,500.13 372.76,500.08 376.02,500.03 379.27,500.00 382.53,499.98" style="stroke-width: 1.07;stroke: #0C0C0C;stroke-linecap: butt;"/>
<polyline points="200.22,502.93 203.47,502.91 206.73,502.89 209.99,502.88 213.24,502.87 216.50,502.86 219.75,502.86 223.01,502.85 226.26,502.84 229.52,502.83 232.77,502.82 236.03,502.82 239.28,502.96 278.35,502.93 284.86,502.94 288.12,502.94 291.37,502.93 294.63,502.93 297.88,502.92 301.14,502.91 304.39,502.90 307.65,502.90 310.91,502.89 314.16,502.89 317.42,502.89 320.67,502.87 323.93,502.87 327.18,502.86 330.44,502.86 333.69,502.88 336.95,502.91 340.21,502.94" style="stroke-width: 1.07;stroke: #0C0C0C;stroke-linecap: butt;"/>
<polyline points="183.94,502.89 187.20,501.82 190.45,500.47 193.71,499.37 196.96,498.11 200.22,495.17 203.47,492.65 206.73,491.15 209.99,488.57 213.24,487.18 216.50,484.30 219.75,482.86 223.01,480.33 226.26,478.90 229.52,478.20 232.77,477.53 236.03,476.91 239.28,476.01 242.54,475.40 245.80,474.87 249.05,474.38 252.31,473.94 255.56,473.53 258.82,473.15 262.07,472.79 265.33,472.46 268.58,472.14 271.84,471.85 275.10,471.57 278.35,471.33 281.61,471.04 284.86,470.82 288.12,470.57 291.37,470.40 294.63,470.18 297.88,469.96 301.14,469.74 304.39,469.54 307.65,469.35 310.91,469.17 314.16,469.01 317.42,468.86 320.67,468.74 323.93,468.62 327.18,468.51 330.44,468.43 333.69,468.34 336.95,468.25 340.21,468.17 343.46,468.08 346.72,468.01 349.97,467.93 353.23,467.86 356.48,467.79 359.74,467.72 362.99,467.65 366.25,467.59 369.50,467.53 372.76,467.47 376.02,467.41 379.27,467.35 382.53,467.29" style="stroke-width: 1.07;stroke: #0C0C0C;stroke-linecap: butt;"/>
<polyline points="203.47,502.56 206.73,501.46 209.99,500.26 213.24,498.87 216.50,497.42 219.75,496.04 223.01,494.63 226.26,493.32 229.52,492.07 232.77,490.88 236.03,489.64 239.28,488.28 242.54,486.94 245.80,485.67 249.05,484.42 252.31,483.17 255.56,482.00 258.82,480.87 262.07,479.78 265.33,478.74 268.58,477.74 271.84,476.79 275.10,475.88 278.35,475.02 281.61,474.18 284.86,473.40 288.12,472.68 291.37,472.04 294.63,471.41 297.88,470.75 301.14,470.11 304.39,469.49 307.65,468.90 310.91,468.35 314.16,467.81 317.42,467.31 320.67,466.98 323.93,466.60 327.18,466.24 330.44,465.96 333.69,465.67 336.95,465.36 340.21,465.05 343.46,464.74 346.72,464.44 349.97,464.16 353.23,463.90 356.48,463.65 359.74,463.41 362.99,463.18 366.25,462.96 369.50,462.75 372.76,462.56 376.02,462.38 379.27,462.20 382.53,462.04" style="stroke-width: 1.07;stroke: #0C0C0C;stroke-linecap: butt;"/>
<polyline points="79.77,502.37 83.02,498.94 86.28,497.76 89.53,496.76 92.79,495.52 96.04,494.04 99.30,491.73 102.55,489.53 105.81,487.77 109.07,487.46 112.32,487.42 115.58,487.39 118.83,487.32 122.09,487.29 125.34,488.53 128.60,490.06 131.85,490.87 135.11,491.45 138.36,491.75 141.62,490.87 144.88,490.74 148.13,491.08 151.39,491.51 154.64,491.92 157.90,492.29 161.15,492.79 164.41,492.97 167.66,493.49 170.92,494.03 174.17,494.59 177.43,494.87 180.69,494.61 183.94,494.31 187.20,493.96 190.45,493.99 193.71,494.29 196.96,494.29 200.22,493.23 203.47,492.76 206.73,493.07 209.99,493.18 213.24,493.59 216.50,493.75 219.75,494.16 223.01,494.36 226.26,494.76 229.52,495.29 232.77,495.82 236.03,496.19 239.28,496.34 242.54,496.54 245.80,496.78 249.05,497.06 252.31,497.41 255.56,497.76 258.82,498.15 262.07,498.55 265.33,498.99 268.58,499.44 271.84,499.92 275.10,500.42 278.35,500.87 281.61,501.38 284.86,501.84 288.12,502.33 291.37,502.79" style="stroke-width: 1.07;stroke: #0C0C0C;stroke-linecap: butt;"/>
<polyline points="109.07,501.26 112.32,499.23 115.58,497.08 118.83,494.97 122.09,492.91 125.34,490.42 128.60,487.78 131.85,486.18 135.11,484.76 138.36,483.54 141.62,483.51 144.88,483.31 148.13,482.69 151.39,482.12 154.64,481.61 157.90,481.14 161.15,480.61 164.41,480.45 167.66,479.74 170.92,478.98 174.17,478.20 177.43,478.16 180.69,478.71 183.94,479.28 187.20,479.64 190.45,479.66 193.71,479.78 196.96,480.32 200.22,482.28 203.47,483.71 206.73,483.97 209.99,484.07 213.24,484.03 216.50,483.91 219.75,483.83 223.01,483.69 226.26,483.60 229.52,483.49 232.77,483.40 236.03,483.34 239.28,483.36 242.54,483.42 245.80,483.45 249.05,483.50 252.31,483.54 255.56,483.56 258.82,483.61 262.07,483.67 265.33,483.74 268.58,483.82 271.84,483.91 275.10,484.00 278.35,484.07 281.61,484.18 284.86,484.25 288.12,484.32 291.37,484.35 294.63,484.49 297.88,484.65 301.14,484.77 304.39,484.87 307.65,484.96 310.91,485.04 314.16,485.14 317.42,485.22 320.67,485.36 323.93,485.44 327.18,485.53 330.44,485.62 333.69,485.71 336.95,485.78 340.21,485.86 343.46,485.92 346.72,485.98 349.97,486.03 353.23,486.08 356.48,486.12 359.74,486.15 362.99,486.19 366.25,486.22 369.50,486.24 372.76,486.27 376.02,486.29 379.27,486.31 382.53,486.32" style="stroke-width: 1.07;stroke: #0C0C0C;stroke-linecap: butt;"/>
<polyline points="255.56,502.88 258.82,502.77 262.07,502.64 265.33,502.48 268.58,502.30 271.84,502.10 275.10,501.89 278.35,501.61 281.61,501.43 284.86,501.15 288.12,500.89 291.37,500.56 294.63,500.29 297.88,500.13 301.14,500.03 304.39,499.96 307.65,499.91 310.91,499.86 314.16,499.79 317.42,499.73 320.67,499.59 323.93,499.47 327.18,499.37 330.44,499.28 333.69,499.23 336.95,499.18 340.21,499.12 343.46,499.06 346.72,499.01 349.97,498.96 353.23,498.92 356.48,498.89 359.74,498.86 362.99,498.84 366.25,498.82 369.50,498.80 372.76,498.78 376.02,498.77 379.27,498.76 382.53,498.75" style="stroke-width: 1.07;stroke: #0C0C0C;stroke-linecap: butt;"/>
<polyline points="122.09,502.79 125.34,498.74 128.60,494.37 131.85,492.65 135.11,492.33 138.36,493.70 141.62,499.47" style="stroke-width: 1.07;stroke: #0C0C0C;stroke-linecap: butt;"/>
<polyline points="99.30,500.37 102.55,497.88 105.81,495.77 109.07,494.62 112.32,493.67 115.58,492.42 118.83,491.11 122.09,490.00 125.34,492.94 128.60,496.38 131.85,497.62 135.11,497.60 138.36,496.07 141.62,490.35 144.88,487.04 148.13,486.74 151.39,486.55 154.64,486.38 157.90,486.19 161.15,486.03 164.41,485.63 167.66,485.36 170.92,485.11 174.17,484.88 177.43,484.31 180.69,483.35 183.94,482.35 187.20,481.26 190.45,480.48 193.71,479.93 196.96,479.28 200.22,478.08 203.47,477.39 206.73,477.16 209.99,476.77 213.24,476.66 216.50,476.36 219.75,476.29 223.01,476.05 226.26,476.00 229.52,476.09 232.77,476.16 236.03,476.43 239.28,476.62 242.54,476.91 245.80,477.26 249.05,477.62 252.31,478.02 255.56,478.48 258.82,478.96 262.07,479.46 265.33,479.97 268.58,480.50 271.84,481.04 275.10,481.60 278.35,482.18 281.61,482.70 284.86,483.28 288.12,483.86 291.37,484.46 294.63,484.97 297.88,485.30 301.14,485.56 304.39,485.76 307.65,485.95 310.91,486.12 314.16,486.30 317.42,486.46 320.67,486.65 323.93,486.83 327.18,486.98 330.44,487.13 333.69,487.25 336.95,487.36 340.21,487.46 343.46,487.56 346.72,487.66 349.97,487.75 353.23,487.83 356.48,487.90 359.74,487.97 362.99,488.04 366.25,488.10 369.50,488.16 372.76,488.21 376.02,488.26 379.27,488.31 382.53,488.36" style="stroke-width: 1.07;stroke: #0C0C0C;stroke-linecap: butt;"/>
<polyline points="102.55,505.14 105.81,507.16 109.07,509.07 112.32,510.97 115.58,512.71 118.83,514.39 122.09,516.01 125.34,517.15 128.60,518.32 131.85,520.87 135.11,523.43 138.36,525.87 141.62,528.90 144.88,531.25 148.13,532.86 151.39,534.46 154.64,535.99 157.90,536.88 161.15,537.35 164.41,535.10 167.66,533.41 170.92,531.67 174.17,530.05 177.43,529.79 180.69,528.85 183.94,527.63 187.20,524.96 190.45,523.51 193.71,522.96 196.96,522.34 200.22,519.04 203.47,516.80 206.73,515.95 209.99,513.26 213.24,512.13 216.50,508.60 219.75,507.23 223.01,504.07" style="stroke-width: 1.07;stroke: #0C0C0C;stroke-linecap: butt;"/>
<polyline points="154.64,503.00 157.90,503.73 161.15,504.84 164.41,508.34 167.66,511.41 170.92,514.51 174.17,517.48 177.43,518.68 180.69,520.39 183.94,522.29 187.20,525.57 190.45,527.80 193.71,528.72 196.96,529.61 200.22,532.29 203.47,534.04 206.73,535.01 209.99,537.78 213.24,539.04 216.50,542.57 219.75,544.04 223.01,547.20 226.26,548.44 229.52,548.68 232.77,548.92 236.03,549.24 239.28,549.62 242.54,550.00 245.80,550.33 249.05,550.63 252.31,550.91 255.56,551.15 258.82,551.37 262.07,551.56 265.33,551.74 268.58,551.89 271.84,552.03 275.10,552.15 278.35,552.26 281.61,552.35 284.86,552.45 288.12,552.56 291.37,552.69 294.63,552.86 297.88,553.11 301.14,553.36 304.39,553.61 307.65,553.85 310.91,554.10 314.16,554.35 317.42,554.61 320.67,554.79 323.93,554.98 327.18,555.11 330.44,555.26 333.69,555.35 336.95,555.41 340.21,555.47 343.46,555.53 346.72,555.57 349.97,555.60 353.23,555.62 356.48,555.64 359.74,555.66 362.99,555.68 366.25,555.70 369.50,555.71 372.76,555.72 376.02,555.73 379.27,555.75 382.53,555.77" style="stroke-width: 1.07;stroke: #0C0C0C;stroke-linecap: butt;"/>
<polyline points="320.67,502.76 323.93,502.64 327.18,502.47 330.44,502.34 333.69,502.21 336.95,502.07 340.21,501.94 343.46,501.81 346.72,501.68 349.97,501.56 353.23,501.46 356.48,501.39 359.74,501.34 362.99,501.30 366.25,501.28 369.50,501.27 372.76,501.28 376.02,501.30 379.27,501.32 382.53,501.36" style="stroke-width: 1.07;stroke: #0C0C0C;stroke-linecap: butt;"/>
<polyline points="349.97,502.95 353.23,502.91 356.48,502.85 359.74,502.77 362.99,502.68 366.25,502.58 369.50,502.47 372.76,502.35 376.02,502.23 379.27,502.10 382.53,501.98" style="stroke-width: 1.07;stroke: #0C0C0C;stroke-linecap: butt;"/>
<polyline points="349.97,503.00 353.23,503.08 356.48,503.18 359.74,503.30 362.99,503.43 366.25,503.57 369.50,503.72 372.76,503.88 376.02,504.05 379.27,504.21 382.53,504.36" style="stroke-width: 1.07;stroke: #0C0C0C;stroke-linecap: butt;"/>
<polyline points="346.72,502.97 349.97,502.97 353.23,502.97 356.48,502.97 359.74,502.97 362.99,502.97 366.25,502.97 369.50,502.97 372.76,502.97 376.02,502.97 379.27,502.97 382.53,502.97" style="stroke-width: 1.07;stroke: #0C0C0C;stroke-linecap: butt;"/>
<polyline points="323.93,503.02 327.18,503.19 330.44,503.30 333.69,503.45 336.95,503.60 340.21,503.76 343.46,503.92 346.72,504.08 349.97,504.21 353.23,504.32 356.48,504.40 359.74,504.46 362.99,504.51 366.25,504.54 369.50,504.57 372.76,504.59 376.02,504.60 379.27,504.61 382.53,504.61" style="stroke-width: 1.07;stroke: #0C0C0C;stroke-linecap: butt;"/>
</g><g clip-path="url(#c12)">
<polyline points="44.12,607.61 44.12,338.79" style="stroke-width: 1.07;stroke-linecap: butt;"/>
<g><text x="39.19" y="608.69" text-anchor="end" style="font-family: Arial;font-size: 8.80px;fill: #4D4D4D;" textLength="15.16px" lengthAdjust="spacingAndGlyphs">-0.4</text></g>
<g><text x="39.19" y="557.41" text-anchor="end" style="font-family: Arial;font-size: 8.80px;fill: #4D4D4D;" textLength="15.16px" lengthAdjust="spacingAndGlyphs">-0.2</text></g>
<g><text x="39.19" y="506.12" text-anchor="end" style="font-family: Arial;font-size: 8.80px;fill: #4D4D4D;" textLength="12.23px" lengthAdjust="spacingAndGlyphs">0.0</text></g>
<g><text x="39.19" y="454.83" text-anchor="end" style="font-family: Arial;font-size: 8.80px;fill: #4D4D4D;" textLength="12.23px" lengthAdjust="spacingAndGlyphs">0.2</text></g>
<g><text x="39.19" y="403.55" text-anchor="end" style="font-family: Arial;font-size: 8.80px;fill: #4D4D4D;" textLength="12.23px" lengthAdjust="spacingAndGlyphs">0.4</text></g>
<g><text x="39.19" y="352.26" text-anchor="end" style="font-family: Arial;font-size: 8.80px;fill: #4D4D4D;" textLength="12.23px" lengthAdjust="spacingAndGlyphs">0.6</text></g>
<polyline points="41.38,605.54 44.12,605.54" style="stroke-width: 1.07;stroke: #333333;stroke-linecap: butt;"/>
<polyline points="41.38,554.25 44.12,554.25" style="stroke-width: 1.07;stroke: #333333;stroke-linecap: butt;"/>
<polyline points="41.38,502.97 44.12,502.97" style="stroke-width: 1.07;stroke: #333333;stroke-linecap: butt;"/>
<polyline points="41.38,451.68 44.12,451.68" style="stroke-width: 1.07;stroke: #333333;stroke-linecap: butt;"/>
<polyline points="41.38,400.40 44.12,400.40" style="stroke-width: 1.07;stroke: #333333;stroke-linecap: butt;"/>
<polyline points="41.38,349.11 44.12,349.11" style="stroke-width: 1.07;stroke: #333333;stroke-linecap: butt;"/>
<polyline points="44.12,607.61 398.64,607.61" style="stroke-width: 1.07;stroke-linecap: butt;"/>
<polyline points="372.80,610.35 372.80,607.61" style="stroke-width: 1.07;stroke: #333333;stroke-linecap: butt;"/>
<polyline points="302.82,610.35 302.82,607.61" style="stroke-width: 1.07;stroke: #333333;stroke-linecap: butt;"/>
<polyline points="232.83,610.35 232.83,607.61" style="stroke-width: 1.07;stroke: #333333;stroke-linecap: butt;"/>
<polyline points="162.85,610.35 162.85,607.61" style="stroke-width: 1.07;stroke: #333333;stroke-linecap: butt;"/>
<polyline points="92.86,610.35 92.86,607.61" style="stroke-width: 1.07;stroke: #333333;stroke-linecap: butt;"/>
<g><text x="372.80" y="618.85" text-anchor="middle" style="font-family: Arial;font-size: 8.80px;fill: #4D4D4D;" textLength="7.83px" lengthAdjust="spacingAndGlyphs">-6</text></g>
<g><text x="302.82" y="618.85" text-anchor="middle" style="font-family: Arial;font-size: 8.80px;fill: #4D4D4D;" textLength="7.83px" lengthAdjust="spacingAndGlyphs">-5</text></g>
<g><text x="232.83" y="618.85" text-anchor="middle" style="font-family: Arial;font-size: 8.80px;fill: #4D4D4D;" textLength="7.83px" lengthAdjust="spacingAndGlyphs">-4</text></g>
<g><text x="162.85" y="618.85" text-anchor="middle" style="font-family: Arial;font-size: 8.80px;fill: #4D4D4D;" textLength="7.83px" lengthAdjust="spacingAndGlyphs">-3</text></g>
<g><text x="92.86" y="618.85" text-anchor="middle" style="font-family: Arial;font-size: 8.80px;fill: #4D4D4D;" textLength="7.83px" lengthAdjust="spacingAndGlyphs">-2</text></g>
<g><text x="206.44" y="633.50" style="font-family: Arial;font-size: 11.00px;" textLength="14.68px" lengthAdjust="spacingAndGlyphs">log</text></g>
<g><text x="221.12" y="633.50" style="font-family: Symbol;font-size: 13.75px;" textLength="4.58px" lengthAdjust="spacingAndGlyphs">(</text></g>
<g><text x="225.70" y="633.50" style="font-family: Symbol;font-size: 11.00px;" textLength="6.03px" lengthAdjust="spacingAndGlyphs">λ</text></g>
<g><text x="231.74" y="633.50" style="font-family: Symbol;font-size: 13.75px;" textLength="4.58px" lengthAdjust="spacingAndGlyphs">)</text></g>
<g><text transform="translate(18.85,473.20) rotate(-90.00)" text-anchor="middle" style="font-family: Arial;font-size: 11.00px;" textLength="97.80px" lengthAdjust="spacingAndGlyphs">Coefficient Estimate</text></g>
</g>
</svg>