<svg xmlns="http://www.w3.org/2000/svg" xmlns:xlink="http://www.w3.org/1999/xlink" class="httpgd" width="1920.00" height="861.00" viewBox="0 0 1536.00 688.80">
<defs>
  <style type='text/css'><![CDATA[
    .httpgd line, .httpgd polyline, .httpgd polygon, .httpgd path, .httpgd rect, .httpgd circle {
      fill: none;
      stroke: #000000;
      stroke-linecap: round;
      stroke-linejoin: round;
      stroke-miterlimit: 10.00;
    }
  ]]></style>
<clipPath id="c0"><rect x="0.00" y="0.00" width="1536.00" height="688.80"/></clipPath>
</defs>
<rect width="100%" height="100%" style="stroke: none;fill: #FFFFFF;"/>
<g clip-path="url(#c0)">
<polyline points="446.12,124.47 446.12,97.71 687.61,97.71" style="stroke-width: 0.64;stroke-linecap: butt;"/>
<polyline points="273.63,210.15 273.63,183.38 446.12,183.38" style="stroke-width: 0.64;stroke-linecap: butt;"/>
<polyline points="116.82,604.26 116.82,269.06 273.63,269.06" style="stroke-width: 0.64;stroke-linecap: butt;"/>
<polyline points="430.44,295.82 430.44,269.06 273.63,269.06" style="stroke-width: 0.64;stroke-linecap: butt;"/>
<polyline points="342.63,381.50 342.63,354.74 430.44,354.74" style="stroke-width: 0.64;stroke-linecap: butt;"/>
<polyline points="267.36,467.18 267.36,440.41 342.63,440.41" style="stroke-width: 0.64;stroke-linecap: butt;"/>
<polyline points="217.18,604.26 217.18,526.09 267.36,526.09" style="stroke-width: 0.64;stroke-linecap: butt;"/>
<polyline points="317.54,604.26 317.54,526.09 267.36,526.09" style="stroke-width: 0.64;stroke-linecap: butt;"/>
<polyline points="417.90,604.26 417.90,440.41 342.63,440.41" style="stroke-width: 0.64;stroke-linecap: butt;"/>
<polyline points="518.26,604.26 518.26,354.74 430.44,354.74" style="stroke-width: 0.64;stroke-linecap: butt;"/>
<polyline points="618.61,604.26 618.61,183.38 446.12,183.38" style="stroke-width: 0.64;stroke-linecap: butt;"/>
<polyline points="929.10,124.47 929.10,97.71 687.61,97.71" style="stroke-width: 0.64;stroke-linecap: butt;"/>
<polyline points="769.15,210.15 769.15,183.38 929.10,183.38" style="stroke-width: 0.64;stroke-linecap: butt;"/>
<polyline points="718.97,604.26 718.97,269.06 769.15,269.06" style="stroke-width: 0.64;stroke-linecap: butt;"/>
<polyline points="819.33,604.26 819.33,269.06 769.15,269.06" style="stroke-width: 0.64;stroke-linecap: butt;"/>
<polyline points="1089.05,210.15 1089.05,183.38 929.10,183.38" style="stroke-width: 0.64;stroke-linecap: butt;"/>
<polyline points="969.87,295.82 969.87,269.06 1089.05,269.06" style="stroke-width: 0.64;stroke-linecap: butt;"/>
<polyline points="919.69,604.26 919.69,354.74 969.87,354.74" style="stroke-width: 0.64;stroke-linecap: butt;"/>
<polyline points="1020.05,604.26 1020.05,354.74 969.87,354.74" style="stroke-width: 0.64;stroke-linecap: butt;"/>
<polyline points="1208.22,295.82 1208.22,269.06 1089.05,269.06" style="stroke-width: 0.64;stroke-linecap: butt;"/>
<polyline points="1120.41,604.26 1120.41,354.74 1208.22,354.74" style="stroke-width: 0.64;stroke-linecap: butt;"/>
<polyline points="1296.03,381.50 1296.03,354.74 1208.22,354.74" style="stroke-width: 0.64;stroke-linecap: butt;"/>
<polyline points="1220.77,604.26 1220.77,440.41 1296.03,440.41" style="stroke-width: 0.64;stroke-linecap: butt;"/>
<polyline points="1371.30,467.18 1371.30,440.41 1296.03,440.41" style="stroke-width: 0.64;stroke-linecap: butt;"/>
<polyline points="1321.12,604.26 1321.12,526.09 1371.30,526.09" style="stroke-width: 0.64;stroke-linecap: butt;"/>
<polyline points="1421.48,604.26 1421.48,526.09 1371.30,526.09" style="stroke-width: 0.64;stroke-linecap: butt;"/>
<polygon points="594.67,104.78 594.67,88.87 780.55,88.87 780.55,104.78 594.67,104.78" style="stroke-width: 0.64;stroke: #FFFFFF;fill: #FFFFFF;" />
<polygon points="363.06,190.46 363.06,174.54 529.19,174.54 529.19,190.46 363.06,190.46" style="stroke-width: 0.64;stroke: #FFFFFF;fill: #FFFFFF;" />
<polygon points="186.87,276.13 186.87,260.22 360.40,260.22 360.40,276.13 186.87,276.13" style="stroke-width: 0.64;stroke: #FFFFFF;fill: #FFFFFF;" />
<polygon points="347.37,361.81 347.37,345.90 513.51,345.90 513.51,361.81 347.37,361.81" style="stroke-width: 0.64;stroke: #FFFFFF;fill: #FFFFFF;" />
<polygon points="259.56,447.49 259.56,431.57 425.70,431.57 425.70,447.49 259.56,447.49" style="stroke-width: 0.64;stroke: #FFFFFF;fill: #FFFFFF;" />
<polygon points="184.29,533.16 184.29,517.25 350.43,517.25 350.43,533.16 184.29,533.16" style="stroke-width: 0.64;stroke: #FFFFFF;fill: #FFFFFF;" />
<polygon points="839.55,190.46 839.55,174.54 1018.65,174.54 1018.65,190.46 839.55,190.46" style="stroke-width: 0.64;stroke: #FFFFFF;fill: #FFFFFF;" />
<polygon points="686.09,276.13 686.09,260.22 852.22,260.22 852.22,276.13 686.09,276.13" style="stroke-width: 0.64;stroke: #FFFFFF;fill: #FFFFFF;" />
<polygon points="1005.67,276.13 1005.67,260.22 1172.42,260.22 1172.42,276.13 1005.67,276.13" style="stroke-width: 0.64;stroke: #FFFFFF;fill: #FFFFFF;" />
<polygon points="876.62,361.81 876.62,345.90 1063.12,345.90 1063.12,361.81 876.62,361.81" style="stroke-width: 0.64;stroke: #FFFFFF;fill: #FFFFFF;" />
<polygon points="1131.03,361.81 1131.03,345.90 1285.42,345.90 1285.42,361.81 1131.03,361.81" style="stroke-width: 0.64;stroke: #FFFFFF;fill: #FFFFFF;" />
<polygon points="1212.66,447.49 1212.66,431.57 1379.41,431.57 1379.41,447.49 1212.66,447.49" style="stroke-width: 0.64;stroke: #FFFFFF;fill: #FFFFFF;" />
<polygon points="1287.93,533.16 1287.93,517.25 1454.68,517.25 1454.68,533.16 1287.93,533.16" style="stroke-width: 0.64;stroke: #FFFFFF;fill: #FFFFFF;" />
<g><text x="687.61" y="100.71" text-anchor="middle" style="font-family: Arial;font-size: 10.19px;font-weight: bold;" textLength="83.55px" lengthAdjust="spacingAndGlyphs">tax114_26 &lt; -0.16</text></g>
<g><text x="446.12" y="186.38" text-anchor="middle" style="font-family: Arial;font-size: 10.19px;font-weight: bold;" textLength="74.49px" lengthAdjust="spacingAndGlyphs">tax105_39 &lt; 1.1</text></g>
<g><text x="273.63" y="272.06" text-anchor="middle" style="font-family: Arial;font-size: 10.19px;font-weight: bold;" textLength="77.88px" lengthAdjust="spacingAndGlyphs">tax13_24 &lt; -0.22</text></g>
<g><text x="430.44" y="357.73" text-anchor="middle" style="font-family: Arial;font-size: 10.19px;font-weight: bold;" textLength="74.49px" lengthAdjust="spacingAndGlyphs">tax53_31 &lt; 0.58</text></g>
<g><text x="342.63" y="443.41" text-anchor="middle" style="font-family: Arial;font-size: 10.19px;font-weight: bold;" textLength="74.49px" lengthAdjust="spacingAndGlyphs">tax78_25 &lt; 0.51</text></g>
<g><text x="267.36" y="529.10" text-anchor="middle" style="font-family: Arial;font-size: 10.19px;font-weight: bold;" textLength="74.49px" lengthAdjust="spacingAndGlyphs">tax62_22 &lt; 0.42</text></g>
<g><text x="929.10" y="186.39" text-anchor="middle" style="font-family: Arial;font-size: 10.19px;font-weight: bold;" textLength="80.44px" lengthAdjust="spacingAndGlyphs">tax36_33 &gt;= 0.94</text></g>
<g><text x="769.15" y="272.07" text-anchor="middle" style="font-family: Arial;font-size: 10.19px;font-weight: bold;" textLength="74.49px" lengthAdjust="spacingAndGlyphs">tax40_15 &lt; 0.36</text></g>
<g><text x="1089.05" y="272.07" text-anchor="middle" style="font-family: Arial;font-size: 10.19px;font-weight: bold;" textLength="74.77px" lengthAdjust="spacingAndGlyphs">tax66_18 &gt;= 1.1</text></g>
<g><text x="969.87" y="357.72" text-anchor="middle" style="font-family: Arial;font-size: 10.19px;font-weight: bold;" textLength="83.83px" lengthAdjust="spacingAndGlyphs">tax121_37 &gt;= -1.1</text></g>
<g><text x="1208.22" y="357.74" text-anchor="middle" style="font-family: Arial;font-size: 10.19px;font-weight: bold;" textLength="69.11px" lengthAdjust="spacingAndGlyphs">tax26_6 &gt;= 1.8</text></g>
<g><text x="1296.03" y="443.40" text-anchor="middle" style="font-family: Arial;font-size: 10.19px;font-weight: bold;" textLength="74.77px" lengthAdjust="spacingAndGlyphs">tax38_34 &gt;= 1.4</text></g>
<g><text x="1371.30" y="529.10" text-anchor="middle" style="font-family: Arial;font-size: 10.19px;font-weight: bold;" textLength="74.77px" lengthAdjust="spacingAndGlyphs">tax85_16 &gt;= 1.5</text></g>
<polygon points="642.54,47.61 643.23,45.33 645.24,43.20 648.44,41.38 652.61,39.98 657.46,39.09 662.67,38.79 712.55,38.79 717.76,39.09 722.61,39.98 726.78,41.38 729.98,43.20 731.99,45.33 732.68,47.61 732.68,77.11 731.99,79.39 729.98,81.52 726.78,83.34 722.61,84.74 717.76,85.62 712.55,85.92 662.67,85.92 657.46,85.62 652.61,84.74 648.44,83.34 645.24,81.52 643.23,79.39 642.54,77.11" style="stroke-width: 0.64;fill: #E5F5E0;" />
<polygon points="398.59,133.29 399.28,131.00 401.29,128.88 404.49,127.05 408.66,125.65 413.51,124.77 418.72,124.47 473.53,124.47 478.74,124.77 483.59,125.65 487.76,127.05 490.96,128.88 492.97,131.00 493.65,133.29 493.65,162.78 492.97,165.07 490.96,167.19 487.76,169.02 483.59,170.42 478.74,171.30 473.53,171.60 418.72,171.60 413.51,171.30 408.66,170.42 404.49,169.02 401.29,167.19 399.28,165.07 398.59,162.78" style="stroke-width: 0.64;fill: #D2E3F3;" />
<polygon points="226.10,218.96 226.79,216.68 228.80,214.55 232.00,212.73 236.16,211.33 241.02,210.45 246.23,210.15 301.03,210.15 306.24,210.45 311.10,211.33 315.27,212.73 318.47,214.55 320.48,216.68 321.16,218.96 321.16,248.46 320.48,250.74 318.47,252.87 315.27,254.69 311.10,256.09 306.24,256.97 301.03,257.28 246.23,257.28 241.02,256.97 236.16,256.09 232.00,254.69 228.80,252.87 226.79,250.74 226.10,248.46" style="stroke-width: 0.64;fill: #B2D2E8;" />
<polygon points="69.29,613.07 69.98,610.79 71.99,608.67 75.19,606.84 79.35,605.44 84.21,604.56 89.42,604.26 144.22,604.26 149.43,604.56 154.29,605.44 158.46,606.84 161.66,608.67 163.67,610.79 164.35,613.07 164.35,642.57 163.67,644.85 161.66,646.98 158.46,648.80 154.29,650.21 149.43,651.09 144.22,651.39 89.42,651.39 84.21,651.09 79.35,650.21 75.19,648.80 71.99,646.98 69.98,644.85 69.29,642.57" style="stroke-width: 0.64;fill: #84BCDB;" />
<polygon points="382.91,304.64 383.60,302.36 385.61,300.23 388.81,298.41 392.97,297.00 397.83,296.12 403.04,295.82 457.84,295.82 463.05,296.12 467.91,297.00 472.08,298.41 475.28,300.23 477.29,302.36 477.97,304.64 477.97,334.14 477.29,336.42 475.28,338.54 472.08,340.37 467.91,341.77 463.05,342.65 457.84,342.95 403.04,342.95 397.83,342.65 392.97,341.77 388.81,340.37 385.61,338.54 383.60,336.42 382.91,334.14" style="stroke-width: 0.64;fill: #DEEBF7;" />
<polygon points="295.10,390.31 295.78,388.03 297.79,385.91 300.99,384.08 305.16,382.68 310.02,381.80 315.23,381.50 370.03,381.50 375.24,381.80 380.10,382.68 384.26,384.08 387.46,385.91 389.47,388.03 390.16,390.31 390.16,419.81 389.47,422.09 387.46,424.22 384.26,426.05 380.10,427.45 375.24,428.33 370.03,428.63 315.23,428.63 310.02,428.33 305.16,427.45 300.99,426.05 297.79,424.22 295.78,422.09 295.10,419.81" style="stroke-width: 0.64;fill: #D2E3F3;" />
<polygon points="219.83,475.99 220.51,473.71 222.52,471.58 225.72,469.76 229.89,468.36 234.75,467.48 239.96,467.18 294.76,467.18 299.97,467.48 304.83,468.36 309.00,469.76 312.19,471.58 314.21,473.71 314.89,475.99 314.89,505.49 314.21,507.77 312.19,509.90 309.00,511.72 304.83,513.12 299.97,514.00 294.76,514.30 239.96,514.30 234.75,514.00 229.89,513.12 225.72,511.72 222.52,509.90 220.51,507.77 219.83,505.49" style="stroke-width: 0.64;fill: #B2D2E8;" />
<polygon points="169.65,613.07 170.33,610.79 172.34,608.67 175.54,606.84 179.71,605.44 184.57,604.56 189.78,604.26 244.58,604.26 249.79,604.56 254.65,605.44 258.82,606.84 262.01,608.67 264.03,610.79 264.71,613.07 264.71,642.57 264.03,644.85 262.01,646.98 258.82,648.80 254.65,650.21 249.79,651.09 244.58,651.39 189.78,651.39 184.57,651.09 179.71,650.21 175.54,648.80 172.34,646.98 170.33,644.85 169.65,642.57" style="stroke-width: 0.64;fill: #6BAED6;" />
<polygon points="272.47,613.07 273.16,610.79 275.17,608.67 278.37,606.84 282.54,605.44 287.39,604.56 292.60,604.26 342.48,604.26 347.69,604.56 352.54,605.44 356.71,606.84 359.91,608.67 361.92,610.79 362.61,613.07 362.61,642.57 361.92,644.85 359.91,646.98 356.71,648.80 352.54,650.21 347.69,651.09 342.48,651.39 292.60,651.39 287.39,651.09 282.54,650.21 278.37,648.80 275.17,646.98 273.16,644.85 272.47,642.57" style="stroke-width: 0.64;fill: #D6EFD0;" />
<polygon points="372.83,613.07 373.52,610.79 375.53,608.67 378.73,606.84 382.89,605.44 387.75,604.56 392.96,604.26 442.83,604.26 448.04,604.56 452.90,605.44 457.07,606.84 460.27,608.67 462.28,610.79 462.96,613.07 462.96,642.57 462.28,644.85 460.27,646.98 457.07,648.80 452.90,650.21 448.04,651.09 442.83,651.39 392.96,651.39 387.75,651.09 382.89,650.21 378.73,648.80 375.53,646.98 373.52,644.85 372.83,642.57" style="stroke-width: 0.64;fill: #E5F5E0;" />
<polygon points="473.19,613.07 473.87,610.79 475.89,608.67 479.08,606.84 483.25,605.44 488.11,604.56 493.32,604.26 543.19,604.26 548.40,604.56 553.26,605.44 557.43,606.84 560.63,608.67 562.64,610.79 563.32,613.07 563.32,642.57 562.64,644.85 560.63,646.98 557.43,648.80 553.26,650.21 548.40,651.09 543.19,651.39 493.32,651.39 488.11,651.09 483.25,650.21 479.08,648.80 475.89,646.98 473.87,644.85 473.19,642.57" style="stroke-width: 0.64;fill: #8ACE88;" />
<polygon points="573.55,613.07 574.23,610.79 576.24,608.67 579.44,606.84 583.61,605.44 588.47,604.56 593.68,604.26 643.55,604.26 648.76,604.56 653.62,605.44 657.79,606.84 660.98,608.67 663.00,610.79 663.68,613.07 663.68,642.57 663.00,644.85 660.98,646.98 657.79,648.80 653.62,650.21 648.76,651.09 643.55,651.39 593.68,651.39 588.47,651.09 583.61,650.21 579.44,648.80 576.24,646.98 574.23,644.85 573.55,642.57" style="stroke-width: 0.64;fill: #B4E1AD;" />
<polygon points="884.03,133.29 884.72,131.00 886.73,128.88 889.93,127.05 894.10,125.65 898.95,124.77 904.16,124.47 954.04,124.47 959.25,124.77 964.10,125.65 968.27,127.05 971.47,128.88 973.48,131.00 974.17,133.29 974.17,162.78 973.48,165.07 971.47,167.19 968.27,169.02 964.10,170.42 959.25,171.30 954.04,171.60 904.16,171.60 898.95,171.30 894.10,170.42 889.93,169.02 886.73,167.19 884.72,165.07 884.03,162.78" style="stroke-width: 0.64;fill: #D6EFD0;" />
<polygon points="721.62,218.96 722.31,216.68 724.32,214.55 727.52,212.73 731.68,211.33 736.54,210.45 741.75,210.15 796.55,210.15 801.76,210.45 806.62,211.33 810.79,212.73 813.99,214.55 816.00,216.68 816.68,218.96 816.68,248.46 816.00,250.74 813.99,252.87 810.79,254.69 806.62,256.09 801.76,256.97 796.55,257.28 741.75,257.28 736.54,256.97 731.68,256.09 727.52,254.69 724.32,252.87 722.31,250.74 721.62,248.46" style="stroke-width: 0.64;fill: #C6DBEF;" />
<polygon points="671.44,613.07 672.13,610.79 674.14,608.67 677.34,606.84 681.51,605.44 686.36,604.56 691.57,604.26 746.38,604.26 751.59,604.56 756.44,605.44 760.61,606.84 763.81,608.67 765.82,610.79 766.50,613.07 766.50,642.57 765.82,644.85 763.81,646.98 760.61,648.80 756.44,650.21 751.59,651.09 746.38,651.39 691.57,651.39 686.36,651.09 681.51,650.21 677.34,648.80 674.14,646.98 672.13,644.85 671.44,642.57" style="stroke-width: 0.64;fill: #84BCDB;" />
<polygon points="774.26,613.07 774.95,610.79 776.96,608.67 780.16,606.84 784.33,605.44 789.18,604.56 794.39,604.26 844.27,604.26 849.48,604.56 854.33,605.44 858.50,606.84 861.70,608.67 863.71,610.79 864.40,613.07 864.40,642.57 863.71,644.85 861.70,646.98 858.50,648.80 854.33,650.21 849.48,651.09 844.27,651.39 794.39,651.39 789.18,651.09 784.33,650.21 780.16,648.80 776.96,646.98 774.95,644.85 774.26,642.57" style="stroke-width: 0.64;fill: #74C476;" />
<polygon points="1043.98,218.96 1044.66,216.68 1046.68,214.55 1049.87,212.73 1054.04,211.33 1058.90,210.45 1064.11,210.15 1113.98,210.15 1119.19,210.45 1124.05,211.33 1128.22,212.73 1131.42,214.55 1133.43,216.68 1134.11,218.96 1134.11,248.46 1133.43,250.74 1131.42,252.87 1128.22,254.69 1124.05,256.09 1119.19,256.97 1113.98,257.28 1064.11,257.28 1058.90,256.97 1054.04,256.09 1049.87,254.69 1046.68,252.87 1044.66,250.74 1043.98,248.46" style="stroke-width: 0.64;fill: #C7E9C0;" />
<polygon points="922.34,304.64 923.02,302.36 925.03,300.23 928.23,298.41 932.40,297.00 937.26,296.12 942.47,295.82 997.27,295.82 1002.48,296.12 1007.34,297.00 1011.51,298.41 1014.70,300.23 1016.72,302.36 1017.40,304.64 1017.40,334.14 1016.72,336.42 1014.70,338.54 1011.51,340.37 1007.34,341.77 1002.48,342.65 997.27,342.95 942.47,342.95 937.26,342.65 932.40,341.77 928.23,340.37 925.03,338.54 923.02,336.42 922.34,334.14" style="stroke-width: 0.64;fill: #C6DBEF;" />
<polygon points="872.16,613.07 872.84,610.79 874.86,608.67 878.05,606.84 882.22,605.44 887.08,604.56 892.29,604.26 947.09,604.26 952.30,604.56 957.16,605.44 961.33,606.84 964.53,608.67 966.54,610.79 967.22,613.07 967.22,642.57 966.54,644.85 964.53,646.98 961.33,648.80 957.16,650.21 952.30,651.09 947.09,651.39 892.29,651.39 887.08,651.09 882.22,650.21 878.05,648.80 874.86,646.98 872.84,644.85 872.16,642.57" style="stroke-width: 0.64;fill: #6BAED6;" />
<polygon points="974.98,613.07 975.67,610.79 977.68,608.67 980.88,606.84 985.05,605.44 989.90,604.56 995.11,604.26 1044.99,604.26 1050.20,604.56 1055.05,605.44 1059.22,606.84 1062.42,608.67 1064.43,610.79 1065.12,613.07 1065.12,642.57 1064.43,644.85 1062.42,646.98 1059.22,648.80 1055.05,650.21 1050.20,651.09 1044.99,651.39 995.11,651.39 989.90,651.09 985.05,650.21 980.88,648.80 977.68,646.98 975.67,644.85 974.98,642.57" style="stroke-width: 0.64;fill: #A1D99B;" />
<polygon points="1163.15,304.64 1163.84,302.36 1165.85,300.23 1169.05,298.41 1173.22,297.00 1178.07,296.12 1183.28,295.82 1233.16,295.82 1238.37,296.12 1243.22,297.00 1247.39,298.41 1250.59,300.23 1252.60,302.36 1253.29,304.64 1253.29,334.14 1252.60,336.42 1250.59,338.54 1247.39,340.37 1243.22,341.77 1238.37,342.65 1233.16,342.95 1183.28,342.95 1178.07,342.65 1173.22,341.77 1169.05,340.37 1165.85,338.54 1163.84,336.42 1163.15,334.14" style="stroke-width: 0.64;fill: #C7E9C0;" />
<polygon points="1072.88,613.07 1073.56,610.79 1075.57,608.67 1078.77,606.84 1082.94,605.44 1087.79,604.56 1093.00,604.26 1147.81,604.26 1153.02,604.56 1157.87,605.44 1162.04,606.84 1165.24,608.67 1167.25,610.79 1167.94,613.07 1167.94,642.57 1167.25,644.85 1165.24,646.98 1162.04,648.80 1157.87,650.21 1153.02,651.09 1147.81,651.39 1093.00,651.39 1087.79,651.09 1082.94,650.21 1078.77,648.80 1075.57,646.98 1073.56,644.85 1072.88,642.57" style="stroke-width: 0.64;fill: #9ECAE1;" />
<polygon points="1250.97,390.31 1251.65,388.03 1253.66,385.91 1256.86,384.08 1261.03,382.68 1265.89,381.80 1271.10,381.50 1320.97,381.50 1326.18,381.80 1331.04,382.68 1335.21,384.08 1338.40,385.91 1340.42,388.03 1341.10,390.31 1341.10,419.81 1340.42,422.09 1338.40,424.22 1335.21,426.05 1331.04,427.45 1326.18,428.33 1320.97,428.63 1271.10,428.63 1265.89,428.33 1261.03,427.45 1256.86,426.05 1253.66,424.22 1251.65,422.09 1250.97,419.81" style="stroke-width: 0.64;fill: #A1D99B;" />
<polygon points="1173.23,613.07 1173.92,610.79 1175.93,608.67 1179.13,606.84 1183.30,605.44 1188.15,604.56 1193.36,604.26 1248.17,604.26 1253.38,604.56 1258.23,605.44 1262.40,606.84 1265.60,608.67 1267.61,610.79 1268.30,613.07 1268.30,642.57 1267.61,644.85 1265.60,646.98 1262.40,648.80 1258.23,650.21 1253.38,651.09 1248.17,651.39 1193.36,651.39 1188.15,651.09 1183.30,650.21 1179.13,648.80 1175.93,646.98 1173.92,644.85 1173.23,642.57" style="stroke-width: 0.64;fill: #9ECAE1;" />
<polygon points="1326.24,475.99 1326.92,473.71 1328.93,471.58 1332.13,469.76 1336.30,468.36 1341.16,467.48 1346.37,467.18 1396.24,467.18 1401.45,467.48 1406.31,468.36 1410.47,469.76 1413.67,471.58 1415.68,473.71 1416.37,475.99 1416.37,505.49 1415.68,507.77 1413.67,509.90 1410.47,511.72 1406.31,513.12 1401.45,514.00 1396.24,514.30 1346.37,514.30 1341.16,514.00 1336.30,513.12 1332.13,511.72 1328.93,509.90 1326.92,507.77 1326.24,505.49" style="stroke-width: 0.64;fill: #8ACE88;" />
<polygon points="1273.59,613.07 1274.28,610.79 1276.29,608.67 1279.49,606.84 1283.66,605.44 1288.51,604.56 1293.72,604.26 1348.53,604.26 1353.74,604.56 1358.59,605.44 1362.76,606.84 1365.96,608.67 1367.97,610.79 1368.66,613.07 1368.66,642.57 1367.97,644.85 1365.96,646.98 1362.76,648.80 1358.59,650.21 1353.74,651.09 1348.53,651.39 1293.72,651.39 1288.51,651.09 1283.66,650.21 1279.49,648.80 1276.29,646.98 1274.28,644.85 1273.59,642.57" style="stroke-width: 0.64;fill: #DEEBF7;" />
<polygon points="1376.42,613.07 1377.10,610.79 1379.11,608.67 1382.31,606.84 1386.48,605.44 1391.34,604.56 1396.55,604.26 1446.42,604.26 1451.63,604.56 1456.49,605.44 1460.65,606.84 1463.85,608.67 1465.86,610.79 1466.55,613.07 1466.55,642.57 1465.86,644.85 1463.85,646.98 1460.65,648.80 1456.49,650.21 1451.63,651.09 1446.42,651.39 1396.55,651.39 1391.34,651.09 1386.48,650.21 1382.31,648.80 1379.11,646.98 1377.10,644.85 1376.42,642.57" style="stroke-width: 0.64;fill: #74C476;" />
<g><text x="687.61" y="53.78" text-anchor="middle" style="font-family: Arial;font-size: 10.19px;" textLength="32.85px" lengthAdjust="spacingAndGlyphs">healthy</text></g>
<g><text x="687.61" y="66.01" text-anchor="middle" style="font-family: Arial;font-size: 10.19px;" textLength="19.83px" lengthAdjust="spacingAndGlyphs">0.52</text></g>
<g><text x="687.61" y="78.24" text-anchor="middle" style="font-family: Arial;font-size: 10.19px;" textLength="26.06px" lengthAdjust="spacingAndGlyphs">100%</text></g>
<g><text x="446.12" y="139.46" text-anchor="middle" style="font-family: Arial;font-size: 10.19px;" textLength="35.11px" lengthAdjust="spacingAndGlyphs">disease</text></g>
<g><text x="446.12" y="151.69" text-anchor="middle" style="font-family: Arial;font-size: 10.19px;" textLength="19.83px" lengthAdjust="spacingAndGlyphs">0.29</text></g>
<g><text x="446.12" y="163.92" text-anchor="middle" style="font-family: Arial;font-size: 10.19px;" textLength="20.39px" lengthAdjust="spacingAndGlyphs">44%</text></g>
<g><text x="273.63" y="225.14" text-anchor="middle" style="font-family: Arial;font-size: 10.19px;" textLength="35.11px" lengthAdjust="spacingAndGlyphs">disease</text></g>
<g><text x="273.63" y="237.36" text-anchor="middle" style="font-family: Arial;font-size: 10.19px;" textLength="19.83px" lengthAdjust="spacingAndGlyphs">0.21</text></g>
<g><text x="273.63" y="249.59" text-anchor="middle" style="font-family: Arial;font-size: 10.19px;" textLength="20.39px" lengthAdjust="spacingAndGlyphs">39%</text></g>
<g><text x="116.82" y="619.25" text-anchor="middle" style="font-family: Arial;font-size: 10.19px;" textLength="35.11px" lengthAdjust="spacingAndGlyphs">disease</text></g>
<g><text x="116.82" y="631.48" text-anchor="middle" style="font-family: Arial;font-size: 10.19px;" textLength="19.83px" lengthAdjust="spacingAndGlyphs">0.07</text></g>
<g><text x="116.82" y="643.71" text-anchor="middle" style="font-family: Arial;font-size: 10.19px;" textLength="20.39px" lengthAdjust="spacingAndGlyphs">24%</text></g>
<g><text x="430.44" y="310.81" text-anchor="middle" style="font-family: Arial;font-size: 10.19px;" textLength="35.11px" lengthAdjust="spacingAndGlyphs">disease</text></g>
<g><text x="430.44" y="323.04" text-anchor="middle" style="font-family: Arial;font-size: 10.19px;" textLength="19.83px" lengthAdjust="spacingAndGlyphs">0.45</text></g>
<g><text x="430.44" y="335.27" text-anchor="middle" style="font-family: Arial;font-size: 10.19px;" textLength="20.39px" lengthAdjust="spacingAndGlyphs">14%</text></g>
<g><text x="342.63" y="396.49" text-anchor="middle" style="font-family: Arial;font-size: 10.19px;" textLength="35.11px" lengthAdjust="spacingAndGlyphs">disease</text></g>
<g><text x="342.63" y="408.72" text-anchor="middle" style="font-family: Arial;font-size: 10.19px;" textLength="19.83px" lengthAdjust="spacingAndGlyphs">0.30</text></g>
<g><text x="342.63" y="420.95" text-anchor="middle" style="font-family: Arial;font-size: 10.19px;" textLength="20.39px" lengthAdjust="spacingAndGlyphs">11%</text></g>
<g><text x="267.36" y="482.17" text-anchor="middle" style="font-family: Arial;font-size: 10.19px;" textLength="35.11px" lengthAdjust="spacingAndGlyphs">disease</text></g>
<g><text x="267.36" y="494.39" text-anchor="middle" style="font-family: Arial;font-size: 10.19px;" textLength="19.83px" lengthAdjust="spacingAndGlyphs">0.14</text></g>
<g><text x="267.36" y="506.62" text-anchor="middle" style="font-family: Arial;font-size: 10.19px;" textLength="14.72px" lengthAdjust="spacingAndGlyphs">7%</text></g>
<g><text x="217.18" y="619.25" text-anchor="middle" style="font-family: Arial;font-size: 10.19px;" textLength="35.11px" lengthAdjust="spacingAndGlyphs">disease</text></g>
<g><text x="217.18" y="631.48" text-anchor="middle" style="font-family: Arial;font-size: 10.19px;" textLength="19.83px" lengthAdjust="spacingAndGlyphs">0.00</text></g>
<g><text x="217.18" y="643.71" text-anchor="middle" style="font-family: Arial;font-size: 10.19px;" textLength="14.72px" lengthAdjust="spacingAndGlyphs">6%</text></g>
<g><text x="317.54" y="619.25" text-anchor="middle" style="font-family: Arial;font-size: 10.19px;" textLength="32.85px" lengthAdjust="spacingAndGlyphs">healthy</text></g>
<g><text x="317.54" y="631.48" text-anchor="middle" style="font-family: Arial;font-size: 10.19px;" textLength="19.83px" lengthAdjust="spacingAndGlyphs">0.71</text></g>
<g><text x="317.54" y="643.71" text-anchor="middle" style="font-family: Arial;font-size: 10.19px;" textLength="14.72px" lengthAdjust="spacingAndGlyphs">1%</text></g>
<g><text x="417.90" y="619.25" text-anchor="middle" style="font-family: Arial;font-size: 10.19px;" textLength="32.85px" lengthAdjust="spacingAndGlyphs">healthy</text></g>
<g><text x="417.90" y="631.48" text-anchor="middle" style="font-family: Arial;font-size: 10.19px;" textLength="19.83px" lengthAdjust="spacingAndGlyphs">0.61</text></g>
<g><text x="417.90" y="643.71" text-anchor="middle" style="font-family: Arial;font-size: 10.19px;" textLength="14.72px" lengthAdjust="spacingAndGlyphs">4%</text></g>
<g><text x="518.26" y="619.25" text-anchor="middle" style="font-family: Arial;font-size: 10.19px;" textLength="32.85px" lengthAdjust="spacingAndGlyphs">healthy</text></g>
<g><text x="518.26" y="631.48" text-anchor="middle" style="font-family: Arial;font-size: 10.19px;" textLength="19.83px" lengthAdjust="spacingAndGlyphs">0.94</text></g>
<g><text x="518.26" y="643.71" text-anchor="middle" style="font-family: Arial;font-size: 10.19px;" textLength="14.72px" lengthAdjust="spacingAndGlyphs">3%</text></g>
<g><text x="618.61" y="619.25" text-anchor="middle" style="font-family: Arial;font-size: 10.19px;" textLength="32.85px" lengthAdjust="spacingAndGlyphs">healthy</text></g>
<g><text x="618.61" y="631.48" text-anchor="middle" style="font-family: Arial;font-size: 10.19px;" textLength="19.83px" lengthAdjust="spacingAndGlyphs">0.86</text></g>
<g><text x="618.61" y="643.71" text-anchor="middle" style="font-family: Arial;font-size: 10.19px;" textLength="14.72px" lengthAdjust="spacingAndGlyphs">6%</text></g>
<g><text x="929.10" y="139.46" text-anchor="middle" style="font-family: Arial;font-size: 10.19px;" textLength="32.85px" lengthAdjust="spacingAndGlyphs">healthy</text></g>
<g><text x="929.10" y="151.69" text-anchor="middle" style="font-family: Arial;font-size: 10.19px;" textLength="19.83px" lengthAdjust="spacingAndGlyphs">0.70</text></g>
<g><text x="929.10" y="163.92" text-anchor="middle" style="font-family: Arial;font-size: 10.19px;" textLength="20.39px" lengthAdjust="spacingAndGlyphs">56%</text></g>
<g><text x="769.15" y="225.14" text-anchor="middle" style="font-family: Arial;font-size: 10.19px;" textLength="35.11px" lengthAdjust="spacingAndGlyphs">disease</text></g>
<g><text x="769.15" y="237.36" text-anchor="middle" style="font-family: Arial;font-size: 10.19px;" textLength="19.83px" lengthAdjust="spacingAndGlyphs">0.23</text></g>
<g><text x="769.15" y="249.59" text-anchor="middle" style="font-family: Arial;font-size: 10.19px;" textLength="14.72px" lengthAdjust="spacingAndGlyphs">9%</text></g>
<g><text x="718.97" y="619.25" text-anchor="middle" style="font-family: Arial;font-size: 10.19px;" textLength="35.11px" lengthAdjust="spacingAndGlyphs">disease</text></g>
<g><text x="718.97" y="631.48" text-anchor="middle" style="font-family: Arial;font-size: 10.19px;" textLength="19.83px" lengthAdjust="spacingAndGlyphs">0.10</text></g>
<g><text x="718.97" y="643.71" text-anchor="middle" style="font-family: Arial;font-size: 10.19px;" textLength="14.72px" lengthAdjust="spacingAndGlyphs">8%</text></g>
<g><text x="819.33" y="619.25" text-anchor="middle" style="font-family: Arial;font-size: 10.19px;" textLength="32.85px" lengthAdjust="spacingAndGlyphs">healthy</text></g>
<g><text x="819.33" y="631.48" text-anchor="middle" style="font-family: Arial;font-size: 10.19px;" textLength="19.83px" lengthAdjust="spacingAndGlyphs">1.00</text></g>
<g><text x="819.33" y="643.71" text-anchor="middle" style="font-family: Arial;font-size: 10.19px;" textLength="14.72px" lengthAdjust="spacingAndGlyphs">1%</text></g>
<g><text x="1089.05" y="225.14" text-anchor="middle" style="font-family: Arial;font-size: 10.19px;" textLength="32.85px" lengthAdjust="spacingAndGlyphs">healthy</text></g>
<g><text x="1089.05" y="237.36" text-anchor="middle" style="font-family: Arial;font-size: 10.19px;" textLength="19.83px" lengthAdjust="spacingAndGlyphs">0.79</text></g>
<g><text x="1089.05" y="249.59" text-anchor="middle" style="font-family: Arial;font-size: 10.19px;" textLength="20.39px" lengthAdjust="spacingAndGlyphs">46%</text></g>
<g><text x="969.87" y="310.81" text-anchor="middle" style="font-family: Arial;font-size: 10.19px;" textLength="35.11px" lengthAdjust="spacingAndGlyphs">disease</text></g>
<g><text x="969.87" y="323.04" text-anchor="middle" style="font-family: Arial;font-size: 10.19px;" textLength="19.83px" lengthAdjust="spacingAndGlyphs">0.28</text></g>
<g><text x="969.87" y="335.27" text-anchor="middle" style="font-family: Arial;font-size: 10.19px;" textLength="14.72px" lengthAdjust="spacingAndGlyphs">5%</text></g>
<g><text x="919.69" y="619.25" text-anchor="middle" style="font-family: Arial;font-size: 10.19px;" textLength="35.11px" lengthAdjust="spacingAndGlyphs">disease</text></g>
<g><text x="919.69" y="631.48" text-anchor="middle" style="font-family: Arial;font-size: 10.19px;" textLength="19.83px" lengthAdjust="spacingAndGlyphs">0.00</text></g>
<g><text x="919.69" y="643.71" text-anchor="middle" style="font-family: Arial;font-size: 10.19px;" textLength="14.72px" lengthAdjust="spacingAndGlyphs">3%</text></g>
<g><text x="1020.05" y="619.25" text-anchor="middle" style="font-family: Arial;font-size: 10.19px;" textLength="32.85px" lengthAdjust="spacingAndGlyphs">healthy</text></g>
<g><text x="1020.05" y="631.48" text-anchor="middle" style="font-family: Arial;font-size: 10.19px;" textLength="19.83px" lengthAdjust="spacingAndGlyphs">0.88</text></g>
<g><text x="1020.05" y="643.71" text-anchor="middle" style="font-family: Arial;font-size: 10.19px;" textLength="14.72px" lengthAdjust="spacingAndGlyphs">2%</text></g>
<g><text x="1208.22" y="310.81" text-anchor="middle" style="font-family: Arial;font-size: 10.19px;" textLength="32.85px" lengthAdjust="spacingAndGlyphs">healthy</text></g>
<g><text x="1208.22" y="323.04" text-anchor="middle" style="font-family: Arial;font-size: 10.19px;" textLength="19.83px" lengthAdjust="spacingAndGlyphs">0.85</text></g>
<g><text x="1208.22" y="335.27" text-anchor="middle" style="font-family: Arial;font-size: 10.19px;" textLength="20.39px" lengthAdjust="spacingAndGlyphs">41%</text></g>
<g><text x="1120.41" y="619.25" text-anchor="middle" style="font-family: Arial;font-size: 10.19px;" textLength="35.11px" lengthAdjust="spacingAndGlyphs">disease</text></g>
<g><text x="1120.41" y="631.48" text-anchor="middle" style="font-family: Arial;font-size: 10.19px;" textLength="19.83px" lengthAdjust="spacingAndGlyphs">0.12</text></g>
<g><text x="1120.41" y="643.71" text-anchor="middle" style="font-family: Arial;font-size: 10.19px;" textLength="14.72px" lengthAdjust="spacingAndGlyphs">2%</text></g>
<g><text x="1296.03" y="396.49" text-anchor="middle" style="font-family: Arial;font-size: 10.19px;" textLength="32.85px" lengthAdjust="spacingAndGlyphs">healthy</text></g>
<g><text x="1296.03" y="408.72" text-anchor="middle" style="font-family: Arial;font-size: 10.19px;" textLength="19.83px" lengthAdjust="spacingAndGlyphs">0.88</text></g>
<g><text x="1296.03" y="420.95" text-anchor="middle" style="font-family: Arial;font-size: 10.19px;" textLength="20.39px" lengthAdjust="spacingAndGlyphs">40%</text></g>
<g><text x="1220.77" y="619.25" text-anchor="middle" style="font-family: Arial;font-size: 10.19px;" textLength="35.11px" lengthAdjust="spacingAndGlyphs">disease</text></g>
<g><text x="1220.77" y="631.48" text-anchor="middle" style="font-family: Arial;font-size: 10.19px;" textLength="19.83px" lengthAdjust="spacingAndGlyphs">0.12</text></g>
<g><text x="1220.77" y="643.71" text-anchor="middle" style="font-family: Arial;font-size: 10.19px;" textLength="14.72px" lengthAdjust="spacingAndGlyphs">2%</text></g>
<g><text x="1371.30" y="482.17" text-anchor="middle" style="font-family: Arial;font-size: 10.19px;" textLength="32.85px" lengthAdjust="spacingAndGlyphs">healthy</text></g>
<g><text x="1371.30" y="494.39" text-anchor="middle" style="font-family: Arial;font-size: 10.19px;" textLength="19.83px" lengthAdjust="spacingAndGlyphs">0.92</text></g>
<g><text x="1371.30" y="506.62" text-anchor="middle" style="font-family: Arial;font-size: 10.19px;" textLength="20.39px" lengthAdjust="spacingAndGlyphs">38%</text></g>
<g><text x="1321.12" y="619.25" text-anchor="middle" style="font-family: Arial;font-size: 10.19px;" textLength="35.11px" lengthAdjust="spacingAndGlyphs">disease</text></g>
<g><text x="1321.12" y="631.48" text-anchor="middle" style="font-family: Arial;font-size: 10.19px;" textLength="19.83px" lengthAdjust="spacingAndGlyphs">0.33</text></g>
<g><text x="1321.12" y="643.71" text-anchor="middle" style="font-family: Arial;font-size: 10.19px;" textLength="14.72px" lengthAdjust="spacingAndGlyphs">2%</text></g>
<g><text x="1421.48" y="619.25" text-anchor="middle" style="font-family: Arial;font-size: 10.19px;" textLength="32.85px" lengthAdjust="spacingAndGlyphs">healthy</text></g>
<g><text x="1421.48" y="631.48" text-anchor="middle" style="font-family: Arial;font-size: 10.19px;" textLength="19.83px" lengthAdjust="spacingAndGlyphs">0.94</text></g>
<g><text x="1421.48" y="643.71" text-anchor="middle" style="font-family: Arial;font-size: 10.19px;" textLength="20.39px" lengthAdjust="spacingAndGlyphs">36%</text></g>
<polygon points="537.20,92.95 537.32,92.54 537.68,92.16 538.26,91.83 539.01,91.58 539.88,91.42 540.82,91.37 580.81,91.37 581.75,91.42 582.62,91.58 583.37,91.83 583.95,92.16 584.31,92.54 584.43,92.95 584.43,102.46 584.31,102.87 583.95,103.25 583.37,103.58 582.62,103.83 581.75,103.99 580.81,104.05 540.82,104.05 539.88,103.99 539.01,103.83 538.26,103.58 537.68,103.25 537.32,102.87 537.20,102.46" style="stroke-width: 0.64;fill: #FFFFFF;" />
<polygon points="789.93,92.95 790.05,92.54 790.41,92.16 790.99,91.83 791.74,91.58 792.61,91.42 793.54,91.37 825.67,91.37 826.61,91.42 827.48,91.58 828.23,91.83 828.81,92.16 829.17,92.54 829.29,92.95 829.29,102.46 829.17,102.87 828.81,103.25 828.23,103.58 827.48,103.83 826.61,103.99 825.67,104.05 793.54,104.05 792.61,103.99 791.74,103.83 790.99,103.58 790.41,103.25 790.05,102.87 789.93,102.46" style="stroke-width: 0.64;fill: #FFFFFF;" />
<g><text x="558.92" y="100.08" text-anchor="middle" style="font-family: Arial;font-size: 8.15px;font-style: italic;" textLength="12.66px" lengthAdjust="spacingAndGlyphs">yes</text></g>
<g><text x="807.64" y="99.82" text-anchor="middle" style="font-family: Arial;font-size: 8.15px;font-style: italic;" textLength="9.06px" lengthAdjust="spacingAndGlyphs">no</text></g>
</g>
</svg>