<?xml version="1.0" encoding="UTF-8" standalone="no"?>
<svg
   width="2374.7144"
   height="1176.1663"
   viewBox="0 0 2374.7144 1176.1663"
   version="1.1"
   xml:space="preserve"
   style="clip-rule:evenodd;fill-rule:evenodd;stroke-linejoin:round;stroke-miterlimit:2"
   id="svg25"
   sodipodi:docname="brokenness-heuristic.svg"
   inkscape:version="1.3.2 (091e20e, 2023-11-25)"
   xmlns:inkscape="http://www.inkscape.org/namespaces/inkscape"
   xmlns:sodipodi="http://sodipodi.sourceforge.net/DTD/sodipodi-0.dtd"
   xmlns="http://www.w3.org/2000/svg"
   xmlns:svg="http://www.w3.org/2000/svg"><defs
   id="defs25" /><sodipodi:namedview
   id="namedview25"
   pagecolor="#ffffff"
   bordercolor="#000000"
   borderopacity="0.25"
   inkscape:showpageshadow="2"
   inkscape:pageopacity="0.0"
   inkscape:pagecheckerboard="0"
   inkscape:deskcolor="#d1d1d1"
   inkscape:zoom="0.095122934"
   inkscape:cx="1229.9873"
   inkscape:cy="557.17373"
   inkscape:window-width="1312"
   inkscape:window-height="449"
   inkscape:window-x="0"
   inkscape:window-y="37"
   inkscape:window-maximized="0"
   inkscape:current-layer="svg25" />
    <g
   transform="translate(-427.61594,-817.956)"
   id="g1">
        <path
   d="m 2448.17,1264.93 c 2.26,0.97 4.59,2.2 6.97,3.75 0.15,0.06 0.31,0.13 0.46,0.19 9.38,4.13 16.67,14.41 18.85,26.23 1.9,10.26 0.19,21.19 -5.95,29.35 -2.63,10.73 -8.69,16.57 -15.68,19.39 -9.47,3.83 -22.71,1.4 -34.65,-6.48 -10.6,-7 -20.12,-17.93 -24.43,-29.06 -3.59,-9.27 -3.76,-18.72 0.22,-27.05 3.88,-8.14 12.04,-15.87 27.37,-20.25 10.99,-3.14 19.98,-1.15 26.84,3.93 z"
   id="path1" />
    </g>
    <g
   transform="translate(-427.61594,-817.956)"
   id="g2">
        <path
   d="m 2498.26,1254.83 c 0.26,-0.14 0.64,-0.35 0.95,-0.56 1.46,-0.97 3.3,-2.5 5.46,-4.46 19.46,-17.65 62.4,-68.35 79.87,-83.93 11.29,-10.07 112.99,-100.75 137.69,-129.56 1.36,-1.59 3.74,-1.77 5.33,-0.41 1.59,1.36 1.77,3.75 0.41,5.33 -24.83,28.96 -127.05,120.16 -138.39,130.28 -17.46,15.57 -60.38,66.26 -79.83,83.9 -3.86,3.5 -6.97,5.76 -8.9,6.56 l -1.45,0.43 -1.21,0.11 -1.22,-0.19 -1.3,-0.61 c -1.73,-1.17 -2.19,-3.52 -1.02,-5.25 0.83,-1.22 2.24,-1.81 3.61,-1.64 z"
   style="fill:#f20d0d"
   id="path2" />
    </g>
    <g
   transform="translate(-427.61594,-817.956)"
   id="g3">
        <path
   d="m 2405.24,1222.27 c 0.85,0.58 1.46,1.51 1.61,2.61 0.27,2.07 -1.18,3.98 -3.25,4.25 l -1.61,-0.06 -1.48,-0.61 -1.21,-1.07 -0.96,-1.61 c -0.86,-2.06 -1.33,-6.57 -1.18,-12.91 0.73,-31.88 13.89,-115.97 15.6,-145.08 0.12,-2.09 1.91,-3.68 4,-3.55 2.08,0.12 3.67,1.91 3.55,3.99 -1.71,29.06 -14.86,112.99 -15.59,144.81 -0.08,3.83 0.34,7.79 0.52,9.23 z"
   style="fill:#f20d0d"
   id="path3" />
    </g>
    <g
   transform="translate(-427.61594,-817.956)"
   id="g4">
        <path
   d="m 2451.79,1388.37 c -1.55,-1.4 -1.67,-3.79 -0.27,-5.34 1.39,-1.55 3.79,-1.68 5.34,-0.28 16.55,14.95 175.99,235.06 179.15,242.43 0.82,1.92 -0.07,4.15 -1.99,4.97 -1.92,0.82 -4.14,-0.07 -4.97,-1.99 -3.13,-7.29 -160.88,-225 -177.26,-239.79 z"
   style="fill:#f20d0d"
   id="path4" />
    </g>
    <g
   transform="translate(-427.61594,-817.956)"
   id="g5">
        <path
   d="m 2366.24,1363.12 c 0.35,-2.06 2.31,-3.44 4.37,-3.09 2.06,0.36 3.44,2.32 3.09,4.37 -0.72,4.17 -2.19,6.5 -6.41,11.34 -8.29,9.47 -28.52,30.74 -79.09,111.65 -1.11,1.77 -3.44,2.31 -5.21,1.2 -1.77,-1.1 -2.31,-3.44 -1.21,-5.21 51.02,-81.62 71.45,-103.07 79.81,-112.62 2.9,-3.32 4.16,-4.78 4.65,-7.64 z"
   id="path5" />
    </g>
    <g
   transform="translate(-427.61594,-817.956)"
   id="g6">
        <path
   d="m 2692.32,1347.66 c 0.32,-0.87 0.96,-1.63 1.85,-2.08 1.87,-0.93 4.15,-0.17 5.08,1.7 l 0.63,2 -0.07,1.7 -0.37,1.09 -0.6,0.95 -1.49,1.27 c -0.88,0.51 -2.2,0.93 -3.99,1.05 -2.64,0.18 -6.77,-0.23 -12.05,-1.16 -27.84,-4.89 -90.32,-24 -128.39,-28.87 -9.29,-1.19 -17.05,-1.55 -22.33,-0.49 -2.27,0.46 -4.03,0.94 -4.69,2.26 -0.94,1.87 -3.22,2.62 -5.08,1.69 -1.87,-0.94 -2.62,-3.22 -1.69,-5.08 1.51,-2.99 4.82,-5.26 9.98,-6.29 5.85,-1.17 14.46,-0.91 24.77,0.41 38.17,4.88 100.83,24.02 128.74,28.92 3.72,0.65 7.69,0.86 9.7,0.93 z"
   id="path6" />
    </g>
    <g
   transform="translate(-427.61594,-817.956)"
   id="g7">
        <path
   d="m 2401.48,1002.65 c -5.55,-11.706 -0.56,-25.719 11.15,-31.273 11.7,-5.554 25.72,-0.559 31.27,11.146 l 0.34,0.721 c 5.56,11.706 0.56,25.716 -11.14,31.276 -11.71,5.55 -25.72,0.56 -31.28,-11.15 z"
   id="path7" />
    </g>
    <g
   transform="translate(-427.61594,-817.956)"
   id="g8">
        <path
   d="m 2790.94,979.126 c 11.11,6.671 14.71,21.104 8.04,32.214 -6.68,11.11 -21.11,14.71 -32.22,8.04 l -1.78,-1.08 c -11.11,-6.67 -14.71,-21.101 -8.04,-32.208 6.67,-11.107 21.11,-14.709 32.21,-8.038 z"
   id="path8" />
    </g>
    <g
   transform="translate(-427.61594,-817.956)"
   id="g9">
        <path
   d="m 2788.02,1347.83 c 9.99,8.26 11.4,23.06 3.15,33.05 -8.25,9.99 -23.06,11.4 -33.05,3.15 l -0.88,-0.72 c -9.99,-8.26 -11.4,-23.07 -3.14,-33.06 8.25,-9.98 23.06,-11.39 33.05,-3.14 z"
   id="path9" />
    </g>
    <g
   transform="translate(-427.61594,-817.956)"
   id="g10">
        <path
   d="m 2686.88,1651.73 c 12.63,2.92 20.51,15.54 17.59,28.16 -2.92,12.62 -15.54,20.5 -28.17,17.58 l -3.59,-0.83 c -12.62,-2.92 -20.5,-15.54 -17.58,-28.16 2.92,-12.62 15.54,-20.5 28.16,-17.58 z"
   id="path10" />
    </g>
    <g
   transform="translate(-427.61594,-817.956)"
   id="g11">
        <path
   d="m 2256.75,1513.89 c 11.86,5.23 17.24,19.1 12.02,30.95 -5.22,11.86 -19.09,17.25 -30.95,12.02 l -2.89,-1.27 c -11.86,-5.22 -17.25,-19.09 -12.02,-30.95 5.22,-11.86 19.08,-17.24 30.94,-12.02 z"
   id="path11" />
    </g>
    <path
   d="m 138.12876,1032.315 c -0.027,-0.8 -0.521,-1.53 -0.548,-2.33 -0.642,-19.17 -1.001,-38.34 -1.457,-57.51 -1.136,-47.78 -2.262,-95.56 -3.319,-143.34 -0.587,-26.52 -4.776,-215.78 -4.904,-331.55 -0.093,-83.59 1.773,-189.312 2.063,-205.772 0.275,-15.565 1.328,-75.277 4.365,-194.549 0.014,-0.547 2.656,-96.759 2.657,-96.764 0.059,-0.228 0.441,-0.272 0.5,-0.5 0.025,0.731 0.524,1.393 0.548,2.125 1.069,31.706 1.884,63.421 2.731,95.135 3.184,119.268 4.312,178.979 4.606,194.544 0.311,16.459 2.309,122.181 2.32,205.771 0.016,115.76 -3.937,305.03 -4.491,331.55 -0.998,47.78 -2.064,95.57 -3.14,143.35 -0.432,19.17 -0.768,38.34 -1.386,57.51 -0.026,0.79 -0.519,1.53 -0.545,2.33 z"
   id="path12" />
    <g
   transform="rotate(90.780937,733.27321,1094.9563)"
   id="g13">
        <path
   d="m 661.527,1718.06 c -0.027,-0.8 -0.521,-1.53 -0.548,-2.33 -0.642,-19.17 -1.001,-38.34 -1.457,-57.51 -1.136,-47.78 -2.262,-95.56 -3.319,-143.34 -0.587,-26.52 -4.776,-215.78 -4.904,-331.55 -0.093,-83.59 1.773,-189.312 2.063,-205.772 0.275,-15.565 1.328,-75.277 4.365,-194.549 0.014,-0.547 2.656,-96.759 2.657,-96.764 0.059,-0.228 0.441,-0.272 0.5,-0.5 0.025,0.731 0.524,1.393 0.548,2.125 1.069,31.706 1.884,63.421 2.731,95.135 3.184,119.268 4.312,178.979 4.606,194.544 0.311,16.459 2.309,122.181 2.32,205.771 0.016,115.76 -3.937,305.03 -4.491,331.55 -0.998,47.78 -2.064,95.57 -3.14,143.35 -0.432,19.17 -0.768,38.34 -1.386,57.51 -0.026,0.79 -0.519,1.53 -0.545,2.33 z"
   id="path13" />
    </g>
    <path
   d="m 166.23676,721.385 c 0.266,4.15 -1.321,8.38 -4.679,11.35 -5.767,5.09 -14.585,4.55 -19.68,-1.22 l -1.816,-2.55 -1.444,-3.53 -0.507,-6.08 c 0.367,-4.27 3.74,-13.94 12.17,-27.15 33.392,-52.31 151.981,-182 414.521,-269.52 79.92,-26.63 136.09,-23.57 191.69,-21.41 79.12,3.08 156.88,3.67 307.47004,-96.723 6.4,-4.269 15.07,-2.536 19.33,3.866 4.27,6.407 2.54,15.067 -3.86,19.337 -158.62004,105.75 -240.69004,104.63 -324.03004,101.38 -52.71,-2.05 -106.01,-5.25 -181.78,20.01 -252.692,84.23 -367.698,207.72 -399.838,258.06 -3.574,5.61 -6.489,11.83 -7.547,14.18 z"
   style="fill:#bcbcbc"
   id="path14" />
    <path
   d="m 151.07276,885.775 c -6.883,3.45 -15.264,0.65 -18.706,-6.23 -3.441,-6.88 -0.647,-15.26 6.235,-18.71 105.021,-52.51 246.355,-73.45 381.88,-97.28 131.59,-23.15 257.7,-48.71 336.83,-112.02 245.30004,-196.24 257.74004,-177.16 298.25004,-217.67 5.44,-5.44 14.28,-5.44 19.72,0 5.44,5.44 5.44,14.28 0,19.72 -40.84,40.84 -53.21,21.85 -300.56004,219.72 -82.19,65.76 -212.72,93.66 -349.41,117.71 -132.765,23.35 -271.358,43.32 -374.239,94.76 z"
   style="fill:#bcbcbc"
   id="path15" />
    <path
   d="m 220.01376,750.795 c -4.869,5.96 -13.66,6.85 -19.618,1.98 -5.958,-4.87 -6.842,-13.66 -1.973,-19.62 28.424,-34.78 316.419,-236.88 344.569,-256.59 6.31,-4.41 15.01,-2.88 19.42,3.43 4.41,6.3 2.88,15 -3.43,19.41 -27.66,19.36 -311.047,217.23 -338.968,251.39 z"
   style="fill:#bcbcbc"
   id="path16" />
    <path
   d="m 299.17076,775.905 c -5.94,4.89 -14.733,4.04 -19.625,-1.9 -4.891,-5.94 -4.04,-14.73 1.9,-19.62 133.251,-109.73 362.586,-239.16 395.476,-257.72 6.7,-3.78 15.21,-1.4 18.99,5.3 3.78,6.7 1.41,15.21 -5.29,18.99 -32.55,18.36 -259.577,146.36 -391.451,254.95 z"
   style="fill:#bcbcbc"
   id="path17" />
    <path
   d="m 488.91176,757.025 c -6.6,3.96 -15.172,1.8 -19.124,-4.8 -3.952,-6.6 -1.8,-15.17 4.802,-19.12 133.592,-79.96 214.372,-147.87 407.762,-262.32 6.62,-3.92 15.18,-1.73 19.1,4.89 3.91,6.62 1.72,15.18 -4.9,19.1 -193.33,114.42 -274.09,182.32 -407.64,262.25 z"
   style="fill:#bcbcbc"
   id="path18" />
    <path
   d="m 993.90176,516.255 c -5.31,5.56 -14.15,5.76 -19.71,0.45 -5.56,-5.32 -5.76,-14.15 -0.45,-19.72 50.45004,-52.79 53.53004,-46.71 113.13004,-90.53 6.2,-4.56 14.93,-3.22 19.49,2.98 4.56,6.2 3.23,14.93 -2.97,19.49 -57.61,42.35 -60.72,36.3 -109.49004,87.33 z"
   style="fill:#bcbcbc"
   id="path19" />
    <path
   d="m 428.06176,640.155 1.36,-0.57 c 15.479,-3.87 31.189,5.55 35.059,21.03 3.87,15.48 -5.556,31.19 -21.036,35.06 3.239,-0.81 4.471,-1.73 5.476,-2.36 l -10.713,4.31 -13.726,-0.01 c -15.762,-2.48 -26.544,-17.29 -24.063,-33.05 2.194,-13.94 14.032,-23.99 27.643,-24.41 z m -0.933,0.4 c -1.599,0.37 -2.615,0.94 -3.443,1.22 -2.032,0.68 -3.728,1.45 -5.54,2.59 z"
   id="path20" />
    <path
   d="m 491.25176,585.385 c -5.5,-14.98 2.2,-31.6 17.17,-37.1 14.98,-5.5 31.61,2.19 37.11,17.17 l 1.35,3.69 c 5.5,14.98 -2.19,31.6 -17.17,37.1 -14.98,5.5 -31.6,-2.19 -37.1,-17.17 z"
   id="path21" />
    <path
   d="m 393.82976,870.965 c -7.111,-14.29 -1.287,-31.66 12.997,-38.77 14.283,-7.11 31.653,-1.29 38.764,13 l 1.102,2.21 c 7.111,14.29 1.287,31.66 -12.997,38.77 -14.284,7.11 -31.654,1.28 -38.764,-13 z"
   style="fill:#f20d0d"
   id="path22" />
    <path
   d="m 674.55176,342.895 c 4.85,13.57 -1.09,28.96 -14.3,35.56 -14.19,7.1 -31.44,1.42 -38.66,-12.67 l -2.09,-3.02 -3.01,-10.51 0.5,-9.03 2.92,-8.37 c 6.89,-14.39 24.17,-20.48 38.57,-13.59 8.92,4.27 14.65,12.54 16.07,21.63 z m -52.96,22.9 c 1.05,2.02 2.05,3.2 2.82,4.07 z m 51.98,-9.78 c -0.41,1.29 -0.91,2.56 -1.51,3.81 0.66,-1.38 1.15,-2.64 1.51,-3.81 z m -2.09,-18.82 c -0.98,-2.01 -2.32,-3.99 -4.13,-6.04 z"
   style="fill:#f20d0d"
   id="path23" />
    <path
   d="m 691.30176,377.795 c -0.04,-15.96 12.88,-28.95 28.84,-28.99 15.95,-0.05 28.94,12.87 28.99,28.83 v 0.92 c 0.04,15.96 -12.88,28.95 -28.83,28.99 -15.96,0.05 -28.95,-12.87 -28.99,-28.83 z"
   style="fill:#f20d0d"
   id="path24" />
    <g
   transform="matrix(1.08319,0,0,1.08319,-850.36624,-935.843)"
   id="g24">
        <text
   x="1029.35"
   y="1928.76"
   style="font-size:100px;font-family:ArialMT, Arial, sans-serif"
   id="text24">Original Distance</text>
    </g>
    <g
   transform="matrix(0.00795246,-1.08317,1.08317,0.00795246,-2019.8882,2100.085)"
   id="g25">
        <text
   x="1029.35"
   y="1928.76"
   style="font-size:100px;font-family:ArialMT, Arial, sans-serif"
   id="text25">Embedding Distance</text>
    </g>
</svg>
