<?xml version="1.0" encoding="utf-8" standalone="no"?>
<!DOCTYPE svg PUBLIC "-//W3C//DTD SVG 1.1//EN"
  "http://www.w3.org/Graphics/SVG/1.1/DTD/svg11.dtd">
<svg xmlns:xlink="http://www.w3.org/1999/xlink" width="167.04pt" height="144.72pt" viewBox="0 0 167.04 144.72" xmlns="http://www.w3.org/2000/svg" version="1.1">
 <metadata>
  <rdf:RDF xmlns:dc="http://purl.org/dc/elements/1.1/" xmlns:cc="http://creativecommons.org/ns#" xmlns:rdf="http://www.w3.org/1999/02/22-rdf-syntax-ns#">
   <cc:Work>
    <dc:type rdf:resource="http://purl.org/dc/dcmitype/StillImage"/>
    <dc:date>2023-01-19T13:38:46.387938</dc:date>
    <dc:format>image/svg+xml</dc:format>
    <dc:creator>
     <cc:Agent>
      <dc:title>Matplotlib v3.6.3, https://matplotlib.org/</dc:title>
     </cc:Agent>
    </dc:creator>
   </cc:Work>
  </rdf:RDF>
 </metadata>
 <defs>
  <style type="text/css">*{stroke-linejoin: round; stroke-linecap: butt}</style>
 </defs>
 <g id="figure_1">
  <g id="patch_1">
   <path d="M 0 144.72 
L 167.04 144.72 
L 167.04 0 
L 0 0 
z
" style="fill: #ffffff"/>
  </g>
  <g id="axes_1">
   <g id="patch_2">
    <path d="M 69.386667 117.688696 
L 62.32 119.105217 
L 62.32 117.688696 
L 41.12 117.688696 
L 41.12 117.688696 
L 62.32 117.688696 
L 62.32 116.272174 
z
" clip-path="url(#p74c47c3c07)" style="stroke: #000000; stroke-linejoin: miter"/>
   </g>
   <g id="patch_3">
    <path d="M 72.483721 81.208941 
L 67.848484 86.739529 
L 66.965581 85.633412 
L 38.022946 108.839755 
L 38.022946 108.839755 
L 66.965581 85.633412 
L 66.082679 84.527294 
z
" clip-path="url(#p74c47c3c07)" style="stroke: #000000; stroke-linejoin: miter"/>
   </g>
   <g id="patch_4">
    <path d="M 72.483721 108.839755 
L 66.082679 105.521402 
L 66.965581 104.415284 
L 38.022946 81.208941 
L 38.022946 81.208941 
L 66.965581 104.415284 
L 67.848484 103.309166 
z
" clip-path="url(#p74c47c3c07)" style="stroke: #000000; stroke-linejoin: miter"/>
   </g>
   <g id="patch_5">
    <path d="M 69.386667 72.36 
L 62.32 73.776522 
L 62.32 72.36 
L 41.12 72.36 
L 41.12 72.36 
L 62.32 72.36 
L 62.32 70.943478 
z
" clip-path="url(#p74c47c3c07)" style="stroke: #000000; stroke-linejoin: miter"/>
   </g>
   <g id="patch_6">
    <path d="M 72.483721 35.880245 
L 67.848484 41.410834 
L 66.965581 40.304716 
L 38.022946 63.511059 
L 38.022946 63.511059 
L 66.965581 40.304716 
L 66.082679 39.198598 
z
" clip-path="url(#p74c47c3c07)" style="stroke: #000000; stroke-linejoin: miter"/>
   </g>
   <g id="patch_7">
    <path d="M 76.029348 39.043385 
L 73.482527 45.80018 
L 72.284022 45.049425 
L 34.477318 105.676615 
L 34.477318 105.676615 
L 72.284022 45.049425 
L 71.085518 44.29867 
z
" clip-path="url(#p74c47c3c07)" style="stroke: #000000; stroke-linejoin: miter"/>
   </g>
   <g id="patch_8">
    <path d="M 132.562682 105.676615 
L 127.618852 100.42133 
L 128.817356 99.670575 
L 91.010652 39.043385 
L 91.010652 39.043385 
L 128.817356 99.670575 
L 130.01586 98.91982 
z
" clip-path="url(#p74c47c3c07)" style="stroke: #000000; stroke-linejoin: miter"/>
   </g>
   <g id="patch_9">
    <path d="M 125.92 117.688696 
L 118.853333 119.105217 
L 118.853333 117.688696 
L 97.653333 117.688696 
L 97.653333 117.688696 
L 118.853333 117.688696 
L 118.853333 116.272174 
z
" clip-path="url(#p74c47c3c07)" style="stroke: #000000; stroke-linejoin: miter"/>
   </g>
   <g id="patch_10">
    <path d="M 129.017054 108.839755 
L 122.616012 105.521402 
L 123.498915 104.415284 
L 94.556279 81.208941 
L 94.556279 81.208941 
L 123.498915 104.415284 
L 124.381817 103.309166 
z
" clip-path="url(#p74c47c3c07)" style="stroke: #000000; stroke-linejoin: miter"/>
   </g>
   <g id="patch_11">
    <path d="M 26.986667 131.853913 
C 30.73487 131.853913 34.330062 130.361376 36.980443 127.705017 
C 39.630823 125.048657 41.12 121.445355 41.12 117.688696 
C 41.12 113.932036 39.630823 110.328734 36.980443 107.672374 
C 34.330062 105.016015 30.73487 103.523478 26.986667 103.523478 
C 23.238463 103.523478 19.643271 105.016015 16.992891 107.672374 
C 14.34251 110.328734 12.853333 113.932036 12.853333 117.688696 
C 12.853333 121.445355 14.34251 125.048657 16.992891 127.705017 
C 19.643271 130.361376 23.238463 131.853913 26.986667 131.853913 
L 26.986667 131.853913 
z
" clip-path="url(#p74c47c3c07)" style="fill: none; stroke: #000000; stroke-linejoin: miter"/>
   </g>
   <g id="patch_12">
    <path d="M 26.986667 86.525217 
C 30.73487 86.525217 34.330062 85.032681 36.980443 82.376321 
C 39.630823 79.719962 41.12 76.11666 41.12 72.36 
C 41.12 68.60334 39.630823 65.000038 36.980443 62.343679 
C 34.330062 59.687319 30.73487 58.194783 26.986667 58.194783 
C 23.238463 58.194783 19.643271 59.687319 16.992891 62.343679 
C 14.34251 65.000038 12.853333 68.60334 12.853333 72.36 
C 12.853333 76.11666 14.34251 79.719962 16.992891 82.376321 
C 19.643271 85.032681 23.238463 86.525217 26.986667 86.525217 
L 26.986667 86.525217 
z
" clip-path="url(#p74c47c3c07)" style="fill: none; stroke: #000000; stroke-linejoin: miter"/>
   </g>
   <g id="patch_13">
    <path d="M 83.52 41.196522 
C 87.268204 41.196522 90.863396 39.703985 93.513776 37.047626 
C 96.164156 34.391266 97.653333 30.787964 97.653333 27.031304 
C 97.653333 23.274645 96.164156 19.671343 93.513776 17.014983 
C 90.863396 14.358624 87.268204 12.866087 83.52 12.866087 
C 79.771796 12.866087 76.176604 14.358624 73.526224 17.014983 
C 70.875844 19.671343 69.386667 23.274645 69.386667 27.031304 
C 69.386667 30.787964 70.875844 34.391266 73.526224 37.047626 
C 76.176604 39.703985 79.771796 41.196522 83.52 41.196522 
L 83.52 41.196522 
z
" clip-path="url(#p74c47c3c07)" style="fill: none; stroke: #000000; stroke-linejoin: miter"/>
   </g>
   <g id="patch_14">
    <path d="M 83.52 131.853913 
C 87.268204 131.853913 90.863396 130.361376 93.513776 127.705017 
C 96.164156 125.048657 97.653333 121.445355 97.653333 117.688696 
C 97.653333 113.932036 96.164156 110.328734 93.513776 107.672374 
C 90.863396 105.016015 87.268204 103.523478 83.52 103.523478 
C 79.771796 103.523478 76.176604 105.016015 73.526224 107.672374 
C 70.875844 110.328734 69.386667 113.932036 69.386667 117.688696 
C 69.386667 121.445355 70.875844 125.048657 73.526224 127.705017 
C 76.176604 130.361376 79.771796 131.853913 83.52 131.853913 
L 83.52 131.853913 
z
" clip-path="url(#p74c47c3c07)" style="fill: none; stroke: #000000; stroke-linejoin: miter"/>
   </g>
   <g id="patch_15">
    <path d="M 83.52 86.525217 
C 87.268204 86.525217 90.863396 85.032681 93.513776 82.376321 
C 96.164156 79.719962 97.653333 76.11666 97.653333 72.36 
C 97.653333 68.60334 96.164156 65.000038 93.513776 62.343679 
C 90.863396 59.687319 87.268204 58.194783 83.52 58.194783 
C 79.771796 58.194783 76.176604 59.687319 73.526224 62.343679 
C 70.875844 65.000038 69.386667 68.60334 69.386667 72.36 
C 69.386667 76.11666 70.875844 79.719962 73.526224 82.376321 
C 76.176604 85.032681 79.771796 86.525217 83.52 86.525217 
L 83.52 86.525217 
z
" clip-path="url(#p74c47c3c07)" style="fill: none; stroke: #000000; stroke-linejoin: miter"/>
   </g>
   <g id="patch_16">
    <path d="M 140.053333 131.853913 
C 143.801537 131.853913 147.396729 130.361376 150.047109 127.705017 
C 152.69749 125.048657 154.186667 121.445355 154.186667 117.688696 
C 154.186667 113.932036 152.69749 110.328734 150.047109 107.672374 
C 147.396729 105.016015 143.801537 103.523478 140.053333 103.523478 
C 136.30513 103.523478 132.709938 105.016015 130.059557 107.672374 
C 127.409177 110.328734 125.92 113.932036 125.92 117.688696 
C 125.92 121.445355 127.409177 125.048657 130.059557 127.705017 
C 132.709938 130.361376 136.30513 131.853913 140.053333 131.853913 
L 140.053333 131.853913 
z
" clip-path="url(#p74c47c3c07)" style="fill: none; stroke: #000000; stroke-linejoin: miter"/>
   </g>
   <g id="matplotlib.axis_1"/>
   <g id="matplotlib.axis_2"/>
   <g id="text_1">
    <!-- $x_{i}$ -->
    <g transform="translate(22.886667 120.448071) scale(0.1 -0.1)">
     <defs>
      <path id="DejaVuSans-Oblique-78" d="M 3841 3500 
L 2234 1784 
L 3219 0 
L 2559 0 
L 1819 1388 
L 531 0 
L -166 0 
L 1556 1844 
L 641 3500 
L 1300 3500 
L 1972 2234 
L 3144 3500 
L 3841 3500 
z
" transform="scale(0.015625)"/>
      <path id="DejaVuSans-Oblique-69" d="M 1172 4863 
L 1747 4863 
L 1606 4134 
L 1031 4134 
L 1172 4863 
z
M 909 3500 
L 1484 3500 
L 800 0 
L 225 0 
L 909 3500 
z
" transform="scale(0.015625)"/>
     </defs>
     <use xlink:href="#DejaVuSans-Oblique-78" transform="translate(0 0.3125)"/>
     <use xlink:href="#DejaVuSans-Oblique-69" transform="translate(59.179688 -16.09375) scale(0.7)"/>
    </g>
   </g>
   <g id="text_2">
    <!-- $\epsilon_{i}$ -->
    <g transform="translate(23.136667 75.119375) scale(0.1 -0.1)">
     <defs>
      <path id="DejaVuSans-Oblique-3b5" d="M 1263 1888 
Q 925 1963 778 2166 
Q 669 2309 669 2503 
Q 669 3034 1175 3344 
Q 1575 3588 2188 3588 
Q 2425 3588 2684 3550 
Q 2944 3513 3234 3438 
L 3134 2916 
Q 2847 3006 2606 3047 
Q 2359 3088 2138 3088 
Q 1766 3088 1522 2944 
Q 1228 2772 1228 2522 
Q 1228 2356 1381 2241 
Q 1563 2103 1925 2103 
L 2409 2103 
L 2319 1628 
L 1856 1628 
Q 1425 1628 1172 1469 
Q 828 1253 828 916 
Q 828 703 1013 563 
Q 1244 388 1716 388 
Q 2006 388 2284 444 
Q 2563 503 2806 619 
L 2700 84 
Q 2403 -3 2131 -47 
Q 1859 -91 1609 -91 
Q 866 -91 516 194 
Q 250 413 250 781 
Q 250 1278 600 1584 
Q 859 1813 1263 1888 
z
" transform="scale(0.015625)"/>
     </defs>
     <use xlink:href="#DejaVuSans-Oblique-3b5" transform="translate(0 0.9375)"/>
     <use xlink:href="#DejaVuSans-Oblique-69" transform="translate(54.052734 -15.46875) scale(0.7)"/>
    </g>
   </g>
   <g id="text_3">
    <!-- $t_{i}$ -->
    <g transform="translate(80.42 29.790679) scale(0.1 -0.1)">
     <defs>
      <path id="DejaVuSans-Oblique-74" d="M 2706 3500 
L 2619 3053 
L 1472 3053 
L 1100 1153 
Q 1081 1047 1072 975 
Q 1063 903 1063 863 
Q 1063 663 1183 572 
Q 1303 481 1569 481 
L 2150 481 
L 2053 0 
L 1503 0 
Q 991 0 739 200 
Q 488 400 488 806 
Q 488 878 497 964 
Q 506 1050 525 1153 
L 897 3053 
L 409 3053 
L 500 3500 
L 978 3500 
L 1172 4494 
L 1747 4494 
L 1556 3500 
L 2706 3500 
z
" transform="scale(0.015625)"/>
     </defs>
     <use xlink:href="#DejaVuSans-Oblique-74" transform="translate(0 0.78125)"/>
     <use xlink:href="#DejaVuSans-Oblique-69" transform="translate(39.208984 -15.625) scale(0.7)"/>
    </g>
   </g>
   <g id="text_4">
    <!-- $y_{i}^0$ -->
    <g transform="translate(77.97 120.888696) scale(0.1 -0.1)">
     <defs>
      <path id="DejaVuSans-Oblique-79" d="M 1588 -325 
Q 1188 -997 936 -1164 
Q 684 -1331 294 -1331 
L -159 -1331 
L -63 -850 
L 269 -850 
Q 509 -850 678 -719 
Q 847 -588 1056 -206 
L 1234 128 
L 459 3500 
L 1069 3500 
L 1650 819 
L 3256 3500 
L 3859 3500 
L 1588 -325 
z
" transform="scale(0.015625)"/>
      <path id="DejaVuSans-30" d="M 2034 4250 
Q 1547 4250 1301 3770 
Q 1056 3291 1056 2328 
Q 1056 1369 1301 889 
Q 1547 409 2034 409 
Q 2525 409 2770 889 
Q 3016 1369 3016 2328 
Q 3016 3291 2770 3770 
Q 2525 4250 2034 4250 
z
M 2034 4750 
Q 2819 4750 3233 4129 
Q 3647 3509 3647 2328 
Q 3647 1150 3233 529 
Q 2819 -91 2034 -91 
Q 1250 -91 836 529 
Q 422 1150 422 2328 
Q 422 3509 836 4129 
Q 1250 4750 2034 4750 
z
" transform="scale(0.015625)"/>
     </defs>
     <use xlink:href="#DejaVuSans-Oblique-79" transform="translate(0 0.70625)"/>
     <use xlink:href="#DejaVuSans-30" transform="translate(63.645833 40.046875) scale(0.7)"/>
     <use xlink:href="#DejaVuSans-Oblique-69" transform="translate(59.179688 -26.6375) scale(0.7)"/>
    </g>
   </g>
   <g id="text_5">
    <!-- $y_{i}^1$ -->
    <g transform="translate(77.97 75.46) scale(0.1 -0.1)">
     <defs>
      <path id="DejaVuSans-31" d="M 794 531 
L 1825 531 
L 1825 4091 
L 703 3866 
L 703 4441 
L 1819 4666 
L 2450 4666 
L 2450 531 
L 3481 531 
L 3481 0 
L 794 0 
L 794 531 
z
" transform="scale(0.015625)"/>
     </defs>
     <use xlink:href="#DejaVuSans-Oblique-79" transform="translate(0 0.620313)"/>
     <use xlink:href="#DejaVuSans-31" transform="translate(63.645833 38.965625) scale(0.7)"/>
     <use xlink:href="#DejaVuSans-Oblique-69" transform="translate(59.179688 -26.723437) scale(0.7)"/>
    </g>
   </g>
   <g id="text_6">
    <!-- $y_{i}$ -->
    <g transform="translate(135.953333 120.427758) scale(0.1 -0.1)">
     <use xlink:href="#DejaVuSans-Oblique-79" transform="translate(0 0.3125)"/>
     <use xlink:href="#DejaVuSans-Oblique-69" transform="translate(59.179688 -16.09375) scale(0.7)"/>
    </g>
   </g>
  </g>
 </g>
 <defs>
  <clipPath id="p74c47c3c07">
   <rect x="7.2" y="7.2" width="152.64" height="130.32"/>
  </clipPath>
 </defs>
</svg>
