<?xml version="1.0" encoding="utf-8"?>
<!-- Generator: Adobe Illustrator 25.3.1, SVG Export Plug-In . SVG Version: 6.00 Build 0)  -->
<svg version="1.1" id="Calque_1" xmlns="http://www.w3.org/2000/svg" xmlns:xlink="http://www.w3.org/1999/xlink" x="0px" y="0px"
	 viewBox="0 0 1244.8 593.5" style="enable-background:new 0 0 1244.8 593.5;" xml:space="preserve">
<style type="text/css">
	.st0{fill-rule:evenodd;clip-rule:evenodd;}
</style>
<g>
	<path d="M799.5,456.7c3.6,0,6.8-2.2,8.1-5.5c1.3-3.3,0.5-7.1-2-9.6c-1-1-2-2-3-3v0c-1.6-1.6-3.9-2.6-6.2-2.6
		c-2.3,0-4.6,0.9-6.2,2.6c-1.6,1.6-2.6,3.9-2.6,6.2c0,2.3,0.9,4.6,2.6,6.2c1.1,1.1,2.1,2.1,3.2,3.2v0
		C795,455.8,797.2,456.7,799.5,456.7L799.5,456.7z"/>
	<path d="M867.6,97.4c1.2,0,2.3-0.2,3.4-0.7c1.3-0.5,2.6-1.1,3.9-1.6c4.5-1.8,6.7-6.9,4.9-11.3c-1.8-4.5-6.9-6.7-11.3-4.9
		c-1.4,0.6-2.8,1.1-4.2,1.7c-3.9,1.6-6,5.7-5.2,9.8C859.8,94.4,863.4,97.4,867.6,97.4L867.6,97.4z"/>
	<path d="M949.6,509.6c0.1-2.3-0.7-4.6-2.3-6.3c-1.6-1.7-3.7-2.7-6.1-2.8c-1.4-0.1-2.8-0.1-4.2-0.2v0c-4.8-0.3-9,3.3-9.3,8.1
		c-0.3,4.8,3.3,9,8.1,9.3c1.5,0.1,3,0.2,4.6,0.3c0.1,0,0.3,0,0.4,0C945.6,517.9,949.4,514.2,949.6,509.6L949.6,509.6z"/>
	<path d="M834.9,465.3c-1.2-0.8-2.3-1.6-3.5-2.4c-4-2.8-9.4-1.8-12.2,2.2c-2.8,4-1.8,9.4,2.2,12.2c1.2,0.9,2.5,1.7,3.7,2.6
		c1.9,1.3,4.3,1.8,6.6,1.3c2.3-0.4,4.3-1.8,5.6-3.7c1.3-1.9,1.8-4.3,1.3-6.6C838.2,468.6,836.9,466.6,834.9,465.3L834.9,465.3z"/>
	<path d="M903.9,495.2c-1.4-0.3-2.7-0.6-4.1-1c-4.7-1.2-9.4,1.6-10.6,6.3c-1.2,4.7,1.6,9.4,6.3,10.6c1.5,0.4,3,0.7,4.4,1.1l0,0
		c2.3,0.5,4.6,0.1,6.6-1.1c2-1.2,3.4-3.2,3.9-5.4c0.5-2.3,0.1-4.6-1.1-6.6C908.1,497.2,906.2,495.8,903.9,495.2L903.9,495.2z"/>
	<path d="M731.8,349.7c1,3.8,4.5,6.5,8.4,6.5c0.8,0,1.5-0.1,2.3-0.3c2.2-0.6,4.2-2.1,5.3-4.1c1.2-2,1.5-4.4,0.9-6.6
		c-0.4-1.4-0.7-2.7-1-4.1c-0.6-2.3-2-4.2-4-5.4s-4.4-1.6-6.6-1c-2.3,0.6-4.2,2-5.4,4c-1.2,2-1.6,4.4-1,6.6
		C731,346.8,731.4,348.2,731.8,349.7L731.8,349.7z"/>
	<path d="M944.1,80.8c0.1,0,0.2,0,0.3,0c1.4,0,2.8-0.1,4.2-0.1h0c4.8-0.1,8.7-4,8.6-8.8c0-4.8-3.9-8.7-8.7-8.7h-0.1
		c-1.5,0-3,0.1-4.5,0.1h0c-4.8,0.2-8.5,4.1-8.5,8.9C935.4,76.9,939.3,80.8,944.1,80.8z"/>
	<path d="M905,85.6c0.6,0,1.2-0.1,1.9-0.2c1.4-0.3,2.7-0.6,4.1-0.8v0c4.7-0.9,7.8-5.5,6.9-10.3c-0.9-4.7-5.5-7.8-10.2-6.9
		c-1.5,0.3-3,0.6-4.5,0.9h0c-4.4,0.9-7.3,5-6.9,9.5C896.8,82.2,900.6,85.6,905,85.6L905,85.6z"/>
	<path d="M864.6,500.2c4.1,0,7.7-2.9,8.6-7c0.8-4.1-1.3-8.2-5.1-9.8c-1.3-0.6-2.6-1.1-3.8-1.7c-2.1-1-4.5-1.1-6.7-0.3
		c-2.2,0.8-4,2.4-4.9,4.6c-1,2.1-1.1,4.5-0.3,6.7s2.5,3.9,4.6,4.9c1.4,0.6,2.8,1.3,4.2,1.9C862.2,499.9,863.4,500.2,864.6,500.2
		L864.6,500.2z"/>
	<path d="M724.8,309.4c0.4,4.5,4.2,8,8.7,8c0.2,0,0.5,0,0.7,0v0c2.3-0.2,4.5-1.3,6-3.1s2.2-4.1,2-6.4c-0.1-1.4-0.2-2.8-0.3-4.2v0
		c-0.3-4.8-4.5-8.5-9.3-8.2c-4.8,0.3-8.5,4.4-8.2,9.3C724.6,306.4,724.7,307.9,724.8,309.4L724.8,309.4z"/>
	<path d="M733,278.1c0.3,0,0.6,0,0.9,0c4.5,0,8.3-3.4,8.7-7.9c0.1-1.4,0.3-2.8,0.4-4.2c0.3-2.3-0.4-4.6-1.8-6.5
		c-1.4-1.8-3.6-3-5.9-3.3c-2.3-0.3-4.6,0.4-6.5,1.9c-1.8,1.5-3,3.6-3.2,5.9c-0.2,1.5-0.3,3-0.5,4.5h0c-0.2,2.3,0.5,4.6,2,6.4
		C728.5,276.8,730.6,277.9,733,278.1L733,278.1z"/>
	<path d="M750.7,229.1c0.7-2.2,0.5-4.6-0.6-6.7c-1.1-2.1-2.9-3.6-5.2-4.3c-2.2-0.7-4.6-0.4-6.7,0.6c-2.1,1.1-3.6,2.9-4.3,5.2
		c-0.4,1.5-0.9,2.9-1.3,4.4h0c-1.3,4.6,1.4,9.5,6,10.8c4.6,1.3,9.5-1.4,10.8-6C749.9,231.8,750.3,230.5,750.7,229.1L750.7,229.1z"/>
	<path d="M749.4,186.1c-0.7,1.4-1.4,2.7-2.1,4.1c-2.1,4.3-0.3,9.6,4,11.7c4.3,2.1,9.6,0.3,11.7-4c0.6-1.3,1.2-2.5,1.9-3.7h0
		c2.2-4.3,0.6-9.6-3.7-11.8C756.9,180.2,751.7,181.8,749.4,186.1L749.4,186.1z"/>
	<path d="M799.2,121.7c-1.1,1-2.2,2-3.3,3.1v0c-3.5,3.3-3.7,8.8-0.4,12.4c3.3,3.5,8.8,3.7,12.4,0.4c1-1,2.1-1.9,3.1-2.9
		c3.6-3.2,3.9-8.8,0.6-12.4C808.3,118.7,802.8,118.4,799.2,121.7L799.2,121.7z"/>
	<path d="M761.7,380.6c-0.6-1.2-1.2-2.5-1.7-3.8c-2-4.4-7.2-6.4-11.6-4.4c-4.4,2-6.4,7.2-4.4,11.6c0.6,1.4,1.3,2.8,1.9,4.1
		c1,2.1,2.8,3.7,5,4.5c2.2,0.8,4.6,0.7,6.7-0.3s3.7-2.8,4.5-5C762.8,385.1,762.7,382.7,761.7,380.6L761.7,380.6z"/>
	<path d="M778.4,409.6c-2.7-4-8.2-5-12.2-2.2c-4,2.7-5,8.2-2.2,12.2c0.9,1.2,1.7,2.5,2.6,3.7v0c1.4,1.9,3.4,3.2,5.7,3.5
		c2.3,0.4,4.6-0.2,6.5-1.5c1.9-1.4,3.2-3.4,3.5-5.7c0.4-2.3-0.2-4.6-1.5-6.5C780,411.9,779.2,410.8,778.4,409.6L778.4,409.6z"/>
	<path d="M832.8,115.7c1.7,0,3.3-0.5,4.7-1.4c1.2-0.8,2.4-1.5,3.6-2.2c4.1-2.6,5.4-7.9,2.8-12.1c-2.6-4.1-7.9-5.4-12.1-2.8
		c-1.3,0.8-2.6,1.6-3.8,2.4c-3.3,2.1-4.7,6.1-3.6,9.8C825.5,113.1,828.9,115.7,832.8,115.7L832.8,115.7z"/>
	<path d="M770.5,167.5c1.9,1.4,4.2,2,6.5,1.6c2.3-0.3,4.4-1.6,5.7-3.4c0.8-1.1,1.7-2.2,2.5-3.3l0,0c2.9-3.8,2.2-9.3-1.6-12.3
		c-3.8-3-9.3-2.3-12.3,1.6c-0.9,1.2-1.9,2.4-2.8,3.6C765.8,159.2,766.6,164.7,770.5,167.5L770.5,167.5z"/>
	<path d="M1094.4,456.6c-3-3.8-8.5-4.4-12.3-1.4c-1.1,0.9-2.2,1.7-3.3,2.6v0c-3.8,2.9-4.6,8.4-1.6,12.3c2.9,3.8,8.4,4.6,12.3,1.6
		c1.2-0.9,2.4-1.8,3.6-2.8C1096.7,465.9,1097.4,460.4,1094.4,456.6L1094.4,456.6z"/>
	<path d="M1109.4,429.1c-0.9,1.1-1.9,2.1-2.8,3.1c-3.3,3.6-3,9.1,0.6,12.4c3.6,3.3,9.1,3,12.4-0.6c1-1.1,2-2.2,3-3.4h0
		c3.2-3.6,2.8-9.2-0.8-12.3C1118.1,425.1,1112.6,425.5,1109.4,429.1L1109.4,429.1z"/>
	<path d="M1143.7,395.6c-4.1-2.5-9.5-1.1-12,3c-0.7,1.2-1.5,2.4-2.2,3.6c-2.6,4.1-1.3,9.5,2.8,12.1c4.1,2.6,9.5,1.3,12.1-2.8
		c0.8-1.3,1.6-2.6,2.4-3.9C1149.2,403.5,1147.8,398.1,1143.7,395.6L1143.7,395.6z"/>
	<path d="M1112.4,142.2c-1.8,1.5-2.9,3.6-3.1,6c-0.2,2.3,0.6,4.6,2.1,6.4c0.9,1.1,1.8,2.1,2.7,3.2c3.1,3.7,8.6,4.3,12.3,1.2
		c3.7-3.1,4.3-8.6,1.2-12.3c-1-1.2-1.9-2.3-2.9-3.5c-1.5-1.8-3.7-2.9-6-3.1C1116.5,140,1114.2,140.7,1112.4,142.2L1112.4,142.2z"/>
	<path d="M1176,253.2c-0.8-4.8-5.3-8-10.1-7.2c-4.8,0.8-8,5.3-7.2,10.1c0.2,1.4,0.4,2.8,0.6,4.1c0.7,4.8,5.1,8.1,9.9,7.4
		c4.8-0.7,8.1-5.1,7.4-9.9C1176.4,256.2,1176.2,254.7,1176,253.2L1176,253.2z"/>
	<path d="M1165.6,213.6c-1.6-4.5-6.6-6.9-11.2-5.3c-4.5,1.6-6.9,6.6-5.3,11.2c0.5,1.3,0.9,2.7,1.4,4c1.6,4.6,6.5,7,11.1,5.5
		c4.6-1.6,7-6.5,5.5-11.1C1166.6,216.5,1166.2,215,1165.6,213.6L1165.6,213.6z"/>
	<path d="M982,82.9c1.4,0.2,2.8,0.4,4.1,0.6c0.5,0.1,1,0.1,1.4,0.1c4.6,0,8.3-3.5,8.7-8c0.4-4.5-2.8-8.6-7.3-9.3
		c-1.5-0.2-3-0.5-4.5-0.7c-4.8-0.7-9.2,2.6-9.9,7.4C974,77.7,977.3,82.2,982,82.9L982,82.9z"/>
	<path d="M1174.5,335.8c0.3-1.5,0.6-3,0.9-4.5h0c0.9-4.8-2.3-9.3-7-10.2c-4.8-0.9-9.3,2.3-10.2,7c-0.3,1.4-0.5,2.8-0.8,4.1
		c-0.9,4.7,2.1,9.3,6.9,10.3c0.6,0.1,1.1,0.2,1.7,0.2C1170.1,342.9,1173.7,339.9,1174.5,335.8L1174.5,335.8z"/>
	<path d="M1135.3,189c2.3,4.2,7.7,5.8,11.9,3.4c4.2-2.3,5.8-7.7,3.4-11.9c-0.7-1.3-1.5-2.7-2.2-4c-2.4-4.2-7.8-5.6-12-3.2
		s-5.6,7.8-3.2,12C1134,186.6,1134.6,187.8,1135.3,189L1135.3,189z"/>
	<path d="M1179,295.2c0-1.5,0-3,0-4.6c0-4.8-3.9-8.8-8.8-8.8c-4.8,0-8.8,3.9-8.8,8.8c0,1.4,0,2.8,0,4.2v0c-0.1,4.8,3.7,8.8,8.6,8.9
		h0.2C1175,303.8,1178.9,300,1179,295.2L1179,295.2z"/>
	<path d="M1159.4,359.5c-2.2-0.8-4.6-0.7-6.7,0.2c-2.1,1-3.8,2.7-4.6,4.9c-0.5,1.3-1,2.6-1.5,3.9v0c-1.8,4.5,0.4,9.6,4.9,11.4
		c4.5,1.8,9.6-0.4,11.4-4.9c0.6-1.4,1.1-2.8,1.6-4.3c0.8-2.2,0.7-4.6-0.2-6.7C1163.3,362,1161.6,360.4,1159.4,359.5L1159.4,359.5z"
		/>
	<path d="M1050.5,475.9c-1.2,0.7-2.5,1.3-3.7,1.9c-2.1,1.1-3.6,2.9-4.4,5.1c-0.7,2.2-0.5,4.6,0.5,6.7c2.2,4.3,7.5,6,11.8,3.8
		c1.4-0.7,2.7-1.4,4-2.1h0c4.2-2.3,5.8-7.6,3.6-11.8C1060.1,475.2,1054.8,473.6,1050.5,475.9L1050.5,475.9z"/>
	<path d="M1087.7,130.8c3.7,3.1,9.2,2.7,12.3-1c3.1-3.7,2.7-9.2-1-12.3c-1.2-1-2.3-2-3.5-2.9h0c-1.8-1.5-4.1-2.2-6.4-1.9
		c-2.3,0.2-4.4,1.4-5.9,3.2c-3.1,3.7-2.5,9.2,1.2,12.3C1085.6,129,1086.7,129.9,1087.7,130.8L1087.7,130.8z"/>
	<path d="M1053.3,106.9c1.2,0.7,2.5,1.4,3.7,2.1c4.2,2.4,9.5,1,12-3.2c2.4-4.2,1-9.5-3.2-12c-1.3-0.8-2.6-1.5-4-2.2
		c-4.2-2.3-9.6-0.8-11.9,3.4C1047.5,99.2,1049.1,104.6,1053.3,106.9L1053.3,106.9z"/>
	<path d="M1018.7,91.6c1.3,0.4,2.7,0.9,4,1.4v0c4.5,1.6,9.6-0.7,11.2-5.3c1.6-4.5-0.7-9.6-5.3-11.2c-1.4-0.5-2.9-1-4.3-1.5v0
		c-2.2-0.7-4.6-0.6-6.7,0.4c-2.1,1-3.7,2.8-4.4,5c-0.7,2.2-0.6,4.6,0.5,6.7C1014.7,89.3,1016.5,90.9,1018.7,91.6L1018.7,91.6z"/>
	<path d="M979,498.9c-1.4,0.2-2.8,0.4-4.2,0.5c-4.6,0.5-8,4.5-7.8,9.2c0.3,4.6,4.1,8.3,8.7,8.3c0.3,0,0.7,0,1-0.1
		c1.5-0.2,3-0.4,4.5-0.5c4.8-0.6,8.2-5,7.6-9.8C988.2,501.6,983.8,498.3,979,498.9L979,498.9z"/>
	<path d="M1026.8,496.3c-1.5-4.6-6.4-7.1-11-5.7c-1.3,0.4-2.7,0.8-4,1.2c-4.6,1.4-7.3,6.3-5.9,10.9s6.3,7.3,10.9,5.9
		c1.4-0.4,2.9-0.9,4.3-1.3C1025.8,505.8,1028.3,500.9,1026.8,496.3L1026.8,496.3z"/>
	<path d="M942.8,417.1l-0.2-260.7c0-23.3-24.7-40.7-46.7-40.7c-12.4-0.1-24.2,5.6-31.9,15.3c-9.3,0.4-18.2,3.5-25.8,9
		c-7.5,5.4-13.3,13-16.6,21.7c-12.1,1.1-23,7.7-29.5,18c-6.5,10.2-8,22.9-3.9,34.3c-12.2,7.5-20.5,19.9-22.7,34.1
		c-2.2,14.1,1.9,28.5,11.2,39.4c-8.1,7.8-12.9,18.5-13.4,29.8c-0.5,11.3,3.4,22.3,10.8,30.8c-1.3,4.1-2,8.4-2,12.6
		c0,9.5,3.2,18.6,9.1,26.1c5.8,7.5,14,12.8,23.1,15.1c1.7,9.3,6.4,17.8,13.4,24.2c7,6.4,15.8,10.4,25.2,11.4
		c3.9,8.5,10.2,15.6,18,20.6c7.9,5,17,7.6,26.3,7.6C913.6,465.7,942.8,444.9,942.8,417.1L942.8,417.1z M887.4,448.2
		c-5.5,0-11-1.4-15.8-4.2c-4.8-2.8-8.7-6.8-11.4-11.6c13-6.2,21.7-18.7,23-33.1c1.3-14.3-5-28.3-16.7-36.7c-1.9-1.4-4.2-1.9-6.5-1.6
		c-2.3,0.4-4.4,1.6-5.7,3.5c-1.4,1.9-1.9,4.2-1.6,6.5c0.4,2.3,1.6,4.4,3.5,5.7c6.1,4.4,9.7,11.4,9.7,18.9
		c-0.1,6.3-2.7,12.3-7.2,16.7c-4.5,4.4-10.6,6.8-16.9,6.8c-0.4,0-0.8,0.1-1.2,0.1c-5.5-1.5-10.4-4.8-13.9-9.3
		c-3.5-4.5-5.4-10-5.5-15.7c0-4.6-3.6-8.3-8.1-8.7c-6.3-0.4-12.2-3.3-16.6-7.9c-4.3-4.6-6.8-10.7-6.8-17c0-3.8,0.9-7.5,2.6-10.9
		c1.8-3.6,0.9-7.9-2.1-10.5c-5.9-5-9.3-12.4-9.3-20.1c0-7.7,3.3-15.1,9.2-20.2c0.8,0.3,1.7,0.4,2.6,0.4c4.1,0,8.2,1.1,11.7,3.1
		l9.2,9.4h0c2,3.7,3.1,7.8,3.1,12c0,4.8,3.9,8.8,8.8,8.8c4.8,0,8.8-3.9,8.8-8.8c0-7.4-1.9-14.7-5.6-21.1
		c-6.7-11.6-18.5-19.3-31.9-20.6c-0.4-0.4-0.8-0.8-1.2-1.2c-8.2-5.9-13-15.4-13-25.4c0.1-10.3,5.2-19.9,13.7-25.8c2.6-0.7,5.3-1,8-1
		c16,0,28.9,11,28.9,24.5c0,4.8,3.9,8.8,8.8,8.8c4.8,0,8.8-3.9,8.8-8.8c0-22.5-19.7-40.9-44.3-41.9v0c-1.9-3.2-2.8-6.9-2.8-10.6
		c0-5.8,2.4-11.3,6.5-15.4c4.1-4.1,9.7-6.4,15.5-6.4c0.7,0,1.4,0.1,2.1,0.1c4.4,0.4,8.4-2.6,9.3-7c1.2-5.6,3.9-10.7,7.9-14.7
		c4-4,9.1-6.9,14.6-8.1c1.2,0.5,2.5,0.6,3.8,0.5c6.5-0.3,12.9,1.8,17.9,6c3.6,3.3,9.1,3,12.4-0.5c3.3-3.6,3-9.1-0.5-12.4
		c-2.8-2.5-5.9-4.6-9.3-6.2c3.7-2.3,7.9-3.5,12.3-3.5c13.1,0,29.2,10.7,29.2,23.2l0.2,260.7C925.3,434.3,904.6,448.1,887.4,448.2
		L887.4,448.2z"/>
	<path d="M1015.6,465.7c9.3,0,18.4-2.6,26.3-7.6c7.9-5,14.1-12.2,18-20.6c9.4-1,18.2-5,25.2-11.4c7-6.4,11.7-14.9,13.4-24.2
		c9.2-2.3,17.3-7.6,23.1-15.1c5.8-7.5,9-16.6,9.1-26.1c0-4.3-0.7-8.6-2-12.6c7.4-8.5,11.3-19.5,10.8-30.8
		c-0.5-11.3-5.3-21.9-13.4-29.8c9.3-10.8,13.4-25.2,11.2-39.4c-2.2-14.1-10.5-26.6-22.7-34.1c4.1-11.4,2.6-24.1-3.9-34.3
		c-6.5-10.2-17.4-16.9-29.5-18c-3.3-8.7-9-16.2-16.6-21.7c-7.5-5.5-16.5-8.6-25.8-9c-7.7-9.7-19.5-15.4-31.9-15.3
		c-22,0-46.7,17.4-46.7,40.7l-0.2,260.7C960.3,444.9,989.5,465.7,1015.6,465.7L1015.6,465.7z M977.9,156.3
		c0-12.5,16.1-23.2,29.2-23.2h0c4.3,0,8.6,1.2,12.3,3.5c-3.4,1.6-6.5,3.7-9.3,6.2c-1.7,1.6-2.7,3.8-2.8,6.1
		c-0.1,2.3,0.7,4.6,2.3,6.3c3.3,3.6,8.8,3.8,12.4,0.5c5-4.1,11.4-6.3,18-6c1.3,0.1,2.6-0.1,3.8-0.5c5.5,1.3,10.6,4.1,14.6,8.1
		s6.7,9.1,7.9,14.7c0.9,4.3,4.9,7.3,9.3,7c0.7-0.1,1.4-0.1,2.1-0.1h0c5.8,0,11.4,2.3,15.5,6.4c4.1,4.1,6.4,9.6,6.5,15.4
		c0,3.7-1,7.4-2.8,10.6c-24.6,1-44.3,19.4-44.3,41.9v0c0,4.8,3.9,8.8,8.8,8.8c4.8,0,8.8-3.9,8.8-8.8c0-13.5,13-24.5,28.9-24.5
		c2.7,0,5.4,0.4,8,1c8.5,5.9,13.6,15.5,13.7,25.8c0,10.1-4.8,19.6-13,25.4c-0.4,0.3-0.9,0.7-1.2,1.2c-13.3,1.4-25.2,9-31.9,20.6
		c-3.7,6.4-5.6,13.7-5.6,21.1c0,4.8,3.9,8.8,8.8,8.8s8.8-3.9,8.8-8.8c0-4.2,1.1-8.3,3.1-12l9.2-9.4c3.6-2.1,7.6-3.1,11.7-3.1
		c0.9,0,1.7-0.2,2.6-0.4c5.9,5.1,9.2,12.4,9.2,20.2c0,7.7-3.4,15.1-9.3,20.1c-3,2.6-3.9,6.9-2.1,10.5c1.7,3.4,2.6,7.1,2.6,10.9
		c0,6.3-2.5,12.4-6.8,17c-4.3,4.6-10.2,7.4-16.6,7.9c-4.6,0.3-8.1,4.1-8.1,8.7c-0.1,5.7-2,11.2-5.5,15.7c-3.5,4.5-8.4,7.8-13.9,9.3
		c-0.4-0.1-0.8-0.1-1.2-0.1c-6.3,0.1-12.4-2.4-16.9-6.8c-4.5-4.4-7.1-10.4-7.2-16.7c0-7.5,3.6-14.5,9.7-18.9
		c3.9-2.9,4.7-8.3,1.9-12.2c-2.8-3.9-8.3-4.8-12.2-1.9c-11.7,8.4-18,22.4-16.7,36.7c1.3,14.3,10.1,26.9,23,33.1
		c-2.7,4.8-6.7,8.8-11.4,11.6c-4.8,2.8-10.2,4.2-15.8,4.2c-17.1,0-37.9-13.9-37.9-31.1L977.9,156.3z"/>
	<path d="M1040.8,345.2c1.8,4.5,7,6.6,11.4,4.7c1.3-0.6,2.8-0.8,4.2-0.6l8.1,8.1c0.4,1.8,0.3,3.7-0.3,5.4c-0.7,2.2-0.5,4.6,0.6,6.7
		s2.9,3.6,5.2,4.3c2.2,0.7,4.6,0.5,6.7-0.6c2.1-1.1,3.6-2.9,4.3-5.2c1.9-5.8,1.8-12.1-0.3-17.9c-2-5.8-5.9-10.7-11-14.1
		c-7.2-4.7-16.2-5.5-24.1-2.2c-2.1,0.9-3.9,2.6-4.7,4.7C1039.9,340.6,1039.9,343.1,1040.8,345.2L1040.8,345.2z"/>
	<path d="M951.5,45.9c4.8,0,8.8-3.9,8.8-8.8V19.4c0-4.8-3.9-8.8-8.8-8.8c-4.8,0-8.8,3.9-8.8,8.8v17.8
		C942.8,42,946.7,45.9,951.5,45.9z"/>
	<path d="M864.9,52.3c1.5,4.6,6.4,7.1,11,5.6c4.6-1.5,7.1-6.4,5.6-11L876,30c-1.5-4.6-6.4-7.1-11-5.6c-4.6,1.5-7.1,6.4-5.6,11
		L864.9,52.3z"/>
	<path d="M795.5,90.7c2.9,3.9,8.3,4.7,12.2,1.9c3.9-2.8,4.8-8.3,2-12.2l-10.4-14.4c-2.8-3.9-8.3-4.8-12.2-1.9
		c-3.9,2.8-4.8,8.3-1.9,12.2L795.5,90.7z"/>
	<path d="M726.9,138.3l14.4,10.5h0c3.9,2.8,9.4,2,12.2-1.9c1.4-1.9,1.9-4.2,1.6-6.5c-0.4-2.3-1.6-4.3-3.5-5.7l-14.4-10.5h0
		c-1.9-1.4-4.2-1.9-6.5-1.6c-2.3,0.4-4.4,1.6-5.7,3.5c-1.4,1.9-1.9,4.2-1.6,6.5C723.8,134.9,725.1,136.9,726.9,138.3L726.9,138.3z"
		/>
	<path d="M713.2,204l-16.9-5.5c-2.2-0.7-4.6-0.5-6.7,0.5c-2.1,1.1-3.6,2.9-4.4,5.1c-1.5,4.6,1,9.5,5.6,11l16.9,5.5
		c2.2,0.7,4.6,0.5,6.7-0.5c2.1-1.1,3.6-2.9,4.4-5.1c0.7-2.2,0.5-4.6-0.5-6.7C717.2,206.3,715.4,204.7,713.2,204L713.2,204z"/>
	<path d="M706.8,290.7c0-4.8-3.9-8.8-8.8-8.8l-17.8,0c-4.8,0-8.8,3.9-8.8,8.8s3.9,8.8,8.8,8.8l17.8,0
		C702.9,299.4,706.8,295.5,706.8,290.7z"/>
	<path d="M707.8,360.7l-16.9,5.5c-2.2,0.7-4.1,2.3-5.1,4.3c-1.1,2.1-1.3,4.5-0.5,6.7c0.7,2.2,2.3,4.1,4.4,5.1
		c2.1,1.1,4.5,1.2,6.7,0.5l16.9-5.5v0c4.6-1.5,7.1-6.4,5.6-11C717.3,361.7,712.4,359.2,707.8,360.7L707.8,360.7z"/>
	<path d="M741.3,432.6L726.9,443c-1.9,1.4-3.1,3.4-3.5,5.7c-0.4,2.3,0.2,4.6,1.6,6.5c1.4,1.9,3.4,3.1,5.7,3.5
		c2.3,0.4,4.6-0.2,6.5-1.6l14.4-10.4c3.9-2.8,4.8-8.3,1.9-12.2C750.7,430.6,745.2,429.7,741.3,432.6L741.3,432.6z"/>
	<path d="M807.7,488.6c-3.9-2.8-9.4-2-12.2,1.9L785,505v0c-2.8,3.9-2,9.4,1.9,12.2c3.9,2.8,9.4,2,12.2-1.9l10.4-14.4v0
		C812.5,497,811.6,491.5,807.7,488.6L807.7,488.6z"/>
	<path d="M875.9,523.4c-4.6-1.5-9.5,1-11,5.6l-5.5,16.9h0c-1.5,4.6,1,9.5,5.6,11c4.6,1.5,9.5-1,11-5.6l5.5-16.9
		C883,529.8,880.5,524.9,875.9,523.4z"/>
	<path d="M951.5,535.4c-4.8,0-8.8,3.9-8.8,8.8v17.8c0,4.8,3.9,8.8,8.8,8.8c4.8,0,8.8-3.9,8.8-8.8v-17.8
		C960.3,539.3,956.4,535.4,951.5,535.4z"/>
	<path d="M1038.2,529c-1.5-4.6-6.4-7.1-11-5.6c-4.6,1.5-7.1,6.4-5.6,11l5.5,16.9h0c1.5,4.6,6.4,7.1,11,5.6c2.2-0.7,4-2.3,5.1-4.3
		c1.1-2.1,1.2-4.5,0.5-6.7L1038.2,529z"/>
	<path d="M1107.6,490.6c-1.4-1.9-3.4-3.1-5.7-3.5c-2.3-0.4-4.6,0.2-6.5,1.6c-1.9,1.4-3.1,3.4-3.5,5.7c-0.4,2.3,0.2,4.6,1.6,6.5
		l10.4,14.4v0c2.8,3.9,8.3,4.8,12.2,1.9c3.9-2.8,4.8-8.3,1.9-12.2L1107.6,490.6z"/>
	<path d="M1176.1,443l-14.4-10.4c-1.9-1.4-4.2-1.9-6.5-1.6c-2.3,0.4-4.3,1.6-5.7,3.5c-2.8,3.9-2,9.4,1.9,12.2l14.4,10.4
		c3.9,2.8,9.4,2,12.2-1.9C1180.9,451.3,1180,445.9,1176.1,443L1176.1,443z"/>
	<path d="M1212.2,366.2l-16.9-5.5v0c-4.6-1.5-9.5,1-11,5.6c-1.5,4.6,1,9.5,5.6,11l16.9,5.5v0c2.2,0.7,4.6,0.6,6.7-0.5
		c2.1-1.1,3.6-2.9,4.4-5.1c0.7-2.2,0.5-4.6-0.5-6.7C1216.3,368.4,1214.4,366.9,1212.2,366.2L1212.2,366.2z"/>
	<path d="M1222.8,281.9l-17.8,0c-4.8,0-8.8,3.9-8.8,8.8s3.9,8.8,8.8,8.8l17.8,0c4.8,0,8.8-3.9,8.8-8.8S1227.6,281.9,1222.8,281.9z"
		/>
	<path d="M1192.6,221.1c0.9,0,1.8-0.1,2.7-0.4l16.9-5.5c2.2-0.7,4-2.3,5.1-4.3c1.1-2.1,1.2-4.5,0.5-6.7c-0.7-2.2-2.3-4-4.4-5.1
		c-2.1-1.1-4.5-1.2-6.7-0.5l-16.9,5.5c-4.1,1.3-6.6,5.4-5.9,9.7C1184.6,218,1188.3,221.1,1192.6,221.1L1192.6,221.1z"/>
	<path d="M1165.8,124.1l-14.4,10.5h0c-3.9,2.8-4.8,8.3-1.9,12.2c2.8,3.9,8.3,4.8,12.2,1.9l14.4-10.5h0c3.9-2.8,4.8-8.3,1.9-12.2
		C1175.2,122.2,1169.7,121.3,1165.8,124.1L1165.8,124.1z"/>
	<path d="M1095.4,92.7c3.9,2.8,9.4,2,12.2-1.9l10.4-14.4v0c2.8-3.9,2-9.4-1.9-12.2c-3.9-2.8-9.4-2-12.2,1.9l-10.4,14.4
		c-1.4,1.9-1.9,4.2-1.6,6.5C1092.2,89.3,1093.5,91.3,1095.4,92.7L1095.4,92.7z"/>
	<path d="M1027.1,57.9c2.2,0.7,4.6,0.5,6.7-0.5c2.1-1.1,3.6-2.9,4.3-5.1l5.5-16.9h0c1.5-4.6-1-9.5-5.6-11c-4.6-1.5-9.5,1-11,5.6
		l-5.5,16.9C1020,51.5,1022.6,56.4,1027.1,57.9L1027.1,57.9z"/>
	<path d="M903.7,184.6c1.1-4.7-1.8-9.4-6.5-10.5c-4.7-1.1-9.4,1.8-10.5,6.5c-1.4,5.9-5,11-10,14.3c-5,3.3-11.1,4.6-17.1,3.6
		c-5.9-1-11.3-4.3-14.9-9.1c-2.9-3.9-8.4-4.6-12.2-1.7c-3.9,2.9-4.6,8.4-1.7,12.2c6.3,8.4,15.6,14,25.9,15.8
		c10.3,1.8,20.9-0.4,29.7-6.2C895.1,203.7,901.3,194.8,903.7,184.6L903.7,184.6z"/>
	<path d="M857.5,333.8c-7.9-3.3-16.9-2.4-24.1,2.2c-5.1,3.4-9,8.3-11,14.1c-2,5.8-2.1,12.1-0.3,17.9c0.7,2.2,2.2,4.1,4.3,5.2
		c2.1,1.1,4.5,1.3,6.7,0.6s4.1-2.2,5.2-4.3c1.1-2.1,1.3-4.5,0.6-6.7c-1.5-4.5,0.2-9.5,4.1-12.2c2.3-1.6,5.3-1.8,7.9-0.7
		c4.5,1.8,9.6-0.3,11.4-4.7C864.1,340.7,862,335.6,857.5,333.8L857.5,333.8z"/>
	<path d="M882.9,232c-4.8,0-8.8,3.9-8.8,8.8s3.9,8.8,8.8,8.8c4.3,0.1,7.7,3.6,7.7,7.9c0,4.3-3.4,7.8-7.7,7.9c-4.8,0-8.8,3.9-8.8,8.8
		s3.9,8.8,8.8,8.8c9-0.1,17.3-4.9,21.8-12.8c4.5-7.8,4.5-17.4,0-25.3C900.2,237,891.9,232.1,882.9,232L882.9,232z"/>
	<path d="M899.3,316c4.8,0,8.8-3.9,8.8-8.8s-3.9-8.8-8.8-8.8c-9,0.1-17.3,4.9-21.8,12.7c-4.5,7.8-4.5,17.4,0,25.3
		c4.5,7.8,12.8,12.7,21.8,12.7c4.8,0,8.8-3.9,8.8-8.8s-3.9-8.8-8.8-8.8c-4.3-0.1-7.7-3.6-7.7-7.9S895,316.1,899.3,316L899.3,316z"/>
	<path d="M1039.4,216.3c12.9,0,25.1-6,32.9-16.4c2.9-3.9,2.1-9.3-1.7-12.2c-3.9-2.9-9.3-2.1-12.2,1.7c-3.6,4.8-8.9,8.1-14.9,9.1
		c-5.9,1-12-0.2-17.1-3.6c-5-3.3-8.6-8.4-10-14.3c-1.1-4.7-5.8-7.6-10.5-6.5c-4.7,1.1-7.6,5.8-6.5,10.5c2.1,9,7.2,17.1,14.5,22.8
		C1021.1,213.2,1030.1,216.3,1039.4,216.3L1039.4,216.3z"/>
	<path d="M1020.2,282.8c4.8,0,8.8-3.9,8.8-8.8s-3.9-8.8-8.8-8.8c-4.3-0.1-7.7-3.6-7.7-7.9c0-4.3,3.4-7.8,7.7-7.9
		c4.8,0,8.8-3.9,8.8-8.8s-3.9-8.8-8.8-8.8c-9,0.1-17.3,4.9-21.8,12.8c-4.5,7.8-4.5,17.4,0,25.3
		C1002.8,277.9,1011.1,282.7,1020.2,282.8L1020.2,282.8z"/>
	<path d="M1003.7,331.8c-4.8,0-8.8,3.9-8.8,8.8s3.9,8.8,8.8,8.8c9-0.1,17.3-4.9,21.8-12.7c4.5-7.8,4.5-17.4,0-25.3
		c-4.5-7.8-12.8-12.7-21.8-12.7c-4.8,0-8.8,3.9-8.8,8.8s3.9,8.8,8.8,8.8c4.3,0.1,7.7,3.6,7.7,7.9S1008,331.7,1003.7,331.8
		L1003.7,331.8z"/>
</g>
<g>
	<path class="st0" d="M142.7,54.8c-7.3-0.3-15.1,1.5-22.3,6.1c-12.1,7.6-22.8,17-31.8,27.9c-9,10.9-16.2,23.3-21.3,36.8
		c-4.1,10.8-3.4,21.4,0.6,29.9c2.7,5.7,7,10.4,12.1,13.3c0,0.1-0.1,0.1-0.1,0.2c-3,3.1-6.8,4.8-11.2,6.2c-4.3,1.4-9.1,2.2-13.6,4.2
		c-4.5,2-8.9,5.8-10.4,11.8c-2.6,10.1,3.2,18.7,7.9,26.2c4.7,7.5,8.4,14,7.2,19.5c-0.9,4.4-3,6.4-6.8,8.4s-9.2,3.6-14.9,6
		c-5.8,2.4-12,5.7-16.8,11.8c-4.9,6.1-11.1,17.6-8.9,26.8c0.9,3.8,4.9,9.8,8.5,8.2c3.5-1.5-1.1-9.3-0.6-13.7c0.5-4.6,2.9-9,5.7-12.6
		c4.1-5.2,10.5-10,15.6-12.2c5.1-2.1,10.7-3.6,15.8-6.4s9.8-7.4,11.3-14.5c2.1-10.1-3.8-18.7-8.4-26.2c-4.7-7.5-8.2-13.7-6.8-19.2
		c0.8-3.3,2.3-4.4,5.3-5.8c3.1-1.4,7.6-2.3,12.5-3.9c4.9-1.6,10.4-3.9,15-8.5c1-1,1.9-2.2,2.8-3.4c7.7,1,14.8-1.5,20.3-5.5
		c5.8-4.2,10.1-10,12.5-16.4c6-16.3,18-30.6,33.1-40c5.9-3.6,10.8-9.2,13.7-15.8c2.9-6.6,3.8-14.5,0.8-22.3
		C165.4,61.9,154.8,55.3,142.7,54.8L142.7,54.8z M408.7,61.4c-1.8-0.3-4,2.4-5.5,3.9c-3.2,3.4-6.1,5.5-10.3,7.8
		c-4.2,2.2-9.4,5.5-10.8,12.2c-0.8,4-0.1,7.6,1.1,10.6c-3.5,0-6.9,0.6-10.4,1.7l-22.3,7.4c-1.7-1.7-3.1-4.1-2.3-8.9
		c1-6.7-2.7-12.2-6.9-15c-4.2-2.8-8.4-4.7-12.9-4.7c-1.5,0-3.8,0-4.4,1.5c-0.5,1.4,0.9,3.2,2.2,3.8c3.7,1.7,8,2.8,11.1,4.9
		c3.2,2.1,4.9,4.3,4.2,8.9c-0.8,5,0.5,9,2.3,11.8l-42.7,14.1c-0.7-2.5-1.1-6.1,0.6-10.9c2.3-6.4,2.2-12,0.2-16.2
		c-2-4.2-5.9-7.2-10.1-8c-1.6-0.3-4.2-0.2-4.7,1.4c-0.5,1.4,1.1,2.8,2.5,3.9c2.3,1.7,5.1,3,6.3,5.6c1.2,2.6,1.6,6.3-0.3,11.7
		c-2.1,6-1.7,11-0.6,14.5l-10.1,3.3c-6.6,2.2-12.1,6.2-16.2,11.2c-4.4-1.1-10.8-3.5-14-8.6c-2.8-4.5-3.9-8.2-4.9-12
		c-0.5-1.9-1-3.9-2-5.6c-1.1-1.7-3.3-3.4-5.5-3.8c-1.5-0.3-3.9-0.3-4.5,1.1c-0.6,1.4,1,3.2,2.3,4.1c1.5,1,1.6,1,2.2,1.8
		c0.5,0.9,1,2.2,1.5,3.9c1,3.4,2,8.4,5.3,13.8c3.9,6.3,10.6,9.2,15.9,10.6c-4.6,8.4-5.9,18.5-2.7,28.2l0.1,0.3
		c-0.9,0.1-1.9,0.2-2.9,0.2c-4.5,0.1-8.6-1.6-10.9-5.4c-1.8-2.9-4.7-5.3-7.4-6.3c-1.4-0.5-3.1-0.5-4.5-0.5c-1.4,0-3.5,0.5-4.8,0.8
		c-5.5,1.3-10.1,4.9-13.9,8.9c-2.2,2.4-7,6.2-4.8,8.5c2.2,2.3,6-2,8.4-4.2c3.5-3.3,6.7-5.7,12.7-7.2c2-0.5,3.6-0.4,5.1,0.1
		c1.4,0.5,2.7,1.5,4,3.6c3.8,6.1,10.8,7.5,16.2,7.4c1.9,0,3.6-0.3,5.1-0.5c3.5,6.7,9.1,11.9,15.6,15.1c-0.1,4.9,0.9,12.6,8.2,17.5
		c5.2,3.5,7.3,6.7,8.1,8.8c0.4,1.1,0.5,1.9,0.6,2.4c0,0.5,0,0.3,0,0.5c-0.2,2.3-3.6,5.6-1.6,6.9c2.4,1.6,5.8-2.3,7.2-5
		c0,0,0.6-1.8,0.6-2.9c0.1-1.7,0.1-2.7-0.5-4.3c-1.3-3.3-4.4-7.6-10.5-11.7c-4.1-2.8-5.4-6.7-5.8-9.9c6.2,1.6,13,1.6,19.6-0.6
		l34.1-11.3c4.5,2.6,8.3,6.6,10.2,15c2.4,10.9,1.8,12.7,6.3,16.4c3.1,2.5,10,5.5,11.7,1.9c1.3-2.6-3.9-4.5-6.5-5.9
		c-3.6-2-3.1-3.8-5.4-13.9c-1.7-7.5-4.9-12.5-8.8-16l39.8-13.2c2.2,1.5,4.6,3.3,6.2,5.3c1.1,1.4,1.8,2.9,1.9,4.1
		c0.1,1.3-0.2,2.5-1.8,4.3c-8.4,9.5-9.2,16.6-5.8,24.1c1.2,2.6,5.3,5.8,7.6,4.1c1.4-1.1-0.4-3.7-1.3-5.3c-4.3-7.6-1.5-12.1,4.3-18.7
		c2.3-2.6,3.6-6.2,3.4-9c-0.2-2.8-1.7-5.4-3.3-7.5c-1.2-1.5-2.7-2.7-4.2-3.8c7.6-2.8,13.8-7.9,17.9-14.3c0.9,3.2,2.1,7.1,4.8,11.5
		c7.3,11.8,15.9,11.6,24.9,10.9c3.5-0.3,9.8-2.4,8.9-5.8c-0.8-3-6.1-0.9-9.2-0.7c-6.6,0.4-14.3,0.2-19.2-7.8
		c-2.8-4.5-3.7-8.6-4.7-12.3c-0.4-1.5-0.9-2.9-1.6-4.2c2.2-6.9,2.4-14.5-0.1-21.9l-0.2-0.6c-4.1-12.3-14.4-20.7-26.3-23
		c-1.2-2.5-2.5-6-1.7-9.6c1-4.7,3.7-6.1,7.7-8.2c4.1-2.1,9.6-6.2,12.3-11c1-1.8,2.7-4.8,1.1-6C409.2,61.5,409,61.4,408.7,61.4
		L408.7,61.4z M143.1,65.3c8.1,0.2,14.2,4.6,16.2,9.7c1.8,4.4,1.4,9.4-0.7,14.2s-5.9,9.1-10.1,11.6c-16.9,10.4-30.2,26.2-37,44.7
		c-1.6,4.4-5,9-9.2,12c-4.2,3-8.9,4.5-13.6,3.7c-4.3-0.7-8.5-3.9-11-9.4c-2.6-5.4-3.3-12.9-0.1-21.5c4.7-12.5,11.4-24.1,19.8-34.2
		c8.3-10.1,18.3-18.9,29.6-26C132.7,66.5,138.2,65.1,143.1,65.3L143.1,65.3z M214.4,70.4c-6.1,0-11.2,5.1-11.2,11.2
		s5.1,11.2,11.2,11.2s11.2-5.1,11.2-11.2S220.5,70.4,214.4,70.4z M214.4,76.7c2.7,0,4.8,2.1,4.8,4.8c0,2.7-2.1,4.8-4.8,4.8
		c-2.7,0-4.9-2.1-4.9-4.8C209.5,78.9,211.7,76.7,214.4,76.7z M385.5,106.8c9.2,0.7,17.5,6.8,20.6,16.2l0.2,0.6
		c4.3,13.1-2.7,27-15.8,31.3L303,183.8c-12.6,4.2-26-2.6-30.2-15.2l-0.1-0.5c-4.3-13,2.7-26.9,15.7-31.2l87.9-29
		C379.3,106.9,382.5,106.5,385.5,106.8L385.5,106.8z M102.4,108.4c-2.7-0.2-5.6,0.7-7.8,2.8c-2.6,2.4-4.8,5.3-6.6,8.4
		c-1.7,3.1-2.9,6.5-3.6,10.1c-0.6,3.1,0.1,6,1.7,8.3c1.6,2.2,4.1,3.8,6.8,3.8c2.5,0,4.5-1.2,5.8-2.6c1.4-1.5,2.2-3.2,2.6-5.1
		c0.7-3.9,2.8-7.6,5.7-10.3c1.4-1.3,2.5-3,2.9-5s0.4-4.3-1-6.5C107.5,109.9,105.1,108.6,102.4,108.4L102.4,108.4z M102.2,113.8
		c1,0,1.6,0.5,1.9,0.9c0.3,0.6,0.5,1.4,0.2,2.3c-0.2,1-0.8,2-1.5,2.5c-3.7,3.4-6.3,8-7.2,13c-0.1,0.8-0.7,1.9-1.3,2.6
		c-0.7,0.7-1.4,1-2,1c-0.4,0-1-0.2-1.6-1c-0.6-0.8-1-2.2-0.7-4c0.6-3.1,1.6-6,3.1-8.6c1.5-2.7,3.3-5.1,5.6-7.2
		C100,114.1,101.3,113.7,102.2,113.8L102.2,113.8z M328.3,129.9c-1.1-0.1-2.2,0-3.2,0.4l-34,11.2c-4.6,1.2-7.4,6.1-6.2,10.7l0,0.1
		l0,0.1c1.4,4.1,5.9,6.4,10.1,5l34.5-11.4c4.5-1.1,7.3-5.8,6.1-10.2l0-0.1l0-0.1C334.5,132.3,331.5,130.2,328.3,129.9L328.3,129.9z
		 M327.9,135.5c1,0.1,1.8,0.7,2.2,1.7c0.3,1.5-0.5,3-2,3.3l-0.1,0l-34.7,11.5c-1.2,0.4-2.4-0.3-2.8-1.4c-0.4-1.7,0.5-3.3,2.1-3.8
		l0.1,0l0.1,0l34.1-11.3C327.2,135.5,327.5,135.5,327.9,135.5L327.9,135.5z M456.4,204.7c-6.2,0-11.2,5.1-11.2,11.2
		c0,6.2,5,11.2,11.2,11.2c6.2,0,11.2-5,11.2-11.2C467.6,209.7,462.6,204.7,456.4,204.7z M520.1,207.7c-1.3-0.2-2.2,0.7-2.2,0.7
		s-1.3,1.8-5.3,5.2c-4,3.4-10.6,8.3-20.8,13.8c-20.4,10.9-58.4,21.4-117.9,27.7c-34,3.6-59.1,24-76.6,45.5
		c-15.5,0.4-35.2,4.4-49.8,11.2l0-0.4c-0.7-7.4-7.3-13-14.7-12.3l-11.6,1c-7.4,0.7-13,7.3-12.4,14.7l1,11.6
		c0.7,7.4,7.3,13,14.7,12.3l11.6-1c7.4-0.7,13-7.3,12.4-14.7l-0.4-5.1c4.1-1.9,13.2-5.6,25.9-6.8c6.7-0.6,11.7-0.5,15.8-0.3
		c-11.5,16.5-18.6,31.8-21.8,39.7l-0.1-0.1c-6.8-7.2-18.2-7.5-25.4-0.7L230.2,361c-7.2,6.8-7.5,18.2-0.7,25.4l11.5,12.2
		c6.8,7.2,18.2,7.5,25.4,0.7l12.1-11.5c7.2-6.8,7.5-18.2,0.8-25.4l-6.8-7.2c7.9-15.2,44-78.1,107.4-88.5c11.4-1.9,21.6-3.9,31.4-6.1
		c0.5,10.3-1.8,17.7-13.9,27.6c-12.8,10.6-35.3,22.2-59.2,37.7c-24.1,15.7-30.3,28.6-33.5,38.1c-1.2,3.4-1.5,6.4-1.4,8.8
		c-7.6-2.1-15.6,2.4-17.7,10l-3.4,12.3c-2.1,7.6,2.4,15.6,10,17.8l12.2,3.4c7.6,2.1,15.6-2.4,17.8-10l3.4-12.2
		c2.1-7.6-2.4-15.7-10-17.8l-6.4-1.8c0,0,0-0.1,0-0.1c-0.3-1.8-0.4-4.7,0.9-8.6c2.6-7.8,10.9-19.9,34.4-35.2
		c23.8-15.4,47.3-22.7,60.7-33.8c13.1-10.8,18.2-25.4,17.3-38.8c33.6-8.2,56.7-17.6,72-25.8c10.5-5.6,17.5-10.7,21.8-14.4
		c4.3-3.7,6.2-6.3,6.2-6.3s1-1.7-0.9-3.3C521.1,208,520.6,207.8,520.1,207.7L520.1,207.7z M456.4,211c2.7,0,4.9,2.1,4.9,4.8
		c0,2.7-2.2,4.9-4.9,4.9c-2.7,0-4.8-2.1-4.8-4.9C451.6,213.2,453.7,211,456.4,211z M154.8,211.8c-9.2,0-16.8,7.6-16.8,16.8
		c0,3.1,0.9,6,2.4,8.5c-9,0.2-16.4,7.7-16.4,16.7c0,9.2,7.6,16.8,16.8,16.8c6.4,0,11.9-3.7,14.7-8.9c2.9,5.1,8.3,8.5,14.5,8.5
		c9.2,0,16.8-7.6,16.8-16.8c0-9.2-7.6-16.8-16.8-16.8c-0.2,0-0.5,0.1-0.7,0.1c1.4-2.4,2.2-5.2,2.2-8.2
		C171.6,219.4,164.1,211.8,154.8,211.8L154.8,211.8z M154.8,221.3c4.1,0,7.3,3.2,7.3,7.3c0,4.1-3.2,7.3-7.3,7.3
		c-4.1,0-7.3-3.2-7.3-7.3C147.6,224.6,150.8,221.3,154.8,221.3z M232.1,241.8c-6.1,0-11.2,5.1-11.2,11.2s5.1,11.2,11.2,11.2
		c6.1,0,11.2-5,11.2-11.2C243.3,246.8,238.2,241.8,232.1,241.8z M155.5,245.3c-0.1,0.1-0.1,0.2-0.2,0.3c0-0.1-0.1-0.2-0.1-0.3
		C155.3,245.4,155.4,245.4,155.5,245.3L155.5,245.3z M170.1,246.3c4.1,0,7.3,3.2,7.3,7.3s-3.2,7.3-7.3,7.3s-7.3-3.2-7.3-7.3
		S166,246.3,170.1,246.3L170.1,246.3z M140.9,246.6c4.1,0,7.3,3.2,7.3,7.3s-3.2,7.3-7.3,7.3s-7.3-3.2-7.3-7.3
		S136.8,246.6,140.9,246.6z M232.1,248.1c2.7,0,4.8,2.2,4.8,4.9s-2.1,4.8-4.8,4.8c-2.7,0-4.8-2.1-4.8-4.8S229.3,248.1,232.1,248.1z
		 M76.1,278.2c-7.8-0.1-14.9,5.4-16.6,13.3c-2,9,3.8,18,12.8,20c9,2,18-3.8,20-12.8c2-9-3.8-18.1-12.9-20
		C78.4,278.3,77.2,278.2,76.1,278.2L76.1,278.2z M76,287.7c0.5,0,1,0.1,1.5,0.2c4,0.9,6.4,4.7,5.6,8.7c-0.9,4-4.7,6.4-8.7,5.6
		c-4-0.9-6.4-4.7-5.6-8.7C69.6,289.9,72.6,287.6,76,287.7L76,287.7z M184.7,299c-7-0.4-13.2,5-13.6,12.1l-0.6,10.6
		c-0.4,7,5,13.2,12.1,13.6l10.6,0.6c7,0.4,13.2-5,13.6-12.1l0.7-10.6c0.4-7-5-13.2-12.1-13.6L184.7,299z M153.6,303.3
		c-0.8,0-1.6,0.2-2.4,0.4l-9.8,2.6c-6.4,1.7-10.3,8.4-8.6,14.9l2.6,9.7c1.7,6.4,8.4,10.4,14.8,8.7l9.8-2.6
		c6.4-1.7,10.3-8.4,8.6-14.8l-2.6-9.7C164.6,306.7,159.2,303,153.6,303.3L153.6,303.3z M233.6,308.7c2.2-0.2,4,1.4,4.2,3.5l1,11.6
		c0.2,2.2-1.3,4-3.5,4.2l-11.6,1c-2.2,0.2-4-1.4-4.2-3.5l-1-11.6c-0.2-2.2,1.3-4,3.5-4.2L233.6,308.7z M184.1,308.7l10.7,0.6
		c1.8,0.1,3,1.5,2.9,3.3l-0.6,10.6c-0.1,1.8-1.5,3.1-3.3,2.9l-10.7-0.6c-1.8-0.1-3.1-1.5-2.9-3.3l0.6-10.6
		C180.9,309.9,182.3,308.6,184.1,308.7L184.1,308.7z M230.8,312L230.8,312c-2.2,0-4,1.8-4,4c0,1.1,0.4,2.1,1.2,2.8s1.8,1.2,2.8,1.2
		c1.1,0,2.1-0.4,2.8-1.2s1.2-1.8,1.2-2.8C234.8,313.8,233,312,230.8,312L230.8,312z M186.5,312.4L186.5,312.4
		c-0.7,0-1.4,0.3-1.9,0.8c-0.5,0.5-0.8,1.2-0.8,1.9s0.3,1.4,0.8,1.9c0.5,0.5,1.2,0.8,1.9,0.8c1.5,0,2.7-1.2,2.7-2.7
		C189.2,313.6,188,312.4,186.5,312.4L186.5,312.4z M154.8,312.5c1.1,0.1,2.1,1,2.4,2.2l2.6,9.7c0.4,1.6-0.4,3.2-2.1,3.6l-9.8,2.6
		c-1.6,0.4-3.2-0.5-3.6-2.1l-2.6-9.7c-0.4-1.6,0.5-3.2,2.1-3.6l9.8-2.6C154,312.5,154.4,312.5,154.8,312.5L154.8,312.5z M190,317.6
		L190,317.6c-0.7,0-1.3,0.6-1.3,1.4c0,0.4,0.1,0.7,0.4,1s0.6,0.4,1,0.4c0.8,0,1.4-0.6,1.4-1.4C191.5,318.2,190.9,317.6,190,317.6
		L190,317.6L190,317.6z M118.8,318.7c-2.3,0-4.6,0.6-6.6,1.9l-8,5.3c-5.4,3.5-7,10.9-3.4,16.3l5.3,8.1c3.5,5.4,10.9,6.9,16.4,3.4
		l8-5.3c5.4-3.5,6.9-10.9,3.4-16.3l-5.3-8.1C126.3,320.6,122.6,318.7,118.8,318.7L118.8,318.7z M118.2,327.8c1-0.2,2,0.2,2.6,1.2
		l5.3,8.1c0.8,1.2,0.5,2.8-0.8,3.6l-8,5.2c-1.2,0.8-2.8,0.5-3.6-0.7l-5.3-8.1c-0.8-1.2-0.5-2.8,0.8-3.6l8-5.3
		C117.5,328,117.9,327.9,118.2,327.8L118.2,327.8z M402.2,336.2c-7.8-0.1-14.9,5.4-16.6,13.3c-0.2,0.9-0.2,1.7-0.3,2.6
		c-1.8-1.3-3.9-2.2-6.1-2.7c-9-2-18,3.9-20,12.9c-1.5,6.9,1.5,13.7,7,17.4c-4.8,2.1-8.7,6.4-9.9,11.9c-1.5,7.1,1.7,14.1,7.5,17.7
		c-4.3,2.2-7.7,6.2-8.8,11.3c-2,9,3.8,18,12.8,20c9,2,18.1-3.9,20-12.9c0.2-0.8,0.2-1.5,0.3-2.3c1.6,0.9,3.2,1.7,5.1,2.1
		c9,2,18-3.8,20-12.8c1.5-6.9-1.5-13.7-7-17.5c4.4-2.2,7.9-6.2,9-11.4c0.2-0.9,0.3-1.8,0.3-2.7c1.8,1.3,3.9,2.3,6.3,2.8
		c9,2,18-3.9,20-12.9c2-9-3.8-18-12.8-20c-3.5-0.8-7.1-0.3-10.2,1c0.5-8.1-5-15.7-13.1-17.5C404.5,336.3,403.4,336.2,402.2,336.2
		L402.2,336.2z M91.2,342.7c-2.6,0-5.3,1.1-7.2,3.1l-5.6,5.8c-3.9,4.1-3.8,10.7,0.3,14.6l5.8,5.5c4.1,3.9,10.6,3.8,14.5-0.3l5.6-5.8
		c3.9-4.1,3.8-10.6-0.3-14.6l-5.7-5.5C96.6,343.6,93.9,342.7,91.2,342.7L91.2,342.7z M402.1,345.7c0.5,0,1,0.1,1.5,0.2
		c4,0.9,6.5,4.7,5.6,8.7s-4.7,6.4-8.7,5.5c-4-0.9-6.4-4.7-5.6-8.7C395.7,348,398.7,345.7,402.1,345.7L402.1,345.7z M91.4,351.3
		c0.4,0,0.8,0.1,1.2,0.5l5.8,5.5c0.7,0.7,0.7,1.6,0,2.3l-5.6,5.8c-0.7,0.7-1.6,0.7-2.3,0l-5.7-5.5c-0.7-0.7-0.7-1.6,0-2.3l5.6-5.8
		C90.6,351.5,91,351.3,91.4,351.3L91.4,351.3z M254.9,355.5c1.8,0,3.6,0.8,5,2.3l11.5,12.2c2.7,2.9,2.6,7.3-0.3,10.1l-12.2,11.5
		c-2.9,2.7-7.3,2.6-10.1-0.3L237.3,379c-2.7-2.9-2.6-7.3,0.3-10.1l12.1-11.5C251.3,356.1,253.1,355.4,254.9,355.5L254.9,355.5z
		 M375.7,358.5c0.5,0,1,0.1,1.5,0.2c4,0.9,6.4,4.7,5.6,8.7c-0.9,4-4.7,6.4-8.7,5.6c-4-0.9-6.4-4.7-5.6-8.7
		C369.3,360.7,372.3,358.4,375.7,358.5L375.7,358.5z M252.1,360.3c-1.4,0-2.7,0.5-3.6,1.5c-1,1-1.5,2.3-1.5,3.6
		c0,1.4,0.5,2.7,1.5,3.6c1,1,2.3,1.5,3.6,1.5s2.7-0.5,3.6-1.5c1-1,1.5-2.3,1.5-3.6s-0.5-2.7-1.5-3.6
		C254.7,360.9,253.4,360.3,252.1,360.3z M425.4,362.2c0.5,0,1,0.1,1.5,0.2c4,0.9,6.4,4.7,5.6,8.7c-0.9,4-4.7,6.4-8.7,5.6
		c-4-0.9-6.5-4.7-5.6-8.7C419,364.4,422,362.1,425.4,362.2L425.4,362.2z M510.5,368.1c-6.2,0.1-12.2,3.2-15.9,8.7l-15.8,24.1
		c-4.2,6.5-4,14.6-0.2,20.8c-8.5-1.2-17.2,3.4-20.6,11.8l-10.8,26.8c-2.4,5.8-1.6,12.2,1.5,17.2c-6.6-1.1-13.6,1.2-18.1,6.7
		l-18.2,22.4c-4,4.9-5.1,11.3-3.6,17c-5-2.3-10.9-2.7-16.2-0.2l-26.2,12c-9.6,4.4-13.9,15.9-9.5,25.5c4.4,9.6,15.9,13.9,25.5,9.5
		l26.2-12c8.6-3.9,12.9-13.5,10.6-22.3c7.8,3.6,17.4,1.8,23.1-5.2l18.2-22.4c5.2-6.4,5.5-15.3,1.4-22c8.7,1.4,17.6-3.3,21-11.8
		l10.8-26.8c2.4-5.9,1.5-12.4-1.7-17.4c7.2,1,14.7-2,18.9-8.4l15.8-24.1c5.8-8.8,3.3-20.9-5.5-26.7C517.9,369,514.2,368,510.5,368.1
		L510.5,368.1z M408.6,368.4c0,0,0,0.1,0,0.1c0,0-0.1-0.1-0.1-0.1C408.6,368.4,408.6,368.4,408.6,368.4L408.6,368.4z M74.4,370.8
		c-4.1-0.3-8.1,2.3-9.3,6.4l-1.8,6.3c-1.4,4.7,1.4,9.7,6.1,11.1l6.3,1.8c4.7,1.4,9.7-1.4,11.1-6.1l1.8-6.3c1.4-4.7-1.4-9.7-6.1-11.1
		l-6.3-1.8C75.6,371,75,370.8,74.4,370.8L74.4,370.8z M243,371.7L243,371.7c-2.1,0-3.8,1.6-4,3.7c-0.1,1.1,0.3,2.1,1,2.9
		c0.7,0.8,1.7,1.3,2.7,1.4s2.1-0.3,2.9-1c0.8-0.7,1.3-1.7,1.4-2.7c0.1-1.1-0.3-2.1-1-2.9c-0.7-0.8-1.7-1.3-2.7-1.4
		C243.2,371.7,243.1,371.7,243,371.7L243,371.7z M398.9,374.9c0.5,0,1,0.1,1.5,0.2c4,0.9,6.4,4.7,5.6,8.7c-0.9,4-4.7,6.4-8.7,5.6
		c-4-0.9-6.5-4.7-5.6-8.7C392.4,377.1,395.5,374.8,398.9,374.9L398.9,374.9z M211.6,375.1c-2.2-0.1-4.4,0.3-6.6,1.1l-14.6,5.7
		c-8.6,3.3-13,13.2-9.6,21.9l5.7,14.6c3.3,8.6,13.2,13,21.8,9.6l14.6-5.7c8.6-3.3,13-13.2,9.7-21.8l-5.7-14.6
		C224.4,379.4,218.2,375.3,211.6,375.1L211.6,375.1z M510.5,378.8c1.6,0,3.2,0.4,4.7,1.4c4,2.6,5,7.7,2.4,11.7L501.9,416
		c-2.6,4-7.7,5-11.7,2.4c-4-2.6-5-7.7-2.4-11.7l15.8-24.1C505.3,380.2,507.9,378.9,510.5,378.8L510.5,378.8z M74,378.9l6.3,1.8
		c0.5,0.1,0.7,0.6,0.5,1.1l-1.8,6.3c-0.1,0.5-0.5,0.7-1,0.6l-6.3-1.8c-0.5-0.1-0.7-0.6-0.6-1.1l1.8-6.3
		C73.1,379,73.5,378.8,74,378.9L74,378.9z M298.9,382.2c0.6-0.1,1.2,0,1.9,0.1l12.2,3.4c2.5,0.7,3.9,3.2,3.2,5.8l-3.4,12.2
		c-0.7,2.5-3.2,3.9-5.8,3.2l-12.2-3.4c-2.5-0.7-3.9-3.2-3.2-5.8l3.4-12.3C295.5,383.6,297.1,382.4,298.9,382.2L298.9,382.2z
		 M211.3,385.3c2.6,0.1,4.9,1.6,5.9,4.2l5.7,14.6c1.3,3.5-0.3,7.2-3.8,8.6l-14.6,5.7c-3.5,1.3-7.2-0.3-8.6-3.8l-5.7-14.6
		c-1.3-3.5,0.3-7.2,3.8-8.6l14.6-5.7C209.6,385.5,210.5,385.3,211.3,385.3L211.3,385.3z M301.3,385.8L301.3,385.8
		c-2-0.1-3.6,1.4-3.8,3.3c-0.2,2,1.3,3.9,3.3,4.1c1,0.1,2-0.2,2.7-0.8c0.8-0.6,1.3-1.5,1.4-2.5c0.2-2-1.3-3.9-3.3-4.1
		C301.5,385.8,301.4,385.8,301.3,385.8L301.3,385.8z M372.8,387.7c0.5,0,1,0.1,1.5,0.2c4,0.9,6.4,4.7,5.6,8.7
		c-0.9,4-4.7,6.4-8.7,5.6c-4-0.9-6.4-4.7-5.6-8.7C366.4,390,369.4,387.7,372.8,387.7L372.8,387.7z M207.7,389.2L207.7,389.2
		c-2.3,0-4.1,1.8-4.3,4c-0.2,2.4,1.6,4.4,4,4.6c1.1,0.1,2.3-0.3,3.1-1c0.9-0.8,1.4-1.8,1.5-3s-0.3-2.3-1.1-3.1
		c-0.8-0.9-1.8-1.4-3-1.5C207.9,389.2,207.8,389.2,207.7,389.2L207.7,389.2z M165,394.3c-1,0-2.1,0.1-3.1,0.2l-14,2.6
		c-8.4,1.5-14,9.7-12.5,18.1l2.6,14c1.5,8.4,9.7,14,18.1,12.5l14-2.6c8.4-1.5,14-9.7,12.5-18.1l-2.6-14
		C178.7,399.6,172.2,394.4,165,394.3L165,394.3z M396.9,403.8c0.5,0,1,0.1,1.5,0.2c4,0.9,6.4,4.7,5.6,8.7c-0.9,4-4.7,6.4-8.7,5.6
		c-4-0.9-6.5-4.7-5.6-8.7C390.5,406,393.5,403.7,396.9,403.8L396.9,403.8z M163.7,404.1c3.2-0.6,6.2,1.4,6.8,4.6l2.6,14
		c0.6,3.2-1.5,6.2-4.7,6.8l-14,2.6c-3.2,0.6-6.1-1.4-6.7-4.6l-2.6-14c-0.6-3.2,1.4-6.1,4.6-6.7L163.7,404.1z M163.7,409.3
		L163.7,409.3c-1.3,0-2.4,1-2.6,2.3c-0.2,1.5,0.8,2.8,2.3,3s2.8-0.8,3-2.3c0.1-0.7-0.1-1.4-0.5-2c-0.4-0.6-1.1-0.9-1.8-1
		C164,409.3,163.8,409.3,163.7,409.3L163.7,409.3z M276.9,409.5c-3.7,0.3-7.2,2.1-9.8,5.1l-8.2,9.8c-5.1,6.1-4.2,15.2,1.8,20.3
		l9.8,8.2c6.1,5.1,15.2,4.2,20.3-1.8l8.1-9.8c5.1-6.1,4.2-15.2-1.8-20.3l-9.8-8.1C284.3,410.2,280.5,409.1,276.9,409.5L276.9,409.5z
		 M118.6,415.5c-2.7-0.1-5.5,0.6-8,2.2l-10.5,6.7c-6.6,4.2-8.5,13-4.4,19.6l6.7,10.5c4.2,6.6,13,8.5,19.6,4.4l10.5-6.7
		c6.6-4.2,8.5-13,4.4-19.6l-6.7-10.5C127.6,417.9,123.1,415.6,118.6,415.5L118.6,415.5z M371.6,416.8c0.5,0,1,0.1,1.5,0.2
		c4,0.9,6.4,4.7,5.6,8.7c-0.9,4-4.7,6.5-8.7,5.6c-4-0.9-6.4-4.7-5.6-8.7C365.1,419,368.1,416.7,371.6,416.8L371.6,416.8z
		 M165.3,417.1L165.3,417.1c-0.9,0-1.7,0.7-1.8,1.6c-0.1,1,0.6,2,1.6,2.1c0.5,0.1,1-0.1,1.4-0.4c0.4-0.3,0.7-0.8,0.7-1.2
		c0.1-1-0.6-2-1.6-2.1C165.5,417.1,165.4,417.1,165.3,417.1L165.3,417.1z M277.7,419.1c1.2-0.1,2.4,0.2,3.4,1.1l9.8,8.2
		c2,1.7,2.3,4.5,0.6,6.6l-8.1,9.8c-1.7,2-4.6,2.3-6.6,0.6l-9.8-8.2c-2-1.7-2.2-4.5-0.6-6.6l8.2-9.8
		C275.4,419.8,276.5,419.2,277.7,419.1L277.7,419.1z M275.7,425c-1.2,0-2.3,0.7-2.7,1.9c-0.4,1.4,0.3,2.9,1.8,3.4
		c0.7,0.2,1.4,0.2,2.1-0.2c0.6-0.3,1.1-0.9,1.3-1.6c0.2-0.7,0.2-1.4-0.2-2.1c-0.3-0.6-0.9-1.1-1.6-1.3
		C276.2,425,275.9,425,275.7,425L275.7,425z M281.8,425.1c-0.8,0.1-1.4,0.6-1.7,1.3c-0.3,1,0.2,2.1,1.2,2.4c0.5,0.2,1,0.1,1.4-0.1
		c0.4-0.2,0.8-0.6,0.9-1.1c0.3-1-0.2-2.1-1.2-2.4C282.3,425.1,282,425.1,281.8,425.1L281.8,425.1z M117.5,425.2
		c1.7-0.3,3.5,0.4,4.5,2l6.7,10.5c1.4,2.1,0.7,4.8-1.4,6.1l-10.5,6.7c-2.1,1.4-4.8,0.8-6.1-1.4l-6.7-10.5c-1.4-2.1-0.8-4.8,1.3-6.1
		l10.5-6.7C116.3,425.5,116.9,425.3,117.5,425.2L117.5,425.2z M475.7,432.2c1.1,0,2.2,0.2,3.3,0.6c4.4,1.8,6.4,6.6,4.7,11
		l-10.8,26.8c-1.8,4.4-6.6,6.4-11,4.7c-4.4-1.8-6.4-6.5-4.6-11l10.8-26.8C469.4,434.2,472.4,432.2,475.7,432.2L475.7,432.2z
		 M246.5,437.6c-2.6,0-5.2,0.7-7.6,2.2l-9.6,6.3c-6.2,4-8,12.5-3.9,18.6l6.3,9.6c4,6.2,12.5,8,18.6,3.9l9.6-6.3
		c6.2-4,8-12.5,3.9-18.6l-6.3-9.6C255.1,439.8,250.9,437.7,246.5,437.6L246.5,437.6z M84.9,444.7c-3.2,0-6.5,1.2-8.9,3.6l-7.6,7.5
		c-4.9,4.8-4.9,12.9-0.1,17.8l7.4,7.5c4.8,4.9,12.9,5,17.8,0.1l7.6-7.5c4.9-4.8,4.9-12.9,0.1-17.8l-7.4-7.5
		C91.3,446,88.1,444.8,84.9,444.7L84.9,444.7z M245.7,447.4c1.4-0.3,2.9,0.3,3.8,1.6l6.3,9.6c1.2,1.8,0.6,4-1.1,5.2l-9.6,6.3
		c-1.8,1.2-4,0.7-5.2-1.1l-6.3-9.6c-1.2-1.8-0.7-4,1.1-5.2l9.6-6.3C244.8,447.7,245.2,447.5,245.7,447.4L245.7,447.4z M84.8,453.9
		c0.8,0,1.7,0.3,2.4,1l7.4,7.5c1.3,1.4,1.4,3.4,0,4.8l-7.6,7.5c-1.4,1.3-3.4,1.3-4.8-0.1l-7.4-7.5c-1.3-1.4-1.3-3.4,0-4.7l7.6-7.5
		C83.1,454.2,84,453.9,84.8,453.9L84.8,453.9z M212.8,458.4c-1.6,0-3.3,0.3-4.9,0.9l-9.9,4c-6.4,2.6-9.5,10-6.9,16.4l4,9.9
		c2.6,6.4,10,9.5,16.4,6.9l9.9-4c6.4-2.6,9.5-10,6.9-16.4l-4-9.9C222.3,461.4,217.7,458.5,212.8,458.4L212.8,458.4z M212.7,467.6
		c1.3,0,2.5,0.8,3.1,2.1l4,9.9c0.7,1.8-0.1,3.7-1.9,4.4l-9.9,4c-1.8,0.7-3.7-0.1-4.4-1.9l-4-9.9c-0.7-1.8,0.1-3.7,1.9-4.4l9.9-4
		C211.8,467.6,212.3,467.5,212.7,467.6L212.7,467.6z M353.1,468.2c-7.8-0.1-14.9,5.4-16.6,13.3c-2,9,3.8,18,12.8,20
		c9,2,18-3.8,20-12.8c2-9-3.9-18.1-12.9-20C355.4,468.3,354.2,468.2,353.1,468.2L353.1,468.2z M353,477.7c0.5,0,1,0.1,1.5,0.2
		c4,0.9,6.5,4.7,5.6,8.7c-0.9,4-4.7,6.4-8.7,5.6c-4-0.9-6.4-4.7-5.6-8.7C346.6,480,349.6,477.6,353,477.7L353,477.7z M177.7,479.9
		c-2.3,0.2-4.5,1.1-6.4,2.6l-7.4,6.1c-5,4.1-5.7,11.6-1.6,16.6l6.1,7.4c4.1,5,11.6,5.7,16.6,1.6l7.4-6.1c5-4.1,5.7-11.6,1.6-16.6
		l-6.1-7.4C185.4,481,181.5,479.5,177.7,479.9L177.7,479.9z M446.3,487.8c1.6,0.1,3.2,0.8,4.6,1.9c3.7,3,4.2,8.2,1.2,11.9L433.9,524
		c-3,3.7-8.2,4.2-11.8,1.2c-3.7-3-4.2-8.1-1.2-11.8L439,491C440.9,488.7,443.6,487.6,446.3,487.8L446.3,487.8z M179.1,489
		c0.7,0.1,1.3,0.4,1.8,1l6.1,7.4c1,1.2,0.8,2.7-0.4,3.7l-7.4,6.1c-1.2,1-2.7,0.8-3.7-0.3l-6.1-7.4c-1-1.2-0.8-2.7,0.4-3.7l7.4-6.1
		C177.7,489.1,178.4,488.9,179.1,489L179.1,489z M293.7,489.8c-5.2,0.5-9.5,4.6-10.1,10c-0.6,6.1,3.8,11.7,10,12.3
		c6.1,0.6,11.7-3.9,12.3-10c0.6-6.1-3.8-11.7-10-12.3C295.2,489.8,294.4,489.8,293.7,489.8L293.7,489.8z M295.2,496.2
		c2.7,0.3,4.6,2.6,4.3,5.3c-0.3,2.7-2.6,4.6-5.3,4.3c-2.7-0.3-4.6-2.6-4.3-5.3C290.2,497.8,292.5,495.9,295.2,496.2L295.2,496.2z
		 M156.2,511.4c-4.5-0.4-8.9,2.5-10.2,6.9l-2.1,7.2c-1.5,5.1,1.5,10.6,6.6,12.1l7.2,2.1c5.1,1.5,10.6-1.4,12.1-6.5l2.1-7.3
		c1.5-5.1-1.5-10.6-6.6-12.1l-7.3-2.1C157.5,511.6,156.9,511.4,156.2,511.4L156.2,511.4z M44.6,517.6c-6.1,0-11.2,5.1-11.2,11.2
		c0,6.1,5.1,11.2,11.2,11.2c1.4,0,2.7-0.3,3.9-0.7c-0.6,6.1,3.9,11.6,10,12.2c6.1,0.6,11.7-3.9,12.3-10c0.6-6.1-3.8-11.7-10-12.3
		c-1.8-0.2-3.5,0.1-5.1,0.7c0-0.4,0.1-0.7,0.1-1.1C55.8,522.7,50.8,517.6,44.6,517.6L44.6,517.6z M155.8,519.5l7.2,2.1
		c0.9,0.3,1.4,1.1,1.1,2L162,531c-0.3,0.9-1.1,1.4-2,1.1l-7.3-2.1c-0.9-0.3-1.4-1.1-1.1-2l2.1-7.3
		C154.1,519.7,154.9,519.2,155.8,519.5L155.8,519.5z M44.6,524.2c2.6,0,4.7,2,4.7,4.7c0,2.6-2.1,4.7-4.7,4.7s-4.7-2.1-4.7-4.7
		C39.9,526.2,42,524.2,44.6,524.2z M400.4,532.4c3.3-0.1,6.4,1.7,7.9,4.9c2,4.3,0.2,9.2-4.2,11.2l-26.2,12c-4.3,2-9.2,0.2-11.2-4.2
		c-2-4.3-0.1-9.2,4.2-11.1l26.2-12C398.2,532.7,399.3,532.5,400.4,532.4L400.4,532.4z M60.1,535.7c2.6,0.3,4.5,2.5,4.2,5.1
		c-0.3,2.6-2.6,4.5-5.2,4.2c-2.6-0.3-4.5-2.6-4.2-5.2C55.2,537.3,57.5,535.5,60.1,535.7L60.1,535.7z"/>
</g>
</svg>
