<?xml version="1.0" encoding="utf-8"?>
<!-- Generator: Adobe Illustrator 25.3.1, SVG Export Plug-In . SVG Version: 6.00 Build 0)  -->
<svg version="1.1" xmlns="http://www.w3.org/2000/svg" xmlns:xlink="http://www.w3.org/1999/xlink" x="0px" y="0px"
	 viewBox="0 0 1920 824.8" style="enable-background:new 0 0 1920 824.8;" xml:space="preserve">
<style type="text/css">
	.st0{fill:#DEFBFE;}
	.st1{fill:#B8F6FD;}
	.st2{fill:#7DF0FD;}
	.st3{fill:#04C4D9;}
	.st4{fill:#0378A6;}
	.st5{fill:#03588C;}
	.st6{fill:#04C4D9;stroke:#04C4D9;stroke-width:3;stroke-miterlimit:10;}
	.st7{fill:#012941;}
	.st8{fill:#F15A24;}
	.st9{display:none;}
	.st10{display:inline;fill:none;stroke:#000000;stroke-width:3;stroke-miterlimit:10;}
	.st11{fill:#F1FDFF;}
	.st12{fill:#FCD7CA;}
	.st13{fill:none;}
	.st14{font-family:'SourceSansPro-Regular';}
	.st15{font-size:48px;}
	.st16{font-size:40px;}
</style>
<g id="Calque_3">
	<rect y="58.8" class="st0" width="910.9" height="766"/>
	<path class="st1" d="M0,58.8v766h375.1c34.2-93.5,66.4-188.1,86.3-285.5c32.3-158.1,31.4-322.7-2.6-480.5H0z"/>
	<path class="st2" d="M167.5,60.4c-45.6,2.5-80.3,24.9-94.4,48.3c-91.2,150.7-13.5,716.2-13.5,716.2h193.5c-7.2-18.1-0.9-46,8-63.2
		c51.6-99.5,131.3-182.4,169.6-288.4c39.9-110.7,28.5-240.8-30.2-341.7c-14.4-24.8-36.8-54.9-55.5-63.7c-18.1-8.5-32.8-9-78.9-9"/>
	<path class="st3" d="M105.7,326.6c16.8-37.8,35.9-78.3,72.3-98c22.2-12,48.2-14.7,73.5-14.1c16.7,0.4,33.4,2,49.4,6.8
		c36.4,10.8,67.3,37.7,85.1,71.3c17.9,33.5,23.1,73.2,17,110.7c-11,67.9-60.2,128.2-124.5,152.7c-42.1,16-91.6,16.5-130.6-6
		c-40.7-23.5-65.5-69.9-68.5-116.8C76.4,386.1,98.5,342.9,105.7,326.6z"/>
	<path class="st4" d="M175.9,309.7c20.6-24.9,57.6-33.5,88.1-22.8c30.5,10.7,53.4,38.8,60.7,70.3c4.2,18.2,3.5,37.5-1.9,55.4
		c-10.8,35.7-40.5,64.1-75.3,77.7c-17.6,6.9-37,10.4-55.7,7.1c-18.7-3.3-36.5-13.9-46-30.4c-8-13.9-9.6-30.7-8.5-46.7
		C140.5,374.8,160.4,328.4,175.9,309.7z"/>
	<path class="st5" d="M211.8,355.3c4.8-7,9.7-14.1,16.4-19.2c6.7-5.2,15.7-8.1,23.8-5.7c13.5,4,18.9,20.1,20,34.2
		c1.5,17.4-0.6,35.4-8.1,51.2c-7.5,15.8-20.8,29.2-37.4,34.6c-13,4.3-29.5,2.5-37.2-8.8c-6.1-9-4.9-21-2.2-31.5
		C192.8,388.9,202.7,368.6,211.8,355.3z"/>
	<path class="st2" d="M910.9,824.8H627.3c6.6-51.8-20.7-85.6-44.8-132c-33-63.4-63.8-128.9-77.5-199c-15.9-81.3-8-165.7,10.8-246.4
		c15.2-65,37.4-128.4,66.1-188.7h329"/>
	<path class="st6" d="M626.6,166.6c46.1-27.6,107.9-20.7,152.1,9.8s71.7,81.3,82.4,133.9c11.3,55.7,4.8,115.7-22.8,165.3
		s-77,87.8-133.1,97.1c-15.7,2.6-32.2,2.9-47.3-2.1c-11.7-3.9-22.1-10.9-31.8-18.5C567.9,505.8,533.9,430.3,538,356
		C542.2,281.6,574.4,197.9,626.6,166.6z"/>
	<path class="st4" d="M595.5,365.2c13.8-39.9,29.4-82.1,63.3-107.3c15.6-11.6,35.9-18.8,54.5-13.5c17.3,5,30,19.7,40.4,34.4
		c18.6,26.4,33.4,55.5,43.9,86c8.1,23.6,13.4,50.6,1.9,72.8c-14,27.2-47.6,37.2-77.9,40.9c-22.9,2.8-46,3.5-69,2.2
		c-10.8-0.6-22.1-1.8-31.4-7.5c-7.5-4.6-13.2-11.7-17.7-19.3C584.9,423.5,588.2,386.3,595.5,365.2z"/>
	<path class="st5" d="M656.3,351c10.9-15.2,24.2-28.6,39.4-39.5c22.4,11.1,33.8,36.7,38.5,61.3c2.3,12.3,3.2,25.6-2.6,36.7
		c-4.5,8.4-12.4,14.4-20.6,19.1c-17.4,9.8-37.5,14.6-57.4,13.7c-9.4-0.4-19.6-2.5-25.6-9.8c-8.2-9.9-5.1-24.7-0.2-36.6
		C636.6,373.9,650.3,353.9,656.3,351z"/>
	<path class="st7" d="M653.3,398.3c13-17.9,28.7-33.8,46.5-47c10.8,8.4,13.7,24.6,8.6,37.3s-16.7,22-29.5,26.8
		c-6.6,2.5-14.4,3.8-20.4,0C652.5,411.7,651.2,401.2,653.3,398.3z"/>
	<path class="st8" d="M328.7,315.3c2.2-21.8-2.6-44.2-13.7-63.2c-6.3-10.8-14.8-23.1-9.8-34.5c3.5-7.9,12.8-12,21.5-11.9
		s16.9,3.6,24.9,7c21.1,9,42.1,18.1,63.2,27.1c24.6,10.5,51.7,23.8,60.3,49.1c7,20.7-0.8,43.5-10.5,63.1
		c-11.4,23.2-25.8,45.4-46,61.5c-20.2,16.1-46.7,25.6-72.1,21c-16.2-2.9-32.6-13-36.9-29c-4.9-18.1,6.7-35.9,13.1-53.5
		C328.3,336.7,328.2,320.2,328.7,315.3z"/>
</g>
<g id="Calque_5">
	<g id="Calque_1" class="st9">
		<path class="st10" d="M294.7,266.1c16.8-37.8,35.9-78.3,72.3-98c22.2-12,48.2-14.7,73.5-14.1c16.7,0.4,33.4,2,49.4,6.8
			c36.4,10.8,67.3,37.7,85.1,71.3c17.9,33.5,23.1,73.2,17,110.7c-11,67.9-60.2,128.2-124.5,152.7c-42.1,16-91.6,16.5-130.6-6
			c-40.7-23.5-65.5-69.9-68.5-116.8S287.5,282.4,294.7,266.1z"/>
		<path class="st10" d="M364.9,249.1c20.6-24.9,57.6-33.5,88.1-22.8c30.5,10.7,53.4,38.8,60.7,70.3c4.2,18.2,3.5,37.5-1.9,55.4
			c-10.8,35.7-40.5,64.1-75.3,77.7c-17.6,6.9-37,10.4-55.7,7.1c-18.7-3.3-36.5-13.9-46-30.4c-8-13.9-9.6-30.7-8.5-46.7
			C329.5,314.2,349.4,267.8,364.9,249.1z"/>
		<path class="st10" d="M400.9,294.8c4.8-7,9.7-14.1,16.4-19.2s15.7-8.1,23.8-5.7c13.5,4,18.9,20.1,20,34.2
			c1.5,17.4-0.6,35.4-8.1,51.2c-7.5,15.8-20.8,29.2-37.4,34.6c-13,4.3-29.5,2.5-37.2-8.8c-6.1-9-4.9-21-2.2-31.5
			C381.8,328.3,391.8,308,400.9,294.8z"/>
		<path class="st10" d="M815.6,106c46.1-27.6,107.9-20.7,152.1,9.8s71.7,81.3,82.4,133.9c11.3,55.7,4.8,115.7-22.8,165.3
			s-77,87.8-133.1,97.1c-15.7,2.6-32.2,2.9-47.3-2.1c-11.7-3.9-22.1-10.9-31.8-18.5c-58.4-46.2-92.4-121.7-88.2-196.1
			C731.2,221.1,763.4,137.4,815.6,106z"/>
		<path class="st10" d="M784.6,304.7c13.8-39.9,29.4-82.1,63.3-107.3c15.6-11.6,35.9-18.8,54.5-13.5c17.3,5,30,19.7,40.4,34.4
			c18.6,26.4,33.4,55.5,43.9,86c8.1,23.6,13.4,50.6,1.9,72.8c-14,27.2-47.6,37.2-77.9,40.9c-22.9,2.8-46,3.5-69,2.2
			c-10.8-0.6-22.1-1.8-31.4-7.5c-7.5-4.6-13.2-11.7-17.7-19.3C774,362.9,777.3,325.8,784.6,304.7z"/>
		<path class="st10" d="M845.3,290.5c10.9-15.2,24.2-28.6,39.4-39.5c22.4,11.1,33.8,36.7,38.5,61.3c2.3,12.3,3.2,25.6-2.6,36.7
			c-4.5,8.4-12.4,14.4-20.6,19.1c-17.4,9.8-37.5,14.6-57.4,13.7c-9.4-0.4-19.6-2.5-25.6-9.8c-8.2-9.9-5.1-24.7-0.2-36.6
			C825.7,313.3,839.3,293.4,845.3,290.5z"/>
		<path class="st10" d="M842.3,337.8c13-17.9,28.7-33.8,46.5-47c10.8,8.4,13.7,24.6,8.6,37.3s-16.7,22-29.5,26.8
			c-6.6,2.5-14.4,3.8-20.4,0C841.5,351.1,840.2,340.6,842.3,337.8z"/>
		<path class="st10" d="M455.1,41.6c25.2-11.1,55.4-5.8,78.9,8.5s41.1,36.6,55.5,60c58.6,95.2,70.1,218,30.2,322.4
			c-38.3,100.1-118,178.2-169.6,272.1c-8.9,16.2-17.1,35.6-9.9,52.6"/>
		<path class="st10" d="M770.9-17.6C742.2,42.6,720,106,704.8,171C686,251.7,678.1,336.1,694,417.4c13.7,70.1,44.5,135.6,77.5,199
			c24.1,46.4,50.4,96,43.8,147.9"/>
		<path class="st10" d="M638.8-25.2c35.9,170.2,36.9,347.7,2.8,518.3c-21,105.1-55.1,207.1-91.2,308"/>
	</g>
	<g id="Calque_2">
		<g id="Calque_4">
			<rect x="1002.9" y="58.8" class="st11" width="910" height="766"/>
			<rect x="1002.9" y="58.8" class="st2" width="364.8" height="766"/>
		</g>
		<path class="st1" d="M1912.9,702.8L1804.5,692c-121.8-20-226.5-110.1-288.3-221.8c-13.6-24.5-25.4-50.3-32.3-77.6
			c-18.2-72.3,0.3-151.4,39.4-214c39.1-62.6,96.4-83.5,158.8-119.8h230.9"/>
		<path class="st2" d="M1743.1,185.8c-31.3-4.1-62.9,13.2-82.5,39.1s-28.3,59.3-30.3,92.3c-3,48.2,8.4,98.6,38.1,135.6
			c29.7,36.9,79.3,57.7,123.7,44.9c56.9-16.4,90.2-80.1,98.9-141.2c4.6-32.5,3.9-67-10-96.4C1856.3,208,1796.2,184.5,1743.1,185.8z"
			/>
		<path class="st3" d="M1078.4,260.3c26.7-13.6,55.4-24.1,85.1-25.1c29.7-1,60.5,8.3,81.9,29.9c31.2,31.6,36.5,83.4,25.3,127.3
			c-5.2,20.5-13.7,40.4-26.8,56.6c-13.3,16.5-30.8,28.8-49.1,38.7c-41,22.2-93.3,32.5-131.6,5.7c-24-16.8-38.4-45.9-43.2-75.7
			C1009.6,352.2,1044.9,277.4,1078.4,260.3z"/>
		<path class="st3" d="M1738.7,246.6c-20.5,40.7-41.5,82.8-45.5,128.6c-1.1,12.8-0.2,27.4,9.1,35.8c5.3,4.7,12.3,6.6,19.1,8
			c28.1,6.1,57.1,8.2,85.7,6.3c6.5-0.4,13.1-1.1,19.1-3.7c8.2-3.6,14.6-10.6,19.7-18.1c22.2-32.4,23.8-78.5,5-113.1
			s-56.7-56.6-94.8-56.2C1747.8,234.1,1737.1,238,1738.7,246.6z"/>
		<path class="st5" d="M1057.2,380.2c15-20.6,30.7-40.9,50-57.2c19.2-16.3,42.3-28.4,67-30.6c11.6-1,23.7,0.4,33.6,6.9
			c18.8,12.4,23.5,40.3,16.3,62.3c-7.2,22-23.5,39.2-39.9,54.9c-23.2,22.3-49,44.1-79.9,50.5c-14.6,3-30.8,2.1-42.9-6.9
			c-16-12-20.8-36-15.1-55.7C1051.7,384.7,1065.9,368.8,1057.2,380.2z"/>
		<path class="st5" d="M1769.2,295c-9.9,12.8-18.6,26.6-26,41.2c-4,7.9-7.7,16.9-5.3,25.5c3.9,14.5,21.6,18.6,36,18.9
			c14.9,0.3,31-1.1,42.4-11.2c10.6-9.3,15-24.8,13.9-39.2c-1.7-22.9-19.6-45.5-41.6-44.9C1779.9,285.6,1771.8,291.7,1769.2,295z"/>
		<path class="st7" d="M1786.2,311.6c-10.2,13.6-17.4,29.6-21,46.4c9.4,1.9,19.3,2.4,28.5-0.5s17.6-9.5,21.3-18.8s1.8-21.2-5.7-27.5
			C1801.9,304.9,1789.9,306.6,1786.2,311.6z"/>
		<path class="st7" d="M1092.4,388.3c20.1-22.4,46.9-41.6,76.3-39.9c5,0.3,11.1,2.2,12.1,7.4c0.7,3.4-1.3,6.8-3.2,9.6
			c-16.1,23.4-39,41.6-64.8,51.6c-5.5,2.1-11.3,3.9-17,2.9c-5.8-1-11.3-5.4-12.1-11.4c-0.5-4.1,1.2-8.1,3.2-11.6
			C1092.3,386.6,1100,377.7,1092.4,388.3z"/>
		<path class="st1" d="M1002.9,58.8"/>
		<path class="st1" d="M1002.9,58.8v93.8l38.3-6.8c67.4-9.4,138.5-7.4,200.1,22.8s111.7,93,114,164.2c0.8,24-3.8,47.9-9.8,71.1
			c-19,72.5-53.3,140.6-99.8,197.9c-30.3,37.3-65.5,70-94.3,108.5c-28.8,38.5-50.6,65.8-49.3,114.7h-99.1h542.2
			c5.8-14.6,5.5-40-16.8-111.6c-22.2-71.6-51.7-140.5-76.3-211.3c-54.2-155.6-75.3-277.6-81.2-443.1"/>
	</g>
	<path class="st8" d="M1115.7,246.4c38.6-1.6,73.4,22.6,101.7,48.8c16.5,15.2,32.8,33.2,35.8,55.4c4,29.6-17,57-41,74.9
		c-9.9,7.4-21,14-33.3,14.7c-20.7,1.2-38.6-14.2-50.7-31c-13.1-18.2-22.3-39-29.1-60.5c-6.1-19.3-10.2-39.9-6-59.6
		S1111.6,250.7,1115.7,246.4z"/>
	<path class="st12" d="M1293.1,297.9c2.2-21.8-2.6-44.2-13.7-63.2c-6.3-10.8-14.8-23.1-9.8-34.5c3.5-7.9,12.8-12,21.5-11.9
		c8.7,0.1,16.9,3.6,24.9,7c21.1,9,42.1,18.1,63.2,27.1c24.6,10.5,51.7,23.8,60.3,49.1c7,20.7-0.8,43.5-10.5,63.1
		c-11.4,23.2-25.8,45.4-46,61.5c-20.2,16.1-46.7,25.6-72.1,21c-16.2-2.9-32.6-13-36.9-29c-4.9-18.1,6.7-35.9,13.1-53.5
		C1292.8,319.4,1292.6,302.9,1293.1,297.9z"/>
</g>
<g id="Calque_6">
	<rect x="327.4" y="8.6" class="st13" width="403.4" height="57.2"/>
	<text transform="matrix(1 0 0 1 327.3987 42.7951)" class="st14 st15">Pre-Intervention</text>
	<rect x="1293.2" y="8.6" class="st13" width="403.4" height="57.2"/>
	<text transform="matrix(1 0 0 1 1293.1919 42.7951)" class="st14 st15">Post-Intervention</text>
	<rect x="518.8" y="754.2" class="st13" width="403.4" height="57.2"/>
	<text transform="matrix(1 0 0 1 518.8134 782.7153)" class="st5 st14 st16">Phenotype Fitness</text>
	<rect x="1552.5" y="754.2" class="st13" width="403.4" height="57.2"/>
	<text transform="matrix(1 0 0 1 1552.5055 782.7153)" class="st5 st14 st16">Changed Landscape</text>
	<rect x="1046.7" y="155.7" class="st13" width="206.4" height="99.9"/>
	<text transform="matrix(1 0 0 1 1046.7429 184.2025)"><tspan x="0" y="0" class="st8 st14 st16">Shifted</tspan><tspan x="0" y="48" class="st8 st14 st16">Community</tspan></text>
	<rect x="302.3" y="124.1" class="st13" width="206.4" height="99.9"/>
	<text transform="matrix(1 0 0 1 302.2711 152.5884)"><tspan x="0" y="0" class="st8 st14 st16">Original</tspan><tspan x="0" y="48" class="st8 st14 st16">Community</tspan></text>
	<rect x="1268.2" y="105.3" class="st13" width="206.4" height="99.9"/>
	<text transform="matrix(1 0 0 1 1268.1644 133.7496)"><tspan x="0" y="0" class="st12 st14 st16">Original</tspan><tspan x="0" y="48" class="st12 st14 st16">Community</tspan></text>
</g>
</svg>
