<svg xmlns="http://www.w3.org/2000/svg" viewBox="0 0 1892.03 819.32"><defs><style>.cls-1{fill:#defbfe;}.cls-2{fill:#a4f4fd;}.cls-10,.cls-3{fill:#04c4d9;}.cls-4{fill:#0378a6;}.cls-12,.cls-5{fill:#03588c;}.cls-6{fill:#012941;}.cls-7{fill:#caf9fe;}.cls-8{fill:#b8f6fd;}.cls-9{fill:#7df0fd;}.cls-10{stroke:#04c4d9;stroke-miterlimit:10;stroke-width:3px;}.cls-11,.cls-12,.cls-28{font-size:40px;}.cls-11,.cls-14{fill:#f15a24;}.cls-11,.cls-12,.cls-16,.cls-28{font-family:SourceSansPro-Regular, Source Sans Pro;}.cls-13{letter-spacing:-0.02em;}.cls-15,.cls-28{fill:#fcd7ca;}.cls-16{font-size:48px;}.cls-17{letter-spacing:-0.01em;}.cls-18{letter-spacing:0.01em;}.cls-19{letter-spacing:-0.01em;}.cls-20{letter-spacing:0.02em;}.cls-21{letter-spacing:0em;}.cls-22{letter-spacing:-0.02em;}.cls-23{letter-spacing:-0.02em;}.cls-24{letter-spacing:-0.03em;}.cls-25{letter-spacing:-0.01em;}.cls-26{letter-spacing:-0.01em;}.cls-27{letter-spacing:-0.01em;}</style></defs><g id="Calque_2" data-name="Calque 2"><rect class="cls-1" x="929.5" y="53.28" width="910.91" height="765.66"/><path class="cls-2" d="M1458.4,800.7c31-137.8,14.84-285.76-63-409.24s-220.93-219.1-383.14-238.23l-82.81-8.07V818.33h525.26Z" transform="translate(0 0.6)"/><path class="cls-3" d="M1232.58,796.51c50.36-62.55,92.41-131.44,109.47-206s7.22-155.57-39.74-220c-38.9-53.39-102.46-93.17-173.64-108.67-59.41-12.93-131.75-5.34-167.24,37.5L929.5,330V818.33H1213" transform="translate(0 0.6)"/><path class="cls-4" d="M1005.86,476.64c14.17-22.95,29.86-47.23,56.67-59.32,22.33-10.06,49.62-9.9,73.55-3.07,41.81,11.93,74,43.18,88.49,78.84s12.76,75.15,1.27,111.61c-8.72,27.71-24,55.3-51,72.25-15.67,9.84-34.63,15.56-54,17.29-45,4-91.79-14.89-116.81-47.21-22-28.47-26.9-64.71-21.4-98.54S1002.39,482.26,1005.86,476.64Z" transform="translate(0 0.6)"/><path class="cls-5" d="M1038.74,558.17a205,205,0,0,1,16.18-52.84c5.1-11.11,11.82-22.47,23.68-28.73,16.75-8.83,39.75-4.51,54.54,6.59s22.66,27.52,27.28,43.9a153.73,153.73,0,0,1-8.5,105.73c-7.09,15.48-18.09,31.12-36.09,37.32-20.88,7.18-45.94-1.15-60.25-16s-19.43-34.86-19.92-54.14A244.16,244.16,0,0,1,1038.74,558.17Z" transform="translate(0 0.6)"/><path class="cls-6" d="M1096,538.29c13.77-.36,26.46,7.88,32.79,18.36s7.22,22.79,6,34.54c-.92,8.95-3.09,18.07-8.83,25.59s-15.62,13.19-26.09,12.77c-10.66-.42-20-7.1-24.73-15.31s-5.42-17.69-4.64-26.81C1072,569.49,1079,551.92,1096,538.29Z" transform="translate(0 0.6)"/><path class="cls-7" d="M1680.59,818.33c-173.41-103.21-136.33-237.19-210.44-406.62-55.64-127.21-97-223.23-92.87-359H1840.4V818.33Z" transform="translate(0 0.6)"/><path class="cls-2" d="M1569.39,52.31c-35.76,51.41-59.88,68.42-72.62,127.27-10.16,46.94-6.47,95.27.51,142.63,13.49,91.63,39.43,182.61,86.54,265.67S1700,746,1789.53,797.44l50.87,20.89V52.67" transform="translate(0 0.6)"/><path class="cls-3" d="M1613.19,121.51c-40.82,31.72-64.38,77.1-75.67,123.32-6.41,26.26-9.17,53.69-2,79.81,6.47,23.64,20.82,45.24,37.89,64.63a314.4,314.4,0,0,0,60.46,52.8c11.89,8,24.81,15.46,39.53,18.42,35.06,7,69.88-13.07,93.5-36.35,69.6-68.58,82.08-175.43,29.72-254.48-19.38-29.26-48.68-55.72-86.58-64.5S1626.52,111.16,1613.19,121.51Z" transform="translate(0 0.6)"/><path class="cls-4" d="M1683.55,188.67c-52.29,21.85-89.57,68.09-94.93,117.74-1.6,14.86-.33,30.53,8.29,43.5,11,16.64,32.82,26.43,54.85,29.62s44.58.63,66.66-2.23c11.4-1.47,23.06-3.11,33.1-8,12.89-6.23,21.81-17.18,28.16-28.64,23.92-43.23,13.91-98.58-24.17-133.58-11.67-10.72-26.33-19.85-43.22-22.26S1676.23,188.16,1683.55,188.67Z" transform="translate(0 0.6)"/><path class="cls-5" d="M1679.82,226.1a373.77,373.77,0,0,0-43.91,57.23c-8.43,13.56-15.85,30.29-7.06,43.68,6.34,9.68,19.43,14.51,32,17.15a162.18,162.18,0,0,0,46.5,2.86c9.68-.81,19.58-2.61,27.51-7.45,11.41-7,16.92-19.08,19.56-30.86,6.11-27.28-.36-56.48-17.69-79.95C1731,221,1723.38,213.47,1713,211.5,1696.15,208.33,1683.91,221.71,1679.82,226.1Z" transform="translate(0 0.6)"/><path class="cls-6" d="M1699.24,266.66c-10.56,4.5-21.43,9.21-29.06,16.92s-11.22,19.3-5.41,28.1c6.38,9.66,21.73,12.51,34.3,9.84,19.65-4.17,35.08-20,36.3-37.37.56-8-2.08-16.62-9.41-21.54S1709.82,262.16,1699.24,266.66Z" transform="translate(0 0.6)"/><rect class="cls-1" y="53.3" width="910.91" height="766.02"/><path class="cls-8" d="M0,52.7v766H375.05c34.2-93.55,66.43-188.12,86.32-285.55A1172.57,1172.57,0,0,0,458.74,52.7Z" transform="translate(0 0.6)"/><path class="cls-9" d="M167.51,54.25C122,56.76,87.26,79.18,73.11,102.56-18.13,253.27,59.62,818.72,59.62,818.72H253.08c-7.18-18.06-.87-46,8-63.21C312.68,656,392.45,573.14,430.7,467.08c39.93-110.7,28.46-240.8-30.15-341.74C386.13,100.49,363.71,70.48,345,61.69c-18.15-8.53-32.82-9-78.95-9" transform="translate(0 0.6)"/><path class="cls-3" d="M105.7,320.54c16.76-37.85,35.88-78.33,72.27-98.05,22.18-12,48.24-14.67,73.46-14.14,16.68.35,33.45,2,49.45,6.77,36.43,10.8,67.28,37.72,85.14,71.25s23.09,73.19,17,110.7c-11,67.87-60.2,128.22-124.47,152.65-42.1,16-91.56,16.48-130.58-6-40.71-23.48-65.47-69.87-68.54-116.77S98.48,336.83,105.7,320.54Z" transform="translate(0 0.6)"/><path class="cls-4" d="M175.9,303.57c20.6-24.88,57.65-33.47,88.12-22.77s53.4,38.81,60.66,70.28a108,108,0,0,1-1.9,55.35c-10.85,35.71-40.54,64.07-75.28,77.72-17.64,6.93-37,10.42-55.7,7.13s-36.49-13.93-46-30.35c-8-13.91-9.55-30.67-8.47-46.68C140.45,368.68,160.4,322.3,175.9,303.57Z" transform="translate(0 0.6)"/><path class="cls-5" d="M211.85,349.24c4.8-7,9.71-14.09,16.43-19.25s15.68-8.13,23.8-5.71c13.47,4,18.88,20.15,20,34.15,1.45,17.4-.57,35.38-8.06,51.15s-20.83,29.16-37.41,34.63c-13,4.28-29.47,2.47-37.17-8.83-6.11-9-4.91-21-2.18-31.5C192.79,382.75,202.74,362.49,211.85,349.24Z" transform="translate(0 0.6)"/><path class="cls-9" d="M910.91,818.72H627.28c6.55-51.85-20.7-85.64-44.83-132-33-63.38-63.83-128.9-77.53-199-15.87-81.28-8-165.7,10.84-246.35A929,929,0,0,1,581.88,52.7h329" transform="translate(0 0.6)"/><path class="cls-10" d="M626.61,160.47c46-27.64,107.95-20.75,152.15,9.77s71.69,81.25,82.38,133.89c11.3,55.67,4.79,115.66-22.77,165.34s-77,87.83-133.06,97.1c-15.72,2.6-32.16,2.94-47.27-2.11-11.68-3.9-22.11-10.86-31.77-18.51-58.39-46.23-92.35-121.71-88.22-196.06S574.39,191.81,626.61,160.47Z" transform="translate(0 0.6)"/><path class="cls-4" d="M595.52,359.12C609.28,319.24,625,277,658.84,251.86c15.59-11.56,35.89-18.82,54.55-13.46,17.34,5,30,19.66,40.37,34.41a343.07,343.07,0,0,1,43.9,86c8.11,23.63,13.37,50.63,1.92,72.83-14,27.18-47.59,37.23-77.94,41a385.54,385.54,0,0,1-69,2.21c-10.84-.62-22.09-1.84-31.38-7.47-7.54-4.57-13.18-11.72-17.75-19.26C584.92,417.4,588.24,380.24,595.52,359.12Z" transform="translate(0 0.6)"/><path class="cls-5" d="M656.3,344.91a171.32,171.32,0,0,1,39.43-39.55c22.39,11.15,33.82,36.72,38.45,61.3,2.32,12.28,3.23,25.64-2.65,36.67-4.46,8.38-12.36,14.41-20.63,19.06a108.42,108.42,0,0,1-57.41,13.74c-9.42-.4-19.64-2.51-25.64-9.79-8.17-9.91-5.07-24.74-.2-36.63C636.64,367.8,650.28,347.81,656.3,344.91Z" transform="translate(0 0.6)"/><path class="cls-6" d="M653.25,392.22a217.66,217.66,0,0,1,46.47-47c10.8,8.41,13.67,24.57,8.62,37.29s-16.7,22-29.52,26.8c-6.6,2.46-14.41,3.75-20.37,0S651.19,395.07,653.25,392.22Z" transform="translate(0 0.6)"/></g><g id="Calque_4" data-name="Calque 4"><text class="cls-11" transform="translate(302.27 147.09)">Original<tspan x="0" y="48">Community</tspan></text><text class="cls-12" transform="translate(544.91 790.64)">Phen<tspan class="cls-13" x="86.16" y="0">o</tspan><tspan x="107.16" y="0">type Fitness</tspan></text><path class="cls-14" d="M1508.75,239.62c5.72-8.31,7.24-18.19,10.93-27.31s10.85-18.36,21.88-20.3c12.36-2.19,23.9,5.49,33,12.94A438.32,438.32,0,0,1,1656,291.77c6.08,8.63,12,18.35,10.08,28.29-2.51,13-17.21,21.32-31.11,26.89-43.48,17.44-92.94,23.74-140.45,17.88-4.08-.5-8.52-1.26-11.14-4s-2.64-6.32-2.52-9.71C1482.46,303.16,1508.18,258.65,1508.75,239.62Z" transform="translate(0 0.6)"/><path class="cls-14" d="M328.66,309.16A105.44,105.44,0,0,0,315,246c-6.27-10.77-14.81-23.1-9.79-34.51,3.5-7.95,12.85-12,21.53-11.88s16.93,3.61,24.91,7l63.15,27.08c24.58,10.55,51.73,23.76,60.33,49.09,7,20.74-.79,43.47-10.46,63.12-11.4,23.15-25.84,45.37-46,61.49S372,433,346.57,428.4c-16.25-2.92-32.58-13-36.9-29-4.89-18.07,6.68-35.91,13.08-53.51C328.31,330.63,328.16,314.12,328.66,309.16Z" transform="translate(0 0.6)"/><path class="cls-15" d="M1259.93,308.78a105.43,105.43,0,0,0-13.67-63.18c-6.27-10.78-14.81-23.11-9.78-34.52,3.5-8,12.84-12,21.52-11.87s16.93,3.61,24.91,7l63.15,27.09c24.59,10.54,51.74,23.75,60.33,49.09,7,20.74-.78,43.46-10.46,63.11-11.4,23.15-25.84,45.38-46,61.5s-46.7,25.56-72.1,21c-16.24-2.93-32.58-13-36.9-29-4.89-18.08,6.69-35.92,13.08-53.52C1259.58,330.25,1259.43,313.74,1259.93,308.78Z" transform="translate(0 0.6)"/></g><g id="Calque_3" data-name="Calque 3"><text class="cls-16" transform="translate(343.19 40.22)">P<tspan class="cls-17" x="27.22" y="0">r</tspan><tspan class="cls-18" x="43.44" y="0">e</tspan><tspan x="67.73" y="0">-In</tspan><tspan class="cls-19" x="121.53" y="0">t</tspan><tspan x="137.13" y="0">e</tspan><tspan class="cls-20" x="160.94" y="0">r</tspan><tspan class="cls-21" x="178.84" y="0">v</tspan><tspan x="201.11" y="0">ention</tspan></text><text class="cls-16" transform="translate(1271.48 39.84)"><tspan class="cls-22">P</tspan><tspan x="26.06" y="0">o</tspan><tspan class="cls-23" x="52.08" y="0">s</tspan><tspan class="cls-24" x="71.23" y="0">t</tspan><tspan x="86.26" y="0">-In</tspan><tspan class="cls-25" x="140.06" y="0">t</tspan><tspan x="155.66" y="0">e</tspan><tspan class="cls-20" x="179.47" y="0">r</tspan><tspan class="cls-21" x="197.37" y="0">v</tspan><tspan x="219.64" y="0">ention</tspan></text><text class="cls-12" transform="translate(1488.59 790.26)">Chan<tspan class="cls-26" x="86.64" y="0">g</tspan><tspan x="106.28" y="0">ed Lands</tspan><tspan class="cls-27" x="256.76" y="0">c</tspan><tspan x="274.6" y="0">ape</tspan></text><text class="cls-11" transform="translate(1484.84 131.56)">Shi<tspan class="cls-26" x="53" y="0">ft</tspan><tspan x="76.24" y="0">ed</tspan><tspan x="0" y="48">Community</tspan></text><text class="cls-28" transform="translate(1227.62 124.28)">Original<tspan x="0" y="48">Community</tspan></text></g></svg>