<svg xmlns="http://www.w3.org/2000/svg" viewBox="0 0 1882.5 825.71"><defs><style>.cls-1{fill:#defbfe;}.cls-2{fill:#b8f6fd;}.cls-3{fill:#7df0fd;}.cls-4,.cls-7{fill:#04c4d9;}.cls-5{fill:#0378a6;}.cls-22,.cls-6{fill:#03588c;}.cls-7{stroke:#04c4d9;stroke-miterlimit:10;stroke-width:3px;}.cls-8{fill:#012941;}.cls-26,.cls-9{fill:#f15a24;}.cls-10{fill:#f1fdff;}.cls-11,.cls-27{fill:#fcd7ca;}.cls-12{font-size:48px;}.cls-12,.cls-22,.cls-26,.cls-27{font-family:SourceSansPro-Regular, Source Sans Pro;}.cls-13{letter-spacing:-0.01em;}.cls-14{letter-spacing:0.01em;}.cls-15{letter-spacing:-0.01em;}.cls-16{letter-spacing:0.02em;}.cls-17{letter-spacing:0em;}.cls-18{letter-spacing:-0.02em;}.cls-19{letter-spacing:-0.02em;}.cls-20{letter-spacing:-0.03em;}.cls-21{letter-spacing:-0.01em;}.cls-22,.cls-26,.cls-27{font-size:40px;}.cls-23{letter-spacing:-0.02em;}.cls-24{letter-spacing:-0.01em;}.cls-25{letter-spacing:-0.01em;}</style></defs><g id="Calque_3" data-name="Calque 3"><rect class="cls-1" y="59.69" width="910.91" height="766.02"/><path class="cls-2" d="M0,57.86v766H375.05c34.2-93.54,66.43-188.12,86.32-285.55a1172.57,1172.57,0,0,0-2.63-480.47Z" transform="translate(0 1.82)"/><path class="cls-3" d="M167.51,59.41C122,61.93,87.26,84.34,73.11,107.72-18.13,258.44,59.62,823.88,59.62,823.88H253.08c-7.18-18.06-.87-46,8-63.2,51.57-99.53,131.34-182.37,169.59-288.44,39.93-110.7,28.46-240.8-30.15-341.73C386.13,105.66,363.71,75.64,345,66.86c-18.15-8.53-32.82-9-78.95-9" transform="translate(0 1.82)"/><path class="cls-4" d="M105.7,325.7c16.76-37.84,35.88-78.32,72.27-98,22.18-12,48.24-14.68,73.46-14.14,16.68.35,33.45,2,49.45,6.76C337.31,231.09,368.16,258,386,291.54s23.09,73.19,17,110.69c-11,67.87-60.2,128.23-124.47,152.66-42.1,16-91.56,16.48-130.58-6C107.27,525.39,82.51,479,79.44,432.11S98.48,342,105.7,325.7Z" transform="translate(0 1.82)"/><path class="cls-5" d="M175.9,308.73C196.5,283.86,233.55,275.27,264,286s53.4,38.81,60.66,70.28a108,108,0,0,1-1.9,55.35c-10.85,35.71-40.54,64.07-75.28,77.73-17.64,6.93-37,10.41-55.7,7.13s-36.49-13.93-46-30.36c-8-13.9-9.55-30.66-8.47-46.68C140.45,373.85,160.4,327.46,175.9,308.73Z" transform="translate(0 1.82)"/><path class="cls-6" d="M211.85,354.4c4.8-7,9.71-14.08,16.43-19.24s15.68-8.13,23.8-5.71c13.47,4,18.88,20.14,20,34.15,1.45,17.4-.57,35.38-8.06,51.15s-20.83,29.16-37.41,34.63c-13,4.28-29.47,2.47-37.17-8.84-6.11-9-4.91-21-2.18-31.49C192.79,387.92,202.74,367.66,211.85,354.4Z" transform="translate(0 1.82)"/><path class="cls-3" d="M910.91,823.88H627.28c6.55-51.85-20.7-85.63-44.83-132-33-63.38-63.83-128.89-77.53-199-15.87-81.28-8-165.7,10.84-246.35A929.26,929.26,0,0,1,581.88,57.86h329" transform="translate(0 1.82)"/><path class="cls-7" d="M626.61,165.64c46-27.64,107.95-20.75,152.15,9.77s71.69,81.25,82.38,133.89C872.44,365,865.93,425,838.37,474.63s-77,87.84-133.06,97.11c-15.72,2.6-32.16,2.94-47.27-2.11-11.68-3.91-22.11-10.87-31.77-18.51-58.39-46.23-92.35-121.71-88.22-196.07S574.39,197,626.61,165.64Z" transform="translate(0 1.82)"/><path class="cls-5" d="M595.52,364.29C609.28,324.4,625,282.17,658.84,257c15.59-11.57,35.89-18.83,54.55-13.47,17.34,5,30,19.66,40.37,34.41a343.13,343.13,0,0,1,43.9,86c8.11,23.63,13.37,50.63,1.92,72.83-14,27.18-47.59,37.23-77.94,40.94a385.55,385.55,0,0,1-69,2.22c-10.84-.63-22.09-1.84-31.38-7.48-7.54-4.57-13.18-11.71-17.75-19.26C584.92,422.56,588.24,385.41,595.52,364.29Z" transform="translate(0 1.82)"/><path class="cls-6" d="M656.3,350.08a170.93,170.93,0,0,1,39.43-39.55c22.39,11.15,33.82,36.72,38.45,61.3,2.32,12.28,3.23,25.64-2.65,36.67-4.46,8.38-12.36,14.4-20.63,19.06a108.42,108.42,0,0,1-57.41,13.74c-9.42-.4-19.64-2.51-25.64-9.79-8.17-9.91-5.07-24.74-.2-36.63C636.64,373,650.28,353,656.3,350.08Z" transform="translate(0 1.82)"/><path class="cls-8" d="M653.25,397.39a217.66,217.66,0,0,1,46.47-47c10.8,8.4,13.67,24.57,8.62,37.29s-16.7,22-29.52,26.8c-6.6,2.46-14.41,3.75-20.37,0S651.19,400.24,653.25,397.39Z" transform="translate(0 1.82)"/><path class="cls-9" d="M328.66,314.33A105.43,105.43,0,0,0,315,251.15c-6.27-10.78-14.81-23.1-9.79-34.52,3.5-7.95,12.85-12,21.53-11.87s16.93,3.61,24.91,7l63.15,27.09c24.58,10.55,51.73,23.75,60.33,49.09,7,20.74-.79,43.46-10.46,63.11-11.4,23.16-25.84,45.38-46,61.5s-46.69,25.56-72.09,21c-16.25-2.92-32.58-13-36.9-29-4.89-18.08,6.68-35.92,13.08-53.51C328.31,335.8,328.16,319.29,328.66,314.33Z" transform="translate(0 1.82)"/></g><g id="Calque_5" data-name="Calque 5"><g id="Calque_2" data-name="Calque 2"><g id="Calque_4" data-name="Calque 4"><rect class="cls-10" x="929.5" y="55.85" width="910" height="766.02"/><rect class="cls-3" x="929.5" y="55.85" width="364.76" height="766.02"/></g><path class="cls-2" d="M1839.5,698l-108.45-10.72c-121.81-20-226.5-110.09-288.33-221.75-13.56-24.5-25.4-50.26-32.29-77.63-18.21-72.35.27-151.38,39.37-214S1546.18,90.39,1608.64,54H1839.5" transform="translate(0 1.82)"/><path class="cls-3" d="M1669.66,181c-31.31-4.06-62.92,13.19-82.48,39.1s-28.27,59.31-30.29,92.26c-3,48.17,8.38,98.63,38.06,135.57s79.27,57.7,123.74,44.91c56.91-16.36,90.16-80.08,98.88-141.17,4.63-32.49,3.92-67-10-96.44C1782.86,203.24,1722.76,179.69,1669.66,181Z" transform="translate(0 1.82)"/><path class="cls-4" d="M1005,255.51c26.68-13.64,55.41-24.12,85.09-25.13s60.51,8.34,81.86,29.94c31.25,31.61,36.53,83.39,25.34,127.34-5.23,20.51-13.71,40.38-26.76,56.64-13.27,16.54-30.8,28.81-49.13,38.72-40.95,22.16-93.27,32.52-131.61,5.74-24-16.77-38.45-45.85-43.18-75.66C936.16,347.45,971.42,272.65,1005,255.51Z" transform="translate(0 1.82)"/><path class="cls-4" d="M1665.26,241.79c-20.53,40.7-41.47,82.75-45.48,128.58-1.12,12.78-.18,27.39,9.11,35.77,5.25,4.73,12.28,6.58,19.07,8a308.31,308.31,0,0,0,85.73,6.29c6.49-.44,13.09-1.11,19.09-3.75,8.17-3.6,14.58-10.59,19.74-18.14,22.17-32.42,23.79-78.47,5-113.13s-56.71-56.63-94.8-56.2C1674.39,229.34,1663.63,233.24,1665.26,241.79Z" transform="translate(0 1.82)"/><path class="cls-6" d="M983.73,375.42c15-20.58,30.73-40.87,50-57.15s42.35-28.45,67-30.55c11.56-1,23.74.42,33.57,6.89,18.79,12.38,23.47,40.32,16.25,62.3s-23.52,39.18-39.87,54.9c-23.23,22.33-49,44.09-79.94,50.52-14.61,3-30.82,2.14-42.93-6.93-16-12-20.81-36-15.15-55.72S992.45,364,983.73,375.42Z" transform="translate(0 1.82)"/><path class="cls-6" d="M1695.79,290.17a254.67,254.67,0,0,0-26,41.24c-4,7.89-7.66,16.92-5.34,25.51,3.94,14.54,21.6,18.61,36,18.9,14.92.3,31-1.1,42.44-11.16,10.58-9.34,15-24.78,13.9-39.21-1.72-22.92-19.61-45.49-41.56-44.85C1706.43,280.85,1698.35,286.88,1695.79,290.17Z" transform="translate(0 1.82)"/><path class="cls-8" d="M1712.7,306.82a118.61,118.61,0,0,0-21,46.4c9.43,1.95,19.33,2.44,28.53-.46s17.63-9.54,21.31-18.83,1.77-21.16-5.69-27.5S1716.48,301.77,1712.7,306.82Z" transform="translate(0 1.82)"/><path class="cls-8" d="M1019,383.54c20.1-22.4,47-41.63,76.27-39.88,5,.3,11.08,2.22,12.09,7.38.67,3.42-1.27,6.75-3.22,9.59a141.31,141.31,0,0,1-64.79,51.59c-5.46,2.12-11.3,3.89-17,2.93s-11.35-5.38-12.08-11.43c-.49-4.08,1.22-8.07,3.16-11.64C1018.85,381.86,1026.55,372.93,1019,383.54Z" transform="translate(0 1.82)"/><path class="cls-2" d="M929.5,54" transform="translate(0 1.82)"/><path class="cls-2" d="M929.5,54v93.76l38.32-6.85c67.43-9.35,138.47-7.37,200.08,22.79s111.71,93,114,164.16c.76,24-3.77,47.9-9.83,71.08a526.71,526.71,0,0,1-99.84,197.91c-30.26,37.27-65.52,70-94.3,108.49s-50.6,65.79-49.33,114.68h443.12c5.79-14.64,5.46-40-16.77-111.63s-51.66-140.51-76.29-211.25C1324.41,341.54,1303.3,219.54,1297.4,54" transform="translate(0 1.82)"/></g><path class="cls-9" d="M1042.23,241.66c38.59-1.58,73.35,22.56,101.74,48.76,16.51,15.23,32.85,33.15,35.85,55.41,4,29.6-17,57-41,74.89-9.89,7.36-21,14-33.35,14.71-20.65,1.25-38.62-14.17-50.73-30.95-13.14-18.21-22.34-39-29.07-60.47-6.06-19.26-10.19-39.85-6-59.6S1038.13,246,1042.23,241.66Z" transform="translate(0 1.82)"/><path class="cls-11" d="M1219.69,293.15A105.44,105.44,0,0,0,1206,230c-6.27-10.77-14.81-23.1-9.78-34.51,3.49-8,12.84-12,21.52-11.88s16.93,3.61,24.91,7l63.15,27.08c24.58,10.55,51.73,23.76,60.33,49.09,7,20.74-.79,43.47-10.46,63.12-11.4,23.15-25.84,45.37-46,61.49s-46.69,25.56-72.09,21c-16.25-2.92-32.58-13-36.9-29-4.89-18.07,6.68-35.91,13.08-53.51C1219.34,314.62,1219.19,298.11,1219.69,293.15Z" transform="translate(0 1.82)"/></g><g id="Calque_6" data-name="Calque 6"><text class="cls-12" transform="translate(327.4 43.68)">P<tspan class="cls-13" x="27.22" y="0">r</tspan><tspan class="cls-14" x="43.44" y="0">e</tspan><tspan x="67.73" y="0">-In</tspan><tspan class="cls-15" x="121.53" y="0">t</tspan><tspan x="137.13" y="0">e</tspan><tspan class="cls-16" x="160.94" y="0">r</tspan><tspan class="cls-17" x="178.84" y="0">v</tspan><tspan x="201.11" y="0">ention</tspan></text><text class="cls-12" transform="translate(1219.74 39.84)"><tspan class="cls-18">P</tspan><tspan x="26.06" y="0">o</tspan><tspan class="cls-19" x="52.08" y="0">s</tspan><tspan class="cls-20" x="71.23" y="0">t</tspan><tspan x="86.26" y="0">-In</tspan><tspan class="cls-21" x="140.06" y="0">t</tspan><tspan x="155.66" y="0">e</tspan><tspan class="cls-16" x="179.47" y="0">r</tspan><tspan class="cls-17" x="197.37" y="0">v</tspan><tspan x="219.64" y="0">ention</tspan></text><text class="cls-22" transform="translate(518.81 783.6)">Phen<tspan class="cls-23" x="86.16" y="0">o</tspan><tspan x="107.16" y="0">type Fitness</tspan></text><text class="cls-22" transform="translate(1479.06 779.76)">Chan<tspan class="cls-24" x="86.64" y="0">g</tspan><tspan x="106.28" y="0">ed Lands</tspan><tspan class="cls-25" x="256.76" y="0">c</tspan><tspan x="274.6" y="0">ape</tspan></text><text class="cls-26" transform="translate(973.3 181.25)">Shi<tspan class="cls-24" x="53" y="0">ft</tspan><tspan x="76.24" y="0">ed</tspan><tspan x="0" y="48">Community</tspan></text><text class="cls-26" transform="translate(302.27 153.47)">Original<tspan x="0" y="48">Community</tspan></text><text class="cls-27" transform="translate(1194.72 130.79)">Original<tspan x="0" y="48">Community</tspan></text></g></svg>