<svg id="Calque_1" data-name="Calque 1" xmlns="http://www.w3.org/2000/svg" viewBox="0 0 883.07 624.65"><defs><style>.cls-1{fill:#fff;}.cls-1,.cls-14,.cls-5{stroke:#000;stroke-miterlimit:10;}.cls-1,.cls-5{stroke-width:5px;}.cls-17,.cls-2{fill:#d979a6;}.cls-16,.cls-3{fill:#15aebf;}.cls-4{fill:red;}.cls-5{fill:none;}.cls-6{font-size:48px;}.cls-6,.cls-8{font-family:SourceSansPro-Regular, Source Sans Pro;}.cls-7{letter-spacing:-0.01em;}.cls-8{font-size:32px;}.cls-9{letter-spacing:-0.02em;}.cls-10{letter-spacing:-0.01em;}.cls-11{letter-spacing:-0.01em;}.cls-12{letter-spacing:0.02em;}.cls-13{letter-spacing:0em;}.cls-14{stroke-width:2px;}.cls-15{letter-spacing:-0.07em;}.cls-16{letter-spacing:-0.01em;}.cls-17{letter-spacing:-0.01em;}</style></defs><line class="cls-1" y1="351.84" x2="814" y2="351.84"/><line class="cls-1" y1="521.84" x2="814" y2="521.84"/><line class="cls-1" y1="436.84" x2="814" y2="436.84"/><circle class="cls-2" cx="695.05" cy="351.84" r="32.5"/><circle class="cls-2" cx="585.05" cy="351.84" r="32.5"/><circle class="cls-2" cx="485.05" cy="351.84" r="32.5"/><circle class="cls-3" cx="385.05" cy="351.84" r="32.5"/><circle class="cls-3" cx="285.05" cy="351.84" r="32.5"/><circle class="cls-3" cx="183.05" cy="351.84" r="32.5"/><circle class="cls-3" cx="83.05" cy="351.84" r="32.5"/><circle class="cls-2" cx="695.05" cy="436.84" r="32.5"/><circle class="cls-2" cx="585.05" cy="436.84" r="32.5"/><circle class="cls-2" cx="485.05" cy="436.84" r="32.5"/><circle class="cls-3" cx="385.05" cy="436.84" r="32.5"/><circle class="cls-3" cx="285.05" cy="436.84" r="32.5"/><circle class="cls-3" cx="183.05" cy="436.84" r="32.5"/><circle class="cls-3" cx="83.05" cy="436.84" r="32.5"/><circle class="cls-2" cx="695.05" cy="521.84" r="32.5"/><circle class="cls-2" cx="585.05" cy="521.84" r="32.5"/><circle class="cls-2" cx="485.05" cy="521.84" r="32.5"/><circle class="cls-3" cx="385.05" cy="521.84" r="32.5"/><circle class="cls-3" cx="285.05" cy="521.84" r="32.5"/><circle class="cls-3" cx="183.05" cy="521.84" r="32.5"/><circle class="cls-3" cx="83.05" cy="521.84" r="32.5"/><rect class="cls-3" x="226.55" y="23.91" width="26" height="166.27"/><rect class="cls-3" x="202.55" y="103.18" width="26" height="87"/><rect class="cls-3" x="177.32" y="145.18" width="26" height="45"/><rect class="cls-3" x="301.78" y="155.18" width="26" height="35"/><rect class="cls-3" x="277.78" y="139.18" width="26" height="51"/><rect class="cls-3" x="252.55" y="161.18" width="26" height="29"/><rect class="cls-2" x="559.05" y="146.68" width="26" height="43.5"/><rect class="cls-2" x="535.05" y="103.18" width="26" height="87"/><rect class="cls-2" x="509.82" y="59.18" width="26" height="131"/><rect class="cls-2" x="634.28" y="124.68" width="26" height="65.5"/><rect class="cls-2" x="610.28" y="164.68" width="26" height="25.5"/><rect class="cls-2" x="585.05" y="161.18" width="26" height="29"/><line class="cls-4" x1="310.91" y1="215.25" x2="371.51" y2="308.17"/><line class="cls-5" x1="310.91" y1="215.25" x2="359.75" y2="290.14"/><polygon points="344.83 294.65 371.51 308.18 369.89 278.31 344.83 294.65"/><line class="cls-4" x1="548.05" y1="215.25" x2="490.46" y2="308.17"/><line class="cls-5" x1="548.05" y1="215.25" x2="501.8" y2="289.88"/><polygon points="491.39 278.28 490.45 308.17 516.82 294.04 491.39 278.28"/><text class="cls-6" transform="translate(843.23 351.84) rotate(90)">Subje<tspan class="cls-7" x="114" y="0">ct</tspan><tspan x="151.2" y="0">s</tspan></text><text class="cls-6" transform="translate(32.35 603.76)">Timepoin<tspan class="cls-7" x="191.95" y="0">t</tspan><tspan x="207.74" y="0">s</tspan></text><text class="cls-8" transform="translate(603.28 265.24)">Antibi<tspan class="cls-9" x="79.29" y="0">o</tspan><tspan x="96.09" y="0">tics </tspan><tspan class="cls-10" x="0" y="38.4">Re</tspan><tspan x="33.47" y="38.4">gimen</tspan></text><text class="cls-8" transform="translate(442.58 602.55)">In<tspan class="cls-11" x="25.92" y="0">t</tspan><tspan x="36.32" y="0">e</tspan><tspan class="cls-12" x="52.19" y="0">r</tspan><tspan class="cls-13" x="64.13" y="0">v</tspan><tspan x="78.97" y="0">ention B</tspan><tspan class="cls-10" x="191.17" y="0">e</tspan><tspan x="206.72" y="0">gins</tspan></text><line class="cls-14" x1="430.3" y1="351.84" x2="430.3" y2="584.18"/><text class="cls-8" transform="translate(294.8 26.56)"><tspan class="cls-15">T</tspan><tspan x="14.82" y="0">a</tspan><tspan class="cls-9" x="30.94" y="0">x</tspan><tspan x="44.7" y="0">onomic Composition</tspan><tspan x="0" y="38.4">(</tspan><tspan class="cls-3" x="9.73" y="38.4">be</tspan><tspan class="cls-16" x="43.33" y="38.4">f</tspan><tspan class="cls-3" x="52.35" y="38.4">o</tspan><tspan class="cls-16" x="69.69" y="38.4">r</tspan><tspan class="cls-3" x="80.51" y="38.4">e </tspan><tspan x="102.78" y="38.4">/ </tspan><tspan class="cls-2" x="120.38" y="38.4">a</tspan><tspan class="cls-17" x="136.51" y="38.4">ft</tspan><tspan class="cls-2" x="155.1" y="38.4">er</tspan><tspan x="182.11" y="38.4">)</tspan></text></svg>