<svg id="Calque_1" data-name="Calque 1" xmlns="http://www.w3.org/2000/svg" viewBox="0 0 946 332"><defs><style>.cls-1{fill:#d9cdbf;}.cls-2{fill:#f2d06b;}.cls-2,.cls-3,.cls-4,.cls-5{stroke:#000;stroke-miterlimit:10;stroke-width:5px;}.cls-3{fill:#03a696;}.cls-4{fill:#27418c;}.cls-5{fill:#8a1c8c;}</style></defs><polygon class="cls-1" points="473 0 0 332 946 332 473 0"/><ellipse class="cls-2" cx="555.65" cy="176.3" rx="21.25" ry="10.63"/><ellipse class="cls-2" cx="288.28" cy="212.78" rx="21.25" ry="10.63"/><ellipse class="cls-2" cx="669.57" cy="176.3" rx="21.25" ry="10.63"/><ellipse class="cls-2" cx="491.9" cy="104.47" rx="21.25" ry="10.63"/><ellipse class="cls-2" cx="319.61" cy="212.78" rx="21.25" ry="10.63"/><ellipse class="cls-2" cx="669.57" cy="176.3" rx="21.25" ry="10.63"/><ellipse class="cls-2" cx="756.13" cy="275.54" rx="21.25" ry="10.63"/><ellipse class="cls-2" cx="756.13" cy="275.54" rx="21.25" ry="10.63"/><ellipse class="cls-2" cx="465.3" cy="108.41" rx="21.25" ry="10.63"/><ellipse class="cls-3" cx="315.86" cy="206.3" rx="21.25" ry="10.63"/><ellipse class="cls-3" cx="455.66" cy="97.79" rx="21.25" ry="10.63"/><ellipse class="cls-3" cx="743.61" cy="269.09" rx="21.25" ry="10.63"/><ellipse class="cls-3" cx="615.09" cy="174.8" rx="21.25" ry="10.63"/><ellipse class="cls-4" cx="387.36" cy="164.17" rx="21.25" ry="10.63"/><ellipse class="cls-5" cx="534.4" cy="209.47" rx="21.25" ry="10.63"/><ellipse class="cls-4" cx="669.57" cy="212.78" rx="21.25" ry="10.63"/></svg>