<svg id="Calque_1" data-name="Calque 1" xmlns="http://www.w3.org/2000/svg" viewBox="0 0 946 483.6"><defs><style>.cls-1{fill:#d9cdbf;}.cls-2{fill:#03a696;}.cls-2,.cls-3,.cls-4,.cls-5,.cls-6{stroke:#000;stroke-miterlimit:10;stroke-width:5px;}.cls-3{fill:#f2d06b;}.cls-4{fill:#bfbfbf;}.cls-5{fill:#27418c;}.cls-6{fill:#8a1c8c;}</style></defs><polygon class="cls-1" points="473 151.6 0 483.6 946 483.6 473 151.6"/><ellipse class="cls-2" cx="315.86" cy="357.9" rx="21.25" ry="10.63"/><ellipse class="cls-2" cx="455.66" cy="249.39" rx="21.25" ry="10.63"/><ellipse class="cls-3" cx="555.65" cy="327.9" rx="21.25" ry="10.63"/><ellipse class="cls-3" cx="669.57" cy="327.9" rx="21.25" ry="10.63"/><ellipse class="cls-2" cx="743.61" cy="420.69" rx="21.25" ry="10.63"/><line class="cls-4" x1="543.57" y1="23.75" x2="543.57" y2="101.75"/><line class="cls-4" x1="669.57" y1="101.75" x2="669.57" y2="151.6"/><line class="cls-4" x1="401.57" y1="86.69" x2="401.57" y2="186.39"/><line class="cls-4" x1="455.66" y1="157.6" x2="455.66" y2="249.39"/><line class="cls-4" x1="315.86" y1="217.9" x2="315.86" y2="357.9"/><line class="cls-4" x1="609.61" y1="136.54" x2="609.61" y2="220.84"/><line class="cls-4" x1="743.61" y1="178.69" x2="743.61" y2="420.69"/><line class="cls-4" x1="555.65" y1="239.9" x2="555.65" y2="327.9"/><line class="cls-4" x1="669.57" y1="239.9" x2="669.57" y2="327.9"/><line class="cls-4" x1="543.57" y1="101.75" x2="401.57" y2="91.84"/><line class="cls-4" x1="669.57" y1="97.75" x2="543.57" y2="101.75"/><line class="cls-4" x1="669.57" y1="151.6" x2="609.61" y2="136.54"/><line class="cls-4" x1="669.57" y1="151.6" x2="743.61" y2="176.84"/><line class="cls-4" x1="555.65" y1="245.34" x2="609.61" y2="220.84"/><line class="cls-4" x1="669.57" y1="231.34" x2="609.61" y2="220.84"/><line class="cls-4" x1="440.32" y1="169.88" x2="398.32" y2="187.5"/><line class="cls-4" x1="315.86" y1="220.84" x2="401.57" y2="186.15"/><circle class="cls-2" cx="315.86" cy="220.84" r="21.25"/><circle class="cls-5" cx="401.57" cy="91.84" r="21.25"/><circle class="cls-2" cx="455.66" cy="157.44" r="21.25"/><circle class="cls-6" cx="543.57" cy="23.75" r="21.25"/><circle class="cls-5" cx="669.57" cy="97.75" r="21.25"/><circle class="cls-2" cx="609.61" cy="134.34" r="21.25"/><circle class="cls-3" cx="555.65" cy="245.34" r="21.25"/><circle class="cls-3" cx="669.57" cy="231.34" r="21.25"/><circle class="cls-2" cx="743.61" cy="176.84" r="21.25"/></svg>