<svg id="Calque_1" data-name="Calque 1" xmlns="http://www.w3.org/2000/svg" viewBox="0 0 1482.29 363.18"><defs><style>.cls-1,.cls-2{fill:#f7f7f7;}.cls-2{stroke:#616161;}.cls-2,.cls-3{stroke-miterlimit:10;stroke-width:3px;}.cls-3{fill:none;stroke:#000;}.cls-4{font-size:35px;font-family:SourceSansPro-Regular, Source Sans Pro;}.cls-5{letter-spacing:-0.01em;}.cls-6{letter-spacing:-0.01em;}.cls-7{letter-spacing:0em;}.cls-8{letter-spacing:-0.01em;}.cls-9{letter-spacing:-0.02em;}</style></defs><rect class="cls-1" x="48.79" y="107.68" width="446" height="254"/><rect class="cls-2" x="48.79" y="107.68" width="446" height="254"/><rect class="cls-2" x="1136.79" y="107.68" width="344" height="254"/><rect class="cls-2" x="786.79" y="107.68" width="292" height="254"/><rect class="cls-2" x="535.68" y="107.68" width="219.61" height="254"/><path class="cls-3" d="M431.18,109.31c13.45-28.46,45-46.31,76.45-46.71s62,15.2,83.07,38.59" transform="translate(-2.97 -9.77)"/><path class="cls-3" d="M98.88,110.12c18.1-27.18,47.83-44.25,77.75-57.36,104-45.58,223.8-54,333.12-23.36,50.35,14.11,101.15,38.52,129,82.75" transform="translate(-2.97 -9.77)"/><path class="cls-3" d="M294.34,103.74C339.49,60.86,402,41.25,463.42,31.22,609.5,7.37,763,31.29,894.88,98.46" transform="translate(-2.97 -9.77)"/><path class="cls-3" d="M924.36,107.74c92.16-50.09,209.22-51.17,302.3-2.79" transform="translate(-2.97 -9.77)"/><path class="cls-3" d="M1000.39,106.11c80.1-71.43,200.67-93.94,301.15-56.22,34.26,12.86,65.78,31.92,97.08,50.87" transform="translate(-2.97 -9.77)"/><text class="cls-4" transform="translate(29.05 288.97) rotate(-90)">Samples</text><text class="cls-4" transform="translate(193.98 229.74)">Mic<tspan class="cls-5" x="50.05" y="0">r</tspan><tspan x="61.88" y="0">obiome </tspan><tspan x="0" y="42">Composition</tspan></text><text class="cls-4" transform="translate(543.45 242.61)">Inflamm<tspan class="cls-6" x="123.16" y="0">a</tspan><tspan x="140.31" y="0">tion</tspan></text><text class="cls-4" transform="translate(844.5 245.86)"><tspan class="cls-5">P</tspan><tspan x="19.5" y="0">s</tspan><tspan class="cls-7" x="34.16" y="0">y</tspan><tspan x="50.4" y="0">chom</tspan><tspan class="cls-8" x="133.38" y="0">e</tspan><tspan x="150.39" y="0">tric</tspan></text><text class="cls-4" transform="translate(1229.34 242.64)">Behavio<tspan class="cls-9" x="118.61" y="0">r</tspan><tspan x="129.95" y="0">al</tspan></text></svg>