<?xml version="1.0" encoding="utf-8"?>
<!-- Generator: Adobe Illustrator 25.3.1, SVG Export Plug-In . SVG Version: 6.00 Build 0)  -->
<svg version="1.1" xmlns="http://www.w3.org/2000/svg" xmlns:xlink="http://www.w3.org/1999/xlink" x="0px" y="0px"
	 viewBox="0 0 564 360.6" style="enable-background:new 0 0 564 360.6;" xml:space="preserve">
<style type="text/css">
	.st0{fill:none;stroke:#000000;stroke-width:5;stroke-miterlimit:10;}
	.st1{fill:#FFFFFF;stroke:#000000;stroke-miterlimit:10;}
	.st2{fill:none;}
	.st3{font-family:'ArialMT';}
	.st4{font-size:30px;}
	.st5{fill:none;stroke:#000000;stroke-width:3;stroke-miterlimit:10;}
	.st6{fill:#6D76A6;stroke:#000000;stroke-miterlimit:10;}
	.st7{fill:none;stroke:#484F73;stroke-width:3;stroke-miterlimit:10;}
	.st8{fill:#0367A6;}
	.st9{fill:#F2D16D;}
</style>
<g id="Calque_1">
	<g id="Calque_1_1_">
		<g>
			<g>
				<line class="st0" x1="362.4" y1="67.4" x2="406.8" y2="134.7"/>
				<g>
					<polygon points="394.4,138.5 416.7,149.6 415.2,124.8 					"/>
				</g>
			</g>
		</g>
		<g>
			<g>
				<line class="st0" x1="219.9" y1="157.9" x2="294.1" y2="83"/>
				<g>
					<polygon points="300.4,94.4 306.7,70.3 282.6,76.9 					"/>
				</g>
			</g>
		</g>
		<path class="st1" d="M167.4,40.2"/>
		<g>
			<g>
				<path class="st0" d="M32.5,276c-17.7-129.8,97.2-235.8,220-247.9"/>
				<g>
					<polygon points="250.2,41 270.4,26.3 247.6,16.2 					"/>
				</g>
			</g>
		</g>
		<g>
			<g>
				<path class="st0" d="M403.2,249.7c-86.1,71.7-204.2,96.6-314.3,90"/>
				<g>
					<polygon points="392.2,242.6 416.7,237.9 408.6,261.5 					"/>
				</g>
			</g>
		</g>
		<rect x="94.8" y="167.1" class="st2" width="164.2" height="26.5"/>
		<text transform="matrix(1 0 0 1 80.1693 187.2001)" class="st3 st4">Treatment</text>
		<rect x="294.7" y="28.8" class="st2" width="116.4" height="26.5"/>
		<text transform="matrix(1 0 0 1 294.65 50.3145)" class="st3 st4">Diet</text>
		<rect x="403.2" y="176.4" class="st2" width="179.8" height="26.5"/>
		<text transform="matrix(1 0 0 1 403.2 197.8295)" class="st3 st4">Microbiome</text>
		<rect x="11.2" y="303" class="st2" width="116.4" height="26.5"/>
		<text transform="matrix(1 0 0 1 13.3915 316.2495)" class="st3 st4">Baseline</text>
		<line class="st5" x1="415.1" y1="34.7" x2="415.1" y2="113"/>
		<line class="st5" x1="415.1" y1="113" x2="499.7" y2="113"/>
		<circle class="st6" cx="434.1" cy="90.8" r="2.7"/>
		<circle class="st6" cx="476.2" cy="57.8" r="2.7"/>
		<circle class="st6" cx="468.7" cy="90.8" r="2.7"/>
		<circle class="st6" cx="486.3" cy="68.8" r="2.7"/>
		<circle class="st6" cx="494.3" cy="47.1" r="2.7"/>
		<circle class="st6" cx="458.1" cy="62.9" r="2.7"/>
		<circle class="st6" cx="483.7" cy="79.1" r="2.7"/>
		<circle class="st6" cx="483.7" cy="41.5" r="2.7"/>
		<circle class="st6" cx="452.2" cy="80.2" r="2.7"/>
		<circle class="st6" cx="469.6" cy="66.2" r="2.7"/>
		<circle class="st6" cx="430.9" cy="107.2" r="2.7"/>
		<circle class="st6" cx="453.7" cy="96.6" r="2.7"/>
		<line class="st7" x1="428.7" y1="105.7" x2="499.7" y2="42"/>
		<path class="st8" d="M144.9,128c10.2-3.1,19-10,24.3-19.1c2.7-4.6,4.5-9.7,7.6-14c1.9-2.6,4.6-4.9,7.8-4.9c3,0.1,5.6,2.3,7.3,4.7
			c3.3,4.6,5,10.2,7,15.5c2.1,5.3,4.9,10.7,9.7,13.8c2.5,1.6,5.3,2.5,8.2,3.2c4.4,1,8.9,1.5,13.4,2"/>
		<path class="st9" d="M172.2,128.5c10.2-3.1,19-10,24.3-19.1c2.7-4.6,4.5-9.7,7.6-14c1.9-2.6,4.6-4.9,7.8-4.9
			c3,0.1,5.6,2.3,7.3,4.7c3.3,4.6,5,10.2,7,15.5c2.1,5.3,4.9,10.7,9.7,13.8c2.5,1.6,5.3,2.5,8.2,3.2c4.4,1,8.9,1.5,13.4,2"/>
		<path class="st8" d="M248.4,185.8c9.3-2.8,17.5-9.2,22.3-17.5c2.5-4.2,4.1-8.9,7-12.9c1.7-2.3,4.2-4.5,7.1-4.5
			c2.8,0,5.1,2.1,6.7,4.4c3.1,4.3,4.6,9.4,6.5,14.2c1.9,4.9,4.5,9.8,8.9,12.7c2.3,1.5,4.9,2.3,7.6,2.9c4,0.9,8.2,1.4,12.3,1.9"/>
		<path class="st9" d="M295.7,186.6c9.3-2.8,17.5-9.2,22.3-17.5c2.5-4.2,4.1-8.9,7-12.9c1.7-2.3,4.2-4.5,7.1-4.5
			c2.8,0,5.1,2.1,6.7,4.4c3.1,4.3,4.6,9.4,6.5,14.2c1.9,4.9,4.5,9.8,8.9,12.7c2.3,1.5,4.9,2.3,7.6,2.9c4,0.9,8.2,1.4,12.3,1.9"/>
		<g>
			<g>
				<line class="st0" x1="236.7" y1="187.2" x2="371.2" y2="189.6"/>
				<g>
					<polygon points="367.3,202 389.1,189.9 367.8,177.1 					"/>
				</g>
			</g>
		</g>
	</g>
	<g id="Calque_2_1_">
		<circle class="st6" cx="248.6" cy="279.2" r="2.7"/>
		<line class="st5" x1="211.2" y1="245.8" x2="211.2" y2="311.6"/>
		<line class="st5" x1="211.2" y1="311.6" x2="327.4" y2="311.6"/>
		<circle class="st6" cx="224.6" cy="295.4" r="2.7"/>
		<circle class="st6" cx="266.7" cy="274.1" r="2.7"/>
		<circle class="st6" cx="266.7" cy="293.2" r="2.7"/>
		<circle class="st6" cx="302.2" cy="276.7" r="2.7"/>
		<circle class="st6" cx="284.8" cy="263.4" r="2.7"/>
		<circle class="st6" cx="313.9" cy="261.3" r="2.7"/>
		<circle class="st6" cx="281.2" cy="279.2" r="2.7"/>
		<circle class="st6" cx="239.5" cy="289.8" r="2.7"/>
		<circle class="st6" cx="260.1" cy="282.5" r="2.7"/>
		<circle class="st6" cx="317.2" cy="271.4" r="2.7"/>
		<circle class="st6" cx="228.8" cy="301.9" r="2.7"/>
		<line class="st7" x1="215" y1="293.5" x2="329.6" y2="264.8"/>
	</g>
	<g id="Calque_2_-_copie">
		<circle class="st6" cx="71.9" cy="53.1" r="2.7"/>
		<line class="st5" x1="34.5" y1="19.7" x2="34.5" y2="85.6"/>
		<line class="st5" x1="34.5" y1="85.6" x2="150.7" y2="85.6"/>
		<circle class="st6" cx="47.9" cy="69.4" r="2.7"/>
		<circle class="st6" cx="90" cy="48" r="2.7"/>
		<circle class="st6" cx="112.3" cy="48" r="2.7"/>
		<circle class="st6" cx="120.2" cy="28.6" r="2.7"/>
		<circle class="st6" cx="108.1" cy="37.4" r="2.7"/>
		<circle class="st6" cx="78.2" cy="64.4" r="2.7"/>
		<circle class="st6" cx="104.5" cy="53.1" r="2.7"/>
		<circle class="st6" cx="71.1" cy="72" r="2.7"/>
		<circle class="st6" cx="83.4" cy="50.7" r="2.7"/>
		<circle class="st6" cx="120.2" cy="43.7" r="2.7"/>
		<circle class="st6" cx="52.1" cy="75.9" r="2.7"/>
		<line class="st7" x1="44.7" y1="77.6" x2="136.9" y2="29.9"/>
	</g>
</g>
<g id="Calque_2">
</g>
</svg>
