<?xml version="1.0" encoding="utf-8"?>
<!-- Generator: Adobe Illustrator 25.3.1, SVG Export Plug-In . SVG Version: 6.00 Build 0)  -->
<svg version="1.1" id="Calque_1" xmlns="http://www.w3.org/2000/svg" xmlns:xlink="http://www.w3.org/1999/xlink" x="0px" y="0px"
	 viewBox="0 0 462.4 126.2" style="enable-background:new 0 0 462.4 126.2;" xml:space="preserve">
<g id="Layer_2">
	<g id="Layer_1-2">
		<path d="M108.8,17.5c-1.1-2.5-2.1-4.6-2.8-6.1c-0.7-1.4-1.6-2.7-2.8-3.7c-1.2-1-2.7-1.6-4.2-1.9c-2.3-0.4-4.6-0.5-6.9-0.5V2.4H131
			v2.9c-5.9,0-9.6,0.8-11.2,2.4c-1.5,1.6-1.5,4.3,0.2,8.3l23.8,54.5L167.5,16c1.7-3.8,1.8-6.6,0.2-8.2s-5.3-2.5-11.1-2.5V2.4h32.7
			v2.9c-2.3,0-4.6,0.1-6.9,0.5c-1.5,0.3-3,0.9-4.2,1.9c-1.2,1-2.1,2.3-2.8,3.7c-0.7,1.5-1.7,3.6-2.8,6.1l-30.9,71.4h-1.8L108.8,17.5
			z M207.9,67.2c0,2.8,0.1,5.6,0.5,8.4c0.2,1.8,0.9,3.5,1.9,5c1,1.3,2.5,2.1,4.1,2.4c2.3,0.4,4.7,0.6,7,0.6v2.9h-32v-2.9
			c2.3,0,4.7-0.1,7-0.6c1.6-0.3,3.1-1.1,4.1-2.4c1-1.5,1.7-3.2,1.8-5c0.3-2.8,0.5-5.6,0.4-8.4V21.6c0-2.8-0.1-5.7-0.4-8.5
			c-0.2-1.8-0.8-3.5-1.8-4.9c-1-1.2-2.5-2-4.1-2.3c-2.3-0.4-4.7-0.6-7-0.6v-3h23L242,70.7l29.6-68.3h22.9v2.9c-2.3,0-4.7,0.1-7,0.6
			c-1.6,0.3-3.1,1.1-4.1,2.3c-1.1,1.4-1.7,3.1-1.9,4.9c-0.3,2.8-0.5,5.6-0.4,8.5v45.6c0,2.8,0.1,5.6,0.4,8.4c0.2,1.8,0.8,3.5,1.9,5
			c1,1.3,2.5,2.1,4.1,2.4c2.3,0.4,4.7,0.6,7,0.6v2.9h-37.9v-2.9c2.3,0,4.7-0.1,7-0.6c1.6-0.3,3.1-1.1,4.1-2.4c1-1.5,1.7-3.2,1.8-5
			c0.3-2.8,0.5-5.6,0.4-8.4V19.4l-30,69.6h-1.8l-30.3-69.8L207.9,67.2z M305,83.6c2.3,0,4.7-0.1,7-0.6c1.6-0.3,3.1-1.1,4.1-2.4
			c1-1.5,1.7-3.2,1.8-5c0.3-2.8,0.5-5.6,0.4-8.4V21.6c0-2.8-0.1-5.7-0.4-8.5c-0.1-1.8-0.8-3.5-1.8-4.9c-1-1.2-2.5-2.1-4.1-2.3
			c-2.3-0.4-4.7-0.6-7-0.6v-3h37c4.4-0.1,8.7,0.6,12.9,1.9c3.4,1.1,6.7,2.8,9.5,5.1c2.5,2,4.5,4.6,5.8,7.5c1.3,2.9,2,6,2,9.2
			c0,3-0.5,5.9-1.7,8.6c-1.1,2.7-2.8,5.1-4.8,7.1c-2.3,2.2-4.9,3.9-7.9,5.1c-3.4,1.4-6.9,2.3-10.6,2.7L361,65.8
			c3.8,4.6,8.2,8.7,13,12.2c4.5,3.2,8.8,5.1,13,5.5v2.9h-23.1l-27.8-36.8h-6.6v17.5c0,2.8,0.1,5.6,0.4,8.4c0.2,1.8,0.8,3.5,1.8,5
			c1,1.3,2.5,2.1,4.1,2.4c2.3,0.4,4.7,0.6,7,0.6v2.9H305V83.6z M341.9,44.6c2.7,0.1,5.4-0.4,7.9-1.5c2.1-0.9,4-2.3,5.5-4
			c1.5-1.7,2.6-3.7,3.3-5.9c0.7-2.3,1.1-4.7,1-7.1c0-2.4-0.3-4.8-1-7.1c-0.7-2.2-1.8-4.2-3.3-5.9c-1.5-1.7-3.4-3.1-5.5-4
			c-2.5-1-5.2-1.5-7.9-1.5h-12.3v37L341.9,44.6z M427.4,88.9c-5.7,0-11.4-1.2-16.7-3.5c-10.5-4.6-18.7-13.1-23-23.7
			c-2.3-5.5-3.4-11.3-3.4-17.2c-0.2-17.7,10.2-33.8,26.4-40.9C416,1.2,421.7,0,427.4,0c4.9,0,9.7,1,14.1,3.1c4.5,2.1,8.6,5.1,12,8.8
			c1.1-0.9,2-2,2.8-3.2c1-1.4,1.6-3.1,2-4.8h2.8v30.9h-2.8c-2-9.2-5.6-16.4-10.8-21.5S435.9,5.5,428,5.5c-5-0.2-9.9,1.1-14.2,3.7
			c-3.8,2.4-7,5.5-9.5,9.3c-2.5,3.9-4.3,8.1-5.3,12.6c-1.1,4.4-1.6,8.9-1.6,13.5c0,4.5,0.6,9,1.6,13.4c1,4.5,2.8,8.7,5.3,12.5
			c2.4,3.7,5.7,6.9,9.5,9.2c4.3,2.6,9.3,3.8,14.3,3.7c7.9,0,14.4-2.6,19.6-7.8c5.2-5.2,8.8-12.3,10.7-21.4h2.8V85h-2.8
			c-0.4-1.7-1.1-3.3-2-4.8c-0.7-1.2-1.7-2.3-2.8-3.2c-3.4,3.6-7.5,6.6-12,8.8C437.1,87.8,432.3,88.9,427.4,88.9L427.4,88.9z
			 M142.1,103.4h1.7l3.4,15.3l3.3-15.2h1.6l-4.2,18.4h-1.6L142.1,103.4z M153.3,119.1c0-2.6,1.4-3.5,5.3-5.2v-0.9
			c0-2.4-0.4-3.2-1.6-3.2c-1,0-1.8,0.5-1.9,2.2v0.5l-1.6-0.1V112c0.1-2.5,1.4-3.5,3.6-3.5s3.2,1.4,3.2,4.3v6.4c0,0.7,0,2.1,0.1,2.6
			h-1.5c-0.1-0.6-0.2-1.5-0.2-1.8c-0.4,1.2-1.5,2-2.7,2c-1.5,0-2.7-1.3-2.6-2.8C153.3,119.2,153.3,119.1,153.3,119.1L153.3,119.1z
			 M158.6,119.1V115c-2.5,1.3-3.6,1.8-3.6,3.7c0,1.4,0.7,1.9,1.5,1.9C157.4,120.5,158.2,119.9,158.6,119.1L158.6,119.1z
			 M161.8,123.9c0.1-1.3,1-2.5,2.2-3c-0.7-0.2-1.4-0.6-1.4-1.1c0.2-1,0.8-2,1.6-2.7c-1.2-1-1.8-2.5-1.6-4c0-2.5,1.1-4.6,3.7-4.6
			c1.2-0.1,2.3,0.6,2.8,1.7c0.5-0.6,1.1-1.1,1.8-1.5l0.3-0.1l0.4,1.2c-0.8,0.2-1.6,0.6-2.2,1.1c0.2,0.7,0.4,1.5,0.4,2.3
			c0,2.6-1,4.6-3.6,4.6c-0.5,0-0.9-0.1-1.3-0.2c-0.4,0.5-0.7,1.1-0.9,1.7c0,0.2,0.4,0.4,1.1,0.5c0.4,0.1,1.8,0.3,2.1,0.3
			c2.1,0.4,3.3,1.3,3.3,3.1c0,2.2-1.7,3-4.1,3C163.6,126.2,161.8,125.6,161.8,123.9L161.8,123.9z M169.1,123.2
			c0-0.9-0.4-1.4-2.5-1.8l-1.7-0.2c-0.6,0.4-1.7,1.2-1.7,2.2s0.9,1.4,3,1.4C167.9,124.9,169,124.4,169.1,123.2L169.1,123.2z
			 M168.3,113.2c0-1.6-0.3-3.4-2.1-3.4s-2.2,1.9-2.2,3.4s0.3,3.4,2.2,3.4S168.3,114.7,168.3,113.2L168.3,113.2z M172.7,108.8h1.7
			l-0.1,13.1h-1.7L172.7,108.8z M172.7,104.7h1.7v2.3h-1.7V104.7z M177.2,108.8h1.7v1.4c0.8-0.9,1.9-1.5,3.2-1.6c1.3,0,2,1,2,2.8
			v10.5h-1.7v-10.2c0-1.4-0.4-1.9-1.2-1.9c-0.9,0.1-1.7,0.5-2.3,1.2v10.8h-1.7L177.2,108.8z M186.1,119.2c0-2.6,1.4-3.5,5.3-5.2
			v-0.9c0-2.4-0.4-3.2-1.6-3.2c-1,0-1.8,0.5-1.9,2.2v0.5l-1.6-0.1v-0.4c0.1-2.5,1.4-3.5,3.6-3.5s3.2,1.4,3.2,4.4v6.4
			c0,0.7,0,2.1,0.1,2.6h-1.5c-0.1-0.6-0.2-1.5-0.2-1.8c-0.4,1.2-1.5,2-2.7,2c-1.5,0-2.7-1.3-2.6-2.8
			C186,119.3,186,119.3,186.1,119.2L186.1,119.2z M191.3,119.2v-4.1c-2.5,1.3-3.6,1.8-3.6,3.7c0,1.4,0.7,1.9,1.5,1.9
			C190.1,120.7,191,120.1,191.3,119.2L191.3,119.2z M195.7,103.6h1.7l-0.1,18.4h-1.7L195.7,103.6z M205.4,103.6h1.7l3.6,16l3.8-16
			h1.7l0.4,18.4h-1.4l-0.3-14.7l-3.6,14.6h-1.1l-3.4-14.7l-0.4,14.7h-1.4L205.4,103.6z M219.5,108.9h1.7l-0.1,13.1h-1.7L219.5,108.9
			z M219.5,104.9h1.7v2.2h-1.7V104.9z M223.7,117.1V114c0-3.6,0.7-5.3,3.5-5.3s3.3,1.7,3.3,4.2v0.6H229V113c0-2.3-0.5-3-1.8-3
			c-1.6,0-1.9,1-1.9,3.8v3.7c0,2.6,0.4,3.6,1.9,3.6s1.8-1,1.8-3.2v-0.7h1.5v0.6c0,2.7-0.5,4.5-3.4,4.5
			C224.1,122.3,223.6,120.1,223.7,117.1L223.7,117.1z M232.9,109h1.7v1.8c0.6-1.1,1.7-1.9,3-1.9c0.1,0,0.2,0,0.3,0v1.8
			c-0.3-0.1-0.5-0.1-0.8-0.1c-1.1,0-2,0.6-2.5,1.5v10.1h-1.7L232.9,109z M239.2,117.4v-3.6c0-3.2,0.8-5,3.5-4.9s3.5,1.8,3.5,5v3.6
			c0,3.2-0.8,5-3.5,4.9S239.2,120.6,239.2,117.4z M244.5,117.5v-3.8c0-2.1-0.1-3.6-1.8-3.6s-1.9,1.5-1.9,3.6v3.8
			c0,2.1,0.1,3.6,1.8,3.6S244.5,119.7,244.5,117.5L244.5,117.5z M250.1,121.2v1h-1.7l0.1-18.4h1.7v6.4c0.6-0.8,1.5-1.3,2.5-1.3
			c2.5,0,3,2.6,3,5.2v2.8c0,3.4-0.7,5.5-3.2,5.5C251.6,122.3,250.7,121.9,250.1,121.2L250.1,121.2z M254,116.9v-2.8
			c0-2.6-0.2-3.9-1.8-3.9c-0.8,0.1-1.5,0.4-2,1v9c0.5,0.6,1.2,1,2,1C253.7,121.1,254,119.6,254,116.9L254,116.9z M258.1,109.1h1.7
			l0,13.1h-1.7L258.1,109.1z M258.1,105h1.7v2.2h-1.7V105z M262.3,117.5v-3.6c0-3.2,0.8-5,3.5-4.9s3.5,1.8,3.5,5v3.6
			c0,3.2-0.8,5-3.5,4.9S262.3,120.7,262.3,117.5z M267.6,117.6v-3.8c0-2.1-0.1-3.6-1.8-3.6s-1.9,1.5-1.9,3.6v3.8
			c0,2.1,0.1,3.6,1.8,3.6S267.6,119.7,267.6,117.6z M271.6,109.2h1.5v1.3c0.7-1,1.9-1.5,3.1-1.6c1-0.1,1.9,0.7,2.1,1.7
			c0.8-1,1.9-1.7,3.2-1.7c1.2,0,2.2,0.7,2.2,3v10.4h-1.6V112c0-1.5-0.6-1.9-1.3-1.9c-1,0.1-1.9,0.6-2.5,1.3c0,0.2,0,0.3,0,0.5v10.4
			h-1.6V112c0-1.5-0.5-1.9-1.3-1.9c-1,0.1-1.8,0.6-2.5,1.3v10.9h-1.5L271.6,109.2z M286,117.4v-3.3c0-3.9,1.2-5.1,3.6-5.1
			c2.8,0,3.4,1.7,3.4,5.4v1.2h-5.3v2c0,2.6,0.4,3.7,1.9,3.7c1,0,1.8-0.4,1.8-2.5v-0.9h1.6v0.7c0,2.4-0.9,4-3.4,3.9
			S286,121.2,286,117.4L286,117.4z M291.4,114.7v-1.1c0-2.1-0.2-3.3-1.8-3.3c-1.4,0-1.9,0.7-1.9,3.5v0.9L291.4,114.7z M300.2,104
			h4.2c3.4,0,4.6,1.8,4.5,4.7c0,2.1-0.6,3.9-2.6,4.3l2.8,9.4h-1.7l-2.7-9.1h-2.9v9h-1.7L300.2,104z M304.2,112.1c2.3,0,3-1.1,3-3.4
			s-0.6-3.4-2.9-3.4h-2.4v6.8L304.2,112.1z M311.2,117.5v-3.3c0-3.9,1.2-5.1,3.6-5.1c2.8,0,3.4,1.7,3.4,5.4v1.2h-5.3v2
			c0,2.6,0.4,3.7,1.9,3.7c1,0,1.8-0.4,1.8-2.5V118h1.6v0.7c0,2.4-0.9,4-3.4,3.9S311.1,121.3,311.2,117.5L311.2,117.5z M316.5,114.8
			v-1.1c0-2.1-0.2-3.3-1.8-3.3c-1.4,0-1.9,0.7-1.9,3.5v0.9L316.5,114.8z M319.8,119l1.4-0.4c0.2,2,0.9,2.9,2.2,2.9
			c0.9,0.1,1.8-0.6,1.9-1.6c0-0.1,0-0.2,0-0.3c-0.1-1.1-0.7-2-1.6-2.6l-1.8-1.6c-1.1-0.7-1.8-2-1.8-3.3c-0.1-1.6,1.1-2.9,2.7-3
			c0.2,0,0.3,0,0.5,0c2,0,3,1.4,3.1,3.5l-1.2,0.4c-0.1-1.8-0.7-2.6-1.9-2.6c-0.8-0.1-1.6,0.5-1.7,1.3c0,0.1,0,0.2,0,0.3
			c0,0.8,0.4,1.6,1.1,2.1l1.9,1.7c1.1,1,2.2,2,2.2,3.8c0,2-1.4,3.2-3.4,3.2S320,121.2,319.8,119L319.8,119z M328.4,117.6v-3.3
			c0-3.9,1.2-5.1,3.6-5.1c2.8,0,3.4,1.7,3.4,5.4v1.2h-5.3v2c0,2.6,0.4,3.7,1.9,3.7c1,0,1.8-0.4,1.8-2.5v-1h1.6v0.7
			c0,2.4-0.9,4-3.4,3.9S328.4,121.4,328.4,117.6L328.4,117.6z M333.7,114.8v-1.1c0-2.1-0.2-3.3-1.8-3.3c-1.4,0-1.9,0.7-1.9,3.5v0.9
			L333.7,114.8z M337.2,119.8c0-2.6,1.5-3.5,5.3-5.2v-0.9c0-2.4-0.4-3.2-1.6-3.2c-1,0-1.8,0.5-1.9,2.2v0.5l-1.6-0.1v-0.4
			c0.1-2.5,1.4-3.5,3.6-3.5s3.2,1.4,3.2,4.3v6.4c0,0.7,0,2.1,0.1,2.6h-1.5c-0.1-0.6-0.2-1.5-0.2-1.8c-0.4,1.2-1.5,2-2.7,2
			c-1.5,0-2.7-1.3-2.6-2.8C337.2,119.9,337.2,119.9,337.2,119.8z M342.5,119.8v-4.1c-2.5,1.3-3.6,1.8-3.6,3.7c0,1.4,0.7,1.9,1.5,1.9
			C341.3,121.3,342.1,120.7,342.5,119.8L342.5,119.8z M346.8,109.4h1.7v1.8c0.6-1.1,1.7-1.9,3-1.9c0.1,0,0.2,0,0.3,0v1.8
			c-0.3-0.1-0.5-0.1-0.8-0.1c-1.1,0-2,0.6-2.5,1.5v10.1h-1.7L346.8,109.4z M353,117.6v-3.1c0-3.6,0.7-5.3,3.5-5.3s3.3,1.7,3.3,4.2
			v0.6h-1.5v-0.6c0-2.3-0.5-3-1.8-3c-1.6,0-1.9,1-1.9,3.8v3.7c0,2.6,0.4,3.6,1.9,3.6s1.8-1,1.8-3.2v-0.7h1.5v0.6
			c0,2.7-0.5,4.5-3.4,4.5C353.5,122.8,353,120.6,353,117.6L353,117.6z M362.2,104.2h1.7v6.7c0.8-1,2-1.5,3.2-1.6c1.3,0,2,1,2,2.8
			v10.5h-1.7v-10.2c0-1.4-0.4-1.9-1.2-1.9c-0.9,0.1-1.7,0.5-2.3,1.2v10.8h-1.7L362.2,104.2z M376.1,117.2v-7.3c0-3.4,1-5.7,4.7-5.7
			c3.3,0,4.4,2,4.3,5.2v1.1h-1.6v-1.1c0-2.4-0.4-3.9-2.7-3.9c-2.5,0-2.9,1.7-3,4.1v7.8c0,2.7,0.6,4.1,2.9,4.1s2.7-1.6,2.7-4v-1.2
			h1.6v1.1c0,3.2-1,5.5-4.4,5.5C377,122.9,376,120.4,376.1,117.2L376.1,117.2z M387.2,118v-3.6c0-3.2,0.8-5,3.5-4.9s3.5,1.8,3.5,5
			v3.6c0,3.2-0.8,5-3.5,4.9S387.2,121.2,387.2,118L387.2,118z M392.5,118.1v-3.8c0-2.1-0.1-3.6-1.8-3.6s-1.9,1.5-1.9,3.6v3.8
			c0,2.1,0.1,3.6,1.8,3.6S392.5,120.2,392.5,118.1L392.5,118.1z M396.5,109.6h1.7v1.4c0.8-0.9,1.9-1.5,3.2-1.6c1.3,0,2,1,2,2.8v10.5
			h-1.7v-10.2c0-1.4-0.4-1.9-1.2-1.9c-0.9,0.1-1.7,0.5-2.3,1.2v10.8h-1.7L396.5,109.6z M405.2,119.3l1.4-0.4c0.2,2,0.9,2.9,2.2,2.9
			c0.9,0.1,1.8-0.6,1.9-1.6c0-0.1,0-0.2,0-0.3c-0.1-1.1-0.7-2-1.6-2.6l-1.8-1.6c-1.1-0.7-1.8-2-1.8-3.3c-0.1-1.6,1.1-2.9,2.7-3
			c0.2,0,0.3,0,0.5,0c2,0,3,1.4,3.1,3.5l-1.2,0.4c-0.1-1.8-0.7-2.6-1.9-2.6c-0.8-0.1-1.6,0.5-1.7,1.3c0,0.1,0,0.2,0,0.3
			c0,0.8,0.4,1.6,1.1,2.1l1.9,1.6c1.1,1,2.2,2,2.2,3.8c0,2-1.4,3.2-3.4,3.2S405.4,121.6,405.2,119.3L405.2,119.3z M413.8,118.1v-3.6
			c0-3.2,0.8-5,3.5-4.9s3.5,1.8,3.5,5v3.6c0,3.2-0.8,5-3.5,4.9S413.8,121.3,413.8,118.1z M419.1,118.2v-3.8c0-2.1-0.1-3.6-1.8-3.6
			s-1.9,1.5-1.9,3.6v3.8c0,2.1,0.1,3.6,1.8,3.6S419.1,120.3,419.1,118.2L419.1,118.2z M423.2,109.7h1.7v1.8c0.6-1.1,1.7-1.9,3-1.9
			c0.1,0,0.2,0,0.3,0v1.8c-0.3-0.1-0.5-0.1-0.8-0.1c-1.1,0-2,0.6-2.5,1.5v10.1h-1.7L423.2,109.7z M430.5,120.2v-9.3H429v-1.1h1.6
			v-4.1h1.7v4.1h2.2v1.1h-2.2v9.2c0,1.3,0.2,1.8,1.1,1.8c0.3,0,0.7,0,1-0.1v1.3c-0.5,0.1-0.9,0.1-1.4,0.1
			C431,123.1,430.5,121.9,430.5,120.2L430.5,120.2z M436.4,109.8h1.6v13.1h-1.7L436.4,109.8z M436.4,105.7h1.7v2.3h-1.7V105.7z
			 M440.7,120.4v-10.5h1.7V120c0,1.4,0.4,1.8,1.2,1.8c0.9-0.1,1.8-0.6,2.3-1.3v-10.7h1.7l0,13.2h-1.7v-1.4c-0.8,1-2,1.6-3.2,1.7
			C441.4,123.2,440.7,122.1,440.7,120.4z M450.2,109.8h1.5v1.3c0.7-1,1.9-1.5,3.1-1.6c1-0.1,1.9,0.7,2.1,1.7c0.8-1,1.9-1.7,3.2-1.7
			c1.2,0,2.2,0.7,2.2,3V123h-1.5v-10.3c0-1.5-0.6-1.9-1.3-1.9c-1,0.1-1.9,0.6-2.5,1.3c0,0.2,0,0.3,0,0.5l0,10.4h-1.6v-10.3
			c0-1.5-0.5-1.9-1.3-1.9c-1,0.1-1.8,0.6-2.5,1.3V123h-1.5L450.2,109.8z M50,83.8c-8.6-13.4-12-29.3-18.5-44.2
			C26.1,27.4,16.7,13.5,3.3,10.4l0,0.1C13,13.7,20.8,22,25.9,31c7.8,13.6,10.7,29.3,16.4,43.5c5.6,13.8,14.2,26.2,25.7,34.7
			c19.1,14,42.9,15.2,60.6,4.2c0.5-1.7,0.7-3.5,0.6-5.2c-4.8,3-10,5.1-15.6,6.3C89.7,120,64.4,106.3,50,83.8z"/>
		<path d="M54.5,80.9c-9.3-12.9-13.2-28.7-20-43.4C28.8,25.1,18.8,10.9,4.9,8.4C15,11.2,23.1,19.6,28.6,28.7
			c8,13.5,11.3,29.2,17.7,43.1c6.2,13.5,15.5,25.4,27.5,32.9c18.3,11.4,39.4,11,55.1,1.1c-0.2-0.8-0.4-1.5-0.7-2.2l-0.4-1
			c-2.5,1.4-5.1,2.6-7.8,3.5C96.8,114.1,70.2,102.7,54.5,80.9z"/>
		<path d="M40.9,89.7C33.7,75.3,31.3,59,25.4,43.8C21,32.3,12.9,19.4,1.1,14.9L1,15.1c8.6,4,15.2,12.1,19.7,20.6
			c7.2,13.8,9.3,29.6,13.8,44.3c4.4,14.3,11.6,27.8,22.1,38.3c2,2,4,3.8,6.2,5.5h10C59.4,116.3,48.2,104.1,40.9,89.7z"/>
		<path d="M36.4,92.6c-6.5-14.9-8.4-31.3-14-46.7c-4-11-11.3-23.2-22.1-28.4c0,0.1-0.1,0.2-0.1,0.4C8.1,22.3,14,30,18,38
			c7,14,8.6,29.8,12.4,44.7c3.8,14.7,10.3,28.6,20.3,40.1c0.3,0.3,0.6,0.7,0.9,1H59C49.3,115.1,41.6,104.5,36.4,92.6z M52.5,24.8
			c-5.1-8.2-11.9-17.5-20.4-23h-1.3c5.2,3.5,9.8,7.8,13.5,12.8C54.1,27.5,59.7,43,70,55.4c9.7,11.7,23.3,20.5,38.4,22.2
			c3.1,0.3,6.2,0.4,9.3,0.1l-1-2.5c-12.6-0.1-24.9-4.3-34.9-12C68.4,53.1,61.1,38.6,52.5,24.8z"/>
		<path d="M45.5,86.7c-7.9-13.9-10.8-30-17-45.1C23.6,29.8,14.8,16.3,2.1,12.6L2,12.7c9.2,3.6,16.5,11.8,21.3,20.6
			c7.5,13.7,9.9,29.5,15.1,43.9c5,14.1,12.9,27,23.9,36.5c4.7,4.1,10.1,7.4,15.8,10h36.6c5,0,9.7-2.6,12.4-6.9
			c-6.1,3.3-12.7,5.4-19.6,6.1C82.7,125.8,58.6,109.9,45.5,86.7z"/>
		<path d="M36.4,21.6c8.9,13.2,13.4,28.8,21.7,42c7.9,12.6,19.4,23,32.9,27.6c10.4,3.6,21.6,3.5,31.9-0.3l-0.9-2.1
			c-18.3,4.8-39.3-1.7-54-16.7C56.8,60.6,51.2,45.4,43.5,31.1C37.1,19.2,26.8,5.3,13,2.9l-0.1,0C22.5,5.6,30.7,13.2,36.4,21.6z"/>
		<path d="M46.9,12.2C57,25,63,40.5,73.9,52.7c10.2,11.4,24.7,19.7,40.2,20.4h1.6L95.1,22.9C89.9,10.1,77.4,1.8,63.6,1.8H36.4
			C40.3,4.8,43.9,8.3,46.9,12.2z M31.9,95.5C26,80.2,24.7,63.5,19.4,48C16,37.7,9.6,26.3,0,20.5c-0.1,2.8,0.4,5.6,1.5,8.1l35.3,86.1
			c2,4.8,6.4,8.2,11.5,8.9C41.3,115.3,35.7,105.8,31.9,95.5z"/>
		<path d="M63.6,75C53,63,47.9,47.7,40.5,33.2C34.2,20.9,23.7,6.6,9.5,4.6C19.6,7.1,28,15.1,33.8,24c8.6,13.3,12.7,28.9,20.4,42.3
			c7.3,12.8,18.1,23.8,31.1,29.3c13.8,5.9,28,5.2,39.6-0.2l-0.9-2.3C103.7,100.6,79.5,92.9,63.6,75z"/>
		<path d="M31.2,26.3c8.3,13.4,12,29.1,19,42.7C57,82.2,67,93.7,79.6,100.2c16.3,8.4,33.7,7.7,47.3,0.2l-1.1-2.6
			C103.4,108.2,75.9,99,59,77.9c-9.9-12.4-14.4-28-21.6-42.6C31.5,23,21.2,8.7,7.1,6.5C17.2,9.2,25.5,17.3,31.2,26.3z"/>
		<path d="M39.1,19.3c9.2,13.1,14.1,28.7,23,41.6c8.5,12.3,20.7,22.2,34.7,25.8c8,2.1,16.4,2.1,24.4-0.1l-0.9-2.2
			C103.9,87,86,81.5,72.6,69.1c-11.9-11-18.1-26-26.1-40.1C40.4,18.2,31,5.6,18.9,1.8h-0.9C26.4,4.9,33.7,11.8,39.1,19.3z"/>
		<path d="M77.2,66.2C64.6,55.6,57.8,40.9,49.5,26.9C44,17.6,36.1,6.9,26.1,1.8h-1.3c6.6,3.4,12.4,9.1,16.9,15.1
			c9.5,13,14.7,28.6,24.3,41.2c9.1,12,22,21.4,36.6,24c5.6,1,11.3,1,16.8,0.1l-1-2.4C103.4,80.8,88.6,75.9,77.2,66.2z"/>
	</g>
</g>
</svg>
