<?xml version="1.0" encoding="UTF-8" standalone="no"?>
<svg
   width="2715.8049"
   height="1293.7422"
   viewBox="0 0 2715.8049 1293.7422"
   version="1.1"
   xml:space="preserve"
   style="clip-rule:evenodd;fill-rule:evenodd;stroke-linejoin:round;stroke-miterlimit:2"
   id="svg17"
   sodipodi:docname="riemann_transformation.svg"
   inkscape:version="1.3.2 (091e20e, 2023-11-25)"
   xmlns:inkscape="http://www.inkscape.org/namespaces/inkscape"
   xmlns:sodipodi="http://sodipodi.sourceforge.net/DTD/sodipodi-0.dtd"
   xmlns="http://www.w3.org/2000/svg"
   xmlns:svg="http://www.w3.org/2000/svg"><defs
   id="defs17" /><sodipodi:namedview
   id="namedview17"
   pagecolor="#ffffff"
   bordercolor="#000000"
   borderopacity="0.25"
   inkscape:showpageshadow="2"
   inkscape:pageopacity="0.0"
   inkscape:pagecheckerboard="0"
   inkscape:deskcolor="#d1d1d1"
   inkscape:zoom="0.15631161"
   inkscape:cx="1650.5492"
   inkscape:cy="607.76036"
   inkscape:window-width="1312"
   inkscape:window-height="449"
   inkscape:window-x="0"
   inkscape:window-y="37"
   inkscape:window-maximized="0"
   inkscape:current-layer="svg17" />
    <path
   d="m 2159.7354,53.924369 c -1.21,-9.352 5.4,-17.93 14.75,-19.143 9.35,-1.213 17.93,5.395 19.14,14.747 2.88,22.227 9.01,44.594 4.01,76.261001 -4.94,31.364 -20.8,72.175 -63.36,131.108 -5.52,7.645 -16.21,9.37 -23.86,3.848 -7.64,-5.522 -9.36,-16.212 -3.84,-23.857 37.93,-52.518 52.9,-88.474 57.31,-116.423 4.36,-27.647001 -1.63,-47.137001 -4.15,-66.541001 z"
   id="path16" /><path
   style="fill:#ececec;fill-opacity:1;stroke:#010101;stroke-width:1.00157;stroke-opacity:1"
   d="m 14.500584,850.46397 c 41.38698,-19.0315 53.69986,-34.7243 83.41267,-45.8519 28.487616,-10.6687 58.818416,-17.451 89.176636,-19.3862 29.77728,-1.8982 60.53259,-0.6006 89.17664,7.7545 32.18685,9.3885 62.40368,26.3442 89.17664,46.527 28.46958,21.4618 52.81131,48.6288 73.66766,77.5449 25.70542,35.639 47.95388,74.6927 62.03593,116.31733 18.18983,53.7666 27.81359,129.0427 38.35048,181.7625 4.2938,21.4831 -22.10425,49.5017 0.422,54.7495 43.3114,10.0899 50.5013,-73.2596 77.5449,-108.5629 39.6491,-51.7586 76.7324,-106.3797 124.0718,-151.2126 34.9098,-33.06133 69.715,-73.46873 116.3174,-85.29933 27.814,-7.0609 57.711,3.735 85.2994,11.6317 33.8024,9.6754 88.51936,77.51133 96.22446,43.2061 10.1058,-44.9936 20.8285,-93.0315 27.8473,-140.1372 9.571,-64.2339 18.7081,-128.9228 19.3862,-193.8623 0.5144,-49.2619 8.9988,-102.59854 -11.6317,-147.33533 -17.6044,-38.17462 -50.0363,-73.83874 -89.17656,-89.17664 -31.3095,-12.26924 -67.6112,9.2402 -100.8084,3.87725 -21.8021,-3.52209 -40.1166,-20.56509 -62.0359,-23.26348 -45.1879,-5.56288 -91.1446,6.16127 -135.7036,15.50899 -72.8159,15.27552 -144.4337,37.62849 -213.2485,65.91317 -64.69416,26.591 -128.51396,57.24021 -186.10777,96.93113 -51.25781,35.32441 -95.73504,79.88211 -139.58083,124.07181 -38.70644,39.01 -74.123546,81.2478 -108.562866,124.0719 -8.88433,11.0474 -38.1340601,40.1429 -25.25399,34.2201 z"
   id="path19"
   sodipodi:nodetypes="saaaaasssaaaasaaaaaaaaaaas" /><path
   d="m 12.544444,862.77537 c 29.09,-58.18 210.000996,-131.26 360.530996,-12.99 169.98,133.56 147.318,337.74003 172.15,427.12003"
   style="fill:#5f263b;fill-opacity:0"
   id="path1" />
    <path
   d="m 23.763444,868.38537 c -3.096,6.2 -10.637,8.71 -16.8290001,5.61 -6.19199998,-3.09 -8.705,-10.63 -5.609,-16.83 9.6190001,-19.23 33.8390001,-40.51 68.1570001,-56.56 75.825996,-35.48 201.362996,-47.09 311.342996,39.32 104.926,82.44 138.811,190.87003 154.4,284.42003 10.02,60.1 12.24,113.76 22.08,149.2 1.85,6.67 -2.06,13.59 -8.73,15.44 -6.67,1.86 -13.59,-2.06 -15.44,-8.72 -10.017,-36.07 -12.462,-90.64 -22.653,-151.79 -14.718,-88.32 -46.106,-191.00003 -145.156,-268.83003 -100.763,-79.17 -215.741,-68.83 -285.212996,-36.32 -27.956,13.08 -48.514,29.39 -56.35,45.06 z"
   id="path2" />
    <path
   d="m 17.743444,869.23537 c -17.11700008,-7.58 99.172996,-167.28 269.258996,-292.28 148.108,-108.853 424.693,-205.763 609.003,-168.9"
   style="fill:#5f263b;fill-opacity:0"
   id="path3" />
    <path
   d="m 29.266444,864.28537 c 1.328,3.1 1.416,6.71 -0.055,10.03 -2.804,6.33 -10.219,9.19 -16.549,6.39 l -3.3410001,-2.04 -2.721,-2.85 -2.014,-3.78 -1.024,-5.07 c -0.263,-4.75 2.019,-13.52 8.2570001,-25.02 26.831,-49.47 129.719996,-173.65 267.754996,-275.1 150.479,-110.593 431.631,-208.543 618.891,-171.09 6.79,1.358 11.2,7.971 9.84,14.759 -1.35,6.789 -7.97,11.198 -14.76,9.84 -181.36,-36.273 -453.377,59.597 -599.115,166.701 -134.103,98.56 -234.491996,218.79 -260.558996,266.85 -1.996,3.68 -3.712,8 -4.605,10.38 z"
   id="path4" />
    <path
   d="m 543.74544,1281.1954 c 3.34,-13.4 171.3,-280.03 288.93,-338.84003 95.16,-47.58 231.18996,62.00003 237.09996,64.96003"
   style="fill:#5f263b;fill-opacity:0"
   id="path5" />
    <path
   d="m 555.71544,1284.9354 c -1.96,6.3 -8.53,10.05 -15.01,8.43 -6.72,-1.68 -10.81,-8.49 -9.132,-15.21 0.372,-1.47 1.942,-5.29 5.062,-10.89 9.16,-16.49 33.57,-55.41 66.14,-101.43 61.54,-86.96 152.37,-198.74003 224.29,-234.70003 41.11,-20.55 89.28,-14.66 132.7,0.87 60.98996,21.81 112.02996,62.3 115.61996,64.09 6.19,3.1 8.71,10.64003 5.61,16.83003 -3.09,6.19 -10.63,8.71 -16.83,5.61 -3.51,-1.75 -53.24,-41.59003 -112.84996,-62.91003 -36.98,-13.23 -78.01,-19.56 -113.03,-2.05 -69.24,34.62 -155.8,143.04003 -215.03,226.75003 -27.92,39.44 -49.73,73.54 -60.76,92.27 -3.49,5.93 -6.42,11.65 -6.78,12.34 z"
   id="path6" />
    <path
   d="m 883.57544,413.75637 c 293.46996,-51.24 194.85996,355.399 153.71996,561.079"
   style="fill:#5f263b;fill-opacity:0"
   id="path7" />
    <path
   d="m 885.73544,426.11337 c -6.82,1.19 -13.32,-3.38 -14.51,-10.199 -1.19,-6.82 3.38,-13.323 10.2,-14.514 62.82,-10.969 108.76,-1.669 141.84996,20.927 33.35,22.763 54.06,59.341 65.22,104.551 27.9693,113.3707 -4.902,282.9379 -30.0835,406.9207 -3.0977,15.2517 -6.0791,29.8137 -8.8165,43.4963 -1.36,6.79 -7.97,11.2 -14.76,9.84 -6.79,-1.36 -11.19,-7.97 -9.84,-14.76 24.39,-121.91 69.8,-315.23 39.14,-439.487 -9.54,-38.65 -26.5,-70.382 -55,-89.842 -28.74996,-19.628 -68.82996,-26.461 -123.39996,-16.933 z"
   id="path8"
   sodipodi:nodetypes="cscccscscccc" />
    <path
   d="m 1909.5954,470.88737 c -0.04,0.964 -0.16,3.863 -0.22,6.771 -1.07,50.729 -1.98,314.827 -42.03,603.15703 -0.95,6.86 -7.29,11.65 -14.15,10.7 -6.85,-0.95 -11.65,-7.29 -10.7,-14.15 39.86,-286.94003 40.74,-549.75103 41.8,-600.23503 0.14,-6.649 0.52,-10.49 0.71,-11.298 l 2.33,-4.85 3.33,-2.992 c 5.89,-3.633 13.63,-1.798 17.26,4.095 1.69,2.735 2.2,5.868 1.67,8.802 z"
   id="path9"
   style="fill:#000000" />
    <path
   d="m 1839.3554,1102.5954 c -6.82,-1.2 -11.37,-7.71 -10.17,-14.53 1.2,-6.82 7.72,-11.38 14.53,-10.17 155.58,27.45 185.93,-20.2 831.19,40.02 6.89,0.65 11.96,6.76 11.32,13.66 -0.65,6.89 -6.76,11.96 -13.66,11.32 -646.83,-60.37 -677.25,-12.77 -833.21,-40.3 z"
   id="path10"
   style="fill:#000000" />
    <path
   d="m 1891.2854,471.40937 c -6.72,-1.669 -10.82,-8.478 -9.15,-15.197 1.67,-6.718 8.48,-10.818 15.2,-9.149 33.78,8.391 608.14,12.469 803.61,19.328 6.92,0.242 12.34,6.057 12.1,12.975 -0.24,6.919 -6.06,12.338 -12.98,12.096 -196.73,-6.903 -774.78,-11.607 -808.78,-20.053 z"
   id="path11"
   style="fill:#000000" />
    <path
   d="m 2690.7754,492.94337 c 0.67,-6.89 6.8,-11.946 13.69,-11.282 6.89,0.665 11.95,6.798 11.28,13.689 -56.43,585.54503 -36.9,586.31503 -36.17,607.85503 0.24,6.92 -5.19,12.73 -12.11,12.96 -6.92,0.24 -12.72,-5.19 -12.96,-12.11 -0.73,-21.65 -20.47,-22.44 36.27,-611.11203 z"
   id="path12"
   style="fill:#000000" />
    <path
   d="m 962.37544,76.649369 c -2.08,-0.06 -3.73,-1.804 -3.67,-3.891 0.06,-2.087 1.8,-3.732 3.89,-3.672 435.14996,12.552 433.54996,11.731 867.83996,17.847 2.09,0.03 3.76,1.749 3.73,3.836 -0.03,2.088 -1.75,3.759 -3.84,3.73 -434.34,-6.118 -432.74,-5.296 -867.94996,-17.85 z"
   id="path13" />
    <path
   d="m 1774.2254,47.161369 c -1.44,0.811 -3.3,0.604 -4.53,-0.623 -1.47,-1.476 -1.47,-3.873 0,-5.35 l 1.01,-0.778 1,-0.459 c 0.68,-0.238 1.56,-0.396 2.64,-0.397 2.45,-10e-4 6.58,0.933 11.84,2.676 27.23,9.017 88.3,39.533 94.97,42.871 4.73,2.362 6.32,5.436 6.3,8.336 0,1.783 -0.66,3.695 -2.1,5.614 -1.51,2.019001 -4,4.173001 -7.28,6.314001 -18.62,12.164 -64.47,25.607 -68.94,26.911 -2.01,0.585 -4.11,-0.568 -4.7,-2.572 -0.58,-2.004 0.57,-4.106 2.58,-4.691 4.33,-1.265 48.86,-14.183 66.92,-25.982001 2.04,-1.331 3.71,-2.625 4.86,-3.898 0.57,-0.642 1.09,-1.151 1.1,-1.738 0,-0.144 -0.17,-0.209 -0.3,-0.338 -0.44,-0.423 -1.05,-0.805 -1.82,-1.188 -6.61,-3.303 -67.03,-33.534 -93.97,-42.457 -4.11,-1.364 -8.65,-2.108 -9.58,-2.251 z"
   id="path14" />
    <path
   d="m 336.08844,125.89837 c 0.99,-0.429 1.996,-0.892 2.976,-1.381 18.881,-9.441 24.067,-15.432 30.135,-27.538001 5.245,-10.465 11.171,-24.282 23.53,-44.934 4.081,-6.821 12.327,-9.926 19.894,-7.492 7.567,2.434 12.457,9.764 11.797,17.686 -6.111,73.326001 -10.161,109.810001 -11.83,130.738001 -1.383,17.358 -1.071,21.832 1.762,31.042 1.647,5.35 2.792,9.542 3.881,12.94 0.594,1.852 0.659,3.279 1.694,4.283 2.101,2.037 5.553,3.139 11.213,5.403 8.756,3.502 13.021,13.455 9.519,22.211 -3.503,8.757 -13.455,13.022 -22.211,9.519 -11.652,-4.66 -17.989,-8.407 -22.314,-12.601 -6.349,-6.158 -8.94,-13.814 -14.445,-31.705 -3.332,-10.829 -4.6,-17.182 -3.915,-32.354 0.542,-11.997 2.524,-30.678 5.81,-65.706 -6.513,6.28 -15.39,12.151 -29.237,19.075 -10.523,5.261 -18.389,7.542 -24.005,8.014 l -8.837,-0.537 -4.725,-1.56 -4.483,-2.623 -4.781,-4.745 -0.689,-1.177 c -12.077,24.521 -26.731,51.042 -42.407,72.289 -18.792,25.469 -39.939,43.102 -59.357,46.397 -9.298,1.578 -18.128,-4.69 -19.705,-13.988 -1.578,-9.298 4.689,-18.127 13.987,-19.705 5.43,-0.921 10.733,-4.435 16.21,-9.098 7.258,-6.179 14.403,-14.46 21.365,-23.896 35.412,-47.996 65.067,-124.619001 69.318,-135.550001 2.941,-7.563 10.796,-12.014 18.796,-10.651 8,1.363 13.937,8.165 14.207,16.275 0.614,18.4 -1.727,35.287001 -2.936,48.296001 -0.092,0.984 -0.163,2.027 -0.217,3.073 z"
   id="path15" />
    
    <path
   d="m 2212.0154,53.830369 c 2.49,17.898 9.69,71.520001 18.17,179.993001 24.66,-44.129 57.91,-114.46 63.57,-132.586 18.92,-60.521001 6.12,-70.308001 4.02,-80.796001 -1.85,-9.247 4.16,-18.2569998 13.4,-20.10699984 9.25,-1.84899996 18.26,4.15700004 20.11,13.40499984 2.54,12.681 17.96,24.513 -4.91,97.691001 -7.71,24.687 -63.62,140.556 -86.66,171.97 -4.67,6.365 -8.99,10.195 -11.78,11.834 l -3.99,1.817 -3.89,0.856 -4.13,0.002 -4.58,-1.126 -4.49,-2.529 -3.28,-3.245 -3.06,-5.639 -1.2,-6.025 c -11.01,-154.233 -20.66,-216.805001 -21.96,-226.661001 l -0.27,-4.62 1.04,-4.964 1.93,-3.733 3.24,-3.544 6.58,-3.348 7.03,-0.321 6.95,2.798 3.49,3.207 2.69,4.534 c 0.17,0.421 0.8,2.362 1.59,5.737 0.43,1.818 0.55,3.636 0.39,5.4 z"
   id="path17" />
<path
   style="fill:#ececec;fill-opacity:1;stroke:#010101;stroke-width:1.00157;stroke-opacity:1"
   d="m 1895.9587,453.2092 -10.6354,347.52567 -34.8952,290.79343 155.0898,3.8772 166.7215,-3.8772 275.2844,11.6317 217.1258,31.018 -3.8773,-201.61683 23.2635,-248.1437 15.509,-213.24844 H 2482.419 l -205.494,-7.7545 -275.2844,-3.87724 z"
   id="path18" /></svg>
