<svg xmlns="http://www.w3.org/2000/svg" xmlns:xlink="http://www.w3.org/1999/xlink" class="httpgd" width="410.00" height="402.00" viewBox="0 0 328.00 321.60">
<defs>
  <style type='text/css'><![CDATA[
    .httpgd line, .httpgd polyline, .httpgd polygon, .httpgd path, .httpgd rect, .httpgd circle {
      fill: none;
      stroke: #000000;
      stroke-linecap: round;
      stroke-linejoin: round;
      stroke-miterlimit: 10.00;
    }
  ]]></style>
<clipPath id="c0"><rect x="0.00" y="0.00" width="328.00" height="321.60"/></clipPath>
<clipPath id="c1"><rect x="28.37" y="22.50" width="144.33" height="228.16"/></clipPath>
<clipPath id="c2"><rect x="0.00" y="0.00" width="328.00" height="321.60"/></clipPath>
<clipPath id="c3"><rect x="178.19" y="22.50" width="144.33" height="228.16"/></clipPath>
<clipPath id="c4"><rect x="0.00" y="0.00" width="328.00" height="321.60"/></clipPath>
<clipPath id="c5"><rect x="28.37" y="5.48" width="144.33" height="17.03"/></clipPath>
<clipPath id="c6"><rect x="0.00" y="0.00" width="328.00" height="321.60"/></clipPath>
<clipPath id="c7"><rect x="178.19" y="5.48" width="144.33" height="17.03"/></clipPath>
<clipPath id="c8"><rect x="0.00" y="0.00" width="328.00" height="321.60"/></clipPath>
</defs>
<rect width="100%" height="100%" style="stroke: none;fill: #FFFFFF;"/>
<g clip-path="url(#c0)">
<rect x="0.00" y="0.00" width="328.00" height="321.60" style="stroke-width: 1.07;stroke: none;"/>
</g><g clip-path="url(#c1)">
<rect x="28.37" y="22.50" width="144.33" height="228.16" style="stroke-width: 1.07;stroke: none;"/>
<circle cx="166.15" cy="32.88" r="1.95" style="stroke-width: 0.71;stroke: #9491D9;fill: #9491D9;"/>
<circle cx="34.93" cy="127.47" r="1.95" style="stroke-width: 0.71;stroke: #9491D9;fill: #9491D9;"/>
<circle cx="39.00" cy="132.35" r="1.95" style="stroke-width: 0.71;stroke: #9491D9;fill: #9491D9;"/>
<circle cx="45.91" cy="155.95" r="1.95" style="stroke-width: 0.71;stroke: #9491D9;fill: #9491D9;"/>
<circle cx="142.06" cy="168.43" r="1.95" style="stroke-width: 0.71;stroke: #9491D9;fill: #9491D9;"/>
<circle cx="142.64" cy="176.51" r="1.95" style="stroke-width: 0.71;stroke: #9491D9;fill: #9491D9;"/>
<circle cx="126.68" cy="176.51" r="1.95" style="stroke-width: 0.71;stroke: #9491D9;fill: #9491D9;"/>
<circle cx="129.45" cy="198.54" r="1.95" style="stroke-width: 0.71;stroke: #9491D9;fill: #9491D9;"/>
<circle cx="125.06" cy="202.56" r="1.95" style="stroke-width: 0.71;stroke: #9491D9;fill: #9491D9;"/>
<circle cx="124.74" cy="204.34" r="1.95" style="stroke-width: 0.71;stroke: #9491D9;fill: #9491D9;"/>
<circle cx="122.80" cy="204.34" r="1.95" style="stroke-width: 0.71;stroke: #9491D9;fill: #9491D9;"/>
<circle cx="120.12" cy="205.12" r="1.95" style="stroke-width: 0.71;stroke: #9491D9;fill: #9491D9;"/>
<circle cx="127.37" cy="205.51" r="1.95" style="stroke-width: 0.71;stroke: #9491D9;fill: #9491D9;"/>
<circle cx="119.60" cy="208.57" r="1.95" style="stroke-width: 0.71;stroke: #9491D9;fill: #9491D9;"/>
<circle cx="68.95" cy="213.00" r="1.95" style="stroke-width: 0.71;stroke: #9491D9;fill: #9491D9;"/>
<circle cx="117.21" cy="216.01" r="1.95" style="stroke-width: 0.71;stroke: #9491D9;fill: #9491D9;"/>
<circle cx="71.12" cy="216.01" r="1.95" style="stroke-width: 0.71;stroke: #9491D9;fill: #9491D9;"/>
<circle cx="118.12" cy="221.67" r="1.95" style="stroke-width: 0.71;stroke: #9491D9;fill: #9491D9;"/>
<line x1="28.37" y1="204.94" x2="172.71" y2="204.94" style="stroke-width: 1.07;stroke: #ABABAB;stroke-linecap: butt;"/>
<g><text x="112.09" y="35.94" text-anchor="middle" style="font-family: Arial;font-size: 8.54px;fill: #9491D9;" textLength="101.47px" lengthAdjust="spacingAndGlyphs">s__Collinsella_aerofaciens</text></g>
<g><text x="85.83" y="124.72" text-anchor="middle" style="font-family: Arial;font-size: 8.54px;fill: #9491D9;" textLength="93.41px" lengthAdjust="spacingAndGlyphs">s__Eubacterium_eligens</text></g>
<g><text x="79.40" y="139.44" text-anchor="middle" style="font-family: Arial;font-size: 8.54px;fill: #9491D9;" textLength="79.66px" lengthAdjust="spacingAndGlyphs">s__Roseburia_faecis</text></g>
<g><text x="87.27" y="152.76" text-anchor="middle" style="font-family: Arial;font-size: 8.54px;fill: #9491D9;" textLength="97.20px" lengthAdjust="spacingAndGlyphs">s__Roseburia_intestinalis</text></g>
<g><text x="107.40" y="166.09" text-anchor="middle" style="font-family: Arial;font-size: 8.54px;fill: #9491D9;" textLength="90.56px" lengthAdjust="spacingAndGlyphs">s__Bacteroides_caccae</text></g>
<g><text x="104.04" y="186.95" text-anchor="middle" style="font-family: Arial;font-size: 8.54px;fill: #9491D9;" textLength="95.31px" lengthAdjust="spacingAndGlyphs">s__Bacteroides_plebeius</text></g>
</g><g clip-path="url(#c3)">
<rect x="178.19" y="22.50" width="144.33" height="228.16" style="stroke-width: 1.07;stroke: none;"/>
<circle cx="226.28" cy="227.36" r="1.95" style="stroke-width: 0.71;stroke: #3F8C61;fill: #3F8C61;"/>
<circle cx="226.71" cy="227.83" r="1.95" style="stroke-width: 0.71;stroke: #3F8C61;fill: #3F8C61;"/>
<circle cx="223.37" cy="230.64" r="1.95" style="stroke-width: 0.71;stroke: #3F8C61;fill: #3F8C61;"/>
<circle cx="228.31" cy="231.62" r="1.95" style="stroke-width: 0.71;stroke: #3F8C61;fill: #3F8C61;"/>
<circle cx="232.51" cy="236.10" r="1.95" style="stroke-width: 0.71;stroke: #3F8C61;fill: #3F8C61;"/>
<circle cx="230.65" cy="236.53" r="1.95" style="stroke-width: 0.71;stroke: #3F8C61;fill: #3F8C61;"/>
<circle cx="258.06" cy="236.53" r="1.95" style="stroke-width: 0.71;stroke: #3F8C61;fill: #3F8C61;"/>
<circle cx="231.89" cy="236.53" r="1.95" style="stroke-width: 0.71;stroke: #3F8C61;fill: #3F8C61;"/>
<circle cx="233.04" cy="236.53" r="1.95" style="stroke-width: 0.71;stroke: #3F8C61;fill: #3F8C61;"/>
<circle cx="258.47" cy="236.53" r="1.95" style="stroke-width: 0.71;stroke: #3F8C61;fill: #3F8C61;"/>
<circle cx="233.18" cy="236.53" r="1.95" style="stroke-width: 0.71;stroke: #3F8C61;fill: #3F8C61;"/>
<circle cx="233.26" cy="237.98" r="1.95" style="stroke-width: 0.71;stroke: #3F8C61;fill: #3F8C61;"/>
<circle cx="234.76" cy="237.98" r="1.95" style="stroke-width: 0.71;stroke: #3F8C61;fill: #3F8C61;"/>
<circle cx="232.28" cy="237.98" r="1.95" style="stroke-width: 0.71;stroke: #3F8C61;fill: #3F8C61;"/>
<circle cx="234.85" cy="237.98" r="1.95" style="stroke-width: 0.71;stroke: #3F8C61;fill: #3F8C61;"/>
<circle cx="235.75" cy="237.98" r="1.95" style="stroke-width: 0.71;stroke: #3F8C61;fill: #3F8C61;"/>
<circle cx="233.74" cy="238.21" r="1.95" style="stroke-width: 0.71;stroke: #3F8C61;fill: #3F8C61;"/>
<circle cx="236.25" cy="238.50" r="1.95" style="stroke-width: 0.71;stroke: #3F8C61;fill: #3F8C61;"/>
<circle cx="236.12" cy="238.50" r="1.95" style="stroke-width: 0.71;stroke: #3F8C61;fill: #3F8C61;"/>
<circle cx="235.58" cy="238.98" r="1.95" style="stroke-width: 0.71;stroke: #3F8C61;fill: #3F8C61;"/>
<circle cx="237.09" cy="239.93" r="1.95" style="stroke-width: 0.71;stroke: #3F8C61;fill: #3F8C61;"/>
<circle cx="253.70" cy="239.93" r="1.95" style="stroke-width: 0.71;stroke: #3F8C61;fill: #3F8C61;"/>
<circle cx="237.13" cy="239.93" r="1.95" style="stroke-width: 0.71;stroke: #3F8C61;fill: #3F8C61;"/>
<circle cx="237.77" cy="239.93" r="1.95" style="stroke-width: 0.71;stroke: #3F8C61;fill: #3F8C61;"/>
<circle cx="237.65" cy="240.12" r="1.95" style="stroke-width: 0.71;stroke: #3F8C61;fill: #3F8C61;"/>
<circle cx="238.39" cy="240.15" r="1.95" style="stroke-width: 0.71;stroke: #3F8C61;fill: #3F8C61;"/>
<circle cx="239.21" cy="240.15" r="1.95" style="stroke-width: 0.71;stroke: #3F8C61;fill: #3F8C61;"/>
<circle cx="251.42" cy="240.15" r="1.95" style="stroke-width: 0.71;stroke: #3F8C61;fill: #3F8C61;"/>
<circle cx="238.63" cy="240.15" r="1.95" style="stroke-width: 0.71;stroke: #3F8C61;fill: #3F8C61;"/>
<circle cx="250.04" cy="240.15" r="1.95" style="stroke-width: 0.71;stroke: #3F8C61;fill: #3F8C61;"/>
<circle cx="239.36" cy="240.15" r="1.95" style="stroke-width: 0.71;stroke: #3F8C61;fill: #3F8C61;"/>
<circle cx="239.80" cy="240.15" r="1.95" style="stroke-width: 0.71;stroke: #3F8C61;fill: #3F8C61;"/>
<circle cx="241.53" cy="240.15" r="1.95" style="stroke-width: 0.71;stroke: #3F8C61;fill: #3F8C61;"/>
<circle cx="249.42" cy="240.15" r="1.95" style="stroke-width: 0.71;stroke: #3F8C61;fill: #3F8C61;"/>
<circle cx="249.50" cy="240.15" r="1.95" style="stroke-width: 0.71;stroke: #3F8C61;fill: #3F8C61;"/>
<circle cx="240.22" cy="240.15" r="1.95" style="stroke-width: 0.71;stroke: #3F8C61;fill: #3F8C61;"/>
<circle cx="248.53" cy="240.15" r="1.95" style="stroke-width: 0.71;stroke: #3F8C61;fill: #3F8C61;"/>
<circle cx="241.25" cy="240.15" r="1.95" style="stroke-width: 0.71;stroke: #3F8C61;fill: #3F8C61;"/>
<circle cx="247.33" cy="240.15" r="1.95" style="stroke-width: 0.71;stroke: #3F8C61;fill: #3F8C61;"/>
<circle cx="242.42" cy="240.15" r="1.95" style="stroke-width: 0.71;stroke: #3F8C61;fill: #3F8C61;"/>
<circle cx="246.50" cy="240.15" r="1.95" style="stroke-width: 0.71;stroke: #3F8C61;fill: #3F8C61;"/>
<circle cx="241.02" cy="240.15" r="1.95" style="stroke-width: 0.71;stroke: #3F8C61;fill: #3F8C61;"/>
<circle cx="241.75" cy="240.15" r="1.95" style="stroke-width: 0.71;stroke: #3F8C61;fill: #3F8C61;"/>
<circle cx="243.00" cy="240.15" r="1.95" style="stroke-width: 0.71;stroke: #3F8C61;fill: #3F8C61;"/>
<circle cx="246.34" cy="240.15" r="1.95" style="stroke-width: 0.71;stroke: #3F8C61;fill: #3F8C61;"/>
<circle cx="245.24" cy="240.15" r="1.95" style="stroke-width: 0.71;stroke: #3F8C61;fill: #3F8C61;"/>
<circle cx="242.44" cy="240.15" r="1.95" style="stroke-width: 0.71;stroke: #3F8C61;fill: #3F8C61;"/>
<circle cx="243.99" cy="240.15" r="1.95" style="stroke-width: 0.71;stroke: #3F8C61;fill: #3F8C61;"/>
<circle cx="244.33" cy="240.15" r="1.95" style="stroke-width: 0.71;stroke: #3F8C61;fill: #3F8C61;"/>
<circle cx="246.30" cy="240.15" r="1.95" style="stroke-width: 0.71;stroke: #3F8C61;fill: #3F8C61;"/>
<circle cx="242.74" cy="240.15" r="1.95" style="stroke-width: 0.71;stroke: #3F8C61;fill: #3F8C61;"/>
<circle cx="241.69" cy="240.15" r="1.95" style="stroke-width: 0.71;stroke: #3F8C61;fill: #3F8C61;"/>
<circle cx="245.91" cy="240.15" r="1.95" style="stroke-width: 0.71;stroke: #3F8C61;fill: #3F8C61;"/>
<circle cx="244.04" cy="240.15" r="1.95" style="stroke-width: 0.71;stroke: #3F8C61;fill: #3F8C61;"/>
<circle cx="246.01" cy="240.15" r="1.95" style="stroke-width: 0.71;stroke: #3F8C61;fill: #3F8C61;"/>
<circle cx="243.68" cy="240.15" r="1.95" style="stroke-width: 0.71;stroke: #3F8C61;fill: #3F8C61;"/>
<circle cx="242.89" cy="240.15" r="1.95" style="stroke-width: 0.71;stroke: #3F8C61;fill: #3F8C61;"/>
<circle cx="243.40" cy="240.15" r="1.95" style="stroke-width: 0.71;stroke: #3F8C61;fill: #3F8C61;"/>
<circle cx="245.90" cy="240.15" r="1.95" style="stroke-width: 0.71;stroke: #3F8C61;fill: #3F8C61;"/>
<circle cx="244.76" cy="240.30" r="1.95" style="stroke-width: 0.71;stroke: #3F8C61;fill: #3F8C61;"/>
<line x1="178.19" y1="204.94" x2="322.52" y2="204.94" style="stroke-width: 1.07;stroke: #ABABAB;stroke-linecap: butt;"/>
</g><g clip-path="url(#c5)">
<rect x="28.37" y="5.48" width="144.33" height="17.03" style="stroke-width: 2.13;"/>
<g><text x="100.54" y="17.15" text-anchor="middle" style="font-family: Arial;font-size: 8.80px;fill: #1A1A1A;" textLength="27.87px" lengthAdjust="spacingAndGlyphs">FALSE</text></g>
</g><g clip-path="url(#c7)">
<rect x="178.19" y="5.48" width="144.33" height="17.03" style="stroke-width: 2.13;"/>
<g><text x="250.35" y="17.15" text-anchor="middle" style="font-family: Arial;font-size: 8.80px;fill: #1A1A1A;" textLength="23.94px" lengthAdjust="spacingAndGlyphs">TRUE</text></g>
</g><g clip-path="url(#c8)">
<polyline points="28.37,250.67 172.71,250.67" style="stroke-width: 1.07;stroke-linecap: butt;"/>
<polyline points="41.25,253.41 41.25,250.67" style="stroke-width: 1.07;stroke: #333333;stroke-linecap: butt;"/>
<polyline points="68.13,253.41 68.13,250.67" style="stroke-width: 1.07;stroke: #333333;stroke-linecap: butt;"/>
<polyline points="95.01,253.41 95.01,250.67" style="stroke-width: 1.07;stroke: #333333;stroke-linecap: butt;"/>
<polyline points="121.89,253.41 121.89,250.67" style="stroke-width: 1.07;stroke: #333333;stroke-linecap: butt;"/>
<polyline points="148.77,253.41 148.77,250.67" style="stroke-width: 1.07;stroke: #333333;stroke-linecap: butt;"/>
<g><text x="41.25" y="261.91" text-anchor="middle" style="font-family: Arial;font-size: 8.80px;fill: #4D4D4D;" textLength="7.83px" lengthAdjust="spacingAndGlyphs">-2</text></g>
<g><text x="68.13" y="261.91" text-anchor="middle" style="font-family: Arial;font-size: 8.80px;fill: #4D4D4D;" textLength="7.83px" lengthAdjust="spacingAndGlyphs">-1</text></g>
<g><text x="95.01" y="261.91" text-anchor="middle" style="font-family: Arial;font-size: 8.80px;fill: #4D4D4D;" textLength="4.90px" lengthAdjust="spacingAndGlyphs">0</text></g>
<g><text x="121.89" y="261.91" text-anchor="middle" style="font-family: Arial;font-size: 8.80px;fill: #4D4D4D;" textLength="4.90px" lengthAdjust="spacingAndGlyphs">1</text></g>
<g><text x="148.77" y="261.91" text-anchor="middle" style="font-family: Arial;font-size: 8.80px;fill: #4D4D4D;" textLength="4.90px" lengthAdjust="spacingAndGlyphs">2</text></g>
<polyline points="178.19,250.67 322.52,250.67" style="stroke-width: 1.07;stroke-linecap: butt;"/>
<polyline points="191.07,253.41 191.07,250.67" style="stroke-width: 1.07;stroke: #333333;stroke-linecap: butt;"/>
<polyline points="217.95,253.41 217.95,250.67" style="stroke-width: 1.07;stroke: #333333;stroke-linecap: butt;"/>
<polyline points="244.82,253.41 244.82,250.67" style="stroke-width: 1.07;stroke: #333333;stroke-linecap: butt;"/>
<polyline points="271.70,253.41 271.70,250.67" style="stroke-width: 1.07;stroke: #333333;stroke-linecap: butt;"/>
<polyline points="298.58,253.41 298.58,250.67" style="stroke-width: 1.07;stroke: #333333;stroke-linecap: butt;"/>
<g><text x="191.07" y="261.91" text-anchor="middle" style="font-family: Arial;font-size: 8.80px;fill: #4D4D4D;" textLength="7.83px" lengthAdjust="spacingAndGlyphs">-2</text></g>
<g><text x="217.95" y="261.91" text-anchor="middle" style="font-family: Arial;font-size: 8.80px;fill: #4D4D4D;" textLength="7.83px" lengthAdjust="spacingAndGlyphs">-1</text></g>
<g><text x="244.82" y="261.91" text-anchor="middle" style="font-family: Arial;font-size: 8.80px;fill: #4D4D4D;" textLength="4.90px" lengthAdjust="spacingAndGlyphs">0</text></g>
<g><text x="271.70" y="261.91" text-anchor="middle" style="font-family: Arial;font-size: 8.80px;fill: #4D4D4D;" textLength="4.90px" lengthAdjust="spacingAndGlyphs">1</text></g>
<g><text x="298.58" y="261.91" text-anchor="middle" style="font-family: Arial;font-size: 8.80px;fill: #4D4D4D;" textLength="4.90px" lengthAdjust="spacingAndGlyphs">2</text></g>
<polyline points="28.37,250.67 28.37,22.50" style="stroke-width: 1.07;stroke-linecap: butt;"/>
<g><text x="23.44" y="243.51" text-anchor="end" style="font-family: Arial;font-size: 8.80px;fill: #4D4D4D;" textLength="4.90px" lengthAdjust="spacingAndGlyphs">0</text></g>
<g><text x="23.44" y="189.07" text-anchor="end" style="font-family: Arial;font-size: 8.80px;fill: #4D4D4D;" textLength="4.90px" lengthAdjust="spacingAndGlyphs">2</text></g>
<g><text x="23.44" y="134.63" text-anchor="end" style="font-family: Arial;font-size: 8.80px;fill: #4D4D4D;" textLength="4.90px" lengthAdjust="spacingAndGlyphs">4</text></g>
<g><text x="23.44" y="80.19" text-anchor="end" style="font-family: Arial;font-size: 8.80px;fill: #4D4D4D;" textLength="4.90px" lengthAdjust="spacingAndGlyphs">6</text></g>
<g><text x="23.44" y="25.76" text-anchor="end" style="font-family: Arial;font-size: 8.80px;fill: #4D4D4D;" textLength="4.90px" lengthAdjust="spacingAndGlyphs">8</text></g>
<polyline points="25.63,240.36 28.37,240.36" style="stroke-width: 1.07;stroke: #333333;stroke-linecap: butt;"/>
<polyline points="25.63,185.92 28.37,185.92" style="stroke-width: 1.07;stroke: #333333;stroke-linecap: butt;"/>
<polyline points="25.63,131.48 28.37,131.48" style="stroke-width: 1.07;stroke: #333333;stroke-linecap: butt;"/>
<polyline points="25.63,77.04 28.37,77.04" style="stroke-width: 1.07;stroke: #333333;stroke-linecap: butt;"/>
<polyline points="25.63,22.60 28.37,22.60" style="stroke-width: 1.07;stroke: #333333;stroke-linecap: butt;"/>
<g><text x="175.45" y="274.49" text-anchor="middle" style="font-family: Arial;font-size: 11.00px;" textLength="29.34px" lengthAdjust="spacingAndGlyphs">logFC</text></g>
<g><text transform="translate(13.37,136.59) rotate(-90.00)" text-anchor="middle" style="font-family: Arial;font-size: 11.00px;" textLength="88.04px" lengthAdjust="spacingAndGlyphs">-log(adj.P.Val, 10)</text></g>
<rect x="107.26" y="287.88" width="136.37" height="28.24" style="stroke-width: 0.75;"/>
<rect x="107.26" y="287.88" width="136.37" height="28.24" style="stroke-width: 1.07;stroke: none;"/>
<g><text x="112.74" y="305.95" style="font-family: Arial;font-size: 11.00px;" textLength="17.12px" lengthAdjust="spacingAndGlyphs">null</text></g>
<rect x="135.34" y="293.36" width="17.28" height="17.28" style="stroke-width: 1.07;stroke: none;"/>
<circle cx="143.98" cy="302.00" r="1.95" style="stroke-width: 0.71;stroke: #9491D9;fill: #9491D9;"/>
<g><text x="143.98" y="305.06" text-anchor="middle" style="font-family: Arial;font-size: 8.54px;fill: #9491D9;" textLength="4.74px" lengthAdjust="spacingAndGlyphs">a</text></g>
<rect x="191.45" y="293.36" width="17.28" height="17.28" style="stroke-width: 1.07;stroke: none;"/>
<circle cx="200.09" cy="302.00" r="1.95" style="stroke-width: 0.71;stroke: #3F8C61;fill: #3F8C61;"/>
<g><text x="158.10" y="305.15" style="font-family: Arial;font-size: 8.80px;" textLength="27.87px" lengthAdjust="spacingAndGlyphs">FALSE</text></g>
<g><text x="214.21" y="305.15" style="font-family: Arial;font-size: 8.80px;" textLength="23.94px" lengthAdjust="spacingAndGlyphs">TRUE</text></g>
</g>
</svg>