<?xml version="1.0" encoding="UTF-8" standalone="no"?>
<!-- Created with Inkscape (http://www.inkscape.org/) -->

<svg
   xmlns:dc="http://purl.org/dc/elements/1.1/"
   xmlns:cc="http://creativecommons.org/ns#"
   xmlns:rdf="http://www.w3.org/1999/02/22-rdf-syntax-ns#"
   xmlns:svg="http://www.w3.org/2000/svg"
   xmlns="http://www.w3.org/2000/svg"
   xmlns:sodipodi="http://sodipodi.sourceforge.net/DTD/sodipodi-0.dtd"
   xmlns:inkscape="http://www.inkscape.org/namespaces/inkscape"
   width="337.56262mm"
   height="312.27039mm"
   viewBox="0 0 1196.0881 1106.4699"
   id="svg2"
   version="1.1"
   inkscape:version="0.92.2 (5c3e80d, 2017-08-06)"
   sodipodi:docname="kl_tempering_ii.svg"
   inkscape:export-filename="/Users/krissankaran/Desktop/lab_meetings/20180129/kl_tempering.png"
   inkscape:export-xdpi="300"
   inkscape:export-ydpi="300">
  <defs
     id="defs4">
    <marker
       inkscape:stockid="Arrow2Send"
       orient="auto"
       refY="0"
       refX="0"
       id="Arrow2Send"
       style="overflow:visible"
       inkscape:isstock="true">
      <path
         id="path4181"
         style="fill:#110505;fill-opacity:1;fill-rule:evenodd;stroke:#110505;stroke-width:0.625;stroke-linejoin:round;stroke-opacity:1"
         d="M 8.7185878,4.0337352 -2.2072895,0.01601326 8.7185884,-4.0017078 c -1.7454984,2.3720609 -1.7354408,5.6174519 -6e-7,8.035443 z"
         transform="matrix(-0.3,0,0,-0.3,0.69,0)"
         inkscape:connector-curvature="0" />
    </marker>
    <marker
       inkscape:stockid="Arrow2Mend"
       orient="auto"
       refY="0"
       refX="0"
       id="Arrow2Mend"
       style="overflow:visible"
       inkscape:isstock="true">
      <path
         id="path4175"
         style="fill:#000000;fill-opacity:1;fill-rule:evenodd;stroke:#000000;stroke-width:0.625;stroke-linejoin:round;stroke-opacity:1"
         d="M 8.7185878,4.0337352 -2.2072895,0.01601326 8.7185884,-4.0017078 c -1.7454984,2.3720609 -1.7354408,5.6174519 -6e-7,8.035443 z"
         transform="scale(-0.6)"
         inkscape:connector-curvature="0" />
    </marker>
    <marker
       inkscape:stockid="Arrow2Lend"
       orient="auto"
       refY="0"
       refX="0"
       id="Arrow2Lend"
       style="overflow:visible"
       inkscape:isstock="true">
      <path
         id="path4169"
         style="fill:#000000;fill-opacity:1;fill-rule:evenodd;stroke:#000000;stroke-width:0.625;stroke-linejoin:round;stroke-opacity:1"
         d="M 8.7185878,4.0337352 -2.2072895,0.01601326 8.7185884,-4.0017078 c -1.7454984,2.3720609 -1.7354408,5.6174519 -6e-7,8.035443 z"
         transform="matrix(-1.1,0,0,-1.1,-1.1,0)"
         inkscape:connector-curvature="0" />
    </marker>
  </defs>
  <sodipodi:namedview
     id="base"
     pagecolor="#ffffff"
     bordercolor="#666666"
     borderopacity="1.0"
     inkscape:pageopacity="0.0"
     inkscape:pageshadow="2"
     inkscape:zoom="0.49497475"
     inkscape:cx="-151.86204"
     inkscape:cy="606.67499"
     inkscape:document-units="px"
     inkscape:current-layer="layer1"
     showgrid="false"
     inkscape:window-width="1547"
     inkscape:window-height="871"
     inkscape:window-x="31"
     inkscape:window-y="329"
     inkscape:window-maximized="0"
     fit-margin-top="0"
     fit-margin-left="0"
     fit-margin-right="0"
     fit-margin-bottom="0" />
  <metadata
     id="metadata7">
    <rdf:RDF>
      <cc:Work
         rdf:about="">
        <dc:format>image/svg+xml</dc:format>
        <dc:type
           rdf:resource="http://purl.org/dc/dcmitype/StillImage" />
        <dc:title />
      </cc:Work>
    </rdf:RDF>
  </metadata>
  <g
     inkscape:label="Layer 1"
     inkscape:groupmode="layer"
     id="layer1"
     transform="translate(-62.584305,-187.58352)">
    <path
       style="fill:#b66082;fill-opacity:1;fill-rule:evenodd;stroke:none;stroke-width:1px;stroke-linecap:butt;stroke-linejoin:miter;stroke-opacity:1"
       d="m 755.62239,448.22729 c 0,0 46.98217,-125.35639 102.64981,-147.4047 46.1107,-18.26308 96.62299,38.74972 145.5718,30.7651 40.5381,-6.61265 65.5006,-67.91218 106.2124,-62.47024 32.8294,4.38829 48.1102,45.73753 69.4102,71.10149 29.0715,34.6182 79.2058,110.08447 79.2058,110.08447"
       id="path4138"
       inkscape:connector-curvature="0"
       sodipodi:nodetypes="caaaac" />
    <path
       sodipodi:nodetypes="ccc"
       inkscape:connector-curvature="0"
       id="path4140"
       d="M 62.584305,448.22708 C 177.02,367.33706 191.14828,332.80659 312.09196,323.03413 c 127.0824,11.07158 168.9191,54.86164 253.5483,127.26907"
       style="fill:#b66082;fill-opacity:1;fill-rule:evenodd;stroke:none;stroke-width:1px;stroke-linecap:butt;stroke-linejoin:miter;stroke-opacity:1" />
    <path
       sodipodi:nodetypes="ccc"
       inkscape:connector-curvature="0"
       id="path71143"
       d="M 62.584305,1010.7273 C 177.02,929.8373 191.14828,895.30683 312.09196,885.53437 c 127.0824,11.07158 168.9191,54.86164 253.5483,127.26903"
       style="fill:#b66082;fill-opacity:1;fill-rule:evenodd;stroke:none;stroke-width:1px;stroke-linecap:butt;stroke-linejoin:miter;stroke-opacity:1" />
    <path
       style="fill:#b66082;fill-opacity:1;fill-rule:evenodd;stroke:none;stroke-width:1px;stroke-linecap:butt;stroke-linejoin:miter;stroke-opacity:1"
       d="M 62.584305,1291.9773 C 177.02,1211.0873 191.14828,1176.5568 312.09196,1166.7844 c 127.0824,11.0716 168.9191,54.8616 253.5483,127.269"
       id="path71145"
       inkscape:connector-curvature="0"
       sodipodi:nodetypes="ccc" />
    <path
       sodipodi:nodetypes="ccc"
       inkscape:connector-curvature="0"
       id="path71147"
       d="M 62.584305,729.47731 C 177.02,648.58729 191.14828,614.05682 312.09196,604.28436 c 127.0824,11.07158 168.9191,54.86164 253.5483,127.26907"
       style="fill:#b66082;fill-opacity:1;fill-rule:evenodd;stroke:none;stroke-width:1px;stroke-linecap:butt;stroke-linejoin:miter;stroke-opacity:1" />
    <path
       sodipodi:nodetypes="caaaac"
       inkscape:connector-curvature="0"
       id="path71194"
       d="m 755.62239,729.47729 c 0,0 46.98217,-125.35639 102.64981,-147.4047 46.1107,-18.26308 96.62299,38.74972 145.5718,30.7651 40.5381,-6.61265 65.5006,-67.91218 106.2124,-62.47024 32.8294,4.38829 48.1102,45.73753 69.4102,71.10149 29.0715,34.6182 79.2058,110.08447 79.2058,110.08447"
       style="fill:#b66082;fill-opacity:1;fill-rule:evenodd;stroke:none;stroke-width:1px;stroke-linecap:butt;stroke-linejoin:miter;stroke-opacity:1" />
    <path
       style="fill:#b66082;fill-opacity:1;fill-rule:evenodd;stroke:none;stroke-width:1px;stroke-linecap:butt;stroke-linejoin:miter;stroke-opacity:1"
       d="m 755.62239,1010.7273 c 0,0 46.98217,-125.35639 102.64981,-147.4047 46.1107,-18.26308 96.62299,38.74972 145.5718,30.7651 40.5381,-6.61265 65.5006,-67.91218 106.2124,-62.47024 32.8294,4.38829 48.1102,45.73753 69.4102,71.10149 29.0715,34.6182 79.2058,110.08445 79.2058,110.08445"
       id="path71196"
       inkscape:connector-curvature="0"
       sodipodi:nodetypes="caaaac" />
    <path
       sodipodi:nodetypes="caaaac"
       inkscape:connector-curvature="0"
       id="path71198"
       d="m 755.62239,1291.9773 c 0,0 46.98217,-125.3564 102.64981,-147.4047 46.1107,-18.263 96.62299,38.7498 145.5718,30.7651 40.5381,-6.6126 65.5006,-67.9121 106.2124,-62.4702 32.8294,4.3883 48.1102,45.7375 69.4102,71.1015 29.0715,34.6182 79.2058,110.0844 79.2058,110.0844"
       style="fill:#b66082;fill-opacity:1;fill-rule:evenodd;stroke:none;stroke-width:1px;stroke-linecap:butt;stroke-linejoin:miter;stroke-opacity:1" />
  </g>
</svg>
