<?xml version="1.0" encoding="UTF-8"?>
<svg xmlns="http://www.w3.org/2000/svg" xmlns:xlink="http://www.w3.org/1999/xlink" version="1.1" viewBox="0 0 2159.9 2159.9">
  <defs>
    <style>
      .cls-1 {
        opacity: .3;
      }
    </style>
  </defs>
  <!-- Generator: Adobe Illustrator 28.7.3, SVG Export Plug-In . SVG Version: 1.2.0 Build 164)  -->
  <g>
    <g id="Contours">
      <path d="M834.6,651.9c1.2.4,2.3,1.3,3.1,1.1,3.9-.7,5.1-.4,7.1,2.8.2.3.7.5,1.1.4,6.7-.7,11.6,3.7,17.2,6,2.8,1.1,5.4,2.8,8,4.4,1.3.8,2.3,2.2,3.5,3.3.5.5,1.3,1.5,1.7,1.4,5.7-1.8,8.9,1.9,12.4,5.3.6.6,1.7.6,2.5.9-.2-.6-.5-1.1-.7-1.7,0,0,.7-.5,1-.4,2.5.9,6.6,1.5,7,3,.9,3.1,3.6,2.3,4.6,2.6,3.1.8,5.7,2.2,8.5,3.4,5.5,2.4,10.9,5.6,16.8,6.7,4.5.8,7.6,4.3,12.3,4.8,1.8.2,3.2,2.5,5.6.4.9-.8,6,2.7,6.6,4.2.2.5-2.4,1.1,0,1.7.3,0,1.2-.4,1.3-.8.3-1,0-2.1,1.6-.8,1.3,1,3.3.9,4.8,1.8,1.3.8,3.7.5,3.6,3,1-.6,2.2-2,2.9-1.7,2.7,1,5.1,2.5,7.7,3.7.8.4,1.9,1,2.5.8,5-1.9,10.1-1.5,13.8,2.2,1.9,1.9,4.2,2.4,6,1.6,2.4-1,4.3.7,6.4.3.3,0,.7,1.9,1.4,2.3,3.8,1.8,8.1.6,12.1,2.3,1.7.7-.2-1.3,0-1.5.5-.4,1.4-.9,2-.7,2.6,1,5.8,1.5,7.5,3.4,1.3,1.5,1.4,1.8,3,.6.7-.5,2.4-.7,2.8-.3,2.4,2.8,6.8,2.1,8.7,4.1,2.1,2.2,4.5,1.8,5.8,1.4,6.2-1.9,12.1.9,18.2.7,2.5,0,5,2.5,8.2,2.3,2.5-.2,5-1.1,7.6-.1,2,.7,4.3,1.3,6.4,1.2,4.2,0,8.4,2,12.7.2.8-.3,2,1,3.1,1.1,7.4.9,14.9,1.7,22.3,2.5,1.5.2,3.1.7,4.6.6.8,0,1.5-1.6,2.4-1.7,1.6-.3,3.8-.8,4.8,0,3.7,2.8,7.7.8,11.5,1.1,3.8.3,7.6.4,11.4,1.1,3.3.6,7-.8,10.5-1,8.7-.5,17.4-.7,26-2.5,1-.2,2,0,3.1,0,3.8-.1,7.4.8,11.3.1,3.8-.6,7.8-.3,11.6,0,1.7,0,3.3.9,5,1.1,1.5.2,3.3.3,4.6-.3,4.5-2.2,9,1.1,13.8-.5,4.4-1.5,9.8.2,14.6-.5,5.1-.7,10-2.4,15-3.7.5-.1,1-1.1,1.4-1,7.6,1.1,8.6-4.7,10.1-9.8,1.2-4.3,1.7-8.7,2.6-13.1,1.1-5.4,2.4-10.9,3.6-16.3,1-4.5,1.8-9.1,2.9-13.5,1.5-6.2,2.3-12.4,2-18.8,0-2.2-1-3.3-3.2-3.5-2.8-.3-5.5-1.1-8.3-1.2-6.4-.2-12.8-.6-19.2-1-8.1-.5-16.5,2-24.6,1.2-7.1-.7-14,2.8-21.3,0-3.5-1.3-8.2.4-12.4.7-1.4.1-2.8.2-4.2.2-14.9,0-29.9.9-44.8-.3-9.7-.8-19.8.5-29.2-3.4-.4-.1-.8,0-1.2,0-9.2-.4-18.5-.6-27.7-1.3-4.4-.3-8.8-1.5-13.2-2.1-1.8-.3-3.6-.2-5.4-.2-5.7,0-11.2-.3-16.9-2.2-5.8-1.9-12.3-1.8-18.5-2.8-6.9-1.1-13.7-3.1-20.6-3.3-7.4-.2-13.8-3.7-21.1-4.2-5.9-.4-11.6-2.4-17.4-3.8-4.5-1.1-8.8-2.6-13.4-3.3-8-1.2-15.5-4-23.3-6.1-12.5-3.3-24.8-7.3-37.1-11.3-8.8-2.9-17.3-7-26.3-9.1-11.2-2.6-21.3-8-31.9-12-8.2-3.1-16.1-8-21.9-15.2-1.1-1.3-.9-3.7-1.1-5.6,0-.3,1.1-.9,1.7-.9,2.8,0,5.1.2,7.7,2.4,5.1,4.3,11.1,7.5,16.8,11.1,10.4,6.5,22.4,9.2,33.5,13.9,7.2,3,14.5,5.7,21.8,8.1,12.1,4.1,24.3,7.4,36.5,11.2,5,1.5,9.5,4.6,15.4,4,.7.3,1.1.4,1.4.4-.4-.2-.8-.5-1.1-.7,2-1.1,2.4-1.1,2.4.1,0,1.8.6,2.1,2.4,2.4,7,1.2,14,2.7,21,4.2,6.2,1.3,12.3,2.9,18.5,4.3,3-2.5,5.2.6,7.7,1.2,3.5.8,7.1,1.9,10.7,2.4,7.4,1,14.9,1.5,22.3,2.6,4,.6,7.9,1.7,11.8,2.6,1.7.4,3.4.9,5.1,1,5.3,0,10.5.5,15.6,2.5.7.3,1.6,0,2.4,0,8.2.4,16.5.7,24.7,1.3,11.2.8,22.3,2.8,33.6,2.5.9,0,1.8.7,2.7.7,3.7.3,7,1.6,11.2.9,6.8-1.2,14.1-1.1,21.2.7,1.7.4,3.5-.2,5.3-.2,1.8,0,3.6.1,5.4,0,1.8-.1,3.7-.8,5.5-.8,6.3-.1,12.8-.7,19,.1,7.5,1,14.9-.5,22.3-.4,6.4.1,12.8-1.8,19.2-2.1,3.9-.2,7.8.9,11.8,1.1,5.2.3,10.4-.8,15.8,1,3.2,1.1,7.4-.4,11-1,.7-.1,1.4-1.4,1.9-2.2.9-1.5,1.5-3.1,2.5-4.5.8-1.1,1.9-2.1,2.9-3.1,1.4,1.7,4.7,1.3,4.5,4.7-.5,7.3,1.1,14.7-2.4,21.7-.6,1.1,0,2.8,0,4.3-.2,8.6-1.8,16.9-4.6,25.1-1.5,4.5-1.8,9.6-2.7,14.4-.9,4.8-1.7,9.7-1.8,14.5,0,3,.8,6.2,1.9,9.1,1.7,4.6,1.8,5.4-2,7.9-2.6,1.7-3.7,3.6-4.4,6.7-1.6,7.4-2.8,14.9-3.5,22.4-.8,7.9-3.4,15.2-6.7,22.4-1.3,2.7-2.6,5.6-3,8.5-.4,2.9-1.1,5.3-3.1,7.4-.6.6-.8,1.8-.7,2.7.5,9.5-4.6,18-5.3,27.4-.4,5.2-3.8,10.2-5.8,15.3-1.4,3.3-3.1,6.5-4.2,9.9-.7,2.2-.4,4.6-.5,7,2.3,0,4.8.3,7-.2,4.8-1.2,9.4-2.9,14.2-4.3,2.7-.9,4.9-3.5,8.2-2.5,7.1-3.8,15.2-3.5,22.6-6.1.4-.1.9.1,1.2,0,7.9-5.9,17.8-6.5,26.7-9.6,13-4.5,26.6-7.3,40.1-10.1,4.6-1,8.9-3.2,13.3-4.8,6.8-2.4,13.9-3.9,20.7-6.3,9.7-3.4,19.6-6.3,29.3-9.1,9.5-2.7,18.7-6.3,28.2-9.1,3.9-1.1,8.1-1.1,11.9-2.3,7.4-2.4,14.5-5.4,21.8-8.2,10.3-3.9,20.5-7.8,30.7-11.7,5.7-2.2,11.3-4.2,17-6.5,8.4-3.4,16.7-7.1,25.5-9.5,1.3-.3,2.9-.5,3.7-1.4,4-4.6,10-5.1,15-6.8,4.4-1.4,8.4-3.6,12.7-4.9,9.8-3,19.3-6.7,28.6-11.1,3.5-1.7,8.1-1.1,11.9-2.4,8.6-2.9,16.9-6.7,25.6-9.3,8-2.5,15.7-5.6,23.6-8.4,13.5-4.7,27.4-7.9,41-12.1,3.1-1,5.9-3.4,9.4-2.4,1.3.4,2.9,1.4,3.3,2.5.3.8-.7,2.8-1.7,3.4-4.1,2.5-8.5,4.2-13.2,5.1-7.1,1.4-14.1,3.1-21,5.6-8,2.9-16.2,5.7-24.8,6.9-4.7.6-9.2,3.4-13.8,5.1-10.2,4-20.3,8.4-30.7,11.7-13.3,4.3-26.5,9-39.6,14.2-16.7,6.7-33.7,12.6-50.4,19.1-5.8,2.3-11.3,5.4-17,7.8-4.9,2.1-9.8,4.4-14.9,5.4-3.3.6-5.5,2.6-8.4,3.5-7.5,2.5-14.7,6-22.3,8.5-9,3-18.3,5.3-27.4,7.9-6.9,2-13.9,4-20.8,6.1-10.9,3.4-21.7,6.9-32.7,10-11.5,3.1-22.8,7.3-34,11.3-8.3,3-16.9,4.7-25.3,7.1-12.6,3.5-25.2,7.2-37.8,11.1-6,1.8-11.7,4.5-17.8,6-7.4,1.9-14.8,3.6-22,6.3-7.6,2.9-15.8,4.6-22.4,9.8-.5.4-1.4.7-1.6,1.2-2,7.1-7,13.2-7.5,20.9,0,1.3-1.7,2.5-2.3,3.9-3.1,6.9-2.2,15.3-7.4,21.5,1.3,4.5-3.2,6.8-3.9,10.7-.7,3.6-3.1,6.9-4.9,10.2-1.9,3.3-4.2,6.4-5.8,9.9-2.7,5.8-5,11.8-7.4,17.8-.9,2.1-1.3,4.4-2.5,6.3-6.5,10.2-10.2,21.5-14.9,32.5-2.9,6.7-4.6,14.1-9.9,20-2.2,2.4-2.3,6.6-4.5,9.7-4.1,5.8-8.2,11.7-11.1,18.1-3,6.6-8.5,11.1-12.5,16.8-7.6,10.9-14.6,22.2-24,31.9-6.3,6.6-11.4,14.4-17.1,21.7-.9,1.2-1,2,.9,2.4,5.8,1.2,10.4,5.5,16.5,6.2.9,0,1.7.9,2.5,1.3,5.6,3.2,11.5,4.7,17.9,2.7.6-.2,1.7-.3,2,0,1.7,2,3.1,4,5.9,4.9.6.2.7,3.4.4,5.1-.4,2.1-4.1,3.5-1.3,6.3-.8.5-1.5,1.4-2.4,1.6-4.6.8-8.5-1.1-11.8-4-2.1-1.8-4.4-2.8-7.2-3.5-4.3-1.1-8.4-3.5-12.6-5.1-6.2-2.4-12.3-4.8-18.6-6.9-3.3-1.1-5.3,2-7.7,3.5-1.7,1-2.9,2.8-4.4,4.3-7.7,7.7-15.3,15.6-23.3,23.2-5.6,5.3-11.8,10.1-17.6,15.3-1.4,1.3-2.1,3.4-3.6,4.6-4.6,4-9.5,7.8-14.1,11.8-2.3,2-4.3,4.3-6.5,6.4-4.3,4.3-8.9,8.3-12.7,13-1.3,1.6-1.1,4.9-.6,7.3,1,5-.5,7.4-5.3,7.7-5.8.3-11.3-.7-16.8-2.4-7.5-2.3-15.2-3.9-22.6-6.3-7.8-2.5-15.8-3.5-23.7-5.2-7.1-1.5-14.2-3.2-21.3-4.8-11.6-2.7-23.1-5.5-34.6-8.4-8.3-2.1-16.5-4.6-24.8-6.8-4.3-1.1-8.6-2.1-12.9-3-12.1-2.6-23.9-6.1-35.5-10.7-9.6-3.7-19.5-7.1-29.9-7.8-1.1,0-2.1-.8-3.2-1.2-8.8-3.4-18.2-5.4-26.8-9.4-8.2-3.9-16.5-7.5-24.7-11.5-9.7-4.6-19.6-9.2-29.1-14.3-9.2-5-18.1-10.7-27.2-16-8.4-4.9-16.9-9.6-25.4-14.3-1.5-.8-3.5-1.7-5-1.4-2.3.5-4.5,1.9-6.7,3.1-.1,0,.2,1.7.6,1.9,2,1,4.2,1.7,6.2,2.7,6.3,3,12.6,6.2,19,9.1,10.3,4.6,19.4,11.4,29.1,17.1,5,3,9.2,7.4,13.8,11.1,2.1,1.7,4.3,3.3,6.7,4.7,7.8,4.5,15.2,9.8,23.5,12.9,10,3.8,19,9.4,29,13,5.5,2,10.7,4.9,15.9,7.7,8.1,4.2,15.9,9.1,24.2,12.8,4.6,2.1,9.5,3.8,13.9,6.4,7.4,4.3,15.1,8.1,22.5,12.4,9.9,5.6,20.7,9.4,30.7,14.8,6.7,3.6,13.2,7.7,19.6,12,1.1.7,3.9,1.1,2.6,4.7-2.1,5.8-1.4,6.1-7.7,4.1-1.5-.5-3.2-.5-4.3-1.4-9.4-8-21.1-11.2-32.2-15.8-1.7-.7-3.5-1.5-5.1-2.5-13.4-8.1-27.6-14.5-41.2-22-6-3.3-11.9-6.9-18-9.8-11.8-5.6-24.1-10.1-35.6-16.2-10.4-5.6-21.5-9.8-31.2-16.8-5-3.6-11.1-5.8-16.6-8.8-2.7-1.5-5.7-2.7-7.7-4.9-5.8-6.3-13.3-10.2-20.2-14.9-8.7-6-18.4-10-27.6-15.2-7.7-4.3-16.2-7.2-24.7-10-2.9-.9-7.1-.6-9.6,1-4.9,3-10.3,3.9-15.4,5.9-5.8,2.4-11.5,4.9-17.2,7.4-1,.4-1.8,1.3-2.7,1.9,1,.6,2.1,1,2.9,1.8,3,2.7,6.7,3.8,10.4,3.5,6.9-.6,8.3,4.9,11.1,8.9,2.2,3.1,1,6.5-.4,9.2-1.4,2.7-.9,3.8,1.7,4.7,9.1,3.3,17.2,8.6,26.3,12,9,3.3,17.7,7.5,26.8,10.8,4.9,1.8,9.4,5,14.1,7.5,1.8,1,3.6,2.2,5.5,3,7.2,2.8,14.8,4.9,21.7,8.5,8.3,4.4,16.7,8.8,23.9,14.9,2.6,2.2,5.9,3.4,8.8,5.3,1,.6,1.6,1.9,2.6,2.4,3.4,1.8,6.7,3.9,10.3,4.8,5.7,1.4,10.4,4.5,15.7,6.7,3.1,1.3,6.1,3.2,9.3,4.2,2.2.7,4.5.8,6.7-1.2,4.1-3.8,13.8-2.9,17,1.8,2.4,3.6,5.7,6.6,6,11.7.2,3.4-.8,5.6-2.7,8.1-2.1,2.8-3.7,3.6-7.4,2.2-6.2-2.3-10.7-4.5-14.6-9-1.3-1.4-3-3.1-4.7-3.4-8.8-1.3-16.1-6.9-24.6-8.8-1.8-.4-3.7-.9-5.4-1.7-5-2.4-10-4.6-14.7-7.4-7.2-4.4-14.3-9.2-21.2-14.1-9-6.3-19.4-9.5-29.4-13.6-5.8-2.4-11-6.2-16.8-8.4-9.8-3.7-19-8.5-28.6-12.4-3.3-1.3-6.9-2.2-10.1-3.8-5.8-2.9-11.3-6.3-17-9.3-6-3.1-12.2-6.1-18.4-9-2.9-1.4-5.9-2.8-9-3.5-3.7-.9-4.2-3.3-3.8-6.2.5-3.7,2.2-4.7,6.2-5.1,1-.1,2-.6,3.1-1-.9-.9-1.6-2.1-2.7-2.6-2.5-1.4-5.1-2.5-7.7-3.7-3.9-1.7-7.8-1.9-11.9-.1-5.2,2.3-10.5,4.4-15.6,6.7-1,.5-2.2,1.5-2.5,2.5-.7,2.3,1.5,1.5,2.6,2,5.3,2.5,10.4,5.4,15.8,7.9,4.5,2.1,9.3,3.4,13.6,5.6,4.8,2.4,9.2,5.5,13.8,8.3.7.4,1.2,1.3,1.9,1.4,7.9,1,14.8,4.7,21.7,8.5,1.8,1,3.8,1.7,5.8,2.2,12,2.7,22.7,8.6,33.4,14.1,7.4,3.8,15,7.8,21.5,13.5,4.5,3.9,10.1,6.9,15.7,9.4,7.3,3.3,13.6,8,19.8,12.9,6.1,4.7,11.7,10,18.2,14.1,3.7,2.4,8.6,2.7,12.6,5,4.6,2.6,9.9,3.9,14.4,6.6,7.7,4.6,15.6,8.7,23.7,12.5,6.7,3.1,13.1,6.9,19.9,9.9,7,3.1,13.5,7.1,19.9,11.3,1.9,1.2,4.2,1.7,6.2,2.7,9.4,4.4,19.1,8.3,28.2,13.4,4.9,2.7,10.2,5,15.5,7,5.7,2.1,11.6,3.6,17.3,5.6,6,2,11.8,4.5,16.6,8.8,1.7,1.5,2.3,2.8.1,4.3-1.7,1.2-1.1,2.4.2,3.8-5.1,1.1-9.1-2.5-13.8-3.6-9.2-2.1-17.9-6.2-27.2-8.5-3.2-.8-6-3.2-9.1-4.8-5.6-2.9-11.5-5.1-17-7.8-7.2-3.6-14.6-6.2-21.9-9.4-2.8-1.2-5.4-3.1-7.7-5.1-5.7-4.8-13-6.2-19.5-9.4-8.6-4.2-16.7-9.1-25-13.9-5-2.9-10.7-4.8-16.1-7.1-6.9-3-14-5.9-20.8-9.1-2.8-1.3-5.3-3.3-7.7-5.2-6.6-5.2-12.6-11.1-20-15.3-6.7-3.8-12.8-8.6-19.3-12.9-7.1-4.7-13.8-10.2-21.4-13.6-6.8-3.1-12.5-8-19.7-10.3-7-2.3-13.5-6.1-20.6-7.9-5.8-1.5-10.4-4.7-15.5-7.1-3.6-1.7-7.2-3.5-11.1-4.4-5.2-1.2-9.2-4.4-13.8-6.9-5.7-3-11.7-5.3-17.6-8-5.5-2.5-11-5.1-16.4-7.7-3.9-1.9-7.8-4-11.8-5.5-1.5-.6-3.8-.6-5.2.2-3.2,1.7-6.7,2.6-10.1,3.9-9.4,3.6-18.5,7.8-27.7,11.6-4.6,1.9-9.3,3.3-13.9,4.9-.4.1-.8,0-1.1.3-6.7,4.7-15.2,4.9-22.3,8.4-7.3,3.6-15.5,5.1-22.6,9.2-3.4,2-7.4,2.8-11.2,4.1-.7.2-1.3.5-2,.8.5.8.8,1.9,1.5,2.4,1.1.7,2.4,1.1,3.7,1.3,8.3,1.4,15.2,5.9,22.2,10.2,3.9,2.4,4.4,6.9,6.1,10.8,1.7,4.2-.3,5.8-2.6,8-.4.4-1.1.9-1.5.8-3.7-1-6.4,1.4-9.4,2.5-5.2,1.8-12.2-.3-15.4-4.8-.6-.9-.3-2.5-.4-3.7,0-1-.2-2-.2-3-.5,0-1.3,0-1.4.2-.4.8-.5,1.7-.8,2.6-.6-1-1.6-2-1.6-3,0-1.7.6-3.4,1.1-5,1.3-4.1,1-4.7-3.2-6.8-1-.5-2.2-.7-3.2-1.1-2.3-.9-5.2-1.3-6.7-2.9-2.6-2.9-5-2.1-7.3-.6-8.7,5.6-18.8,8.2-28.3,11.7-6.8,2.5-13.2,5.8-19.9,8.4-8.3,3.2-16.3,7-24.5,10.6-7.6,3.3-15.3,6.5-23,9.7-11,4.6-21.6,10-33.1,13.6-5.7,1.8-11,5.1-16.5,7.6-7,3.1-14.2,5.5-20.3,10.4-.9.7-2,1.3-3.1,1.5-2,.4-3.9-.3-3.9-2.6,0-2.1,1-4.2,1.1-6.2,0-3.3,2.7-2.8,4.5-3.3,3.5-1.1,5.7-4.2,9.6-5.2,5.4-1.4,9.8-6,15.9-5.9,2.2-3.3,6.1-4.1,9.4-5.5,10.2-4.4,20.9-8.1,30.8-13.1,6.6-3.4,13.9-5,20.4-8.6,6-3.2,12.4-5.7,18.6-8.4,2.9-1.3,6.4-1.9,8.8-3.8,3.9-3.2,8.8-3.6,12.9-6,1.3-.8,2.8-1.2,4.2-1.8,1.4-.6,2.8-1.8,4.1-1.8,5.5,0,9.9-2.9,14.6-4.8,6-2.4,11.7-5.5,17.7-7.7,4.6-1.6,8.4-4.4,12.6-6.6.5-.3,1.1-.7,1.5-.7,5.1.9,9-2.4,13-4.3,10-4.8,20.6-7.7,30.8-11.7,8.1-3.2,16.4-6,24.5-9,2.8-1,5.6-2.5,8.5-3.3,8.3-2.3,14.8-8.3,23.4-10,3.4-.7,7-2.5,9.5-4.9,4.3-4,10.2-2.8,14.9-5.8,4.3-2.8,10.1-3.2,15-5.2,4.4-1.8,8.3-4.7,12.6-6.7,4.6-2.1,9.5-3.7,14.2-5.7,8.6-3.9,18-6,26.2-10.9.6-.4,1.2-1.5,1.2-2.1-.1-.9-.8-1.8-1.5-2.4-1.7-1.5-4.5-2.5-5.2-4.4-.8-2.1,4.7-1.9,3.4-5.4,1.4-.5,3-1.6,4.1-1.3,3.2,1.1,6.1,3.7,9.3,4,5,.5,10.1,3.9,15.3.5,1.2-.8,2.8-1.2,4.2-1.8,2.5-1.1,3.3-3.4,1.8-5.4-1.1-1.4-2.4-3.1-4-3.6-7.1-2.5-12.5-7.6-18.5-11.6-11.2-7.6-22.3-15.5-33.3-23.4-4-2.9-7.6-6.2-11.6-9-2.5-1.7-5.4-2.8-8-4.4-3.3-2.1-6.6-4.2-9.4-7-8.7-8.7-18.9-15.4-28.8-22.5-2.9-2.1-5.6-4.5-8.2-6.9-6.1-5.6-12-11.4-18.2-16.9-6.5-5.7-13.7-10.7-20.1-16.6-8.7-8.1-16.8-16.7-25.2-25-1.5-1.5-3.6-2.4-5.1-4-9-9.7-18-19.4-26.9-29.3-5.1-5.6-9.9-11.4-14.8-17.2-5.4-6.5-10.6-13.2-16.1-19.7-5.3-6.3-10.8-12.3-16-18.6-3.3-4-6.1-8.5-9.2-12.8-4.3-6-8.7-11.9-13-18-.7-1-1.7-2.5-1.4-3.3.7-1.7,2.2-3.2,3.4-4.7.1-.1.9,0,1.2.3,1.9,1.4,4.2,2.5,5.5,4.4,3.7,5.4,6.7,11.1,10.3,16.6,2.3,3.4,4.9,6.6,7.6,9.8,8,9.4,16.1,18.7,24.3,28,4.2,4.8,8.8,9.4,13,14.3,8.8,10.5,18,20.6,27.8,30.3,11.4,11.3,22.1,23.3,33.6,34.5,6,5.9,13.1,10.8,19.7,16.1,1.2,1,2.2,2.3,3.4,3.4,7.2,6.6,14.2,13.2,22.3,18.8,6.6,4.6,12.6,10.1,19,15.1,9.2,7.3,18.1,15.2,28,21.5,7.7,4.9,15,10.3,22.2,15.7,7.5,5.6,15.4,10.5,22.9,16.2,3.4,2.6,7.2,4.6,10.3,7.8,1.8,1.8,4.7,2.4,7,3.6.7.3,1.5.6,2,1.2,3.9,4.6,9.9,5.9,14.6,9.2,3,2.1,7.2,1.5,9.9,4.2.3.3,1.4.2,1.7,0,4.7-3.9,11-4.4,16-7.4,3.1-1.9,6.1-3.8,9.7-4.8.5-.1,1-1.2,1.3-1.1,5.5,1.3,10-2,14.3-4,8.8-4,17.9-7.1,26.4-11.9,7.2-4,15.2-6.7,22.9-10,.3-.1,1.1.1,1.2,0,2.7-4,7.9-3.1,11.3-6,3.4-3,8.3-3.4,12.3-5.9,2.9-1.9,7.1-1.8,9.5-5,6.4.3,11.2-5.1,17.5-5.2.6,0,1.6-.6,1.7-1,0-.9-.2-2.3-.8-2.5-3.3-1.4-6.7-2.7-10.1-3.7-2.2-.7-4.9-.3-6.8-1.4-7.4-4.3-15.8-5.6-23.3-9-9.3-4.3-19.2-7.1-28.3-11.7-4.4-2.2-9.3-3.2-13.8-5.1-3.8-1.6-7.5-3.7-11.3-5.4-5-2.3-10-4.5-15-6.8-6-2.9-11.7-6.4-17.9-8.7-6.6-2.4-11.4-7.4-18-10-6-2.4-10.8-7.3-16.4-10.7-6.6-4-13.3-7.7-19.4-12.3-5-3.8-9.8-7.6-14.9-11.2-3.3-2.4-6.9-4.3-10.2-6.6-3.5-2.5-6.9-5.1-10.3-7.8-12.8-10.3-25.3-21.1-36.7-32.9-2.8-2.9-6.1-5.1-9-7.9-11.3-11.2-22.4-22.6-32.6-34.9-4-4.8-8.9-8.9-13.3-13.5-3.8-4-7.5-8-9.9-13.1-.4-.9-1.1-1.6-1.8-2.3-4.8-4.9-9.9-9.5-14.4-14.6-2.2-2.6-3.6-6.1-2.1-9.7,1.5-3.6,3.7-4.2,5.6-1.2,5.2,8.4,12.9,14.5,18.8,22.2,3.9,5,7.9,9.9,12.2,14.6,3.7,4.1,7.8,7.8,11.7,11.8,6.5,6.8,12.8,14,19.5,20.6,9.9,9.8,20,19.5,30.2,29,4.9,4.6,11,8,15.1,13.2,4.1,5.1,9.7,7.4,14.5,11.1,2,1.6,3.9,3.4,6,4.9,6.4,4.5,13.2,8.5,18.7,14.2.6.6,1.1,1.5,1.7,1.7,6.2,1.2,10,6.6,15.3,9,9.7,4.4,17.5,11.7,27,16.3,7.2,3.5,13.7,8.3,20.9,12,7.9,4,16.2,7.2,24.3,11,2.4,1.1,4.4,3.1,6.8,4.2,3.9,1.9,7.8,4.4,12,5.1,7.3,1.2,13.8,4.2,20.6,6.8,4,1.5,8.6,2.2,11.8,5.5,8,.8,14.4,5.8,21.8,8.3,7.4,2.4,14.7,5,22.1,7.3,4.9,1.5,9.8,3,14.9,4.1,6.5,1.4,12.1-2,17.9-4.1,8.2-2.9,16.2-6.3,24.3-9.5,7.7-3.1,15.4-6.4,23.4-8.8,5.4-1.6,10.3-4.7,15.5-7,5-2.2,10-4.6,15.3-5.9,2.4-.6,4.3-1.5,6.3-2.6,2.5-1.3,5.1-2.2,8.1-2.7,4.2-.7,8.1-2.9,12.2-4.6,1.9-.8,3.8-1.8,5.7-2.5,10.8-4.1,21.6-8.2,32.4-12.3,2.6-3.9,7.6-2,11-4.7,2.8-2.3,6.9-2.9,10.4-4.3,3.7-1.5,7.3-3.2,10.9-4.7,6.1-2.5,12.1-5.4,18.2-8.1,3-1.3,1-2,.3-2.3-3.2-1.1-6.5-2.2-9.9-2.8-5.6-1-11.2-1.7-16.8-2.5-1.1-.2-2.1-.9-3.2-1.2-16.5-4.5-33.2-8.7-49.6-13.7-7.3-2.2-14.4-4.8-21.9-6.4-6.4-1.4-12.7-3-19-4.5-.4,0-.9.2-1.2,0-8.3-5.6-18.6-5.3-27.3-9.8-1.7-.9-3.6-1.4-5.4-1.7-5.4-.9-9.8-4.1-14.7-6.1-7.5-3.1-15-6.2-22.5-9.4-3.6-1.6-7.1-3.7-10.7-5.3-6.4-2.9-12.9-5.3-19.3-8.3-5.5-2.6-10.9-5.5-16-8.7-6.3-4-13.4-6.3-19.8-9.9-9.5-5.3-18.9-10.7-28.4-16-4.5-2.5-8.9-5.1-13.5-7.4-10.2-5.1-19.4-11.6-28.8-17.8-5.2-3.4-9.9-7.6-15.4-10.2-7.5-3.6-13.1-9.8-20.1-13.8-7.1-4.1-13-9.7-19.8-14.2-7.5-4.9-14.3-10.8-21.9-15.4-6.7-4-12.5-9-17.9-14.5-1.3-1.4-2.7-3-3.4-4.7-.7-1.6-3.5-3.5-.3-5.5,2.4-1.5,5.1-1.2,7.2.8,7.8,7.6,16.3,14.3,25.8,19.8,4.1,2.4,8.7,4.8,11.9,8,6.5,6.5,14.6,10.5,21.7,16,6.9,5.4,14.9,9.3,22.3,14.1,2.8,1.8,5.5,3.8,7.9,6,7.4,6.7,16.7,10.4,24.6,16.3,5.4,4,12.1,6.2,18.1,9.5,8.4,4.6,16.6,9.5,24.8,14.2,1.5.8,3.1,1.5,4.6,2.2,8.4,3.6,16.5,7.8,24.1,13,1.5,1.1,3.3,1.8,5.1,2.5,4,1.7,8,3.4,12.1,4.9,12.4,4.8,24,11.2,36.2,16.3,6.9,2.9,14,5.6,20.7,9.3,6.2,3.4,13.3,5.3,20.2,7.5,6,1.9,12.1,3.3,18.2,5,1.1.3,2.5.6,3,1.4,1.7,2.4,4.1,1.9,6.5,2.4,6.2,1.2,12.7,1.5,18.5,4.2,3.2,1.5,6.9,0,10.1,2.4,2.2,1.6,5.4,2.8,8.7,2.3.2,0,.4-.2.4-.2,10.7,6.8,23.8,6.4,35.2,11.4,6,2.7,12.8,4.2,19.7,4.5,4.4.2,8.6,1.8,13,2.7,3.6.7,7.2,1.4,10.8,2,.9.2,10.5,2,11.5,2.6,3.6,2.2,7.1,1.3,10.6,0,6-2.4,11.8-5.2,17.9-7.2,7.3-2.3,14.5-4.9,21.7-7.4,6.4-2.2,12.1-7.2,19.6-6.2,5.4-3.6,12-3.2,17.8-5.9,8.2-3.8,17.2-6,25.8-8.8.5-.2,1.3,0,1.7-.3,6.4-4.1,14-4.8,21-7.2,5.4-1.8,10.2-5.9,16.4-4.9,5.8-4.7,13.1-4.9,19.8-7,8.1-2.6,16.3-5.1,24.4-7.7,1.2-.4,3.2-1,3.4-1.9,1.1-6.3,5.9-11.2,6.3-17.7,0-.9.7-1.7,1.2-2.6,3.3-5.5,4.6-11.6,6.2-17.7.2-.9.7-1.8,1.3-2.5,2.5-3.2,2.8-7.1,3.6-10.8.7-3.8-1.5-5-5.1-4.5-5.2.7-10.5,1.2-15.5,2.6-5.2,1.4-10.6.8-15.8,3.3-4.2,2-9.4,2-14.2,2.7-7.9,1-15.7,1.8-23.3,4.4-4.9,1.7-10.4,1.7-15.7,2.2-4,.4-8.1.4-12.2.7-6.8.5-13.7-1.3-20.4,1.2-4.4-1.7-8.9.3-13.3,0-7.8-.6-15.8,1.5-23.4-1.2-3.6,2.2-7.5,0-11.4,1-3.8,1.1-8.5-.8-12.1.4-7.1,2.4-13.8-.7-20.8-.3-7.5.4-15.3,1.1-22.7-.1-10.8-1.8-21.8-2.8-32.6-5.5-8.5-2.2-16.9-4.8-25.3-7.3-2.4-.7-4.9-1-7.4-1.3-6.4-.8-11.5-5.1-17.6-6.5-9.1-2.1-17.7-5.8-26.5-8.7-5.7-1.9-11.2-4.7-16.9-6.5-10.4-3.2-20-8.1-29.9-12.2-8.4-3.4-16.8-6.9-25.1-10.7-6-2.7-12.4-4.6-18.3-7.7-8.1-4.2-15.9-9.2-23.8-13.8-3.8-2.2-7.7-4.2-11.4-6.5-8-5-16-10-23.6-15.5-8.3-6-17.2-11.1-25.7-16.8-5.1-3.4-9.6-7.6-14.3-11.6-6.8-5.9-13.6-11.7-20.2-17.9-1.7-1.6-2.3-4.3-3.1-6.6-.2-.4.8-1.4,1.4-1.9,1.8-1.4,4-2.1,5.9-.5,2.3,2,4.5,4.2,6.5,6.5,3.5,3.8,7.5,7,11.6,10,5.5,4,11,8,16.5,12,4.1,2.9,8.2,5.9,12.4,8.7,10.1,6.7,20.4,13,30.3,19.9,12.4,8.6,25.8,15.8,38.9,23.2,4.3,2.4,8.9,4.2,13.4,6.2,3.8,1.6,7.7,3.2,11.7,4.4,16.4,5.4,31.4,14.3,48,19.1,5.2,1.5,9.8,5,14.9,6.9,7.8,2.9,15.9,5.2,23.9,7.6.7.2,1.8,0,2.3.3,6.2,4.5,13.9,5,20.7,7.8,6.5,2.7,13.8,4.1,20.7,6.3,4.9,1.6,10.3,1.8,15.4,2.8,3.2.6,6.3,1.7,9.4,2.4,3.1.6,6.2.9,9.3,1.3,4.7.5,9.4,1.2,14.1,1.5,6.6.3,13.2.3,19.9.5.8,0,1.5.5,2.3.5,10.8-.2,21.5-.9,32.3-.3,3.3.2,6.5-2.6,10.1,0,1.5,1.1,5-.8,7.6-.8,6.9.1,13.9.6,20.8.8,3.3,0,6.6,1,10-.7,1.7-.8,4.1-.7,6.3.7,1.2.7,3.6-.8,5.5-.9,7.9-.5,15.9-.1,23.6-1.6,3.7-.7,8,.3,11.7-3.1,2-1.8,6.4-1.4,9.7-1.4,10-.1,19.6-2.4,29.4-4.6,8-1.8,16.2-3.7,24.4-5,.8-.1,1.9.4,2.5,1,1.2,1.3,2,2.9,3.1,4.2.9,1,2.2,1.6,2.5-.4.9-5.7,3.9-10.7,5.7-16.1,2.6-8.1,5.5-16.1,8.2-24.2.7-2.2,1.8-4.5,1.6-6.6-.3-6.2,2.6-11.8,3-17.9.1-1.7.8-3.3,1.2-5,.9-4.4-1.9-6.9-6.1-5.8-5.8,1.5-11.8,2.3-17.7,3.5-9.8,2-19.4,2.1-29.1,2-5.2,0-10.3-1.1-15.5-1.1-4,0-7.9,1-12.1,0-3-.6-6.3.7-9.6.8-3.4.2-7.1-.6-10.3.3-8.8,2.6-17.8,3-26.6,2.1-6.8-.7-13.6-.9-20.4-.9-2.7,0-5.3-.5-8.2.9-1.9.9-4.9-.9-7.4-.9-6.7,0-13.4-.7-19.9-2.5-.9-.3-2,0-3.1,0-6.6-.4-13.2-.7-19.7-1.3-6.8-.6-13.7-1.2-20.5-2.5-9.2-1.7-18.4-3.8-27.5-6.3-5.4-1.5-10.8-2.6-16.3-3.6-6.9-1.3-13.7-3.3-20.6-5-3.6-.8-7.1-1.5-10.7-2.3-4.7-1-9.4-2-14.1-2.9-11.8-2.4-22.7-7.4-34.2-10.8-12.1-3.6-23.3-9.1-34.6-14.4-9.6-4.5-19.3-8.8-29.3-12.2-5.4-1.8-9.8-5.2-14.7-7.5-9.1-4.3-18.3-8.2-27.4-12.4-3.3-1.5-6.2-4-9.5-5.1-8.3-2.8-15.7-7.6-23.8-10.9-5.6-2.2-8.8-7.5-13-11.4-.3-.2.3-1.9.4-1.9,2.3.2,5.3-.3,6.9,1,6.5,5.2,14,7.7,21.7,10,1.1.3,2.5.5,3.1,1.3,3.2,3.6,7.9,3.2,11.8,4.8,2.9,1.2,5.4,2.7,7.9,4.6,1.2.9-1.8,3.4,1.7,2.8M906.2,683.2c-.4,0-.8,0-1.1,0,.4.2.8.5,1.1,1.3.4,0,.8,0,1.1,0-.4-.2-.8-.5-1.1-1.3M1040,937.4c.7.2,1.3.3,2,.5,0-.3.1-.5.2-.8-.7-.1-1.4-.2-2.1-.9-.4,0-.8,0-1.1,0,.4.2.8.5,1.1,1.3M998.3,1078.6c2.6.6,5.2,1.3,7.8,1.8,3,.6,6.1.9,9.1,1.7,3.3.9,6.5,2.2,9.7,3.2,5.2,1.7,11,2.5,15.6,5.1,8.3,4.8,16.2,10,25.1,13.6,6,2.4,10.6,6.9,15.9,10.4,6,4,12.8,5.9,18.8,9.6.5.3,1.7.5,2,.2,4.3-3.9,8.6-7.7,12.6-11.9,2.4-2.5,4.3-5.5,6.5-8.3,4.5-5.7,9-11.4,13.4-17.2.5-.6.5-1.7.7-2.5-.8-.1-1.6-.3-2.3-.3-4.8.4-9.6,1-14.4,1.1-3.1,0-6.2-1-9.3-1.1-2.6,0-5.3.6-7.9.6-2.8,0-5.5-.5-8.3-.7-.6,0-1.3-.1-1.8,0-5.1,1.1-10.1-1.3-15.1,0-7.2-3-15-2-22.4-3.6-7.1-1.5-14.5-1.4-21.7-2.3-9.9-1.2-20.1-1.1-30.1-1.4-1.2,0-2.5.8-3.8.6-1.1-.2-2.2-.5-3.3-.6-.5,0-1,.3-1.5.5.6.2,1.2.6,1.9.7,1,.1,2,0,2.9.6M769.9,1077.4c-6.5-1-13.1-2.1-19.6-3-5.5-.8-9.9,2.5-14.8,4.3-6.1,2.2-11.4,6.1-18,7-2.2.3-4.1,3-5.9,4.8-1.4,1.4.3,2.9.4,4.2,0,3.4-.8,6.9-1.5,10.3,0,.5-1,1.3-1.2,1.2-3.3-1.1-6.8,2.5-10.2-1.1-3-3.2-6.6-7-12-3.7-.3.2-.8,0-1.2,0-6.5-.9-10.9,4.3-16.7,5.8-1.6.4-2.1,2,.7,3,3.7,1.3,7.2,3.5,10.6,5.5,9.4,5.5,17.5,13,27.9,17.1,9.5,3.7,18.3,9.1,27.5,13.7,1.9.9,4,1.2,5.8,2.2,9.9,5.7,19.8,11.2,30.9,14.4,3.2.9,6.6,1.9,9.8,2.9,5.8,1.9,11.5,4.1,17.4,5.3,11.8,2.5,22.9,7.1,34.2,10.8,9.4,3.1,18.7,6.9,28.7,7.7.6,0,1.1.3,1.6.5,5.5,1.5,11,3.1,16.6,4.4,6.9,1.6,14,2.5,20.6,5,5.7,2.2,12.3,1.3,17.6,4.9,4.7-1,8.7,1.7,13.1,2.5,3.2.6,6.4,2.5,9.4,2.2,5.8-.6,10.4,3.4,16,3.2,2.6,0,5.7-.4,7.8.8,8.2,4.6,17.7,4.5,26,8.3,1.2.6,3.4.9,3.1-2-.1-1.2-.1-2.5.2-3.6.3-1,1.1-1.9,1.7-2.8.6.8,1.2,1.6,1.8,2.3,1.9,2.4,4.2,1.5,6.2.5,2.4-1.2,4.8-2.6,6.8-4.3,6.7-5.7,13.7-11.1,19.8-17.4,11.4-12,24.4-22.4,36.4-33.8,3.1-3,6.1-6.1,9.1-9.1,4.7-4.7,9.6-9.4,14.2-14.3,1.1-1.2,2.4-2.7-.7-4-3.7-1.6-6.9-4.1-10.3-6.2-5.7-3.6-11.3-7.4-17-10.8-5.7-3.4-11.6-6.6-17.4-9.8-2.8-1.6-5.4-4.1-8.4-4.7-8.2-1.8-15.5-6.5-23.9-7.6-2.2-.3-4.2-1.9-6.4-2.3-7.5-1.4-14.9-3.4-21.8-6.8-8.2-4-16.3-8-24.4-12.2-3.1-1.6-6.7-1.1-9.5-2.3-7.7-3.6-15.9-4.3-24-5.8-3.6-.7-7.3-1-10.9-1.9-4.6-1.2-9-3.1-13.6-4.2-12.6-3-25.6-3.8-38.1-7.3-5-1.4-10.4-1.5-15.4-2.8-6.1-1.5-11.9-4.5-18-5.3-5.7-.8-11.8-3.2-17.6.6-2.3,1.5-5.4,1.8-7.8,3.2-3.5,2-7.2,4-10.8,5.1-8,2.7-15.5,6.2-22.9,10-1,.5-2.1,1-2.9,1.8-.3.3.2,1.3.3,2,5-.9,8.7,2.7,13.2,3.7,11.5,2.6,23,5.4,33,12.2,4.1,2.8,8.9,4.6,12.8,7.5,4,3,8,6.1,12.7,7.6,6.3,2,11.8,6,18.6,7.1,8.3,1.3,16.2,4,23.9,7.3,4.1,1.8,8,3.6,12.6,3.7,2.7,0,5.4.6,8.1,1.2,5.2,1.3,7.9,11.2,4.4,15.3-3.4,4-6.6,4.5-10.6,1.6-.8-.6-1.4-1.5-2.2-2.1-4.3-4-7.9-8.4-14.4-9.6-5.9-1.1-11.6-3.5-17.5-5.2-11.9-3.3-24.3-5.1-34.8-12.3-5.9-4-11.9-7.9-17.8-11.9-4.8-3.3-10-5.5-15.7-6.5-1.7-.3-3.4-.8-5-1.2-3.8-1.1-7.1-3.6-11.4-3.8-3-.1-5.9-1.5-9.4-2.9M1021,1065.8c3.3.5,6.7,2.5,10.1,0,.4-.3,1.2-.1,1.8,0,7.9,1.2,15.8,3.5,23.6,3.4,7.8,0,15.1,2.1,22.8,2.2,9.4.1,18.7,1.2,28.1,1.7,1.8.1,3.7-.3,5.5,0,4.3.9,8.6.4,12.9,0,3.9-.3,7.8-.3,11.3-2.5.8-.5,2.3.3,3.5.3,1,0,2-.2,3,0,4,.5,4.7-3.1,6.3-5.2,4.5-5.8,8.9-11.8,13-17.9,5.2-8,9.3-16.6,14.2-24.7,5.9-9.7,10.1-20,14.1-30.4,1.3-3.5,2.6-7.1,4.4-10.5,2.8-5.4,6.1-10.5,9.1-15.9,3-5.3,4.5-11.2,6.6-16.9,2.1-5.7,2.7-5.5-3.3-5.3-1.1,0-2.3.4-3.4.7-4.3,1-8.5,2.5-12.9,2.9-9,.8-18.1,1.4-27.1,1.3-26.4-.3-52.9,1.5-79.2-1.9-2-.3-4.1-.3-6.1-.5-2.5-.3-5.3-1.7-7.4-1-6.4,2.1-12.8.4-19.2,1.1-1.3.1-2.8.2-4,.7-9.8,4.4-19.8,8.6-29.4,13.5-7.9,4-17,5.7-24.1,11.6-6.6.1-11.6,4.6-17.5,6.6-9.1,3.1-17.9,7-26.9,10.5-9.2,3.6-18.4,7.1-27.5,10.6-7.4,2.9-14.8,5.8-22.2,8.7-4.6,1.8-9.3,3.3-13.8,5.3-2,.9-5.3,2.2-5.3,3.6-.2,2.9,3.4,3,5.5,4.1.4.2.8.5,1.3.6,3.3.5,11.3,4,13.5,5.6,2.5,1.7,5.1,3.5,7.9,4.5,12.2,4.7,23.1,11.7,33.8,19,3.7,2.5,7,5.4,11.5,6.5,10.4,2.5,20.6,5.9,31.6,5.4,3.1-.2,6.2.9,9.3,1.1,7.8.5,15.6.9,24.6,1.3M1159.8,939.3c6.2-.4,12.3-.8,18.5-1.2,4.9-.4,10-.3,14.8-1.4,2.7-.6,5,1,7.5,0,2.5-1,5.2-1.3,7.6-2.3,1.5-.7,2.6-.8,4,0,.7.4,4-1.1,5.8-1.1,3.7.1,4-2.9,5-4.9,2.3-5,4.5-10.1,5.9-15.3.8-3,3.4-4.9,3.9-7.6.5-2.9.7-5.6,2.2-8.4,1.6-2.9,2.2-6.5,2.8-9.8.8-4.4-.4-5.3-4.8-3.9-9.3,2.8-18.2,6.7-27.9,8.3-2.2.4-4.6.8-6.6,1.8-7.9,3.7-16.3,6.2-24.6,8.8-7.3,2.3-14.1,5.8-21.9,7.2-7.1,1.3-13.9,4.9-20.8,7.4-8.9,3.2-17.9,6.1-26.9,9.1-6.8,2.3-14,3.7-19.8,8.6-.5.4-1,.9-1.5,1.3.8.4,1.5,1,2.3,1.1,6.2.5,12.4.3,18.5,1.5,3.7.7,7.1-.7,10.7-.2,2.3.4,4.4,1.1,7.1.7,3.1-.4,6.7-2.1,9.8-.6,3.6,1.7,7.3,1.4,10.9.8,5.5-1,10.8,1.2,17.5.4M906.8,1043.6c-1.4-.6-2.9-1-4.2-1.8-3.5-2.1-6.6-4.9-10.3-6.4-8.2-3.3-16.6-6.5-25.1-8.9-4.2-1.2-8.8-2.7-13.3.8-2.7,2.1-6.6,2.7-9.9,4.1-.6.3-1.2,1.4-1.1,2.1,0,.5,1.2,1.3,1.8,1.3,4.4-.2,8.1,2.3,12.4,2.9,9.4,1.4,18.6,4.7,28.2,5.8,1.9.2,3.8,1.1,5.6,1.1,3.8,0,7.2,1.1,10.7,2.2,4.5,1.5,9.1,2.7,13.7,3.9.5.1,1.1-.2,1.7-.4-.3-.4-.5-1-.9-1.3-2.7-1.9-5.4-3.8-9.3-5.7M775.4,1254.9c-.6.5-1.2.9-1.8,1.4.3.3.7.7,1,1,.5-.6.9-1.2.8-2.5M827,647c-.2.2-.3.5-.5.7.4,0,.7,0,.5-.7M986.6,709.6c-.2.2-.3.5-.5.7.4,0,.7,0,.5-.7Z"/>
      <path d="M462.6,784.2c.9-.9,1.9-2,2-2,3.7,3.1,6.6-.1,9.5-1.5,4.6-2.2,8.8-6.1,13.6-7,8.5-1.5,15.2-5.5,21.7-10.5.8-.6,2.3-1,3.3-.7,3.5,1.1,3.4,1.2,5.5-1.6,1.9-2.7,6.8-4.3,10.3-3.6,1.4.3,2.8.8,3.5-1.8.5-1.9,4.3-2.5,7.4-3.1,2.9-.6,5.7-2.1,8.5-3.2,1.4-.6,2.8-1.3,4.2-1.7,5.6-1.7,9.9-5.6,14.7-8.6.6-.4,1.3-1,2-1.1,3.9-.3,5.6-1,8.2-2.9,3.7-2.7,7.5-5.5,11.5-7.7,1.7-1,4.1,1.9,6.2-.4,1.5-1.6,3.6-2.1,5-4.4,1.5-2.6,4.3-5.9,8.7-4.3.6.2,1.7-.7,2.5-1.1,4.5-2.5,9-4.9,13.5-7.5,1-.6,2.6-1.6.6-3,1-.6,2.3-1.9,2.9-1.6,5.2,2.5,7.4-3.7,11.6-3.9.4,0,.8-.5,1.2-.7-.5-.2-1.1-.3-1.6-.5.6-1,1-2.1,1.8-3,.4-.4,1.3-.4,2-.5-.2.6-.5,1.2-.7,1.7.7,0,1.6.4,2.1.2,3.6-2.2,7.1-4.6,10.7-6.9,6.1-4.1,11.1-9.7,17.8-13.1,1.6-.8,2.9-1.8,4.8-1.8,1.1,0,2.4-.4,3.2-1.1,2-1.9,3.6-3.5,6.9-4.1,3.1-.5,5.7-4.3,8.5-6.7.5-.4.9-1.3,1.4-1.4,5.8-.6,9.9-4.2,14-7.6,6.6-5.5,13.8-9.9,20.9-14.6,6.7-4.5,13.4-9.1,19.9-13.8,7.3-5.3,15-10,21.5-16.4,1.8-1.8,4.6-2.5,7.1-3.5,4.8-2.1,7.4-7,11.9-9.6,4.8-2.8,9.3-6.3,13.9-9.4.1,0,.5,0,.6,0,4.9-4,9.8-8,14.6-12.2,2.3-2,4.4-3.8,7.7-3.8,2,0,3,.5,3.2,2.3.2,1.4.3,2.9-.1,4.2-.4,1-1.5,2.2-2.5,2.6-7.2,2.7-11.9,8.8-17.9,13.1-7.9,5.5-15.7,11.1-22.9,17.6-3.5,3.1-8.1,4.9-12,7.6-6.1,4.2-11.7,9.1-18,12.9-8.9,5.4-17,12-25.6,17.8-7.8,5.3-15.7,10.5-23.7,15.6-9.7,6.2-19.5,12.1-29.3,18.2-4.2,2.6-8.4,5.4-12.7,7.9-8.9,5.1-17.7,10.6-26.5,15.9-11.1,6.7-23,12.1-33.8,19.5-4.6,3.2-10.1,5.3-14.9,8.3-12.8,7.9-26.7,13.5-40.4,19.5-12.4,5.5-24.6,11.5-37.4,16.4-13.6,5.2-27.3,10.1-40.6,16.1-9,4-18.2,7.7-27.4,10.8-11.9,3.9-24,7.9-36.5,9.7-7.7,1.1-15.3,2.8-23,4-4.1.6-8.7-.7-12.6,2-.5.4-1.9-.2-2.8-.5-1.8-.5-2.8-1.2-1.4-3.3.9-1.4,1-3.3,1.9-4.7.9-1.3,2.3-3,3.1.3,0,.3,1.5.4,2.3.3,5.5-1,11-2.2,16.5-3.1,2.5-.4,5.3.7,7.1-2.1.2-.3.9-.5,1-.4,2.8,3,5.5-.3,8.2-.1,1.8.1,3.8-.7,5.6-1.1,1.5-.4,2.9-1.1,4.4-1.2,3.4,0,6.5-.6,9.5-2.4,1.5-.9,3.7-.9,5.6-1.3.4,0,1,.2,1.2,0,3.6-3.7,8.8-3.5,13.1-5.4,1.7-.8,2.4-2.2,5-1,1.5.7,4.6-2.1,7.2-3.6M520.6,760.6c.9.2,1.8.6,2.6.5.4,0,.7-1,1.1-1.5-.6.1-1.3.3-1.9.4-.4,0-.8,0-1.8.6Z"/>
      <path d="M913.5,1340.8c1.2,0,1.9,0,2.5,0,3.8.5,8.6-2,10.6,3.7,4.7-.2,4.1,3.2,4.1,6.2,0,1.6.2,3.3,0,4.9-.3,2.3,1.2,4.9-1.2,6.8-2.9,2.3-5.9,4.5-9.9,4.2-2.3-.2-4.7.9-6.8-1.3-3-3-5.7-6.1-6.4-10.2-1.3-7,.7-10.8,7.3-14.2Z"/>
      <path d="M904.9,1264.7c.6-2,.9-3.5,1.8-4.8,2.3-3.3,3.3-3.3,6.3-.1.7.7,1.1,1.4,2.3.3.4-.3,3.1,1.3,3.1,1.5-.8,2.8,2.2,3.6,2.6,5.7.4,2.4,2.3,4.8-.4,6.9-.3.2-.8.6-.8.9.4,4.9-3,4.3-6,4.2-3.3-.1-5.3-1.8-6.3-5.2-1-3.4-1.4-7.2-6.4-7.1-.3,0-.7-.4-1-.5.5-.2,1-.5,1.5-.6,1.1-.3,2.3-.4,3.4-1.2Z"/>
      <path d="M1368.2,1322.1c-.3-1.5-.4-2.7-.3-3.9,0-.6.4-1.3.7-1.9.2.5.5,1.1.5,1.6-.1,1.5-.4,3-.9,4.2Z"/>
      <path d="M1363.9,1349.7c.2.8,0,1.3,0,1.9-.3,0-.8-.2-.8-.2.1-.7.3-1.3.8-1.6Z"/>
      <path d="M1330.1,1367.5c-.2-.8,0-1.3,0-1.9.3,0,.8.2.8.2-.1.7-.3,1.3-.8,1.6Z"/>
      <path d="M835.3,651.9c.3-.4,1-.8,1.6-1.1,0,.3.2.5.2.8-.5.1-1,.2-1.9.3Z"/>
      <path d="M234.1,1259.5c-.5-.3-.7-1-.8-1.6,0,0,.5-.1.8-.2.1.5.2,1,0,1.9Z"/>
      <path d="M326.2,1263.8c0,.3-.4.4-.8.4.2-.2.3-.5.8-.4Z"/>
      <path d="M306.6,1311.7c0,.3-.4.4-.8.4.2-.2.3-.5.8-.4Z"/>
      <path d="M406.7,1317.2c0-.3.4-.4.8-.4-.2.2-.3.5-.8.4Z"/>
      <path d="M469.9,779.9c0,.3-.4.4-.8.4.2-.2.3-.5.8-.4Z"/>
      <path d="M261.8,1296.3c0-.3.4-.4.8-.4-.2.2-.3.5-.8.4Z"/>
      <path d="M217.6,1288.9c0-.3.4-.4.8-.4-.2.2-.3.5-.8.4Z"/>
      <path d="M902.5,1351c.4,0,.8.2,1.1.4-.4,0-.8,0-1.1-.4Z"/>
      <path d="M1206.7,1315.3c0,.3-.4.4-.8.4.2-.2.3-.5.8-.4Z"/>
      <path d="M1215.9,1328.2c0-.3.4-.4.8-.4-.2.2-.3.5-.8.4Z"/>
      <path d="M1336.3,1349.7c.3,0,.4.4.4.8-.2-.2-.5-.3-.4-.8Z"/>
      <path d="M1339.3,1342.4c0,.3-.4.4-.8.4.2-.2.3-.5.8-.4Z"/>
      <path d="M1344.9,1292.6c0-.3.4-.4.8-.4-.2.2-.3.5-.8.4Z"/>
      <path d="M1392.2,1323.9c0,.3-.4.4-.8.4.2-.2.3-.5.8-.4Z"/>
      <path d="M956.5,1177.5c-.4,1.3-.9,1.9-1.2,2.6-1.3,2.4-2.1,5.5-5.1,5.9-3.6.4-7.4,3.1-11-.5-1.3-1.3-4-1.5-4.5-2.8-.5-1.3-4-1.3-1.8-3.6-1.9-.9-3.8-2.7-5.6-2.5-2.9.2-4.5-1.5-6.3-2.7-6.4-4.2-13.4-7-20.4-10.1-5.9-2.6-11.3-6.3-16.9-9.5-9.7-5.5-20.4-8.2-31-11.1-4.3-1.2-8.4-3.5-12.7-4.8-6.8-2-13.5-4.2-20.6-5.2-6.4-1-12.5-4.3-18.7-6.4-5.5-1.9-11.3-3.4-16.7-5.7-5.8-2.4-11.8-4.7-16.7-8.4-7.2-5.4-15-9.1-23.1-12.4-2.3-.9-4.6-2-7-2.4-2.4-.4-4.9-.3-7.3,0-4.7.5-5.8-4.2-8.9-6-1.4-.8.8-3.7,3.2-3.9.5,0,1.1-.3,1.6-.6,4.4-3,8.9-2,13.4-.6,3.3,1,6.8,1.6,9.8,3,6.5,3.2,12.5,7.3,19.1,10.2,8.4,3.8,15.5,10.6,25.4,11.4,2.2.2,4.4,1.2,6.3,2.4,6.1,3.8,13.1,5,19.8,7.1,7.6,2.4,15.3,4.6,22.9,7,8.4,2.6,16.6,5.5,25.4,6.9,2.7.4,5.2,2.2,7.7,3.6,5.2,2.8,10.3,5.8,15.5,8.5,2,1.1,4.2,1.7,6.3,2.5.4.1.9,0,1.2.1,7.6,7.2,18.3,8.4,26.6,14.2,1.7,1.2,3.7,1.9,5.6,2.8,1.2.6,2.9.7,3.6,1.6,3.3,4.8,7.7,3.8,11.6,1.9,1.9-.9,3.1-.2,3.9.3,1.7,1,1.5,5.6,5.3,2.4.6,1.4,1.2,2.8,1.7,4.8Z"/>
      <g id="TbcFSs" class="cls-1">
        <image id="TbcFSs-2" data-name="TbcFSs" width="470" height="242" transform="translate(328.6 464.3) scale(.8)" xlink:href="pdp_2-1.png"/>
      </g>
      <g id="xgjwuG" class="cls-1">
        <image id="xgjwuG-2" data-name="xgjwuG" width="1806" height="250" transform="translate(764.5 1427.9) scale(.5)" xlink:href="pdp_2-2.png"/>
      </g>
      <g id="_x31_qV5Tq" class="cls-1">
        <image id="_x31_qV5Tq-2" data-name="_x31_qV5Tq" width="228" height="240" transform="translate(48.5 1210) scale(.7)" xlink:href="pdp_2-3.png"/>
      </g>
      <g id="Ce3Ot1">
        <image id="Ce3Ot1-2" data-name="Ce3Ot1" width="1076" height="250" transform="translate(0 1011.2) scale(.5)" xlink:href="pdp_2-4.png"/>
      </g>
    </g>
  </g>
</svg>