<?xml version="1.0" encoding="UTF-8"?>
<svg xmlns="http://www.w3.org/2000/svg" xmlns:xlink="http://www.w3.org/1999/xlink" version="1.1" viewBox="0 0 915 670.5">
  <!-- Generator: Adobe Illustrator 28.7.3, SVG Export Plug-In . SVG Version: 1.2.0 Build 164)  -->
  <g>
    <g id="Contours">
      <path d="M779.7,179.6c1.2,1.2,2.5,0,3.7,0,3.1,0,6.2.7,9.3-.6.8-.3,2,.3,3.1.4,1.2.1,2.5.6,3.4.2,2.3-.9,4.4-1.1,6.6,0,.4.2,1.6-.3,1.8-.7.5-1.2,1.2-1,1.7-.3,1,1.3,2.3,1.3,3.5,1.1,1.7-.3,3.2.4,5,.2,1.7-.3,3.5.5,5.3.7.7,0,1.5-.2,2.2-.4.7-.1,1.5-.5,2.2-.4,3.3.7,6.6-.2,9.9-.1,1.7,0,3.9,0,5.1-1,2.6-1.9,5.2-1.8,8-1.4,1.5.2,2.3-.2,2-1.9,0,0,.1-.2.2-.3,4.4-6.5,4.5-14.2,6.2-21.4.5-2,1.4-4,1.9-6,.8-3.2,1.3-6.4,2.1-9.6.4-2,1.2-3.9,1.4-5.9.1-1.4,0-3.1-.7-4.4-.4-.8-2.1-1.8-2.8-1.5-4.7,1.6-9.2-.4-13.8-.6-1.5,0-3.1-.5-4.6-.4-3.9.2-7.8.3-11.7.5-5.5.3-11.2,1.1-16.8-.3-1-.3-2.1-.2-3.1-.2-6.7,0-13.3,0-20,0-7.6-.1-15.3,0-22.9-1-4.5-.6-9.1,0-13.5-2.1-1.9-1-4.5-.2-6.8-.8-3.3-.9-6.9-.7-10.4-.9-5.2-.4-10.4-1-15.4-2.3-2.5-.6-5.1-.5-7.6-.9-4.7-.8-9.4-1.7-14.2-2.5-2.6-.5-5.2-1.1-7.8-1.4-5.7-.8-11.2-2.3-16.8-4-4.4-1.3-9-2.1-13.5-3.3-7.4-2-15.1-3.2-22.3-6-3-1.2-6.4-1.5-9.2-2.9-5-2.5-10.5-3.6-15.7-5.5-5.1-1.9-10-4.2-15.1-6-6.5-2.4-12.8-5.2-19.2-7.8-6-2.4-11.2-5.9-16.4-9.6-1.4-1-2-3.1-2.7-4.8-.2-.5.4-1.6,1-1.9.5-.3,1.8-.2,2.1.1,1.9,2.9,5.1,3.3,7.9,4.6.3.2.6.5.9.8-.3.2-.7.4-1.2.4-.4-.2-.7-.2-.9-.3.2.2.5.3.7.5,7.2,5.8,15.8,9,24.4,12,.7.2,1.4.4,2.1.8,4.8,3,10.2,4.6,15.7,5.6,1.3.3,2.5,1,3.7,1.6,5.8,2.8,12,4.6,18,6.7,5.1,1.8,10.3,3.6,15.5,5,2.8.7,5.7.8,8.5,1.8,2.5.9,5.4.6,7.6,1.8,2.8,1.6,5.9,1.1,8.7,2.1,1.6.6,3.3.9,5,1.5,2.8,1.1,5.9,1.1,8.9,1.8,4.8,1.1,9.6,1.4,14.4,3,3.6,1.2,7.6,1.2,11.4,1.8.7.1,1.4.5,2.1.7,2,.3,4,.8,6,.9,4.1.1,8.1.7,12.2,1.6,2.9.6,5.9.5,8.9.9,4.1.5,8.1,1.1,12.1,1.6.8,0,1.7.2,2.4,0,.6-.2,2.9,1.3,1.5-1.3.6.2,1.5.2,1.9.6.8.7,1.4,1.4,1.8,1.5,6.4,1.1,12.9.2,19.3,1,4.7.6,9.4.4,14.1.6,2,0,4.1-.3,6.1,0,2.2.3,4.5,0,6.8.1,2.2.2,4.4.6,6.6.7,2.6,0,5.3-.6,8-.9.8-.1,1.7-.1,2.5,0,.8,0,1.5.2,2.3.3.5,0,1.1.1,1.6,0,5.1-1.7,10.2.4,15.4.1,3.6-.2,7.3.3,10.8.9.8.1,1.1.2,1.8-.2.5-.3,1.3-.1,1.9-.3.8-.2,2.1-.4,2.1-.7.1-2.3,1.8-3.1,3.4-4.2,2.2-1.6,3.7-1.5,4,1.1.3,2.7-.4,5.5-.2,8.2.1,1.2-2.1,2-.5,3.2-1.5,2.3-1.8,4.6-1,7.5.6,2-.6,4.6-1,6.9,0,.3,0,.6,0,.8-2.5-.5-2.5,1.6-1.9,2.6,1.2,2-1.5,3.7-.1,5.6,0,0-.2.5-.4.6-1.9,1.3-2.7,3.5-2.3,5.9,0,.4-.2,1.2-.6,1.3-1.9,1-2.3,2-.7,3.2,1,.7.9,1.1.2,1.7-1,1-1.7,1.9-.6,3.4.3.5,0,1.4,0,2.1-.2,2-1.8,3.9.2,6.1.6.7.9,3.2-.7,3.9-2.6,1.1-3,3-2.9,5.4,0,.7-.2,1.5-.3,2.3-.1,1-.2,2.1-.3,3.1-.5-.9-.9-1.8-1.3-2.7-.2-.5-.4-1.1-.6-1.7-.3.7-.8,1.3-.9,2-.1,1.3,0,2.7,0,4,0,2.7.1,5.3,0,8-.1,1.6,1.1,3.6-1.4,4.6-.4.2.2,2.3-.2,3.4-.6,1.8-.6.5-.8-.2,0,0-.6-.1-.8,0-.3.2-.7.7-.7.8,2.5,2.9-.8,5.1-1.4,7.3-.7,2.3-1.7,4.9-2.7,7.3-.3.6-.8,1.2-1.2,1.8-.1-.6-.4-1.2-.3-1.9,0-.9.3-1.8.5-2.8-1.5.4-.9,2.1-1.5,2.7-1.7,1.7-1.5,3.1-.8,5.2.6,1.7.5,3.8-.6,5.7-.9,1.6-1.5,3.5-1.6,5.3,0,2.3-1.4,4-2.2,6-.5,1.3-.7,2.6-1.2,3.9-.6,1.6-1.4,3.2-1.9,4.8-.5,1.4-.8,2.9-1.3,4.3-.2.7-.6,1.8-1,1.9-2.9.7-.4,3.4-1.9,4.8-.5.5,2.7,2.2,4.5,1.5,1.7-.7,3.4-1.6,5.2-2,4.3-1.2,8.7-2.2,13.1-3.2,3.9-.9,7.9-1.4,11.8-2.5,4.4-1.2,8.7-2.7,13.1-4.2,2.1-.7,4.3-.5,6.4-1.2,4.8-1.6,9.9-2.9,15-3.4,2-.2,4-.5,6.1-.8.4,0,.9.1,1.1,0,3.4-3.5,8.4-2.1,12.4-3.9.4-.2,1.2,0,1.4-.3.9-1.4,2.1-1.2,3.4-.9.4,0,.9.5,1.1.4,6.1-3.7,13.4-3.7,19.9-6.1,1.7-.6,3.8,0,5.3-1.8.4-.5,2,0,3,.1.3,0,.8.4.8.3,2.9-3.3,7.5-1.7,10.9-3.7,4.4-2.6,9.4-2.4,14.3-3.3,2.1-.4,4.3-.7,6.1-1.6,4-2.1,9-1.2,12.5-4.6.6-.6,2-.3,2.9-.6,5.3-1.8,10.5-3.6,15.8-5.3,1.9-.6,4-.6,5.8-1.4,3.9-1.8,8.4-2.3,11.9-5.1.4-.3,1.1,0,1.7-.1,5.8-1.3,11.2-3.8,16.9-5.7,6-2,11.8-4.6,17.8-6.2,10.7-2.9,20.8-7.5,31.8-9.4,4.6-.8,9-2.9,13.7-3.8,2.8-3.2,7.7-1.4,10.6-4.6.7-.7,2.5-.3,3.7-.7,6.1-1.7,12.2-3.5,18.3-4.9,4.9-1.1,9.6-2.8,14.6-3.5,1.2-.2,2.2-1.1,3.4-1.4,1.3-.3,2.8-.5,3.5.9.6,1.4-.1,2.1-1.4,3-2.9,2.1-6.4,2.7-9.6,2.9-3.5.2-6.7,1.7-10.1,1.9-1,0-1.9.5-2.9.7-.6.1-1.5-.2-1.9.2-4.5,3.5-10.1,3.4-15.3,4.7-4,1-7.8,2.5-11.8,3.3-1.6.3-3,2-5,1.6-1.3,2.1-3.7,1.3-5.5,2.2-1.9.9-3.9,1.7-6,2-1.6.2-2.5,2.5-4.4,1.3-1.8,1.9-4.3.7-6.3,1.6-2.2,1-4.3,1.8-6.6,2.4-3.6.9-7.1,2.2-10.6,3.4-6.1,2-12.3,3.8-18.2,6.2-3.7,1.5-7.4,2.8-11.2,4-3.2,1-6.2,2.4-9.3,3.6-.2,0-.5.3-.7.2-2.1-.4-3.6.5-5.3,1.6-3.6,2.3-7.9,2.8-11.9,4.1-4.6,1.4-9,3.5-13.6,4.7-4.6,1.1-8.5,4.2-13.5,4.2-1.6,0-3.3.9-4.9,1.6-1.8.8-3.7.5-5.4.9-1.7.3-3.4,1.4-5.4,1.5-2.1,0-4.4.3-6.3,1.2-1.8.9-3.2,2.6-5.6,1.9-4.4,2.8-9.8,1.6-14.4,3.9-2.5,1.3-5.6,1.6-8.4,2.3-3.6.9-7.4,1.4-10.9,2.6-5.6,2-11.5,2.5-17,4.7-3.5,1.4-7.4,1.6-10.9,2.7-4.2,1.3-8.5,1.3-12.7,2.2-1.6.3-3.1,1-4.5,1.6-3.7,1.6-8,1.1-11.4,3.3-2.2,1.3-4.4,1.3-6.7,1.6-2.1.3-4.1,1.1-6.1,1.6-3.4.9-6.6,2.4-10.2,2.4-.4,0-1,0-1.1.2-.7,2.3-2.9.3-4,1.5-1.2,1.3-3.4.9-4.4,1.7-1.4,1.2-3,.8-4.4,1.5-1.4.7-3.2.8-4.5,1.6-2,1.2-4.1,2.2-4.7,5.1-.4,2.3-2.1,4.4-3.2,6.6-.3.5-.5,1.2-.6,1.8-.7,3.7-2.6,6.9-3.8,10.5-1.1,3.5-3.1,6.7-4.4,10.2-1.2,3.3-3.8,5.9-4,9.5-3.1,3-4.5,7.2-6.8,10.8-.5.7-.8,1.5-1.1,2.3-1.4,3.6-3,7.1-5.7,10.1-1.3,1.5-2.5,3.4-2.8,5.2-.4,2.7-3.3,4.3-2.8,7.3-2.7,3.2-2.7,7.8-5.8,10.8-.3.3-.4.9-.6,1.3-1.6,2.9-3.1,5.9-4.8,8.8-.9,1.5-2,2.9-2.8,4.5-1.6,2.9-2.4,6.6-4.6,8.8-2.1,2.1-3.3,4.6-4.6,6.9-2.9,5.3-8.1,8.6-11.3,13.6-.6.9-.9,2-1.5,3-1,1.5-1.8,3.9-3.2,4.3-2.5.7-2.3,3-3.7,4.3-1.4,1.3-2.7,2.5-3.9,3.9-2.3,2.9-4.3,6.1-6.9,8.7-3.5,3.6-6.2,8.1-10.4,10.6-1.9,1.1-2.8,2.8-4.4,4-1.9,1.5-3.4,3.3-5.1,5-.6.6-1.3,1.3-1.9,1.9-3.1,2.8-6.2,5.7-9.3,8.5-2.6,2.3-5.3,4.6-7.9,6.8-4.1,3.5-8.4,6.8-12.4,10.4-3,2.7-5.6,6.1-8.8,8.5-2.4,1.8-5.3,3-6.6,6-4.2,1.5-6.4,5.5-9.9,7.9-1.8,1.2-3.7,2.3-2.5,5.4.9,2.5-1.8,2.8-3.6,3.4-.6.2-1.5,0-.5,1,.3.4.5.9.7,1.4-.5-.2-.9-.5-1.4-.4-3.2.2-6-1-9-1.9-.2,0-.5,0-.8,0-2-.4-3.2-3.4-5.8-1.7-1.6-2-4.4-1.3-6.2-2.4-3.6-2.1-8-1.9-11.3-4.6-.3-.3-1,0-1.6,0-2.2,0-4.4.4-6.2-1.4-.2-.2-.7-.2-1.1-.2-5,0-9.4-2.3-14-4-2.4-.9-4.9-1.7-7.4-2.4-5.4-1.4-10.9-2.5-16.3-4.1-4.8-1.3-9.3-3.5-14.1-4.5-4-.8-7.4-3-11.4-3.5-4.4-.6-8.7-2.1-12.8-4-3.1-1.5-6.2-3.2-9.8-3.4-2.3-3.4-6.3-3.6-9.7-4.4-3.4-.8-6.8-1.7-10.1-2.7-2.8-.8-5.4-2.3-8.2-3.3-3.7-1.3-7.2-2.7-10.2-5.3-1.2-1.1-3.3-1.1-4.8-1.8-3.7-1.7-7.3-3.6-10.9-5.5-.7-.3-1.4-.6-2-1-4.7-3.6-10.1-5.8-15.2-8.6-1.4-.8-2.7-1.8-4.1-2.7-.8-.6-1.6-1.4-2.5-1.7-3.5-1-5.7-4.1-8.8-5.8-.7-.4-.7-1.8-1.2-2.6-.4-.6-1.2-1.5-1.2.3-.6,0-1.4.1-1.8-.2-1.8-1.4-4.1-2.7-5.2-4.6-.7-1.3-1.1-.3-1.6-.5-2.5-1.4-5-2.7-7.4-4.2-3.7-2.4-8.2-2.4-11.4.4-1.5,1.4-3.4,1.7-5.1,2.5-2.1,1-4.5,2-6.8,2.2-3,.3-5.2,2.5-8,3-1,.2-2,.6-2.8,1.2-1.2.9-2.1,1-3-.1-1.3,2.2-3.7,1.8-5.7,2.4-2.1.6-4.2,1.5-6.2,2.4-5.9,2.4-11.9,4.8-17.8,7.2-1.3.5-2.5,1-3.7,1.6-3.7,1.7-8,1.9-11.6,4-.3.2-1-.2-1.2,0-3.2,3.3-7.9,3.5-11.7,5.5-2.3,1.2-4.9,1.7-7.4,2.5-1.7.5-3.5.7-5,1.5-4.8,2.8-10.3,3.5-15.3,5.7-2.9,1.3-6,2.3-9,3.3-3.7,1.2-7.4,2-11.1,3.2-3.9,1.2-7.7,2.6-11.6,4-5.3,1.9-10.5,4.3-16,5.8-3.4.9-6,3.4-9.5,4.1-4.5.9-8.6,3-12.9,4.5-4,1.3-8,2.5-11.9,4-4.6,1.8-9.1,3.9-13.6,5.8-1,.4-2.2.5-3.2.9-3.5,1.3-6.9,2.6-10.4,3.9-4.8,1.9-9.6,3.8-14.5,5.7-6,2.3-12,4.6-18,6.9-7.7,2.9-15.4,5.9-23.2,8.8-.6.2-.9,1-1.5,1.2-.9.4-2,.5-3,.8.1-1.3-.2-3,.5-3.7,2-1.8,4.3-3.7,6.8-4.7,7.2-2.9,14.7-5.2,21.8-8.2,5.8-2.4,12.1-3.8,17.7-6.6,5.9-2.9,12.4-4.3,18.3-7.1,6.8-3.2,14.3-4.8,20.9-8.6,2.5-1.4,5.6-1.9,8.4-2.9,3.8-1.3,7.5-3.2,11.3-3.9,5.9-1.1,10.9-4.1,16.2-6.3,4.4-1.8,8.9-3,13.3-4.6,2.4-.9,4.8-2,7.3-2.8,6.5-2.1,13-4,19.5-6,3.3-1,6.5-2.2,9.8-3.3,4.5-1.5,8.8-3.3,13-5.4,2.8-1.4,6.1-2,9-3.3,3.9-1.7,7.9-2.7,11.7-4.7,3.6-1.8,7.7-2.7,11.5-4.1,2.6-1,5.2-2.4,7.8-3.4,1.1-.4,2.5,0,3.5-.6,4-2.2,8.3-3.9,12.6-5.3,4.8-1.6,9.5-3.4,14.3-5.1,7.9-2.7,15.7-5.8,23.6-8.8,2.4-.9,2.7-2.5.6-4.3-2-1.7-4.4-3-6.5-4.5-.8-.6-3-.4-1.5-2.5,0,0-.4-.6-.7-.7-3.8-.3-6.1-2.9-8.1-5.8-.5-.6-1.4-1.4-2-1.4-1.9.2-2.6-1.1-3.5-2.2-.5-.6-.4-1.8-1-2.3-.4-.3-1.6.4-2.1,0-.8-.6-1.4-1.5-1.7-2.4-.4-1.4-.7-2.6-2.6-1.6-.2.1-.7-.3-1.1-.5-1.6-.5-1.9-2.9-2.6-3-1.9-.2-2.1-1.5-3-2.5-1.7-1.7-3.8-2.9-5.8-4.3-1.8-1.3-3.7-2.6-5.6-4-.8-.6-1.4-2-2.7-.7-.3-1.5-2-1.8-2.4-3.2-.8-2.8-2.8-4.5-5.4-5.6-.2,0-.6,0-.7-.2-2.7-4.6-7.8-6.3-11.5-9.8-2.1-2-4.1-4.1-6.2-6.2-5.7-5.7-11.4-11.5-17.2-17.2-3.2-3.1-6.7-5.9-9.8-9.1-6.1-6.4-12.9-12.5-17.9-19.8-4.6-6.6-10.9-11.8-14.8-19-2-3.7-5.4-6.6-8.1-9.9-1.8-2.3-3.6-4.6-5.4-7-2.4-3.1-4.8-6.3-7.1-9.5-3-4.2-5.9-8.5-9-12.7-3.2-4.3-5.4-9.2-8.2-13.8-1.1-1.8-2.7-3.2-2.2-5.5.2-.7.5-1.6,1.1-1.9.4-.2,1.4.3,1.8.8,1,1.1,2,2.4,2.6,3.7,3.9,7.6,8.1,15,13.8,21.5,2,2.3,4.2,4.6,5.6,7.3,2.5,4.6,5.9,8.5,8.9,12.7,4.1,5.7,9.1,10.9,13.1,16.6,3.6,5.2,8.5,9.3,11.8,14.7,2,3.3,5.1,6,7.8,8.8,3.9,4,7.9,7.9,11.8,11.9,4,4,8,8,12.1,12.1,3,3,5.7,6.4,9,8.9,4.1,3,7.5,6.6,11.4,9.9,3.3,2.7,6.8,5.1,9.7,8.2,2.9,3,6,5.8,9.2,8.4,2.6,2.1,5.6,3.9,8.4,5.8.7.5,1.4,1.1,2.1,1.6,2.1,1.7,3.5,4.1,6.1,5.4,2.5,1.2,4.5,3.3,6.8,4.9.4.3,1,.3,1.3.7,5.1,5.3,11.4,9.3,17.1,13.8,1.5,1.2,3.4,2.1,5,3.1,1.2.8,1.4,2.8,3.8,2.6,1.2-.1,2.6,1.3,3.7,2.3,3.1,2.5,6.7,2.1,9.8.7,7.1-3.3,14.6-5.3,21.9-7.9,3.8-1.4,7.5-3.2,11.2-4.8,4.5-1.9,9.1-3.7,13.7-5.6,4.6-1.9,9.1-3.7,13.7-5.6,7.2-2.9,14.4-5.9,21.6-8.8.2,0,.6.1.8,0,2.4-2.5,5.7-2.3,8.7-3.2.3-.1.7-.3,1-.5,1-.6,2-1.1,2.9-1.7-.7-.9-1.2-2-2-2.7-.5-.5-1.4-.4-2.1-.7-3.4-1.3-7.3-1.3-10.2-4.3-1.3-1.3-3.9-1.4-5.9-2.1-2.3-.8-4.7-1.5-7-2.5-1-.5-1.8-1.5-2.8-2.5-.4-.2-.7-.2-.9-.3.2.2.5.3.7.5-.9,2.2-1.8-.6-2.7,0-.5-1.4-1.4-1.8-2.9-1.7-.7,0-1.6-.3-2-.8-1.5-2-3.4-2.4-5.9-2.5-1.3,0-2.7-1.1-4-1.8-2-1-4.1-1.8-6-3-2.8-1.7-6-2.4-8.7-4.1-1.6-1-2.7-2.9-5-2.3-.3,0-.8-.7-1.1-1-.6-.6-1.1-1.1-1.7-1.7-1.2-1.2-3.5.7-4.5-1.9-.5-1.4-2.6-1.9-4.4-1.8-.7,0-1.6-.3-2-.8-2.4-2.8-5.7-4-8.8-5.7-1.8-1-3-2.9-4.4-4.4-.1-.2,0-.7-.1-.7-2.9-.1-4.9-1.8-7-3.6-1.9-1.7-4.6-2.4-6.7-3.9-3-2.1-5.9-4.4-8.6-6.9-1-.9-1.5-2.3-3.2-1.8-.2,0-.6-.1-.6-.3-1.3-3.1-3.9-4.9-6.5-6.7-1.4-1-2.8-1.9-4.4-2.5-2.1-.8-3.6-1.9-4.8-3.9-1.1-1.8-3.4-2.7-4.8-4.3-2.5-2.9-5.1-5.5-8.6-7.1-.7-.3-1-1.3-1.5-2.1-.3-.5-2.5,0-.7-1.4-1.5-.3-2.5-1.2-3.2-2.5-2.3-4.2-5.9-7.2-9.7-10-.3-.2-.5-.5-.7-.8-1.1-2.2-2.8-3.7-4.7-5.2-1.1-.9-2.8-1.7-2.6-3.7,0-.3-.3-.8-.6-.9-2.7-1.3-3.6-4.2-5.5-6-3.8-3.7-6.1-8.4-10-12-5.5-5-9.3-11.4-13.5-17.5-.7-1-1.7-1.7-2.5-2.5-3.8-3.4-6.5-7.4-7.6-12.4,0-.1-.2-.2-.2-.3,0-1.2,1.9-2.8.3-3.3-1.4-.5-3.6.2-5,1-6.2,3.8-13.3,3.9-20,5.9-5,1.5-10.3,2.3-15.5,3.2-2.6.4-5.2.6-7.8.8-3.8.3-7.5.7-11.3.8-2.4,0-2.9-1.1-1.6-3.1.3-.4.9-.9,1.3-.8,2.4.3,4.7,0,7.1-.7,2.4-.7,5.1-.5,7.6-.7,4.1-.3,8.1-1.9,12.2-1.2,2-1.8,4.5-1.1,6.8-1.8,4-1.1,8-2.1,11.9-3.2,3.6-1,7.4-2.1,10.9-3.6,1.9-.8,4-1.3,6-2,4.3-1.6,8.5-3.5,12.8-4.7,5.5-1.6,10.5-4.3,16.1-5.6,4-.9,7.8-3.1,11.7-4.7,9-3.5,18-6.7,26.8-10.5,4.2-1.8,8.3-3.7,12.3-6.1,2.2-1.3,4.8-2,7.1-3.2,11.9-6,23.8-12,35.7-18.1,3.9-2,7.6-4.3,11.3-6.7,1-.7,2-1.3,2.9-1.8,2.8-1.5,5.7-3.1,8.5-4.6,7.1-3.9,14.2-7.6,21.1-11.6,5.5-3.2,10.8-6.8,16.2-10.2,6.4-4,13.1-7.8,19.3-12.1,5.1-3.5,10.1-6.9,15.6-9.6.8-.4,1.3-1.3,2-2.1,5.8-3.9,11.6-7.7,17.4-11.4.9-.6,1.7-1.1,2.4-1.8,1.1-1,2-2.1,3.1-3.1,1-.9,3.9-1,4.2-.2.4,1,.7,2.2.6,3.2,0,.4-1.2.8-1.8,1.1-5.4,3-10.2,7-15.3,10.5-4.5,3-8.9,6.3-13.4,9.3-2.6,1.7-5.3,3.2-8.2,4.4-2.2.9-3.9,2.8-5.9,4.1-2.6,1.7-5.4,3.2-8,4.8-2.4,1.5-4.8,3.2-7.2,4.8-8.8,5.7-17.5,11.4-27,16-6.8,3.3-13.1,7.7-19.7,11.5-3.6,2.1-7.5,3.9-11.2,5.9-7.2,3.9-14.3,7.9-21.6,11.6-5.9,3-12.1,5.6-18.1,8.6-3.7,1.8-7.1,4.1-10.8,5.9-5.1,2.4-10.4,4.6-15.6,6.8-4,1.7-8,3.2-12,4.8-6.2,2.4-12.4,4.9-18.6,7.2-3.9,1.5-7.9,2.8-11.9,4.2-3.9,1.5-7.7,3.4-11.8,4.4-2.2.5-4.3,1.1-6.5,1.8-3,1.1-3.6,3.3-2,6.1,2.4,4,5.1,7.7,8.5,10.9.9.9,1.2,2.5,2,3.5,4,4.9,8,9.7,12,14.5,2.8,3.4,5.7,6.7,8.5,10.1,1.6,1.9,3.1,3.8,4.8,5.6,5.7,6,11.4,12.1,17.2,18,5.7,5.8,11.4,11.6,17.2,17.2,2.4,2.3,5.2,4.1,7.8,6.2,2.4,1.9,4.8,3.8,7.2,5.7,6.5,5.2,13,10.6,20.3,14.7.9.5,1.7,1.1,2.5,1.7,1.3.9,2,2.5,4.1,2.9,1,.2,2.1,1.6,3.3,2.3,3.3,1.8,6.3,4.1,9.5,6.1,1.9,1.2,3.6,2.7,5.8,3.4.2,0,.7,0,.8,0,3,3.9,8.1,4.5,11.9,7,3.4,2.2,7.1,4,10.8,5.7,4.5,2,9.1,3.7,13.7,5.7,5,2.1,10,4.3,15,6.4,4.9,2.1,9.3,5.3,14.6,6.7,3.1.8,5.9,2.5,8.9,3.7,1.6.7,3.3.9,5,1.4,2.4.7,4.7,1.7,7.1,2.2,1.8.3,3.9.4,5.6-.1,9.8-3.1,19.4-6.6,28.9-10.3,2.4-1,5.1-1.4,7.7-2,2.6-.6,4.8-2.3,7.8-2.5,2.2-.2,4.5-1.5,6.5-2.5,6.3-3.2,13.1-4.5,19.6-6.8,3.1-1.1,6.2-2.6,9.4-3.4,4.7-1.1,9-3.5,13.6-4.8,2.3-.7,4.8-1.1,7-1.8,2.5-.7,5-2,7.4-3.3,2.6-1.4,5.3-2.1,8.1-2.8,1.6-.4,3-1.8,4.6-2.3,4.1-1.3,7.9-3.5,12.3-4.1,1.9-.3,3.6-1.6,5.3-2.6,1.3-.7,1-3-.5-3.7-1-.4-2.2-.8-3.3-.8-2.9,0-5.7-.4-8.2-1.7-1.7-.9-2.8,0-4.2,0-1.3,0-2.7-2-3.9-1.9-3.9.4-6.9-1.5-10.3-2.8-1.2-.4-2.3-.9-3.5-1.5-1.4-.7-3.2-.5-4.8-1-1.3-.4-2.4-1.2-3.6-1.9-.2-.1-.4-.4-.6-.5-2-.4-4.2-.4-5.8-1.3-1.7-.9-3.2-2.1-5.2-1.9-.6,0-1.3,0-1.9-.2-1-.3-1-2.2-2.9-1.6-1,.4-2.4-.3-3.6-.6-.3,0-.5-.3-.8-.5.4-.1.8-.1,1.1-.3.1,0,0-.5,0-.8-.9,0-2-.3-2.8,0-1.9,1-3.2.9-4-1.3,0-.2-.7-.4-1-.4-4.8-.2-8.9-2-13-4.5-2.1-1.3-5.1-1.3-7.7-1.8-1.4-.3-2.3-.9-3.4-1.5-4.2-2.1-8.5-3.9-12.8-5.8-.3-.2-.6-.5-1.1-1-1.1-.6-2-1.2-2.6.2h-1.2c.5-2.5-1.6-2.5-3.1-3.2-3.2-1.6-6.3-3.5-9.7-4.7-2.7-1-5.6-1.6-8-3.3-.8-.6-1.7-1.1-2.5-1.6-5.2-2.9-10.4-5.9-15.6-8.8-.3-.2-.6-.5-1-.5-1.2-.3-2.5-.5-3.6-.9-.4-.2-1.7-2.3-2.2-2.5-3.7-1-6.3-3.8-9.8-5.3-4.5-1.9-8.6-5.1-12.8-7.7-5.5-3.4-11.1-6.8-16.6-10.2-4.1-2.5-8.6-4.3-11.9-7.9-.2-.2-.4-.5-.6-.5-4.2-.7-5.7-5.1-9.2-6.7-3.6-1.6-6.5-4.2-9.6-6.5-4.6-3.4-9.2-6.9-13.7-10.5-3.6-2.9-6.7-6.7-10.7-8.8-4-2.1-7.1-5.2-10.9-7.5-3.7-2.2-6.4-6-9.4-9.2-.6-.7-.9-1.8-1.2-2.7-.4-1.3-.6-2.7.8-3.5,1.6-1,2.1.8,2.7,1.5,5.6,6.8,12.9,11.4,19.7,16.8,4.2,3.3,8.5,6.6,12.8,9.9,5.1,4,9.9,8.3,15.5,11.8,5.9,3.6,11.2,8.4,16.8,12.6,1.1.8,2.2,1.8,3.4,2.3,5.6,2.5,10.3,6.4,15.7,9.3,4.9,2.5,9.9,5.5,14.3,9,2.2,1.7,5.1,2.7,7.4,4.2,3,2,6.4,3.3,9.6,4.9,3.2,1.7,6.2,3.7,9.4,5.4,3.6,2,7.1,4,10.8,5.8,3.9,1.9,8,3.3,11.7,5.5,7,4.1,14.3,7.4,21.6,10.8,4.5,2.2,9,4.7,14.3,5.2,1.4.1,2.9.8,4.1,1.6,3.6,2.4,7.8,3.1,11.8,4.3,1.8.5,3.8.5,5.5,1.6.2.1.4.4.6.4,5.1-.9,8.8,2.9,13.2,3.7,4.6.9,8.6,3.3,13.1,4.5,4.6,1.3,9,3.5,13.7,4.7,5.4,1.4,10.6,4.1,16.4,4,1.5,0,3,1.1,4.5,1.5,3.8.9,7.8,1.1,11.3,2.6,2.9,1.3,5.7,1.5,8.6,1.4,1.6,0,3.3-.4,4.9-.8.3,0,.2-1.2.6-1.5,1.2-1,2.2-.9,4.3.3.1,0,.8-.3.7-.4-.6-1.7,1-1.7,1.7-2,2.2-.8,4.5-1.3,6.8-2,1.4-.5,2.7-1.2,4.1-1.7,1.5-.5,3.1-1.4,4.6-1.3,2.7.2,4.5-2.7,7.3-1.8,8.1-3.2,16.7-4.7,25-7.2,5.2-1.5,10.2-3.6,15.4-5.2,4.3-1.3,8.6-2.3,12.9-3.6,1.5-.4,3-1.2,4.4-1.9.2,0,.5-.5.6-.4,4.1,2.3,6.7-2.6,10.6-2.1,2.7.3,5.5-1.6,8.3-1.9,4.7-.5,8.8-2.8,13.3-3.6.1,0,.2-.3.3-.3,3.6.6,4.4-2.2,5.4-4.7.5-1.2,1.4-2.4,2-3.6.5-1,1-2,1.2-3.1.3-1.8.3-1.8,2.8-4.1.2-.1,1.2-4.1,1.2-4.4.1-.7.2-1.6.6-2.1,1.9-2.9,2.5-6.2,3.6-9.3.2-.6.5-1.2.5-1.8.2-1.8.3-3.7.5-5.5-2.3.2-4.7.2-7,.5-2.1.2-4.2.8-6.4,1-4,.4-8.2.3-12,2.1-1.8-1.2-3.4.4-5.2.4-2.5,0-4.9.5-7.4.8-2.6.3-5.1.7-7.7.8-2.6,0-4.6,2.5-7.3,1.7-1.1,1.9-3.1-1.2-4.2.8-3.1-1.1-6.4,1.1-9.4-.8-.5-.3-1.5-.3-1.9,0-2.6,2-5.5.9-8.2.7-2.8-.2-5.7.8-8.5-.7-.7-.4-1.9-.2-2.8,0-5.1,1-10.2,0-15.2,0-5.1,0-10.1,0-15.2,0-1.4,0-2.9.6-4.1-.7-.3-.3-1.2.1-1.8.2-1,.2-2.1.7-3,.5-3.7-.7-7.5-.4-11.4-.9-.4-.2-.7-.2-.9-.3.2.2.5.3.7.5-.2.3-.5.8-.6.8-2.6-.5-5.2-1.1-7.8-1.5-.9-.2-1.9,0-2.8,0-1.8-.2-3.5-.5-5.3-.8-4.3-.8-8.5-1.6-12.8-2.4-1.6-.3-3-.9-4.6-1.1-3-.4-5.8-1.9-8.6-2.9-2.3-.8-4.6-1.9-7-2.3-1.7-.3-3-2.4-5-.9-.1,0-.6-.3-.9-.6-1-1-1.9-2.2-3.7-1.9-.5,0-1.3-.8-1.8-1.3-.8-.7-1.4-1.8-2.5-.4-.1.2-.6.2-.7.2-1.7-2.7-5.8-.6-7.2-3.7-2,1.2-3.3-.5-4.9-1.1-3.9-1.5-7.8-3.1-11.6-4.8-1.6-.7-3-1.7-4.6-2.4-3.3-1.4-7.2-2.1-10-4.1-3.5-2.6-8.1-2.8-11.3-5.8-1.2-1.1-3.1-1.4-4.7-2-.3-.1-1,.1-1.2,0-2.9-3.1-7.2-3.3-10.7-5.1-3-1.5-5.9-3.2-8.8-4.8-2.3-1.3-5-1.8-6.7-4.2-.4-.6-1.5-.7-2.3-1.1-.7-.3-1.4-.4-2.1-.8-3-1.9-5.9-3.8-8.8-5.8-3-2-6.2-3.9-9-6.3-3.7-3.2-8-5.4-11.6-8.6-2.9-2.5-5.6-5.4-9.6-6.8-2.2-.7-3.7-3.1-5.7-4.6-1.9-1.5-3.9-2.8-5.8-4.3-1.1-.8-2.3-1.6-3.3-2.5-3.4-3.3-6.8-6.7-10.1-10.2-1.1-1.2-2-2.7-2.5-4.2-.2-.6.7-1.8,1.4-2.4.3-.3,1.4,0,1.8.2.8.5,1.3,1.3,2,1.9,7.1,6.6,14.1,13.5,21.5,19.7,2.7,2.2,5.5,4.8,9.2,5.7.6.1,1.1.7,1.5,1.2,2.8,3.5,6.9,5.3,10.3,7.9,4.2,3.1,8.3,6.2,12.5,9.2,2.3,1.6,5.1,2.6,7.5,4,2.8,1.7,5.5,3.5,8.2,5.4,1.2.8,2.2,1.7,3.4,2.5.6.4,1.6,1,2,.8,2.8-1.5,4.1.6,5.7,2.1.4.4.7,1.1,1.1,1.1,5.8.2,9.9,5.3,15.7,5.8,1.1,0,1.9,2,3,2.2,3.9.5,6.9,2.8,10.1,4.7,3,1.8,6.6,2.8,9.9,4.2,1.1.5,2.2,1.1,3.3,1.6,2.7,1.1,5.6,2,8.2,3.3,1.9.9,3.5,1.9,5.7,1.6.4,0,.8.6,1.3.9.9.5,2,1.5,2.8,1.4,2-.3,3.1,1,4.5,1.7,1.1.6,1.8,1.8,3.5.9.8-.4,2.4.4,3.4,1,2.5,1.6,4.9,3.4,7.9,3.9.6,0,1.3,0,1.9,0,.8,0,1.7.2,2.4.4,1.2.3,3.1.4,3.4,1.2.7,1.8,1.9,1.1,3.1,1.4,2,.5,4.4-.1,6,2.3.5.7,2.7.5,4.1.5,3.2,0,5.9,2.3,9.2,2.1.5,0,1.2.4,1.6.8.9.8,1.6,1.7,2.1-.4,0-.2,1-.6,1.3-.4,4,1.9,8.6.8,12.6,2.3,3.4-1.4,6.8,2.4,10.3,0,2.2,1.8,4.6-.5,7.1.6,1.4.6,3.7.2,5.6.2,2.1,0,4.3,0,6.4,0s4.3,0,6.4,0c.4,0,.8-.6,1.2-.6,2.1.1,4.1.2,6.1.6,2.1.5,4.1.7,6.2.8,1.8,0,3.7-.6,5.3.7.3.3,1,0,1.6,0,1.9-.2,3.8-.4,5.7-.8,1.7-.3,3.3.2,4.9.2,3.8,0,7.6-.3,11.4.3,2.4.4,5.1,0,7.5-.6,4.6-1.2,9.2-1.7,13.9-2.3,2.2-.3,4.4.3,6.5,0,2.2-.3,4.4-1,6.5-1.5,2.2-.5,4.3-1.2,6.6-1.5,2.8-.4,5.6-.7,8.5-.8,2.2-.1,4.3.1,6.4-1.1,1.3-.8,3.8.5,4.8,2.2.4.6.6,1.4,1.1,1.9.2.2,1.2,0,1.2-.2.7-5.9,5.1-10.5,5.7-16.5,3.3-3.3,3.5-7.9,5.2-11.9.1-.3.5-.7.4-1-.8-3.1,2.3-5.4,1.9-8.5-.1-.8.5-1.7.5-2.6,0-2.5.4-4.8,1.6-7,1-1.7.1-3.6-1.8-4-1.1-.3-2.6-.5-3.4,0-2.9,1.7-6.2,1.6-9.3,1.8-1.9.1-3.7,0-5.3,1.1-.5.3-1.3.1-2,0-5.6-1-11.3-.7-17-.8-1.6,0-3.5-1.1-4.8-.6-1.7.6-3,.3-4.6,0-2.8-.6-5.6.2-8.5,0-2.9-.2-5.9-.6-8.9.6-1.3.5-3.1-.3-4.7-.2-2.8.2-5.5.8-8.3.9-1.9,0-3.8-.5-5.8-.6-2.3-.1-4.5,0-6.8,0-2.2,0-4.3,0-6.5-.6-2.9-.7-6.1,0-9.2-.2-2.4-.1-4.9-.5-7.3-.8-4.1-.5-8.1-1-12.1-1.6-6.1-1-12.2-2.2-18.3-3.2-4.2-.7-8.4-.8-12.5-1.7-4.6-1-9-2.6-13.6-3.9-5.7-1.6-11.6-2.9-17.2-4.9-5.4-2-11.3-2-16.5-4.5-1.4-.7-3.3-.4-4.8-1-1.4-.6-3-.2-4.1-.9-1.5-.9-3.3-.9-4.5-1.6-3.3-1.8-7-2.5-10.4-3.9-5.6-2.3-11.1-4.7-16.6-7.2-3.3-1.5-6.3-3.4-9.5-5.1-2.4-1.2-4.8-2.7-7.4-3.3-2.8-.6-4.9-2.3-7.5-3.2-4.6-1.6-8.8-4.5-13-7.2-3.5-2.2-7.2-3.9-11-5.3-.9-.3-1.8-.7-2.7-1.2-3.5-2-6.8-4.1-10.3-6-4.9-2.7-9.9-5.1-14.7-7.9-1.9-1.1-3.5-2.6-5-4.2-.5-.6-.4-2-.1-2.9.2-.6,3,0,3.7.6,3.6,3.3,7.6,6,12.3,7.2.5.1,1,.3,1.4.5,2,1.2,4.1,2.4,6.1,3.7,2.8,1.7,5.4,3.6,8.3,5,3.8,1.8,7.7,3.3,11.5,5.2,3.5,1.8,7.3,3.1,10.5,5.6.8.7,2,1,3,1.4,3.4,1.5,6.3,3.9,9.9,5.1,3.1,1.1,6.2,2.4,9.2,3.8,2.7,1.3,5.2,2.9,7.8,4.3.7.3,1.6,0,2.4-.1.6,0,1.5,0,1.7.4,1.5,3.2,4.7,3.3,7.4,4.2,1.5.5,2.9,1.3,4.4,1.9,1.5.6,2.9,1.4,4.4,1.9.3.1,1.1,0,1.3-.4,1.1-2.2,1.5.2,2.3.2-1.3,1.2,0,1,.6,1.1,3.9.5,6.9,3.4,10.6,4.2,6.6,1.5,13,3.8,19.9,4.5.7.2,1.1.6,1.6.6.6,0,1.3-.4,1.6-.8.8-1,1,0,1.4.3-.3.3-.6.6-.9.8-.3.2-.7.2-1,.4.3.2.6.4.9.4.9,0,1.8,0,2.7,0,.5,0,1.3-2.1,1.4.3,0,.5,1.2,1.4,1.7,1.3,4.7-.5,8.4,2.3,12.6,3.5,4.5,1.2,9,2.1,13.5,3,1.8.4,3.6,1.7,5.5.2,2.4.9,4.6,2.3,7.3,2.2,1.1,0,2.5.4,2.5-1.4.5,0,.9.2,1.2.4-.2.4-.2.7-.3.9.2-.2.3-.5.5-.7.5,0,1,0,1.5.3,1.1.5,2.1,1.4,3.3,1.6,3,.6,6,1.1,9,1.2,1.5,0,2.9-.8,4.3.8.5.5,2.4-.2,3.6-.5.5,0,2.4.6,3.1.9,1,.4,2.1,1.1,3,.9.5-.1,2.1.7,2-1,0,0,.6-.3.7-.2,1.7,2.3,3.4.9,5.1,0,.2-.1.6-.1.8,0,3.8,2.4,8.2,1.2,12.2,2.2,2.5.6,5.5,1.1,8.3-.2.8-.4,2,.2,3.1.3.5,0,1-.1,1.5-.2-.3-.4-.5-.7-.8-1.1-.2-.3-.3-.6-.5-.8.4,0,.8-.2,1.1-.1.7.3,1.3.7,1.7,1.3-.2.4-.2.7-.3.9.2-.2.3-.5.5-.7M830.5,263.7c0-.2,0-.5,0-.7-.2.2-.3.5-.9.7,0,.2,0,.5,0,.7.2-.2.3-.5.9-.7M788.9,344.5c-.1-.3-.3-.5-.4-1.2.8-1,1.8-1.9,2.4-3,1.9-3.7,3.7-7.5,5.5-11.3.2-.5.6-1,1-1.3,1.3-1,.2-3.4,2.3-4-.6-1.3-1-3-2-3.9-.6-.6-2.8-.5-3.3.1-1.5,1.8-3.4,1.1-5.1,1.3-1.4.1-2.8.5-4.2.5-1.3,0-2.9-.9-3.9-.5-3,1.1-5.8.6-8.7.4-1.2,0-2.5-.5-3.6-.3-3.6.6-7.1,1.9-10.7,0-.5-.3-2.1-1-2.5.9,0,.3-.9.7-1.1.6-.9-.4-1.7-1.2-2.6-1.5-.9-.2-2,.2-3,0-2.8-.5-5.7,1.2-8.4-.5,0,0-.2.3-.3.3-1.4-.6-2.9,1.1-3.2.9-3.1-2.5-7.2.2-10.2-2.3-2.8,1.5-5.3-.3-7.8-.5-2.5-.1-5.1-.9-7.7-.4-1.3.2-3,0-4-.8-1.4-1.1-2.6.9-4.1-.4-1.1-1-3.3-.7-5-1-1.1,2.3-2.8.6-4.3.7-1.4.1-3-1-4.2.8-.3.5-1.3.7-2,.7-2.5-.3-2.5-.3-3.4.5-.8.7-1.5,2-2.3,2-3,.1-5.6,1.3-8.2,2.6-3.6,1.7-7.7,2.1-10.9,4.7-.4.3-1.3.1-1.8.4-.3.1,1.2,1.8-.2,1.1-2.6-1.2-4.7.2-6.1,1.3-3.3,2.7-7.4,2.8-11,4.4-3.8,1.7-8.2,2.1-11.8,4.5-.8.5-2.1,1-3,.8-1.4-.5-1,1.3-2.3,1.4-2.9.2-5.9,1.2-8.6,2.3-3.9,1.6-5.2,2.1-9.2,2.4-.3,0-.5.7-.9.9-1.2.7-2.4,1.8-3.7,2-1.6.2-4,.2-5.4,1-3.1,1.8-6.6,2.2-9.9,3.2-2.5.8-5,1.5-7.4,2.4-.8.3-1.6,1.6-2,1.4-2-.8-3.4.6-5,1.2-1.9.7-3.6,2.3-5.6,2.8-2.5.7-5.1,1.2-7.3,2.7-.4.3-.9.6-1.4.5-4.5-.5-7.8,2.5-11.5,4.1-.4.2-.7.9-.8,1.4,0,.3.4.8.8,1,2.8.9,5.5,1.8,8.3,2.4,6.4,1.3,12.4,4.3,19.1,4.8,6.5.5,12.6,3.1,18.9,4.9,1.3.4,2.5,1.3,3.8,1.5,2.8.6,5.6.7,8.4,1.4,5.3,1.3,10.5,3,15.7,4.5,2.2.6,4.4.8,6.6,1.4,4.7,1.2,9.3,2.7,14.2,2.4,1.3,0,2.7-.1,3.9.2,2.8.7,5.6,1.4,8.6,1.4,2.7,0,5.5,0,8,.9,5.3,1.7,10.9,1.5,16.3,2.1,4.7.5,9.2,2.7,14.1,1.7,1.4,1.6,3.3.3,4.8.9,5.4,2.1,11,2.6,16.6,2.3,5.9-.3,11.6,2.9,17.5.8,2,1.1,4,.9,6.2,0,1.4-.5,3.2.6,4.5-.8,0-.1,1,.2,1.1.5.4,1.1,1.5,2.2-.2,3.2-.2.1-.2.5-.3.8.3,0,.6.2.7,0,.7-.4,1.6-.7,2.1-1.3,1.7-2,3.2-4.2,4.9-6.3.9-1,2.2-1.7,3.1-2.7.9-1,1.3-2.5,2.3-3.4.7-.7.6-2.7,2.5-1.8-.1-2.7,3.2-3.5,3.4-6.2,0-.5,1.2-1.3,1.9-1.4,1-.2,1.7-.6,1-1.4-1.5-1.7.1-3.1.8-3.5,3.1-1.8,2.9-5.8,5.8-7.6.2-4.2,3.9-6.7,5.2-10.2.8-2.2,3.8-3.5,2.8-6.4-.8-2.3.9-3.9,2-5.1.7-.8,1-1.4,1.3-2.3.6-1.8,1.5-3.5,2.3-4.8.3-.1.5-.3,1.2-.4M741.7,412.6l-5.2.4c-1.1,0-2.2,0-3.2.1-1.4,0-3,.7-4.2.2-3.5-1.4-7-1.6-10.6-1.5-1.7,0-3.4.5-5.1.3-2.4-.2-5.1-.1-7-1.3-2-1.3-4.3,1-5.8-1.1-3.9.1-7.4-1.4-11.1-2.2-1.2-.2-2.5-.6-3.6-.3-2.9.7-5.3-1.3-8.2-1.2-1.6,0-3.8,1-4.8,0-1.3-1.4-2.4-.9-3.6-.6-2.1.5-3.5-1.7-5.7-1.2-1.3.3-3.2.5-4-.2-1.5-1.3-3-1.2-4.4-.9-2.8.6-5.3-.3-7.9-.7-2.8-.4-5.6-.8-8.4-1.5-2.4-.6-5-.4-7.6-.9-4.2-.8-8.2-2.1-12.2-3.4-2-.7-4.2-1.1-6.3-1.6-1.5-.3-3-.5-4.5-.8-3.3-.7-6.9-1-9.9-2.5-2.6-1.3-5.7-1.1-8-3.1-.6-.5-1.7-.4-2.4-.9-.9-.6-1.3,1-2.7.2-1.8-1-4.3-.4-6.3-1.1-1.8-.6-3.3-1.9-5.3-1.9-1,0-2.7.5-2.9.1-1.4-2.4-4.2-.3-5.6-2.1-2.5,1-3.9-1.5-6.1-1.7-1.7-.1-4-1.9-4.8-1.3-2.4,1.9-2.8-1.7-4.8-1.2-1.1.3-2.9-1-4.4-1.5-2.7-1-6-.2-8.1-2.7,0-.1-.6,0-.7.1-.3.3-.5.7-.8,1.1-.3-.3-.5-.7-.9-.9-.5-.3-1.1-.7-1.6-.6-1.8.4-3.7.8-5.3,1.7-1.1.7-3.1.2-3.4,2.2-1.7-1.6-2.4.8-3.8.9-4.3.3-8.2,2.2-11.9,4.1-2.5,1.2-4.5,3.2-7.6,3.1-.3,0-.8.2-1,.5-1.4,2.2-3.5,2-5.6,1.9-1.2,0-2.2.4-2.3,1.6-.1,1.9-.5,2.2-2,.9-.4-.3-1.6.3-2.4.6-3.5,1.6-6.9,3.2-10.4,4.8-.9.4-2.1.3-3,.7-2,.8-3.8,1.8-5.8,2.5-2,.7-3.3,2.8-5.7,2.6-1.1,0-2.3.2-3.3.7-.7.4-1.8,1.8-1.7,1.9,1.4,1.7.4,3.6.6,5.4.2,1.6-1.7,4.3-3,4.6-1.8.4-2.5-1.2-3.5-2.1-.5-.5-.7-1.3-1.2-1.9-.2-.3-.7-.3-1.1-.4-.5,2.7-1.4.9-2.2.2-1.6-1.5-3.6-1.9-5.4-1.3-3.5,1.2-6.7,3-10.2,4.4-.9.4-1.9,2.2-3.3.6-.1-.2-1.3.7-2,1,.5.7.9,1.5,1.5,1.9,2.1,1.3,4.3,2.5,6.5,3.7,2.1,1.1,2.5,3.6,5.5,4.3,3.2.8,5.8,3.9,8.7,5.9,2,1.4,3.7,3.4,5.9,4.1,2.1.7,3.9,1.6,5.7,2.7,4.6,2.6,9.4,5,14,7.7,8.7,5.1,17.2,10.4,27,13.2,3,.9,5.7,2.9,8.7,3.2,3.8.3,6.7,3.6,10.7,2.7,1.4,2.2,5,.9,6.1,3.7,0,.1.5.3.7.2,2.3-1,3.2.3,4.1,2.1.2.5,1.5,1.2,1.8,1,2.9-2,4.3.3,5.9,1.9.5.5.6.9.8,0,.2-.8,0-1.2,1.1-.5,1.1.8,2.4,1.3,3.6,1.8,1.4.5,2.8.9,4.3,1.3,1.3.4,2.6.8,3.9,1.1,1.5.3,2.7.7,3.6,2.2.3.4,2.5-.4,3.8-.5.3,0,.6.5.9.7,1.4.6,2.7,1.5,4.1,1.6,4.7.4,9,2.3,13.5,3.3,1.5.3,3.8.3,4.2,1.2,1.1,2.2,2.7.8,3.9,1.2.5.2.9.4,1.4.6,1.1.4,2.1.8,3.2,1,.9.2,2-.2,2.7.2,4,2.2,8.4,3,12.8,3.9.8.2,1.8.3,2.5.7.8.5,1.2,1.4,1.9,2,.3.2.9,0,1.4-.1-1.2-1.1,0-1.3.6-1,2.3,1,5,.8,7,1.7,3.6,1.8,7.7,2.1,11.2,3.8,2.3,1.1,4.7,2.1,7.2,3,1,.4,2,2.8,3.4.3.1-.2,1.2.2,1.8.2.6,0,1.5.2,1.9,0,1.3-.9,3.6-.3,4.1-2.5,3.3-.9,6.5-2.1,8-5.6,5.2-2.8,8.8-7.5,13.4-11,.9-.7,2-1.2,2.8-2,5.5-5.6,11.8-10.2,17.7-15.1.4-.3.7-.8,1-1.2,2-2,3.6-4.4,5.9-5.8,4.8-2.9,8.1-7.6,12.7-10.6,1.3-.9,2-2.7,3.2-3.8,3.6-3.4,7.3-6.8,10.9-10.2-.5-2.2,1.8-.8,2.6-2,3.2-5,7-9.6,11.5-13.7,1.3-1.2,1.5-3.8,4.1-3.4,0,0,.3-.8.2-1-.6-1-1.3-1.9-2.7-2.8M817.3,281.7c-.2-.9.8-2.6-1.7-1.6-3.4,1.3-6.9,2.2-10.4,2.8-6,.9-11.6,3.2-17.5,4.5-4.5,1-8.5,3.8-13.3,3.6-.3,0-.7.2-1.1.3-2,.7-4,1.4-6,2-1.9.5-3.4,3.3-5.7,1,0,0-.2.2-.3.3-.9,1.9-3.5.8-4.4,2.1-1.3,2-3.2.9-4.8,1.5-2.6,1-5.1,2.7-8.2,2.6-1.4,0-3.5.3-4.2,1.3-.8,1-.9,1.3-1.9.5-.3-.2-1.1,0-1.6.2-2.6.9-5.1,1.8-7.7,2.6-3.2,1-6.6,1.3-9.8,2.4-1.6.6-3.3,1.2-4.7,2.1-.7.5-1,1.6-1.5,2.4.8.4,1.6,1,2.3,1,5.2.2,10.3.7,15.3,2.1.2,0,.6-.2.8-.2,4.8,0,9.6-.7,14.3-.1,6,.8,11.9,1,17.9,1.4,2.3.1,4.7-.7,7-.7,2.4,0,4.8.7,7.3.7,2,0,4-.7,6.1-.7,4.1,0,8.1-.8,12.1-1.6,1.5-.3,3.3-.3,4.7.2,2.8,1,2.8,1.2,4.2-1.1,1.1-1.8,2.1-3.7,3.2-5.5,1.1-1.8,1-4,3.1-5.6,1.4-1,2.2-3.4,2.4-5.3.3-3.6,2.8-6.5,3-10.1,0-.5.4-1.3.9-1.5,1.8-.9,1.4-1.8.3-3.6M829.7,266.9c0-.4.2-.9.3-1.3-.6.2-1.4.2-1.8.6-.3.2,0,1,0,1.5.3-.3.5-.5,1.6-.8M648.8,510.2c-.2,1.7.9,1.6,2,1.6.2,0,.4-.2.7-.2-.2-.3-.3-.6-.6-.8-.4-.3-.9-.4-2.1-.5M445.5,435.8c.5.3,1.1.5,1.6.8-.2-.5-.4-1-.7-1.4-.2-.3-.5-.6-.8-.8-.2.4-.4.7-.1,1.5M853.3,203.3c0-.4-.2-.7-.3-1.1-.2.2-.5.6-.5.6.3.4-.8,1.7.8.4M822.9,280.9c.5,0,1,0,1.5,0-.1-.4-.2-.8-.4-1.2-.3.3-.5.5-1.2,1.2M786.5,357.3c-.1.4-.2.8-.3,1.3,0,0,.3,0,.5.1,0-.3.1-.7-.2-1.4M811.7,312.1c0-.3-.1-.7-.2-1-.2,0-.5.1-.5.1,0,.4.2.9.7.9M436.3,428.2c-.4-.1-.8-.2-1.3-.3,0,0,0,.3-.1.5.3,0,.7.1,1.4-.2M839.3,242.9c.1-.4.2-.8.3-1.3,0,0-.3,0-.5-.1,0,.3-.1.7.2,1.4M752.1,411.8c-.1.2-.2.3-.3.5.2,0,.5,0,.3-.5M421.5,419.8c.1-.2.2-.3.3-.5-.2,0-.5,0-.3.5M542.4,373.4c-.1.2-.2.3-.3.5.2,0,.5,0,.3-.5M386.3,388.6c-.1.2-.2.3-.3.5.2,0,.5,0,.3-.5M560,480.6c.1-.2.2-.3.3-.5-.2,0-.5,0-.3.5M819.3,275.7c-.1.2-.2.3-.3.5.2,0,.5,0,.3-.5Z"/>
      <path d="M258.8,498c-.5-1.3-.8-2.4-1-3.5-.6-3-.4-3.4,2.1-4.3,4.2-1.6,6.5-2,11.3-1.5,1,0,2.5.8,2.8,1.6,1.1,2.6,2.8,5.2,2.1,8.3-.3,1.5-.6,2.5-2.5,1.6-1.8-.8-3.5-.8-4.9,1-.9,1.2-1.9,1.5-3.3.5-.9-.7-2.4-1-3.6-.9-2,.1-2.3-1.3-3.1-2.7Z"/>
      <path d="M592.2,584.9c2,1.7,2.3,3.6,1.9,5.7,0,.1-.1.3,0,.4,1.3,3.6-.9,5.1-3.6,6.6-3.1,1.7-8.1,0-9.1-3.5,1.8-2-.6-4.3.5-6.6,1.4-2.8,1.9-3.7,4.8-3.5,1.8.1,3.7-.9,5.5,1Z"/>
      <path d="M499,523.2c.3-.9.7-1.8.6-2.4-.9-2.9,2.9-2.8,3-5,.3.1.7.3,1,.4-1.3,1.3-.6,1.6.6.9,1.4-.8,2.2-.8,2.6.6.2.8.5,1.9,1.3,1.2,1.6-1.4,1.6,0,2.3.8,1.8,2,2.1,4.3,2.1,6.7,0,2.6-2.9,4.7-5.3,3.7-1.4-.6-2.5-2.2-4.3-.7-1.1-1.4-2.2-2.9-3.3-4.3-.4-.5-.5-1.1-.6-1.9Z"/>
      <path d="M386.7,449.4c-.4,1.3-.6,2.3-1.2,3.1-2.2,3.1-5.6,2.9-7.6-.4-.8-1.3-.8-3-2.8-3.7-.5-.2-.6-3,0-4.3.4-1.2,1.8-2.3,3.5-1.9,1.3.3,2.8.4,4,.9.7.3,1.3,1.1,1.7,1.8.9,1.4,1.6,2.8,2.4,4.6Z"/>
      <path d="M753.3,454.4c2.5-.1,3.5,2,4.7,3.6.6.8.8,3-.8,3.9-1.2.6-2.4,2.1-4.1.6-.8-.7-1.9-1.2-2.8-1.9-2.4-1.6-2.4-1.5,0-3.2.9-.7,1.7-1.6,2.7-2.2.4.2.7.2.9.3-.2-.2-.5-.3-.7-.5v-.6Z"/>
      <path d="M585.4,528c1.9-.1,2.7,2.1,4.7,1.5.2,0,1.4,1.7,1.4,2.6,0,1.3-.7,2.6-1.3,3.8-.8,1.5-2.4,2-3.7,1.4-1.2-.7-1.9-2.2-2.9-3.4.9-.6,2.4-.9.8-2.6-.4-.4.4-2.1.9-3.3Z"/>
      <path d="M664.6,162.8c-1.2-.5-2.2-1.1-3.3-1.6-.3-.2-.6-.3-.9-.4.3-.1.7-.4,1-.3,1.2.2,2.4.5,3.6.8.8.2.8.3-.5,1.6Z"/>
      <path d="M648.4,157.4c1.2-.2,2.3-.2,3.5-.2.2,0,.5.5.5.8,0,.3-.4.7-.6.7-1.3.2-2.5.1-3.4-1.4Z"/>
      <path d="M673.2,102.6c-.5.2-1.1.3-1.6.2-1.1-.3-2.1-.7-3.1-1.1.8,0,1.5-.1,2.3-.1.2,0,.4.3.6.4.6.2,1.2.3,1.8.6Z"/>
      <path d="M645.2,96.4c-.3-.4-.2-.9-.1-1.3.4.2.9.3,1.3.5.6.4,1.2.9,1.9,1.3-.8-.2-1.5-.4-2.3-.5-.1,0-.3,0-.8,0Z"/>
      <path d="M643,157c.1-.6.5-1.4.8-1.3.7,0,1.3.5,2,.7.3.1.7.2,1,.3-.4.2-.8.4-1.2.4-.8,0-1.5,0-2.5-.2Z"/>
      <path d="M752.7,115.8c.3-.2.5-.2.6-.2,1.2,0,2.4-.1,3.1,1.1-.4.1-.8.4-1.2.4-.6-.1-1.1-.4-1.7-.7-.3-.1-.7-.3-.8-.6Z"/>
      <path d="M705.9,109.8c-1.1-.3-2.9,1.2-2.9-.7,0-1,1.6.6,2.5,0,0,0,.4.2.4.6Z"/>
      <path d="M658,160.4c-.8-.3-1.2-.7-1.6-1,.3,0,.6,0,.9,0,.6,0,1.2.1,1.8.3.1,0,.2.3.3.5-.4,0-.7.2-1.5.3Z"/>
      <path d="M681.5,104.6c.6-.1,1-.1,1.3.1.3.3.5.7.7,1.1-.5,0-.9,0-1.3-.2-.3-.1-.6-.5-.7-1Z"/>
      <path d="M726.7,112.6c0,.6-.1.9-.3,1.3-.6-.4-1.1-.9-1.7-1.3.6,0,1.2-.1,2,0Z"/>
      <path d="M765.5,117.8c.4-.3,1-.6,1.5-.5.3,0,.5.7.7,1-.4,0-.8-.2-1.2-.3-.2,0-.5,0-1-.2Z"/>
      <path d="M769.3,178c.8,0,1.1.2,1.5.3,0,.2-.2.5-.3.5-.6,0-1.2-.1-1.8-.2,0,0,0-.2,0-.3,0-.1.2-.2.7-.3Z"/>
      <path d="M611.6,144.2c-.5,0-1.1-.4-1.6-.7,0,0,.2-.4.3-.6.4.4.9.7,1.3,1.3Z"/>
      <path d="M633.4,92.2c.3-.2.8-.2,1.3-.3-.1.4-.2.8-.4,1.2-.3-.3-.5-.5-1-1Z"/>
      <path d="M737.3,114.8c-.8,0-1.1-.2-1.5-.3,0-.2.2-.5.3-.5.6,0,1.2.1,1.8.2,0,0,0,.2,0,.3,0,.1-.2.2-.7.3Z"/>
      <path d="M733.9,114.2c-.2.3-.7.5-1.1.6-.3,0-.7-.2-1-.3.4-.2.8-.3,1.2-.5.2,0,.5,0,1,.2Z"/>
      <path d="M567.6,278.1c-.6,1.4-1.5.8-2.2.2.9-.2,1.5-.2,2.2-.2Z"/>
      <path d="M686.9,106c.9,1.6-.4.5-.8.8,0,0-.4-.3-.6-.5.4,0,.7-.2,1.5-.3Z"/>
      <path d="M606.8,141.8c-.5,0-1.1,0-1.6-.4.5,0,1.1,0,1.6.4Z"/>
      <path d="M606.8,142.2c.5-.1.9,0,1.4,0,0,.2,0,.3-.1.5-.4-.1-.9-.2-1.3-.5Z"/>
      <path d="M759.5,178.6c-.3-.2-.4-.6-.5-1.1,0,0,.3,0,.5-.1,0,.3.1.7,0,1.2Z"/>
      <path d="M595.6,136.4c-.3-.3-.1-.5,0-.8.1.3.3.5,0,.8Z"/>
      <path d="M743.1,177.4c.5-.1.9,0,1.2,0,0,.2-.1.5-.1.5-.4,0-.9-.2-1.1-.5Z"/>
      <path d="M583.6,536.6c-.3.3-.5.1-.8,0,.3-.1.5-.3.8,0Z"/>
      <path d="M531.6,84.2c-.5.1-.9,0-1.4,0,0-.2,0-.3.1-.5.4.1.9.2,1.3.5Z"/>
      <path d="M650,97.2c.3-.3.5-.1.8,0-.3.1-.5.3-.8,0Z"/>
      <path d="M659,99c.5-.1.9,0,1.2,0,0,.2-.1.5-.1.5-.4,0-.9-.2-1.1-.5Z"/>
      <path d="M445.9,136.2c-.2-.2-.5-.6-.7-1.1.2,0,.3-.1.5-.2,0,.3.1.7.2,1.2Z"/>
      <path d="M712.7,173.4c.5-.1.9,0,1.2,0,0,.2-.1.5-.1.5-.4,0-.9-.2-1.1-.5Z"/>
      <path d="M685.9,167.4c-.5.1-.9,0-1.2,0,0-.2.1-.5.1-.5.4,0,.9.2,1.1.5Z"/>
      <path d="M710.9,111c.5-.1.9,0,1.4,0,0,.2,0,.3-.1.5-.4-.1-.9-.2-1.3-.5Z"/>
      <path d="M692.5,169.4c.5-.1.9,0,1.4,0,0,.2,0,.3-.1.5-.4-.1-.9-.2-1.3-.5Z"/>
      <path d="M705.3,172.2c-.5.1-.9,0-1.4,0,0-.2,0-.3.1-.5.4.1.9.2,1.3.5Z"/>
      <path d="M753.3,454c-.5.1-.9,0-1.4,0,0-.2,0-.3.1-.5.4.1.9.2,1.3.5Z"/>
      <path d="M699.1,108.6c.2,0,.3.3.3.5-.2-.1-.3-.2-.3-.5Z"/>
      <path d="M693.5,108.2c0-.2.3-.3.5-.3-.1.2-.2.3-.5.3Z"/>
      <path d="M710.9,110.6c-.2,0-.5-.1-.7-.3.2,0,.5,0,.7.3Z"/>
      <path d="M692.5,169c-.2,0-.5-.1-.7-.3.2,0,.5,0,.7.3Z"/>
      <path d="M677.4,165c0-.2.3-.3.5-.3-.1.2-.2.3-.5.3Z"/>
      <path d="M673.2,103c.2,0,.5.1.7.3-.2,0-.5,0-.7-.3Z"/>
      <path d="M714.3,111c.2,0,.3.3.3.5-.2-.1-.3-.2-.3-.5Z"/>
      <path d="M727.1,175c.2,0,.3.3.3.5-.2-.1-.3-.2-.3-.5Z"/>
      <path d="M655.8,98.6c0-.2.3-.3.5-.3-.1.2-.2.3-.5.3Z"/>
      <path d="M648.4,157c-.2,0-.5-.1-.7-.3.2,0,.5,0,.7.3Z"/>
      <path d="M748.7,116.2c0-.2.3-.3.5-.3-.1.2-.2.3-.5.3Z"/>
      <path d="M751.5,463.6c-.2,0-.3-.3-.3-.5.2.1.3.2.3.5Z"/>
      <path d="M637,92.6c0,.2-.3.3-.5.3.1-.2.2-.3.5-.3Z"/>
      <path d="M550.6,113.4c0,.2-.3.3-.5.3.1-.2.2-.3.5-.3Z"/>
      <path d="M605.2,141c-.2,0-.5-.1-.7-.3.2,0,.5,0,.7.3Z"/>
      <path d="M772.3,179c0,.2-.3.3-.5.3.1-.2.2-.3.5-.3Z"/>
      <path d="M601.4,81c0-.2.3-.3.5-.3-.1.2-.2.3-.5.3Z"/>
      <path d="M805.1,119.6c0,.2-.1.5-.3.7,0-.2,0-.5.3-.7Z"/>
      <path d="M805.5,119.6c0-.2.1-.5.3-.7,0,.2,0,.5-.3.7Z"/>
      <path d="M870,132.6c0,.2-.3.3-.5.3.1-.2.2-.3.5-.3Z"/>
      <path d="M613,474.8c-.3.1-.4,0-.5,0-1.1,0-2.2-.1-3.2-.2.9.4,1.7.8,2.6,1.1.5.2,1,0,1.5.2.5,0,1,.3,1.4.4-.5.4-1.1,1.2-1.5,1.1-1.8-.4-3.6-.9-5.3-1.6-.3-.1-.4-.9-.4-1.4,0-.5.7-1.1.6-1.3-3.5-4,1.9-3.9,2.7-5.8,0-.2.7-.2,1-.3-.1.4-.3.8-.3,1.1,0,.4.3.9.4,1.3.4-.2.9-.4,1.1-.7.6-1.6,1.8-1.1,2.3-.4.6.8.5,2.2,2.1,1.2.1.7.6,1.6.3,2-1.2,1.5-2.6,2.9-4.8,3.3Z"/>
      <path d="M588.4,430.4c2.7,1.7.9,4.1.4,6-.3,1.1-1.9,1.5-3.6,1.1-1.9-.4-2.8-1.6-3.6-2.8-.8-1.1-.9-2.8-1.1-4.3,0-.9,2.7-1.6,2.8-.9.4,2.2,2.5,1.3,3.5,2.3,1.9,1.8,1.4-.5,1.5-1.6Z"/>
      <path d="M588.4,430c-.2-.2-.5-.6-.7-1.1.2,0,.3-.1.5-.2,0,.3.1.7.2,1.2Z"/>
      <path d="M648.2,498.4c0,.2-.3.3-.5.3.1-.2.2-.3.5-.3Z"/>
      <path d="M581.2,437.6c.2,0,.5.1.7.3-.2,0-.5,0-.7-.3Z"/>
      <path d="M581.2,437.2c-.3,0-.5,0-.8-.4.3,0,.5,0,.8.4Z"/>
      <path d="M579.6,436c.3,0,.5,0,.8.4-.3,0-.5,0-.8-.4Z"/>
      <path d="M579.6,435.6c-.2,0-.5-.1-.7-.3.2,0,.5,0,.7.3Z"/>
      <path d="M788.3,343.7c.2,0,.2.4.2.6s-.4.2-.6.2c0-.3,0-.5.4-.8Z"/>
      <g id="TbcFSs">
        <image id="TbcFSs-2" data-name="TbcFSs" width="470" height="242" transform="translate(191.8 11.6) scale(.5)" xlink:href="pdp_1-1.png"/>
      </g>
      <g id="xgjwuG">
        <image id="xgjwuG-2" data-name="xgjwuG" width="1806" height="250" transform="translate(354.1 597.5) scale(.3)" xlink:href="pdp_1-2.png"/>
      </g>
      <g id="_x31_qV5Tq">
        <image id="_x31_qV5Tq-2" data-name="_x31_qV5Tq" width="228" height="240" transform="translate(10 495.4) scale(.4)" xlink:href="pdp_1-3.png"/>
      </g>
    </g>
  </g>
</svg>