<?xml version="1.0" encoding="UTF-8"?>
<svg xmlns="http://www.w3.org/2000/svg" xmlns:xlink="http://www.w3.org/1999/xlink" version="1.1" viewBox="0 0 1322.1 829.5">
  <defs>
    <style>
      .cls-1 {
        opacity: .3;
      }
    </style>
  </defs>
  <!-- Generator: Adobe Illustrator 28.7.3, SVG Export Plug-In . SVG Version: 1.2.0 Build 164)  -->
  <g>
    <g id="Contours">
      <path d="M913.9,220.5c1.1.3,2.4.3,3.4.8,2.7,1.4,5.1,3.2,7.8,4.4,1.4.6,3.1-2,4.9.5.9,1.3,3,1.9,4.7,2.7,1.6.8,3.4,1.8,5.1,1.8,4.6,0,7.5,4.6,12.4,4.1,1.6-.2,3.6,1.7,5.1,3,1.7,1.5,3.3,2.4,5.6,2.2.5,0,1.5.9,1.5,1.4,0,3,3,1.8,3,1.3.3-2.5,1.3-1,2.2-.6,3.2,1.5,6.3,2.8,9.5,4.4.7.4,1.2,1.3,1.8,1.8,1.1.9,2.3,3.2,3-.3,0-.3.9-.6,1.3-.5,1.5.4,2.3,3.8,4.6,1.1.2.5.3.9.5,1.4,1,2.6,2.9,3.1,5.4,1.3,1.2-.8,5.6.2,6.2,2.1.7,2.2,1.2.7,2.1.7,3.3,0,6.6.3,10,.7-1.1.3-2.2.2-3.2.3-.7,0-1.3.5-1.9.7.7.5,1.4,1.3,2.1,1.3,3.1.1,6.1,0,9.2-1.1,6.6-2.4,12.5-6.3,18.8-9.2,3.3-1.5,6.9-2.5,10.3-3.6,2.4-.8,4.2-2.8,7-3.1,1.5-.2,3-2.1,4.4-2,4.3.3,7.4-2.3,11-3.6,2.4-.9,4.7-2.3,7.4-1,3.1,1.5,3.4,2.2.6,3.7-5.4,3-10.9,5.7-16.5,8.1-7.3,3.1-14.8,5.8-22.2,8.7-.6.2-1.2.7-1.7,1.1-1.6,1.1-3.2,2.2-4.7,3.3,1.6,2,4,1.2,5.8.9,3.7-.7,7.3.5,11,.2,1.7-.1,1.6,0,3.8-.6.9-.3,2.1.5,3.1.5,8.3.4,16.6.3,24.8,1.3,3.7.5,7.4.2,11.1.6,3.1.3,6.4.2,9.5,0,2.3-.1,4.6.2,6.6.5,2.5.4,4.8-.2,7.2.2,3.1.6,6.3.5,9.4.6,3,0,6.2.4,9.1,0,5.7-.8,11.3-2.2,17-3.1,2.8-.4,5.7-.2,8.6,0,4.5.2,8.9-1.4,13.2-1.7,4.4-.3,8.6-1.7,13.1-1.8,4.3-.1,8.9,0,13.1-1.8,1.2-.5,2.8-.2,4.3,0,1.3.1,3.2.1,3.8.9,1,1.2,1.2,3.1,1.6,4.7,0,.2-.3.8-.6.8-1.8.4-3.6.8-5.5,1.1-10,1.7-20.1,2.1-30,4.1-4,.8-8.4,1.1-12.7.4-2.4-.4-5.3,0-7.6,1.1-4.5,1.9-9.8-.3-13.8,3.1-4.6-1-9.3,1.4-13.8-.8-.6-.3-1.4-.3-2.1-.2-1.5.3-2.9.9-4.4,1-1.7,0-3.4-.4-5.1-.6-1.3-.2-2.6,1.7-3.8-.4-.7-1.2-1.8,2.2-2.9.2-3.5,2.1-6.9-.3-10.3-.2-3.8.1-7.5,0-11.3,0-5.5,0-11-.8-16.3-2.1-3,2-6.5-1.6-9.5.9-.4.4-1.4.3-2.1.1-7.1-2.1-14.4-.5-21.6-1.1-4.2-.3-8.4-.8-12.7-1-5.7-.3-10.7.8-15.2,4.9-3.1,2.9-7.4,4.5-11.1,6.9-6.1,4-12.7,6.5-19.5,8.9-4.7,1.6-9.5,3.2-13.9,5.4-7.4,3.6-15.3,5.6-22.9,8.4-7.5,2.7-14.8,5.9-21.6,10.2-2.4,1.5-5.1,2.4-7.5,3.9-2.2,1.3-4.1,3.1-6.2,4.5-1.3,1-1.2,1.8,0,2.7l5.2,2c4.8.4,9,2.4,13.5,3.8.8.3,2,.7,2.5.3,1.8-1.1,3-.3,4.1,1,1.1,1.3,2.6,1.5,4,2.1,2.4,1,5.1,1.2,7.3,3.5,1.6,1.6,4.8,1.6,7.3,3,2.6,1.5,6.1,1.4,9.2,1.9,3.5.6,6.2,2.4,9.1,4.4,2.4,1.6,5.4,2.5,8.3,3.1,2.7.5,5.5.6,7.9,2.2,1,.7,2.1,2,3.5.2.4-.5,2-.5,2.5-.1,2.9,2.2,6.4,2.8,9.8,3.8,1.5.4,2.9,1.5,4.7,1.6,1.1,0,2.5.4,3.3,1.1,5.5,4.9,10.8,1.5,16.3,0,5.7-1.4,11-4,17-4.6,3.2-.3,6.2-2.4,9.3-3.4,7-2.2,14.1-4.2,21.2-6.1,7.6-2,15.3-3.7,22.9-5.7,6.6-1.8,13.2-3.7,19.9-5.4,5.9-1.5,11.8-3.7,17.7-5.2,4.4-1.1,8.6-3.1,13.3-3.1,1.5,0,3.2-.3,4.4-1.1,4.8-3,10.3-3.2,15.5-4,6.9-1.1,13.2-4,20-5,4.4-.7,6.3-3.1,7.8-6.8,4.4-10.2,9-20.3,13.6-30.4,1.5-3.4,2.6-6.8,3.4-10.5,1.2-5.6,3.7-11,5.7-16.4,1.7-4.3,4.3-8.3,4.9-13.1.2-1.7,1.2-3.6,2.4-4.9,4-4.2,4.4-9.4,5.1-14.6.1-1.1.6-2.3.9-3.4,1.9-5.7,3.5-11.4,3.3-17.5,0-3.2-.4-3.2-3.8-2.7-6,.9-11.8,2.8-18,2.3-3.2-.3-6.5.9-9.8.9-3.3,0-6.5-.6-9.8-1-3.1-.3-6.3.9-9.3-1.1-.2-.2-.7,0-1.1,0-9.5-.4-19-1.4-28.5-.9-7,.4-14.1,1-21.1.8-5.6-.1-11.3-.2-16.8-1.2-3.3-.6-6.5-.7-9.8-.9-7.9-.6-15.9-.2-23.7-3.1-3.3-1.2-7.3-.5-10.8-1.3-7.1-1.6-14.4-1.8-21.5-4-4.1-1.3-8.7-1.4-13.1-2.2-7-1.3-13.8-2.9-20.3-5.6-7.2-2.9-14.7-4.3-22.1-6.5-4.1-1.2-8.1-3-12.2-4.2-6.4-1.9-12.8-4.2-19.4-5.2-6.3-1-11.8-3.8-17.5-6-10.8-4.2-21.4-8.9-32-13.7-4.5-2.1-8.9-4.8-13-7.5-6.3-4.2-13.3-7-20.1-10.1-5.3-2.5-9.7-6.1-14.6-9-6-3.5-12.3-6.6-18.6-9.5-2.1-1-4-2.5-6-3.7-7.9-4.4-15.7-8.8-23.7-13-4.8-2.6-8.6-6.2-11.6-10.7-.5-.7-.4-1.9-.5-2.9.8-.1,2.2-.7,2.5-.3,1.3,1.6,2.4.1,3.5.1,2.3,0,4.4,1.5,5.6,3.7-.5.1-1,.3-1.7.1-.9-.8-1.4-1.2-2-1.7-.1.3-.4.8-.4.8.7.4,1.4.8,2.1,1.2,1.3,1.1,2.5,2.2,4,3.5.6.3.9.3,1.3.3-.3-.2-.7-.4-1-.6.6-.3,1.7-.9,1.7-.9,1.2,1.7,4.4.7,4.8,3.5.5-.1,1-.2,1.5-.4,1.4-.4,1.9,0,1.5,1.7-.3.6-.3.9-.3,1.3.2-.3.4-.7.6-1,1.6.4,3.4.4,4.9,1.2,3,1.5,5.7,3.6,8.6,5.2,4,2.3,8.2,4.4,12.3,6.5.4.2.7.4,1,.7-.5.1-1,.4-1.4.4-1.2-.1-2.5-.4-3.7-.6,1.3.6,2.5,1.2,3.8,1.9,2.5,1.4,4.9,2.8,7.7,4.4.8.4,1.4.6,2,.7,0-.2.1-.5.2-.7l-1.9-.3c-1.5-1.3-3-2.6-4.5-4-.3-.3-.4-.7-.6-1.1.5,0,1.1-.3,1.4-.2,2.4,1.2,4.9,2.2,7,3.8,5.8,4.4,12.8,7.1,18.1,12.4,1.8,1.8,5.2,2,7.8,3.1,4,1.7,7.9,3.5,11.8,5.4.9.4.6.5.5,2.3,0,.6,1.7,2,2,1.8,4.7-2.5,7,1.4,10.2,3.3,2.5,1.6,5.5,2.2,8.3,3.3,1.5.6,3.5,1.1,4.3,2.4,1,1.6,4.2-.6,3.8,2.5,3.4-1.1,5.1,2.9,8.1,2.7,2.1-.1,1.5.7.5,1.6,1.2.5,2.5,1.1,4,1.9.6.3.9.3,1.3.3-.3-.2-.7-.4-1-.6.3-.4.8-1,.8-1,4.1,3,10.1,2.4,13,7.7.9,1.7,3.9,1.7,4.3.1.9-3.4,1.8.9,2.4-.3,2.1,1.8-.7.7-.7,1.2,0,.3.1.9.3.9,4.8,1.4,9.7,2.7,14.5,4,.2,0,.6-.3.9-.6q1.4-1.2,2.2-.2c1.9,2.4,3.7,2.6,7,2.3,2.5-.2,5.1.6,7.6,1.1.2,0,.2,1.3.2,2,.7-.4,1.5-.9,2.3-1,4-.6,7.9.5,10.3,3.4,1.5,1.9,3.5,2.3,5,3.5.4.3,1.2.2,1.8.3-.3-.5-.6-1-1-1.5-.2-.4-.5-.8-.7-1.1.5,0,1.3-.4,1.4-.2,1.5,2.5,4.7,2.7,6.6,5.1,1.5,1.9,5.1,2.2,7.7.8,1.5-.7,2.1-1.2,2.4.9,0,.3,1.5.5,2.2.7,1,.2,2.1.2,3,.6,1.8.6,3.2,2.4,5.4.6.5-.4,2.4.3,3.2,1,3.1,3.1,6.9,2.1,10.5,2,2.6,0,5.1,1.2,7.7.1.6-.2,1.9.1,2.3.6,2.6,2.8,5.9,2.5,9.2,2.6,2.3,0,4.9-1,7,1.4.5.6,3,.2,4-.5,1.6-1.1,3.4-.4,3.9.2,2.5,3.2,5.9,2.2,8.8,1.7,1.7-.3,3.2,0,4.8.3,2.9.5,5.8.8,8.7,1.1,3.4.4,6.9.7,10.3,1.1,1.8.2,13.5-.4,15.5-.6,1.2-.2,2.4.5,3.7.6,5.6.4,11.1-.4,16.6-1.5.7-.1,1.9-.4,2.2,0,2.1,2.7,5.5,2.2,7.4,1.3,4-1.8,7.3.2,10.9.7.6,0,1.2.6,1.9.6,10.8.4,21.6,1,32.4,1,3.6,0,7.4-.5,11-2.3,2.2-1.1,5.2-1.1,7.7-.7,2.7.4,3.8-1.3,4-2.8.5-3.4,3.4-6.2,2.3-9.9,3.2-5.1,3-11.3,4.8-16.8,2.8-8.5,6.4-17,7.1-26.2.2-2.4.9-4.7,1-7.1.1-2.6-1.1-3.9-3.8-4.1-2.1-.2-4.3.2-6.5,0-3.9-.5-7.7-1.7-11.6-1.8-7-.2-14-3.2-21.1-.4-1.6.6-3.6-.2-5.3.2-1.4.4-2.6-2.1-4-.1-1.7-2-4-.8-6-1-5.2-.5-10.5-1-15.7-1-2.7,0-5.5-.1-8.3,0-3.1,0-6.2.5-9.1,0-6.3-1.2-12.7-.3-18.9-1.2-3.8-.6-7.7-.4-11.4-.9-5.9-.8-11.7-2.1-17.6-3-5.6-.9-11.3-1.1-16.8-2.4-6.2-1.5-12.7,0-18.7-2.8-2.4-1.1-5.3-1.1-8-1.4-8.6-.9-17-2.5-25.3-5.1-5.6-1.8-11.6-2.3-17.4-3.6-5.7-1.3-11.4-2.8-17.1-4.3-9-2.4-18-5-27-7.5-3.9-1.1-7.8-2-11.6-3.3-7.4-2.4-14.8-4.9-22.2-7.5-10.4-3.8-20.9-7.6-31.1-11.9-4.7-2-9.9-3.1-14.1-6.3-1.1-.9-2.9-.8-4.3-1.4-8.7-4-17.4-8.2-26.2-12.1-5.4-2.4-9.6-6.4-14.2-10-1.8-1.4-3.4-3.1-4.9-4.9-1.5-1.9-1.1-3.9.6-5.5,1.3-1.2,4.8-1,6.2.6,1.1,1.3,1.7,2.9,2.6,4.3.8,1.4.8,1.2,3.6,1.2,1,0,2.2.7,2.9,1.5.5.5.4,1.7.2,2.3-.6-.4-1-.6-1.3-1.1-.3-.3-.7-.3-1-.3.3.2.7.4,1,.9.4.4.7.6,1.1.8,1.6.7,3.3,1.2,4.7,2.1,2.1,1.4,4.4,2.2,6.3,4.6,1.9,2.5,5.8,4,9,5,5.5,1.6,10.5,4.2,15.7,6.4,6.4,2.7,12.4,6.4,19.4,7.8,1.6.3,3,1.5,4.5,2.1,11.1,4.3,22.2,8.7,33.4,12.9,4.5,1.7,9.2,3,13.8,4.3,4.8,1.3,9.8,2.4,14.7,3.6,5.4,1.3,10.3,4.4,16.1,4,.2,0,.4,0,.5,0,4.3,3.4,9.8,3.3,14.7,4.8.5.1,1,.3,1.4.6,1.3,1.2,3.4-2.5,4.8.9.4,1,3.7.9,5.7,1.2,2,.4,4.3-.9,6,1,1.8-2.1,2,.7,3,1,1.3.3,2.7.4,4,.8,4.4,1.3,8.8,2.6,13.5,2.6,2.9,0,5.9,1,8.8.6,1.6-.2,2.2,3.4,4.4.7.6-.8,3.9.4,5.8.9,1.9.5,3.7,1.6,5.6,1.9,3.4.6,6.9.8,10.3,1.3,6.4.9,12.9,1.1,19.1,3.2.2,0,.4,0,.5,0,4.1-2.4,7.2.9,10.8,1.8,1.3.3,3.1.8,4.1.3,4.5-2.5,8.7.3,12.9.7,1.5.1,9.6.6,11.3.6,4.8,0,9.7.3,14.5.4.3,0,.5.5.8.5,3.6.4,7.1-1.8,11-.1,3,1.3,6.6,1.5,9.9,1.1,3.9-.4,7.6-.3,11.5,0,3.6.2,7.3-1,10.8-.8,5.7.3,11.6,0,17.1,2,.5.2,1.1.2,1.6,0,4.8-1.5,9.5,3,14.2.1,0,0,.5.5.7.6,1.2.5,2.8,1.7,3.6,1.3,1.5-.8,2.6-2.4,3.8-3.7.4-.5.5-1.2.9-1.8,1-1.3,2-2.6,3-3.9,1,1.4,2.4,2.6,2.9,4.2.6,1.5,1,3.6.4,5-.9,2-2.3,3.9-1.8,6.2.4,2.1-1.1,4.1,0,6.1.2.4.1,1.5,0,1.5-3.4.9-1.8,3.6-2.1,5.6-.2,2.1.3,4-.9,6.2-1,1.9.4,5-2.4,6.5,0,5.9-2.9,11.1-4.7,16.4-1.9,5.6-1.3,11.5-3.7,16.8,1.8,2.9-.9,6.1,1.1,9.3,1.9,3,1.2,5-2.3,5.4-4.6.5-4.6,4.5-5.2,6.8-.7,3.3-1,6.6-2.4,9.8-.8,2-.9,4.3-1.2,6.5-.8,6.5-3.5,12.6-5.4,18.8-.8,2.4-3.1,3.8-3.8,6.5-1.1,4.3-3.2,8.3-4.8,12.5-.5,1.2-1,2.6-1,3.9-.1,2.1-.4,3.8-1.8,5.8-1.9,2.6-3.5,6.2-3.3,9.2.3,3.8-2.7,6.3-2.5,9.9,0,.9-1.4,1.9-2,2.9-2.4,4-3.1,8.8-6.2,12.6-1.2,1.5-.3,4.8-.3,7.3,1.3-.2,1.5,1.7,3.7,1,10.5-3,21.1-5.8,31.8-7.7,6.7-1.2,13-3.4,19.5-5.1,1.8-.5,3.6-1.1,5.4-1.1,4.4,0,7.9-3.4,12.4-2.7,5.5-3.8,12.2-2.2,18.3-3.9,7.1-1.9,14.7-2.7,21.7-4.9,11.5-3.6,23.6-5,35-9.1,2.7-1,5.7-.9,8.5-1.5,6-1.4,12-3.2,18-4.6,6.1-1.4,12.2-2.7,18.3-4,2.1-.5,4.4-.6,6.4-1.4,4.5-1.8,9.2-3,13.9-4.1,4.1-1,8-3,12.2-4.2,8.8-2.5,17.4-5.6,26.1-8.5,6-2,11.8-4.8,18.2-5.4,5.3-4.5,12.5-4,18.6-7.1,8.2-4.1,17.5-6.5,26.6-8.5,10.3-2.3,20.1-6.6,30.6-8.2,1.4-.2,2.7-1.3,4.1-1.9,1.2-.5,2.5-1.2,3.8-1.2,7.6-.2,14.3-3.6,21.4-5.6,3.7-1,7.4-2,11.1-3,4-1.1,8.1-2.2,12.1-3.2,1.3-.3,2.6-.8,3.9-1.1,1-.2,2.3.1,3.1-.3,4-2.5,8.6-1.9,12.8-2.9,4.4-1.1,8.7-2.3,13.1-3.5,1.3-.3,2.7-.9,4-.7.8.1,1.8,1.2,2.2,2.1.3.7,0,1.9-.5,2.5-2.5,3.1-6.3,3.2-9.7,3.8-9,1.5-18,3-26.7,5.7-5.5,1.7-11.1,2.5-16.6,4.1-4.3,1.3-8.8,1.7-13,3.8-2.6,1.3-5.8,1.5-8.7,2.4-6.8,2.1-13.5,4.8-20.5,6.3-6.4,1.4-12.5,3.9-18.7,5.4-4.5,1-8.6,2.8-13,4-8,2.1-16,4.7-23.9,7.2-1.7.5-3.3,1.5-5,2.1-7.7,2.6-15.5,5-23.2,7.6-3.9,1.3-7.8,2.9-11.7,4.3-2.8,1-5.7,1.9-8.5,2.8-9.5,3-19,6.2-28.5,9.1-5.4,1.6-11,3-16.5,4.3-5.6,1.3-11.3,2.2-17,3.2-2,.4-3.2,2-5.5,2.4-12.4,2.4-24.8,4.9-36.8,8.6-6.7,2.1-14,2-20,6.2-5.4,0-10.2,2.3-15.4,3.2-6.6,1.2-13.3,2-19.8,3.3-4.6.9-9.1,2.4-13.6,3.5-2.4.6-4.9,1.4-7.3,1.8-6.2.9-11.9,3.5-17.8,5-7.5,1.9-15.3,3-22.8,4.8-4.5,1.1-8.9,2.8-13.3,4.2-.9.3-1.8.9-2.8,1-3.9.7-7.1,2.1-7.9,6.6-.1.7-.8,1.9-1.2,1.9-3.3,0-3,2.4-3.5,4.6-.6,2.8-1.2,5.7-2.4,8.1-2.3,4.5-4.5,9-4.9,14.1-.1,1.4-3.8,1.3-1.2,3.4-1,1.2-2.1,2.4-3,3.6-.9,1.2-1.7,2.5-2.4,3.8-2.3,4.6-3.6,10.2-7,13.7-4.8,5-7.1,11.3-9.7,17.1-2.5,5.5-6.4,10.2-8.1,16-.9,3-4.1,4.8-4.8,8.1-3.1,0-1.1,3-2.6,4.3-.9.8.5,4.1-2.9,3.3,1,2.4-2.3,3.5-1.7,6,.5,1.9-.5,3.5-1.8,5.2-2.2,2.9-3.8,6.5-6,9.2-3.3,4.1-4.8,8.9-7.4,13.1-1.7,2.8-4.5,4.8-6.7,7.3-.8.9-1.3,2-1.8,3-1.3,2.6-1.2,6.2-5.1,7-1.7,4.1-5,7-7.9,10.2-3.3,3.7-6.6,7.4-9.9,11.1-.2.2-.8.3-.8.5,0,7.7-8.7,9.2-11,15.3,0,.2-.2.3-.4.4-6.6,2-8.2,8.8-12.4,13-1.3,1.3-2.6,2.8-3.8,4.3-1.5,1.9-.4,3.7,1.3,4.2,5.4,1.4,9.3,5.4,14.1,7.5,2.7,1.2,4.6,2.6,5.6,5.3.2.4.4.8.6,1.2.1-.5.2-1,.5-1.4,1.4-1.7,2.9-3.2,5.3-1.7,1.3.7,2.5-.5,3.9-.4,2.3.2,3,0,3.8,2.6,1.2,3.9,1.2,7.3-1.5,10.4-1.3,1.6-2.8,2.2-4.4.4-.6-.7-1.3-1.2-1.9-1.9-2-2.5-4.8-3.6-7.7-4.8-5.2-2.1-10.6-3.9-15.3-7.3-2.8-2-6.2-3.4-9.5-4.4-4.9-1.5-8.7,1.3-12.1,4.3-4.2,3.7-7.8,8.4-12.6,11.1-5.5,3.2-9.2,8.3-14.5,11.7-3.1,2.1-5.7,5.1-8.6,7.6-4.9,4.3-9.7,8.8-14.7,12.8-3.9,3.1-7.3,7.2-11.6,9.6-3.6,2-5.2,6.1-9.2,7.5-.8.3-1.2,1.9-1.6,3-.5,1.6-.8,3.3-1.4,5.2-.6.6-1.1,1-1.4,1.4-.5.6-.8,1.3-1.2,1.9.5,0,1.2.4,1.5.2.6-.4,1.1-1,1.4-1.6.2-.4,0-1.1,0-1.6,1,0,2.4-.4,2.1,1.4-.2,1-.5,2.4-1.2,2.8-3,1.9-6.3,1.6-9.5.6-4.8-1.5-9.4-3.2-14.2-4.8-9.3-3.1-18.5-7-28-8.9-6.5-1.3-12.2-4.9-19-5.2-1.7,0-3.3-1.6-5-2-9-2.3-17.6-5.4-26.5-8.1-2.7-.8-5.6-1.1-8.3-2-3.5-1.1-6.7-2.9-10.2-4-7.1-2.3-14.4-4.3-21.5-6.5-4.3-1.3-8.6-2.6-12.7-4.3-8-3.3-15.8-6.9-23.8-10.2-1.5-.6-3.4-.5-5-.8-4.6-.8-8.9-2.6-13.2-4.5-7-3.1-13.9-6.2-21-9.1-12.9-5.3-24.2-13.6-36.4-20.1-4.9-2.6-9.8-5.1-14.4-8.2-5.1-3.4-10.1-7-15-10.7-2.9-2.2-6.5-3.3-8.5-7-1.1-1.9-4.6-2.4-6.9-3.7-2.2-1.2-4.4-2.4-6.5-3.7-3.5-2.2-7.1-2.2-10.2.6-.4.3-.1,2.1.4,2.4,1.6,1.1,3.5,2,5.2,2.9,2.2,1.1,4.6,2,6.7,3.3,5.4,3.1,10.7,6.3,15.9,9.7,5.9,4,12.6,7.4,17.2,12.6,4.1,4.6,9.2,7.8,13.7,11.6,5,4.3,10.5,8.4,16.7,11.4,5.9,2.8,11.2,6.6,17,9.8,4.6,2.6,9.7,4.5,14.1,7.4,3.4,2.3,7.1,3.8,10.5,6,3.8,2.5,8.5,4,12.1,6.9,6.3,5,14.1,7.1,20.5,11.7,7.2,5.1,14.5,10,21.9,14.8,1.8,1.2,4,1.7,5.9,2.7,11.5,6.3,22.9,12.7,33.5,20.6.6.4,1.1,1,1.5,1.5.7.9,2,2.6,1.8,2.9-1.1,1.2-1.9,3.5-4.1,2.8-2.8-.9-6-.6-8.4-3.2-2-2.2-4.7-4.3-7.5-5.2-4.6-1.4-7.8-5-12.4-6.5-4.3-1.4-8-4.2-11.7-7-3.6-2.7-7.9-4.4-11.8-6.6-7.4-4.2-14.5-9-22.2-12.7-3.2-1.5-5.7-4.4-8.7-6.3-3.7-2.3-7.5-4.3-11.4-6.3-3.2-1.7-6.5-3.4-9.7-5.1-3.4-1.9-7.4-2.9-9.7-6.5-6,0-9.9-4.7-14.8-7.1-5.2-2.4-10.2-5.8-15.2-8.9-4.6-2.9-9.1-5.9-13.4-9.2-3.5-2.6-6.7-5.7-9.9-8.7-3.4-3.2-6.8-6.2-11.2-8.1-2-.8-3.3-3.1-5-4.5-2.8-2.4-6.4-3.5-9.6-5.4-2.7-1.6-5.4-3.5-8.1-5.1-4.2-2.4-8.5-4.6-12.8-6.8-2.2-1.1-4.5-2.1-6.8-3.2-4.2-2.1-8.4-1.6-12.7-.1-8.4,2.8-16.6,6.2-25.4,7.7-1.4.3-3.9,0-4.5,2.3-.6,2.4,1.7,2.6,3.1,3.4,1.2.7,2.4,1.6,3.6,1.7,8,.6,11.1,3,13.7,10.9.4,1.1.9,2.2,1,3.3.2,1-.9,1.2-2.1.6-.2-.1-1,0-1,.2-.8,4.3,0,5.7,4,7.9,4,2.1,8.3,3.7,11.7,7.1,1.4,1.5,4.4,1.4,6.5,2.3,3.4,1.4,6.8,2.8,9.9,4.7,3.3,2.1,6.7,3.6,10.3,5.1,4.9,2.1,9.2,5.5,13.9,8.1,3.8,2.1,7.8,3.8,11.6,5.7,5,2.6,10.1,5.1,15,8.1,6.3,3.8,11.9,8.7,17.8,13.1,6.4,4.8,12.6,9.9,20.6,12.6,6.5,2.2,12.7,5.9,18.4,9.9,2.6,1.8,4.3,1.3,5.6-.1,2.5-2.8,5.4-3.4,8.5-2.1,2.7,1.1,5.9,2,6.7,5.6.1.5.2,1.2.5,1.4,2.8,1.5,3.3,3.4,2,6.4-.8,1.8.9,4.1-1.2,6.1-1,1-1.2,2.9-3.2,2.7-2.2-.3-4.5.9-6.5-1.2-3.9-4-8-7.6-10-13-.4-1.1-.8-.9-1.1,0-.7,3.5-2.9,2-4.6,1.2-8.9-4.2-17.8-8.2-26.8-11.9-3.1-1.3-5.6-4.2-8.4-6.3-3.3-2.5-6.7-5-10-7.6-2.3-1.8-4.6-3.7-6.9-5.5-.8-.7-1.5-1.5-2.4-2-3.1-1.5-6.6-2.6-9.5-4.4-5.5-3.5-12-4.7-17.5-8.6-5.4-3.9-12.1-6.1-18.3-8.9-2-.9-3.8-2.1-5.7-3.3-4-2.7-8.3-5.1-12.7-6.9-3-1.2-5.6-2.9-8.4-4.5-7.2-4-14-8.6-21.2-12.5-4.8-2.6-9.3-5.1-13-9-1.7-1.8-2.6-3.8-2.7-6.4-.4-6.5-3.7-9.7-10.8-6.5-4.3,1.9-8.4,4.1-13.3,4.4-1,0-1.8,1.2-2.8,1.9.8.8,1.5,1.8,2.4,2.3,8.1,4.4,16.2,8.6,24.2,13,2.2,1.2,4.3,2.7,6.3,4.3,4.7,3.9,10.8,5.1,15.9,8.4,2.8,1.8,5.9,3.2,8.9,4.5,5.9,2.6,12.1,4.7,17.8,7.7,6.2,3.3,12,7.4,18,11.1,1.4.9,3.1,1.3,4.4,2.3,11.9,9.1,24.7,16.9,36.6,26,4.4,3.3,7.6,8.2,12,11.5,3.2,2.3,5.6,5.6,10.2,6.5,3.7.7,7,3.8,10.5,5.8,4.9,2.8,9.9,5.5,14.8,8.4,6.6,4,13.1,8.2,19.8,12.1,3.6,2.1,7.5,3.6,11,5.8,4.9,3,9.5,6.5,14.4,9.4,6.3,3.8,12.8,7.2,19.2,10.8,6.5,3.7,12.9,7.8,19.6,11.2,4.5,2.4,9.4,4.2,14.2,5.9,7.3,2.6,14.3,5.8,20.3,10.8.3.2.4.9.3,1.2-1.1,2-4.7,2.9-6.9,2-9.2-3.7-18.6-7.2-27.7-11.1-3.8-1.6-7.2-4.2-10.8-6.4-1.7-1-3.4-2.3-5.3-2.9-6.2-1.9-11.2-6-16.6-9.3-1.3-.8-3.2-.7-4.1-1.6-1.4-1.4-5.2.3-4.4-3.6,0-.2-.5-.7-.7-.6-6.1,1-9.2-4.6-13.8-6.8-8.7-4.2-17-9.5-25.1-14.9-7.2-4.7-14.7-8.5-22.5-12-5-2.3-9.7-5.2-14.5-8-1.9-1.1-3.6-2.7-5.3-4.2-2.1-1.9-3.9-4.1-6.1-6-6.5-5.5-13-11-19.6-16.4-2.7-2.2-5.7-4.3-8.9-5.7-4.2-1.8-6.7-5.4-10.1-8-3.5-2.6-7.3-4.7-11.1-6.9-3.6-2.1-7.4-3.9-10.9-6.2-6.4-4.2-14.2-4.8-20.7-8.6-.7-.4-1.3-1.1-1.7-1.9.3-.6.3-.9.3-1.3-.2.3-.4.7-.6,1-1-.1-2.4.1-3-.4-4.4-4.3-10.5-5.2-15.5-8.2-1-.6-2-1.4-2.9-2.1-6.1-5.2-13.8-7.4-20.6-11.3-4.1-2.3-8.1-4.6-12.2-6.8-3.4-1.9-6.9-3.4-10.2-5.3-2.3-1.3-7-.5-9.3,1.2-2.7,1.9-6.1,1.1-8.3,3.5-5.3-1.1-9.6,2.5-14.2,3.8-5.2,1.5-10.2,3.9-15.5,5.4-1.3.4-2.7.4-4,.8-2.5.9-4.9,2.1-7.3,3.2-.8.3-1.5,1.1-2.2,1-5.6-.6-10,3-15.1,3.8-5.9,1-10.6,5.1-16.9,5-2.6,0-5.3,1.8-7.9,2.8-.7.3-1.2.8-1.9,1.3.5.7.9,1.7,1.5,2,2.1.9,4.6,1.3,6.5,2.4,5.1,3,10,6.3,14.9,9.4,4.6,2.9,5,7.9,6,12.5.2.7-1.5,2.7-2.3,2.6-1.7,0-3.8,2.1-5.3-.5-.6.4-1.4.7-1.9,1.2-1.8,1.9-3.7,2.5-5.9.8-.8-.6-1.8-1.2-2.7-1.2-5.6.4-5.9-4.5-7.5-7.7-.7-1.5-.6-3.8,1.4-5.3.4-.3,0-1.4-.2-2.1-1.2-2.4-2.3-4.5-5.5-4.8-1.5-.1-3.3-1.1-4.4-2.2-3.4-3.6-7.1-2.5-10.8-1.1-3.1,1.2-6.1,2.8-9.7,2.7-1.1,0-2.5.4-3.3,1.1-3.8,3.3-8.6,3.6-13.1,4.8-10.9,3-21.1,8.1-31.8,11.5-6.6,2.1-12.8,5.5-19.5,7.4-7.1,2-13.4,5.8-20.6,7.6-6.4,1.6-12.4,4.7-18.6,7-4.1,1.5-8.4,2.3-12.4,3.9-5.9,2.3-11.6,5-17.3,7.5-.7.3-2,.5-2.1.4-.4-.9-.8-2-.6-2.9.5-2.3,1.5-4,3.9-5.4,8.3-4.9,17.6-6.9,26.3-10.6,5.5-2.3,11-4.7,16.8-6.3,8.6-2.4,16.5-6.3,24.8-9.6,5.4-2.1,10.9-4.1,16.2-6.4,3-1.3,6.7-1.9,10.1-2.8,4.4-1.2,8.6-2.9,12.4-5.2,3.7-2.3,8-2.3,11.9-3.9,3.8-1.5,7.7-3.4,12-3.7,1.2,0,2.2-1.8,3.4-1.9,1.3-.2,2.5-2.6,4-.3.1.2,1.2.2,1.4,0,2.4-4,7.4-3.1,10.6-5.8,2.8-2.4,7.3-2.9,11.2-4,7.9-2.2,15.6-4.7,23.1-7.9,3-1.3,6.6-1.5,9.8-2.4,4.5-1.3,8.9-2.9,13.3-4.3,6.6-2.2,13.4-4,19.9-6.4,8.9-3.3,17.8-6.5,26.7-9.7,2.5-4.1,8.2-2.2,11-6,.6-.7,2.7-.1,4-.5,3.4-1.2,7.1-1.3,10.4-2.3,5.6-1.8,10.9-4.8,16.2-7.6.9-.5,1.3-2.3,1.4-3.6.2-2.6,0-5.3,2.7-6.9.1,0-.3-1-.4-1.5-1.6-5.9-1.1-20.4-.3-27.1.5-4.1,1.4-8.4.4-12.8-.3-1.5-1.9-4.3,1.5-5.1.2,0,.5-.7.4-.9-1.8-2.5-.5-5.5-1.2-8.1-.3-1.2-1-3.4-3.5-2.7-4.7,1.2-9.6,1.9-14.1,3.6-1.7.7-2.9,3.7-3.6,5.9-.8,2.8-1.1,5.8-1.1,8.7-.1,6.3-1.2,12.4-2.1,18.5-.6,4.2,0,8.6-.2,12.9-.2,3.6-.6,7.2-1.1,10.9-.3,2.4-.8,4.7-1,7.1-.2,2.1-2.8,3.8-1.3,6.3,0,0-.8,2.4-2.5.7-1.7-1.7-4-3-3.8-5.9.2-3,1.2-6.2.6-9.1-.7-3,2.3-5,.9-8.2-1.1-2.8-.4-6.3-.4-9.5,0-1.2-1-3.1,1.6-3,.2,0,.6-1.1.4-1.3-3.1-3.5.9-7.2-.7-11.2-1.3-3.4.7-8,1.2-12.1.1-.8.5-1.6.5-2.5.1-2.2.2-4.5-2.8-1.8-10.9,1.4-20.7,6.4-30.9,10-5.1,1.8-10.3,3.7-15.5,5.4-5.2,1.7-10.4,3.4-15.6,5.1-1.9.6-3.7,1.4-5.6,2.1-6.8,2.5-13.7,5.2-20.6,7.5-5.8,2-11.7,3.8-17.7,5.3-6.2,1.6-13,1.9-18.5,4.7-5.3,2.7-11.2,3.3-16.4,6.1-5,2.6-10.4,4.5-15.6,6.5-2.2.9-4.4,2-6.6,2.1-5.9.2-10.9,3.2-16.2,5.1-10.7,3.9-21.4,8.2-32.1,12.2-5.8,2.1-11.6,4.1-17.4,6-.9.3-2,.4-2.9,0-.6-.2-.9-1.3-1.3-2.1.6-.3,1.1-.5,1.7-.8.7-.4,1.6-.6,2.2-1.2,4-4.2,9.3-6.1,14.5-7.9,2.9-1,5.7-1.5,8.3-3.6,2.1-1.8,5.7-1.7,8.6-2.6,5-1.4,9.8-3.3,14.6-5,1.7-.6,3.3-.8,4.5-2.2.5-.6,1.4-.9,2.2-1.2,5.7-1.8,11.4-3.6,17.2-5.4.7-.2,1.7.3,2.1,0,3.4-3.4,8.5-3,12.3-5.5,2.2-1.4,4.8-2.6,7.3-3,5.5-.9,10.3-3.8,15.7-5.1,2.7-.7,5.6-1.3,8.1-2.6,3-1.6,6.2-.6,9.2-1.7,4.1-1.5,8-3.9,12.1-4.3,5.4-.6,9.9-3,14.8-4.7,4.7-1.6,9.2-3.9,13.8-5.7,1.2-.5,2.7-.3,4-.8,7.4-3,15.4-4.6,22.7-7.6,4.9-2,10.8-1.8,14.7-6,8.1-1.5,14.8-7,23.2-7.8,2.9-.3,5.9-4.9,5.4-8.5-.4-2.7.3-4.9,1.1-7.3,1-2.8.9-5.7-1.7-8.1-1.1-1-1.7-2.5-2.5-3.8-.3-.5-1-1.3-1-1.3-2.4,1.8-3.2-.7-4.4-1.8-4-3.9-7.1-8.8-12.4-11.3-1.1-5.9-7.8-6.5-10.3-10.6-3.3-5.3-9.2-8-12.1-13.7-1.4-2.7-4.9-4.3-7.3-6.6-3.6-3.3-6.8-7-10.6-10-5.6-4.5-8.7-11.1-14.6-15.5-3.8-2.9-5.9-7.9-8.9-11.8-3.4-4.3-7.1-8.5-10.5-12.8-2.1-2.7-4.7-5.3-6.6-8-2.6-3.7-6.7-6.6-8.2-10.4-2.8-7.2-9.2-11.5-12.9-17.8-2.2-3.8-5.8-6.7-7.1-11-.1-.4-.6-.7-1-.9-4.1-3.1-7.6-6.6-8.9-12.1-.5-2.1-1.4-4.8-4.1-5.7-.2,0-.3-.2-.4-.4-2.8-4.6-5.6-9.1-8.2-13.8-.5-1-.4-2.6,0-3.7.5-1.2,1.6-2.4,2.7-3,.3-.2,1.9,1.1,2.5,2,4.4,6.8,8.5,13.8,13,20.4,3.7,5.4,7.8,10.4,11.7,15.6,2.3,3,5,5.8,6.8,9.1,3.2,5.9,8.8,9.9,12,15.9,2.7,4.9,7.4,8.7,10.8,13.3,7.1,9.6,16.1,17.6,22.7,27.7,3.7,5.7,9.1,10.4,14,15.2,5.3,5.3,11,10.1,16.2,15.3,4.9,4.8,9.2,10.2,14.1,15,6.5,6.3,13.5,12.2,20.2,18.3,1.1,1,2.1,2.2,2.8,3.6,1.3,2.6,3.6,1.8,5.6,1.7.4,0,1.1-2.2.8-3-.8-1.7-1.3-3.1.6-4.4.2-.1.3-.5.4-.7-4.8-2.3,1.5-6.9-1.9-9.7-.4-.4.2-3.1,1-3.6,2.8-1.7,2.1-4.3,2.1-6.7,0-1.8-.1-3.6,2.3-4.1.3,0,.7-.2.9-.5,1.3-1.3,3.1-3.9,3.6-3.6,3.6,1.8,8,2.7,10.2,6.6.8,1.5.8,3.5-1,4.7-1.5,1-3.2,1.9-4.8,2.7-3.2,1.6-5.1,3.6-4.8,7.7.4,5.3.1,10.8.1,16.1,0,2.6-2,5.1,0,7.7.3.4,0,1.1.4,1.4,5.4,5.1,10,11,17.5,13.6,2.9,1,5.1,0,6.6-1,6.6-4,14.1-5.2,21.4-7,2.3-.6,4.7-3.2,4.7-6,0-2-.5-4.1-.8-6.1-.1-1-.2-2.1-.2-3.1,0-.8,1.7-1.4.1-2.4-2.2-1.4-.6,1.4-1.5,1.3-.5,0-1.1.2-1.4,0-.3-.3-.5-1-.4-1.4.6-1.7,1.4-3.4,2.1-5,.1-.3.3-.6.5-.9,3.6,2.2,4.8-1.7,7.1-2.7.6-.3,1.9-.1,2.1.2,1.4,2.9,4.1,5.1,2.6,9.2-1.1,2.8-.5,6.3-.4,9.5,0,.4,1.3,1.1,1.9,1,2.9-.7,5.9-1.4,8.6-2.5,10.8-4.2,21.6-8.6,32.3-12.9,4.6-1.8,9.3-3.6,13.9-5.3.9-.4,1.9-.5,2.9-.7,1.2-.3,2.5-.6,3.7-.9-.8-1.1-1.5-2.5-2.6-3.2-2.3-1.6-5-2.7-7.4-4.3-12-7.9-23.9-16-35.8-24-1.9-4.3-6.9-4.5-9.7-7.5-2.7-2.8-6.1-4.7-9.5-6.5-1.2-.6-2.4-1.8-3-3-1.5-3.2-4.7-4.1-7.1-6.1-7.4-6.2-15.1-12.1-21.7-19.2-2.7-2.8-5.4-5.6-8.2-8.4-1.4-1.4-3-2.6-4.1-4.2-.7-1.1-3.8-1.4-1.7-3.8-.3-.2-.7-.6-.8-.5-2.8,1.4-3.3-.7-4.6-2.5-2.3-3.1-5.4-5.7-8.1-8.4-.4-.4-.8-.7-1.1-1.1-1.7-1.9-2.6-4.4-4.8-6-2.1-1.5-4.4-3.4-5.6-5.6-1.8-3.5-4-6.2-7.3-8.2-.3-.2,0-1.2,0-1.8,0-.6-.2-1.3-.5-1.7-1.4-1.6-3-3.1-4.4-4.6-4.9-5.3-9.9-10.6-14.8-15.9-1.1-1.2-3.3-2-1.7-4.4.1-.2-.6-1.3-1.1-1.6-3.3-2-5.5-4.7-6.5-8.6-.2-.9-1.5-1.5-2.2-2.3-2.8-2.9-6-5.6-8.3-8.9-2.1-2.9-3.3-6.5-4.9-9.8,0-.2-.4-.3-.4-.4,0-.3.3-.7.4-.7,3,.9,2.6-3.1,4.5-3.1,1,0,2.5,1.1,2.8,2,1.5,4.2,4.6,7.2,7.2,10.5,3.4,4.3,6.7,8.7,10.1,13.1,3.6,4.6,7,9.3,10.7,13.9,2.4,3,5,5.8,7.6,8.7,8.4,9.5,16,19.6,25.1,28.4,9.1,8.8,17.8,18,26.3,27.3,5.1,5.7,11,10.5,16.8,15.3,5.9,4.9,11.6,10,17.7,14.4,8,5.8,15.6,12.3,23.9,17.7,5.9,3.8,12,7.4,17.9,11.2,2.3,1.5,4.2,3.6,6.3,5.3,4.3,3.3,9.6,4.6,14.1,7.6,2.5,1.7,4.9,3.7,8,4,2.4.3,4.6.4,7-.7,6.3-2.7,12.5-5.5,19.3-6.6,1.3-.2,2.4-1.2,3.6-1.6,1.7-.6,3.5-1,5.3-1.6.8-.2,1.6-.4,2.4-.8,4-1.8,8.2-2.8,12.5-3.8,4-.9,7.9-2.6,12-3.4,4.1-.8,7.9-3.2,12.3-2.9.6,0,1.4-.3,1.9-.6,3.8-2.7,8.4-3,12.6-4.8,3.2-1.4,6.3-2.9,9.5-4.3,4.9-2,9.7-4.3,14.6-6.4,3.1-1.3,6.2-2.3,9.3-3.6,5.8-2.4,11.6-4.8,17.5-7.2.2,0,.4,0,.5,0,3.9-4.3,9.5-4.9,14.4-6.8.5-.2.9-.4,1.3-.7,1.7-1.3,3.5-2.6,5.2-3.9-1.4-1.6-3.2-2.3-5.1-3.2-8-3.7-15.8-7.8-23.7-11.7-6.7-3.3-13.4-6.7-19.8-10.9-5.2-3.4-11.5-5.2-17-8.2-5.2-2.7-10.1-6.1-15.1-9.1-5.4-3.3-10.9-6.5-16.3-9.9-5.1-3.2-10.1-6.8-15.3-9.8-6.7-3.9-12.8-8.7-19.6-12.4-7-3.8-13.6-8.4-19.7-13.7-4.3-3.8-9-7.4-13.9-10.6-6.2-4.1-12.2-8.2-17.5-13.5-3.2-3.1-7-5.6-10.5-8.5-4.7-3.9-9.2-7.9-13.9-11.7-5.1-4-10.6-7.5-15.5-11.7-4.8-4.1-9.8-8-12.8-13.9-.4-.8-.9-1.5-1.5-2.1-1.2-1.3-2.9-2.5-1.2-4.4,1.3-1.5,4.8-1.6,6.1-.2,3.3,3.4,6.2,7.1,9.5,10.4,1.5,1.5,3.3,2.9,5.2,4.1,3.3,2,6.9,4.1,9.3,7.3,1.5,1.9,8.2,6.7,10,7.9,3.4,2.3,7.7,4.4,9.5,7.7,1.4,2.6,3.6,1.5,5.1,3.2,3.4,3.9,7.5,7.2,11.5,10.6,1,.8,2.4,1.2,3.6,1.7.5.2,1.2,0,1.5.3,3.4,3.2,6.8,6.3,9.9,9.8,2,2.2,6.3,5.3,9.2,6.1,1.7.5,3.5,1.4,4.8,2.6,5.5,5.5,11.9,9.4,19,12.7,4.6,2.1,8.2,6.2,12.5,8.9,6.2,4,12.7,7.5,19,11.3,4.9,3,10.2,5.3,14.5,9.3,1.2,1.1,2.9,1.5,4.4,2.3,5,2.8,9.8,5.7,14.9,8.3,1.9,1,4.7.7,6,2.1,1.9,2,4.4,2.6,6.4,4,3.5,2.4,7.2,4.1,11.1,5.8,1.7.7,2.8,3.3,4.3,3.5,2.2.2,3.4,1.8,5.1,2.2,5.4,1.5,9.3,5.2,14,7.8,2.3,1.3,4.4,3.4,7.4,2,.3-.1.8-.1,1,0,3.7,2.3,7.4,4.6,11.2,6.8.6.3,1.4.8,1.8.6,3.4-1.7,7.3-1.6,10.8-4.1,5.3-3.9,11.5-6.7,17.4-9.8,5.4-2.9,11-5.6,16.5-8.2,1.9-.9,4.3-1,6.3-1.6,2.1-.6,4-1.5,6-2.3.6-.2,1.3-1,1.8-.9,4.1.8,7.1-1.9,10.5-3.3,2.2-.9,4-2.2,6.6-2.3,1.8,0,3.5-1.7,5.3-2.7,1.6-.9,3.3-1.1,5.2-1.1,1.6,0,3.1-1.7,4.8-2.5,1.7-.8,3.7-.9,5.1-1.9,5-3.8,11.5-4.9,16.1-9.4.8-.7,2.2-.8,3.2-1.2.7-.3,1.3-.7,1.9-1.1-.7-.5-1.3-1.3-2.1-1.4-6.7-1-13.1-2.9-19.5-5.1-8-2.8-16.1-5.3-24.1-8-11.6-3.9-22.6-9.5-34.1-13.8-10.6-4-20.4-9.6-30.7-14.2-8.8-3.9-17.2-8.8-25.8-13.1-7.1-3.6-14.5-6.6-21.4-10.6-8-4.6-15.7-9.9-23.4-14.9-3.8-2.5-7.7-4.9-11.4-7.6-7.5-5.7-14.9-11.7-22.4-17.5-3-2.3-5.9-4.7-9-6.8-10.6-7.3-20-16.1-28.6-25.7-3-3.4-7.2-6.1-8.8-10.7-.4-1.3-2.9-2.8-.2-4.4,1.7-1,4-.5,5.5,1.2.9,1.1,2.7,1.9,2.9,3.1.4,2.3,1.2,1.1,2.1.7.3-.1,1.1.2,1.2.5q2.1,4.8,6.1,7.1c.5.3.7.8,1.2,1.1,7.5,6.5,15.1,12.9,22.6,19.4.9.8,2.3,2.4,2.2,2.6-2.2,2.5,1.2.9,1.5,2,.3,1.1,1.7,1.9,2.9,3,1.1.8,2,1.4,2.8,1.9,0,0,.4-.4.6-.6-1-.5-2.1-1-3.1-1.5.5-.4-1-2.7,1.1-1.5,2.2,1.3,4.3,3,6,4.9,2.6,3.1,6.1,4.9,9.4,7.1,1.6,1,3.1,2.2,4.5,3.4,2.9,2.6,5.6,5.5,9.7,6.6,1.5.4,2.6,2.4,3.6,3.9-.7.4-1.2.5-1.6.6,0,.2.1.5.2.7.6-.3,1.1-.7,1.7-1,2.8,1.5,5.6,2.9,8.3,4.6,3.6,2.3,6.8,5,10.5,7.1,3.7,2.1,7.8,3.6,11.6,5.6,1.3.7,3.2,1.1,3.5,3.1,0,.5,1.1,1.2,1.6,1.1,5.3-.9,8.5,3.6,13,5.1,4.2,1.4,8.1,3.8,12.1,5.7,2.4,1.2,4.8,2.2,7.1,3.6,3.1,2,10.4,5.4,14.3,6,1.8.3,2.9.8,2.8,3-.3.6-.3.9-.3,1.3.2-.3.4-.7.6-1M916.1,131.6c-.3,0-.7,0-1,0,.3.2.7.4,1,1.2.3,0,.7,0,1,0-.3-.2-.7-.4-1-1.2M909.6,127.3c-.3,0-.7,0-1,0,.3.2.7.4,1,1.2.4.2.7.4,1.1,1.1.6.1,1.1.3,1.7.4,0-.2.1-.5.2-.7-.6,0-1.3-.2-1.9-.8-.4-.2-.7-.4-1.1-1.1M871.9,107.9c-.3,0-.7,0-1,0,.3.2.7.4,1,1.2.3,0,.7,0,1,0-.3-.2-.7-.4-1-1.2M868.7,105.8c-.3,0-.7,0-1,0,.3.2.7.4,1,1.2.3,0,.7,0,1,0-.3-.2-.7-.4-1-1.2M925.8,135.9c-.8-.5-1.7-1.1-2.6-1.6,0,0-.4.4-.6.6,1,.5,2.1,1,3.1,2,.3,0,.7,0,1,0-.3-.2-.7-.4-1-1.2M852.5,190.9c-.6-.2-1.2-.5-1.8-.7-.5-.2-1-.3-1.4-.4.4.6.7,1.3,1.2,1.6.5.3,1.3,0,2,.6.3,0,.7,0,1,0-.3-.2-.7-.4-1-1.2M717.9,510.7c6.4,3.6,12.8,7.3,19.3,10.6,7.2,3.6,13.3,9,20.7,12.3,2.9,1.3,5.4,3.4,8.4,4.5,10.1,3.7,20.3,7.4,30.6,10.6,7.5,2.3,14.5,5.8,21.7,8.8,8.1,3.4,16.3,6.5,24.8,9,11.3,3.4,22.7,6.6,33.9,10.4,9,3,18.1,5.8,27.1,8.6,2.4.7,5,1,7.4,1.7,4.2,1.2,8.4,2.3,12.4,3.8,7.8,2.8,16.2,3.6,23.6,8.2,2.9,1.8,6.8,3.1,10.7,2.6,1.8-.2,2.3-.6,1.2-2.2-.4-.5-.6-1.2-.8-1.8-.2-.8-.5-1.9-.1-2.6.8-1.4,1.8-1.2,2.9,0,.5.6,1.5.7,2.2,1.2,2.5,1.6,4.6,1.5,7-.4,5.8-4.7,11.5-9.4,17.3-14.1,9.4-7.6,18.8-15.2,28.2-22.9,3.4-2.8,6.3-6.2,9.9-8.6,7.8-5.2,13.8-12.3,21.1-18,1.8-1.4.4-2.1-.4-2.6-1.9-1.3-4.3-1.3-6.3-3-5-4.1-10.4-7.8-15.7-11.5-3-2.1-6.5-3.8-9.2-6.2-4.5-4-10-6.4-14.9-9.6-.6-.4-1.1-.8-1.7-1.1-3.6-1.3-7.3-2.3-10.8-3.8-6.6-2.8-13-5.6-20.1-7.5-7.2-2-13.6-7-20.5-10.2-5.2-2.4-8.6-7.5-14.8-8.7-6.3-1.2-12.2-4.3-18.4-6.2-5.5-1.7-11.4-1.1-16.9-3.4-5-2.2-10.8-2.2-15.6-5.4-.7-.5-1.7-.7-2.6-.8-8.4-.8-16.5-3-24.5-5.8-2-.7-4-1.9-6.1-2.1-5.6-.6-10.6-3-15.8-4.8-5.1-1.7-10.3-3-15.6-3.8-3.7-.6-7.1,1.1-10.5,2.9-4.2,2.3-9.2,2.9-13.7,4.6-7,2.6-13.9,5.5-20.8,8.3-.8.3-1.3,1.2-1.9,1.8.8.6,1.8,1.7,2.5,1.6,3-.6,5.2,1.6,7.7,2.3,2.9.8,5.6,2.2,8.4,3.2,4.5,1.6,9.5,2.5,13.6,4.9,7.3,4.3,14.1,9.3,21,14.4,5.6,4.1,11.4,7.6,18,9.9,7.2,2.5,14.1,5.8,21.2,8.5,6.7,2.6,13,6.2,20.4,6.7,1.9.1,3.7,3.1,5.4,4.9.4.4,0,1.6,0,2.4,2.3,0,1.6,2.1,1.3,2.7-1.2,2.1-2.8,4-4.3,5.9-1,1.3-2.5.8-3.3,0-2.1-2.1-5.2-2.9-6.8-6-1.2-2.4-4.1-4.8-6.7-5.6-7.1-2-13.4-5.7-20.7-7.3-6.6-1.4-12.8-4.6-19.1-7-1.2-.5-2.5-.9-3.7-1.5-5.9-3.2-9.7-9.3-16.1-11.8-1.8-4.2-6-5.1-9.5-6.9-4.2-2.2-8.9-3.5-13.4-5.2-3.9-1.5-7.6-4-11.6-4.3-5.7-.5-10.8-2.8-16.3-3.9-5.7-1.1-10.4-.3-14.3,2.8-3.6,2.9-6.7,4-10.8,2-.4-.2-1,0-1.4.2-3.2,1.4-6.5,2.6-9.5,4.2-2.1,1.1-3.9,3.6-2.2,5.7,2.4,3.2-1.3,5.6-.3,8.4,0,0-.6.5-.6.5-2.3-1.8-3,2.8-5.2,1.3-1.7-1.1-3.5-2-5.2-3-1-.7-1.9-2.2-2.8-2.3-4.2,0-8.5-2-12.7-.1-3.3,1.5-6.6,3.1-9.9,4.8-.2.1-2.1.6-.5,1.7,2.1,1.4,4,3.2,6.3,4.2,6.2,2.7,10.8,7.7,16.4,11.1,3.9,2.3,6.7,6.4,12.1,7.8M1022.1,474.6c1.9.1,3.9.1,5.8.4,7.8,1.2,15.6,2.9,23.5,3.8,8.5,1,17.1,1.5,25.7,2.2,3.9.3,7.5-.6,11.2-1.5,1-.2,1.9-.3,2.9-.5.1,1.2.6,2.5.3,3.6-.6,2.8-6.7,6.8-9.8,7.1-8.7.9-17.1-2.6-25.8-1.8-5.6.5-11.1-.5-16.4-1.6-4.6-.9-9.3-1.8-13.8-2.7-5.6-1.1-11.3-2.7-17.1-3.1-1,0-2.2.6-2.9.2-3.5-2-7.4-1.5-11.2-1.7-1.7,0-3.3-.7-4.9-1-8.7-2-16-4.2-23.1-3.2-1,.1-2,.3-3,.5.9.9,1.7,1.8,2.7,2.6.3.3,1.1,0,1.6,0,3.4,1,6.7,1.9,10.1,3,5,1.7,10,3.6,15,5.3,1.4.5,3.2.4,4.3,1.2,7.2,5.3,15.6,8.7,22.7,14.2,2.7,2.1,5.3,4.6,8.4,5.8,3.3,1.3,5,4.3,8.4,5.6,2.3.9,3.8,3.6,5.7,5.5,1.9,1.9,4.8,2.1,6.8,4.4,2.2,2.4,7.1,1.8,9,0,3-3,6.1-6,9.1-9.1,4.5-4.7,9-9.5,13.3-14.4,3.7-4.2,7.2-8.5,10.7-12.8,3-3.6,5.8-7.3,8.8-10.9,2.8-3.4,6.4-6.2,8.6-9.9,5-8.2,11.8-15.2,15.8-24.1,1-2.3,2.8-4.2,4.1-6.4,2.4-3.8,5.5-7.4,7.1-11.6,3.6-9.2,7.7-18.1,13.5-26.2,1-1.4,2.2-2.7,3-4.1,3-5.6,5.8-11.2,8.6-16.9.5-1,.9-2.2,1.1-3.3.2-1.5,0-1.9-2-1.5-5.9,1.1-11.8,1.3-17.7,2.8-3.2.8-6.8.3-10.2,0-1.8,0-3.7-1-5.5-1-2.6,0-5.4,1.1-7.9.6-2.1-.5-3.9.5-5.5.3-7.9-1.2-15.9-1.9-23.9-2-2.5,0-5.3-1.5-7.6-.8-4.3,1.2-8.1-.6-12.1-.7-5.7-.1-11.4-2-17.1-2.6-6.1-.7-12.3-.8-18.4-1.2-.7,0-1.4-.1-2.1-.2-3.8-.3-7.7-1.2-11.4-.7-3.5.4-6.9,2.2-10.3,3.5-3.2,1.3-5.9,3.7-9.6,3.1-5.4,4.2-12.1,5.6-18.2,7.9-6,2.3-12.4,4.1-18.3,6.4-7.4,2.9-15.2,4.8-22.6,7.8-7.7,3.1-15.7,5.4-23.8,7.6-9.3,2.6-18.4,5.8-27.6,8.7-5.4,1.7-11,2.7-16.1,5.4-3.3,1.8-3.4,3.2-.2,5.2,1,.6,2.2.7,3.2,1.3,4.4,2.5,8.8,4.9,13,7.5,2.6,1.6,4.8,4.1,7.5,5.2,7.9,3,14.3,8.2,20.8,13.4,4.2,3.4,7.6,7.7,13.3,9.3,3.5,1,7,2.3,10.5,3.2,5.5,1.4,11,3.2,16.8,2.3.5,0,1,.3,1.5.3,4,.1,7.4,2.9,11.7,2.2,2.6-.4,5.6,0,8.2.8,4.5,1.4,9,2,13.7,2.1,1.5,0,3,.5,4.5.8,5,.8,10.1,1.5,15.1,2.5,2.6.5,5.2,1.4,8.8,2.1M785.2,413.3c1.4.6,2.7,1.3,4.1,1.9,3.1,1.5,6.1,3.6,9.5,4.4,4.6,1.1,8.9,2.8,13.2,4.6,2.3,1,4.7,1.3,6.6.8,8-2.2,15.9-4.9,23.8-7.4,3.3-1.1,4-2.7,3.8-6.6-.1-2.2.5-4.4.8-6.6.4-3.8,1.1-7.5,1.2-11.3,0-1.4-1.1-3.6.9-3.2,2.6.5,2.3-3.2,3.8-2.2,1.5.9,4.4.9,4,4-.2,1.2-.3,2.6,1.7,2.5.1,0,.6,1.7.4,2.4-1.2,3.3-3.7,6.1-3.3,9.9,0,.2-.6.5-.7.8-.5,1.4-.9,2.9-1.3,4.3,1.5.2,3,.5,4.4.7.4,0,.8.1,1.1,0,2.6-1.4,5.2-2.3,8.3-2.7,3.2-.4,6.1-2.6,9.2-3.6,6.1-1.8,11.6-5.1,18.1-5.7,2.4-.2,4.7-1.5,7.1-2.4,2.5-.9,4.9-2.3,7.4-2.8,7.3-1.4,14.1-4.1,21.1-6.3,4.8-1.5,9.5-3,14.3-4.6,4.3-1.4,8.5-2.8,12.7-4.3,4.4-1.6,8.5-4.1,13-5,4.6-.9,8.3-3.5,12.7-4.6,6.2-1.5,12.2-4.3,18.2-6.6.7-.3,1.4-.6,2-1-.6-.8-1.1-1.9-1.9-2.2-1.9-.6-4-.9-6-1.1-5.6-.5-10.7-3.1-16.4-3.6-4.6-.4-9.1-3-13.6-4.7-4.2-1.5-8.4-3.1-12.6-4.7-7.8-2.9-16-4.5-23.4-8.5-3.4-1.9-7.3-3.5-11.1-4.3-7.6-1.5-15-3.4-22.1-6.5-1.9-.9-3.9-1.9-6.2-.1-1.5,1.2-3.8,1.3-5.5,2.3-4.8,3-9.7,6.2-15.3,7.2-3.3.6-4.6,3.4-7.4,4.4-7.4,2.8-14.7,6-22.1,9.1-6.3,2.6-12.5,5.4-18.8,8-2.8,1.1-5.7,1.9-8.4,3.1-4.3,1.9-8.3,4.4-12.7,5.8-7.2,2.2-14.7,3.4-21.9,5.6-6.5,1.9-13.3,3.2-19.6,6-4.2,1.9-8.6,3.6-13.2,4.5-4.1.8-7.6,2.5-11.1,4.5-1.9,1-1.9,2.2.2,3.2,2.6,1.2,5.2,2.2,7.8,3.2,4.5,1.7,9.1,3.1,13.5,5.1,3.8,1.8,5.8,2.1,8.8-.7,1.8-1.7,3.6-1,5.5-1.1.6,0,.6.7,0,2.2-.1.3,0,1,.2,1.1,1.4.8.8,2,1,3.1.4,2.3,1.4,4.3,4,5.3,3.1,1.2,5.9,3,10,4.5M1128.8,365.9c1.8.3,3.8,1.3,5.4.9,4.9-1.3,9.9-1.1,14.8-1.9,2.4-.4,4.7-.2,7.2-.9,2.2-.6,5.2-1.4,7.5,1.1,1.6,1.8,3.4.9,4.3-.8,1.7-3,3-6.3,4.5-9.4,1.8-3.7,3.4-7.6,5.6-11.1.9-1.5,1.8-2.8,2.2-4.5,1.5-6.2,4.2-11.9,6.8-17.6.3-.6,0-1.6-.3-2.2-.1-.3-1.2-.1-1.8,0-4.5,1.2-9,2.6-13.5,3.8-2.4.7-4.9,1.2-7.4,1.7-4.7.9-9.3,1.8-14,2.5-6.3,1-11.8,4.8-18.2,5.4-1.6.2-3.2,1-4.8,1.5-3.6,1.2-7.2,3-10.9,3.4-3.7.4-6.6,2.8-10.4,2.9-3.1,0-6.3.5-8.9,3.1-.6.6-3-.6-3.9,0-2.2,1.6-4,3.8-7.1,1.7-.1,0-.7.7-1.2.9-.5.3-1.3.9-1.5.7-2.3-1.8-3.4.1-4.9,1.2-1,.7-2.5,1.3-3.7,1.3-4.1,0-7.8,2.5-11.9,1.6-5.3,3.2-11.8,3.6-16.6,7.9-.5.4-1.2.5-1.8.8.6.2,1.2.5,1.8.6,5.2.4,10.5.7,15.7,1.1,2.7.2,5.4.7,8.2,1.1,2.4.3,4.7,1.1,7.1,1,2.1-.1,3.9.8,6.2.3,2.1-.5,4.6.7,7,.6,2,0,3.9-.4,5.8.2,2.3.7,4.7-.9,7.2,0,6,2.1,12.2.9,18.4,1.1,2,0,4.1-1.7,7.2,0M662.4,414.3c-4.8,1.8-9.6,3.7-14.5,5.4-4.4,1.5-5.2,2.5-5.5,6.9-.2,3.1.3,6.3-.5,9.1-1.8,6.2-1.5,12.4-1.7,18.7,0,1.7.2,3.1,1.7,4.2,3.3,2.5,6.5,5.1,9.8,7.6,4.8,3.5,9.6,7,14.6,10.2,1.7,1.1,4.4,2.9,5.8,2.3,5.1-2.3,10.5-3.2,15.7-5.1,4.7-1.8,8.8-7.7,8.5-12.7-.2-2.8.1-5.5,0-8.3,0-3.2-.4-6.5,0-9.7.5-3.7-.6-7.3,0-10.9.6-3.9,1.6-7.7,2-11.5.4-5.2,2.2-10.4.6-15.8-.3-.9.2-1.9.4-2.9-1.2-.1-2.6-.7-3.6-.3-7.5,2.7-14.9,5.6-22.3,8.6-3.4,1.3-6.7,2.9-11.1,4.3M720.1,462.3c3.2-1,6.4-1.8,9.5-3.1,2.7-1.2,6.2-2,6.6-5.6.3-3.7-.2-7.4-.4-11.1,0-1-.6-2-.4-2.9.8-4.3.7-11.1-.9-15.6-1.2-3.5.4-6.4,1.2-9.4.6-2.1,3.5-1.8,5.2-2.6,2.3-1.1,1.7,0,1.8,1.2,0,1.2-.3,2.7,1.8,2.3,1.8-.3,1.6,1.1,1.4,2.1-.2,1.3-.9,2.6-1,3.9-.4,8.3-.9,16.6-1.1,24.8,0,4.6,2.3,5.8,6.6,4.1,2.5-1,4.6-2.9,7.6-2.7.6,0,1.6-1.6,1.8-2.7.7-3.4,1-6.9,1.5-10.3.6-3.6,1.4-7.2,1.7-10.8.3-2.7,0-5.4-1.1-8.1-2.5-5.5-7.9-6.7-12.5-8.8-8.6-3.9-17.6-7-25.7-12-2.5-1.5-5.3-2.2-8.3-1.2-2.6.9-3.8,2.5-4.4,5.6-1.1,5.5-2.6,10.9-3.6,16.4-1,5.6-1.8,11.2-2.3,16.8-.3,3.7.7,7.7-.2,11.3-1.6,6.2-1.1,12.2.2,18.2,1,4.2,2.8,4.7,6.8,3.1,2.5-1,5.1-1.6,8.2-2.9M611.8,447.7c-.6-1-1.2-2.1-2-2.9-.2-.3-1.7,0-1.7.2-.5,2.9-.8,5.8-1.1,8.7,0,.5,0,10.5-.2,10.9-2.1,6.2-1.1,12.7-.7,19,.3,4.1,1.4,8-.2,12.1-.9,2.5,1.3,5.3,4,4.8,5.6-1,11-2.7,16.1-5.3,3.3-1.7,3.3-1.8.3-4.3-.4-.4-.9-.8-1.1-1.4-2.2-5.5-1.8-6.7,3.1-10.5.5-.4,1.1-1.2,1-1.7-.4-3,.3-5.7,1.4-8.4.5-1.1.8-1.6.4-3.1-1.3-5.4-5.2-8.5-9.1-11.5-2.9-2.3-6.1-4.3-10.2-6.5M869.2,429.4c-1.7-.6-3.4-1.2-5.1-1.9-5-2-11.9-4.3-16.9-2.5-2.7,1-5.5,1.4-8.2,2.2-.9.3-1.7,1-2.6,1.6.6,1,1.2,2,1.9,3,.3.4.8.7,1.3.8,3,.3,5.4,2.7,8.8,2.3,1.8-.2,3.7,1.2,5.6,1.8,4.6,1.5,9.1,3.7,13.7,4.3,4.9.7,9.6,1.7,14.3,3.3,5.6,1.9,11.2,4.1,16.9,6,1.6.5,3.6,0,5.3,0-1-1.4-1.9-2.9-3.1-4.1-.9-.9-2.3-1.3-3.5-1.8-1.4-.6-2.8-1-4.1-1.7-7.9-4.3-15.8-8.6-24.2-13.4M771.8,426.7c-.4,1.3-.5,2.7-1.1,3.8-1.7,3-1.4,6.2-1,9.4.2,1.4.7,3.2,3.1,2,8-4,16.5-6.9,25.1-9.3,1.4-.4,2.7-1.5,4-2.2-1.3-1-2.5-2.1-3.8-3.1-.4-.3-1.1,0-1.6,0-2.7-.7-5.6-1.2-8.1-2.3-4.9-2.1-9.6-4.5-14.4-6.7-.6-.3-1.3-.6-1.9-.6-.5,0-1.4.7-1.4,1,.4,2.3-1.2,5,1,8.1M631.7,444c1.4-2.2-.4-5.1.4-6.4,2.1-3.5.5-6.8.8-10.1.2-2.5-1.1-2.6-2.8-2.2-.8.2-1.5.9-2.3.9-4.6.5-8.5,2.7-12.6,4.5-3.2,1.4-3.3,5.5-.2,7.2,4.8,2.7,8.9,6.4,13.1,9.8,1.2,1,2.9,1.4,4.4,2.1-.2-1.4-.4-2.8-.6-4.2,0-.2,0-.4,0-1.6M642,471.4c-2-1.5-3.6-2.5-3.9,1.4-.2,3-1.6,5.8-1.9,8.8-.1,1.2.9,3.1,1.9,3.7,3.5,1.8,7,4.1,11.2,1.5,2.4-1.5,5.1-2.3,7.6-3.6.3-.2.3-1.9.2-2-4.3-1-6.3-5.1-10-6.9-.6-.3-1.6.1-2.2-.2-.9-.5-1.5-1.5-2.8-2.8M586.5,431q2.5-2.9-.5-4.9c-.4-.3-.7-.8-1.2-1.1-2-1.4-3.4-.9-3.8,1.5-.7,4.4-.3,4.9,4.3,5,.2,0,.4,0,1.1-.5M610.7,525.3c.5,0,1.1,2.2,1.6.1.6-2.7-2-2.9-3.5-3.2-1.6-.3-3.4.3-5.1.4,1.4.6,2.7,1.3,4.1,1.9.6.3,1.2.5,2.9.8M896.1,120.3c-.5.2-.9.5-1.4.7,1.2.8,2.4,1.7,3.7,2.5.3.2.9-.3,1.4-.4-.2-.2-.4-.6-.6-.7-.8-.5-1.7-1-3.1-2M948.9,235.6c.5.7,1.1,1.5,1.6,2.1,0,0,.6-.2.9-.3-.5-.6-.9-1.2-2.5-1.8M787.4,631.9c-1.2.2-2.5.4-3.7.6,1.3,0,2.6.2,3.9.3.1,0,.2-.2-.2-.9M888.1,516.1c-.7,0-1.4,0-2.1,0,.2.6.3,1.1.5,1.7.4-.4.7-.7,1.6-1.6M885.9,207c-.7,0-1.4,0-2.1,0,.7.4,1.4.7,2.1,0M882.7,519.3h2.1c-.7-.3-1.4-.7-2.1,0M841.2,186c.1-.6.3-1.1.4-1.7,0,0-.4-.1-.7-.2,0,.5-.2.9.3,1.9M589.7,369.6c-.2-.1-.4-.3-.6-.4,0,.3,0,.6.6.4M632.3,482.2c.1-.2.3-.4.4-.6-.3,0-.6,0-.4.6M832.1,86.4c-.2-.1-.4-.3-.6-.4,0,.3,0,.6.6.4M902.1,124.1c-.2-.1-.4-.3-.6-.4,0,.3,0,.6.6.4M1004.9,162.3c-.1.2-.3.4-.4.6.3,0,.6,0,.4-.6M1007.1,163.4c-.1.2-.3.4-.4.6.3,0,.6,0,.4-.6Z"/>
      <path d="M589.7,168.8c.8-.4,1.8-1.2,2.4-1,3,1.1,3,1,5.7,0,2.6-1,5.3-1.8,8-3,2.1-.7,4.5-.5,4.4-3.9,0-.6,1.4-1.5,2.3-1.7,8.7-2.9,16.9-6.6,24.7-11.4.7-.4,1.6-.3,2.5-.5,0,.6-.5,1.5-.2,1.8,1.1,1,4.2.1,4.6-2,.6-3,3.2-3.7,4.7-5.5.5-.6,1.9-.6,3.1-.5,0,.8-.4,1.3-1.1,1.9-.7,0-1.2.2-1.6.3,0,.2.1.5.2.7.6-.3,1.1-.7,2-1,1.5-.7,2.8-1.4,4.3-2.2.3-.3.3-.7.3-1-.2.3-.4.7-.9,1h-3c1.6-1.5,2.9-2.8,5.6-1.7,1.3.6,3.4-.5,5-.9.4-.1.8-.7,1.1-1.1-.6-.2-1.1-.4-1.7-.6-.5-.2-.9-.3-1.4-.5.2-.2.4-.5.7-.6,3-1.4,5.9-2.9,8.9-4.3.4-.2,1.1,0,1.9,0s.3.5,0,.8c-1.1.8-2,1.3-2.9,1.8.2.2.5.6.6.6.7-.4,1.5-.8,2.2-1.2.2-.2.3-.6.4-.9q1.9-.6,3.3-3.7c.1-.3.4-.5.7-.6,2.1-1.1,4.1-2.2,6.2-3.1.4-.2,1,.1,1.4.2-.2.4-.5.8-.7,1.1-.3.5-.6,1-1,1.5.6,0,1.3,0,1.8-.3.8-.3,1.6-.6,2.2-1.1.8-.7,1.9-1.6-.4-1.6.1-.4.2-1,.3-1,5.3-.1,8.6-4.2,12.7-6.7,1.4-.9,2.6-2.3,4.1-3,5.5-2.6,9.7-7.7,16.4-8.4.4.8.5,1.2.6,1.7,1-.5,2-1,2.9-1.6.4-.2.6-.7.9-1.1-.6,0-1.2-.1-1.8,0-.8.1-1.6.5-2.4.7.9-2.3,2.8-3.3,5.1-3.5.4,0,1.1-.2,1.3,0,.4.4,1,2.2.9.5-.1-3.6,3.4-1.6,4.1-3.4,2,2.6,3.1-.6,5-.9.8-.5,1.3-.8,1.9-1.1-.4-.4-.7-.9-1.1-1.3,5.3-3,10.1-6.9,16.1-8.6,1.2-.3,1.9-.3,2.6-1.7.5-1.1,1.7-4.3,4.4-1.8,0,0,.8-.4,1.1-.7,3.4-3.6,7.3-6.4,12.2-7.7,2.2-.6,4.2-2.1,6.2-3.2.1,0-.4-1-.4-1.5,0-.6.3-1.5.6-1.6,4.1-1.4,7.6-3.6,10.7-6.6.6-.6,1.9-.6,2.8-1,1.4-.7,2.7-1.6,4-2.3.7-.4,1.4-.6,2.1-.9.9-.4,2.2-.5,2.7-1.2,1.4-1.9,3.1-3.2,5.3-4.1,2.2-1,3.8-3.3,5.7-4.2,3.2-1.6,6.1-3.3,8.1-6.3,3.9,1.2,5.2-3.6,8.7-3.8.9,0,3.2-.3,3.2-2.6,0-.5,1.6-1,2.5-1.5,2.1-1.5,4.8-1.8,6.1-4.8,1.2-2.8,4.4-3.5,7.4-3.8,2.7-.3,2.8,2.1,3.9,3.5,1.2,1.6-.5,2.2-1.3,2.9-1,.9-2.1,1.7-3.3,2.3-8.7,4.6-16.4,10.9-24.4,16.7-7.4,5.3-15.4,9.7-23,14.5-2.6,1.6-4.8,3.9-7.5,5.3-15,8.1-28.8,17.9-43.2,26.9-3.1,1.9-6.7,3-9.8,4.8-12.8,7.3-25.4,14.9-38.3,22-7.3,4-14.9,7.3-22.4,11-.6.3-1.1.8-1.6,1.3-4.6,3.4-10.1,5.1-15.2,7.4-4.1,1.8-7.9,4.3-11.9,6.4-7.1,3.7-14.2,7.3-21.4,10.8-9.8,4.6-20,8.1-30,12.2-12.3,5-24.6,9.9-37.2,14.3-6.4,2.2-13.1,3.8-19.6,6-6,2-11.7,4.8-17.7,6.6-7.2,2.2-14.1,5.2-21.6,6.4-6.3,1-12.3,3.2-18.5,4.7-3,.7-6,1.2-9,1.6-6,.8-12,.8-18,2.1-3.1.7-6.4,0-9.7.1-1.4,0-3-.2-4.1.5-2.5,1.6-3.3.1-4.1-1.7-.6-1.3.9-3.8,2.8-4.1,2.1-.4,4.3-.3,6.4-.5,6.1-.5,12.1-1.3,18.2-1.6,3.8-.2,7.5-.4,11.1-1.8.5-.2,1-.4,1.4-.4,8.3,0,16-3.3,24.1-4.4.3,0,.9-.8.8-.9-1.9-3.2,1.4-2.6,2-2.1,2.3,1.9,4.1.7,6.2,0,3.4-1.2,7.7-.7,9.1-5.4,0-.2,1.4,0,2.3,0,2.6,3.1,4.9-.1,7.1-.2,1.8,0,3.4-1.9,5.3-2.7,1.2-.5,2-.8,2-2.4,0-1.7,1.1-1.4,1.8-.4-.3.6-.3.9-.3,1.3.2-.3.4-.7.6-1,2.5-1.6,4.7-3.8,8.3-3,.3.3.3.8,0,.8-.8.4-1.3.7-2.2,1.1-.8,0-1.3,0-1.8,0-.4,0-.7.4-1.1.6.3.1.6.5.8.4.8-.3,1.5-.7,2.6-1,.8-.4,1.3-.7,2.2-1.1,0-.4,0-.7-.3-1.1.1-.3.2-.7.4-.9,1.5-1.7,4.2,3.4,5.7-1.1.5-1.4,3.7-1.9,5.6-2.7,1.5-.6,3.1-1.8,4.6-1.6,2.1.2-.1.9-.4,1.7-.7.4-1.2.5-1.6.6,0,.2.1.5.2.7.6-.3,1.1-.7,1.7-1,2.2-.5,4.3-1.1,6.7-1.9.3-.6.3-.9.3-1.3-.2.3-.4.7-.6,1-2.8-1.7,0-3,.7-3.1,5.8-.7,10.5-4,16.2-5.2,0,.8-.2,1.3-.4,1.8.8,0,1.7-.1,2.5-.2-.6-.6-1.3-1.3-1.9-1.9M581.7,174.2c0-.3,0-.7,0-1-.2.3-.4.7-1.2,1,0,.3,0,.7,0,1,.2-.3.4-.7,1.2-1M717.4,108.5c0-.3,0-.7,0-1-.2.3-.4.7-1.2,1-.5,0-.9.2-1.4.3,0,.2.1.5.2.7.6-.3,1.1-.7,2.2-1M559,181.7c-.1.2-.3.4-.4.6.3,0,.6,0,.4-.6M612.9,162.3c.1-.2.3-.4.4-.6-.3,0-.6,0-.4.6M618.3,159.1c-.1.2-.3.4-.4.6.3,0,.6,0,.4-.6M621.5,156.9c-.1.2-.3.4-.4.6.3,0,.6,0,.4-.6M713.1,110.6c.1-.2.3-.4.4-.6-.3,0-.6,0-.4.6Z"/>
      <path d="M888.9,645.6c-.6.3-1,.2-1.3.3-2.7,1.1-5.1,1.8-4.9-2.6-4-4.2-2.1-9-1-13.6.4-1.7,1.2-2.7,3.7-1.4,2.6,1.3,2.9,3.4,4,5.4,2,3.9,3.2,7.8-.5,11.9M887.5,643.7c.5,0,.9-.2,1.4-.3,0-.2-.2-.7-.2-.7-.6.1-1.1.3-1.2,1Z"/>
      <path d="M526.5,191.4c-.1-.3,0-.8.1-.9,1.9-.4,3.9-.7,5.8-1,0,0,.1.2.2.4-1.9.5-3.9,1-6.1,1.5Z"/>
      <path d="M605.9,164.2c-1.4.2-2.7,0-4.1,0,1.2-.6,2.4-1.3,3.6-1.9.5-.2,1-.4,1.5-.5-.3.7-.7,1.5-1,2.5Z"/>
      <path d="M736.2,97.7c-.9,0-2.5.4-2-1.3.1-.5,1.7-.6,2.8-.6,0,.8-.4,1.3-.8,1.9Z"/>
      <path d="M462.4,578c.3.3.3.7.3,1-.2.7-.4,1.5-.7,2.2,0,0-.9-.2-1.3-.4.3-.7.5-1.4.8-2.1.1-.3.5-.5,1-.7Z"/>
      <path d="M965.9,67.3c.2-.4.6-.8,1-.8.7.1,1.3.6,1.9.9-.2.4-.4.8-.6,1.2-.7-.4-1.4-.7-2.4-1.3Z"/>
      <path d="M960,64.6c-1.2,1.7-1.8.2-2.7-.6,0,0,.1-.5.2-.7.7.3,1.5.7,2.5,1.3Z"/>
      <path d="M976.4,153.7c-.9,0-1.2,0-1.6,0-.5,0-1-.2-1.4-.3.3-.2.6-.7.9-.7,1,0,2,.2,3,.3,0,0,0,.3,0,.4,0,.1-.2.3-.9.4Z"/>
      <path d="M974.2,69.4c-.7.3-1.5.5-2,.2-.5-.3-.8-1-1.2-1.6.5.1,1,.3,1.4.4.6.2,1.2.4,1.8.9Z"/>
      <path d="M1242.1,200c.3.2.3.3.3.5-.2.9-.4,1.8-.6,2.6,0-1.1,0-2.1.3-3.2Z"/>
      <path d="M1014.1,255.2c.2-.3.3-.3.5-.3.9.2,1.8.4,2.6.6-1.1,0-2.1,0-3.2-.3Z"/>
      <path d="M1052.8,175.2c-.5-.7-.6-1.4-.6-2.1.4.7.7,1.4.6,2.1Z"/>
      <path d="M642.2,147c-.4-.3-.6-.9-.7-1.4,0,0,.4-.1.7-.2,0,.5.2.9,0,1.6Z"/>
      <path d="M997.9,76.4c.6-.2,1.3,0,1.9,0,0,.2-.1.5-.2.7-.6-.1-1.1-.3-1.7-.7Z"/>
      <path d="M1002.5,78c.3-.4.9-.6,1.4-.7,0,0,.1.4.2.7-.5,0-.9.2-1.6,0Z"/>
      <path d="M462.9,578c0-.4,0-.7.5-1.1,0,.4,0,.7-.5,1.1Z"/>
      <path d="M464,577c0-.4,0-.7.5-1.1,0,.4,0,.7-.5,1.1Z"/>
      <path d="M517.3,194.6c0,.3-.1.7-.3,1,0-.3,0-.7.3-1Z"/>
      <path d="M517.9,194.6c0-.3.1-.7.3-1,0,.3,0,.7-.3,1Z"/>
      <path d="M525.4,192.5c0-.4,0-.7.5-1.1,0,.4,0,.7-.5,1.1Z"/>
      <path d="M602.9,533.1c.3,0,.3.4.4.7-.2-.1-.4-.3-.4-.7Z"/>
      <path d="M673.5,130c0,.4,0,.7-.5,1.1,0-.4,0-.7.5-1.1Z"/>
      <path d="M674,130c0-.3.1-.7.3-1,0,.3,0,.7-.3,1Z"/>
      <path d="M726.8,220.2c0-.3.4-.3.7-.4-.1.2-.3.4-.7.4Z"/>
      <path d="M970.7,151.8c0,.3-.4.3-.7.4.1-.2.3-.4.7-.4Z"/>
      <path d="M974.2,70c.3,0,.7.1,1,.3-.3,0-.7,0-1-.3Z"/>
      <path d="M978.8,154.5c0-.3.4-.3.7-.4-.1.2-.3.4-.7.4Z"/>
      <path d="M985.3,72.7c0-.3.4-.3.7-.4-.1.2-.3.4-.7.4Z"/>
      <path d="M997.9,75.9c-.3,0-.7-.1-1-.3.3,0,.7,0,1,.3Z"/>
      <path d="M1106.4,548.1c0,.3-.4.3-.7.4.1-.2.3-.4.7-.4Z"/>
      <path d="M1191,336.5c0-.3.4-.3.7-.4-.1.2-.3.4-.7.4Z"/>
      <path d="M1242.1,197.9c.3,0,.3.5.3.8-.2,0-.4-.4-.3-.8Z"/>
      <path d="M1242.4,199.2c.2,0,.4.4.3.8-.3,0-.3-.5-.3-.8Z"/>
      <path d="M1242.7,197.9c0-.3.1-.7.3-1,0,.3,0,.7-.3,1Z"/>
      <path d="M896.7,545.7c4.8,2,8.1,5.6,12.7,6.9.6.2.8,1.4,1.3,2.1-.6.2-1.2.4-1.8.7-.4.2-.7.6-1.1.9.5.4,1.2,1.3,1.6,1.2,1.5-.3,3-.6,4.2-1.4,2-1.2,4.3-1.2,6.1-2.1,2.1-1,2.6.7,3.8,1,.9.2,1.7,1.8,1.9,2.8,0,.6-1.7,1.4-1.7,2.1-.2,2.5-5,3.4-2.4,6.8-.9.5-1.7,1.3-2.6,1.4-3.9.6-9.3-2.8-11.3-6.5-.5-.9-1.7-1.4-2.7-2-4-2.8-9-3.9-12.4-7.9-1.2-1.4-3.4-2.2-5.2-2.8-6.2-1.8-10.7-6.2-15.9-9.7-10-6.7-21.1-11.2-32.5-15.2-3.1-1.1-6-3.3-9.1-3.9-6-1-11.1-5-17.5-4.9-1.9,0-3.7-2.1-5.7-3-5-2.3-10.3-3.8-15.1-6.4-3.3-1.8-7.1-2.7-10.6-4.2-4.9-2-9.7-4.3-13.4-7.7-3.9-3.5-8.2-6.3-12.6-8.8-5.5-3.1-11.1-6.4-17.8-6.4-.5,0-1-.1-1.5-.3-4-1.2-5.1-2.2-4.6-4.4.7-2.9,3.8-5.5,6.8-5,3.2.5,6.3.5,9.4,2.5,5.2,3.3,11.1,5.3,16.4,8.3,4.4,2.6,8.1,6.3,12.5,8.8,5.5,3.1,11.3,5.6,17,8.3,4.2,1.9,8.5,3.7,12.8,5.4,4.7,1.8,9.2,3.8,14.3,4.5,2.7.3,5.4,1.7,7.8,3.2,6.8,4,14.6,5.4,21.7,8.6,8.4,3.8,16.7,7.5,24.2,13.1,5.4,4,11.4,7.1,17.1,10.6,1.7,1.1,3.4,2.2,5.7,3.2M909.6,561.3c.2.1.4.3.6.4,0-.3,0-.6-.6-.4Z"/>
      <path d="M925.5,563.8c-2.9,0-2-1.1-.9-2.3.5-.5.9-1.1,1.3-1.7.3.9.7,1.7.9,2.6,0,.3-.7.8-1.3,1.4Z"/>
      <path d="M620.2,486.2c.1-.8.6-1.3,1-1.9.3.6.9,1.3.9,1.9,0,2.4-1,.6-1.8,0Z"/>
      <g id="lTpq9I">
        <image id="lTpq9I-2" data-name="lTpq9I" width="1970" height="696" transform="translate(.3 314.4) scale(.2)" xlink:href="pdp_3-1.png"/>
      </g>
      <g id="TbcFSs" class="cls-1">
        <image id="TbcFSs-2" data-name="TbcFSs" width="470" height="242" transform="translate(335 86.3) scale(.5)" xlink:href="pdp_3-2.png"/>
      </g>
      <g id="xgjwuG" class="cls-1">
        <image id="xgjwuG-2" data-name="xgjwuG" width="1806" height="250" transform="translate(630.1 738.6) scale(.3)" xlink:href="pdp_3-3.png"/>
      </g>
      <g id="_x31_qV5Tq" class="cls-1">
        <image id="_x31_qV5Tq-2" data-name="_x31_qV5Tq" width="228" height="240" transform="translate(145.4 591.1) scale(.4)" xlink:href="pdp_3-4.png"/>
      </g>
    </g>
  </g>
</svg>