<?xml version="1.0" encoding="UTF-8"?>
<svg id="Contours" xmlns="http://www.w3.org/2000/svg" xmlns:xlink="http://www.w3.org/1999/xlink" version="1.1" viewBox="0 0 1882 1882">
  <!-- Generator: Adobe Illustrator 29.1.0, SVG Export Plug-In . SVG Version: 2.1.0 Build 142)  -->
  <defs>
    <style>
      .st0 {
        font-family: MyriadPro-Regular, 'Myriad Pro';
        font-size: 72px;
      }

      .st1 {
        fill: none;
        stroke: #000;
        stroke-miterlimit: 10;
        stroke-width: 7px;
      }
    </style>
  </defs>
  <path d="M1145,1251.5c1.1-1.8.8-3-1.5-3-9.2,0-17.8-6.3-27.6-2.3-3.6,1.5-8.3,0-12.4.3-13.5,1.2-26.9,2.4-40.3,4.1-2.4.3-4.4.4-6.8.2-7-.6-14.3.4-21.4,1.2-7.9.9-15.7,2.4-23.5,3.5-10.1,1.4-20.2,2.7-30.3,4-9.6,1.3-19.2,2.6-28.8,4-17.1,2.6-34.1,5.3-51.2,8-11.1,1.7-22.3,3.2-33.4,5.1-10.9,1.8-21.7,4.1-32.5,5.9-6.5,1-13.1,1.2-19.7,2.1-8,1.1-15.9,2.6-23.9,3.8-7.2,1.1-14.5,2-21.7,3.2-10.2,1.6-20.3,3.3-30.4,5-10.1,1.7-20.3,3.2-30.4,5-10.7,1.9-21.3,4.1-32,5.9-7,1.2-14.2,1.9-21.2,3.1-9.5,1.5-18.9,3.4-28.4,4.9-7.4,1.2-14.8,1.9-22.2,3.1-10.5,1.6-21,3-31.4,5.1-13.3,2.7-26.5,5.9-39.8,8.9-15.5,3.6-30.9,7.6-46.5,10.9-13.1,2.8-26.4,4.7-39.6,7.1-5.4,1-10.9,1.9-16.2,3.1-1,.2-2.7,1.7-2.5,2.1,1.9,5.5-2,2.7-3.8,2.8-3.7,0-7.3,0-11,0-.8,0-1.5-.3-2.3-.5.5-.8.8-2.1,1.4-2.3,5.1-1.8,10.1-3.8,15.4-5.1,12.6-3,25.3-5.7,38-8.4,13.3-2.9,26.6-5.8,39.9-8.7,11.3-2.4,22.7-4.9,34-7.2,12.8-2.6,25.5-5.2,38.3-7.7,10.5-2.1,21-4.2,31.5-5.9,6.3-1,12.8-1.2,19.2-2.1,10.2-1.4,20.4-3,30.5-4.7,9.8-1.6,19.6-3.5,29.3-5.2,7.7-1.4,15.5-2.9,23.2-4.3,7.8-1.3,15.6-2.5,23.5-3.7,11.7-1.9,23.4-3.9,35.1-5.8,8.4-1.4,16.9-2.8,25.3-4.2,12-2,24-4.1,36-6,9.6-1.5,19.2-2.5,28.8-4.1,13.7-2.2,27.4-4.7,41.1-6.9,9.1-1.5,18.2-2.6,27.3-4.1,11.5-1.9,23-4,34.5-5.9,5.8-.9,11.8-1.4,17.6-2.1,10.3-1.3,20.5-2.8,30.8-3.9,6-.7,12.1-.5,18.1-1.1,11.6-1.2,23.2-2.7,34.8-3.9,4-.4,8.1-.7,12.1-1,14.4-1,28.8-1.9,43.3-3,11.8-.9,23.5-2.1,35.3-2.9,11.4-.8,22.8-1,34.2-2.1,10.9-1.1,21.6-3.4,32.4-4.8,7.5-1,15.1-1.6,22.7-2,10.4-.5,20.7-.6,31.1-1.1,10.7-.5,21.5-1.2,32.2-2,20-1.5,40.1-3.1,60.1-4.5,1.6-.1,3.3.5,4.9.5,11.9-.3,23.7-.5,35.6-1,14.2-.6,28.4-1.3,42.7-2,12.4-.6,24.8-1.2,37.2-2,12.9-.9,25.8-1.9,38.8-3,10.9-.9,21.8-2,32.8-3,12.6-1.1,25.2-2.3,37.8-2.9,18.7-.9,37.4-1.4,56.2-2.1,12.2-.4,24.5,0,36.6-1.2,10.5-1.1,20.6,1,30.8.9,7.5-.1,15.3-3,22.4-5.9,11.5-4.7,22.7-10.4,34-15.8.6-.3,1.1-.9,1.6-.9.9,0,1.9.3,2.8.4-.7.7-1.2,1.6-2,2-11.4,5.6-22.8,11-34.1,16.6-2.1,1-3.9,2.8-5.8,4.2,2.4.6,4.7,1.4,7.1,1.7,15,2.1,30,4,45,6.1,9.1,1.3,18.2,2.8,27.4,3.9,4.1.5,4.1,2,2.5,5-3.4,6.8-9.1,11.1-15.8,14-16.5,7-33.6,12.7-51.2,16.5-9,1.9-18,3.2-27.1,4.5-2.3.3-4.7-.6-7.1-.9-10.6-1.5-18.5,4.1-26.4,9.9-2.7,2-5.9,3.5-8.9,5-.6.3-1.6-.1-2.3-.2.5-.6.8-1.3,1.4-1.7,1.3-1.1,2.8-2.1,4.2-3.2,1-.8,2-1.6,3-2.5-1.3,0-2.6-.4-3.9-.2-11,1.3-21.9,2.7-32.8,4-8.7,1-17.5,1.7-26.2,3.1-5.2.8-10.5,2-15.3,4-14.3,6-28.5,12.5-42.7,18.9-6.2,2.8-12.4,5.5-18.6,8.2-.6.3-1.4.3-2.1.5.5-.6.8-1.4,1.4-1.7,7.3-4,14.5-8.3,22.1-11.9,9-4.3,18.4-7.9,27.6-11.9.9-.4,1.6-1.4,2.4-2.1-1.2-.7-2.4-2-3.6-2-5-.2-10.1-.1-15.2,0-15.8,0-31.4,1.7-46.9,4.9-4.7,1-9.7.6-14.6,1.1-12.5,1.3-24.9,2.7-37.3,4-3.7.4-7.4.8-11.1,1-11.9.7-23.8,1.3-35.7,2-15.4.9-30.8,1.9-46.3,3-12.3.9-24.5,2-36.8,3-9.9.7-19.8,1.3-29.7,2-12.6.9-25.2,2-37.8,3-8.4.7-16.8,1.2-25.2,2-14.7,1.5-29.3,3.3-43.9,4.9-4.3.5-8.7.8-13.1,1-11,.4-22.1.3-33.1,1.1-11.8.9-23.6,2.6-35.3,3.9-8.6,1-17.2,2-25.8,3-11.8,1.3-23.6,2.7-35.3,4-7.4.8-14.8,1.3-22.2,2-11.6,1.2-23.2,2.7-34.8,4-7.2.8-14.5,1.2-21.7,2-11.1,1.2-22.2,3-33.4,3.8-8.5.6-17.1-.4-25.7.2-13.1.9-26.2,2.5-39.3,3.9-8.8.9-17.6,1.7-26.2,3.1-9.3,1.5-18.5,3.6-27.8,5.3-8.9,1.6-17.7,3-26.6,4.6-9,1.6-17.9,3.8-26.9,4.8-9.3,1-18.7.8-28.1,1.2-8.4.3-16.8.9-25.3.9-3.9,0-7.8-1.7-11.7-1.8-5.6-.1-11.2.3-16.8.8-6.1.5-12.1,1.4-18.1,2.1-10.9,1.3-21.9,2.8-32.8,4-10.6,1.1-21.2,1.9-31.7,3.1-11.8,1.2-23.6,2.7-35.3,3.9-7.9.8-15.8,1.4-23.7,2-13.1,1-26.2,1.6-39.2,3.1-12.1,1.4-24,4.4-36,5.7-9.8,1.1-19.7,1.1-29.6.9-2,0-3.9-3.2-5.8-4.9.3-.3.6-.8,1-.8,1.2-.1,2.3,0,3.5,0,13.9-.3,27.8,0,41.6-1.2,11.4-1,22.7-3.9,34.1-5.7,4.3-.7,8.7-.8,13.1-1.1,23.8-1.4,46.9-6,69.8-12.6,21.9-6.4,44.2-11.7,66.3-17.4,13.3-3.4,26.5-6.9,39.9-9.9,16.2-3.6,32.5-6.7,48.8-10.1,12.9-2.7,25.7-5.7,38.6-8.3,7.6-1.5,15.3-2.5,23-3.7,3.9-.6,7.8-1.4,11.7-1.9,2.3-.3,4.9-.8,6.9,0,9.4,3.9,18.5,1.2,27.7-.7,12-2.5,24-4.9,35.9-7.4,13-2.8,26-5.7,39-8.4,6-1.3,12-2.3,18-3.6.9-.2,1.8-.5,2.6-1,.9-.5,1.6-1.3,2.4-1.9-.9-.3-1.9-1.1-2.8-1-8.9.9-17.9,1.9-26.8,3-9.8,1.2-19.6,2.6-29.3,4-9.3,1.3-18.5,2.8-27.8,4-6.5.8-13.1,1.2-19.7,2.1-12.5,1.6-24.9,3.4-37.4,4.9-6.5.8-13.1,1.2-19.7,2.1-8,1.1-15.9,2.6-23.9,3.8-5.7.8-11.4,1.4-17.1,2.2-10.1,1.3-20.2,2.8-30.3,3.9-5.2.6-10.4.8-15.6,1-1.2,0-2.4-1.1-3.6-1.7,1-.4,2-1.1,3.1-1.2,8-.7,16.1-1.2,24.2-2.1,9.5-1.1,18.9-2.6,28.3-4,6.3-.9,12.5-1.9,18.8-2.9,10.3-1.6,20.6-3.3,31-4.8,6.2-.9,12.4-1.4,18.6-2.2,10.6-1.3,21.2-2.7,31.8-4,8.1-1,16.2-2,24.3-3,13.3-1.7,26.6-3.4,39.9-5,9.4-1.1,18.9-1.8,28.2-3.1,8.1-1.1,16.2-2.7,24.4-3.9,5.7-.8,11.5-1.2,17.2-2.1,10.2-1.5,20.3-3.3,30.5-4.7,6.8-1,13.7-1.4,20.6-2.3,10-1.2,19.9-2.7,29.8-4,.7,0,1.3,0,2,0,11.9-.3,23.7-.6,35.6-1.1,2.4-.1,4.8-1.3,7.5-1.7-.7,1-1.7,1.7-2.6,2.4,1.3.8,2.6,2.2,4,2.3,2.7.1,5.4-.6,8.1-.9,10.6-1,21.2-2.2,31.8-3,13-.9,26.1-2.2,39.2-1.9,22.8.6,45.1-1.5,67.1-7,4.3-1.1,9.1-.2,13.6-.1.7,0,1.3.4,2,.6-.6.5-1.3,1.3-1.9,1.3-2-.1-4.2-1.2-6.1-.8-8.3,1.6-16.6,3.3-24.8,5.4-18.2,4.7-36.2,10-54.5,14.4-7.7,1.9-15.9,1.8-23.7,3.2-10.4,2-20.8,4.5-31.1,6.9-7.9,1.9-15.7,4-23.4,6.2-1.2.3-2.2,1.6-3.2,2.4,1.1.1,2.2.2,3.3.4,1.5.3,3.1,1.1,4.6.9,11.3-1.2,22.6-2.7,33.9-3.9,10.6-1.1,21.2-1.7,31.7-3.1,14.4-2,28.8-4.5,43.1-6.9,15.4-2.6,30.9-4.9,46.2-8.1,16.1-3.4,32.1-7.8,48-11.9,9.9-2.5,19.5-6.5,30.1-5,.6,0,1.2.3,1.8.4-.4.2-.7.5-1.1.6-8,1.7-16,3.2-23.9,5-11.1,2.5-22.1,5.3-33.2,8-1,.3-1.8,1.4-2.7,2.1.9,1,1.6,2.4,2.7,2.7,1.3.5,3,.3,4.5,0,11.3-1.3,22.6-2.7,33.8-3.9,7.3-.8,15.1,0,19.1-8.4.2-.4,1-.6,1.6-.7,4.9-.7,9.8-1.9,14.7-1.9,10.8,0,21.3-1.2,31.4-5.1.5-.2,1.3,0,1.9.1-.4.6-.8,1.1-1.1,1.8-.2.5-.3,1.2-.4,1.8,2.2.4,4.3,1.4,6.5,1.2,4.6-.3,9.1-1.4,13.7-1.9,11.6-1.1,23.2-2.1,34.8-3,9.4-.8,18.8-1.1,28.2-2.1,15-1.5,30-3,44.9-5.1,6.4-.9,13.5-1.1,18-7.3.5-.7,2.9-1,3.8-.4,5.1,2.9,10.2.9,14.7-.5,21.7-6.6,44.1-8.3,66.5-9.4,9.7-.5,19.4,1.1,29.1.7,6.2-.3,12.3-2.3,18.3-3.9,3.4-.9,6.7-2.4,9.8-4,2.3-1.2,1.5-2.7-.7-2.9-2.9-.3-5.8-.1-8.7,0-21.4.3-42.7.7-64.1,1-2.7,0-5.4,0-8.2,0-18,.3-36.1.7-54.1,1-.7,0-1.3,0-2,0-12.7,2-25.3,4.3-38,5.9-9.7,1.2-19.4,1.4-29.2,2.1-9.2.6-18.4,1.5-27.7,2-14.2.8-28.4,1.4-42.7,2-11.2.5-22.5.7-33.8,1-12.2.3-24.4.6-36.6,1-2.9,0-5.7.8-8.6.9-2.7.2-4.3.4-2.4,3.8.8,1.4.3,3.5,0,5.2,0,.3-1.8.4-2.8.6-.2-1.5-1.1-3.2-.6-4.4,1.3-3.3,0-4.3-2.9-4.2-6.5.3-13.1.6-19.6,1-11.6.6-23.1,1.3-34.7,2-10.9.6-21.8,1.2-32.7,2-12.3.9-24.5,2-36.8,3-11.6,1-23.2,2.2-34.8,2.9-13.2.9-26.4,1.4-39.7,2.1-4.4.2-8.7.5-13.1,1.1-1.2.2-2.2,1.6-3.4,2.4.9.6,1.8,1.3,2.7,1.6,1.5.5,3.1.8,4.7.8,18-.3,36.1-.6,54.1-.9,2.1,0,4.2.2,6.4.3-2,.2-3.9.5-5.9.6-8.5.4-17.1.7-25.6,1-1.3,0-2.7,0-4,.1-9.1,1.3-18.3,2.6-27.4,3.9M1597,1260c-1.7,1.1-5.9-.3-4.7,3.6.3,1.1,4.3,1.2,6.6,1.5,1.4.1,2.8-.4,4.2-.5,6.4-.7,12.8-1,19.2-2.1,12.6-2.1,25-5.2,37.6-6.8,12.3-1.5,24.8-1.5,37.1-2.2,3.2-.2,6.4-.4,9.5-1.1,11.8-2.8,23.6-5.9,35.3-8.8.9-.2,1.9.2,2.9.3-.3.8-.5,1.8-1,2.4-3.5,3.1.4,2.7,1.6,3.3.8.4,2,.3,3,0,10.2-2.3,20.4-4.8,30.6-6.9,13.3-2.8,25.6-8.2,37.2-15.1,1.3-.8,1.9-2.7,2.8-4.1-1.2-.6-2.3-1.6-3.6-1.8-5.2-.8-10.5-1.3-15.7-2-9.5-1.3-18.9-2.6-28.3-4-6.6-.9-13.2-2-19.8-2.9-12.1-1.6-24.1-2.7-35.5,3.8-10.6,6-21.6,11.3-32.4,17-1.3.7-2.3,1.8-3.5,2.8,1.7.8,3.4,2.2,5,2.2,12.2-.1,24.4-.6,36.6-.9.5,0,1,0,1.5,0,12.4-2.3,24.7-4.6,37.4-2,2.1.4,4.2.3,6.3.5-2.3.5-4.5,1.3-6.8,1.5-3.8.2-7.7,0-11.5,0s-9.8-.7-14.5.1c-13.5,2.5-27.1,4.1-40.9,3.9-16.3-.3-32.7-.1-49,0-3.5,0-6.9.8-10.4,1.5-10,1.9-19.5,5.7-30.3,3.7-10-1.9-20.4-1.6-30.6-2.3-.6,0-1.3-.4-1.9-.6.6-.1,1.2-.3,1.9-.3,8-.9,16.7,2.6,23.8-4,.3-.2,1,0,1.5,0,6.2-.3,12.4-.7,18.6-1,10-.4,20.1-.9,30.1-.9,7.2,0,14.4.8,21.6.8,2.7,0,5.7-.8,8-2.1,4-2.3,7.6-5.2,11.1-8.1,1.3-1.1,2-2.9,3-4.4-2-.4-4-1.3-6-1.2-6.1.4-12.1,1.6-18.2,1.8-12.4.6-24.9.3-37.2,1.2-7.2.5-14.3,2.2-21.3,3.9-11.1,2.8-21.8,7.3-33.5,6-.9,0-1.8.5-2.7.7-9,2.1-17.9,4.1-26.9,6.4-1.1.3-1.9,2-2.9,2.9-.8.7-1.8,1.7-2.7,1.7-1.5.1-3.1-.7-4.7-.7-19.6.9-39.2,1.8-58.8,3-7.1.5-14.2,1.7-21.3,3-10.5,1.8-21,4.2-31.5,5.9-10.9,1.7-21.9,2.8-32.8,4.1-14,1.7-27.9,3.5-41.9,5-8.7.9-17.4,1.4-26.2,2-14.4,1-28.8,1.9-43.3,3-10.9.9-21.9,1.7-32.8,3-11.5,1.4-22.9,3.4-34.4,4.9-12.1,1.5-24.2,2.9-36.3,4-15.9,1.5-31.9,2.6-47.8,4.1-9.6.9-19.4,1.1-28.7,3.2-19.6,4.4-38.9,9.9-58.3,14.8-8.5,2.1-17,4-25.5,5.5,4.7-1.8,9.4-4.1,14.2-5.4,17.8-4.9,35.7-9.5,53.7-14,8.9-2.3,18-3.9,27-6.1,11.9-2.9,23.9-5.9,35.7-9,.9-.2,1.6-1.6,2.4-2.4-1.1-.5-2.3-1.6-3.4-1.4-5.8.8-11.5,2-17.2,3-11.5,2-23,4.1-34.5,5.8-7,1-14.1,1.1-21.1,2.1-12,1.8-24,4.1-36,5.9-8.2,1.2-16.5,2-24.7,3.1-9.5,1.3-18.9,2.7-28.3,4-7.4,1-14.9,1.7-22.2,3.1-12.1,2.4-24.1,5.2-36.2,7.9-13,2.8-26,5.5-39,8.3-13.8,2.9-27.6,5.8-41.4,8.7-12,2.5-23.9,5.3-35.9,7.5-13.2,2.4-26.5,4.3-39.8,6.6-7,1.2-13.9,2.6-20.8,4.1-.9.2-1.6,1.6-2.4,2.4.6.5,1.2,1.4,1.8,1.4,5.2.4,10.4,1.2,15.6,1,7.9-.3,15.8-1.1,23.7-1.9,11.1-1.2,22.3-2.3,33.3-4.1,11.9-1.9,23.7-4.8,35.6-6.9,12.6-2.2,25.4-3.8,38-6.1,12.8-2.3,25.5-3.7,38.5-4.1,14.1-.4,28.2-1.6,42.2-3,8.7-.8,17.3-2.2,25.8-4.1,5.3-1.2,10.4-3.8,15.5-5.3l-2.9,3.1c1.7.8,3.3,2.3,5,2.3,5.4,0,10.7-.3,16.1-.9,10.8-1.2,21.5-2.8,32.3-3.9,6.2-.6,12.4-.3,18.6-1.1,12.7-1.7,25.3-4.1,38-5.8,10.2-1.4,20.5-2.2,30.7-3,13.2-1.1,26.5-2,39.7-3,8.4-.6,16.8-1.3,25.2-2,13.2-1,26.5-2,39.7-3,12.1-1,24.2-2,36.3-3,12.6-1,25.2-2,37.8-3,9.6-.7,19.1-1.4,28.7-2,10.4-.7,20.8-1.3,31.2-2,8.9-.6,17.8-1.3,26.7-2,16.1-1.3,32.2-2.6,48.3-4,10.8-.9,21.5-2.1,32.3-3,13.4-1.1,26.8-1.9,40.2-3.1,2.4-.2,4.7-1.5,7-2.4,0,0,0-1.2-.2-1.2-2.6-.5-5.4-1.4-8-1.2-8.8.7-17.5,2.1-26.3,2.8-6.8.6-13.7.9-20.6,1-10.7.2-21.4,0-32.2,0-22.5.3-45.1.6-67.6,1-4.5,0-9.1.6-13.6.9-.5,0-.9-.2-1.4-.3.4-.2,1-.4,1.3-.7,3.7-4.7,9.3-3.2,13.9-3.7,10.2-1.1,20.5-1,30.7-1.2,15.9-.4,31.7-.8,47.6-1,19.7-.2,39.4,0,59.2,0,6.4,0,12.8-.3,19.1-1,8.5-1,16.9-2.5,25.4-3.7,7.9-1.1,15.8-2.1,23.7-2.7M906.5,1309.5c.9-.3,1.7-.8,2.6-1,9.1-1.7,18.4-2.9,27.4-5.2,3.5-.9,10,1.2,9.7-6.3,0-.1,1.1-.4,1.7-.4,4.5-.4,9.1-.7,13.6-1,4.2-.3,8.4-.6,12.6-1,11.9-1.3,23.9-2.7,35.8-4,7.4-.8,14.8-1.2,22.2-2.1,13-1.5,26-3.3,38.9-5,7.6-1,15.1-2,22.7-3.1,7.8-1.2,15.6-2.6,23.4-3.8,7.5-1.2,15.1-2.1,22.7-3.2,9.8-1.5,19.7-3.3,29.5-4.8,9.4-1.4,18.9-2.4,28.3-4.1,13.9-2.4,27.8-5.3,41.7-8,1-.2,1.9-.9,2.8-1.4-1.1-.5-2.2-1.5-3.3-1.5-12.2.6-24.4,1.3-36.7,1.9-12.2.7-24.4,1.3-36.7,2-6.5.4-13.1.6-19.6,1-3.6.3-7.2,1-10.9,1.5-8.5,1.2-17,2.3-25.6,3.4-.7,0-1.6-.2-2.3-.4.7-.2,1.4-.4,2.1-.6,3.1-1,6.2-1.9,9.3-3,1.2-.4,2.2-1.1,3.4-1.7-1.3-.8-2.7-2.2-4-2.2-4.2,0-8.4.4-12.6.9-10.3,1.2-20.6,2.7-30.8,4-5.6.7-11.1,1.2-16.7,2-10.2,1.6-20.3,3.2-30.4,5-6.4,1.2-13.4,1.8-19,4.7-6.8,3.4-13.8,4.7-20.9,6.3-10.5,2.3-21.1,4.5-31.7,6.9-12,2.7-24,5.6-36.1,8.1-13.7,2.9-27.5,5.2-41.1,8.2-18.3,4-36.4,8.5-54.6,12.9-15.2,3.6-30.3,7.3-45.4,11-3.8.9-7.5,2.2-11.3,2.9-1.5.3-3.3-.8-4.9-1.2,1.2-.6,2.3-1.4,3.5-1.6,5.2-1.1,10.6-1.7,15.7-3.1,18.6-4.9,37.2-9.9,55.8-15,1.1-.3,1.9-1.3,2.8-2-1.1-.7-2.3-1.9-3.4-1.9-4.2,0-8.5.1-12.6,1-18.7,3.8-37.4,7.7-56,12-22.5,5.1-44.9,10.6-67.4,16-26.2,6.3-52.4,12.6-78.6,19.1-1.9.5-3.4,2.2-5,3.4,1.8.8,3.6,1.8,5.5,2.4.9.3,2,.1,3,0,6.4-.6,12.8-1.2,19.2-2,5.2-.7,10.3-1.7,15.4-2.5,12.4-1.9,24.8-3.8,37.2-5.4,7-.9,14.2-1.1,21.1-2.1,11.4-1.7,22.7-4,34-5.9,9.2-1.5,18.6-2.5,27.8-4.1,12.7-2.2,25.4-4.4,38.1-7,10.1-2,20.4-3.7,30-7.1,18.6-6.5,37.8-9.1,58.1-11.8M1655.5,1259.5c-7.1,1.4-14.2,2.7-21.2,4.3-1.1.3-2.1,1.6-3.1,2.4,1.3.4,2.7,1.4,4,1.2,10.5-1.5,21-3.2,31.4-5,1.2-.2,2.3-.9,3.4-1.4-1.3-.8-2.6-2.4-3.9-2.4-3.2,0-6.4.5-10.6.9M1390,1261c1.9-.2,3.9,0,5.8-.6,1.2-.4,2.2-1.7,3.2-2.6-1.2-.8-2.5-2.4-3.5-2.2-4.4,1-8.6,2.4-12.9,3.8-.5.2-1,.5-1.5.7.5.5.9,1.3,1.4,1.3,2.3.1,4.7,0,7.5-.4M1615,1265c-2.3.7-4.7,1.3-7,2,2.2.2,4.5.6,6.7.7,1,0,2-.3,3.1-.5-.8-.9-1.5-1.8-2.8-2.2M1306,1267c-.9-.6-1.7-1.5-2.7-1.6-1.1-.1-2.4.3-3.4.8-.5.2-.5,1.3-.8,2,1.1.1,2.2.4,3.3.3,1-.1,2-.6,3.5-1.5Z"/>
  <path d="M690,1250.5c-9.5,2.3-18.5,4.8-27.6,7-17,4.1-34,8.2-51,12-19,4.2-38,7.9-57,12.1-14,3.1-27.9,6.7-41.9,9.9-22.4,5.1-44.9,9.8-67.3,15.1-17.5,4.2-34.9,9.1-52.4,13.6-20,5.2-40.1,10.2-60.1,15.4-16.5,4.3-33,8.7-49.5,13.3-19.7,5.5-39.4,11.2-59.1,16.6-1.7.5-3.7-.2-5.5.1-1.3.2-2.4,1.1-3.7,1.7,1.1,1.1,2,2.9,3.2,3.1,5.8,1,11.8,1.4,17.6,2.1,10,1.3,19.9,2.7,29.8,4,6,.8,12.1,1.2,18.2,2,9.3,1.2,18.6,2.8,27.9,3.9,6.7.9,13.4,1.5,20.2,2,12.7,1.1,25.5,2.1,38.3,3,9.9.7,19.8,1.5,29.7,2,16.2.8,32.4,1.3,48.7,2,13.6.6,27.1,1.1,40.7,2.1,14.8,1.1,29.6,2.8,44.4,3.9,10.3.7,20.6.6,30.8,1.3,9.6.6,19.1,2.2,28.7,2.7,9,.5,18-.1,27,.1,17.2.5,34.5,1.2,51.7,2,12.4.5,24.8,1.3,37.2,2,12.1.7,24.1,1.3,36.2,2,11.9.7,23.8,1.4,35.7,2,12.7.7,25.5,1.3,38.2,2,9.9.6,19.8,1.4,29.7,2,11.4.7,22.8,1.2,34.2,2,11.4.8,22.9,1.5,34.2,3.1,15.9,2.2,31.8,3.8,47.9,4.2,12.8.3,25.6,3.1,38.4,4.7,4.7.6,9.4.8,14.1,1,11.7.7,23.5,1.2,35.2,2.1,15.3,1.2,30.6,2.6,45.8,4,10.8,1,21.5,2,32.3,3,14.3,1.3,28.6,2.6,42.8,4,10.1,1,20.2,2,30.3,3,14.1,1.4,28.2,2.7,42.3,4,10.9,1,21.8,2,32.8,3,11.1,1,22.2,2.1,33.3,3,9.7.8,19.4,1.4,29.2,2,10.9.7,21.8,1.2,32.7,2,11.6.9,23.2,2,34.8,3,15.1,1.3,30.2,2.7,45.3,4,9.7.8,19.4,1.4,29.2,2,16.6,1,33.2,2,49.8,3,6.7.4,13.4.7,20.1,1,12.7.7,25.4,1.3,38.2,2,10.6.6,21.1,1.3,31.7,2,.7,0,1.4.4,2.1.6-.6.1-1.2.4-1.8.4-21.2,0-42.3.5-63.5-.1-15.6-.5-31.2-2.6-46.8-3.8-6.4-.5-12.8-.6-19.3-1.1-11.3-.9-22.5-2-33.8-2.9-5.5-.5-11.1-.7-16.6-1-10.9-.7-21.8-1.1-32.7-2.1-12.1-1.1-24.2-2.7-36.4-3.9-2.1-.2-4.7,0-6.4,1.1-1,.6-.5,3.4-.8,5.2-.1.6-.9,1.5-1.1,1.5-1.6-.6-4.6-1.3-4.6-2,0-6.9-4-6.1-8.9-6.1-7.1,0-14.1-1.2-21.2-1.8-4.7-.4-9.4-.6-14.1-1-11.3-1-22.5-2-33.8-3-14.6-1.3-29.2-2.7-43.8-4-11.4-1-22.9-1.9-34.3-3-11.5-1.2-22.9-2.7-34.3-3.9-7-.8-14.1-1.6-21.2-2-9.2-.5-18.4-.4-27.6-1.1-13.5-1.1-26.9-2.6-40.3-3.9-7.9-.7-15.8-1.3-23.7-2-13.5-1.3-26.9-2.7-40.3-4-4.4-.4-8.7-.7-13.1-1-10.7-.7-21.5-1.2-32.2-2.1-14-1.2-27.9-2.7-41.8-3.9-13.7-1.2-27.5-2.2-41.3-3-10.3-.6-20.7-.5-31.1-1.1-13.6-.8-27.2-2-40.8-2.9-9.2-.7-18.4-1.5-27.7-2-11.2-.5-22.4-.6-33.6-1.1-10.6-.5-21.1-1.3-31.7-1.9-12.7-.7-25.4-1.3-38.2-2-12.6-.7-25.1-1.4-37.7-2-13.7-.7-27.4-1.4-41.2-2-8.5-.4-17.1-.7-25.6-1-9.1-.3-18.2-.4-27.3-1-17.6-1.2-35.2-2.7-52.8-3.9-6.4-.5-12.7-.7-19.1-1-14.6-.7-29.1-1.3-43.7-2-10.1-.5-20.1-1.3-30.2-2-13.8-1-27.5-1.9-41.3-3-11.1-.9-22.2-1.6-33.2-3.1-14.4-1.9-28.7-4.7-43.1-6.9-9.8-1.5-19.6-2.7-29.3-4-12.6-1.7-25.3-3.3-37.9-5-13.1-1.8-26.1-2.5-39,1.9-9.2,3.2-18.8,5.3-28.1,8.2-1.6.5-3.7,2.8-3.8,4.4-1,11.2-1.5,22.4-2.2,33.7,0,.6-.3,1.2-.5,1.8-.2-.6-.5-1.2-.5-1.7,0-10,0-20,0-30,0-4.1-.4-6.6-5.9-5.4-18.5,4.3-37,8-55.5,12-18.8,4-37.7,8.1-56.5,12.1-9.5,2-19,4.1-28.5,5.9-1.1.2-2.4-.5-3.6-.8.9-1.1,1.6-2.8,2.8-3,6.1-1.6,12.2-2.8,18.3-4.1,11.5-2.4,23-4.7,34.5-7.1,10.4-2.2,20.7-4.7,31.2-6.8,12.2-2.5,24.4-4.5,36.6-7.1,13-2.8,25.9-5.8,38.8-9,7.2-1.8,14.4-3.9,21.5-6.1,1.2-.4,2-1.8,3-2.7-1.4-.7-2.7-1.8-4.1-2-8.2-.8-16.4-1.4-24.7-2.1-3.5-.3-5.5.6-4.9,4.6.1.8.3,1.8,0,2.5-.4.8-1.2,1.3-1.9,2-.4-.7-1-1.5-1-2.2-.7-8.1-2.3-9.2-10.3-9.9-12.3-1-24.6-2.6-36.9-3.9-7-.7-14.1-1.3-21.2-2-12.6-1.3-25.2-2.7-37.8-4-5.7-.5-11.4-.6-17.1-1.1-8.1-.6-16.1-1.3-24.2-2-.6,0-1.1-1-1.6-1.6.7-.4,1.3-1.3,2-1.3,8.6.6,17.1,1.3,25.7,1.9,1.5.1,3-.1,4.5,0,14,1.3,27.9,2.6,41.8,4,6.7.6,13.5,1.3,20.2,2,11.3,1.3,22.6,2.7,33.8,4,6.9.8,13.8,1.2,20.7,2.1,8.6,1.1,17.2,2.6,25.8,3.9,6.9,1,13.9,3.1,20.7,2.7,8.2-.5,16.4-2.7,24.4-4.8,18.5-4.8,36.9-9.8,55.3-15,11.5-3.2,22.7-7.3,34.2-10.4,10.7-2.9,21.6-5,32.4-7.5,11.5-2.7,23-5.6,34.5-8.5,20.2-5.1,40.4-10.4,60.6-15.5,20.4-5.1,40.8-10.3,61.2-15.2,15.5-3.7,31-7.2,46.5-10.8,12.6-2.9,25.2-5.9,37.9-8.7,12.8-2.9,25.7-5.4,38.5-8.4,19.6-4.5,39.1-9.4,58.7-13.9,22.4-5.1,44.9-9.8,67.2-15.1,20.6-4.9,41-10.4,61.5-15.7,14.8-3.8,29.6-7.5,44.3-11.3,16.1-4.1,32.2-8.4,48.4-12.4,14.1-3.4,28.4-6.3,42.5-9.7,15.5-3.6,30.9-7.5,46.3-11.3,18.4-4.5,36.9-9.1,55.3-13.7,13.1-3.3,26.2-6.8,39.4-9.9,13.9-3.2,27.9-5.9,41.7-9.1,25.8-6.1,51.4-12.7,77.2-18.8,17.2-4,34.6-7.4,51.9-11.2,17.4-3.8,34.7-8,52.1-11.8,13.3-2.9,26.8-5.4,40.1-8.2,13.8-2.9,27.5-6,41.2-9.2,17.8-4.2,35.5-8.5,53.2-12.8,15.2-3.6,30.3-7.3,45.5-10.9,14.9-3.5,29.9-6.5,44.8-10.2,18.7-4.6,37.3-9.7,56-14.5,17.6-4.5,35.3-8.9,53-13.4,6.6-1.7,13.3-3.2,19.9-5.1,1.9-.5,3.4-2.3,5-3.5-1.3-1.1-2.5-2.7-4-3.4-6.7-2.8-13.4-5.4-20.2-8.1-15.6-6.3-31.3-12.2-46.6-19.1-15.2-6.8-30.2-14.1-44.9-22-22.4-11.9-44.6-24.4-66.7-36.9-11.5-6.5-23.1-12.9-34.1-20.2-16.3-10.9-31.8-22.8-48.1-33.7-10.3-6.9-21.2-13-32.1-19-19.6-10.9-39.5-21.4-59.1-32.4-15.7-8.8-31.1-18.2-46.9-26.8-20.8-11.2-38-27.6-57.9-40-17.2-10.7-34.3-21.7-51.9-31.7-23.9-13.7-49.5-23.7-75.8-31.9-27.9-8.7-56-16.9-84.1-25.1-21.3-6.2-42.6-12.5-64.1-17.9-17.1-4.4-34.6-7.3-51.8-11.3-9.9-2.3-19.7-4-29.9-4-17.2,0-34.4-1.2-51.6-.7-10.5.3-20.9,3.3-31.4,4.7-5.5.7-11.1.5-16.6,1.1-9.3,1.1-18.6,2.7-27.9,3.9-3.8.5-7.7.6-11.6,1-11.3,1.3-22.6,2.7-33.8,4-7,.8-14.1,1.1-21.2,2.1-11.6,1.6-23.2,3.6-34.8,5.3-8.2,1.2-16.3,2.5-24.5,3.6-12.1,1.7-24.3,3.4-36.4,5-1.4.2-2.8-.1-4.2,0-1.2.2-4.6-1.2-2.1,2.4,0,.1-.6,1-.8,1-3.2,0-6.4-1-9.4-.4-18.4,3.8-37.1,6.7-55,12.2-22.5,6.9-44.6,15.4-66.4,24.2-22.6,9-44.7,19.1-67,28.9-18.1,7.9-36.1,15.9-54,24-14.3,6.4-28.9,12.5-42.8,19.8-7.6,4-14.5,9.7-21.2,15.3-10.5,8.7-20.6,17.8-30.9,26.8-9.3,8.1-19.8,14.1-31.4,18.4-.5.2-1.1,0-1.7,0,.5-.9.8-2.1,1.6-2.6,5.6-3.4,11.5-6.3,16.8-10.2,9.9-7.3,19.6-15,29-23,16-13.5,31.8-27.5,50.9-36.5,18.9-8.9,38.6-16.3,57.9-24.4,13.3-5.6,26.7-11.2,40-17,19.9-8.7,39.7-17.7,59.6-26.2,13.7-5.9,27.4-12,41.6-16.5,15.5-5,31.5-8.6,47.5-12.1,16.1-3.5,32.5-6.3,48.8-9.1,11.4-2,22.9-3.4,34.4-5.1,15.4-2.3,30.7-4.8,46.1-6.9,9.4-1.3,18.8-1.9,28.2-3.1,12.2-1.5,24.3-3.4,36.4-4.9,8.4-1.1,16.8-1.9,25.3-3,9-1.2,17.9-2.7,26.9-3.9,3.7-.5,7.4-.8,11.1-1,8-.4,16.1-.8,24.1-1,13.7-.4,27.4-1.6,41.1-.8,13.4.8,26.8,3.4,40.1,5.7,13.8,2.4,27.5,5.1,41.1,8.2,10.6,2.4,21,5.5,31.5,8.4,14.9,4.1,29.8,8.5,44.8,12.4,2.9.8,6.8-1.1,9,.3,13.6,8.4,28.9,11.7,44,15.9,17.6,4.9,35.3,9.5,52.3,16.2,22.7,8.8,45.6,17.5,66.1,31.3,15.1,10.1,30.7,19.4,45.7,29.5,14.3,9.6,27.9,20.1,42.4,29.4,12.9,8.4,26.4,15.9,39.8,23.5,20.4,11.5,40.9,22.7,61.4,33.9,10.9,6,22,11.4,32.6,17.8,10.2,6.1,20,13,29.8,19.7,19.4,13.2,38.3,27.2,58.2,39.4,22,13.5,44.7,26.1,67.7,38,19.1,9.9,39,18.4,58.7,27.1,18,8,36.7,14.6,54.3,23.3,12.5,6.2,24.5,5.6,37.1,2.3,25.4-6.7,50.7-13.6,76-20.6,14-3.9,27.9-8.2,41.9-12.2,21.6-6.3,43.2-12.5,64.7-18.7.8-.2,1.6-.4,2.4-.5-.7.7-1.2,1.8-2,2-8.6,2.6-17.3,5-25.9,7.6-8.7,2.6-17.9,4.4-26,8.4-4.1,2-6.6,7.7-9,12.2-6.5,12.1-12.6,24.4-18.9,36.7-1,2-2.6,3.7-3.9,5.6.7-2.3,1.2-4.7,2.2-6.8,6-12.2,12.2-24.3,18.3-36.4,3.4-6.7,3.2-7.4-4.2-6.4-7.8,1.1-15.4,3.6-23,5.8-25.7,7.6-51.3,15.4-77,22.9-7.2,2.1-14.6,3.3-21.9,5.1-1.4.3-2.5,1.3-3.8,2,1.2.6,2.2,1.6,3.5,1.9,16.7,4.1,33.3,8.2,50,12,11.3,2.6,22.7,4.7,34.1,7,.6.1,1.3.1,2,0,7.7-1.3,14.8,1.7,22.2,3.2,2.7.6,5.5.5,8.2.8,2.2.3,4.4.5,6.6,1,1.2.3,2.3,1.2,3.5,1.8-1.4.4-2.7,1.1-4.1,1.1-5.5.1-11,.3-16.5,0-4.9-.3-8.6,1-10.6,5.7-.4.9-1.6,1.5-2.4,2.2-.1-1.1-.4-2.3-.3-3.4.1-1.2.8-2.4.9-3.6.3-2.9-1-4.4-4-5-21.5-3.9-43.1-7.7-64.5-12.1-11.9-2.4-23.4-6.4-35.2-8.9-4.5-1-9.6-.6-14,.6-31,8.3-61.9,17.1-92.9,25.4-25.5,6.9-51.1,13.6-76.7,19.9-12.9,3.2-26.1,5.2-39.1,8.2-18.4,4.1-36.7,8.8-55.1,12.9-21.7,4.9-43.5,9.3-65.2,14.1-17.2,3.8-34.3,8.1-51.5,11.9-18.5,4.1-37.1,7.7-55.5,12.1-26.8,6.3-53.5,13.3-80.3,19.7-14.6,3.5-29.5,6.1-44.2,9.3-11.3,2.5-22.5,5.3-33.7,8-15.5,3.7-31,7.2-46.4,11-20,4.9-39.8,10.1-59.8,14.9-20.3,4.9-40.8,9.2-61.2,14.2-18.9,4.6-37.6,9.7-56.5,14.5-24.1,6.2-48.2,12.3-72.4,18.4-14.3,3.6-28.6,7.5-43,10.9-12.5,3-25.1,5.4-37.6,8.1-1.2.3-2.3.7-3.9,1Z"/>
  <path d="M1314,512.5c13.4,4.7,26.3,9.3,39.2,14,19,6.9,38,14.1,55.1,25.1,7.7,4.9,14.8,10.9,22.4,16,12.3,8.4,24.7,16.7,37.2,24.9,20.3,13.3,40.6,26.6,61.2,39.4,11.8,7.4,24.5,13.5,36.4,20.7,11.1,6.8,21.6,14.5,32.7,21.4,15.3,9.7,30.8,19.1,46.2,28.5,15.3,9.3,30.6,18.7,46,27.7,9.1,5.3,18.3,10.4,27.7,15.2,13.7,7.2,26.6,15.2,38.8,24.9,7.8,6.2,17.2,10.6,26.2,15.1,8.8,4.4,18.3,7.4,27.1,11.8,15.1,7.5,29.8,15.8,44.8,23.5,4.2,2.1,8.9,3.6,13.6,4.6,4,.8,4.9,1.8,3.7,6.1-5,18.1-8.7,36.7-14.4,54.6-5.3,17-12.3,33.5-18.9,50.1-3.2,8-7.2,15.7-10.9,23.5-.4.8-1.6,1.3-2.4,2,0-1.1,0-2.3.3-3.3,10.4-26.5,21.5-52.8,31.2-79.6,4.1-11.2,5.4-23.5,7.9-35.2.1-.6.4-1.2.4-1.8,1.1-8.7,1.6-11.8-6.5-15.7-14.2-6.9-28-14.4-42.2-21.3-18.8-9.2-38-17.7-56.7-27.2-6.1-3.1-10.9-8.9-16.8-12.7-8.6-5.6-17.6-10.5-26.4-15.8-16.3-9.7-32.6-19.4-49-29-15-8.8-30.1-17.4-45.1-26.4-12-7.2-23.8-15-35.7-22.4-13.9-8.6-28-16.9-41.9-25.6-24.2-15.2-48.6-30.2-72.5-45.9-22.5-14.8-44.1-31-66.8-45.2-12.3-7.7-26.1-13.2-39.6-18.9-16.5-6.9-33.3-13.1-50.1-19.1-15.4-5.6-31.1-10.2-46.4-15.9-16.3-6-32.7-11.9-48.6-19.1-21.5-9.7-42.5-20.5-63.7-30.8-7.8-3.8-15.5-7.7-23.5-10.8-2.8-1.1-6.6,0-9.9.3-1.5.2-2.9,1-4.4,1.5-.2-1.4-.7-2.8-.6-4.1.2-4-1.3-5.7-5.5-7.1-18.9-6.2-37.4-13.7-56.4-19.4-6.4-1.9-14-.8-20.9.2-11.5,1.6-22.8,4.3-34.3,6.5-10.5,2-21,4.2-31.5,5.9-8,1.3-16.2,2.1-24.2,3.1-15.3,1.8-30.1,5.2-44.6,10.7-6.2,2.4-13.1,2.8-19.5,4.8-17.6,5.6-35.1,12-52.8,17.4-24.2,7.4-48.7,13.5-72.7,21.2-36,11.6-71.7,23.9-107.4,36.3-16.6,5.7-33.1,11.9-49.2,18.7-9.4,3.9-17.8,10-27.1,14.3-19.7,9.2-39.7,17.7-59.5,26.6-10.1,4.6-20.1,9.3-30.1,14.1-22.4,10.7-44.8,21.5-67.2,32.1-15.6,7.4-31.7,13.8-46.8,22.2-16.1,8.9-31.4,19.4-46.8,29.5-16.8,11.1-33.5,22.3-49.9,34-9,6.4-17.3,13.8-25.9,20.7-11.4,9.1-22.9,18.1-34.2,27.3-5.4,4.4-10.4,9.4-15.9,13.7-8,6.3-16.2,12.3-24.3,18.4-2.3,1.8-2.2.2-2.3-1.5-.1-1.3-.6-2.5-1-3.8-1.8.6-3.7.8-5.2,1.8-2.8,1.9-3.9,4.6-3.9,8.4,0,13.4-.4,26.7-.9,40.1-.5,12.4-1.2,24.8-2,37.2-.9,14.1-2.2,28.2-2.9,42.3-.9,17.4-1.6,34.8-2,52.2-.5,20-.8,40.1-1,60.1-.1,11.7.1,23.4,0,35.2-.2,14.1-.9,28.2-.9,42.3,0,10.4.8,20.7.9,31.1,0,9.4-.7,18.7-.9,28.1-.2,8.6,0,17.1,0,25.7-.2,15.1-.7,30.2-1,45.3,0,4.9-.2,9.8,0,14.7.5,13.1,1.4,26.1,1.8,39.2.3,11.9,0,23.8.3,35.6.2,7.7,1.3,15.4,1.9,23.2.2,2.2.2,4.3,0,6.5,0,.8-1,1.5-1.5,2.3-.4-.7-.8-1.3-1-2.1-.2-.7-.4-1.5-.4-2.3-.4-11.4-.7-22.7-1-34.1-.1-6.4,0-12.8,0-19.2-.3-13.3-.6-26.5-1-39.8-.3-12.1-.7-24.2-1-36.3-.4-15.5-.9-31.1-1-46.6-.2-26.6,0-53.1,0-79.7s0-23.4,0-35.2c.3-31,.6-62.1,1-93.1.2-13.1.5-26.2,1-39.3.4-10.1,1.3-20.1,1.9-30.2,1-15.1,2-30.2,3-45.3.7-10.7,1.4-21.4,2-32.2.7-11.6,1.2-23.1,2.1-34.7,1.1-14.8,2.6-29.6,4-44.3,1.3-13.3,2.7-26.6,4-39.8,1.4-13.8,2.7-27.6,4-41.3,1-10.4,2.1-20.8,3-31.3,1.1-14.4,1.9-28.8,3.1-43.2,1.2-14.1,2.6-28.2,4-42.3,1-10.6,2.1-21.2,3-31.8,1.1-12.6,1.9-25.2,3.1-37.7.6-5.8,1.9-11.5,3-17.3,0-.4.7-.8,1.1-1.2.3.6.8,1.3.8,1.9-.3,4.9-.5,9.7-1,14.6-.5,4.4-1.6,8.8-1.9,13.2-.6,7.2-.6,14.4-1.1,21.6-.9,14.4-1.9,28.8-3,43.3-.8,10.4-2,20.8-3,31.3-1.4,15.3-2.6,30.6-4,45.8-.9,9.9-1.9,19.8-3,29.8-1.2,11-2.7,21.9-4,32.8-1.1,9.9-2,19.8-3,29.8-1.3,13.1-2.8,26.2-4,39.3-.6,6.7-.7,13.4-1.1,20.1-.2,2.9,1.2,3.5,3.8,3.7,8.9.7,16.1-2.8,22.7-8.1,14.8-11.9,29.4-24,44.1-36,22.5-18.4,45.3-36.4,69.9-52,8.4-5.3,16.2-11.5,24.4-17.2,3.5-2.5,3.7-5.8,2.9-9.6-.2-1,.1-2.1.2-3.1.7.8,2,1.5,2,2.3.3,5.4,3.6,4.2,6.3,2.7,9.4-5.6,18.3-12,27.9-17.3,11.5-6.3,23.4-11.9,35.2-17.6,12.5-6,25.1-11.8,37.8-17.5,20.8-9.3,41.8-18.2,62.5-27.7,14.9-6.8,29.5-14.1,44.2-21.1,1.4-.7,2.9-1.1,4.3-1.8,3.2-1.5,7.1-2.7,4-7.6-.5-.7.2-2.2.3-3.3.6.9,1.4,1.7,1.7,2.6,1,3.5,2.6,2.9,5.3,1.5,11.1-5.7,22.2-11.5,33.6-16.6,17.4-7.8,34.7-16,52.7-22.3,18.5-6.5,37.9-10.6,56.7-16.4,17.7-5.4,35-12,52.7-17.5,25.7-8,51.6-15.4,77.3-23.4,24.4-7.7,48.6-16.3,73.1-23.8,10.3-3.2,21-5.1,31.6-7,15.3-2.7,30.7-4.7,46.1-7.1,14.7-2.3,29.4-4.6,44.1-7,6.5-1.1,12.9-2.7,19.4-3.9,7.6-1.4,13.6,3.2,20.2,5.4,10.4,3.5,20.8,7,31.1,10.6,7.6,2.6,15.4,4.8,22.6,8.3,25,12.2,49.5,25.3,74.6,37.2,14.6,6.9,29.8,12.5,44.8,18.5,15.5,6.1,31,12.1,46.5,18,8.5,3.2,17.2,6,26.4,9Z"/>
  <path d="M543.8,1357.3c-9.1,1.8-18,3.3-26.8,4.8-3.1.5-6.3,1.1-9.4,1.3-.8,0-1.6-.9-2.4-1.3.6-.4,1.2-.9,1.9-1,10.4-2.5,20.9-5.3,31.4-7.5,9.7-2,19.6-3.4,29.3-5.3,10.9-2.1,21.8-4.5,32.7-6.8,11.5-2.4,23-4.8,34.5-7.3,13.1-2.8,26.2-5.8,39.4-8.7,11.2-2.4,22.3-4.8,33.5-7.2,10.9-2.3,21.8-4.6,32.7-6.8,3-.6,6-.8,9.1-1,.8,0,1.7.4,2.5.6-.8.5-1.6,1.1-2.4,1.3-4.4,1.1-8.8,2-13.2,3-20.4,4.5-40.9,9.2-61.3,13.6-11.9,2.6-23.9,4.9-35.9,7.4-10,2.1-19.9,4.2-29.8,6.4-15.9,3.5-31.7,7.1-47.6,10.6-5.8,1.3-11.7,2.4-17.8,3.8Z"/>
  <path d="M651,1317.5c4.2-.3,7.9-.7,11.6-1,.4,0,.9.5,1.4.8-.4.4-.7,1-1.2,1.1-2.7.7-5.4,1.6-8.2,2-4.2.6-8.4.9-12.6,1-15.1.3-29.7,2.9-44.2,6.6-13,3.3-26.1,6.1-39.1,9.4-13,3.4-26,7.2-38.9,11-16.6,4.9-33.2,10-49.8,15-.6.2-1.3.4-1.9.6.5-.6.9-1.4,1.5-1.7,7.2-2.7,14.4-5.7,21.7-7.9,24.5-7.2,49.1-14.5,73.8-20.9,19.4-5,39-9.1,58.6-13,8.8-1.8,17.8-2.1,27.2-3.1Z"/>
  <path d="M1402.8,1356.3c11.8-4.1,23.4-8,35-11.7,14.7-4.8,29.4-9.6,44.1-14.3,3.7-1.2,7.6-1.9,11.4-2.7.5-.1,1.2.3,1.8.4-.6.2-1.1.5-1.7.7-18,6.9-35.8,14.3-53.9,20.7-12.4,4.4-25.2,7.5-37.9,11.1-1.4.4-2.9.4-4.4.6,1-1.1,1.9-2.2,3-3.2.7-.6,1.6-1,2.6-1.7Z"/>
  <path d="M1312.2,1399.8c4.6-2.2,8.9-4.3,13.3-6.2.8-.4,1.7-1,2.6-.9,2.2.2,4.4.7,6.5,1-1.5,1.3-2.9,3.1-4.6,3.8-16.5,7.2-33.1,14.2-49.6,21.2-.7.3-1.6.2-2.3.3.1-.8.1-1.6.5-2.3.4-.7,1-1.4,1.7-1.8,10.6-5,21.2-9.9,32.1-15.1Z"/>
  <path d="M1861.2,1124.8c4.6-1.9,8.9-3.5,13.2-5.2,1-.4,2-1,3.1-1,1.5,0,3,.2,4.5.4-1.1,1.2-2,2.8-3.4,3.4-6.8,2.8-13.8,5.4-20.7,7.8-12.8,4.5-25.6,8.9-38.4,13.3-1.2.4-2.7,0-4.1-.1.9-.9,1.6-2.3,2.7-2.8,14.3-5.3,28.6-10.4,43.2-15.8Z"/>
  <path d="M435,1361.5c-1.3-.5-2.1-.9-2.9-1.4.7-.2,1.4-.5,2.1-.6,1.9,0,3.8,0,5.7,0,4.7-.4,9.3-.8,14-1.3.3,0,.5-.7.7-.6,1.8,0,3.6.2,5.4.3-1.4.5-2.7,1-4.1,1.4-4.2,1.1-8.4,2.5-12.7,3.1-2.4.4-5-.5-8.1-.9Z"/>
  <path d="M1502.8,1257.3c-6.5-.4-12.7-1.1-18.9-1.8-.6,0-1.2-.3-1.8-.4.5-.2,1.1-.5,1.6-.5,9.7-.7,19.4-1.3,29.1-2,4.5-.3,9-.7,13.6-1,.5,0,1,.4,1.6.6-.4.1-.9.3-1.3.4-7.9,1.5-15.7,3-23.8,4.8Z"/>
  <path d="M1486.8,1229.3c-3,.9-6.1,1-8.3,2.4-1.6,1-2,3.8-2.9,5.8-.3-3.5-2.4-4.8-5.7-4-7.2,1.9-14.3,4-21.5,6.1-4.2,1.2-8.2,2.6-12.4,3.9-.5.2-1.2-.2-1.9-.3.4-.2.9-.5,1.3-.7,10.1-4.1,20.1-8.8,30.4-12.2,6.1-2,12.9-1.9,19.3-2.9,2.9-.4,5.8-1.4,8.7-1.9.9-.2,1.9.2,2.9.3-.8.2-1.6.5-2.3.7-2.5.8-5,1.6-7.7,2.7Z"/>
  <g id="SdN3tM">
    <image id="SdN3tM1" data-name="SdN3tM" width="224" height="154" transform="translate(1399.4 1551.3) scale(.6)" xlink:href="pdp_pathology-1.png"/>
  </g>
  <g id="WRSLgF">
    <image id="WRSLgF1" data-name="WRSLgF" width="230" height="154" transform="translate(1540.1 1049.6) scale(.6)" xlink:href="pdp_pathology-2.png"/>
  </g>
  <g id="zGN7do">
    <image id="zGN7do1" data-name="zGN7do" width="512" height="258" transform="translate(260.1 340.4) scale(.7)" xlink:href="pdp_pathology-3.png"/>
  </g>
  <text class="st0" transform="translate(597.2 1090.5)"><tspan x="0" y="0">Highest Density of </tspan></text>
  <g id="CAkVWT">
    <image id="CAkVWT1" data-name="CAkVWT" width="146" height="114" transform="translate(1195.4 1039.1) scale(.5)" xlink:href="pdp_pathology-4.png"/>
  </g>
  <g>
    <line x1="906.9" y1="1128.2" x2="1174" y2="1223.1"/>
    <g>
      <line class="st1" x1="906.9" y1="1128.2" x2="1126.6" y2="1206.3"/>
      <polygon points="1105.3 1235.7 1174 1223.1 1128.7 1170 1105.3 1235.7"/>
    </g>
  </g>
</svg>