<?xml version="1.0" encoding="UTF-8"?>
<svg xmlns="http://www.w3.org/2000/svg" xmlns:xlink="http://www.w3.org/1999/xlink" version="1.1" viewBox="0 0 884.1 909.8">
  <defs>
    <style>
      .cls-1 {
        opacity: .3;
      }
    </style>
  </defs>
  <!-- Generator: Adobe Illustrator 28.7.3, SVG Export Plug-In . SVG Version: 1.2.0 Build 164)  -->
  <g>
    <g id="Contours">
      <path d="M358,137.7c-3.7.9-7.3,1.7-10.9,2.3-4.5.8-9,1.5-13.6,2.2-2.7.4-5.3.6-8,.7-.9,0-1.9-.9-2.8-1.4.8-.7,1.6-2,2.5-2.1,6.4-.9,13-1,19.3-2.4,8.5-1.8,16.8-4,25-6.7,11-3.6,21.8-7.8,32.6-12,16.2-6.3,32.5-12.6,47.5-21.6,5.3-3.2,11.3-5.3,16.8-8.3,11.3-6.2,22.5-12.6,33.7-19.2,10.4-6.1,20.7-12.5,30.9-18.9,9.7-6.1,19.2-12.6,28.7-18.9,1.3-.8,2.3-2.1,3.6-2.7.8-.4,1.9,0,2.9,0-.3.9-.2,2.2-.8,2.7-4.3,3.3-8.6,6.5-13.1,9.5-14.8,9.6-29.6,19.3-44.6,28.6-7.6,4.7-15.7,8.6-23.6,12.9-12.6,6.8-25.2,13.7-37.8,20.4-2.2,1.2-1.6,2.7-.7,4.2,3.2,5.5,8.9,8.3,13.7,12.1,6.7,5.2,13.2,10.6,19.9,15.7,4.6,3.6,9.4,7,14.2,10.3,10.3,7,20.6,14.2,31.3,20.6,11,6.6,22.5,12.5,33.9,18.4,9.2,4.8,18.7,9,27.9,13.9,5.3,2.8,9.6,1.5,13.8-1.7,8-6.1,17.3-9.4,26.6-12.7,11.1-4.1,22.1-8.5,32.3-14.6.8-.5,1.4-1.5,2.1-2.2-.8-.5-1.6-1.1-2.5-1.3-9.1-2.5-18.4-4.3-27.3-7.4-9.2-3.2-18.1-7.4-27.1-11.5-12.3-5.6-24.7-11-36.6-17.4-9.2-4.9-17.7-10.9-26.3-16.8-6.6-4.5-13.2-9.2-19.4-14.3-6-5-11.6-10.5-17.3-15.8-.7-.6-1.1-1.8-1.1-2.7,0-.9.5-1.9.8-2.9.7.6,1.4,1.1,2,1.7,6.9,6.4,13.5,13,20.7,19,5.5,4.6,11.9,8.2,17.5,12.7,11.1,8.9,23.5,15.5,36.3,21.5,14.7,6.9,29.5,13.7,44.6,19.7,13.3,5.3,26.8,9.6,40.8,12.3,1.9.4,4.2-1,6.1-1.9,7.2-3.3,14.4-6.7,21.5-10,2.7-1.3,5.4-2.6,8.2-3.7.8-.3,1.8,0,2.7,0-.4.7-.7,1.7-1.3,2-3.8,2.1-7.7,4.2-11.6,5.9-5.2,2.3-10.5,4.3-15.8,6.4-.7.3-1.3.8-1.9,1.3.8.4,1.6.8,2.5,1,.6.2,1.2,0,1.8,0,16.7.2,33.3.3,50,.8,7.1.2,14-.8,21-2.1,6.8-1.3,13.8-1.5,20.8-2.3,2.5-.3,5-.8,7.5-1.1,1.2-.1,2.4.3,3.6.5-.9,1.2-1.6,3.1-2.7,3.3-3.8.8-7.8,1-11.7,1.6-8.2,1.2-16.3,2.9-24.6,3.5-8.7.6-17.4.1-26.2.1s-1,0-1.4,0c-10.9-.2-21.7-.4-32.6-.7-3,0-6.1-.3-9.1-.7-4.9-.8-8.9,1.1-12.5,3.9-6.6,5.2-14.4,8.2-22.1,11.2-12.1,4.8-24.9,8.2-35.7,15.9-1,.7-2.3.9-3.3,1.5-.7.4-1.2,1.1-1.9,1.6.7.4,1.3,1.1,2,1.2,11.8,2.1,22.5,7.3,33.9,10.8,8.7,2.7,17.9,4,26.2,7.5,9.5,4,17.1-1,25.2-3.3,18.6-5.2,37.1-11,55.8-16.4,9.1-2.6,18.2-4.9,27.4-7.2,2.9-.7,3.6-3,4.5-5.3,3.5-8.8,7-17.6,10.5-26.4,2.6-6.6,5.5-13.2,7.6-20,1.9-6.1,3-12.5,4.3-18.8,0-.4-1.4-1.5-2-1.4-5.8.7-11.6,2.3-17.4,2.3-10.9,0-21.8-.9-32.7-1.2-3,0-6.1.7-9.1.6-5.7-.3-11.4-1.3-17.1-1.3-8.6,0-16.9-2.2-25.3-3.6-5.9-1-11.8-1.7-17.6-3-5-1.1-9.9-2.9-14.9-4.3-9.4-2.6-18.9-4.9-28.2-7.9-13-4.1-25.4-9.8-37.4-16.3-8.7-4.6-17.5-8.9-26.2-13.5-8.4-4.5-16.7-9.1-25-13.8-1-.6-1.9-1.6-2.4-2.7-.3-.7,0-1.8,0-2.7.8.3,1.6.4,2.2.8,2.5,1.6,4.7,3.6,7.3,5,12.8,6.9,25.5,14.1,38.6,20.4,14.4,6.9,29,13.3,43.8,19.1,8.3,3.2,17.3,4.7,26,7.1,5.1,1.4,10,3.3,15.1,4.5,6.1,1.4,12.3,2.3,18.5,3.4,6.3,1.1,12.7,2,19,3.1.5,0,1,.5,1.6.5,8.6.5,17.2,1.2,25.8,1.4,7.9.1,15.7-.6,23.6-.6,5.9,0,11.9.8,17.8.6,5.4-.2,10.7-1.3,16.1-2.1.6,0,1.2-1,1.4-1.7,2.7-11.1,5.1-22.2,8.1-33.2,1.3-4.8-1.2-4.1-4-4.2-12.2-.4-24.4-.9-36.7-1.4-5.6-.2-11.2-.3-16.7-.8-8.7-.8-17.3-1.9-25.9-2.8-5-.5-10-.8-14.9-1.5-8.5-1.3-16.9-2.6-25.3-4.4-9-1.9-18-4.3-27-6.4-14.9-3.6-29.5-8.2-43.9-13.7-6.9-2.6-13.9-4.9-20.5-8.1-6.7-3.2-13-7-19.3-11-1.5-1-2.2-3.3-3.1-5.1-.2-.4.4-1.4.9-1.7.4-.2,1.4.2,1.7.7,4.4,6.1,11,9,17.4,12,6.2,3,12.7,5.5,19.2,7.8,13.2,4.6,26.4,9.1,39.7,13.2,7.7,2.4,15.6,4.2,23.6,6,8.2,1.8,16.5,3.5,24.7,4.9,9.4,1.6,18.8,3,28.2,4.3,5.3.7,10.7,1.2,16,1.5,7.6.4,15.2.5,22.8.8,8.3.3,16.7.4,25,.8,4.3.2,8.5.9,12.8,1.4,2.8.3,5.4.1,6.6-3.2.4-1.2,1.6-2.1,2.5-3.2.3,1.4,1.2,2.9,1,4.3-1.4,8.2-2.9,16.4-4.6,24.5-1.1,5.5-2.8,10.9-3.9,16.4-.2.9.8,2.4,1.7,3.2,1.4,1.2,1.4,2.6,0,2.9-5,1.2-4.6,5.6-5.2,9-1.4,8.1-4.1,15.6-7.1,23.1-1.9,4.8-2.8,9.9-4.7,14.7-2.8,7-6.1,13.9-9.1,20.8-.3.8-.2,1.8-.4,2.7.8-.2,1.7-.4,2.5-.6,8.3-2.3,16.7-4.5,25-6.8,5.5-1.5,11.1-2.9,16.6-4.3,7.8-2,15.5-3.8,23.3-5.8,7.5-1.9,15-3.9,22.6-5.8,10.8-2.7,21.8-4.9,32.5-8.1,11.9-3.5,23.5-7.8,35.3-11.7,11.9-3.9,23.8-7.7,35.8-11.3,17.3-5.3,34.7-10.6,52.1-15.8,4.2-1.3,8.5-2.1,12.8-3.1.7-.2,1.5-.2,2.2,0,.7.2,1.4.7,2.1,1-.5.6-1,1.6-1.7,1.8-4.2,1.3-8.4,2.5-12.6,3.7-5.4,1.5-10.9,2.7-16.3,4.3-14.3,4.1-28.7,8-42.9,12.5-15.1,4.8-30,10.3-45,15.4-8.6,2.9-17.1,6-25.8,8.3-11.6,3.1-23.4,5.3-35,8.1-7.2,1.7-14.3,4-21.5,5.8-8.7,2.2-17.5,4.2-26.3,6.5-11.6,3-23.2,6.2-34.8,9.5-1.5.4-3.1,2-3.8,3.5-2.5,5.4-4.5,11.1-7.1,16.6-2.3,5-5.1,9.7-7.6,14.6-.3.7-.4,1.5-.5,2.2.8-.1,1.5-.2,2.3-.4,2.7-.8,5.3-1.8,8-2.6.6-.2,1.4.5,2.1.9-.5.6-.9,1.5-1.5,1.7-3.8,1.6-7.6,3.2-11.5,4.5-2.3.7-3.4,1.8-4.3,4.2-1.3,3.4-3.6,6.5-5.3,9.7-.7,1.3-1.2,2.6-1.7,3.9,1.2-.3,2.6-.4,3.7-.9,15.1-6.8,30.9-11.2,47.1-14.8,8.2-1.8,16.1-5.5,24.2-7.8,18.6-5.2,36.1-13.5,54.4-19.8,6.7-2.3,13.6-4.5,20.2-7,10.2-3.8,20.3-8,30.5-11.9,10.6-4.1,21.2-8.2,32-11.9,9.5-3.2,19.3-5.7,28.9-8.8,9.2-3,18.3-6.6,27.6-9.3,10.8-3.1,21.9-5.2,32.8-8.1,10.4-2.7,20.7-5.8,31.1-8.8,2.3-.7,4.6-1.9,6.9-2.4,1.3-.3,2.7.5,4.1.8-1,.8-1.8,2.1-2.9,2.4-8.7,2.9-17.3,6.1-26.2,8.4-11.8,3.1-23.8,5.3-35.6,8.4-8.5,2.2-17,5-25.3,7.9-10.4,3.7-20.8,6.9-31.5,9.5-6.1,1.5-12,4.3-17.9,6.5-15.7,6-31.4,12.2-47.1,18.1-9.2,3.5-18.5,6.5-27.7,10-12.3,4.7-24.4,9.8-36.7,14.4-7,2.6-14.3,4.5-21.5,6.6-16.1,4.6-32.2,8.9-48.2,13.9-8.4,2.6-16.5,6.1-24.7,9.4-1,.4-2.2,1.5-2.5,2.5-4.1,10.9-11.2,20.1-17.6,29.6-4.3,6.4-9.7,11.9-14.7,17.8-2.9,3.4-5.7,6.8-8.7,10.1-1.2,1.3-2.7,2.2-4,3.4-1.8,1.6-2.3,2.9.5,4,4.1,1.7,8,4,12.2,5.5,1.8.7,4.1.2,6.2.5,1.2.2,3.2.6,3.3,1.3.3,1.4,0,3.2-.7,4.5-.2.4-2.2,0-3.3-.1-.7-.1-1.7-1-2-.7-3.5,2.8-6.5.2-9.5-1.1-3.7-1.5-7.4-3.2-10.8-5.3-2.5-1.5-4.1-1-6,.7-10.8,9.3-21.8,18.4-32.6,27.7-3.5,3-6.9,6.2-10.1,9.5-.6.7-.8,2.5-.3,3.4.9,1.9.8,2.9-1.4,2.4-5.6-1.2-11.3-2.4-16.8-3.9-12.4-3.4-24.8-7-37.2-10.6-10.3-3-20.7-5.9-30.9-9.2-9.4-3-18.7-6.6-28.1-9.9-1-.3-2.1-.5-3.1-.4-.7.1-1.4.9-2.1,1.4.6.5,1.1,1.1,1.7,1.4,5.1,2.2,10.4,4,15.3,6.6,6.1,3.2,11.8,7,17.7,10.5,2.1,1.2,4.3,2.4,6.6,3.1,6.7,2.1,12.3,6.2,17.7,10.4,1.1.9,2.2,1.7,3.3,2.6.4.4.6,1,.8,1.5-.6.2-1.3.8-1.9.7-1.2-.3-2.4-.8-3.3-1.5-7.1-5.6-15.1-9.1-23.3-12.7-6.4-2.7-12-7.1-18.1-10.5-3.7-2.1-7.6-3.7-11.4-5.6-2.1-1.1-4.2-2.2-6.2-3.4-1.8-1.1-3.4-2.2-5.5-.9-.5.3-1.5.7-1.5.8.2.7.5,1.7,1.1,2,17.9,9.7,35.9,19.3,53.8,29,4.6,2.5,9.1,5.4,13.6,8.2.7.4,1,1.6,1.4,2.5-.9,0-1.9.4-2.6.1-4.3-2.1-8.6-4.3-12.8-6.5-5.2-2.8-10.4-5.7-15.6-8.6-9.4-5.4-18.6-10.9-28-16.1-4.8-2.7-9.7-5-14.7-7.4-.9-.4-2.2-.6-3.1-.2-4.4,1.6-8.8,3.2-13.1,5.1-1.6.7-2.2,2-.2,3.3,5.2,3.2,10.4,6.4,15.5,9.6.2.1.6,0,.7,0,.7,1.2,1.4,2.3,2.1,3.5-1.4-.2-3.1,0-4.2-.6-5.6-3.4-11-7.1-16.6-10.6-.3-.2-1.6.3-1.6.5,0,1.1-.2,2.6.4,3.1,3,2.5,6,5,9.4,6.9,6.4,3.6,13.1,6.8,19.7,10,1.3.6,2.8,2.4,3.9-.6.3-.7,3.1-1.2,3.9-.6,1.9,1.4,3.6,3.4,4.8,5.4.5.8-.2,2.9-1,3.7-.7.6-2.4.2-3.6.1-.7,0-1.9-.3-2.1-.8-2.1-4.5-6.7-4.3-10.3-5.9-3.9-1.7-8-2.9-11.7-4.9-4.3-2.4-8.1-5.4-12.2-8.1-3.5-2.3-6.9-4.7-10.5-6.9-1.2-.7-3.3-1.9-3.9.6-.5,2-1,5.2,0,6.1,6.6,5.5,13.3,11,20.6,15.7,9.1,5.8,18.6,10.8,28.1,15.9,9.6,5.2,19.5,9.9,29.1,15.3,7,3.9,14.3,6.9,21.8,9.4,1.7.6,3.2,1.7,4.6,2.8.8.6,1.2,1.8,1.9,2.7-1.2,0-2.6.1-3.6-.3-3.3-1.4-6.5-3-9.7-4.5-.7-.3-1.5-.6-2.2-.7-.5,0-1.1.2-1.7.3.3.5.4,1.2.8,1.5,2.7,1.6,5.5,3,8.1,4.7,1.3.8,2.1,2.3,3.1,3.4-1.6,0-3.4.5-4.6-.2-3.5-2.1-6.6-5-10.2-6.8-7-3.5-14.3-6.3-21.4-9.5-3.9-1.8-7.5-3.9-11.4-5.7-11.3-5.4-22.8-10.3-33.9-16-8.4-4.3-16.4-9.4-24.3-14.5-3.7-2.4-6.8-5.6-10.1-8.6-.6-.5-.6-1.8-.8-2.7.9,0,1.7-.1,2.6,0,1.2,0,2.6.7,3.5.3.8-.4,1.1-1.9,1.6-2.8-1.6-.5-3.5-1.8-4.9-1.4-3,.7-5.8,2.3-8.7,3.4-19.3,7-38.6,14-57.9,21-9.2,3.3-18.4,6.7-27.7,9.9-13.5,4.7-27.2,8.9-40.6,13.9-7.1,2.6-13.7,6.4-20.7,9.4-6.3,2.8-12.8,5.3-19.2,7.8-.9.4-2.2,0-3.3-.2.7-.9,1.3-2.1,2.2-2.6,4.5-2.2,9.1-4.2,13.7-6.3,5.7-2.6,11.3-5.3,17.1-7.6,8.2-3.3,16.4-6.3,24.7-9.3,12-4.3,24-8.3,36-12.5,9.3-3.3,18.5-6.6,27.7-9.9,6.8-2.5,13.4-5.8,20.4-7.6,10.5-2.6,20-7.7,30.2-10.9.5-.2,1.2-.1,1.7-.4.9-.5,1.7-1.1,2.6-1.7-.7-.4-1.5-.8-2.2-1.2-4.5-2.5-9.1-4.9-13.5-7.5-2.9-1.7-5.5-2-8.9-.8-11.3,3.8-22.9,6.9-34.3,10.6-5.6,1.8-11,4.3-16.5,6.4-4.7,1.8-9.5,3.4-14.1,5.2-.8.3-1.4,1.2-2.2,1.8.6.4,1.2.7,1.7,1.1,3.5,2.3,7.1,4.5,10.5,6.9.8.6,1,1.9,1.5,2.9-1.2.3-2.7,1.3-3.5.9-2.8-1.5-6.4-1-8.1-5.1-1.4-3.5-8.4-4.3-12.4-3-8,2.6-16,5-24,7.5-9.8,3.1-19.7,6.1-29.4,9.5-5.9,2.1-11.5,4.8-17.2,7.4-2.7,1.2-3.1-.5-3.8-2.4-.4-1.1-1.4-2-1.9-3.1-1.3-2.5-2.8-4.9-3.7-7.5-1.9-5.1-3.4-10.4-5.1-15.6-1.1-3.3-2.7-4-6.4-2.7-7.7,2.7-15.4,5.3-23,8.1-1,.4-1.8,1.5-2.8,1.9-.9.3-2,0-2.9,0,.3-1,.4-2.5,1.1-2.9,3.3-1.8,6.7-3.5,10.2-4.9,6-2.3,12.2-4.3,18.2-6.6,1.9-.7,2.1-2.1,1.2-4.1-3.9-8.6-7.7-17.3-11.5-26-.1-.3,0-.7,0-1.1.5-1.7,1-3.3,1.5-4.9.9,1.2,2,2.4,2.6,3.7,2.6,6.9,5,13.8,7.6,20.7.3.8,1.1,1.5,1.6,2.3.2-1,.6-2,.5-2.9,0-1.3-.4-2.7-.8-4-1.9-6.6-3.9-13.1-5.6-19.7-.2-.8,1-1.9,1.6-2.9.7.6,1.7,1.1,1.9,1.8,2,5.4,3.9,10.9,5.7,16.4,1.5,4.6,2.8,9.2,4.5,13.7.3.8,2.6,1.8,3.5,1.4,13.4-4.8,26.8-9.8,40.2-14.7,8.9-3.2,17.8-6.5,26.8-9.5,12.2-4.1,24.4-8,36.5-12.2,9.3-3.2,18.4-6.7,27.6-10.1,2-.7,2.6-2,2.7-4.2.1-11.8.4-23.7.6-35.5,0-4-.3-4.2-4.3-3-1.9.6-4,.9-5.9,1.5-3.8,1.1-4,4.5-4.2,7.4-.5,7.4-.5,14.7-.9,22.1-.2,3.9-.8,7.8-1.5,11.7-.1.8-1.1,1.4-1.7,2.2-.4-.8-1.1-1.6-1.1-2.4.4-8.6.9-17.2,1.4-25.8.2-3.5.7-7,.7-10.6,0-3-2.5-1.1-3.2-.9-6.4,2.2-12.7,4.8-19.1,7.1-6.5,2.4-13.1,4.6-19.6,6.9-7.5,2.6-14.8,5.7-22.4,7.8-21.1,6-41.4,14.2-61.7,22.1-2.9,1.1-5.7,2.5-8.6,3.7-.7.3-1.5,0-2.3.1.1-.9,0-2,.5-2.7.6-.8,1.6-1.3,2.5-1.7,7.8-3.1,15.5-6.2,23.4-9.1,11.7-4.3,23.4-8.7,35.2-12.8,12.9-4.5,25.9-8.5,38.8-12.9,11.7-4,23.3-8.2,35-12.4,2.1-.8,3.5-2.1,3.2-4.8-.2-1.7.4-3.4.6-5.1.4-2.7-.4-4.7-2.5-6.6-8.6-7.6-17.1-15.4-25.5-23.3-5.1-4.8-10.1-9.6-14.8-14.8-6.8-7.6-13.3-15.4-19.7-23.3-7-8.5-14-17-20.7-25.8-3.7-4.8-6.6-10.3-9.8-15.5-.4-.6-.5-1.6-.4-2.3.1-.7.7-1.4,1-2.1.6.5,1.4.8,1.8,1.4,3.2,4.9,6.1,10.1,9.5,14.9,4.6,6.5,9.6,12.7,14.5,18.9,7.2,9,14.3,18.1,21.8,26.8,4.6,5.4,10,10.1,15,15.1.6.6,1.2,1.2,1.8,1.8,8.4,7.9,16.8,15.9,25.3,23.8.7.6,1.7.9,2.5,1.3.3-1,1-2,.8-2.9-1.6-6.8,1.1-13.2,1.6-19.8,0-.6,1.2-1.7,1.4-1.6,2.2,1.2,4.3,2.4,6.3,3.9.2.1-.8,2.8-1.8,3.2-3.7,1.8-4,4.7-3.9,8.2,0,3.1-.4,6.3-.6,9.5-.3,4.6,3.9,6.2,6.2,9,.5.6,1.3.9,2,1.3,2.6,1.8,4.8,3.1,8.3,1.1,3.6-2.1,7.9-3.1,12-4.2,5.9-1.6,5.2-3.9,3.6-8.5-.5-1.5-.7-3.4-.3-4.8.4-1.3,1.8-2.4,2.7-3.5.8,1.5,2.1,2.8,2.4,4.4.4,2,.2,4.1,0,6.1-.1,2.6.5,3.7,3.3,2.5,8.4-3.5,16.9-6.9,25.4-10.3,3.4-1.4,6.9-2.5,10.3-3.9.6-.2,1-.7,1.5-1.1-.5-.5-.8-1.2-1.4-1.4-9.3-3.3-16.8-9.6-24.8-15.1-8.2-5.7-16.5-11.3-24.1-17.7-7.7-6.5-14.5-13.8-21.7-20.8-2.1-2-4.2-4-6.1-6.2-9.3-10.8-18.4-21.8-27.7-32.7-2-2.3-4.3-4.4-6.1-6.9-1.1-1.6-2.2-3.6-2.3-5.5,0-3.4-1.8-2.6-3.6-2-3.2,1-6.4,2-9.7,3.2M471.4,133.5c-5.9-4.7-11.9-9.2-17.6-14.1-4.1-3.5-8-7.3-11.3-11.5-1.4-1.8-1.6-2.2-3.7-1.2-6.3,3-12.7,5.9-19.3,8.5-14.1,5.5-28.3,10.9-42.5,16.2-4.3,1.6-4.8,2.5-2.2,6.1,2.2,3,4.7,5.8,7.1,8.6,8.3,10,16.3,20.1,24.9,29.8,5.7,6.5,12.1,12.4,18.3,18.4,4,3.8,8.1,7.5,12.4,10.9,7,5.6,14,11.3,21.4,16.3,9.6,6.6,18.8,13.8,29.7,18.2,1.4.6,3.4.7,4.9.2,5.5-1.8,10.8-4.1,16.3-5.9,9.3-3,18.8-5.2,27.9-8.7,11.6-4.4,23-9.7,34.4-14.7,4.7-2,9.4-4.2,14-6.3.8-.4,1.3-1.2,2-1.8-.5-.3-.9-.8-1.4-1-8.3-3.6-16.6-7.1-24.8-10.9-6-2.8-11.7-6.1-17.5-9.4-7.4-4.2-15-8.2-22.2-12.8-10.6-6.6-21-13.5-31.2-20.6-6.5-4.5-12.7-9.6-19.7-14.4M642.1,363.5c2.9-2.4,5.7-4.8,8.6-7.2,5-4.1,10.1-8.2,15.1-12.4,6.2-5.3,12.2-10.7,18.3-16,1.5-1.3,1.2-2.1-.4-2.8-2.9-1.3-5.9-2.7-8.8-4-10.6-4.7-21.2-9.3-31.8-14.1-1.5-.7-2.9-1.9-4.1-3.1-.5-.6-.4-1.8-.6-2.7.8,0,1.6-.1,2.2.2,3,1.5,5.9,3.1,9,4.5,7.2,3.4,14.3,6.7,21.5,10,.6.3,1.5.2,2.2.3-.4-.7-.7-1.4-1.1-2-.2-.3-.8-.4-1.2-.7-8-5.4-16.7-9.4-25.7-13-5-2-10.4-2-15.1-.5-9.9,3.2-19.6,7.3-29.2,11.4-3.6,1.5-7.2,3.6-9.9,6.3-1.3,1.3-2.6,2-3.7,1.5-4.9-2.2-8.6,1.9-13,2.3-.5,0-1,.7-1.5,1.1.6.3,1.2.7,1.8,1,2.5,1.3,5,2.5,7.4,3.9,6.4,3.7,12.7,7.8,19.3,11.1,2.5,1.2,4.9,4.4,8.5,2.5.6-.3,1.7.1,2.5.2-.2,1.5.2,3.7-.6,4.2-1.3.9-3.5,1.3-5,.8-2.9-1-4.6-5.7-8.8-2.8-.2.1-.8-.3-1.2-.5-4.1-1.9-8-3.8-12.2-5.5-3.9-1.6-8-2.8-11.9-4.4-.9-.4-1.4-1.6-2.1-2.5,1.1-.1,2.3-.6,3.2-.3,3.4,1.2,6.6,2.7,9.9,4,.6.2,1.3,0,1.9,0-.3-.6-.4-1.4-.9-1.7-3.4-2-6.6-4.3-10.2-5.8-3.8-1.6-7.7-3.5-12.1-1.6-9.1,3.7-18.2,7.2-27.3,10.9-.6.2-1,1.1-1.5,1.7.7.4,1.3.9,2,1.2,1.1.3,2.3.3,3.3.7,5.1,1.9,10.1,4.2,15.3,5.8,12.3,3.8,24.7,7.4,37.1,10.9,13.8,3.9,27.6,7.7,41.5,11.6.9.2,1.9.3,2.8.4-.4-.9-1-1.8-1.2-2.7-.3-.9-.2-2-.3-3,.7.4,1.6.6,2,1.2,1.8,2.4,3.5,2.2,5.7-.2M575.9,212.7c-1.3.6-2.6,1.2-4,1.8-15.7,6.6-30.8,14.6-47.6,18.8-8.9,2.2-17.4,5.7-26.1,8.6-.9.3-1.8.8-2.7,1.2.9.9,1.8,2,2.9,2.5,3.7,1.6,7.5,2.8,11.2,4.4,3.1,1.3,6.1,3.6,8.8-.7.3-.4,1.7-.2,2.6-.2,0,.8.1,1.7-.3,2.4-1.5,2.5-.2,3.5,1.9,4.4,6.8,2.8,13.5,5.8,20.3,8.6,2.7,1.1,5.4,2.1,8.5.8,4.5-1.9,9.2-3.4,13.8-5.2.8-.3,1.7-1.3,1.8-2,.4-4,.7-8,.8-12,0-2,.3-3.9,2.5-3.9,2.9,0,1.7,2.5,1.8,4.1,0,.7-.5,1.5-.7,2.2-.5,2.2-1.1,4.4-1.4,6.6-.6,3.3,1.2,3.4,3.7,2.5,4.1-1.6,8.1-3.2,12.2-4.6,24.7-8.7,49.4-17.4,74.2-26.1.6-.2,1.2-.7,1.8-1-.6-.4-1.2-1-1.9-1.1-5.4-1.2-11-1.9-16.3-3.6-10.9-3.5-21.7-7.6-32.5-11.4-5.6-1.9-11.3-3.7-17-5.3-1-.3-2.4,0-3.3.5-4.9,2.4-9.8,4.9-15,7.7M361.8,338.6c-.9.1-1.9.1-2.7.4-7.3,2.2-14.5,4.5-21.8,6.8-.6.2-1,.7-1.5,1.1.6.5,1,1.2,1.7,1.5,2.5,1,5.1,1.7,7.4,3,3.9,2.1,8.5,3.6,9.5,8.8.3,1.7,1,4.2-2.5,2.7-.7-.3-1.9.1-2.6.6-3.4,2.1-5.7.4-8-1.9-2.1-2.1-1.7-3.9.2-5.8.2-.2-.3-1.9-.9-2.3-2.8-1.6-5.8-2.9-8.7-4.2-.7-.3-1.7-.3-2.4,0-13.9,5.1-27.7,10.5-41.7,15.5-3.7,1.3-3.8,2.9-2.8,6.2,2.4,8.2,4.4,16.5,6.6,24.8.5,2,1.3,2.1,3.2,1.3,6.9-2.8,13.9-5.6,20.9-7.9,8.2-2.7,16.5-5,24.7-7.5,6.8-2.1,13.7-4.3,20.4-6.5.9-.3,1.5-1.3,2.3-1.9-.7-.3-1.5-.5-2.2-.9-1.5-.8-3.2-1.4-4.2-2.7-.6-.7-.4-2.6.1-3.6,1.1-2,1.7.2,2.5.6,1.7.9,3.7,1.5,4.9,2.9,3.1,3.3,6.2,1.8,9.4.5,3.9-1.6,7.7-3.5,11.7-5,7.7-2.9,15.5-5.6,23.3-8.3,8.1-2.7,16.2-5.1,24.3-7.7,1.6-.5,3.1-1.2,4.7-1.8-1.4-.7-2.8-1.3-4.2-2-9.6-5-19.2-10.1-28.8-15.1-3.5-1.8-6.7-4.9-11.3-2.8-2.3,1-4.8,1.9-7.2,2.7-8,2.8-16.1,5.5-24.4,8.5M646.8,235.8c-8.9,3.3-17.8,6.6-26.7,9.7-13.6,4.7-27.3,9.2-40.9,13.8-.8.3-1.6.7-2.5,1,.8.6,1.5,1.4,2.4,1.8,11.6,4.7,22.3,10.9,31.9,19,3.6,3,6.8,4.4,11.7,2.2,10.4-4.5,21.2-8.2,31.7-12.5,11.6-4.7,23-9.6,34.6-14.4,8.1-3.4,16.1-7.1,24.4-10.1,11.7-4.2,23.6-7.7,35.3-11.8,2.2-.8,3.8-2.9,5.7-4.5.3-.3.3-1.3,0-1.6-.3-.3-1.2-.5-1.6-.3-8.1,3.2-16.6,3-25,2.8-8.5-.2-17-.7-25.4-1.4-9-.8-18-2-27-2.8-2.4-.2-5,0-7.3.7-7.1,2.4-14,5.2-21.3,8.2M685.5,298.4c-4.9-.7-9.8-1.4-14.6-2.2-5.9-.9-11.7-2.2-17.6-2.8-3-.3-6.2.5-9.3,1-.6,0-1,.9-1.5,1.4.6.4,1.1.8,1.7,1,4.5,1.6,9.4,2.5,13.5,4.9,9.7,5.7,19.1,12.1,28.6,18.3,2.8,1.9,4.8,1.8,7.3-.7,9.3-9.6,18.4-19.4,26-30.5,6.1-8.8,12-17.7,17.9-26.6.2-.4.4-.8.6-1.2-.5-.1-1.1-.5-1.6-.4-.9.1-1.7.5-2.5.9-6.7,2.8-13.2,6-20,8.4-6.9,2.5-14.2,4.2-21.1,6.7-7,2.5-13.8,5.7-20.8,8.3-4.2,1.6-8.6,2.6-12.8,3.9-.8.2-1.4.9-2.2,1.3.8.3,1.5.7,2.3.8,5.1.5,10.2.7,15.3,1.5,12.1,1.9,24.2,4.4,36.5,1.4.5-.1,1.2.4,1.9.6-.2.5-.4,1.3-.7,1.5-2.1,1-4.2,2.7-6.4,2.8-6.5.2-13.1-.3-20.3-.6M741.9,252.1c2.2-3.7,4.5-7.3,6.6-11,.4-.6.3-1.5.4-2.2-.7,0-1.4,0-2,.2-9.3,3.1-18.8,5.8-27.9,9.3-12.1,4.7-24,10-36.1,15-7.9,3.3-15.9,6.5-23.8,9.7-5.9,2.4-11.7,4.9-17.7,7.1-3.4,1.2-2.7,3.8-2.5,6.1,0,1,1.4,2.5,2.2,2.6,3.2.3,6.7.8,9.7-.1,7.6-2.4,15-5.6,22.5-8.4,6.1-2.3,12.2-4.8,18.4-6.9,4.9-1.6,10.1-2.4,14.9-4.2,9.5-3.6,18.8-7.5,28.1-11.4,2.7-1.1,6.1-1.4,7.1-5.6M566.9,275.3c-4.3-1.4-8.6-3-13-4.3-3.9-1.1-7.9-1.3-11.5,1.3-.7.5-1.7.6-2.5.9-7.2,2.6-14.4,5.3-21.6,8-.4.1-.8.7-.8,1.1,0,.4.5.9.9,1,5,1.5,10.3,2.5,15.1,4.5,6.4,2.7,14.8,2.2,18.4,10.1.1.3.5.4.8.6,2.7,1.6,5.4,3.2,8.1,4.7,3.5,1.9,6.8.6,7.8-3.4.6-2.2.3-4.7.9-6.9.4-1.6,1.5-3,2.4-4.4,0,0,1.5.3,1.6.7.4,1.6.5,3.2.7,4.9,0,.3-.3.6-.4.9-.3,1.1-.6,2.2-.7,3.3,0,2,.4,2.8,2.7,1.6,4.8-2.4,10.6-2.4,14.7-6.3.2-.2.6-.2,1-.3,6.2-1.9,12.4-3.7,18.6-5.6.7-.2,1.3-.8,2-1.2-.8-.4-1.6-.9-2.4-1-3.9-.8-7.9-1.3-11.7-2.2-10.1-2.5-20.2-5.3-31-7.9M477.6,271.3c.4-3.1.9-6.1,1.3-9.2.3-2.6.9-5.3.8-7.9,0-3-2.2-4.4-4.5-3.5-9.1,3.7-18.1,7.5-27.3,10.7-3.3,1.2-4.3,2.8-4.3,5.9,0,3-.7,6.1-.6,9.1.1,4.1-1.6,8.7,3,11.7,3.5,2.3,7.4,4.2,10.4,7,3.8,3.4,7.4,3.6,11.7,1.6,1.1-.5,2.3-.8,3.5-1.2,5.1-1.7,6.8-4,6.7-9.4-.1-4.7-.5-9.4-.7-14.9M536.2,312.5c-6.4-1.9-12.6-4.1-17.8-8.4-5.2-4.3-11.1-6.8-17.7-7.9-1-.2-1.9-1.4-2.8-2.2,1-.5,2-1.4,2.9-1.3,3.2.6,6.6,1.1,9.4,2.6,9.6,4.9,18.3,11.3,28.4,15.3,3.9,1.5,5.6.7,5.6-3.6,0-2.9-.7-5.8-.6-8.7,0-2.1-.5-3.4-2.5-4-7.9-2.7-15.8-5.7-23.8-8-4.5-1.3-9.3-2-13.4,2-.7.7-2.2.4-3.2.8-2.8.9-5.6,1.7-8.2,3-.9.4-1.6,2-1.8,3.1-.3,2.5.5,5.3-.2,7.7-.8,2.4-2.8,4.4-4.5,6.3-.2.2-2.4-.5-2.5-1-.3-1.9-.1-3.9,0-5.9,0-.5.6-.9.9-1.4.4-.9.8-1.8,1.2-2.7-.9-.3-2-1.1-2.8-1-5,.9-10,1.9-15,3-.6.1-1,1-1.5,1.5.6.4,1.2.9,1.8,1.3,3.1,1.9,6.2,3.7,9.2,5.6,5.5,3.5,11,7.3,16.6,10.7,3,1.8,4.9.6,4.8-3.1,0-4.3-.4-8.6-.7-12.8-.1-1.5.3-2.4,1.9-1.8,2.9,1.1,5.8,2.3,8.6,3.6.7.3,1.2,1.2,1.7,1.7-.6.3-1.1.7-1.7,1-.6.3-1.2.4-1.8.6.6.5,1.2,1.2,1.9,1.6,3.4,1.6,6.8,3.4,10.4,4.6,3,1.1,6.2,2.2,9.3,2.2,2.4,0,4.8-1.5,7.2-2.5.5-.2.8-.9.9-1.8M730.4,208c-9,2.7-18,5.3-27,8-7.3,2.2-14.6,4.3-21.8,6.5-.5.2-.9.9-1.4,1.3.4.3.8.7,1.2.8,6.8.5,13.6,1,20.3,1.5,2.1.2,4.1.5,6.2.6,6.4.3,12.8.7,19.2.8,2.8,0,5.6-.5,8.4-.7,1.7-.1,3.5.1,5.2,0,4.1-.4,8.3-1.3,12.4-1.3,3.4,0,5-1.2,6.2-4.2,2.9-7.3,6.2-14.5,9.3-21.8.2-.5,0-1.2,0-1.7-.5,0-1.1,0-1.6.1-4.2,1.2-8.4,2.4-12.6,3.6-7.8,2.2-15.5,4.3-24,6.5M493.8,247.1c-6.1-3.6-9.2-2.1-9.8,5,0,.5-.3,1.1-.4,1.6-.8,5.4-2.1,10.9-2.3,16.3-.3,6.3.3,12.6.6,18.8,0,2.1.7,2.9,3.1,1.9,4-1.7,8.1-3.3,12.2-4.5,3-.9,4.6-2.3,4.3-5.6-.6-6.3-1.1-12.6-1.4-18.9,0-1.2.8-2.8,1.7-3.5.6-.5,2.4-.3,3.2.3.4.3,0,1.9,0,2.9,0,1.8,0,3.7,0,5.5,0,1.9-.4,3.7-.4,5.6,0,3.3.4,6.6.6,9.9,2.2-.7,4.4-1.4,6.6-2.1.3,0,.7-.1,1-.3,1.9-.9,3.1-2,3.1-4.5,0-2.8.6-5.7,1.2-8.5,1.4-5.7-.5-10.2-5.2-12.1-6-2.4-11.9-5-18.2-7.9M447.5,308.5c-.7,0-1.5-.2-2.2,0-6.8,2.2-13.6,4.4-20.4,6.6-.7.2-1.3,1.1-1.5,1.8,0,.4.8,1.2,1.4,1.5,2.4.9,4.8,1.8,7.3,2.3,3.8.8,6.2,5.9,3.7,8.6-1.6,1.7-.2,2.3.6,2.8,5.7,3.2,11.4,6.3,17.2,9.2,1.3.6,3,.4,4.5.4.4,0,1.2-.8,1.2-1.1,0-.6-.5-1.3-1.1-1.7-1.9-1.3-3.8-2.5-5.7-3.6-1.6-.9-3.2-1.5-4.9-2.2-1.6-.8-3.3-1.4-4.7-2.5-.6-.5-.6-1.9-.9-2.8.9,0,2.1-.5,2.8-.1,4.4,2.3,8.7,4.6,13,7.1,2.6,1.5,4.9,4.4,8.3,3.3,3.9-1.3,7.7-2.9,11.4-4.8,2.3-1.2,2.2-7.8,0-9.2-9.4-5.9-18.6-12.2-30-15.6M439.2,290.8c.7-2.9-1.3-4.4-3.1-5.9-3.4-2.9-7-5.7-10.6-8.4-.4-.3-1-.5-1.5-.8-.2.6-.7,1.2-.7,1.9-.3,5.4-.7,10.9-.7,16.3,0,5.6.5,11.1.6,16.7,0,1.9.6,2,2.1,1.4,3.6-1.4,7.3-2.7,11-4.1,1.7-.6,3.4-1.2,5-1.8-1.8-.6-3.7-1-5.3-1.9-1.1-.6-1.8-1.8-2.6-2.8.9-.5,1.8-1.3,2.7-1.4,1.1-.1,2.6,0,3.2.7,4.2,4.2,8.6,4.4,13.5,1.1.5-.4,1.4-.2,1.9-.5.6-.3,1.2-.9,1.7-1.4-.5-.5-.8-1.1-1.4-1.4-3.5-2.5-7.1-4.9-10.7-7.3-.5-.4-1.3-.5-1.9-.6-.1,0-.4.9-.5,1.4-.3,1.8-.4,3.7-.8,5.5-.1.6-.9,1.1-1.4,1.7-.5-.5-1.4-.9-1.3-1.4,0-2.1.4-4.1.7-6.9M613.5,290.1c-6.3,2.3-12.5,4.7-18.8,6.8-2.5.8-3.7,2.1-3.7,4.8,0,2.5-.5,5.1-.6,7.6,0,.8,0,1.8.6,2.2.4.3,1.5,0,2.2-.4,5.4-2.4,10.6-5.1,16.1-7.3,6.3-2.5,12.8-4.6,19.1-6.9.9-.3,1.7-1.2,2.5-1.8-.6-.6-1.1-1.4-1.8-1.7-2.4-1.1-5.1-1.8-7.3-3.2-2.7-1.6-5.2-1.5-8.2-.1M418.6,333.1c6.8,3.7,13.6,7.2,20.3,11,3.2,1.8,6.4,1.5,9.7.8.5-.1.9-1,1.4-1.5-.5-.3-1-.6-1.5-.9-1.6-.8-3.2-1.5-4.8-2.3-5.9-3.2-11.6-6.8-17.7-9.6-3.8-1.7-5.5-3.7-5-8,.4-3.3-1.3-4.3-4.6-3.3-4.2,1.3-8.4,2.4-12.6,3.7-.7.2-1.4.6-2.1.9.6.6,1.1,1.5,1.8,1.9,4.7,2.5,9.5,4.9,15,7.3M500.7,391.4c10.5,4.9,21,9.9,31.5,14.8,7.8,3.7,15.5,7.3,23.3,11,.5.2,1.1,0,1.6.1-.3-.5-.5-1.2-.9-1.4-2.1-1-4.3-1.8-6.4-2.9-7.7-4-15.5-8.1-23.1-12.3-4.9-2.7-9.6-5.8-14.7-8.2-11.8-5.6-23.1-12-32.4-21.4-.6-.6-1.4-1-2-1.5-.5.9-1.4,1.7-1.5,2.6-.2,2.3-.7,4.7,2.4,5.8,1.4.5,2.5,1.5,3.8,2.2,6,3.6,12,7.2,18.3,11.1M572,263c-5.1,1.3-10.3,2.5-15.4,3.9-.4.1-.6.9-.9,1.4.4.2.7.4,1.1.5,3.1.7,6.2,1.4,9.2,2.2,10.9,3,21.7,6.2,32.6,9.2,1.4.4,2.9.7,4.3.8.6,0,1.2-.6,1.8-.9-.4-.4-.8-1-1.3-1.2-3.3-1.8-6.6-3.7-10-5.4-7-3.5-14-6.8-21.4-10.6M478.7,349c-.7,4.8-.5,5.2,3,5.1,4.9-.3,10.3-4.4,11.6-8.8,2-6.9,1.7-8.9-3.9-11.3-2-.8-6.8.8-7.8,2.7-1.8,3.4-1.8,7.9-2.8,12.3M543.4,318.3c0-3-1.6-2.9-3.7-2.1-2.4.9-4.9,1.6-7.3,2.5-.8.3-1.4,1-2,1.5.6.5,1.1,1,1.8,1.4,2.5,1.4,5.2,2.7,7.7,4.1.5.3.8,1,1.2,1.5-.7.3-1.5,1-2.1.9-3.1-.9-6.6-1.4-9.1-3.2-3.1-2.4-3.7-.1-4.5,1.6-.7,1.5-.6,3.4-.8,5.1-.6,4.7,1.8,4.3,5,3.5,2.9-.8,5.6-2.2,8.4-3.2,5.4-1.9,5.4-1.8,5.4-8v-5.4M521,276.3c6.5-2.3,13-4.6,19.5-6.9.6-.2,1-1.1,1.5-1.6-.7-.4-1.3-.9-2-1.2-5.6-2.3-11.1-4.5-16.7-6.7-.8-.3-1.5-.6-2.3-.9-.3.9-.7,1.7-.8,2.6-.3,3.4-.5,6.9-.5,10.4,0,1.6.5,3.3,1.2,4.5M519.9,338.9c2.1-1.8,0-2.4-1-2.8-4.4-2.2-8.9-4.1-13.2-6.4-2.4-1.3-4.5-3-6.7-.2-1.7,2.2-.2,6.4,2.6,7.8,1.2.6,2.4,1.3,3.5,2,3.9,2.6,7.8,3.7,11.8.3.6-.5,1.4-.5,2.9-.8M467.1,306.4c-3.5-2.6-7.3-3.9-11.6-2.2-.9.3-1.7.9-2.5,1.4.7.5,1.3,1.1,2,1.5,2.9,1.5,5.8,2.8,8.6,4.4,4.5,2.6,8.8,5.4,13.4,7.9.9.5,2.3,0,3.5,0-.5-1.8-.4-4.4-1.7-5.4-3.5-2.8-7.5-4.9-11.7-7.6M426.2,271.3c.4.8.7,1.9,1.4,2.5,3,2.5,6.1,4.9,9.2,7.3.8.6,1.8.9,2.6,1.4.2-.9.5-1.7.5-2.6.3-4.5.5-8.9.7-13.4,0-.5-1-1.4-1.2-1.3-4.2,1.2-8.3,2.5-12.4,3.9-.4.1-.5.9-.8,2.2M501.4,312.5c0,2.2.4,4.5,0,6.6-.8,3.7.7,5.5,4.5,4.6,3.6-.9,7.1-2,10.6-3.1.8-.3,1.5-1,2.3-1.5-.7-.5-1.3-1.1-2-1.5-1.6-.9-3.3-1.9-5-2.6-3.4-1.2-6.8-2.2-10.2-2.6M457,346.9c-1.3-.1-2.6-.5-3.9-.4-1,.1-2,.9-3,1.4.9.7,1.8,1.4,2.8,2,4.1,2.5,8.5,4.7,12.3,7.5,2.3,1.6,4.2,2.1,6.6,1,.8-.4,1.5-1.1,2.2-1.7-.6-.7-1.2-1.6-1.9-2-4.8-2.7-9.6-5.3-15.1-7.9M566.2,308.5c-1-.2-2.2-1-2.9-.6-4.1,2.1-8.1,4.6-13,4.3-.6,0-1.2,1.1-1.8,1.7.5.4,1,.9,1.6,1.1,4.2,1.3,8.4,2.3,12.5,3.8,3,1.1,3.9.7,3.9-2.3,0-2.5,0-5-.4-7.9M580.6,310c1.1.6,2.1,1.5,3.3,1.7.9.1,2.7-.5,2.8-1.1.5-2.5.7-5.1.8-7.6.1-2-.7-2.8-2.8-2.1-3.9,1.2-7.8,2.2-11.6,3.4-.6.2-1.4,1.4-1.3,2,0,.6,1.1,1.2,1.9,1.5,2.1.8,4.2,1.5,7,2.2M553.9,325.2c1.6-.7,3.3-1.3,4.9-2,.7-.3,1.3-.8,1.9-1.2-.7-.6-1.3-1.4-2.2-1.7-1.9-.6-3.9-1-5.8-1.5-1.7-.5-3.4-1-5.2-1.4-.2,1.8-.4,3.6-.6,5.4-.2,1.5-.3,3.1-.5,4.6,1.5-.3,3.1-.4,4.6-.8.7-.2,1.3-.8,2.7-1.2M496,325.9c0-.6,0-1.5-.3-1.7-3.7-2.1-7.4-4.2-11.2-6.1-.3-.2-1.7.8-1.8,1.4-.9,4.1,2,6.5,4.6,8.4,3,2.2,5.7-.3,8.7-2M518.4,332.4c1.1-.3,2.9-.5,3-1,.6-2.2.8-4.6.9-6.9,0-.6-1.1-1.7-1.4-1.6-3.4.8-6.7,1.7-10,2.7-.8.3-1.5,1-2.2,1.5.7.6,1.3,1.4,2.1,1.8,2.4,1.2,4.8,2.2,7.6,3.6M577,312.2c-.7-.2-1.5-.4-2.2-.8-2.9-1.7-3.7-1.9-3.9-.7-.4,2.7-.1,5.6-.1,8.3.6,0,1.2-.1,1.7-.3,2.4-.7,4.9-1.3,7.3-2.3,1-.4,1.7-1.6,2.6-2.4-1-.4-2-.8-3.1-1.1-.6-.2-1.3-.3-2.4-.7M554.2,303.8c-1.6-1.4-3.1-2.8-4.8-4-.5-.4-1.6,0-2.4,0,.4,3.2.8,6.4,1.3,9.6,1.9-.5,3.8-1.1,5.7-1.6.9-.2,1.7-.4,2.6-.7.7-.3,1.3-.7,2-1.1-.6-.6-1.1-1.4-1.8-1.7-.6-.3-1.4,0-2.5-.4M500.7,346.5c1.1-.4,2.2-.6,3.1-1.1.7-.4,1.3-1,1.9-1.6-.6-.4-1.2-.9-1.9-1.3-1.2-.8-2.7-1.3-3.7-2.4-1.9-2.1-2.5-.3-3.1.9-.4.8,0,1.9,0,2.8,0,1.3-.1,2.5-.2,3.8,1.2-.3,2.3-.6,3.8-1.2M471.1,346.5c-2.5-1.1-5-2.3-7.6-3.2-.7-.2-1.6.3-2.5.5.6.7,1,1.7,1.7,2.1,2.8,1.5,5.7,3,8.6,4.3,1.1.5,2.6.1,3.9.2-.8-1-1.6-2-2.5-3-.3-.3-.8-.4-1.6-.9M413.9,267.7c-1.2-1.2-2.4-2.6-3.8-3.7-.5-.4-1.6-.2-2.4-.2.1,2.2.2,4.5.4,6.7,1.9-.7,3.9-1.4,5.8-2.8M475,342.5c.8-.8,1.8-1.6,2.5-2.6.3-.5.2-1.3.2-2-.5,0-1.1,0-1.6.2-1.6.4-3.2.9-4.8,1.5-.6.2-1.2.6-1.8.9.5.5.8,1.2,1.4,1.5,1.2.4,2.4.6,4,.5M626.2,287.6c3,0,6.2.5,7.6-3.2.1-.4.1-.8.2-1.3-.4,0-.9,0-1.3.2-2,.5-4,.8-5.8,1.6-.6.2-3.3.5-.7,2.8M424,323.4c1.2,1.3,2.2,2.9,3.7,3.9.9.6,2.3.4,3.5.5-.5-.8-.9-1.8-1.6-2.5-1.2-1.2-2.6-2.3-4-3.3-.2-.2-1,.4-1.5,1.3M473.6,367.1c-2.5,0-2.8,1.8-2.4,3.4.3,1.1,1.6,2,2.5,3,0-1.2.2-2.4.3-3.6,0-.8,0-1.7-.4-2.8M483.7,328.1c-.6.9-1.1,1.8-1.7,2.7.6.3,1.1.6,1.7.9,0-1.1.2-2.1,0-3.6M489.5,357.7c-.7-.7-1.4-1.6-2.2-2.1-.3-.2-1.1.6-1.7.9,1,.4,2.1.8,3.9,1.2M632.4,292.3c.8.1,1.6.3,2.5.4-.1-.7-.2-1.3-.4-2-.8.4-1.6.8-2.1,1.5M474.3,362.8c-.1-.5-.1-1.1-.4-1.4-.2-.2-.8,0-1.3.2.3.4.6.8,1.7,1.2Z"/>
      <path d="M461,877.4c10.6.3,20.8.5,31,.9,9.2.3,18.5.7,27.7,1,6.4.2,12.9.4,19.3.6,7,.2,14.1.4,21.1.5,5.4,0,10.9,0,16.3,0,9.8,0,19.6.1,29.4.2,3.6,0,7.3.1,10.9.3,11,.5,21.9,1,32.9,1.5,4.4.2,8.7.2,13.1.2,10.7,0,21.3-.1,32,.1,11.4.3,22.9.9,34.3,1.4,7,.3,14.1.4,21.1.6,8.2.2,16.5,0,24.7.4,8.8.4,17.6,1.1,26.4,1.7.5,0,1.2-.1,1.6-.4,2.6-1.7,7.7.1,8.6,3.2.1.4-1.6,1.9-2.4,1.8-4.4-.2-8.7-.6-13.1-1-.9,0-1.8-.4-2.7-.4-11.3-.3-22.6-.5-33.9-.7-7.5-.2-15.1-.2-22.6-.5-3.8-.1-7.6-.8-11.4-.9-2.9-.1-5.9.4-8.8.3-10.9-.2-21.9-.5-32.8-.7-7.3-.2-14.6-.3-21.9-.5-7.4-.2-14.8,0-22.2-.6-10.1-.7-20.1-1.5-30.3-.9-6.2.3-12.4-.5-18.6-.5-8.1,0-16.2.4-24.3.2-10.2-.3-20.5-1.1-30.7-1.5-5.9-.2-11.9,0-17.8,0-10.9-.2-21.9-.4-32.8-.8-7.2-.3-14.4-.6-21.6-1.3-12.3-1.2-24.5-1.3-36.8-.6-4.8.3-9.7-.1-14.5,0-11.6.2-23.2.8-34.8.6-6.2,0-12.3-1.3-18.4-2-.8,0-1.7,0-2.5,0-18.5-.3-37-1.2-55.6,0-7.2.5-14.6-.3-21.9-.4-5.2,0-10.4-.2-15.6,0-4,.1-8,.9-12,1.1-3.4.2-6.8-.3-10.2-.2-3.2.1-6.3.8-9.4,1-.9,0-1.9-.8-2.8-1.3.7-.7,1.2-1.7,2.1-2.1,1.1-.5,2.4-.9,3.6-.9,15.9-.7,31.8-1.6,47.7-2,7.5-.2,15.1,1,22.7,1,5.5,0,11.1-1.3,16.6-1.2,10.1.2,20.2,1,30.4,1.5,5.6.3,11.2.6,16.8.7,8.9.2,17.7.4,26.6.3,6.1,0,12.1-.6,18.2-.7,9.5,0,18.9.1,28.4.2,4.7,0,9.5,0,14.2.1,1.4,0,2.7.3,4.4.5Z"/>
      <path d="M308.5,724.3c-1.9-2.5-3.4-4.9-5.3-7.1-1.5-1.7-3.4-3.2-5.1-4.7-2.8-2.5-5.7-5-8.3-7.7-.6-.6-.2-2.4.2-3.6.3-1.2,1.2-2.2,1.6-3.3.9-2.5,1.2-3.2,4.6-1.5,6.5,3.1,10.9,8,14.9,13.4,3.7,4.8,6.5,10.3,9.8,15.4,3.3,5.1,7.1,10,10.1,15.3,3.5,6.1,6.3,12.6,9.8,18.7,2.2,3.8,4.9,7.5,7.7,10.9,1.3,1.6,3.3,2.8,5.2,3.8,2.8,1.5,4.2,4.4,2.7,8.1-.9,2.2-.4,3.4,1.2,4.5,4.6,3.3,9.3,6.6,14.1,9.5,9.5,5.7,19.2,11.3,28.8,16.8,5.7,3.3,11.6,6.2,17.4,9.5,8,4.5,15.9,9.3,24,13.7,1.7.9,3.9,1.1,6,1.2,2.3.1,2.8,1.3,3.7,3.3,1.2,2.4-.2,3.3-1.4,4-1.4.7-3.2.6-4.9.8-.2,0-.4-.3-.5-.4-8.1-8.6-19.4-12.4-29-18.9-8-5.5-16.9-9.7-25.4-14.5-9.3-5.3-18.6-10.5-27.7-16.1-5.5-3.4-10.7-7.5-15.8-11.6-1.3-1-2-2.8-2.8-4.2-.7-1.1-1.2-2,.9-2.3,1.8-.3,2.1-1.6.9-3.1-8.9-11.7-17.7-23.5-26.6-35.2-3.6-4.8-7.2-9.6-10.9-14.5M307.9,710.7c-.7-.7-1.5-1.4-2.2-2.1.1,1,.3,2.1.4,3.1,0,.2.3.4.4.5,1.4,1.2,2.8,2.4,4.2,3.5-.8-1.6-1.7-3.1-2.9-5.1Z"/>
      <path d="M271.4,664.4c-.7,1.9-1.4,3.5-2.1,5.1-1.7-1.1-4.1-1.8-5-3.4-3.2-5.5-6.1-11.2-8.8-17-7.5-16.3-15.2-32.5-21.9-49.1-3.3-8.3-4.4-17.5-6.4-26.3-3.2-14.1-3.4-28.5-2.8-42.9.3-8.4,1.6-16.8,2.8-25.2,1.5-10.3,3-20.6,5.1-30.8,2.6-12.3,5.3-24.5,9.7-36.4,4.6-12.2,9.3-24.2,16.3-35.2,1.7-2.7,4.6-4.6,7.1-6.7.3-.3,1.3.2,2,.3-.2.6-.2,1.5-.5,1.7-5.1,2.8-6.9,8-9.3,12.7-6,11.4-11,23.2-14.4,35.6-2.9,10.6-4.9,21.4-7.3,32-1.6,7.2-3.4,14.3-4.9,21.5-.8,4.2-1.3,8.5-1.6,12.7-.6,8.1-1.6,16.2-1.3,24.3.4,11.1,1.7,22.2,2.8,33.3.9,9.5,2.9,18.8,6.5,27.7,2.9,7.1,6,14.1,9.1,21.2,4.9,11.2,9.8,22.4,14.8,33.6,1.2,2.7,2.8,5.4,4.4,7.9.3.6,1.7,1.2,2,1,2.5-1.7,2.7.8,3.7,2.2Z"/>
      <path d="M483.4,848.8c-4.6-.7-8.9-1.5-13.2-2.2-3.6-.6-7.3-.8-10.9-1.6-1.3-.3-3.3-1.9-3.2-2.7.3-2.2,1.9-1.4,3.7-1.1,5.6,1.1,11.4,1.9,17.1,2.3,11.6.9,23.3,1.4,34.9,2.3,7.8.6,15.6,1.3,23.3,2.2,6.8.8,13.6,2.1,20.5,2.8,3.7.4,7.5.2,11.3,0,.6,0,1.5-1.2,1.7-2,.3-1-.1-2.2.1-3.2.3-.9,1.1-1.7,1.7-2.6.4.7.7,1.5,1.2,2.2,1.2,1.6,2.4,3,3.6,4.6.8,1,2.3,2.6,2,2.9-.9,1.3-2.3,3-3.7,3.1-3.9.2-7.8-.2-11.6-.6-3.8-.4-7.5-1-11.3-1.4-8.8-1-17.5-2-26.3-2.9-4.6-.4-9.2-.6-13.8-.7-7-.3-14-.5-21-.8-2,0-3.9-.5-6.2-.7Z"/>
      <path d="M769.6,789.4c-8.8,2.6-17.5,4.8-26.1,7.5-13.3,4.2-26.5,8.6-39.8,13-5.3,1.8-10.4,4-15.6,5.9-.9.3-2,0-3,0,.6-1,1-2.7,1.9-3,8.9-3.5,17.8-7.1,26.9-10.1,15.9-5.1,31.9-9.6,47.8-14.6,4.1-1.3,8-3.4,12-5,1.7-.7,2.2-1.3,1.4-3-1-2,0-3.6,1.8-4.2,2.6-.8,5.3-1.3,8-1.5,3-.2,4.3,2,3.3,4.9-1.5,4.4-5,5.7-9.1,6.7-3.2.8-6.3,2.1-9.7,3.4Z"/>
      <path d="M677,824.8c-5.1,1.9-10.1,3.6-15.1,5.2-12.2,4-24.5,7.7-36.7,11.9-8.5,2.9-16.9,6.4-25.4,9.3-4.5,1.5-9.2,2.4-13.8,3.3-.6.1-1.4-1-2.2-1.6.5-.6,1-1.6,1.6-1.9,6.9-2.3,13.9-4.3,20.8-6.6,10.9-3.6,21.8-7.2,32.7-10.8,9.4-3.1,18.9-6.3,28.3-9.4,2.4-.8,3.4-2.2,1.9-4.6-1.6-2.6-.4-3.4,2.1-3.3,2.1.1,4.5,0,6.1.9.9.6.7,3.2.8,4.9,0,.8-.6,1.6-1.1,2.6Z"/>
      <path d="M589.5,425.5c3.8-.4,6.2,1.2,6.7,4.1.5,2.9-1.4,5.6-4.7,6.1-1,.2-2.4-.8-3.2-1.7-2.5-2.6-1.9-6.4,1.2-8.5Z"/>
      <path d="M592,391.9c-1.1,0-2.9-.3-2.9-.6-.2-2.6-.2-5.2,0-7.8,0-.2,1.9-.7,2.3-.4,1.8,1.5,2.2,6.7.7,8.9Z"/>
      <path d="M450.8,742.5c-.4-1-.4-1.9-.3-2.9,0,0,.7,0,.7,0,0,1,0,1.9-.3,2.9Z"/>
      <path d="M578.4,915.1c.7-.1,1.5,0,2.2.3-.2.4-.3.7-.5,1.1-.6-.3-1.1-.7-1.7-1.4Z"/>
      <path d="M266.2,909.6c-.5.3-1,.2-1.4,0,.2-.5.3-1,.5-1.5.3.3.6.7,1,1.4Z"/>
      <path d="M228.6,638.2c-.5-.3-.9-.8-1.3-1.4.3-.2.6-.4,1-.6.2.6.3,1.2.3,2Z"/>
      <path d="M693.7,852.3c-.8-.4-1.4-.9-2-1.5,0,0,.3-.3.4-.4.6.6,1.2,1.2,1.6,1.9Z"/>
      <g id="TbcFSs" class="cls-1">
        <image id="TbcFSs-2" data-name="TbcFSs" width="470" height="242" transform="translate(230.4 35) scale(.3)" xlink:href="pdp_6-1.png"/>
      </g>
      <g id="xgjwuG" class="cls-1">
        <image id="xgjwuG-2" data-name="xgjwuG" width="1806" height="250" transform="translate(535.2 452.4) scale(.2)" xlink:href="pdp_6-2.png"/>
      </g>
      <g id="mEb2dE">
        <image id="mEb2dE-2" data-name="mEb2dE" width="1062" height="242" transform="translate(0 723.7) scale(.3)" xlink:href="pdp_6-3.png"/>
      </g>
    </g>
  </g>
</svg>