<?xml version="1.0" encoding="UTF-8"?>
<svg xmlns="http://www.w3.org/2000/svg" xmlns:xlink="http://www.w3.org/1999/xlink" version="1.1" viewBox="0 0 1171.7 714.1">
  <defs>
    <style>
      .cls-1 {
        opacity: .3;
      }
    </style>
  </defs>
  <!-- Generator: Adobe Illustrator 28.7.3, SVG Export Plug-In . SVG Version: 1.2.0 Build 164)  -->
  <g>
    <g id="Contours">
      <path d="M869.7,121.3c.7.2,1.7-.9,2.4.7.6,1.3,2.5,2,3.9,2.7,1.9.9,3.9,1.5,5.8,2.4,7.4,3.5,15.1,6.2,23.2,7.6,2.4.4,4.6,1.6,6.9,2.4.9.3,1.9.4,3,.5,1,.5,1.9,1.4,2.8,1.4,4.7-.1,8.6,2.2,12.8,3.8.5.2,1.2,0,1.8,0-.1-.4-.3-.7-.4-1.1.4,0,1.2-.1,1.2,0,1.3,3.3,4.6,3.8,7.3,4.1,3.6.4,7,2,10.5,2.1,2.5.1,4.8,2.1,7.4.5,1.3,2,3.5.8,5.1,1.5.6.3,1.4.2,2.1.5,6.3,2.3,13.3,1.1,19.6,3.7,1.7.7,4,0,6,.1,1.5.1,2.9.5,4.4,0,1.2-.3,2.5-.3,3.9.5,1.4.8,3.3.8,5,.8,4.6,0,9.1,2,13.7,0,.6-.3,1.5,0,2.2,0,1.8,0,3.6-.3,5.3,0,1.6.3,3.1-.2,4.7-.1,1.8.1,3.5,0,5.3,0,1.3,0,2.6.7,3.8.7s2.6-.7,3.8-.6c1.7,0,3.3.7,5,.6,2,0,3.7,1.5,6,.5,1.4-.7,3.6,0,5.3.4,3,.9,5.9-.2,8.8-.1,2.5,0,5,.7,7.5-.3,2.3-.9,5-.3,7.2-1.8.4-.3,1.3.1,1.8-.1,1.2-.7,2.5,2,3.2.2,1-2.4,4.4-3.3,3.8-6.8-.3-1.5.7-3.2,1.1-4.8.4-1.7.7-3.5,1.1-5.2.4-1.7.6-3.7,1.6-5,1.9-2.3,1.1-5,2.1-7.5,1.2-3.1,2.8-6.1,2.3-9.6,1.8-1.4,1.3-3.5,1.6-5.4.3-2.1-1.3-2.8-2.3-4-.1-.1-.4-.2-.5-.2-4,1.9-8,0-11.9-.4-5.5-.6-10.9-1.4-16.4-1.2-1,0-2.1.4-3.1.6-.6,0-1.3.3-1.8,0-2.8-1.4-5.9-.4-8.8-.7-7.7-1-15.4-.3-23.1-.9-3.8-.3-7.6-.2-11.4-.6-5.4-.6-10.7-1.5-16-2.2s-10.7-1.5-16-2.3c-5.2-.7-10.5-1.4-15.6-2.3-7.9-1.4-15.9-2.4-23.5-5.1-3.4-1.2-7.4-.9-11-1.8-4.8-1.1-9.5-2.6-14.2-4-3.5-1.1-7-2-10.5-2.9-3.5-1-7-1.9-10.4-2.9-6.8-2.1-13.5-4.3-20.2-6.7-3.5-1.2-6.8-3-10.3-4.1-9.4-3-17.9-8.3-27.5-11.1-2.4-.7-4.5-2.5-6.8-3.6-1.7-.8-3.4-1.6-5.1-2.3-4.1-1.6-7.4-4.6-11.2-6.7-1.2-.6.3-2.7-1.9-2.5-.7,0-1.5-1.5-2.3-2.3,0,0-.2-.2-.3-.3-.8-1.2-1-4-.3-4,1.5,0,3,.5,4.6.7,0,0,0,.6-.1.8-.9,1.2.4,2,.8,2,2.8-.3,3.3,2.4,4.9,3.6,5,3.8,10.6,6.3,16.4,8.8,2.8,1.2,5.7,2.5,8.5,3.9,2.2,1.1,4.2,2.8,6.5,3.4,4.7,1.2,8.9,3.5,13.3,5.2,5.6,2.1,11.1,4.2,16.6,6.3,1.1.4,2.1,1.1,3.2,1.4,1.2.4,2.5.6,4,.8,1.6,2,4,1.5,5.8,2.2,3.1,1.2,6.4,1.4,9.6,2.7,4.2,1.7,8.8,2.3,13.3,3.4.6.1,1.3.1,1.7.5,2.1,1.9,4.8,1.9,7.3,2.5,5.2,1.3,10.5,2,15.7,3.1,4.2.9,8.3,2.1,12.5,3,2.9.6,5.9.8,8.8,1.6,3.9,1,8.1.4,11.9,2.2.1,0,.2,0,.4,0,4.2-.6,8.1.9,12.2,1.5,5.8.9,11.6,1.9,17.4,2.7,1.8.2,3.8.3,5.4.1,4.1-.6,8.1,2.3,12.2.2,4,1.6,8.2.5,12.4,1.3,5.4,1,11.1,1.1,16.6.8,4.1-.2,8.3-.3,12.4-.6,4.5-.3,8.9.7,13.3,1.4,3.9.6,7.8.6,11.7.8,1.2,0,1.9-.4,2.6-1.5,1-1.5,1.4-3.7,3.6-4.1.4-2.5,1.3-1.1,2.1-.3,2.3,2.3,1.9,4.7.5,7.7-1.4,3-1.8,6.5-2.4,9.9-.1.8,1,1.8,1.2,2.8,0,.6-1.5.5-1.4,1.9,0,.9-.9,1.8-1.4,2.8-.1.2,0,.5,0,.9-1.6.8-.9,2.4-.5,2.9,1,1.2.3,1.8-.5,2.4-2.5,2.2-2.1,5.4-2.6,8.2-.2.9.2,2-.2,2.8-2.1,4.6-2.1,4.6-2.2,9.3,0,1.4-.5,2.8-.6,4.2,0,.7.3,1.5.6,2.3,1.3,2.9,1,4.2-1.9,4.8-2,.4-1.9,1.2-2,2.6-.1,1.2-.7,2.4-1.3,3.5-.2-.5-.1-.9-.2-1.3,0-.3-.3-.5-.4-.7-.1.2-.3.4-.3.6.2.6.5,1.1.7,1.6-.3.6-.5,1.3-.8,2-.8,2.3-1.9,4.4-.8,7,.4.9.8,2.7-1.5,2.4-.1,0-.7,1.2-.6,1.7.8,3.7.5,4.3-1.9,7.4-.7.9-.8,2.4-1.1,3.7-.2.9-.6,1.4-2.1,2.5-.4.3-.9,1-.8,1.1,1.7,2.7-1.8,4.8-.9,7.4.1.4-.8.5-1.4,0-.2-.1-.5-.2-.7-.2-.3,1-1.1,2.6-.7,3,1.6,1.5,0,2.7-.2,4,0,.5-1.3.8-1.4,1.3,0,.9.6,1.8.6,2.7,0,.6-.3,1.4-.7,1.9-.6.7-1.2,1.3-.2,2.2.2.2,0,.8-.1,1.2-.4-.2-.8-.3-1.1-.5-.2-.2-.3-.6-.4-.9-.1.2-.4.4-.4.6,0,.7-.2,1.7.2,2.1.8.9.4,1.4-.2,2.2-1.2,1.6-2.3,3.3-2.4,5.4,0,.5-.5,1-.9,1.5-2.3,2.8-3.4,6.1-4.3,9.5-.3,1-.3,1.7-1.5.9-.4-.2-1,0-1.5,0,.5.4.9.8,1.4,1.1,2.9,1.6,6.1.8,8.7-.1,4.8-1.7,9.8-2.4,14.7-3.6,4.5-1.1,8.9-2.1,13.4-3.2,5-1.3,9.9-3,15.1-3.6,2-.2,3.8-1.1,5.8-1.4,3.9-.6,7.9-1,11.8-1.6.7,0,1.3-.5,1.9-.8.3-.2.6-.7.9-.6,2.6.3,4.9-.7,7.3-1.5,3.5-1.1,7.1-1.6,10.7-2.4,5.9-1.4,11.8-3,17.8-4.4,4-.9,8.2-1.5,12.2-2.3,1.1-.2,2.1-1,3.2-1.5,3.7-1.4,7.9-1.2,11.6-3,1.7,1.3,2.9-.6,4.3-.7,1.5-.1,3.1,0,4.6-.3,1.5-.4,2.9-1.8,4.4-1.9,6.6-.8,12.6-3.6,18.9-5.5,6.3-1.9,12.6-4.2,18.8-6.4,6.8-2.4,13.9-4,20.8-6.4,6.2-2.1,12.5-3.8,18.6-6.1,2.6-1,5.5-1.4,8.2-2.2,3-.9,6-1.9,8.9-3,3.2-1.3,6.6-1.6,10-2.3,1.7-.3,3.4-1,5-1.5,10.3-3,20.6-6.1,30.9-9,3.5-1,7.2-1.5,10.7-2.3,3.1-.7,6.1-1.7,9.2-2.4,1.6-.4,3-1.1,4.9-1,1.8.1,2.7.8,2.7,2,0,.8-1.6,1.7-2.6,2.1-2,.7-4.1,1.1-6.1,1.6-6.3,1.3-12.7,2.3-18.9,4.3-3.4,1.1-7.1,1.6-10.7,2.5-4,1-7.9,2.1-11.9,3.2-5.3,1.6-10.5,3.2-15.9,4.4-4.7,1.1-9.3,3.1-14,4.4-3.2.9-6.6,1.6-9.7,2.9-1.9.8-4.3.7-6.1,1.6-5,2.6-10.6,3.4-15.8,5.6-5.8,2.5-12.3,3.5-18.3,5.8-3.2,1.2-6.3,2.4-9.5,3.4-5.2,1.7-10.5,3.2-15.8,4.8-.7.2-1.4.4-1.9.8-3,2.1-6.6,2.4-10.1,3-1.3.2-2.5.7-3.7,1.1-1.2.4-2.4.8-3.7,1.1-1.3.3-2.6.8-3.8.7-1.2-.2-2.4,1.3-3.5,0-2.7,1.9-6.2.8-9,2.8-1.7,1.2-4.3,1.2-6.6,1.7-3.8.8-7.7,1.3-11.5,2.3-3.8,1.1-7.8,1.1-11.4,2.5-2.3.9-4.6,1.4-6.8,2.1-2.1.7-4.3.6-6.3,1.4-2.3.9-4.8.9-6.9,1.6-5.8,2.1-12,2.3-17.8,3.7-6.8,1.7-13.9,2.4-20.4,5.4-2.2,1-4.6.3-6.8,1.2-2.2,1-4.4,1.8-6.9,1.6-1,0-5.9,1.8-6.9,2.5-.2.1-.5.2-.7.1-3.7-1.3-6.6,1-9.7,2.1-1.3.5-2.6,1.1-3.9,1.6-1.5.5-3.1.5-4,2.3-.3.5-2.1.2-3.1.4-.4,0-.7.6-1.1,1,.4.2.7.5,1.1.5,1.5,0,.5.4.4,1.2-.4,2.2-1.6,3.9-2.6,5.7-2.3,4.1-4.2,8.6-5.7,13.1-1.1,3.3-2.5,6.3-4,9.3-.7,1.5-1.6,2.9-2,4.4-.3,1.3.1,3.2-2,1.1,0,0-1,.5-1.1.9-.2.8,0,1.7,1.1,1.3,1.3-.6,2.2-.2,3.2.6.6-1.4,2-1,3-1.3,2.6-.6,4,1.1,3.3,3.7,0,.3-.4.7-.6.7-2,.3-3.3,2-5.4,2.5-3,.8-6.4,1.6-8.8,4.3-.5.5-1.5.5-2.2.9-.7.4-1.3.9-1.8,1.4-.3.3-.3.9-.5,1.4.5-.2,1-.5,1.7-.7.4,2.7-1.8,4.2-2.8,6.3-.8,1.7-2,3.2-3.2,4.7-.7.9-1,1.7-.2,2.6.7.9,1.5.7,2.6.5,2.3-.6,4.3-1.8,6.4-2.7,4.4-1.8,8.7-4.1,13.3-5.2,4.8-1.2,9.5-2.9,14.5-3.3,2.3-.2,4.9-.9,7.1-1.8,4.4-1.6,8.9-2.1,13.3-3.3,5-1.4,10.2-2.3,15.1-4,2.7-.9,5.7-.6,8.3-2.1,1.6-.9,3.3-1.8,5.1-2.2,3.4-.9,6.9-1.5,10.4-2.3.7-.2,1.3-.4,1.9-.8,2.1-1.1,4.2-1.8,6.5-1.5.7,0,1.5,0,2-.4,3.1-2.4,7.1-3,10.5-4.7,2.1-1.1,4.2-2.9,6.9-2.4.1,0,.2,0,.3,0,5.6-3.8,12.5-3.6,18.4-6.6,5.4-2.7,11.5-4,17.4-5.4,1.3-.3,2.5-1.4,3.8-1.8,1.7-.5,3.5-.8,5.2-1.2.8-.2,1.7-.3,2.3-.8,1.4-1,2.8-1.9,4.7-1.5.4,0,1,0,1.3-.3,4.3-3,9.3-4.3,14-6.3,7.8-3.3,16.1-5.4,23.9-8.8,2.4-1,5-1.3,6.9-3.3,3.7.8,6.3-2,9.5-2.9,5.3-1.4,10.2-4,15.5-5.4,5.7-1.5,11-3.9,16.4-6,.3-.1.7-.1,1-.2,5.5-1.4,10.9-2.8,16.4-4.1,3.8-.9,7.5-1.9,11.2-3.1,5.5-1.9,10.9-4.1,16.4-5.8,4.5-1.4,9-2.3,13.3-4.3.8-.4,1.7-.3,2.6-.4,3.8-.5,7.1-2.3,11-2.8,3.6-.4,7-2.5,10.5-2.7,4.6-.2,8.7-2.9,13.4-2.5,1.4,0,3-.2,4.1-.9,3.6-2.2,7.8-1.9,11.7-2.7,3.6-.7,7-2,10.5-2.9,4.4-1.1,8.7-2.7,13-4,2.6-.8,5.1-1.5,7.7-2.3.2,0,.3-.4.5-.5,1.8-.6,3.3,0,3.5,1.4.2,1.2-1.1,2.6-2.7,3-1.7.4-3.4.8-5.1,1.4-6.6,2-13.2,3.9-19.8,5.9-5.4,1.7-11.2,2.6-16.8,4.1-4.4,1.2-8.9,1.9-13.4,2.2-.3,0-.7.2-1,.3-4.3,2.1-9,2.6-13.6,3.5-4.4.9-8.6,2.7-12.9,3.6-6.8,1.4-13.1,4.3-19.7,6.2-5.5,1.5-10.8,3.7-16.2,5.4-2.8.9-5.8,1.4-8.5,2.3-3.7,1.2-7.4,2.1-11.2,3.1-9.3,2.4-17.9,6.7-27.2,9-4.1,1-7.8,3-11.8,4.3-5.1,1.8-10.2,4-15.2,6-3.4,1.3-6.8,2.5-10.1,3.8-5.3,2-10.7,3.9-16,6.1-4.1,1.7-8.4,2.7-12.2,5.1-1.6,1-3.9.8-5.8,1.5-4,1.3-7.8,3-11.8,4.1-1.9.5-3.8,1.9-6,1.3-.2,0-.5,0-.7.2-3.9,3.1-9,3.1-13.4,5.1-3.4,1.5-7.1,2.3-10.4,4.2-2.3,1.3-5,1.8-7.6,2.6-1.5.5-3.5.6-4.6,1.6-2.4,2.2-6.1,1.6-8.3,4.1-.8.9-2.6.9-4,1-6.5.4-12.3,3.1-18.3,5-4.7,1.4-9.4,2.8-13.9,4.7-2.5,1-5.3,1.1-8,1.7-2.7.7-5.4,1.6-8.1,2.4-.8.2-1.6.7-2.4.6-2.6-.3-4.9.8-7.3,1.6-.8.2-1.5.6-2.3.7-1.8.2-3.8-.6-5.2,1.3-.2.3-1.4-.3-2,0-4.4,1.1-8.9,2.3-13.3,3.4-2.3.6-4.3,1.6-6.4,2.8-2.3,1.3-5,1.9-7.5,2.8-3.2,1.1-6.3,2.3-9.5,3.5-3.8,1.3-5.9,2.8-8.6,6.4-.2.2-.5.3-.5.5-1.8,7.4-8.1,12.3-10.8,19.3-.7,1.8-2.4,3.3-3.6,4.9-1.7,2.4-3.2,4.9-5.1,7.3-2.7,3.4-5.6,6.7-8.4,10-1.4,1.7-2.9,3.3-4.2,5-1.2,1.6-2.3,3.3-3.5,5-.4.6-.6,1.3-1.1,1.8-3.1,2.9-5.6,6.4-8.8,8.9-2.7,2.1-3.5,5.7-6.9,6.9-.6.2-.9,1.4-1.4,2-1.2,1.6-.8,2.5.9,3.4,4,2,7.9,4,11.8,6.2,2.4,1.4,4.5,3.2,7.5,1.4.9-.6,5.9,2.9,6.2,4,.3,1-1.7,3.9-2.8,4.2-1.7.4-3.4,0-5,0-2.4-.1-4.8-.2-7.2.4-.3,0-.8,0-1-.3-.4-.5-.6-1.3-1.1-1.8-.5-.5-1.3-2.4-1.8,0l-5.7-2.3c.2-.2.5-.3.6-.5.2-.2.2-.5.3-.7-1.5.4-2.1-1.1-3.1-1.6-1.6-.8-3.5-1.1-4.4-2.9-2.6.4-5.5-.3-7.7,1.7-3.1,2.8-6.1,5.7-9.3,8.5-1.1,1-2.6,1.5-3.9,2.5-1.3,1-2.4,2.1-3.6,3.2-.3.2-.7.3-.9.6-4.4,4.7-10.2,7.8-14.4,12.7-1.6,1.9-4,3.1-6,4.6-.8.6-1.4,1.4-2.1,2-1,.8-2.1,1.6-3.1,2.4-2.6,2-5.1,4.1-7.6,6.1-1.3,1.1-2.3,2.3-2.2,4.4.3,3.7-.1,3.8-4.3,3.8-1.6-.6-3.1-1-4.5-1.3-.5,0-1.1.2-1.7.3.5.4,1,.8,1.5,1.1-3.3-.2-6-2-8.8-3.3-3-1.5-3.5-2.2-6.4-2-.6,0-1.5.2-1.8-.1-3.7-3.3-8.6-2.8-12.9-4.3-3.7-1.3-7.7-2-11.5-3.1-1-.3-1.8-1-2.7-1.5-.5-.3-1.1-.7-1.6-.6-2.4.3-4.4-.9-6.5-1.5-6.1-1.8-12.3-3.1-18.1-5.4-5.9-2.3-12.2-3.1-17.9-5.9-.7-.4-1.5-.7-2.2-1.1-1-.6-1.8-1.2-3-.4-.4.3-1.4.3-1.8,0-4.3-2.9-9.8-3.2-13.8-6.7-.9-.8-2.5-.6-3.7-1-2.6-.9-5.2-2.1-7.9-2.8-1.1-.3.8-2.9-1.1-1.4-1.4,1.1-1.9-.5-2.9-.2-1.7.4-2.1-.6-2.1-2,0,0-.6-.2-1.2-.5-.7-.3-1.2-.4-1.7-.8-.2-.2-.5-.2-.7-.2.2.1.5.3.7.6.5.3,1,.4,1.5.6-.4.3.8,1.7-.8,1.1-1.1-.4-2.2-.9-3.3-1-.6,0-1.3.3-1.9.5.3.5.6,1.4.9,1.4,2,.3,2.6,3.7,5.3,2.5,3.6,3.3,8.8,3,12.7,5.8.9.6,1.8,1.1,2.6,1.9,3.3,3.2,7.1,5.4,11.2,7.6,4.1,2.2,8,4.8,12.3,6.8,3.4,1.6,6.9,3,10,4.8,4,2.3,7.8,5,11.5,7.7,2.2,1.6,4.1,3.5,6,5.3.3.3.4.8.5,1.3-.5.1-.9.4-1.4.3-1.4-.2-2.8-.4-4.2-.7-.6-.1-1.1-.4-1.6-.7-3.7-3.2-8.7-4.3-12.2-7.8-1-.9-2.1-1.1-3.1-1.6-6.8-2.7-13.6-5.6-19.7-9.8-.8-.5-1.7-.7-2.5-1.2-.7-.5-1.5-1-2.1-1.6-1-1-1.4-2.9-3.6-1.6-.3.2-1.5-.7-2-1.3-3.5-4.2-8.3-6.3-13.3-8-1.7-.6-3.6-1.2-4.2-3.3-1.3.5-1.6-2.4-3.3-.9-.1.1-1.9-1.1-2.4-2-1.1-2.1-2.6-2.1-4.4-1.4-.3.1-.7.4-1,.4-.7,0-1.5-1.6-2-.2-.2.8.4,2,1.7,2.6,1.9.8,3.7,2,5.5,3.1,1,.6,2.1,1.1,1.9,2.6,0,0,.6.2,1.2.3,1.2.3,1.7,2.4,3.3,1.1.2-.2.9.3,1.4.4,1.4.4.1.7,0,1.1.4.1.8.3,1.2.3.4,0,.7-.2,1.1-.2,1,0,.1,2.5,2.1,1.6,1.4-.7,1.7,1.1,2.6,1.6.9.5,1.9,1,2.7,1.6,3.9,2.8,8.6,4.3,12.4,7.3,3.9,3,8.2,5.5,12.5,8,2.8,1.7,5.7,3.2,8.5,4.8,3.3,1.9,6.8,3.6,10,5.6,3.4,2.1,6.7,4.5,9.9,6.9.7.5,1.2,1.3,1.7,2,.5.6,1,1.2,1.5,1.8-1.1.4-2.2.8-3.3,1.1,0,0-.5-.7-.5-.8,1.3-1.9-.2-1.4-1.1-1.5-.5,0-1,0-1.5,0-1,0-1.6-.4-1.9-1.4-.2-.5-.6-1-1-1.5-.2.3-.4.7-.5,1.2-.4,0-.8-.3-1.2-.6-.5-.4-.3-2.2-1.7-.7,0,0-.8-.4-1.2-.6-4.3-1.8-8.2-4.3-11.4-7.6-.3-.3-.5-.7-.8-.7-.9,0-1.8.5-2.5.3-.4-.1-.4-1.3-.7-2,0-.2-.5-.2-.8-.3,0,2.1-1.3.7-1.7.4-1.6-1.2-3.2-2.4-4.4-4-1-1.3-1.6.3-2,.1-2.6-1.7-5.1-3.5-7.6-5.2.7-2-1.8-1.7-2.2-2.9-2,1.1-3.2-1.2-4.7-1.3,0-.4,0-.7-.2-.9-.5-1.5-2.3-.5-3-1.3-.8-1-1.5-1-2.7-1.2-1.5-.2-2.8-2.1-4.1-3.3-.4-.4-.6-1.2-1-1.4-1-.4-2.2-.6-3.3-.8.9-2.1-1.3-1.3-1.9-2.1-.2-.3-1.1-.4-1.3-.3-1.3,1.2-1.4-.5-2.1-.7-.9-.3-2,0-1.8-1.6,0-.2-.8-.8-1.2-.7-2.4.3-4-.8-6-2.1-1.9-1.3-3.8-2.4-5.3-4.1-1.1-1.3-.7.4-1.1.5-1.2.5-2.4,1-3.7,1-3.4,0-6.1,2.4-9.3,3.1-1.3.3-2.2,2.6-3.9.8-1.1.9-2.3,1.7-3.6,2.3-.4.2.2,1.6,1.4,2.3,3.2,1.8,6.4,3.7,9.2,6,3.1,2.6,6.3,5.1,9.9,6.9.3.2.6.5.8.8.5.9,1,1.7,1.5,2.6-.9,0-1.9,0-2.8-.2-1.2-.4-2.3-1.1-3.4-1.8-2.5-1.6-4.9-3.2-7.8-3.6.2-.7.2-1.2.2-1.6-.3,0-.6,0-1,.1.2.4.4.9.5,1.3-2-1.2-4.1-2.3-6.1-3.5-1-.6-1.8-1.6-2.9-2-.9-.4-2-.1-3-.2.2,1,.2,2.2.8,3,.7,1.1,1.8,2.1,2.9,2.9,3,2.4,6,4.8,9.2,6.9,3,1.9,6.4,3.3,9.6,4.9,3.3,1.7,6.7,3.3,10,5,.9.5,1.9,1,2.8,1.3,1.8.5,1.7,2.3,2.4,3.5,0,.1-.1.6-.2.6-.4,0-1,0-1.3-.2-2.5-2.2-6.1-2.1-8.8-4,0,0-.2.2-.3.4-1.1-1.5-2.7-2.7-4.7-2.8-5.4-.1-9.5-2.6-13.2-6.3-1.5-1.5-3.2-2.9-5-4.2-.8-.6-1.8-.7-2.6-1.2-.9-.6-1.6-1.5-2.4-2.3-.8-.8-1.5-1.6-2.4-2.3-1-.9-2-2-3.2-2.3-2-.5-3.2-2.4-5.1-3-.7-.2-1-1.7-2.1-.7-.9.8-2.7.1-3.1,2-.4,1.7-1.2,3.3-1.4,5-.1.8.5,1.9,1.1,2.5,2.5,2.1,5.2,4,7.6,6.1,2.8,2.4,5.7,4.7,8.1,7.5,2.6,3.1,6.1,5,9.6,6.8,3.8,2,7.7,3.9,11.5,6,5.1,2.9,10.1,6,15.1,9.1,2.1,1.3,4,3,6.3,3.9,6.6,2.6,12,7.4,18.2,10.8,5.6,3,11,6.3,16.4,9.5,2.8,1.6,5.6,3.5,8.6,4.8,3.9,1.8,7.7,3.8,11.9,5.1,3,.9,5.7,2.6,8.5,4.1,1.7.9,3.1,2.2,4.7,3.1.8.4,1.6.6,1.3,1.7-.5,1.9-1.4,0-1.7,0-2.8-.7-5.7-1.5-8.3-2.8-3-1.5-6.5-2.1-9.1-4.4-.3-.3-1.2,0-1.7-.1.3.4.5.9.8,1.3,3.6,5.2,3.6,5.2,8.4,7.7,1,.5,2,1.3,2.8,2.2.4.4.3,1.3.5,2-.6.1-1.2.4-1.7.3-2.6-.6-5.7-.9-7.3-3.1-1.7-2.4-4.3-3-6.5-4.4-1-.7-2.5-.8-1.3-2.5,0,0-.7-1-1.2-1.3-4.8-2.1-9.1-5.2-14.5-6.1-.1,0-.2,0-.3,0-3.3-2.1-7-3.2-10.5-4.6-3.6-1.4-6.8-3.6-10.1-5.5-3.7-2.2-7.5-4.2-11.6-5.7-2.8-1-5.5-2.8-7.8-4.7-3.6-2.9-8-4.5-12.1-6.3-6.9-3-13.5-6.3-19.8-10.4-4.2-2.7-8.4-5.2-12.6-7.9-2.4-1.6-4.4-4-7.4-4.7-.4,0-.8-.6-1.1-1-2.9-4.7-7.4-7.7-11.6-10.9-.5-.4-1-.8-1.2-1.3-.3-.7-.3-1.5-.4-2.3.7,0,1.4,0,2,.2,1.8.3,3.5.8,5.3,1.1,1.1.2,2.2,0,1.1-1.6-.4-.5-.5-1.5-.3-2.1.3-.9.9-1.8-.4-2.2-.8-.3-1.9-1.5-2.6.2,0,.2-.4.4-.5.5-4.4.1-7.8,3-11.8,4.3-3.2,1.1-6.5,1.8-9.6,3.3-4.3,2-8.9,3.5-13.2,5.6-2.8,1.4-6,2.7-9.4,2.7-.6,0-1.1.3-1.7.5-8.4,3.1-16.8,6.3-25.2,9.3-9.4,3.4-18.9,6.5-28.4,9.8-6.2,2.2-12.4,4.7-18.6,7-4.7,1.7-9.5,3.6-14.3,4.4-5.9,1-10.8,4.4-16.7,5.3-1.8.2-3.3,1.7-5.1,2.1-8.4,2.2-16.1,6.1-24,9.3-4.3,1.8-8.1,5-12.5,6.1-6,1.6-11.1,5.4-17.3,6.5-1.7.3-3.3,1.2-4.9,1.7-1.1.3-2.4.5-3.5.5-.4,0-.9-.8-1.1-1.4,0-.3.3-1,.7-1.2,2.7-1.4,5.2-3.4,8.1-4,4.6-1,8.2-4,12.5-5.3,3.3-1,6.2-2.5,9.2-4.4,2.8-1.7,6.2-2.5,9.2-4,4.6-2.2,9.2-4.5,14.1-5.9,2.7-.7,5.4-1.6,8.1-2.4,4.7-1.6,9.6-2.7,14.1-5.2,2.7-1.5,6.1-2.1,9.2-2.3,3.7-.3,6.4-3.1,10.1-3.1,1.1-1.8,3.1-1.1,4.6-1.6,4.4-1.4,8.8-3.1,13.1-4.7,3-1.1,6.1-2.3,9.1-3.5,2.5-.9,5-1.8,7.6-2.7,2-.7,4-1.2,6-1.9,3-1,5.8-2.4,8.9-3.1,4.9-1.2,9.2-3.8,14-5.4,3.2-1.1,6.4-2.7,9.8-3.6,3.3-.8,6.5-2,9.7-3,1.8-.5,3.9-.6,5.3-1.6,3.6-2.6,8-3.1,11.9-5.1,1.9-1,4.2-1.4,6.2-2.3,3.6-1.6,7.7-2.1,10.9-4.7.4-.4.7-1,1-1.5-.5-.2-1-.4-1.5-.7-.5-.3-1-.6-1.5-1-3-2.8-6.1-5.3-10.1-6.6-1.6-.5-2.7-2.1-4.5-2.8-1.9-.8-3.4-1.9-5.9-1-2.3.8-4.8.4-7.3,1.5-4.5,2-9.5,3.1-14.3,4.7-4.6,1.6-9,3.4-13.9,3.8-.5,0-1.1.4-1.6.7-2.7,2.1-6.1,2-9.1,2.8-2.7.7-5.4,1.4-8,2.6-5.2,2.4-10.4,4.6-15.8,6.5-1.2.4-2,1.2-3.1,1.6-3.5,1.3-7,2.5-10.5,3.8-.9.3-1.6.8-2.5,1.2.5.7.8,1.5,1.4,2,3.2,2.5,6.5,5,9.7,7.5.4.3,1.1.4,1.6.6,2,.8,3.2,3.8,2.3,5.5-.2.3-.9.5-1.2.4-1.1-.3-2.2-.8-3.3-1.1-1.3-.4-2.7-.9-4.1-1.1-2.1-.3-3.7-1.6-4.2-3.8-.4-2.2-2-3.4-4.2-3.8-1.3-.3-2.7-.9-3.8-1.6-1.6-1-2.8-1.6-4.8-.7-3.6,1.7-7.3,3-11.1,4-2.6.7-4.9,2.1-7.8,2.3-2.9.2-5.7,1.3-8.5,2.2-5.3,1.7-10.6,3.5-15.9,5.2-3.7,1.2-7.3,2.9-11,3.3-4.4.6-8.3,2.5-12.5,3.5-2.7.7-5.2,1.9-7.8,3-3.7,1.5-7.3,2.9-10.9,4.6-1.1.5-1.9,1.4-2.9,2.2-1.7,1.4-2.9,1.2-3.4-1-.7-3.1-2.1-5.5-4.5-7.6-1.9-1.7-1.6-4.3-2.4-6.5-2.5-7.8-5-15.5-7.6-23.3-.8-2.4-2-2.9-4.3-2.1-3.5,1.2-7,2.4-10.5,3.7-5.9,2.2-11.7,4.6-17.9,6-2.2.5-4,2.5-6.1,3.5-.8.4-1.9,1.9-3.1.1-.9-1.5,0-2.4,1-3.1,4-3.1,8.6-5.3,13.4-6.7,7.8-2.2,15.3-5.6,22.9-8.3.3-.1.7-.6.8-.9,0-.9.2-1.8-.1-2.6-1.4-3.3-3-6.6-4.3-9.9-2.3-5.8-4.6-11.7-6.8-17.5-.7-1.9-.7-4.1-1.7-5.7-1.6-2.5.7-4,1-5.9,0,0,1.2-.2,1.4,0,.7.8,1.5,1.6,1.9,2.6,1.6,4,3.1,8,4.6,12.1,1.9,5.4,3.8,10.8,5.7,16.1.2.4.7.7,1,1.1.2-.5.5-1,.5-1.4-.4-2.6-.5-5.2-1.9-7.5-1.1-1.9-1.9-4-3-5.9-.7-1.3-1.1-2.1.2-3.5,1.2-1.3.1-3.3,0-4.9,0-1.4-1.1-2.8-1.4-4.3-.4-1.9-.6-3.8-.8-5.7,0-.6.3-1.9.5-1.9.9,0,2.3,0,2.7.6,1.4,1.9,2.9,3.9,3.5,6,1.5,5.3,2.4,10.8,3.9,16.1,1.5,5.4,3.3,10.7,5.2,15.9.9,2.4,1.1,2.2,3.3,1.3,5.3-2.2,10.6-4.4,16.2-5.5,2.3-.4,4.5-1.9,6.7-2.9,5.9-2.9,12.4-4.1,18.6-6,3.4-1.1,7-1.9,10.2-3.5,7.2-3.6,14.9-5.9,22.5-8.6,5.4-1.9,11-3.3,16.4-4.9,4.8-1.4,9.4-3.7,14.3-4.6,5.8-1.1,10.6-4.3,16.1-5.8,2.1-.6,4.3-1.2,6.3-2,1.7-.7,3.3-1.7,5-2.5.8-.4,1.7-.7,2.5-1.2,1.1-.7,2.1-1.7,3.2-2.2,1.1-.5,2.2.7,3.5,0,1.1-.6,2.5-.6,3.8-.8,1.3-.3,2.6-.3,3.8-.8,4.2-1.7,8.3-3.6,12.4-5.5,1.7-.7,2.6-2,2.4-3.8-.2-1.8.8-3.7-.7-5.3,1.2-2.2.5-4.6.8-6.8.1-1.2.6-2.3.7-3.5.3-4.8,0-9.7.9-14.4.8-4.3.3-8.6.6-12.9,0-.4,0-.8,0-1.1,0-1.9-.6-3-2.8-2.6-1,.2-2.5.4-3-.1-1.4-1.3-2,.3-2.9.5-1.7.2-3.3,1.1-4.9,1.9-1.8.9-3.6,1.8-3.8,4.4-.1,1.8-1.2,3.6-1.4,5.4-.4,3.9-.2,7.9-.9,11.7-.9,5.2-.3,10.4-.7,15.5-.4,4.6-1.4,9.2-2.2,13.8-.1.7-.4,1.4-.8,1.9-.2.3-.9.4-1.3.3-.3,0-.8-.6-.8-.9.1-2.1.4-4.1.6-6.1,0-.4,0-.7.1-1.1.3-4.3.6-8.6.7-12.9.1-5.4.6-10.8,1.4-16.1.5-3.3.2-6.8,0-10.2,0-.6-1-1.6-1.5-1.6-1.5,0-3.3,0-4.6.6-6.4,3.1-13.3,4.8-19.9,7.6-4.7,2-9.7,3.3-14.6,4.9-5,1.7-9.9,3.4-14.9,5.1-.5.2-1.1.5-1.6.7-2.3.6-4.6.8-6.5,2.7-1.1,1.1-3.2,1.3-4.8,1.8-2.9.8-5.9,1.5-8.9,2.3-2.2.5-4.4.8-6.5,1.6-4.2,1.6-8.6,2-12.7,4-3.1,1.5-6.6,2.4-9.8,3.5-3.7,1.3-7.5,2.6-11.1,4-2.7,1.1-5.6,1.4-8.4,2.6-2.6,1-5.2,2.1-7.8,3.1-6.7,2.4-13.2,5.2-19.8,7.6-2.1.8-4.6.6-6.5,1.7-1.9,1.1-3.9,2.6-4.5,5.1-.1.5-.6,1-1,1.5-.4-.5-.9-1-1-1.6-.4-1.2-.6-2.5-.8-3.8,0-.2.3-.6.5-.8,1.5-.9,3-1.9,4.5-2.7,1.3-.7,2.7-1.5,4-2.1,2-.9,4.1-1.8,6.1-2.5,6.2-2.1,12.4-3.9,18.6-6.1,4.8-1.7,9.5-3.8,14.3-5.6,7.1-2.6,14.1-5.5,21.3-7.6,5-1.5,9.9-3.4,15-4.7,4.9-1.3,9.9-2,14.6-3.8,3.4-1.3,6.8-2.4,10.2-3.5,3.2-1.1,6.4-2.2,9.6-3.3,2.1-.7,4.1-1.7,6.1-2.5,2.9-1.1,5.9-2.2,8.9-2.9,3-.7,5.6-2.3,8.6-3,3.1-.7,6.1-2.3,9-3.7,3.4-1.7,7-2.6,10.5-3.8,1.9-.6,3.6-1.5,5.5-2.2,2.1-.7,2.7-2,2.8-4.1,0-2.5.6-5,1.2-7.4.4-1.5.3-3.1-.6-3.6-1.8-1-1.1-2.6-2-4-.4-.2-.7-.2-.9-.2.2.1.5.3.7.4-.4.2-1.1.7-1.2.6-1.1-1.1-2.2-2.3-3.3-3.5,0,0,0-.3,0-.4-3.1-2.9-5.6-6.4-9.8-8-.3-.1-.5-.7-.8-.9-3.6-2.9-5.4-7.6-9.7-9.9-.7-.4-1.1-1.5-1.6-2.3-1.7-2.5-4.7-3.5-6.6-5.8-1.4-1.7-3.2-3.2-4.7-4.8-3.9-4.1-7.9-8.2-11.7-12.5-2.9-3.3-5.7-6.6-8.5-10-1.8-2.1-3.3-4.4-5.1-6.6-4.6-5.6-9.3-11.2-13.8-16.9-1.3-1.6-2.3-3.3-3.5-5-3.2-4.2-7-8.1-9.4-12.7-2.1-3.9-6-6.1-7.8-10.3-1.6-3.9-4.3-7.3-6.6-10.9-1.2-1.9-2.3-3.9-3.8-5.6-1-1.2-.9-2.2-.5-3.4.7-2,1-2.1,2.6-.6,2.9,2.6,4.1,6.3,6.1,9.5,2.7,4.4,5.5,8.9,8.7,13,3.1,3.9,6.4,7.7,8.8,12.2,1.5,2.8,3.9,5.2,6,7.7,2.5,3,5,6,7.5,9,3.5,4.2,6.5,8.7,10.3,12.7,4.6,4.9,8.4,10.6,12.9,15.7,4.3,4.8,9,9.1,13.5,13.6,3.9,3.9,7.7,7.8,11.7,11.7,3.8,3.7,7.8,7.3,11.7,11,1.7,1.6,3.3,3.4,5.1,5,1.3,1.1,2.9,2.1,4.4,2.9,1.9.9,2.2.4,2.2-2,0-2.4-.4-4.9.7-7.2,1.3-2.7.6-5.6.7-8.4,0-1.3.3-2.2,1.1-3.4.9-1.2,1.1-3,1.7-4.5.4-1,1-2.4,2-.7,1,1.6,3.4,1.1,4,3,.4,1.1,1.4-1.8,1.7,0,.2,1.3.8,3.1-.7,4.2-1.2.9-2.5,2.3-3.8,2.5-2.2.3-2.1,1.6-2.1,3.2,0,3.4,0,6.8,0,10.2,0,2.4-.5,4.8-.7,7.2-.1,2,.6,3.4,2.6,4.6,2.8,1.8,5,4.3,7.5,6.5,2.5,2.2,5.2,1.9,8.2,1.1,4.3-1.2,8.2-3.3,12.7-4.1,2.8-.5,5.5-1.9,8.1-3.2,1.4-.7,1.5-2.5.5-3.5-2.6-2.6-1.9-5.8-1.7-8.7,0-1.3,1.4-2.7,2.4-3.9.2-.3,1.4.2,2,.4.2,0,.3.5.5.7,0-.3.2-.7.3-1,0-.3.2-.7.2-1,.2.3.3.7.5,1,3,2.8.4,5.8.3,8.7,0,1.9.2,3.7.4,5.6.3,0,.7-.2,1-.3,1.8-.5,3.7-.8,5.3-1.6,6.2-3.3,13.1-4.6,19.4-7.7,3.8-1.9,7.8-3.8,12-4.6,2.7-.5,4.9-3.1,8-2,.2,0,.6-.3.9-.4-.2-.4-.4-.7-.7-1-.2-.3-.7-.6-.8-.9-.7-2.9-1.6-3.9-4.3-4.3-.3,0-.9.3-1,.2-1.9-2.5-4.6-3.7-7.3-5.1-2.1-1.1-3.7-3.1-5.6-4.6-.5-.4-1.3-2.2-1.6.1,0,0-.4,0-.5,0-1.8-1.7-3.6-3.4-5.4-5.2-.4-.4-.8-1.2-1.2-1.3-2.6-.4-4.3-2.5-6.5-3.6-.7-.4-1.7-.4-1.4-1.7,0-.2-.6-.9-.8-.8-2,.4-2.8-1.2-4-2.2-2.3-2-4.4-4.2-6.8-6-1.6-1.2-4-1.6-4.7-4-2.7,0-2.9-4.1-6-3.7,0,0-.2-.2-.3-.3-2.2-2.2-4.3-4.4-6.6-6.6-1.1-1.1-2.4-2-3.7-2.9-1.1-.9-3-1.7-3.2-2.7-.5-2.3-2.2-2.9-3.6-4-.9-.8-2-1.4-2.9-2.2-1.1-1-2.2-2-3.1-3.2-.8-1-1.2-2.3-1.9-3.3-.5-.7-1.1-1.3-1.8-1.9-.5-.4-1.3-.6-1.8-1.1-1-.9-2-1.9-2.9-2.9-.6-.6-1.7-1.3-1.7-1.9,0-2.2-1.6-3.2-2.9-4-2.5-1.6-4-3.9-5.6-6.4-1.3-2-3.1-3.7-4.7-5.5-3.1-3.6-6.3-7.1-9.3-10.8-1.7-2.1-3.1-4.5-4.8-6.6-1.1-1.4-2.2-2.6-2.7-4.5-.4-1.2-2-2.1-3-3.2-1.6-1.9-3.2-3.9-4.8-5.9-.8-1.1-1.5-2.4-2.3-3.6-1.6-2.2-1.7-4.7-1.5-7.3,0-1.2-.1-.9-1.1-.5-3.5,1.3-7.1,2.3-10.7,3.3-2.8.8-5.7,1.5-8.5,2.2-2.8.7-5.5,1.3-8.3,1.9-2.2.5-4.4.9-6.7,1.1-3.9.4-7.9.2-11.7.9-3.3.6-6.6.7-9.9.6-.7,0-1.9.7-1.9-.9,0-1.3,0-2.5,1.6-2.8.1,0,.3,0,.4,0,3.7-.3,7.3-.6,11-.7,5.7-.3,11.3-1.2,16.9-2.1,5.3-.9,10.4-2.5,15.6-3.4,3.3-.6,6.8-1.6,10-3.1,4.9-2.2,10.1-3.6,15.3-5.1,3.5-1,6.8-2.5,10.1-3.7,5.7-2.1,11.6-3.5,17.1-6,4.9-2.2,10-3.8,15-5.7,6.1-2.3,12.2-4.6,18.1-7.2,7.6-3.4,15.1-7.2,22.6-10.9,5.2-2.6,10.3-5.6,15.6-7.8,5.2-2.1,9.8-4.9,14.5-7.9,2.8-1.8,6.2-2.8,9.1-4.3,4.4-2.4,8.8-5,13.1-7.5.4-.2.8-.6,1.2-.8,6.9-2.7,12.9-7,19.4-10.6.4-.2,1-.3,1.2-.7.5-.7.7-1.4,1.1-2.2.8,1.1,1.4.4,2.1-.2,1.1-.8,2.4-1.5,3.6-2.2,5.9-3.6,11.9-7.1,17.8-10.7,1.8-1.1,3.4-2.6,5.3-3.7,3.3-2.1,6.6-4,9.9-6.1.7-.5,2-.7.7-1.9.5.1.7-2.2,1.5-.2,0,.2.5.3.6.3,1.1-.8,2.1-1.6,3.1-2.4.6-.5,1-1.2,1.6-1.5,5.6-2.7,11.1-5.5,15.4-10.2.3-.4.7-1,1.1-1,1.3-.1,2.6-.3,3.8,0,.6.2-.2,3.4-1,4-1.3,1-2.5,2.3-4.3,2.3-.3,0-.6.3-.9.6-5.5,5.2-12.3,8.6-18.4,12.9-5.2,3.6-11,6.4-16.2,9.9-8.5,5.8-17.5,10.8-26,16.4-5,3.3-10.8,5.5-16.1,8.4-7.4,4.1-14.6,8.4-22,12.5-4.2,2.3-8.6,4.2-12.8,6.3-3.2,1.7-6.3,3.6-9.5,5.2-4.7,2.4-9.4,4.5-14.1,6.8-6.8,3.3-13.6,6.7-20.4,9.9-3.4,1.6-6.8,2.9-10.3,4.3-5.7,2.3-11.4,4.5-17.2,6.6-4.2,1.5-8.2,3.3-12.6,4.2-2.2.5-4.4,1.6-6.5,2.4-3.1,1.1-6.5,1.5-9.3,2.9-2.8,1.3-5.7,2-8.5,3.3-1.8.8-3.8,1.1-5.6,1.9-2.9,1.3-2.6,1.6-1.6,4.5,1.4,3.9,4,7.1,6.7,9.9,3.7,4,6,9,9.7,13,2,2.3,3.9,4.6,6.1,6.8,1.9,2,3.8,4,5.3,6.4.3.5.6,1,1,1.5,3.3,3.6,6.6,7.1,9.9,10.6,3.3,3.5,6.5,7.1,9.8,10.6,4.3,4.6,8.7,9.2,13,13.8,1.6,1.6,3.1,3.3,4.8,4.8,1.4,1.2,3.1,2.1,4.5,3.4,1.6,1.4,2.9,3.1,4.5,4.5,1.5,1.3,3.5,2.1,5,3.3,1.2,1,2.1,2.4,3.2,3.5.4.3,1.2.2,1.6.5,2.2,1.6,4.5,3.3,6.4,5.1,4.3,4,9.4,6.7,13.9,10.3,5.3,4.3,11.4,7.5,17.2,11.1,1.8,1.1,3.5,2.4,5.4,3.4,2.1,1.1,3.7,3.2,6.4,2.7,1.6,2.1,3.9,2.3,6.2,2.4.3,0,.6.4.8.3,3-1.2,6-2.5,9-3.7,2.5-.9,5.1-1.7,7.7-2.4,4.3-1.1,8.2-3.3,12.5-4.4,5.8-1.4,11.4-3.5,17.4-4.5,2.9-.5,5.7-2.1,8.5-3.2.4-.2.9-.5,1.3-.5,2,.2,3.3-.8,5-1.7,1.9-1,4.1-2.1,6.2-2.6,2.7-.5,4.8-2.2,7.3-3.2,8.8-3.1,17.1-7.2,25.5-11.3,3.6-1.8,7.4-3.4,11.2-4.7,1.8-.6,1.9-1,.5-2.3-.9-.8-1.7-1.8-2.6-2.6-.5-.5-1.2-1.1-1.8-1.1-3.6,0-5.9-3.5-9.5-3.5-4.2-3.4-9.1-5.8-14-8-2.1-1-4.2-2.2-6.4-2.8-1.2-.4-1.6-1.1-2.3-1.8-1.7-1.5-3.9-2.5-6-3.6-2.1-1-4.7-.9-6.1-3.4-.3-.6-1.4-.9-2.1-1.1-2-.5-3.6-1.5-5.2-3-2-1.9-4.7-3.2-7.2-4.3-2.1-.9-4.3-1.4-5.7-3.4-.5-.6-1.7-.6-2.5-1.1-9.4-6.4-18.8-12.7-28.5-18.6-3.1-1.9-6.2-3.7-8.6-6.4-.5-.6-1.6-1.4-2-1.3-1.3.6-1.2-.4-1.7-.9-1.8-1.9-3.6-3.9-6.4-4.7-.3,0-.8-.2-.9-.4-2.3-3.7-6.6-4.9-9.5-7.9-.7-.7-2-.8-2.8-1.4-1.5-1.3-2.8-2.8-4.3-4.2-1.5-1.4-2.7-3.1-5-3.5-.6-.1-1-1-1.5-1.6-1.3-1.3-2.6-2.7-4-3.9-2.4-2-4.9-3.9-7.3-5.8-.9-.7-1.8-1.6-2.9-2.1-1.6-.7-2.8-1.8-4-3.1-1.6-2-3.8-3.4-5.6-5.3-1.7-1.7-2.7-3.8-2.9-6.2,0-.9.3-1,1.1-1.5.9-.5,1.2-.3,1.7.2,1.8,2,3.6,4.1,5.3,6.1,4,4.5,9.1,7.6,13.8,11.2,2.2,1.7,4.3,3.6,6.5,5.4,7.8,6.3,15.6,12.7,23.5,18.9,4.4,3.4,9.3,6.2,13.5,9.9,5.3,4.7,11.6,7.9,17.4,11.9,4,2.7,8.3,4.9,12.3,7.5,1.2.8,2.1,2.2,3.3,2.9,3.9,2.1,7.9,4.1,11.8,6.1.9.5,2,.9,2.7,1.7,2,2.2,4.8,3,7.3,4.4,4.2,2.3,8.3,4.8,12.5,7,3.2,1.7,6.8,2.8,9.4,5.6,3.1-.5,4.7,2.5,7.3,3.3,2.5.7,4.8,2.4,7.1,3.7,5.3,2.9,11.2,4.7,16.3,8,2.5,1.6,5.3,1.2,8.1.8.8-.1,1.7,0,2.6.1.3,0,.7,0,1,0-.2-.4-.3-.8-.6-1-1.1-.7-.2-1.5.2-1.6,2-.1,2.8-1.7,4.2-2.7,1-.7,2.4-.8,3.5-1.4,5-2.6,9.9-5.3,14.8-8,1-.5,2.2-1.1,3.3-1,2.8.1,4.8-1.9,7.4-2.4,1.9-.4,3.8-1,5.7-1.7,3.4-1.3,6.7-2.7,10-4,.4-.2.9-.3,1.4-.3,1.9-.1,4.5,1.5,4.8-2.1,1.7-.8,3.4-1.6,5-2.4,3.4-1.8,6.8-3.5,10.2-5.3.6-.3,1.2-.8,1.8-1,.6-.2,1.4-.2,2-.3-.4.5-.8,1.1-1.1,1.6-.2.4-.5.7-.7,1.1.5-.1,1.2,0,1.5-.4,1.8-2,4.1-2.4,6.6-2.4.2,0,.4.1.7.2-.2.2-.4.4-.6.5-3.4,2.1-6.9,4.1-10.3,6.2-2.1,1.3-4.1,2.9-6.3,3.9-5,2.2-10,4.6-15.2,6.1-5.6,1.6-10.7,4.5-16.4,6-2.1.6-4.3,1.2-6.3,2-1.9.7-3.7,1.5-5.5,2.3-1.2.5-2.2,1.4-3.4,1.8-4.1,1.5-7.6,4-11.4,6.2-.9.5-1.7,1.5-2.7,1.7-1.8.3-.8,1.5-.9,2.3,0,.2,1,.6,1.6.8,2.2.5,4.4.9,6.5,1.5,3.5,1,7,1.9,10.4,3.2,4.6,1.6,9.1,3.5,13.6,5.3,4,1.6,7.9,3.7,11.9,4.8,5.1,1.4,10,4,15.4,4.1.5,0,1,0,1.4.3,2.8,1.8,6.1,1.8,9.1,2.7,2.2.7,4.4,1.5,6.6,2.3.3.1.7.4.8.6.2.8.6,1.1,1.3.9,2.4-.5,4.9-.9,7.3-1.5,2-.5,4.1-1.1,6-1.9,2.3-1.1,4.5-2.3,7.2-1.8.3,0,.7,0,1-.3,3.8-2.9,8.6-2.9,13-4.2,2.5-.8,5-1.6,7.5-2.2,5-1.3,10-2.5,15-3.8,2.9-.8,5.7-2,8.6-2.8,4.7-1.2,9.4-2.1,14.1-3.2.5-.1.9-.2,1.4-.3,3.5-1.1,7.1-2.3,10.6-3.5,2.2-.7,4.5-1.6,6.8-1.8,5.1-.6,10.1-2.1,15.2-3,4.4-.7,9.5-1.3,12.8-5.4,1.7-2,1.9-2,3-6.5,0-.2.2-.5.3-.6,2.4-2.7,3.6-6,4.8-9.3.2-.7.9-1.3.8-1.9-.2-1.2,2-1.2,1.1-2.6-1.2-1.7,1.2-1,1.2-1.8.3-4.5,2.7-8.6,3-13.1,0-.6.2-1.2.5-1.7,2.3-4.7,4.7-9.4,7-14.1.2-.3.4-.6.4-1,.8-4.9,3.4-9.2,4.9-13.8.9-2.7.7-5.5,1.4-8.2.5-2.1.7-4.3.8-6.5,0-2-.9-2.7-2.8-2.4-.8.1-1.6.4-2.3.7-3.9,1.8-8.2,1.5-12.4,1.9-3.5.4-7.1-.4-10.6-.4-3.8,0-7.5-.5-11.2-1.1-2.1-.3-4.5-.5-6.8-.5-4.9,0-9.8,0-14.7,0-3,0-6-.4-8.9.7-2.1.8-4-.6-6.2-.3-2.9.4-5.9-.9-8.9-1.2-3.8-.4-7.6-.8-11.4-.7-4.2,0-8.2-.4-12.2-1.5-2.7-.7-5.6-1.3-8.4-1.5-3.9-.2-7.5-1.3-11.1-2.3-2.1-.6-4.3-.5-6.5-.8-3.2-.4-6.3-.8-9.3-2.2-1.9-.9-4.1-1.2-6.1-1.5-1.4-.2-2.8-.2-3.3-1.9,0-.2-.4-.4-.6-.4-2.8.5-5.1-1.1-7.7-1.5-1-.2-2.1-.3-3.1-.8-3.4-1.6-7.6-1.1-10.5-4.1-1.9.3-3.6-.8-5.3-1.1-2.8-.3-5.2-1.1-7.8-2.1-1.8-.7-3.8-.9-5.7-1.7-3.4-1.4-7.1-2-10.4-3.4-7.2-3-14.3-6.2-21.3-9.6-4.8-2.3-9.3-5.5-14.2-7.6-3.7-1.6-6.9-4.6-11.1-5.2-2.2-2.9-5.9-3.4-8.6-5.5-3.1-2.3-6.6-4.1-10.1-5.6-3.9-1.7-7.3-4.3-10.9-6.5-.9-.5-1.9-.9-2.8-1.3-1-.5-2.1-1.1-3.1-1.6-1.3-.7-2.6-1.5-4-2.1-5.1-2.4-9.5-5.7-13.2-9.9-.2-.3-.2-1.2-.1-1.2.6-.3,1.8-.8,2-.5,2.7,3,6.9,3.7,9.8,6.5,1.7,1.7,4.5,2.3,6.7,3.6,7.3,4.1,14.6,8.5,22,12.4,2.3,1.2,4.5,2.5,6.7,3.7.9.5,2.1,1.6,3.4.4.1-.1.8,0,1,.3,2.8,3.4,5,4.8,9.2,6.5,2.9,1.2,5.6,3,8.4,4.2,1,.5,2.1,1.9,3.6.6,0,0,.6.3.7.5.6,3.3,4,2.7,5.8,4.3,1.6-1.4,1.8-.4,1.8,1,0,.1,0,.3,0,.3,1.9,0,3.2,2.1,5.2,1.3M942.5,277.2c0-.2,0-.5,0-.7-.1.2-.3.5-.8.7,0,.2,0,.5,0,.7.1-.2.3-.5.8-.7M751.3,387c.2,0,.5,0,.7,0-.2-.1-.5-.3-.7-.8-.2,0-.5,0-.7,0,.2.1.5.3.7.8M826.4,260.7c0-.2,0-.5,0-.7-.1.2-.3.5-.8.7-.3,0-.6.1-1,.2,0,.2.1.3.2.5.4-.2.8-.5,1.6-.7M792,387l-.2-1c-.2,0-.3.1-.5.2.2.4.5.8.7,1.6.2,0,.5,0,.7,0-.2-.1-.5-.3-.7-.8M701.5,415.6c-.7,0-1.5,0-2.2,0,.6.1,1.2.3,1.9.4.1,0,.2,0,.4.4.2,0,.5,0,.7,0-.2-.1-.5-.3-.7-.8M876.1,235c0-.2,0-.5,0-.7-.1.2-.3.5-.8.7-.4,0-.7,0-1.1,0-.3,0-.5.3-.7.4.2.1.4.3.6.3.6-.2,1.1-.5,2-.7M712.9,438.3c-.2,1.6,1.5,1,2.1,1.7,0,0,.2-.3.2-.3-.5-.5-1.1-1-1.6-1.5-.2-.1-.4-.2-.6-.6-.4-.1-.8-.2-1.2-.3,0,.2,0,.3-.1.5.4,0,.9.1,1.3.6M908.6,222.9c-.3,0-.6.1-1,.2,0,.2.1.3.2.5.4-.2.8-.5,1.6-.7,1.1.2,1.9-.1,2.6-1.1,0,0,0-.3-.1-.2-.7.2-1.5.3-2.2.6-.3,0-.4.5-1,.7M840.3,414.1c1.3.9,2.5,1.8,3.8,2.6.6.4,1.3.5,1.9.7-.3-.5-.6-1.1-1-1.6-1.3-1.4-2.8-2.3-4.7-2.5-.2,0-.5,0-.7,0,.2.1.5.3.7.8M836.5,411.1c-1.7-1.2-4.1-1.2-5.5-3.1-.3-.4-1.5-.2-2.2-.2-.2,0-.5.2-.5.4,0,.3,0,.9.3,1,2.7.6,5,2.8,8,2.8.2,0,.5,0,.7,0-.2-.1-.5-.3-.7-.8M731,419.4c.2.2.4.3.5.5.3.6.6,1.2.9,1.8-.5-.3-1-.9-1.6-.9-1.5-.2-2.3-2.7-4-1.6-1.6,1-1.7,3-1.8,4.8,0,.4,0,.8,0,1.1-.3,1.6.8,1.7,1.8,1.4,2.8-.9,5.7-1.7,7.5-4.3.2-.2.3-.7.2-.8-1.2-.8-1.6-2.7-3.5-2.8-.2,0-.5,0-.7,0,.2.1.5.3.7.8M827.1,386.6c1.1-.3,2.3-.4,3.4-.8.4-.1.6-.8.7-1.3,0-.2-.3-.8-.4-.8-1.1.3-2.3.5-3.3,1.1-.5.3-.6,1.2-1.2,1.9-2.3-.8-4.6-1.5-6.9-2.4-.8-.3-1.8-1.3-2.3-1.1-.7.3-1.1,1.4-1.6,2.2-.3.5-.8,1-.7,1.5,0,1.5,0,3.1.6,4.5.4,1,3.4.6,5-.2,1.6-.9,3.3-1.9,5.1-2.1,2.1-.2,1.1-1.5,1.7-2.4M780.4,400.9c.4-.3,1.1-.8,1.1-.9-1.1-2.1-.4-4.5.3-6.1.7-1.6,0-2.4-.4-3.2-.5-1-1.6-1.8-2.6-2.6-.1-.1-.6,0-.7,0-1.7,2.6-4.9,2.8-7.3,4.2-1.7,1-1.9,2.1-.4,3.1,1.2.7,2.7.9,3.8,1.7,1.8,1.5,4.4,1.6,5.4,3.7-.4.2-.9.3-1.1.6-1.4,2.1-2.4,2.6-4.6,1.6-1.6-.7-3-1.7-4.5-2.6-1.6-1-1.5,0-1.9,1.1-1.2-.5-2.4-.9-3.5-1.5-1.7-1-2.2-.7-3.1,1.1-.7,1.5-1,3.1-1.6,4.6-.6,1.6-1.1,3.1.2,4.3,1.6,1.5,3.9,1.7,5.8,1,2.8-1.1,5.3-2.8,8.1-4.1.9-.5,2.1-.6.8-1.8.3-.2.7-.6.8-.6,2.6,1.6,4.6-1,7-.9.3,0,.7-.7,1.1-1-.4-.1-.8-.4-1.3-.4-1.1,0-2.1,0-1.3-1.5M685.3,373.8c.3,0,.6-.1,1-.2-.3-.4-.5-1-.9-1.2-.2-.1-.8.4-1.5.6-2.3.3-4.6.5-6.8.7-2.2.2-2.3.3-1.1,2.2.4.6,1,1.1,1.1,1.6,0,.2,0,.5,0,.7.1-.2.3-.5.8-.7,4.2,1.7,8,3.8,11.5,6.7,1.6,1.3,3.8,1.8,5.5,2.9,1.9,1.2,3.6,2.8,5.5,3.9,1.8,1.1,3.7,1.8,5.7,2.7.2,0,.7-.1.8-.3.2-.6-.2-2.3-1.6-4.2-2.1-2.9-4.5-5.7-6.9-8.4-.2-.2-.8,0-1.2.1.2.4.5.8.3,1.2-.6-.3-1.2-.6-1.8-1-.7-.6-1.4-1.8-2.1-1.9-1.3,0-1.9-.8-2.8-1.4-1.9-1.4-3.9-2.7-5.4-4M737.4,406.2c.3-.2.7-.4,1-.5-1.4-1.9-2.3-2.1-4.7-1.1-.3.1-.8.2-1.1,0-1.6-1.3-2.7.3-3.9.8-1.8.8-2.2,5.2-.7,6.3,3.4,2.6,6.9,4.8,10.8,6.4,1.1.5,2.1,1.4,3.1,1.4,3.2,0,6.2-1.3,8.7-3.4,1.4-1.2,1-2.6-.8-3.3-1.9-.7-3.8-1.3-5-3.1-.2-.4-1.2-.8-1.6-.6-1.5.8-1.8-1.5-3.3-1.2-.8.2-1.9-1.2-2.5-1.9M799.6,515.9c-2.4-1.5-4.7-3-7.3-4.2-7.7-3.6-15.4-7.2-22.5-12-5.9-4-12.3-7.1-18.9-9.9-1.7-.7-3.7-1.8-4.6-3.2-1.5-2.3-3.3-3.4-5.8-4.3-2.8-1-5.8-2.1-8.2-3.8-2.4-1.8-5-3.1-7.6-4.4-1.3-.7-2.8-1.3-3.9-2.3-3.6-3.2-7.1-6.6-10.7-9.8-1.8-1.6-3.7-3-5.7-4.5-1-.8-2.2-1.5-3.2-2.2-.7,1.1-1.4,2.3-2.1,3.4,0,.1-.2.2-.3.3-.7.8-.6.6-1.2-.3-1.5-2-1.3-4.1-1.4-6.2,0-.4-.7-.7-1-1.1-.1.4-.4.9-.3,1.2.4,2,.4,2-1.4,1.8-.6,0-1.1.2-1.7.4.3.5.4,1.2.8,1.5,2.9,2.7,5.8,5.3,8.7,8,.3.2.6.4.9.6,5,3.3,10,6.8,15.1,10,4.7,2.9,9.4,5.7,14.3,8.2,4.5,2.4,9.3,4.2,13.9,6.5,5.3,2.6,10.4,5.7,15.8,8.2,6.9,3.2,13,7.7,20.1,10.5,5,1.9,9.3,5.3,14.6,6.5,1.2.3,1.9,1.9,3.5,1.8.7,0,1.5,0,2.2,0-.6-.1-1.2-.3-1.9-.4-.1,0-.2,0-.4-.4M693.6,392.6c.3-.2.7-.4,1-.5-.5-.3-1-1-1.5-.9-2,.3-3.2-.7-4.5-2-1.1-1.1-2.7-2.6-3.8-2.4-2.1.4-2.9-.7-4.1-1.7-.9-.8-1.8-1.5-2.9-2.1-1.9-1.1-4.1-1.8-5.9-3-1.1-.7-1.9-1.5-3.2-.3-.2.2-.8-.1-1.2-.2.1-.4.3-.7.4-1.1-.4.1-.9.2-1.3.4-.6.3-1.5,1.1-1.8.9-2.2-1.6-3.8.1-5.5,1-.3.2-.6.6-.9.5-3.3-.5-5.8,1.9-8.9,2.3-3.6.5-6.7,2.8-10.4,3.1-1.8.1-2.7,2.3-1.4,2.9,3,1.6,5.2,5,9.3,4.6,3.1-.3,4.2.8,5.3,3.8.8,2,.9,3.7-.6,5.6-1.1,1.3-.9,2.6.6,3.9,2.3,2,5,3.1,7.5,4.6,3.7,2.1,7.4,4,11.2,5.7,1.5.7,3.1,2.2,5.2.7,1.1-.7,1.2-.9.4-1.8-2.5-2.9-5.8-4.6-8.9-6.7-.5-.3-.6-.5-1.4-.3-2.7.7-6.6-2.1-7.3-4.9-.5-2,0-2.5,2-2.3,2,.2,4.2.2,6,1,2.7,1.2,5.1,2.8,7.6,4.5,2.4,1.6,4.5,3.6,6.9,5.3,2.8,2,5.8,3.2,9.1.6.6-.5,1.6-.4,2.3-.8,3-1.6,6.6-1.7,9.1-4.5,1.7-1.9,3-4,2.2-6.2-.6-1.9-.8-4.3-3.4-5.4-2.7-1.1-5.2-2.8-7.4-4.3M750.9,318.7c.5,1.3,1,2.6,1.6,3.8.2.4,1,.4,1.5.6,0-.5.4-1.1.3-1.3-.9-1.4-1.8-2.8-2.8-4-.6-.7-1.5-1.2-2.3-1.8.5.9,1,1.8,1.1,2.7-.6-.4-1.3-.6-1.8-1.1-2.5-2.7-6-4.9-9.2-5.7-4.1-1.1-8.1-2.3-11.5-5-1.2-1-3-1.2-4.5-1.8-.5-.2-1.2-.3-1.6-.7-1.9-2.2-4.4-1-6.1-.5-1.8.5-2.8,2.8-2.6,5.1,0,1.3.3,2.7-1.1,3.7-.4.3-.3,1.3-.4,2.1,0,1,.1,2.1-.2,2.9-2.1,5.1-2.3,10.6-2.7,15.9-.5,6.4-.2,12.8,0,19.2,0,3.5,2.8,5.1,5.9,3.5,4.4-2.2,9.1-3.6,13.6-5.3,1.7-.7,5-1.1,3.1-4.5,0-.1.2-.4.3-.6.6-1.4.6-2.7-.1-4.1-.4-.9,0-2.1,0-3.2,0,0,.4-.3.6-.2.2,0,.5.4.5.5-.1.4-.6.9-.5,1.3,0,.4.6.7,1,1.1.2-.4.5-.7.5-1.1,0-1.9.4-3.9,0-5.8-.2-1-1.2-1.8-1.4-2.7-.3-1.3-.4-2.6-.5-3.9,0-.7.3-1.5.8-2.2.1-1.7.4-3.4.3-5.1,0-1.7,1.1-2.4,2.1-3.2.1-.1.6.2.9.4-1.6,1.2.2,1.6.7,2.1,1.4,1.4,2.3,2.6,1,4.8-.6.9,0,2.6.2,4,0,.4.5.9.4,1.3-.9,3.3-1.4,6.6-.7,10,0,.4.1.8,0,1.1-.8,1.6.3,3.1,0,4.7-.2,1.1.4,1.2,1.3,1.2,3.7-.1,6.7-1.7,9.8-3.7,1.2-.8,1.8-1.4,1.7-2.7,0-2.2.6-4.3,1.1-6.4.5-2.4,1-4.9.9-7.3,0-2.6-.8-5.2-.9-7.7M703.8,341c-.7-2-.7-2,1.1-4.2.1-.1,0-.8-.3-1-2.7-2.4-.1-5.2-.7-7.7,0,0,.4-.2.6-.3,1.4-.3.8-1.3.6-2,0-.7-.4-1.3-.6-2,.2,0,.5-.2.7-.2.8.3.9.3.8-.3-.2-2.3-.9-4.6-.6-6.8.3-2.2-.3-4.4-.2-6.5,0-.3-.5-1-.7-.9-2.1.4-4.2.8-6.1,1.5-2.8,1.1-5.5,2.6-8.3,3.7-4.5,1.8-9.1,3.4-13.7,5.1-2.9,1.1-5.8,2.4-8.9,3.1-2.1.5-3.4,1.4-3.8,3.4-.3,1.6-.6,3.3-.7,5-.1,1.2.2,2.6,0,3.8-1.1,4.1-1.4,8.3-1.5,12.6,0,2.2.5,3.8,2.2,5.1,3,2.2,5.9,4.5,8.9,6.6,2.7,1.9,5.6,3.6,8.3,5.4,1.2.8,2.4,1.2,4,1.4,5.3.5,9.5-2.7,14.2-4.1,1.6-.5,1.9-2.4,3-3.4.5-.5,1.1-.5.8-1.4-.7-2.4,0-4.1,1.4-8,.7-2.1,1.2-4.9-.4-7.6M939.5,333.1c-1.1.1-2,0-3.1.7-3.1,1.8-6.4,3.3-9.8,4.5-2.6,1-5.4,1.4-8.1,2.3-2.8.9-5.5,1.9-8.1,3.1-3.6,1.6-7,3.6-10.7,5.2-2.6,1.2-1.1,3.1-1.3,4.8-.2,2.1,1.7,2.4,2.8,2.7,2.6.6,5.3.6,7.9.9.6,0,1.2,0,1.8-.2,2.7-.9,5.5-2,8.2-2.9,2.1-.7,4.6-.8,6.3-2,2.2-1.6,4.4-1.7,6.9-1.7.3,0,.6-.4.9-.5,3.9-.8,6.8-4.3,11-4.3,5.2-3.4,11.6-3.3,17-6.2,1.6-.9,3.9-.5,5.7-1.8,3.7,1.3,6.5-1.6,9.8-2.1,2.8-.5,5.9-1.2,8.6-2.8,3-1.8,6.6-2.8,10-4,2.3-.9,4.6-1.6,6.9-2.5,4.3-1.7,8.7-3.4,13-5.1,3-1.2,5.7-2.7,6.2-6.5.1-.9,1.2-2.4,1.9-2.4,1.9,0,1.9-1,1.8-2.3,0-.5,0-1.2.2-1.4,2-1.2,1.8-3.5,2.8-5.2.4-.6.4-1.5.6-2.3-.8,0-1.8-.4-2.5-.2-2.1.6-4.2,1.5-6.2,2.2-5.2,1.8-10.3,3.5-15.5,5.3-.5.2-1,.7-1.6.7-4.5.4-8.8,1.5-13,3.2-5.3,2.1-10.5,4.4-15.7,6.7-.4.2-.8.7-1.2.7-3.3.4-7.6,1.7-9.1,2.8-2.1,1.5-4.4,2.6-6.9,3.3-3.1,1-6,2.5-8.9,3.9-2.4,1.1-4.6,2.1-7.2,2-1.3,0-.9.8-1.3,1.5M816.6,341.4c0-.2,0-.5,0-.7-.1.2-.3.5-.8.7-2.2-.7-4.5-1.4-6.7-2.1-3-1-6.3-1-8.9-3.1-.1-.1-.5,0-.7,0-2.2-.2-4.3-.5-6.5-.8-.3,0-.8-.1-.9-.4-.1-.2,0-.7.2-1,.2-.3.6-.5.9-.8-.6-.2-1.3-.7-1.8-.6-1.7.3-3.4.8-5.1,1.3-1,.3-2.2.6-2.8,1.4-1.4,1.8-3.7.9-5.3,2.2-1.5,1.1-3.9,1.1-5.8,1.7-1.9.6-3.9.9-5.7,2.2-3,2.1-6.9,2.2-9.7,4.6-.9.8-1.3-1.6-1.9-.1-.7,1.7,1.1,1.5,1.8,2.2.9,1,1.9,1.3,3.5,1.1,1.5-.1,3.1,1.4,4.7,2,3.8,1.5,7.7,2.7,11.5,4.1,3.1,1.1,6.1,3,9.5,3.5.1,0,.1.5.2.8.1.5.1,1.3.3,1.3,2.8.9,4.7,2.8,6.7,4.7,3.5,3.5,7.9,5.6,12.4,7.4,1.3.5,2.5.5,3.7-.4,1.3-.9,2.7-1.3,3-3.3.3-2.8,1-5.6,1.5-8.4.2-1.5,2.1-3.9,3.5-3.6.9.2,1.7,1.4,2.3,2.3.3.5.1,1.4,0,2-.3,1.4-1,2.7-1.1,4,0,.8.3,2.2.9,2.5.8.4,1.5,1.6,3.1.6,2.3-1.5,5-2.7,7.7-3,1.8-.2,3.4-.9,4.9-1.6,1.7-.8,3.7,0,5.2-1.6.9-1,2.4-1.9,4.2-1.7,1.1.1,2.5-.6,3.6-1.2,3.2-1.8,6.8-2.4,10.4-3.2,1.9-.4,3.2-1.9,3-3.7,0-.3-.6-.5-.9-.8-1.1,2.3-1.9.5-2.7-.3-.9-.8-1.5-.9-1.6.6-.3,0-.7,0-1-.2-.7-.1-1.4-.3-2.1-.4-1.1-.2-2.6,0-3.2-.5-1.3-1.4-2.7-1.4-4.4-1.5-.8,0-1.6-.3-2.4-.6-5.4-2-10.6-4.4-16.4-5-2-.2-3.9-.5-5.7-1.2-.3-.1-.8,0-1.1,0-1.2-.5-2.5-1-3.3-1.5M935.7,354.9c0-.2,0-.5,0-.7-.1.2-.3.5-.8.7-1.7,1.9-3.8,3-6.1,2-1.5-.6-2,.4-2.6.9-.6.4-.6,1.7-.6,2.6,0,.2,1.2.5,1.9.5,6.4-.4,12.2,2.4,18.5,2.7,3.4.2,6.6,1.6,9.9,1.8,7,.4,14.1.6,21.2.8.4,0,.8,0,1.1,0,1.4,0,2.8.8,4.1-.5.4-.4,2.8,1,2.8,1.6,0,.7-3.5,4.8-4.2,4.9-2.3.3-4.6.7-6.8.7-2.1,0-4.1-.5-6.2-.7-3.2-.3-6.3-.5-9.5-.8-1-.1-2-.6-3.1-.7-.9-.1-1.9.2-2.8,0-2.2-.4-4.4-1-6.6-1.3-2-.2-4,0-5.9-.7-.9-.3-1.7-.9-2.6-1.1-2.1-.4-4.3-.6-6.5-.8-5.7-.4-11.3-1.3-16.7-3.5-.4-.2-1.3,0-1.3.2-.2,1.1-.6,1-1.5.7-1.4-.4-3-.7-4.3-.3-.9.3-1.1.7-1.1-.6,0-.3-.3-.7-.5-1-.3.3-.8.7-.8.8.7,1.5,1,3.5,2.2,4.2,2.2,1.2,4.9,1.4,7.3,2.4,5.7,2.4,11.1,5.5,16.2,9,3.2,2.1,6,4.9,9.3,6.7,4.5,2.4,7.8,6.3,12.1,8.8,2.1,1.2,4.4,2.1,6.5,3.3.5.2,1.5,0,2-.5,2-1.6,4.1-3.2,5.8-5.1,4.1-4.4,7.9-9,12-13.4,1.2-1.3,2.1-3.2,4.4-3,.5-1.8,1-3.5,2-5.2,1.9-3.2,4.5-5.8,7-8.4,1.2-1.3,2.6-2.4,3.7-3.8,2.7-3.5,5.1-7.2,7.8-10.7,2.6-3.4,3.9-7.7,7.4-10.5.3-.2.2-.9.3-1.3.2-.7.3-1.4.8-1.9,2-2.2,2.8-4.9,3.7-7.5.2-.5,0-1.2-.1-1.8-.3.4-.5.8-.8,1.2-1.4,2.1-3.8,3-6,3.8-3.9,1.3-7.6,2.9-11.3,4.6-1.8.8-3.6,2-5.5,2.2-4.1.5-7.6,3.5-11.9,3.1-.2,0-.4.3-.6.4-1.5.9-3.1,2.5-4.6,2.4-1.9,0-3.4.5-5.1.9-1.1.3-2.3.4-3.5.8-6.3,1.8-12.6,3.4-18.5,6.2-3.4,1.5-7.5,1.7-10.1,5-.2.2-1.3-.3-1.6-.5M862.6,345.1c-.3,0-.5,0-.8,0-.5-.2-1-.5-1.6-.7.3.5.6,1.1,1,1.4.7.6,2,1.6,2.3,1.4,1.1-.9,2.3-.2,2.8.2,4,3.5,8.3,3.6,12.9,1.5,1.6-.7,3.3-.9,4.9-1.9,1.5-1,3.5-1.1,5.3-1.8,2.6-1,5.1-2.3,7.8-3,2.7-.7,5.3-1.6,7.9-2.7,5.6-2.4,11.6-4.3,17.2-6.6,2.9-1.2,6.2-1.2,9-2.9,2-1.2,4.2-2,6.4-2.8,1.4-.5,2.8-.8,4.2-1.7,2.5-1.6,5.3-3.2,8.2-3.7,3.6-.6,6.4-2.7,9.9-3.6,3.5-.9,6.6-3.3,10.3-4.2,3-.7,6-1.9,8.7-3.4,4.2-2.3,8.4-4.1,13.1-4.8,1.9-.3,4-.2,5.6-1.1,4.3-2.2,8.9-3.4,13.4-5,3-1,6-1.7,9-2.9,2.9-1.2,6.2-1.4,9.2-2.4,1.7-.6,3.4-1.6,4.9-2.7.6-.5.6-1.7.7-2.7,0-.2-.5-.6-.7-.5-2.8.5-6-1.4-8.5,1.3-1.2-1.1-2.2.8-3.6.3-.7-.2-2.7-1.9-3.4.5-1.4-.5-2.9-1.4-4.3-1.4-3.1,0-6.2-.2-9.3,0-3,.2-6,.2-8.9-.1-2.8-.3-5.7-.4-8.5-.8-1-.2-1.9-.5-2.8,0-1.2.8-2.4,0-3.5,0-1.3-.1-2.6-.7-3.8-.7-2.3,0-4.6-1.1-6.9,0-.3.1-.7,0-1.1-.1-2.1-.4-4.1-1.3-6.2-1.3-4.5,0-8.7-2.3-13.3-1.8-.5,0-1.1.1-1.6.2-1.1,0-2.5.2-3.2-.4-1.8-1.5-3.5-1.1-5.4-.6-.6.2-2,0-2.1-.3-.5-1.5-1-1-1.8-.3-.6.5-1.5.9-2.2.9-1.5,0-2.7.5-4,1.4-1.7,1.2-3.6,2.5-6.1,2.7-1.9.1-3.7,2-5.7,2.4-2.4.5-4.2,2.2-6.7,2.4-1.4,0-3.2.2-4.1,1.7-1.8-.8-2.3,1.3-3.7,1.5-1.3.2-2.7.4-3.9.8-2.5.9-4.7,3-7.7,2.2-.2,0-.4.1-.7.2-2,1-3.9,2-6,2.9-.7.3-1.8.7-2.2.4-.8-.6-1.3-.1-1.3.3-.3,1.9-2,.9-2.9,1.4-.7.4-2.1-.2-2.5.3-1.2,1.6-2.8,1.2-4.4,1.3-1.6.2-2.9,1.4-4.6,1.7-2.7.5-6.1.6-8,2.2-2.9,2.5-7.3.7-9.5,4.2-1.4-.4-2.5.2-3.7.8-1,.5-2.4.8-3.6.7-1.3,0-1.1,1-1.6,1.5-.7.6-1.6-1.3-2.3.1-3.5-.3-6.1,2.5-9.4,2.7-.5,0-1.9.1-1.5,1.5.2.7,0,1.2,1,1.9,1.5,1,3.3,1.3,4.8,2.2,4.4,2.6,9,5.1,13.2,8,2.8,1.9,6,3.2,8.8,5.3,2.4,1.8,4.5,4.3,7.7,5.1,0,0,0,.7-.4,1.1M924,282.9c-.8-.7-1.5-1.3-2.3-2-.4-.4-.9-1.4-1.2-1.3-2.5.6-4.3-1.3-6.5-1.7-1.2-.2-2.3-.2-3.5,0-1.7.4-1.8-1.9-3.2-2-.3,0-.6.3-.8.3-1.3-.4-2.6-.8-3.9-1.2-3.5-1.1-7.1-2.1-10.4-3.9-1.1-.6-1.7-.7-2.8,0-1.1.7.4-1.9-1.6-1.6-1.5.3-3.3-.8-5-1.4-2.3-.9-4.5-1.8-6.7-2.9-3.4-1.7-7.6-.7-10.5-3.7-1.6,1.1-2.3-2-3.9-.8-.9-1.2-1.9.6-2.8,0-1-.6-1.9-1.4-3-2-.4-.2-.9-.2-1.4-.3-1.8-.6-3.6-1-5.2-1.9-3.5-1.9-6.6-1.4-9.7.6-1.6,1-3.2,2-4.9,2.8-4.1,1.8-8.4,3.5-12.5,5.3-5.5,2.5-10.9,5.1-16.6,7.2-5.3,2-10.3,4.7-15.7,6.6-2.7.9-5.2,2.6-8,3.3-4.5,1.2-8.6,3.6-13.3,4.4-2.5.4-5,1.2-7.5,1.8-.8.2-1.5.5-2.3.7-3.6,1-7.3,1.9-10.8,3.1-2.8,1-5.5,2.4-8.3,3.6-.4.2-1,.2-1.5,0-1.8-.4-3,1.4-4.3,1.4-2.1-.1-2.9,1.5-4.5,2.1-1.2.4-1.1,1.6,0,2.3.7.4,1.4.8,2.2,1.1,1.4.5,2.9,1,4.3,1.5,1.3.5,2.5,1.3,3.8,1.6,1.4.3,1.8,2.6,3.7,1.5,2.9,2.1,5.9,2.8,9.4,1.5,1.8-.7,3.9.9,3.6,2.9-.4,2.5,1.7,3.2,2.8,3.6,2.5.9,4.9,2.1,7.4,3.2,2.4,1.1,4.9,2.6,7.4,2.8,1.6.1,1,2,2.3,1.7,3.5-.6,6.4,1.5,9.5,2.6,4.4,1.6,8.3,1.5,12.3-.7.9-.5,2-.7,2.9-1.2,2.2-1.2,4.6-1.6,7-2.3,2.7-.8,3.8-2.2,3.6-5-.2-2.8,1.3-5.2,1-8.1-.2-1.8.7-4.3,2-6.2,1-1.5,1.4-1.9,2.8-.8.5.4,1.1,1.2,1,1.8-.3,2.2,1.1,4.8-1.3,6.6-.3.2-.2.9-.2,1.4.2,2.1-.3,3.9-2.5,5-.3.2-.4.8-.6,1.2.4,0,1,.4,1.2.2,1-.9,1.8-.6,2.9,0,.7.4,2-.3,3-.6,1.1-.4,2.1-1.5,3.1-1.4,3.1.3,5.5-1.6,8.2-2.4,5.5-1.5,10.7-4,16.3-5.2.7-.2,1.5,0,2.1-.4,4.1-2.6,9.3-1.8,13.2-4.8.2-.1.5,0,.7,0,2.5-.7,5-1.3,7.4-2.1,3.9-1.2,7.7-2.7,11.6-3.9,3.8-1.2,7.5-2.3,11.2-3.8,2.5-1,5.3-1.3,7.6-2.5,5.1-2.6,10.7-3.8,15.9-6.2,1.9-.8,3.6-1.3,5.5-.8.2,0,.5,0,.7,0-.2-.1-.5-.3-.7-.8M876.1,450c-.6,0-1.1.1-1.7.2.5.4,1.1.8,1.6,1.2.2-.5.3-.9.8-1.4,3,1.6,6.3,2.3,9.3,3.8,3.2,1.6,5.8.3,8.3-1.2.4-.2.4-1.2,1.4-1.1,1.9.1,3.1-1,4.3-2.2,1-1,1.8-2.3,3-2.9,5.4-2.5,8.6-7.7,13.5-10.9,2.8-1.9,5.6-4.2,8.1-6.9,2.2-2.3,5.1-3.8,7.6-6.1,5.7-5.2,12-9.6,17.3-15.2.8-.9,1.5-1.9,2.3-2.8-.7-.6-1.5-1.1-2.2-1.7-.2-.2,0-.8-.3-1-1.7-1.4-3.2-3.4-5.8-3.6-.4-.1-.8-.2-1.2-.3,0,.2,0,.3-.1.5.4,0,.9.1,1.3.6-1.2.6-2.2.7-3.4-.3-.6-.5-1.5-.7-2.3-.9-2.9-.7-9-3.2-11-5.1-1.3-1.2-2.5-1.6-4.1-1.9-1.7-.4-3.3-1.7-4.9-2.5-2.6-1.4-5.1-2.8-7.7-4-2.1-1-4.5-1.3-5.5-3.9-.3-.8-1.2-1.4-2.1,0-.9-1-1.9-2-2.8-3-1.5-1.6-3-3.2-4.3-4.9-.5-.7-.4-1.7-.6-2.6-1,.3-2,.5-3.1.8-1,.3-2.1.3-3.1.8-4.3,2.1-9.7,1.1-13.6,4.5,0,0-.2,0-.4,0-3-.2-5.5,1.4-7.9,2.7-4,2.1-8.9,2.2-12.4,5.5-.2.2-.7,0-1,.2-.9.4-1.7.7-2.5,1.2-.5.3-1,1-1.4,1-3.1,0-4.9,2.2-7.1,3.7-1.6,1.1-3.4,2.1-5.1,3.1-1.9-1.6-3.9,0-5.8.2-3,.2-5.9,1.3-8.8,2.2-1.3.4-1.5,2-.5,3,.5.6,1.3,1,2,1.4,5.9,2.8,10.8,7.4,16.9,10.2,4.6,2.1,8.1,6.1,12.9,7.9.3.1.5.3.7.5-.2,0-.4.3-.6.3-1,0-1.9.1-1.5,1.3.3.7,1.2,1.6,1.9,1.6,1.6,0,3.6.8,4.8-1,1.2.7,3.4-3.4,3.9.8,0,.1.7.1,1,.3,2.4,1.5,2.5,1.5.4,3.4-1.6,1.5-3.3,2.9-5.7,1.2-.4-.3-1.2,0-1.9-.4-.8-1.9-1.6-3.8-4.2-1.9-2.2-1-4.5-1.8-6.7-3-3.1-1.6-6.1-3.5-9.1-5.2-.4-.2-1.2,0-1.7.1.4.3.8.5,1.2.8,1.4.9,2.8,1.7,4.1,2.7.3.2.3.8.5,1.3-.4-.1-.7-.2-1.1-.4-1.6-.9-3.2-2.1-4.9-2.6-2.2-.6-4.6-.9-6.7-2-2.9-1.4-6-2.5-8.8-4-1.4-.8-2.3-2.3-2.6-4.2-.2-1.4.6-1.8,1.5-1.9.6,0,1.2.6,1.9.9.7.3,0-2.7,1.6-.7.3.3.8.7,1.2.7,1,0,1.9-.2,2.9-.3-.7-.5-1.4-1.2-2.2-1.6-3-1.2-6.1-2.2-9.1-3.4-.6-.2-1-1-1-1.5.5,0,1,0,1.4,0,.4,0,.8-.3,1.1-.4-.3-.1-.7-.3-.9-.3-.7.2-1.3.5-2.4.7-2.4,1.4-5.2,1.2-7.7,1.3-2.7.1-4.6,1.8-7.1,2.2-1.5.3-2.9,1.4-4.4,2-1.4.6-3.2.9-4,1.9-1.4,1.8-3,.5-4.4.8-.1,0-.3,0-.4,0-3.1,2.8-7.3,3-10.9,4.5-.6.2-1,.9-1.5,1.4.6.5,1.1,1.3,1.7,1.5,6.6,2,12.6,5.3,19,7.7,3.9,1.5,7.7,3.1,11.7,4.4,4.5,1.4,9.1,3,13.6,4.5,1.1.4,2.1,1.4,3.2,1.4,3.4.1,6.5,1.2,9.7,2.2,2.4.7,4.5,2,6.9,2.5,2.2.4,4.4,1.1,6.5,1.8,2.7.8,5.2,1.9,7.9,2.7,5.6,1.6,11.3,3,16.9,4.6,1,.3,2,1,3,1.1,1.5.2,2.1.2,3.5,1.1M528.1,469.9c4.1-1.4,8.1-3.1,12.3-4,4.7-1,9.3-2.5,13.8-3.9,2.2-.7,4.2-2.1,6.2-3.2.1,0-.2-.8-.3-1.2-1.6,1.8-1-1.2-2.4-1.1-1.3,0-2.6-1.9-4-3-1.9-1.5,0-2.5.5-3.6.7-1.4,2-1,2.8-.5,2.9,1.8,5.9,3.5,8.6,5.6,2.6,2,5,1.2,7.4.1.9-.4,1.6-.9,2.5-1.3,3.6-1.5,7.3-3,10.9-4.5,6.1-2.5,12.2-5,18.4-7.5,1.4-.6,2.9-1,4.3-1.5,2.4-1,5.3-.8,7.5-1.8,5.6-2.5,11.8-2.8,17.3-5.6,2.6-1.4,5.9-1.5,8.8-2.4,2.3-.8,4.5-1.9,6.7-3,.4-.2.9-1.5.7-1.6-1-1-2-2.3-3.3-2.8-3.2-1.2-6.5-2.3-9.2-4.1-3.7-2.6-7.7-4.5-11.6-6.7-6.2-3.5-12.5-6.9-18.7-10.3-1.8-1-3.7-1-5.8-.2-3.9,1.6-7.9,2.7-12,3.9-1.3.4-2.4.4-3.7,1.2-2.4,1.5-5.2,2.7-8,3.3-2.3.5-4.4,1.6-6.8,2-3.4.6-6.6,2.3-9.9,3.3-3.6,1.1-7.2,2.1-10.9,2.9-5.4,1.2-10.1,4.2-15.6,5.1-1.1.2-2.3.5-3.3,1.1-1.2.7-1.3,1.6,0,2.3,2.1,1,4.3,1.7,6.4,2.8,3,1.6,5.8,3.5,8.9,5,4.2,2,4.5,6.1,5.3,9.8.3,1.6-.9,2.1-2.4,1.4-1.5-.7-2.8-1-4,.6-.3.5-1.2.7-1.9.7-4.2.4-7-1.5-9-5.5-.9-1.8-1.6-3.3,1-4.4.4-.2,2.2-1.7.7-2.3-1.8-.7-2.5-2.9-4.8-3-1.3,0-2.7-1.3-3.9-2.2-2.1-1.4-4.1-2-6.7-.9-3.8,1.6-8,2.3-11.8,4.3-1.9,1-4.2,1.3-6.3,1.9-2.9.9-5.9,1.6-8.7,2.7-3.9,1.5-7.7,3.2-11.8,4.4-5,1.4-9.7,3.8-14.5,5.8-.4.2-.9.9-.8,1.2.4,2.4.5,5.1,1.6,7.2,1.8,3.5,3,6.8,3.1,10.8.1,3.7,1,7.4,2.2,10.9.7,2.1.2,4.1.7,6.1.2,1,1.1,2.5,1.9,2.7,1.3.2,2.7-.4,4-.9,4-1.6,8-3.2,11.9-4.9,1.6-.7,3.1-2,4.7-2.2,4.8-.6,9.1-3.2,13.9-3.7,4.2-.4,7.6-3,11.7-3.6,1.6-.2,3.2-.7,5.2-1.4M705.3,364.4c-.6.1-1.1.3-1.7.4-1.1,0,1.1,2-.9,1.5-.9-.2-1.9-.4-2.8-.5-.2,0-.5,0-.5,0-.7,2.3-3.7,1.1-4.7,3.1-.2.3-1.1.2-1.7.4-.8.3-1.8-1.5-2.3,0-.2.5.9,1.4,1.4,2.1.1.2.3.4.5.5,3,2.1,6.1,4.1,9.2,6.1,3,1.9,5.1,5.1,8.8,5.8.1,0,.2.2.3.3,2.7,3.2,6.9,4.2,10,6.9,1.2,1,3,1.2,4.6,1.6,1,.2,2.1.2,1.8-1.4,0-.4,0-1.1.2-1.4.7-.7,1.5-1.1,2.3-1.7.4.8,1,1.6,1.2,2.5.2.8,0,1.7,0,2.6,0,2.8,2.2,4.9,4.6,3.9,2.8-1.2,6.1.2,8.5-2.2,1.7.7,2.3-1.2,3.5-1.5,2.3-.6.5-2.3.8-3.4.3-1,.7-1.1-.6-1.1-.6,0-1.2-.3-1.8-.4,0,1.7-.6.9-1.4.3-1.4-1.1-3.4-1.7-4.3-3-1.3-1.8-3.3-.4-4.5-1.4-1.3-1.1-2.4.6-3.5,0-.2.7-.4,1.5-.7,2.2,0,.3-.3.7-.5.7-.7.2-3.2-1.5-3.3-2.2,0-1.5-.5-3.3,0-4.5,1.1-1.9.3-3.4-.3-5-.4-1.3-.2-2.9,1-3.5.9-.5,1.7-1.8,3.4-.5,2.1,1.5,4.9,2.1,7.3,3.2.6.3.8,1.1,1.2,1.7-.5.2-1,.4-1.5.6-.5.1-.9.2-1.4.3.3.4.5.8.9,1,1.1.7,2.2,1.4,3.4,1.9,4.8,2.1,9.1,5.1,13.8,7.4.6.3.9,1,1.4,1.5.3.3.9.6,1.3.5.8,0,1.6-.5,2.4-.5,2.8,0,5.3-1,7.8-2.1.5-.2,1.2-.8,1.2-1.2,0-.6-.6-1.7-1-1.8-3.3-.4-5.6-3-8.6-3.8-2.3-.6-4-2-5.8-3.2-1.7-1.1-3.1-2.7-4.8-3.9-1-.8-2.4-1.1-3.3-1.9-2.6-2.1-5.7-3.8-8.7-4.4-3-.6-5.3-1.9-7.8-3.2-1.2-.6-1.9-1.6-1.3-2.6.5-1,1.6-1.5,3.1-1.5,3.3,0,6.2,1.4,9.2,2.5,4.4,1.6,8.1,4.2,12,6.6,4.4,2.7,8.1,6.5,13.2,8.2,2,.6,4.2,1.4,6.2,2.4,2.1,1,4.1,3.1,6.7,2.8,1-.1,2.8-.2,3-.7.5-1.8.7-3.7.5-5.5-.2-1.4-.2-2.6.1-4.1.4-1.5,1.5-3.5.2-4.9-2.3-2.4-4.6-4.7-7.8-6.1-1.3,1.1-2.5,0-2.8-.7-1.1-2-1.6.8-2.2.2-2-1.9-4.8-1.8-7-3.1-1.9-1.1-4-2.3-6.1-2.4-3.1-.1-5.5-1.2-7.9-2.8-2.5-1.6-3-1.6-5.7.3-.5.3-1.4.7-1.8.5-2-1.2-3.3-.2-4.4,1.3-1.5,2.1-4.4.9-6,2.8-2.8-2.4-4.7,1.6-7.4,1-.7-.2-1.9,1.8-3.5,1.4-.1,0-.7.6-.7,1,0,1.4.3,2.9.4,4.3,0,.4.2,1,0,1.3-1.6,1.7-1,3.9-1.3,5.9-.4,2.7-1.1,5.5-3.5,7.1-1.1.7-3.1.9-4.5.4-1.4-.4-2.2-2-1.7-3.7.3-1.2.8-2.4,1.2-3.6,1.1-3.3-.5-6.1-3.8-6.7-.3,0-.6-.5-1.2-.4M1044.3,274.2c.9-1,1.8-1.7,2-3.3.4-2.2,1.4-4.5,2.6-6.4,1-1.6,1.9-3.2,1.7-4.9-.1-1.8,2.8-2.3,1.6-4.3.3,0,.6,0,.9,0,1-.2,1.3-.7.9-1.4-.3-.6-.9-1.2-1-1.8,0-1.6-1.3-1.2-1.8-1-1.8.5-3.4,1.5-5.2,2-1.6.4-3.3.4-5,.5-.8,2.9-3.4.3-4.9,1.7-.8.7-2.9-.2-3.9.5-3,2.1-6.7,1.6-9.9,3.4-3.8,2.2-9,.7-12.9,3.8-3.3-.6-5.9,2.8-9.4,1.7-.1,0-.4.3-.6.3-2.1.6-4.2,1.3-6.4,1.9-4.7,1.3-9.5,2.4-14.2,3.8-3.7,1.1-7.5,1.8-11.2,2.8-4,1.1-7.8,2.8-11.7,3.9-1.7.5-.6,1.6-.9,2.4,0,0,.8.6,1.3.7.9.1,1.8,0,2.6,0,4,.7,7.9,1.8,11.9,2.2,5,.5,10.1.6,15.1.8.5,0,1.1-.1,1.5,0,4.9,1.7,10.1-.2,15,1.5,2.6-1,5.1-.2,7.7-.1,6.2.2,12.3-.3,18.5-.6.4,0,.9-.6,1.3-.5,2.4.3,5.1-2.5,7.2.8.6,1,1,0,1.3-.3,2.9-2.5,4.2-6,6-9.7M656.3,365.9c.2-2.9-.6-5.9,1.4-8.5.4-.5,0-1.7-.3-2.4-.6-1.5-2.8-2.1-2.6-4.1-1.8-.2-2.8-1.7-4.1-2.7-3.4-2.3-7.1-4.1-9.7-7.4-.3-.4-1.2-1-1.5-.8-.6.3-1.3,1.1-1.2,1.6.4,2.1-1.3,4.1-.1,6.2.3.6.2,1.5,0,2.2-1,3.2-1.5,6.6-1.5,9.9,0,3.7-.1,7.3.6,11,.3,1.5.4,3.3.2,5-.2,1.8-.2,3.6,0,5.4,0,1.9,1,1.8,2.1,1.4,2.9-1.1,5.8-2.3,8.8-3.4,1.5-.6,3.1-1,4.6-1.7,1.6-.8,1.5-1.4.1-3-.8-.9-1.4-1.9-2.1-2.9-1.2-1.6-.3-3.7,1.7-3.8.8,0,1.6.9,2.5,1.2.6.2,1.3,0,2,0-.2-.5-.5-1-.7-1.6,0-.2,0-.5,0-1.5M862.6,374.5c2.9-1.3,5.7-2.7,8.6-3.7,3.8-1.4,7.9-2.1,11.7-3.7,1.2-.5,1-1.5,1.8-1.9-.8-1-.7-1.8.2-2.7-.8-.5-1.6-1.1-2.4-1.6-1.3-.9-2.4-2-3.8-2.7-.9-.5-2-.7-3-1,0,.3-.2.6,0,.7.1.3.4.4.7.7-.4.1-1.1.5-1.3.3-2.5-1.6-4.6-2-7.1.3-1.3,1.2-3.7,1.5-5.6,1.6-1.5.1-2,1.5-3,1.9-1.1.3-2.5-.4-3.5,0-3.8,1.5-7.4,3.2-11.1,5-3.9,1.9-4.6,3.2-4.5,7.7,0,2,.3,4.1-.2,5.9-.6,1.8.4,1.7,1.3,1.5,2.3-.5,4.7-.9,6.7-1.9,4.6-2.3,9-4.9,14.7-6.3M612.6,396.8c-2,2,.4,2.7,1.2,3.3,2.2,1.5,4.7,2.6,7,3.9,4.2,2.3,8.4,4.5,12.6,6.8,2.5,1.4,4.7,3.2,7.2,4.5,5.2,2.6,10.6,4.8,15.6,7.7,2.5,1.4,4.8,1.5,7.3,1.3.9,0,1.7-1.1,2.6-1.8-.5-.5-1-1-1.5-1.5-1-1-1.9-2-2.9-2.9-.5-.5-1.1-.9-1.7-1.2-2.2-1.1-4.7-1.9-6.4-3.4-1.8-1.6-4.4-1.7-5.9-4-1.1-1.5-3.5-2.9-5.4-3-2.6,0-4.2-1.6-6.2-2.5-1.2-.6-2.3-1.6-3-2.6-.7-1.1.5-2,1.2-2.8.3-.3.2-.9.2-1.4-.1-3.9-2.4-6.2-6.7-5.1-3.8,1-7.6,2.1-11,4.4-1.2.8-2.5,1-4.2.5M808.3,333.1c1,.5,2.1,1.5,3.1,1.4,1.8-.2,3.2.8,4.8,1.2,1.7.5,3.4,1,5.1,1.5,2.2.7,4.4,1.6,6.7,1.9,6.3.8,12.4,2.5,18.1,5.3,1.3.6,3,.7,4.5.7.5,0,1.2-1,1.6-1.6.1-.2-.3-1.1-.7-1.3-2.8-1.5-5.6-2.9-8.4-4.3-.9-.4-2.2-.3-3-.9-2.8-1.8-5.3-4.1-8.2-5.7-2.2-1.3-4.4-2.9-7-3.3-.7,0-1.6.5-1.8-.4-.4-1.7-2.3-1.4-3.1-2.4-1.6-2.1-2.6-.5-3.8.3-.2.1-.5,0-.7,0-2,.3-4,.6-6,1-2,.3-3.3,2.3-5.5,2.2-.7,0-1.4,1.4-2.2,2.2.9.5,1.7,1.1,2.6,1.4,1,.4,2,.5,3.8.8M721.2,417.1c0-1.4.1-2.7-1.3-3.6-.5-.3-1-1.5-.8-1.7,1.1-1.2,0-1.1-.6-1-2.6.2-5.2.9-7.7.6-3-.4-3.7,1.5-4.5,3.4-.5,1.2-.6,2.5-.9,3.8-.8,3.6-1.4,7.2-2.3,10.7-.8,3.1-1,3.2,1.2,4.9,1.5,1.2,3,1,4.6,0,1.3-.9,2.8-1.7,4.4-2.1,3.3-.8,4.2-1.3,6.1-5.2,1.1-2.2,1.9-4.3,1.8-6.8,0-.7,1.4-1.3,0-2.8M764.1,337.2c.3-.3.5-.6.8-.8,3.7-1.8,7.8-2.1,11.5-4,.9-.5,2.5-.2,2.7-1.3,0-.8-1-1.8-1.8-2.5-.5-.4-1.3-.5-1.9-.8-3-1-6.2-1.7-9-3.1-2.4-1.2-4.9-2.1-7.3-3.2-1.9-.9-2.4,0-2.4,1.3-.1,4-.8,7.9-1.5,11.8-.2,1.2-.2,2.5,0,3.7.2.9.6,2,2.3,1.2,2-.9,4.2-1.3,6.7-2.3M646.5,338.7c1.1.8,2.1,1.6,3.2,2.4,2.8,2,5.6,4.1,8.4,6.1.2.2.7,0,1,0,0-.2,0-.4,0-.5-.2-3.1-.3-6.1-.5-9.2,0-.3.8-1.8-.8-1,0,0-.6-.6-.6-1,0-.6.2-1.1.4-1.7.2.4.3,1.1.6,1.2.3.1.9-.2,1.3-.4-.8-1.9.5-3.9,0-5.8,0-.3-.2-.7-.3-1-1.7,1.4-2.2-1.2-3.9-1-4.2.6-8.1,1.7-11.6,4-2,1.3-2,3.8-.2,5.2.9.8,1.9,1.5,3.2,2.6M678.9,426.9c-1.5-1.6-3.1-2.2-5.2-.9-.9.6-2.3.4-3.5.5-.3,0-.7-.2-1.1-.3,0,.5-.2,1.2,0,1.5,1,1.1,1.9,2.6,3.2,3.1,4.2,1.7,7.6,4.7,11.5,6.9,3.1,1.7,6.5,6,10.5,1.1,0,0,.5.4.5.4.5-.5,1.1-.9,1.4-1.5.1-.3-.2-1.1-.4-1.2-3.2-1.2-5.9-3.2-8.7-5.2-2.3-1.7-5.2-2.6-8.2-4.2M670.2,371.5c1.4-.6,2.8-1.1,4.1-1.9,1.7-1,1.6-1.6,0-2.6-1.5-.9-3-1.8-4.6-2.7-1.6-.9-1.7-3.6-4.2-3.4,0-.3.2-.6.1-.8-.4-1.9-2.1-1.7-3.4-2.2-1.8-.6-1.9,1.1-2.1,1.8-.8,2.6-1.2,5.3-1.7,8-.4,1.9.6,3.2,2.2,3.7,2.9,1,5.9,2.6,9.4,0M808.3,381.3c-.9-1-1.7-1-2.9-.2-.8.6-1.9.9-3,.9-1.5,0-2.8.1-4,1.4-.4.4-1.8,1.9-3.1.3-.3-.3-2.1.6-3.2,1,.7.9,1.3,1.8,2,2.7.3.3.8.5,1.2.7,3.2,1.2,6.5,2.5,9.7,3.7,2.6.9,5.3-.3,5-2.5-.3-2.5.4-5.3-1.8-7.9M835,374.2c0-1.3-.8-1.9-2.2-1.9-3.2-.1-6.1,1-9.1,1.9-1.1.3-2.2,1.2-3.3,1.1-2.6-.4-2.4,1.6-2.8,3-.1.4,0,.9.1,1.4.3-.4.5-1,.8-1.1.6-.1,1.4,0,2,.1,2.3.9,4.4,2,6.7,2.9,1.3.5,2.6,1.1,4,1.2,2.3.3,3.6-1,3.7-3.4,0-1.5,0-3,0-5.3M913.1,379.8c1.5.7,2.9,1.4,4.4,2.1,3.4,1.6,6.9,2.9,10,4.9,1.8,1.2,2.7-.6,4-.3.2,0,.4-.1.7-.2-1-.4-2-.7-2.9-1.3-.9-.6-1.5-1.6-2.4-2.2-2.5-1.6-4.9-3.2-7.5-4.5-2.9-1.5-5.8-2.9-8.9-4.1-1.5-.6-3.3-.4-5-.6-.6,0-1.2-.1-1.8-.2.3.8.4,2,.9,2.2,2.8,1.2,4.9,3.7,8.5,4.1M749.8,398.3c-.3,2.1-2,.9-3,1.4,0-.5,0-1.6-.8-.5-.8,1.1-1.9,1-3,1-.5,0-1.3.3-1.4.6-.1.5,0,1.2.4,1.6.4.6,1,1.1,1.6,1.5,2.1,1.2,4.2,2.7,6.4,3.5,1.4.5,3.2.3,4.7,0,.3,0,.2-2,.4-3.1.2-.9.5-1.8.7-2.7.5-2.3-.9-3.4-3.4-3.1-.7,0-1.5-.4-2.7-.3M788.7,391.9c-2,.5-2.8,1.7-2.7,3.7,0,1.2.2,2.5,0,3.7-.3,2,.5,2.7,2.4,2.3.8-.2,1.6-.4,2.4-.6,2.7-.8,4.8-2.8,7.7-3.2,1.2-.2,1.4-1.6.4-2.5-.7-.6-1.5-1.3-2.3-1.6-2.3-.7-4.7-1.3-7.9-1.9M714.4,402.1c1.2.4,2.4.9,3.7,1.1,1.3.2,4.7-2,4.6-2.8-.3-1.7-1.7-2.4-3.1-3.2-1.6-1-3.8-1-4.7-3.4-.4-1-2.6-1.4-4-1.8-.9-.3-1.7-.2-1.9,1.4-.3,4.1,2.2,6.3,5.4,8.8M797.3,376.4c0-.1,0-.3,0-.4-2.2-2-5.1-2.7-7.1-5.1-1-1.2-2.7,0-2.7,1.6,0,1.6,0,3.2,0,4.9,0,1.8.8,2.3,2.5,2.4,2.8,0,5-1.3,7.4-3.4M691.4,424.3c-.3,0-.7-.1-1-.3-1.6-.9-3.2-1.9-4.9-2.6-.8-.3-1.8.2-2.7.3.5.7.8,1.6,1.4,2,1.7,1.3,3.5,2.5,5.3,3.5,1.8,1.1,3.7,2,5.6,2.8,1.6.7,2.5,0,2-1.6-.3-1-1.3-2-2.1-2.7-.8-.7-1.8-1-3.5-1.5M622.7,332.3c.6-.6,1.7-1.1,1.8-1.8.6-3.2-1.7-5.3-3.1-7.7,0,0-.6.1-.6.3-1,3-2.9,5.8-2.3,9.2.1.8.7,1.5,1,2.2.4-.5.6-1.2,1.1-1.6.3-.3.8-.4,2-.6M642.3,397.9c-1.2-1.2-2.4-2.5-3.7-3.6-.2-.1-1.1.3-1.1.3.3,1.4.4,2.9,1.1,4,.6.9,1.7,1.7,2.8,2.1,1.1.3,2.3,0,3.5,0-.6-.7-1.3-1.4-1.9-2.1,0,0-.2-.2-.6-.6M694.4,416.8c-.5,0-1,0-1.5,0,.2.4.2,1,.5,1.3,1.2.9,2.6,1.6,3.8,2.5.8.6,1.5.7,1.9-.2.3-.8.9-1.8-.8-2.1-1.1-.2-2.1-.9-3.9-1.4M886.3,353.8c.6.1,1.1.4,1.7.3.7,0,1.4-.4,2.1-.7-.7-.5-1.3-1.3-2.1-1.5-.5-.1-1.1.7-1.7,1.8M709.5,403.2c-.4,1-.8,1.9-1.1,2.9,0,.2,0,.5.2.7,0,0,.4,0,.5,0,.5-1,2.1-1.6.5-3.5M706.8,316.1c0,.2,0,.5,0,.7,0,.3.2.7.2,1,.2,0,.5-.2.5-.3-.1-1.1-.3-2.2-.5-3.3,0,.2-.2.4-.2.6,0,.1,0,.2,0,1.1M884.1,355.3c.3.4.6.8.9,1.1.4-.4.8-.9,1.2-1.3-.6,0-1.1-.1-2.1.2M734,347.8c-.3-.4-.6-.8-.9-1.1l-.6.6c.4.3.8.6,1.5.5M712.5,365.5c-.3-.2-.8-.7-.8-.7-1,1,.2,1.4.6,2,.2-.3.4-.7.1-1.4M471.1,484.6c.3,0,.6-.1,1-.2l-1.1-1.1c0,.3-.1.6.2,1.3M802.6,380.2c.4.1.8.2,1.2.3,0,0,0-.3.1-.5-.3,0-.6-.1-1.3.2M806,400.2c.3,0,.6-.1,1-.2,0-.2-.1-.5-.1-.5-.4,0-.8.2-.8.7M935,395.7c-.1-.3-.3-.5-.4-.8-.1.3-.3.5.4.8M941,397.9c-.1-.3-.3-.5-.4-.8-.1.3-.3.5.4.8M697.8,445.8c0-.3-.1-.6-.2-1-.2,0-.5.1-.5.1,0,.4.2.8.7.8M774.3,382.8c.1.3.3.5.4.8.1-.3.3-.5-.4-.8M1040.5,290.1c-.1-.3-.3-.5-.4-.8-.1.3-.3.5.4.8M704.2,351.9c.1-.4.2-.8.3-1.2,0,0-.3,0-.5-.1,0,.3-.1.6.2,1.3M850.5,419c-.1.2-.2.3-.3.5.2,0,.5,0,.3-.5M847.5,417.5c-.1.2-.2.3-.3.5.2,0,.5,0,.3-.5M858.8,446.2c.1-.2.2-.3.3-.5-.2,0-.5,0-.3.5M864.8,447.7c-.1.2-.2.3-.3.5.2,0,.5,0,.3-.5M868.2,356.8c.2.1.3.2.5.3,0-.2,0-.5-.5-.3M869.7,237.7c-.2-.1-.3-.2-.5-.3,0,.2,0,.5.5.3M821.8,458.2c-.1.2-.2.3-.3.5.2,0,.5,0,.3-.5M813.2,467.7c.2.1.3.2.5.3,0-.2,0-.5-.5-.3M772.1,398.7c.1-.2.2-.3.3-.5-.2,0-.5,0-.3.5M898.4,372.7c-.2-.1-.3-.2-.5-.3,0,.2,0,.5.5.3M898,227.5c.1-.2.2-.3.3-.5-.2,0-.5,0-.3.5M901.8,226c.1-.2.2-.3.3-.5-.2,0-.5,0-.3.5M767.2,419.4c.2.1.3.2.5.3,0-.2,0-.5-.5-.3M904.8,357.9c-.1.2-.2.3-.3.5.2,0,.5,0,.3-.5M919.5,218c-.2-.1-.3-.2-.5-.3,0,.2,0,.5.5.3M931.2,393.4c-.1.2-.2.3-.3.5.2,0,.5,0,.3-.5M731.3,416c.1-.2.2-.3.3-.5-.2,0-.5,0-.3.5M729.1,444.7c.1-.2.2-.3.3-.5-.2,0-.5,0-.3.5M723,407.7c.1-.2.2-.3.3-.5-.2,0-.5,0-.3.5M718.5,362.5c-.1.2-.2.3-.3.5.2,0,.5,0,.3-.5M707.6,395.3c-.2-.1-.3-.2-.5-.3,0,.2,0,.5.5.3M948.5,394.9c.1-.2.2-.3.3-.5-.2,0-.5,0-.3.5M973.8,415.6c.2.1.3.2.5.3,0-.2,0-.5-.5-.3M1058.3,252c.2.1.3.2.5.3,0-.2,0-.5-.5-.3Z"/>
      <path d="M761.3,125.5c-1.6-1.3-3.1-2.3-4.3-3.6-4-4.1-7.8-8.3-11.8-12.4-1-1-2.3-1.7-3.4-2.7-.5-.5-.9-1.4-1-2.2-.1-.9.1-1.9.2-2.9,1.1.3,2.4.3,3.3,1,1.3.9,2.4,2.2,3.5,3.4,3.4,3.4,6.9,6.9,10.3,10.3.3.3.5.5.8.8,4.1,3.6,8,7.6,12.5,10.8,3,2.1,5.6,4.6,8.4,7,1.4,1.2,3.4,1.7,4.9,2.8,2.6,1.9,5.1,4.1,7.7,6.1,3,2.2,5.4,5.2,9.1,6.2.5.1,1.2.4,1.5.8,2.7,3.6,7.3,4.5,10.6,7.4,1.3,1.2,3.4,1.5,5.1,2.3.6.3,1.3.6,1.8,1,1.9,1.9,4,3.3,6.9,3.6,1.3.1,2.8.7,3.9,1.5,2.4,2,6,1.6,8.1,4.4,1,1.4,3.2,1.9,4.8,2.8.2,0,.5-.2.8-.2,1,.2,2.7.5,2.7.8.2,2.9,2.4,2.2,4.1,2.8,3.3,1,6.5,2.5,9.6,4.1,2.5,1.3,4.7,3,7.6,3.4,1.4.2,2.6,1.5,4,2.1,1.8.7,3.5,1.9,5.7,1.7,1.7-.2,2.7,1.4,3.7,2.6,1,1.1,1.9,2.2,3.7,2,1.2-.1,2.5.6,3.7,1,2.1.6,4.2,1.3,6.3,2,1.6.5,3.4.6,4.6,1.6,2.9,2.4,6.7,1.9,9.9,3.6,2.9,1.6,6.2,2.2,9.5,2.7.7.1,1.3.6,1.9,1.1,1.1,1,2,1.5,2.7-.3,0,0,3,1.1,3,1.2-.2,1.3.6,1.7,1.5,1.3,2.4-1.1,5.1-.2,7.6-1.7,1.6-1,4.2-.3,6.3-.6,1.1-.1,2.2-.6,3.3-1,.3-.1.7-.5.8-.8.9-2.5,2.9-4.5,5.1-4.9,1.7-.4,3.5-.6,4.9-1.9.6-.6.7-.3,2.4.8.5.3,1.5.3,2,0,.8-.5,1.4-1.4,2.2-2.1.5-.4,1.8-3.1,1.8.3,0,.2.9.6,1.1.5,3-2.4,6.9-2.1,10.2-3.7.8-.4,1.5-.8,2.3-1.2.1,1.5-1.2,1.5-2,2.1-3,2.7-7.1,2.8-10.5,4.9-3.3,2-7.5,2.6-11.1,4-2.7,1.1-5.3,2.4-7.8,3.9-1.7,1.1-1.5,1.9.6,2.5.7.2,1.6.3,2.3,0,2.6-.9,5.2.4,7.7.2,3.3-.1,6.5-.1,9.8,0,2,0,4.1.9,6.1.6,1.9-.3,3.6.4,5.4.2,2.1-.2,4.3-.2,6.4,0,4.3.4,8.6,1,13,1.4,2.7.3,5.3-.7,8.1,0,2.7.5,5.5.1,8.3.1,4.7,0,9.3-1.1,13.8-2.2.6-.1,1.2-.1,1.8,0,6.7.1,13.3-.8,19.8-2.2,2.8-.6,5.8-.5,8.7-.8,2-.2,4.1-.3,6-1,1-.4,1.5-.6,2.1.2.8,1,2.5,1.7,1.9,3.3-.5,1.4-2,.9-3.2,1.3-2.7.9-5.4.9-8.1.7-1.5,0-3.1.4-4.6.7-1.2.2-2.4.8-3.6.7-1.5-.2-2.9,1.1-4.3.1-1.2,2.3-3.2.3-4.7.7-1.7.5-3.5.7-5.3.8-3.6,0-7.2.3-10.6,1.8-.2,0-.4.4-.5.4-3.8-1.6-7.6.7-11.5.2-4-.5-8,0-12-.1-1.2,0-2.3-.4-3.5-.6-.4,0-.9-.2-1.1,0-1.6,1.8-3.2.3-4.8,0-3.4-.4-6.9-.7-10.1.1-2.1.5-3.7-.3-5.5-.3-1.8,0-3.6-.5-5.3-.7-2.9-.3-5.8-.9-8.7-.7-4.5.3-9,0-13.5-.1-3.6,0-7.3-.6-10.9-.9-.4,0-.7,0-1.1,0-1.9.5-3.6,1.1-5.5-.4-1.1-.9-2.8.6-4.2-.1-.6-.3-1.4-.4-1.9-.9-1.5-1.6-3.5-2.1-5.5-2.1-2.1,0-3.9-.8-5.8-1.4-2.4-.7-4.6-2.5-7.4-1.8-.5.1-1.2-.6-1.8-.9-1.9-1-3.6-2.3-6-2-.4,0-.8-.4-1.2-.6-4.5-2-8.8-4.8-13.4-5.6-4.9-.8-8.2-4.9-13-5-4.3-2.9-9.9-3.3-13.9-7-.6-.6-1.9-.3-2.9-.6-1.1-.4-2.1-1-3.2-1.5-3.1-1.5-6.4-2.8-9.4-4.6-3.1-1.8-6.1-4-9.4-5.6-1.1-.5-2-1-3.3-1.2-1.6-.3-3.1-1-4.5-1.9-3.8-2.5-8.1-4.1-12.1-6.3-2.7-1.5-5-3.5-7.6-5.1-4.7-3-9.5-5.9-13.8-9.4-2-1.7-4.7-2.7-6.1-5.1-3.3-.4-5.1-3.1-7.3-5.1-2.5-2.2-5.2-4.3-7.9-6.4-1.3-1-2.8-1.7-4.1-2.7-1.4-1-2.6-2.1-4.2-3.4M953.8,199.6c0-.2,0-.5,0-.7-.1.2-.3.5-.8.7-.3-.2-.7-.7-.8-.7-.4.3-.9.6-1,1,0,.3.5.7.8,1,.4-.4.9-.9,1.7-1.3M956.1,199.6c.1-.2.2-.3.3-.5-.2,0-.5,0-.3.5Z"/>
      <path d="M831.1,528.2c3.2-4,6.8-3.9,10.1-.4.9,1,1.5,1.9,1.9,3,1.3,3.6-1.3,6.8-5.1,7.5-3.4.7-4.6-2.3-7-3.1-.1,0-.2-.1-.3-.2,1-1.1,1.6-2.2-.1-3.2,1.4-1-1.2-2.4.5-3.6M832.4,529.1c.1-.2.2-.3.3-.5-.2,0-.5,0-.3.5Z"/>
      <path d="M756.8,464.5c1.1-1.4,2.2-2.1,3.7-1.7,1.7.5,3.5.8,4.9,1.7,2.1,1.3,3.6,3.5,3.7,5.9,0,2.1-.2,4.4-1.8,6.1-.2.2-.6.3-.8.2-2.3-1-4.8-1.9-6.9-3.2-1.4-.9-2.6-2.1-2.3-4.3.2-1.5.9-3.2-.5-4.8Z"/>
      <path d="M838.8,483.9c-3.4-.2-3.9-.6-4.5-3.7-.2-.8-.2-1.8,0-2.6.3-1.2.8-2.3,1.2-3.5,1.2.5,2.4.8,3.5,1.5,1.4,1,2.7,5.6,1.9,7.2-.3.5-1.1.7-2.1,1.1Z"/>
      <path d="M897.6,462c.3,1.5-.5,1.8-1.7,1.5-1-.2-1.9-.7-2.7-1.3,1.6-.2,3-.2,4.3-.2Z"/>
      <path d="M897.8,73.6c-.4-.3-.6-.5-.8-.8-.3-.4-.6-.8-.9-1.2.4.1.7.3,1.1.4.5,0,1.2-.2,1.4,0,.9.9.7,1.5-.9,1.5Z"/>
      <path d="M920.4,78.7c.8.2,1.4.2,2.1.2.2,0,.4.2.6.2-.1.2-.2.5-.3.5-1.2-.2-2.4-.3-3.5-.6,0,0,0-.6,0-.9.3.1.6.3,1.2.6Z"/>
      <path d="M972.9,191.1c-.3.2-.5.1-.6.2-.7.4-1.5.8-2.2,1.2,0-.2-.1-.6,0-.7.8-1.1,1.6-1.8,2.8-.7Z"/>
      <path d="M915.2,137.7c.5-.3,1.1-.6,1.8-.7.3,0,.6.2.9.3-.4.1-.7.4-1.1.4-.5,0-1,0-1.6,0Z"/>
      <path d="M824.3,97.2c-.3-.4-.3-.5-.4-.7.3,0,.8-.3,1-.2.4.3.6.8.9,1.3-.4,0-.9-.2-1.5-.4Z"/>
      <path d="M888.6,68.9c-.1.2-.2.2-.4.2-.6-.1-1.2-.3-1.9-.4.7,0,1.5,0,2.2.2Z"/>
      <path d="M906.7,75.1c-.7,0-1-.2-1.4-.2,0-.2.2-.5.3-.5.6,0,1.2.1,1.7.2,0,0,0,.2,0,.2,0,.1-.2.2-.6.3Z"/>
      <path d="M1102.8,123.6c.3.3.5.9.7,1.4,0,.1-.2.4-.3.6-.1-.2-.4-.5-.4-.7,0-.3,0-.7,0-1.3Z"/>
      <path d="M963.1,89.7c0-.4.3-.7.5-.9,0,.5.1.9.2,1.4,0,0-.2,0-.2,0,0,0-.2-.2-.4-.4Z"/>
      <path d="M890.8,70c.1-.2.2-.2.4-.2.6.1,1.2.3,1.9.4-.7,0-1.5,0-2.2-.2Z"/>
      <path d="M931.8,82.5c.2-.3.6-.5,1.1-.5.3,0,.6.2.9.3-.4.1-.7.3-1.1.4-.2,0-.5,0-.9-.2Z"/>
      <path d="M890.8,69.7c-.8,0-1.5,0-2.3-.4.8,0,1.5,0,2.3.4Z"/>
      <path d="M946.5,85.5c-.5.1-.8,0-1.1,0,0-.2.1-.5.1-.5.4,0,.8.2,1,.5Z"/>
      <path d="M815.2,91.2c-.2.3-.6.4-1,.5,0,0,0-.3-.1-.5.3,0,.6-.1,1.1,0Z"/>
      <path d="M759.8,431.1c.2-.2.6-.5,1-.7,0,.2.1.3.2.5-.3,0-.6.1-1.1.2Z"/>
      <path d="M615.8,301.2c-.1-.5,0-.8,0-1.1.2,0,.5.1.5.1,0,.4-.2.8-.5,1Z"/>
      <path d="M777.7,446.9c-.5-.2-.9-.3-1.4-.5.3,0,.7-.2,1.2,0,.2.2.2.6.2.6Z"/>
      <path d="M968.7,90.4c.5-.1.8,0,1.1,0,0,.2-.1.5-.1.5-.4,0-.8-.2-1-.5Z"/>
      <path d="M869,120.2c-.4.1-.9,0-1.3,0,0-.2,0-.3.1-.5.4.1.8.2,1.2.5Z"/>
      <path d="M770.7,69.1c-.2.2-.6.5-1,.7,0-.2-.1-.3-.2-.5.3,0,.6-.1,1.1-.2Z"/>
      <path d="M869.7,120.9c-.3,0-.5,0-.8-.4.3,0,.5,0,.8.4Z"/>
      <path d="M820.7,472.8c.2,0,.5,0,.7.2-.2,0-.5,0-.7-.2Z"/>
      <path d="M885,191.8c0-.2.3-.2.5-.3-.1.2-.2.3-.5.3Z"/>
      <path d="M791.5,518.8c.2,0,.2.3.3.5-.2-.1-.3-.2-.3-.5Z"/>
      <path d="M895.2,131.1c0,.2-.3.2-.5.3.1-.2.2-.3.5-.3Z"/>
      <path d="M771.1,69.1c0-.2,0-.5.2-.7,0,.2,0,.5-.2.7Z"/>
      <path d="M761.3,437.7c0-.2.3-.2.5-.3-.1.2-.2.3-.5.3Z"/>
      <path d="M912.9,76.8c.2,0,.2.3.3.5-.2-.1-.3-.2-.3-.5Z"/>
      <path d="M746,466c.2,0,.5,0,.7.2-.2,0-.5,0-.7-.2Z"/>
      <path d="M935.1,82.9c0,.2-.3.2-.5.3.1-.2.2-.3.5-.3Z"/>
      <path d="M711.9,103.6c-.2,0-.2-.3-.3-.5.2.1.3.2.3.5Z"/>
      <path d="M951.4,87c0-.2.3-.2.5-.3-.1.2-.2.3-.5.3Z"/>
      <path d="M962.3,411.3c-.2,0-.2-.3-.3-.5.2.1.3.2.3.5Z"/>
      <path d="M966.4,90c0-.2.3-.2.5-.3-.1.2-.2.3-.5.3Z"/>
      <path d="M995.5,417.3c-.2,0-.2-.3-.3-.5.2.1.3.2.3.5Z"/>
      <path d="M1007.5,96.4c0,.2-.3.2-.5.3.1-.2.2-.3.5-.3Z"/>
      <path d="M1036.6,301.4c0-.2,0-.5.2-.7,0,.2,0,.5-.2.7Z"/>
      <path d="M659.9,129.6c0,.2-.3.2-.5.3.1-.2.2-.3.5-.3Z"/>
      <path d="M616.1,298.6c0,.2-.3.2-.5.3.1-.2.2-.3.5-.3Z"/>
      <path d="M1113.9,235.2c0,.2-.3.2-.5.3.1-.2.2-.3.5-.3Z"/>
      <path d="M857.7,428.3c.8,0,1.6.3,2.3.6.2,0,.3.4.5.5-.2,0-.5.2-.7.2-.7-.3-1.4-.7-2.2-1.3Z"/>
      <path d="M862.7,429.4c-.6,0-.9-.4-1.3-.7.2-.2.4-.4.6-.6.3.4.6.8.7,1.3Z"/>
      <path d="M857.7,427.9c-1.1.2-2.2.3-.9-1.3.4.4.7.8.9,1.3Z"/>
      <path d="M945.1,400.9c.3-.3.5-.1.8,0-.3.1-.5.3-.8,0Z"/>
      <path d="M845,422.2c.2,0,.2.3.3.5-.2-.1-.3-.2-.3-.5Z"/>
      <path d="M902.9,380.8c.2,0,.5,0,.7.2-.2,0-.5,0-.7-.2Z"/>
      <path d="M900.5,275.2c0,.2-.3.2-.5.3.1-.2.2-.3.5-.3Z"/>
      <path d="M862.9,345.3c.2,0,.5,0,.7.2-.2,0-.5,0-.7-.2Z"/>
      <path d="M820.5,357.4c0,.2-.3.2-.5.3.1-.2.2-.3.5-.3Z"/>
      <path d="M939.9,333.2c.2,0,.5,0,.7.2-.2,0-.5,0-.7-.2Z"/>
      <path d="M745.3,352.1c.3-.4.6-.6.9-.7.5,0,.9.1,1.4.2-.3.3-.6.8-1,1-.3.1-.8-.2-1.3-.5Z"/>
      <path d="M742.1,377.7c0-.4.3-.7.5-.9,0,.5.1.9.2,1.4,0,0-.2,0-.2,0,0,0-.2-.2-.4-.4Z"/>
      <path d="M711.3,380.6c.3.3.1.5,0,.8-.1-.3-.3-.5,0-.8Z"/>
      <path d="M745.3,351.7c-.2,0-.5,0-.7-.2.2,0,.5,0,.7.2Z"/>
      <path d="M703.6,341.4c0,.2,0,.5-.2.7,0-.2,0-.5.2-.7Z"/>
      <path d="M731.7,325.3c-.2.1-.5,0-.6,0-.3-.3-.6-.6-.8-1,.2,0,.5-.3.6-.3.3.3.6.7.9,1.3Z"/>
      <path d="M693.2,392.4c-.4.1-.9,0-1.3,0,0-.2,0-.3.1-.5.4.1.8.2,1.2.5Z"/>
      <path d="M670.1,380.4c0-.2.3-.2.5-.3-.1.2-.2.3-.5.3Z"/>
      <path d="M878,360.2c-.3-.3-.1-.5,0-.8.1.3.3.5,0,.8Z"/>
      <path d="M737,406c-.7-.2-1.5-.5-2.2-.9.1-.2.4-.5.4-.4.6.3,1.2.7,1.8,1.3Z"/>
      <path d="M656.9,342.3c.1.5,0,.8,0,1.1-.2,0-.5-.1-.5-.1,0-.4.2-.8.5-1Z"/>
      <path d="M697.8,382.3c.2,0,.5,0,.7.2-.2,0-.5,0-.7-.2Z"/>
      <path d="M684.2,373.2c.3,0,.5,0,.8.4-.3,0-.5,0-.8-.4Z"/>
      <path d="M767.9,401.9c1.6.5,3.1,1.2,4.7,1.9.2,0,.3.5.4.8-.3,0-.8.2-1,.1-1.4-.8-2.7-1.7-4.1-2.7Z"/>
      <path d="M695.3,427.5c0,.2-.3.2-.5.3.1-.2.2-.3.5-.3Z"/>
      <g id="TbcFSs" class="cls-1">
        <image id="TbcFSs-2" data-name="TbcFSs" width="470" height="242" transform="translate(391.5 21.9) scale(.5)" xlink:href="pdp_4-1.png"/>
      </g>
      <g id="xgjwuG" class="cls-1">
        <image id="xgjwuG-2" data-name="xgjwuG" width="1806" height="250" transform="translate(602.5 606.5) scale(.3)" xlink:href="pdp_4-2.png"/>
      </g>
      <g id="wvjIOp">
        <image id="wvjIOp-2" data-name="wvjIOp" width="2066" height="696" transform="translate(17.3 342.4) scale(.2)" xlink:href="pdp_4-3.png"/>
      </g>
      <g id="_x34_1Y60v">
        <image id="_x34_1Y60v-2" data-name="_x34_1Y60v" width="314" height="240" transform="translate(369 534.4) scale(.5)" xlink:href="pdp_4-4.png"/>
      </g>
    </g>
  </g>
</svg>