<?xml version="1.0" encoding="UTF-8"?>
<svg xmlns="http://www.w3.org/2000/svg" xmlns:xlink="http://www.w3.org/1999/xlink" version="1.1" viewBox="0 0 1659.1 1720.9">
  <defs>
    <style>
      .cls-1 {
        opacity: .3;
      }
    </style>
  </defs>
  <!-- Generator: Adobe Illustrator 28.7.3, SVG Export Plug-In . SVG Version: 1.2.0 Build 164)  -->
  <g>
    <g id="Contours">
      <path d="M734.6,355.3c2.2,2.6,3.8,5.1,5.9,7.1,5.4,5.4,9.8,11.7,14.9,17.3,9.1,10,19.4,18.9,29.2,28.3,9.2,8.8,18.2,17.7,27.7,26.3,7.7,6.9,15.8,13.3,23.7,19.9.8.6,1.7,1.2,2.7,1.4.6.1,1.3-.6,2-.9-2-2.5.6-5.1-.2-8-.8-3-.2-6.4-.1-9.6,0-1.7.8-3.7.2-5-2-4.5,0-8.2,1.4-12.2.7-2.1.9-4.4,1.4-6.6.2-.7.6-1.4.9-2,.7.4,1.8.6,2.1,1.2.9,2.2,2.3,3.1,4.7,2.8,3.1-.4,4.7,1.8,5.3,4.4.6,2.7-.5,4.4-3.4,5-1.5.4-2.8,1.6-4.3,2.3-2.6,1.2-3.2,2.7-2.9,5.9.7,8.2.3,16.5.2,24.8,0,3.5,1.1,5.8,4,8.2,4.9,4,9.3,8.5,14.7,12,3,1.9,6.1,2.2,8.4,1,8.4-4.6,17.6-7,26.6-10.1,3.1-1.1,7-1.7,6.6-6.4-.3-3.3,1-6.6-2.2-9.6-3.5-3.3-1.8-11.5,2.4-13.9.8-.4,1.4-1.9,2.9-.3,3,3.3,4.7,6.9,3.3,11.3-1.2,3.8.8,7.6,0,11.3,1.7.2,3.5,1,4.9.6,3.7-1.1,7.2-2.7,10.7-4,11.1-4.3,22-8.9,32.7-14.2,7.5-3.8,15.5-6.6,23.3-10,1-.4,1.8-1.4,2.7-2.1-.8-.6-1.6-1.5-2.5-1.7-10.1-2.6-18-9.3-26.6-14.5-9.6-5.8-19.1-11.9-28.4-18.3-7.5-5.2-14.6-11-22.1-16.2-4.1-2.8-7-7.2-12.1-8.5-.4,0-.7-.5-1-.8-7.5-6.6-15.1-13.1-22.4-19.9-10.4-9.7-20.7-19.5-30.9-29.6-7.3-7.2-14.2-14.8-21.1-22.4-6.3-6.9-12.8-13.7-18.4-21.1-7.8-10.2-16.6-19.6-24.5-29.7-2.5-3.2-4.3-7.4-5.2-11.5-.9-4.2-2.8-3-5-2-8.8,4.3-18.4,6-27.7,8.8-7.2,2.2-14.6,3.7-22,5.3-3.5.7-7,1-10.6,1.3-5.3.5-10.5.9-15.8,1.3-1,0-2.2.2-2.9.8-2.1,1.5-2.9-.4-3.5-1.4-.3-.6.6-2.5,1.4-3,1.5-.9,3.4-1.4,5.2-1.6,7.7-1,15.4-1.4,23.1-2.8,8.4-1.5,17-2.5,25-5.8,3.2-1.3,6.8-1.4,10.1-2.4,8.8-2.9,17.6-5.9,26.2-9.2,10.9-4.1,21.7-8.6,32.5-12.9,7.5-3,15-5.8,22.5-8.8,5.8-2.3,11.4-5,17.2-7.4,8.7-3.7,17.7-6.8,26.1-11,10.3-5.1,20.2-11.2,30.3-16.7,5.8-3.2,11.9-6,17.7-9.4,11.8-6.8,24.4-12,35.5-20.1,6.2-4.5,13.5-7.4,20.1-11.3,10.9-6.3,21.8-12.6,32.4-19.4,17.4-11.2,34.7-22.6,51.8-34.2,11.3-7.6,22.2-15.7,33.4-23.5,5.4-3.8,10.9-7.3,16.3-11.1,1.9-1.4,3.2-3.5,5.1-4.9,1.9-1.4,4.4-3.4,6.2-3,3.5.7,3.7,5.3.3,7.3-8.5,5.1-16.1,11.4-24.2,17-6.9,4.8-13.8,9.7-20.8,14.4-10.6,7-21.3,13.9-31.8,20.9-8.9,5.9-17.7,12-26.6,17.9-3.7,2.5-7.6,4.7-11.5,6.9-5.1,2.9-10.4,5.4-15.4,8.4-13.8,8.4-27.3,17.1-41.2,25.3-9,5.3-18.6,9.7-27.9,14.7-5,2.7-9.6,6.2-14.8,8.4-10.8,4.6-20.3,11.8-31.1,16.4-13.5,5.8-26.9,11.8-40.5,17.4-15.8,6.5-31.7,12.8-47.7,18.9-4.5,1.7-9.1,3.2-13.5,5.3-2.2,1.1-.7,1.1-.6,2.2.3,2.9,1.6,5,3.3,7.2,8.4,10.4,16.7,21,25,31.4.5.7,1.2,1.2,1.8,1.9,10.8,11.6,21.5,23.4,32.4,34.9,5.5,5.8,11.3,11.4,17,17,6,6,12,12,18,18,8.3,8.4,17.6,15.6,27.4,22.2,4.5,3.1,8.5,6.8,12.8,10.1,8.5,6.3,16.9,12.6,25.6,18.5,11.7,7.9,23.5,15.6,35.6,22.9,6.4,3.8,13.3,6.8,20.2,9.6,1.6.7,4.2-.1,6.1-.9,15.4-5.9,30.4-12.8,46.3-17.5,7.9-2.4,15.7-5.3,23.6-7.5,10.4-2.9,20.1-7.3,29.7-11.9,18.4-8.7,36.7-17.5,55.1-26.3,5.1-2.4,10.1-5,15.1-7.7,1-.5,1.6-1.8,2.3-2.7-1.1-.4-2.1-.7-3.2-1.1-5.1-2-10.2-3.8-15.2-6-6.5-2.8-12.9-5.7-19.2-8.8-15.6-7.6-31.2-15.2-46.5-23.2-8.8-4.6-16.9-10.8-25.9-14.9-10.7-4.9-19.7-12.1-29.9-17.7-15.6-8.6-30.7-17.9-45-28.5-9.5-7-19.2-13.7-28.6-20.7-8.4-6.2-16.3-13.1-24.6-19.5-5-3.9-10.6-7.1-15.8-10.7-7-4.9-13.3-10.4-17-18.3-.5-1.1-.9-2.4-.6-3.5.2-.8,1.5-1.4,2.4-1.8.1,0,.9,1,1.3,1.6,5.8,8.4,13.4,14.9,21.8,20.6,8.2,5.6,16.1,11.7,24,17.7,9.8,7.4,18.8,16.2,29.4,22.3,10.1,5.8,18.6,13.7,28.4,19.7,6.2,3.8,12.7,7.3,18.9,11.1,8.5,5.3,17.3,10.1,25.4,16,5,3.6,11,5.9,16.5,8.9,19.8,11,39.6,21.9,60.2,31.3,15,6.8,29.3,15.3,45.5,19.6,4.9,1.3,8.8,1.1,12.9-1.7,6.6-4.5,13.1-9.2,20.1-13,11.7-6.4,24-11.4,36.6-15.8,1.7-.6,3.5-1.1,5.1-1.8,8.9-3.7,18-7.1,26.6-11.4,8-4,15.5-9,23.1-13.6.7-.4,1.2-1.3,1.9-1.8,1.5-1.1,3.2-2,4.7-3.1-2.2-.8-4.4-2.2-6.6-2.3-6.3-.2-11.9-3.2-18-4-10.8-1.4-20.4-6.7-30.8-9.3-6-1.5-11.6-4.4-17.4-6.7-6.5-2.6-13-5.5-19.6-7.8-7.9-2.6-15.1-6.9-22.8-9.5-9.1-3-16.5-9.5-26.1-11.2-12.7-8.1-27.3-12-40.2-19.6-6.5-3.8-13.7-6.6-19.3-11.9-1.1-1.1-2.8-1.5-4.2-2.4-4.2-2.6-8.4-5-12.4-7.9-4.1-2.9-7.6-6.8-12-8.9-6.5-3.1-11.1-8.6-17.1-12.3-2.4-1.5-4.8-3.1-7.2-4.6-8.2-5.3-15.3-11.8-22.4-18.5-4.5-4.2-9.2-8.2-13.6-12.5-1.4-1.3-1.6-3.8-2.9-5.3-1.8-2.1-1.8-3.9.4-5.3.4-.3,2.2,1.3,3.1,2.2,5.3,5.2,10.3,10.6,15.8,15.6,5.9,5.4,11.8,11,18.3,15.7,15,10.8,30.6,20.8,45.7,31.6,9.8,7,20,13.4,30.5,19.3,14.3,8,29.9,13,44.4,20.7,6.9,3.7,14.4,6.2,21.6,9.3,1.7.7,3.2,1.9,4.8,2.6,7.2,3.1,14.4,6.2,21.7,9.1,7.8,3.2,15.7,6.2,23.6,9.1,4.9,1.8,9.9,3.4,14.9,5,11.4,3.6,22.7,7.2,34.1,10.6,2.8.8,5.7,1,8.6,1.4,3.1.5,6.2.6,9.2,1.4,7,1.8,11.9-2.7,17.4-5.3,5.8-2.8,11.2-6.5,17.2-9,10.8-4.5,21.7-8.6,32.1-14,1.7-.9,3.8-1.2,5.7-1.7-1.3,1.7-2.4,3.7-4,5-7.1,5.7-15.9,7.9-23.8,11.8-6.8,3.4-14,6.2-21,9.2-1.1.5-2.5.6-3.3,1.4-1.3,1.2-2.3,2.9-3.5,4.3,1.4-.2,2.8-.5,4.2-.4,7.9.6,15.8-1.1,23.8.8,1.8.4,4.4-1.7,6.6.5,2.1-2.5,4.9-1.4,7.3-1.2,22.9,1.7,45.8,1.2,68.7,1.2,3.3,0,6.6-.8,9.9-1.2,10.1-1.3,19.9-4.6,30.4-4.1,4.5.2,9.1-1.9,13.7-3,1-.2,2-.7,3-.6,7.8.4,15.3-2.1,22.9-3.2,2.2-.3,3.6.5,4,1.8.4,1.4,1.4,4.1-2,4.2-.9,0-1.8.9-2.8,1-8.4,1.4-16.7,2.8-25.2,3.9-8.1,1.1-16.3,1.6-24.4,2.7-5.3.7-10.5,2-15.8,2.9-4.5.8-8.9,2.1-13.4,2.2-15,.3-30,.3-45.1,0-12.7-.2-25.3-.8-38-1.2-4.4-.1-8.9.2-13.3,0-4.8-.2-9.6,0-14.4,0-2,0-4-.8-6-1.1-5.7-1.1-10.1,2.1-14.1,5-10.2,7.2-20.5,14-32.1,18.8-11.3,4.7-22.7,9.3-34,14-11,4.6-22,9.1-32.2,15.3-5.9,3.6-11.5,7.7-17.7,10.8-1,.5-1.7,1.7-2.5,2.5,1.2.9,2.4,2.4,3.7,2.5,4,.3,8,0,11.3,2.7,8.9-.4,16.5,4.4,24.7,6.7,14.5,4.2,28.7,9.5,43.1,14.1,6.6,2.1,13.3,3.7,20,5.2,6.8,1.5,14,1.9,20.5,4.2,5.3,1.8,10.1,1.4,14.5-.5,16.1-7.1,33.1-11.6,49.5-17.7,9.6-3.6,20.3-4.7,29.9-8.4,11.3-4.4,23-7.6,34.4-11.4,11.9-4,24.1-7.1,36.1-10.6,7.4-2.1,14.7-4.6,22.1-6.4,4.6-1.1,6.8-3.8,8.3-8,2.9-7.9,6.6-15.6,9.5-23.5,3.7-10,7.1-20.1,10.5-30.3,1.9-5.8,3.3-11.7,5.3-17.4,2.1-5.9,4.7-11.6,6.8-17.4,1.1-3.1,1.6-6.3,2.3-9.5,1.7-8,3.5-16,5.2-24,.3-1.6.8-3.8-2.2-3.3-2,.3-4,.8-6.1,1.1-3.3.5-6.6,1-9.8,1.5-4.9.7-9.8,1.6-14.8,2.2-1.7.2-3.4-.8-5.2-.8-12.9-.5-25.8-1.1-38.6-1.2-7.7,0-15.5.4-23.2,1.3-9,1-17.8-.1-26.7-1.3-5.6-.7-11.3-.3-17,0-10.2.5-19.9-1.5-29.8-3.9-4-1-8.4-.7-12.5-1.4-9.7-1.7-19.6-3.5-29.3-4.7-12.2-1.6-23.1-7-34.8-9.2-9.9-1.9-19.1-5.5-28.7-7.9-6.9-1.8-14.1-2.8-21.1-4.3-2-.4-3.9-1.1-5.8-1.8-10-3.8-19.9-7.6-29.8-11.6-8.1-3.2-15.7-7.3-23.4-11.3-11.3-5.7-23.1-10.4-34.6-15.9-5.8-2.8-11.2-6.6-16.9-9.7-3-1.6-6.1-3.3-9.4-4.1-5.4-1.3-9.4-4.7-13.9-7.4-2.7-1.7-6-2.3-8.9-3.8-6.3-3.3-12.6-6.5-18.6-10.2-3.2-2-5.8-5-8.5-7.8-.6-.7-.3-2.3-.5-3.5,1.3.2,3.2,0,3.9.7,6.7,7.1,15.7,10.6,24.1,14.5,10.1,4.6,19.3,10.8,29.8,14.8,10.7,4.1,20.4,10.7,30.7,15.8,6.5,3.2,13.3,5.6,19.9,8.7,3.8,1.8,7.2,4.7,11.1,6.4,11.9,5,23.8,9.7,35.8,14.4,4.1,1.6,8.8,2.2,12.5,4.4,4.8,2.8,10.2,3.6,15.1,4.4,10.2,1.7,19.5,5.9,29.7,7.5,11.1,1.7,21.3,6.5,31.9,9.6,3.6,1,7.4,1.2,11.1,1.6,9.1,1,17.9,3.5,27.1,4.3,9,.8,18,2.7,27.1,3.8,7.4.9,14.7,1.4,22.2,1.1,3.5-.1,7,.8,10.6,1.2,3.3.4,6.7.7,9.9,1,5.8.5,11.9,1.9,17.8-.9,1.2-.6,3,0,4.5,0,16.5,0,33.1,0,49.6,0,3.1,0,6.2,1.4,9.2,1.1,10.3-1,20.9-.9,30.9-4.2,2.2-.7,5.2-.7,6.6-2.1,1.5-1.5,1.7-4.4,2.3-6.8,1.5-6.6,2.9-13.2,4.5-19.7,1.3-5.5,2.4-11.2,4.5-16.4,2-5.1,2.1-10.4,3.3-15.6.7-3,1-6.2,1.3-9.2.3-3-1.1-4.1-4.1-4.2-6.6-.2-13.3,0-19.7-1.5-6.6-1.5-13.2-.9-19.8-1-5,0-10.1,1.5-15.1,1.1-18.1-1.5-36.2-.5-54.3-1.5-7.2-.4-14.6.1-21.6-1.3-6.9-1.4-14-.5-20.7-3.4-4.2-1.8-9.5-1.4-14.4-1.5-9.6-.3-19-2-28.4-3.9-4.1-.8-8.4-.8-12.5-1.4-5.5-.8-10.9-2-16.4-3-6.3-1.2-12.6-2.2-18.8-3.5-7.6-1.6-15.1-3.4-22.6-5.3-4.7-1.2-9.4-2.6-14.1-3.8-8.9-2.2-17.8-4.2-26.7-6.6-6.2-1.7-12.4-3.7-18.5-5.8-15.8-5.4-31.7-10.6-47.4-16.6-6-2.3-11.7-5.6-18.3-6.4-11.5-7.7-26-9.7-36.3-19.8-2.6-2.6-6-4.3-6.6-8.3-.1-1,.3-2,.5-3,1.2.2,2.7,0,3.5.7,3.5,2.8,6.6,6,10.2,8.7,9.2,7.2,19.9,12,30.6,15.9,17.6,6.4,34.9,13.7,52.9,19.1,8.3,2.5,16.2,6.3,24.4,8.8,7.4,2.3,15.1,3.6,22.6,5.5,5.9,1.5,11.7,3.4,17.6,4.7,7,1.6,14,2.9,21.1,4.4,8.8,1.8,17.7,3.6,26.5,5.4,4.2.8,8.5,1.6,12.7,2.5,1.4.3,2.7,1,4.1,1.2,6.8,1,13.6,1.8,20.4,2.7,5.5.8,11,1.8,16.6,2.6,1.5.2,3.1,0,4.6,0,8.9.8,17.9,1.2,26.5,3.9.6.2,1.3,0,2,0,10.1.4,20.1.7,30.2,1.4,5,.3,10.1-.5,14.8.2,15.1,2.1,30.2.5,45.2,1,2.4,0,4.8.6,7.4-1,1.6-1,4.5.1,6.8.4.8,0,1.5.7,2.3.7,9.2.5,18.4.8,27.5,1.4,3.2.2,5.2-.7,6.2-3.9.5-1.7,1.3-3.4,2.3-4.9.5-.8,1.9-1.8,2.5-1.6,1,.4,2.1,1.6,2.3,2.6.4,1.9.4,3.9,0,5.9-1,5.9-2.2,11.7-3.3,17.6-.2,1-.6,2-.6,3,.1,7.8-2,15-4.8,22.2-1.8,4.7-1.7,10.1-3.2,15-1.5,5.1-.7,10.6-3.6,15.5-1.1,1.8-1.1,5.2,2.6,6.6,1.6.6,3.2,2.4,2.4,4.7-.3.8-.9,1.9-1.5,2.1-2,.4-4.6-.8-5.8,1.7-1.3,2.7-2.8,5.6-3,8.5-.4,6.3-2.1,12.1-3.7,18.1-1.2,4.5-1.2,9.4-2.9,13.8-.4.9-.7,1.9-1.1,2.8-2.9,6.8-6,13.6-8.7,20.6-1.4,3.6-2.6,7.3-3.2,11.1-2.4,15.4-8.5,29.5-15.7,43.2-1.4,2.8-1.7,6.1-2.5,9.2,2.8-.8,5.8-1.2,8.4-2.3,13.1-5.7,27.1-8.3,40.9-11.6,5.1-1.2,9.8-3.7,14.9-5.1,10.2-2.8,20.4-5.5,30.7-7.9,12.5-2.9,24.9-5.9,37-9.9,8.6-2.9,17.8-4.3,26.4-7.2,11.4-3.8,23.2-5.6,34.6-9.4,7.9-2.6,16.2-4,24.2-6.2,4.7-1.3,9.2-2.9,13.8-4.5,12.7-4.5,25.4-9.1,38.1-13.7,6.4-2.3,12.8-4.7,19.3-7,19.5-7,39.1-13.8,58.6-20.8,10.1-3.7,20.3-6.7,30.6-9.8,12.6-3.7,24.8-8.5,37.3-12.3,13.4-4.1,26.9-7.7,40.3-11.5,4.9-1.4,9.9-2.5,14.5-4.5,1.9-.8,2.5-.3,3.8.5,2.3,1.5,2.5,2.6.3,4-5,3-10.3,4.5-16.1,5.4-6.8,1-13.4,3.3-20.1,5.1-6.3,1.7-12.5,3.4-18.7,5.2-5.8,1.7-11.8,3.1-17.4,5.3-12.8,5.2-25.9,8.9-39,13-11.7,3.7-23.2,8.2-34.7,12.3-15.4,5.5-30.8,10.9-46.1,16.4-2.8,1-5.8,1.8-8.5,3.1-11.2,5.2-23.2,8.1-34.7,12.5-6.8,2.6-13.8,4.6-20.8,6.6-8.2,2.3-16.5,4.4-24.7,6.6-6.3,1.7-12.5,3.5-18.7,5.2-9.6,2.6-19.2,5.1-28.7,7.9-12.6,3.7-25.1,7.8-37.7,11.5-4.5,1.3-9.2,2.5-13.9,2.7-6.5.3-12.1,3.6-18.3,4.8-16.3,3.2-31.7,10-47.9,13.4-8.2,1.7-15.9,4.9-24,6.9-3.6.9-6.2,3.6-8.1,7.2-4.9,9.4-7.4,19.6-11.4,29.2-4.1,9.9-7.6,20-13.8,28.9-.4.6-.7,1.5-.9,2.2-.2.9-.3,1.8-.4,2.7.7-.2,1.5-.3,2.2-.6,3.9-1.7,7.7-3.4,11.6-5.1.2,0,.3-.4.5-.4,2.5-.9,7.4.3,6.9,1.3-1,1.9-2.5,4.1-4.4,4.9-5.9,2.5-12,4.7-18.2,6.6-3.5,1-6,3-6.9,6.2-2.1,7.6-6.9,13.7-10.4,20.5-.7,1.3-1.8,2.3-2.2,3.7-.4,1,0,2.3,0,3.5,1,0,2.2.2,3.1-.2,7-3,14.1-6,21-9.2,7.7-3.6,15.3-7.3,23.8-8.8,2.7-.5,5.1-2.1,8-2.8,8.5-1.9,16.5-5.5,25-7.2,10.8-2.1,20.7-6.9,31.3-9.7,8.2-2.2,16.1-5.3,24.1-8,6.7-2.3,13.3-4.7,20-6.9,2.1-.7,4.5-.7,6.6-1.5,4.5-1.7,9-3.6,13.3-5.7,11.6-5.8,23.6-10.4,35.8-14.4,5.7-1.8,11.4-4,16.8-6.7,10.9-5.3,22.5-8.8,33.9-12.6,3.9-1.3,7.5-3.2,11-4.9,11.8-5.8,24.1-10.1,36.3-14.9,6.5-2.6,13.2-5.1,19.5-8.2,11.2-5.5,23-9.6,34.7-14.1,8.8-3.4,17.5-7.1,26.4-10.3,7.4-2.6,14.9-5.2,22.7-6.8,7.5-1.6,15-3.7,22-6.8,13.5-5.9,27.5-10.5,41.4-15.2,18-6.2,36.5-10.9,54.8-16.1,4.7-1.3,9.5-2.1,14.2-3.4,15.6-4.3,31.3-8.3,46.6-13.7,7.6-2.7,15.2-5.4,22.7-8.3,2.7-1.1,3.4.4,4.6,2.3,1.9,3.1-1.3,2.7-2.2,3.1-6.1,2.5-12.4,4.9-18.6,7-7.6,2.6-15.3,5.1-23.1,7.4-4.5,1.3-9.1,2.2-13.6,3.4-3.5.9-6.8,2.4-10.6,2.9-5.9.8-11.6,3.3-17.5,4.9-9,2.4-18.3,4.2-27.2,7-17,5.3-33.8,10.9-50.6,16.7-7,2.4-13.6,6.1-20.6,8.6-7.6,2.7-15.4,5.2-23.2,6.9-9.2,2-17.7,5.6-26.4,8.8-8.1,3-16,6.7-24.6,8.5-5,1.1-9.7,3.9-14.5,5.9-17.2,7.2-34.5,14.4-51.7,21.7-9.3,3.9-18.4,8.2-27.7,11.9-6.7,2.7-13.7,4.7-20.5,7.3-9.8,3.8-19.4,7.9-29.1,11.7-6.9,2.7-13.9,5.2-20.9,7.9-4.5,1.7-9.1,3.3-13.5,5.3-6.8,3-13.5,6.3-20.2,9.5-.9.4-1.9.7-2.9.9-2.4.5-5,.6-7.3,1.4-11.6,4.1-23.1,8.5-34.7,12.4-7.8,2.7-15.9,4.7-23.8,7.1-17,5.3-34.2,10-51.5,14.5-6.5,1.7-12.4,5.7-18.7,8.4-8,3.4-16,6.6-24.1,9.7-3.4,1.3-6.2,2.8-7.7,6.4-5.3,12.3-12.2,23.7-19.1,35.2-3,5.1-6.9,9.7-9.9,14.8-6.2,10.4-16,18-21.5,29-1.7,3.5-4.8,6.4-7.7,9.2-5.5,5.3-10.1,11.3-14.8,17.4-2.6,3.3-6.3,5.6-9.5,8.4-2.6,2.3-2.5,4.1.7,5,8.2,2.4,15.8,6.1,23.1,10.5,1.4.9,2.9,1.7,4,2.9,1.7,1.8,1.5,1.8,3.1-.5.4-.5,1.2-.9,1.9-1.1,1.8-.5,3.5-1.1,5.3-1.3,1.1,0,2.5.3,3.5.9,2.3,1.6,3.3,8.3,1.9,10.6-1.1,1.7-4.2,2.1-6.2.7-4.6-3.2-4.5-3.1-8.7-.3-1,.7-2.9,1.1-3.9.6-8.9-3.8-17.6-7.9-26.4-11.9-2.9-1.4-6-4.6-8.5-4.1-3.1.6-5.6,4.2-8.3,6.5-10.1,8.8-20.2,17.5-30.2,26.3-4,3.5-7.9,7.1-11.9,10.6-10.7,9.4-21.4,18.8-32.1,28.2-2.3,2-2.1,4.1-.8,6.7.9,1.7,1,3.8,1.4,5.7-2.1.1-4.3.7-6.4.3-4.7-1-9.3-2.7-14.1-3.8-10.1-2.3-19.6-7.2-29.6-8.7-8.6-1.3-16.7-4.4-25.2-5.8-5-.8-9.8-2.5-14.7-3.8-11.2-3-22.3-6.1-33.4-9.1-7.6-2.1-15.2-4.5-23-6-9-1.8-17.6-4.7-26-8.3-5.7-2.4-11.6-4.5-17.5-6.6-3.1-1.1-6.3-2.6-9.3-2.4-4.9.3-8.8-2.3-13.1-3.5-3.1-.8-4.9.4-5.4,1.8-1,2.8.9,4.2,4,4.1.9,0,2,.5,2.8,1.1,5.3,3.6,11.3,5.3,17.5,6.7,5.9,1.4,9.5,6.5,14.4,9.4,3.5,2.1,6.9,4.3,10.5,6.2,2.5,1.3,5.6,1.6,7.8,3.1,9.6,6.6,21.2,8.8,31.4,14,4.7,2.4,9.1,5.5,13.4,8.6,3.7,2.8,7.2,6,10.5,9.3.5.5,3.6-.8,1.6,1.7-.5.6-2,1.2-2.6.9-3.1-1.5-6.3-2.9-9-5.1-8.5-6.8-18.2-11.5-28.2-15.5-6.2-2.5-12.7-3.9-18.4-7.8-2.7-1.9-6.4-2.5-9.4-4.1-3.6-1.9-7.2-3.9-10.4-6.3-6.7-5.1-13.8-9.7-21.9-11.7-7.1-1.8-12.7-5.5-18.2-9.9-1.2-1-3.2-2.3-4.3-1.9-2.6,1-4.9,2.8-7.4,4.3.5.7.8,1.7,1.5,2,5.4,2.7,10.9,5.2,16.3,7.9,18.1,9.2,35.8,18.9,53.1,29.5,6.8,4.1,14.3,7.3,21.7,10.6,9.8,4.4,19.3,9.5,28.1,15.9,2.5,1.8,5.2,3.3,7.6,5.1.5.4.6,1.4.9,2.2-.8.2-2,.9-2.3.6-3.7-3.4-9.1-3.1-13.2-6.4-5-4.1-11.7-6.3-17.6-9.2-3.3-1.6-6.7-2.8-9.9-4.5-9.2-5.1-18.2-10.6-27.5-15.6-5.1-2.8-10.6-4.8-15.9-7.4-1.8-.9-3.1-2.9-5-3.8-9.5-4.9-19.1-9.7-28.6-14.4-5.6-2.8-11.2-5.5-16.9-8.1-.9-.4-2.2-.5-3.1-.1-7.4,3.3-14.6,6.7-21.9,10.1-1.1.5-2.2,1.2-3.2,1.8-1.8,1.3-2.5,2.7-.1,4.1,1.6.9,3.2,1.7,4.8,2.6,4.7,2.6,9.6,4.7,13.4,8.9,1.8,2,5,2.7,7.3,4.2,2.8,1.8,5.3,4,7.9,6.1.4.3.6,1.6.3,1.7-.8.5-2.3,1.3-2.6,1-4.7-4.8-11.7-5.9-16.8-10-2.8-2.3-6.2-3.8-9.4-5.6-2.3-1.3-4.6-2.6-7-3.7-1.2-.5-2.5-.6-3.8-.8,0,2.1-3.2,3.9-.6,6.2,1.3,1.2,2.3,2.9,3.7,3.6,6.1,2.8,11,7.3,16.3,11.1,2.6,1.8,5.9,2.5,8.8,3.8,7.5,3.5,14.9,7.1,22.4,10.6,1.5.7,2.9,1.9,4.4,1.9,2.3,0,2.8,1.4,2.1,2.8-.3.7-2.4,1.2-3.4.8-5.5-1.9-11-3.9-16.4-6.1-6.2-2.5-12.3-4.9-18.3-7.9-3.5-1.7-6.5-4.4-9.7-6.7-4.5-3.2-8.9-6.7-13.7-9.6-4.5-2.8-8.3-6.4-13.8-7.6-6.5-1.4-8-.9-8.2,5.5,0,1.5,0,3.1,0,4.6-.2,2.7.9,3.8,3.4,5.2,5.2,2.9,9.9,6.8,14.6,10.5,4.8,3.7,9.5,7.6,14.2,11.5,5.6,4.7,12.5,6.6,18.9,9.5,14.4,6.5,27.2,15.9,41.7,22.4,5.9,2.6,12.3,4.8,17.2,8.7,7.7,6,16.8,9.1,25.1,13.8,6.4,3.7,13.8,5.7,20.1,9.6,9.1,5.6,19.8,6.8,29.2,11.6,4.4,2.2,9,4.2,12.3,8.1.4.5.1,1.4.2,2.2-.6,0-1.4.3-1.7,0-5.7-4.4-13-5.5-19.3-8.6-3.8-1.8-8-2.8-12-4.1-.4-.1-.8,0-1.3,0,0,.5,0,1.1.3,1.4,4.7,5.2,10.1,9.1,16.7,11.7,2.5,1,6.2,1.5,6,5.7,0,1.3.4,1.7-1.8,1.2-8.1-1.8-14.7-6.2-20.9-11-7.1-5.5-14.9-8.9-23.3-11.7-6.7-2.3-13.3-4.8-19.7-7.6-6.8-3-13.4-6.5-20.2-9.6-4.4-2-8.8-3.9-13.4-5.5-6.2-2.3-11-6.8-17.1-9.3-9.6-4-19.2-8.2-28.9-12.3-1.5-.6-3.2-.8-4.6-1.6-10.9-6.4-21.4-13.5-32.6-19.2-8.1-4.1-13.5-11.1-20.8-15.9-2.6-1.7-4.9-4-7.8-4.9-2.2-.7-2.3-1.8-1.9-3.1.5-1.8,1.9-2.7,3.9-2.4.4,0,.7.4,1.1.5,1.9.7,4,2.2,5.6,1.9,1.8-.4,3.2-2.6,4.7-4.1.3-.3.3-1.5,0-1.7-1.9-1.2-4.3-1.8-5.7-3.4-2.4-2.6-3.7.3-5.5.6-7.6,1.5-13.6,6.8-21.4,8.4-5.4,1.1-10.8,3.6-15.6,6.4-8.8,5.2-18.9,6.9-28.2,10.9-7.6,3.2-15.4,6-23.1,8.9-13,4.9-26,9.7-39,14.7-7.7,2.9-15.3,6.1-23,9.1-10.3,4-20.7,8-31.1,11.7-6.3,2.3-12.8,3.9-19,6.1-7.8,2.7-15.5,5.7-23.2,8.7-17.4,6.9-34.5,14.5-51.2,23.1-6.6,3.4-13.2,7-20,10-5.9,2.6-12.4,3.6-18.1,6.8-1.1.6-3.3-.6-5.1-1,1.2-1,2.2-2.2,3.5-3,11.6-7.5,24.7-11.8,36.9-18.1,7.2-3.7,14.4-7.2,21.8-10.6,7.9-3.6,15.8-7,23.8-10.3,7.8-3.2,15.7-6.2,23.6-9.1,4.7-1.7,9.6-3,14.4-4.6,7.4-2.5,14.9-5,22.2-7.9,14.5-5.6,28.7-11.8,43.3-16.9,10.1-3.5,20.1-7.3,30-11.2,5.4-2.1,10.9-4.2,16.2-6.5,8.5-3.7,17-7.4,26.2-9.2,4.3-.9,8.4-2.9,12.4-4.6,7.8-3.3,15.4-6.9,23.3-10.1,5.8-2.3,11.8-4,17.7-6.1.7-.3,1.3-1.2,1.9-1.8-.7-.3-1.4-.4-2-.8-4-2.3-8.2-4.6-12.1-7.1-6.5-4.2-13.3-7.7-20.6-10.2-3.8-1.4-7.1-1.1-10.8.3-6.6,2.5-13.4,4.4-20.1,6.6-6.3,2.2-12.4,4.7-18.8,6.7-8.9,2.8-18,5-26.9,7.7-4.6,1.4-9.1,3.4-13.5,5.3-12.7,5.6-25.3,11.3-38,17.1-1.2.5-2.4,1.5-3,2.5-1.3,2.7,1.7,2.6,2.8,3.2,6.3,3.3,11,9.3,18.3,11.1,3.5.9,4,5.7,1.2,8.2-.6.5-2.1.6-2.6.2-3-2.6-6.6-3.4-10.4-3.3-2.6,0-3.8-.8-4.2-3.6-.5-4-3-6.4-6.9-6.8-2.6-.2-4.6-.9-6.9-2.5-2.5-1.8-5.7-2.1-9.3-.4-13.7,6.6-28.4,10.4-42.9,14.6-3.7,1.1-7.1,2.9-10.7,4.2-9,3-18,6-27,8.8-12.7,3.9-25,9.1-37,14.7-4.3,2-8.8,3-12.4,6.8-1.4,1.5-5.3.6-8,.8.1-.6,0-1.6.4-1.7,2.6-.9,3.2-2.8,2.8-5.3-.1-.9-.4-2.3,0-2.5,4.2-2.8-.7-7.5,2.3-10.5,0,0-.3-.9-.4-.8-.6,0-1.7.2-1.7.4-.2,2.1-3.3,3.7-.8,6.3,1.3,1.2.7,2.2-1.1,2.4-3.7.4-6.3-1.5-7.5-6.2-2.5-9.8-6.5-19.1-10.4-28.4-1.4-3.3-2.5-6.8-4-10.1-1.8-3.9-3.5-4.6-7.7-3.2-2.8,1-5.6,2.2-8.4,3.4-12.9,5.2-25.7,10.4-38.6,15.7-1.9.8-3.5,2.1-5.3,3-.7.4-1.5.5-2.2.8-.2-.8-.7-1.7-.5-2.4.7-1.7,1.3-3.9,2.7-4.7,4.7-2.7,9.6-5,14.6-7.2,9.2-4,18.5-7.9,27.8-11.8,2.4-1,4.9-1.8,7.4-2.6,4.7-1.6,5.1-2.3,2.9-6.6-4.1-8.1-8.6-16-12.2-24.3-3.5-7.9-5.7-16.4-9.5-24.1-1.8-3.7.4-5.8.7-8.7,0-.8,1.5-2.4,2.6-.4,2,3.5,4.1,7,6,10.6,1.5,2.9,3,5.8,3.8,8.8.8,3,2.8,1,4.1,1.5.1,0,1.1-1.5,1.1-2.3.2-4-.9-7.7-2.4-11.4-1.4-3.5-2.1-7.5-2.7-11.3-.3-2.2,1.8-3.2,3.6-1.9,3.5,2.6,5.4,6.3,6.7,10.3,3.6,10.9,6.9,22,10.5,32.9,1.9,5.5,4.4,10.8,6.4,16.3.7,1.8,1.1,1.7,2.6,1,3.6-1.7,7.5-3,11.1-4.7,9.6-4.6,20.4-6.5,29.5-12.3,1.5-.9,3.5-.9,5.3-1.5,8.3-3,16.5-6.7,25-9,7.8-2.1,14.3-6.6,21.5-9.7,7-3,14.4-5.2,21.7-7.6,11.3-3.7,22.8-7,34-10.9,10.1-3.5,19.9-7.6,29.9-11.3,5.5-2,11.1-3.8,16.6-5.7.5-.2,1.3-.5,1.4-.9.7-3.8,3.6-2.8,6-3,1.7-.1,4.7.8,2.3-2.8.6-.4,1.5-1.2,1.7-1.1,2.1,1.4,4.1.8,6.2,0,8.6-3.5,17.7-5.5,25.9-10,3.5-1.9,5-3.8,4.9-7.8-.2-9.6-.2-19.2,0-28.7.2-6.6-.1-13.1.9-19.8,1-6.6-.3-13.5-1.1-20.3-.3-2.5-2.1-4.6-5.3-3.6-5.4,1.7-11,3-16.1,5.4-4.2,2-4,6.9-4.7,11-2.6,15.7-.5,31.4-1.4,47.1-.4,6.9-1.6,13.7-2.6,20.5-.1.8-1.3,1.4-2,2.1-.6-.8-1.8-1.7-1.7-2.5.1-4,.5-8,.9-12,.1-1.7.3-3.4.3-5.1,0-15.9,0-31.8,0-47.7,0-2,.8-4.1.9-6.1,0-.9-.3-2-.9-2.6-.3-.3-1.5.1-2.3.4-9.2,3.5-18.5,6.9-27.7,10.5-7.1,2.8-14.1,6-21.3,8.5-11.4,4-22.7,8.1-33.9,12.8-9.1,3.8-18,8.2-27.8,10.1-5.9,1.2-11.7,3.3-17.4,5.1-2.3.7-4.5,1.9-6.8,2.6-10.3,3-19.9,7.8-29.8,11.6-4.3,1.6-8.3,4.1-13.3,4.3-3.4.1-6.7,2.5-10.1,3.9-8.3,3.5-16.7,7-25,10.6-6.3,2.7-12.4,5.8-18.8,8.2-2.8,1.1-6,.8-7.3,4.5-.3.7-2.5,1.1-3.8,1-1.8-.1-3.5-.8-5.3-1.3.4-.6.6-1.5,1.2-1.8,5.8-3.3,11.5-6.8,17.6-9.5,6.6-3,13.5-5.3,20.2-7.9,6.2-2.4,12.3-5,18.5-7.5,6.3-2.6,12.6-5.5,19.3-7,2.7-.6,5.3-2,7.8-3.2,12.9-6.3,26.6-10.4,40.1-15.2,3.4-1.2,7.1-1.8,10.6-2.8,12.6-3.8,24.5-9.3,36.8-13.7,8.9-3.2,17.2-7.9,26.8-9.6,6.8-1.2,13.3-4.6,19.6-7.7,9.3-4.5,18.8-8.4,28.5-11.6,6.4-2.2,7.4-3.4,7.5-10.2,0-3.7-.3-7.4,0-11.1.6-5.9-2.4-9-7.2-11.4-2.2-1.1-4.1-2.8-6-4.5-13.2-12.3-26.1-24.9-39.7-36.8-5.9-5.2-12.4-9.6-17.7-15.4-6.9-7.4-14-14.6-20.7-22.1-8-9-15.9-18.2-23.6-27.5-6.9-8.4-13.5-17.1-20.4-25.5-5.4-6.5-11.1-12.8-16.6-19.3-6.8-8.1-12.9-16.6-18.1-25.8-1.1-2-2.8-3.6-4.1-5.5-.9-1.3-2-2.7-2.3-4.2-.3-1.2.5-2.7.8-4.1,1.3.9,3.1-1.3,4.6,1.8,3.1,6.2,7.5,11.7,11.5,17.5,5.2,7.6,10.4,15.1,16.8,21.8,4.3,4.6,8.1,9.7,11.9,14.6,2.2,2.8,3.9,5.9,6.2,8.5,6.3,7.4,12.9,14.7,19.6,22.3M1477.6,394.2c.3-.3.7-.6.9-.9,4.7-10.5,9.5-20.9,14.1-31.4,1-2.2,1.3-4.7,2.1-7,1.7-4.5,3.7-8.9,5.5-13.4.3-.9,0-2,0-3.1-.9.2-1.8.3-2.7.5-4,1.4-7.9,3.1-12,4.2-11.3,3.2-23,5-34.1,9.1-7.2,2.6-14.8,4.3-22.1,6.7-4.2,1.4-8,4.1-12.3,5-14.5,3.1-27.9,10.1-42.8,11.9-6.2,4.1-13.9,4-20.5,7.3-5,2.5-10.6,3.8-15.9,5.7-.7.2-1.3.6-1.9.9.6.2,1.2.4,1.8.5,3.5.5,7,1.3,10.6,1.2,8.7-.2,17.2,1.8,25.7,2.5,13.7,1,27.5,0,41.3,1.4,5,.5,10.1-1.1,15.1-1.1,13.5,0,27,.2,40.2-3.9,3.8-1.2,4.9-.1,5.7,3.8-8.5,3.8-17.6,5.9-26.7,6.3-16.9.7-33.9.3-50.9.1-2.4,0-5.2-1.8-7.2-1.1-4.8,1.7-9.3.2-14,0-8.6-.4-17.1-1.5-25.7-2.7-8-1.1-16.2-1-24.3-1.5-5.8-.4-10.9.7-16.1,3.8-4.6,2.7-10,4.2-14.9,6.6-8,3.8-16.6,6.2-24.6,10-13.1,6.3-26.9,10.7-40.4,16.1-14.6,5.8-29.8,10.1-44.6,15.3-10.5,3.6-20.8,7.6-31.1,11.5-1,.4-1.9,1.3-2.8,2,1,.8,1.9,1.9,3.1,2.5,2,1,4.3,1.4,6.2,2.4,9.8,5.3,19.3,11,29.3,16,9.8,4.9,18.9,10.8,27.1,18,2.8,2.4,6,4.7,9.9,4.2,3-.4,5.9-1.5,8.7-2.6,7.1-2.9,14-6.2,21.1-9,8-3.2,16.3-5.9,24.3-9.2,9.8-4.1,19.4-8.8,29.2-13,13.5-5.8,27.1-11.3,40.5-17.3,13.4-6,26.5-12.8,39.9-18.8,7.2-3.2,14.8-5.3,22.2-8,15.7-5.7,31.2-12.1,47.2-16.8,8.5-2.5,12.5-7.7,16-15M1096.8,610.4c3.9,1.5,7.9,3.1,11.8,4.6,5.1,1.8,10.3,3.7,15.5,5.2,6.4,1.9,12.9,3.5,19.4,5.3,6,1.7,12,3.6,18.1,5.2,9.2,2.4,18.6,4.4,27.8,7.1,9.4,2.7,18.8,5,28.3,7.2,8.1,1.9,16.4,3.2,24.3,6,5.9,2.1,11.8,4,17.9,5.7,1.4.4,3.6-.2,4.6-1.2,1.7-1.6-1.1-2-1.5-3.1-.3-.8-.7-1.5-.9-2.2-.5-1.6-1-3.3-1.4-4.9,1.5.9,3,1.8,4.5,2.8.5.4,1.2.8,1.4,1.4,1.2,4.3,3.9,2.2,5.7,1,2-1.3,3.3-3.4,5.2-5,11.2-9.6,22.6-19,33.8-28.7,5.8-5,11-10.9,17.1-15.5,8.9-6.7,16.8-14.4,24.7-22.3.4-.4.7-1.7.6-1.7-5.2-2.7-10.3-5.7-15.7-7.8-5.6-2.3-11.6-3.5-17.2-5.7-5.3-2-10.3-5.1-15.4-6.9-4.8-1.7-9.2-4.1-13.9-5.9-3.7-1.4-7.2-4.5-10.9-4.9-4.8-.6-6.8-5.5-11.5-5.6-2,0-3.1-3.9-1.9-5.9,1.2-1.9,2.5-2.3,4.6-.6,2.7,2.1,5.7,4.3,8.9,5.2,8.1,2.2,15,6.8,22.6,10,9.6,4.1,19.1,8.6,29.1,11.8.7.2,1.6-.3,2.4-.5-.5-.5-.8-1.2-1.4-1.6-6.2-3.9-12.3-8-18.7-11.6-4.7-2.7-10.1-4.2-14.6-7.1-5.1-3.3-11.2-3.4-16.4-6.2-6.8-3.7-13.8-5.1-21.3-2.5-.8.3-1.4,1.8-2.3.2-2.2-3.5-4.9-1.9-7.7-.8-3.7,1.6-7.5,2.9-11.2,4.4-9.8,3.8-19.6,7.3-29.2,11.4-7.4,3.2-14.3,7.5-21.7,10.7-4.3,1.9-7.5,4.5-9.3,8.6-1.4,3.3-2.6,4.1-6,2.2-2.8-1.6-5.7-2.4-9.4-.4-4,2.2-8.8,2.8-13.1,4.5-1,.4-3.4.4-3.1,3.1.3,2.8,2.2,1.2,3.3,1.7,1.1.5,2.1,1.2,3.2,1.8,7,4,14,8.1,21.2,12,10.1,5.5,20.3,10.8,30.5,16.2.6.3,1.2.6,1.8.9-.6.2-1.2.3-1.8.5-1,.2-2.5,1-3.1.6-2.5-1.6-4.7-.5-5.2,1.5-.6,2.6-2.1,1.9-3.3,1.7-1.6-.2-3.1-1-4.5-1.7-5.3-2.6-10.5-5.2-15.7-7.8-3.3-1.6-7-1.4-10.4-3.3-4.7-2.6-10.2-3.6-15.3-5.5-1.7-.6-3.1-2-4.4-3.3-.4-.4-.4-1.9,0-2.5.3-.5,1.6-.8,2.2-.6,4.3,1.2,8.8,2,12.7,4.1,9.6,5.2,20.3,8,29.4,14.1,1,.6,2.2.8,3.3,1.3-.7-1.1-1.5-2.1-2.1-3.2-1.5-3.1-4.8-3.6-7.3-4.3-3.7-1-6.6-2.9-9.8-4.8-7.5-4.5-15.1-8.5-22.9-12.5-5.2-2.7-10.9-5-16.7-3.6-5.6,1.4-10.8,4.3-16.3,6.3-7.9,2.9-14.4,8.7-23.4,9.9-5.5.7-10.6,4.6-15.9,7.1-.9.4-1.5,1.5-2.3,2.3,1.1.5,2.2,1.5,3.2,1.5,5.9,0,11.2,2.4,17.3,4.7M1162.7,450.4c11-4.4,22-9,33.1-13,17.8-6.3,35.8-12.3,53.4-19.3,10.4-4.2,20.8-8.6,31.4-12.5,8.3-3.1,16.4-6.7,24.6-10,.7-.3,1.2-.7,1.9-1.1-.7-.5-1.4-1.2-2.2-1.4-5.8-1.4-11.5-2.7-17.3-3.9-5.2-1.1-10.6-1.7-15.6-3.3-15.2-4.8-30.2-10.1-45.4-15-7.5-2.5-15.1-4.6-22.5-7.1-7.1-2.3-14.8-2.5-21.4-6.8-.9-.6-2.8,0-3.9.5-4.3,2.1-8.6,4.5-12.9,6.8-25,13.4-51.3,24.3-76.9,36.6-2.9,1.4-5.8,2.9-8.8,3.9-8.5,2.7-17,5.3-25.6,7.6-9.8,2.6-19.1,6.3-28.4,10.2-6.7,2.8-13.4,5.5-20.1,8.3-1.1.5-2.1,1.2-3.2,1.8.9.6,1.7,1.4,2.7,1.8,10.5,4.5,21.1,9.1,31.7,13.3,1.8.7,4.1.4,5.8-1.7,1.1-1.4,3.1-2.2,4.4-3.5,2-2,2.7,0,3.8,1,2,1.5-.2,2-.7,2.8-2.8,3.4-2.9,5-.1,6.7,1,.6,2.3.8,3.4,1.4,14.1,7.1,28.9,12.2,43.9,17,1.3.4,2.8,1.3,3.9.9,4.2-1.3,8.2-3.7,12.5-4.3,6.1-1,10.9-5.5,17.2-6,2.3-.2,5.7-2.1,4.6-6.2-.6-2.2-1.7-4.7-1.2-6.6,1.7-5.9.8-11.9,1.2-17.8,0-.6,1.1-1.2,1.8-1.8,2-1.8,4.3-2.3,6.2-.3,1.8,1.9,1,3.8,0,6.2-2.2,5.5-4.8,11-4.2,17.2.4,3.7,2.1,5.4,5.3,4.2,5.5-1.9,10.8-4.3,17.6-6.5M633,682.2c.4,2.7,1.2,5.3,1.2,8,0,3.6.9,6.9,2.4,10.1,2.5,5.6,4,11.6,4.2,17.8.1,4,1.3,5,4.8,3.6,3.4-1.4,6.5-3.4,9.9-4.5,8.3-2.6,15.5-7.7,24-10,6.2-1.6,12.4-3.7,18.6-5.5,9.5-2.7,18.6-6.5,27.9-9.7,9.2-3.1,18.4-6.1,27.5-9.2,4.2-1.4,8.4-2.8,12.5-4.6,1.5-.7,2.7-2.2,4-3.4-1.5-.8-3-1.8-4.5-2.5-2-.9-4.2-1.4-6.2-2.3-2.9-1.4-3.5-6.9-1-8.7.6-.4,2-.3,2.6,0,5,3.1,9.9,6.6,15,9.5,1.8,1,3.9,1.8,6.8.5,2.7-1.2,4.6-3.4,7.4-4.2,11.2-3,21-9.1,31.7-13.2,9.8-3.8,19.3-8,29.6-10.6,14.8-3.8,29.1-9.5,43.6-14.5,2.1-.7,4.2-1.4,6.2-2.3.7-.3,1.7-1.1,1.7-1.8,0-.5-.9-1.5-1.6-1.8-3.1-1.5-6.2-2.8-9.4-4.1-4.4-1.9-9.5-3-13.2-5.8-5.5-4.1-11.6-6.7-17.6-9.8-9.1-4.7-18.8-8.4-27.7-13.4-4-2.2-6.8-1.6-10.5,0-10.7,4.2-21.4,8.1-32.2,12-11.4,4.1-22.6,8.6-34.4,11.6-12.3,3.2-23.7,9.3-36.2,12-1.5.3-2.8,1.5-4.2,2.3-.3.2-.6.6-.8.9.4.2.7.5,1.1.6,2.1.2,4.5-.3,6.4.4,7.4,3.1,14.7,6.6,21.9,10.1,6.3,3.1,8,9.3,9.7,15.4.2.7-.9,2-1.7,2.4-.6.3-1.9-.3-2.6-.8-.5-.4-.6-1.5-.9-2.2-.3-.6-.8-1.2-1.1-1.8-.5.5-1,1-1.4,1.6-4.5,6.1-7.6,6.7-13.6,2.5-7.5-5.3-7.7-6.4-1.9-14,.4-.5.3-1.9,0-2.2-1.1-.9-2.4-1.6-3.7-2.1-4.3-1.8-8.8-3.1-12.8-5.4-3.6-2.1-6.4-2.4-9.7,0-1.1.8-2.7.9-4,1.4-10,3.7-19.9,7.6-30,11-8.6,2.9-16.4,7.7-25.3,10.1-6.1,1.6-11.8,5.2-17.7,7.6-2.6,1-3.4,2.6-2.4,4.9,2.1,4.6,4.6,9,7.5,14.1M1307.7,509.2c-3.1.9-6.2,1.8-9.3,2.8-.3,0-.6.8-.5,1,.2.5.6,1.3.9,1.3,1.7.1,3.5,0,5.2,0,3.9,0,7.8-.1,11.6.3,4.5.5,8.9,1.7,13.4,2.3,4.8.6,9.7.6,14.5,1.4,7.9,1.4,15.7,2.6,23.7,2.5,6.3,0,12.6-.1,18.9,0,3.9.1,7.4-.3,10.7-2.6,1-.7,2.5-.7,3.8-1-.3,1.8,0,3.9-1,5.2-1.1,1.6-3.2,3.2-5,3.4-5.9.8-12,2.1-17.7,1.1-6-1-11.9-.6-17.8-1-7.2-.5-14.4-.9-21.7-1.3-.4,0-.9.1-1.3,0-8.2-2.7-16.6-3.8-25.2-4-4.6,0-9.5,0-13.7-1.5-5.4-1.9-10.6-.9-15.9-.9-2.5,0-5.2,2-7.6,3.5-1.6,1-2,2.2.6,2.9,4.3,1.1,8.6,2.4,12.7,3.9,6.6,2.4,13.2,4.9,19.6,7.9,4.8,2.2,9.2,5.1,13.7,7.8,3.8,2.3,7.9,4.5,11.2,7.4,7.7,7,17,11.4,25.9,16.4,1.4.8,4.5.8,5.6-.2,5.6-5.1,11.1-10.4,16.2-16.1,6.9-7.7,13.3-15.8,19.9-23.7,1-1.3,1.9-2.7,2.8-4.1,3.1-4.4,5.8-9,9.3-13.1,9.3-11.1,17.1-23.1,24-35.8,1.5-2.7,3.5-5.1,5-7.7,2-3.5,3.8-7.1,5.5-10.8.2-.4-1.1-2.2-1.5-2.2-1.5.3-3.2.8-4.4,1.8-4.1,3.1-9.2,4-13.6,6.6-7.1,4.1-15,6.7-22.6,10-2.4,1-4.7,2.4-7,3.5-9.1,4.1-18.9,6.2-28.3,8.7-11.3,3.1-21.5,8.2-32.1,12.5-9.3,3.9-18.6,7.6-28.9,11.4M1459.3,429.5c2.5-4.6,4.9-9.3,7.4-13.9.3-.5.5-.9.8-1.4-.6-.1-1.3-.5-1.8-.3-3.3,1-6.5,2.3-9.7,3.3-12.2,3.7-23.7,9.2-35.7,13.2-10.2,3.4-20.5,6.1-30.1,10.9-3.1,1.5-6.3,2.8-9.4,4.1-4.1,1.7-8.3,3.2-12.2,5.1-6.9,3.3-13.6,7.2-20.5,10.4-13.2,6.1-26.4,12-39.7,17.7-14.2,6.1-28.7,11.7-43,17.7-.6.2-1.1,2-1,2.1,3.2,2.1,2.3,5.4,2.3,8.3,0,2.3.8,3.7,3.1,4,4.4.5,8.8,1,13.2,1.2,1.3,0,2.7-.7,4-1.2,4.5-1.7,9-3.5,13.5-5.2,10-3.7,20.3-6.8,30-11.1,15.5-6.9,31.1-13.3,47.5-17.8,13.6-3.7,26.5-9.5,39.3-15.5,10-4.7,20.3-8.7,30.4-13.2,1.3-.6,2.4-1.9,3.1-3.2,2.7-4.7,5.3-9.6,8.5-15M1212.4,510.5c1.9-1.1,3.9-2.2,5.8-3.2-2.1-.7-4.2-1.3-6.3-2-.2,0-.4,0-.6,0-8-1.6-16.1-2.6-24-5.1-9.3-3-19.1-4.5-28.6-6.7-16-3.8-31.8-8.3-47.7-12.4-4-1-8.3-2.1-12.3-1.6-3.4.4-6.5,3-9.9,4.3-7.1,2.9-14.3,5.5-21.3,8.5-7.6,3.3-15,6.9-22.5,10.4-.5.3-1.2.3-1.7.5.6.3,1.3.7,1.9.9,1.3.4,2.7.9,4.1,1.2,2,.4,4,.8,6.1,1.1,8.6,1.6,16.3,6.4,24.8,7.7,6.9,1.1,12.3,6.7,19.9,5.9,2.4-.2,7,1.1,5.8,6.3-.6,2.7,1.8,4,3.9,5.1,5.7,3,11.4,6.1,17.1,9.1.7.4,1.6.6,2.4.6,8.2.3,14.5-7.5,11.4-15.5-1.6-4.2.4-6.7,1.1-9.9.7-3,3.7-3.6,6.1-1.6,2.5,2,3.2,4.2,1.3,7.2-2,3.4-3.8,7-3,11.2.4,2.3,1.2,3,3.7,1.7,2.4-1.3,5.3-1.8,8-2.7,4.5-1.6,9.3-2.9,13.5-5.1,4.7-2.5,8.5-7.1,14.8-5.5.2,0,.5-.7.9-.9,8.1-3,16.3-5.9,25.1-9.4M910,491.5c0,5.2.2,10.4,0,15.6-.2,3.2.9,5.3,3.3,7.2,2.6,2.1,4.9,4.8,7.8,6.3,7.2,3.8,14.1,8.1,20.8,12.9,1.5,1.1,3.3,1.9,6,.6,5.5-2.5,11.7-3.3,17.2-5.6,3.1-1.3,6.1-3.8,8.2-6.5,1.6-2.1,2-5.4,2-8.2,0-4.2-1-8.3-1.1-12.5-.2-9.1,0-18.3,0-27.4,0-1.3.2-2.5.4-3.8.7-4.5,1.6-8.9,2.2-13.4.5-3.5-.5-6.3-3-9.3-2.3-2.7-3.8-3.1-6.4-1.4-.7.4-1.5.6-2.2.9-9.7,4.4-19.3,9.1-29.1,13.3-6.6,2.8-13.6,4.8-20.4,7.5-1.7.7-3.8,2.5-4,4-.9,6.1-1,12.2-1.5,19.7M1044.5,471.9c1.2-6.7,1.4-9.3-1.4-12.6-2.5-2.9-5.8-5.4-9.2-7-7.7-3.5-15.7-6.2-23.5-9.4-3.5-1.5-7-3.1-10.3-5.1-4.8-2.9-12-2.2-16,1.9-.5.5-1.1,1.9-.8,2.1,3.6,3.9-.5,7.6-.5,11.4,0,6.2-3.2,12.4-3.4,18.6-.3,14.8-1.2,29.7,1.1,44.5.5,3.5,3.4,4.9,6.8,3.6,8.2-3.2,16.5-6.4,24.8-9.5,4.3-1.6,5-2.5,5-7.4,0-7.2,0-14.4-1.1-21.7-.8-5.3,0-10.8-2.5-16-.6-1.3,0-4.3,1.2-5,1.4-.9,2.9-3.5,5.9-1.2,1.6,1.2,4.3.8,2.9,3.8-2.3,4.7-3.2,9.2-1.1,14.2.5,1.3.6,3.3,0,4.5-3.6,7.1.9,14.1.2,21.2,0,.6,1.8,2,2.3,1.8,5.7-2.4,11.4-5.1,17-7.8.7-.4,1.4-1.7,1.4-2.6.5-7,.9-14,1.4-22.3M973.3,600.6c1.8-1.7,5.1-1.9,4.7-5.8-.3-2.8.8-5.7,1.1-8.6,0-.6-.8-1.5-1.4-2-5.8-5.1-11.4-10.5-18.6-13.2-3-1.1-5.5-2.5-8.1-4.2-8.8-5.8-18.5-9.8-28.6-12.9-2.2-.7-5.1-.2-7.4.6-11.1,3.6-21.9,8.3-33.3,11.1-1.5.4-2.7,1.8-4.1,2.7-2.5,1.4-1.3,2.8.3,3.7,3.1,1.9,6.3,3.6,9.6,5.2.5.3,1.3,0,1.9,0,5.8-.5,7.7.5,10,5.2.7,1.4,1.2,3.2,2.3,4.2,2.7,2.5,1.4,3.6-1.1,5.1-3.7,2.2-3.6,3.2.1,5.8,1.7,1.2,3.3,2.6,5.2,3.2,7.2,2.3,12.5,8.4,20.3,9.3,3.5,4.6,8.6,4,13.4,3.8,1,0,1.9-.5,2.8-.8-.5-.9-.8-2.1-1.5-2.6-2-1.4-4.2-2.4-6.2-3.8-2.1-1.4-3.8-3.3-6-4.5-3.3-1.9-6.1-6.5-10.9-2.7-.2.2-.9,0-1.1-.3-1.9-2.2-3.8-4.5-5.5-6.9-.4-.6-.4-2.1,0-2.5.7-.6,1.9-.8,2.8-.7,1.2.1,2.2,1,3.4,1.2,8,1.4,14.9,5.4,21.2,10.2,3.5,2.6,6.8,5.2,10.9,7,1.9.8,3,1.3,5.1.3,5.7-2.6,11.5-4.7,18.6-7M1016.4,530.1c-.7-.4-1.4-1.3-2.1-1.2-2.1.1-3.8-.9-3.6-2.6.1-1.4,1.8-2.8,3.1-3.8.7-.5,2.3.2,3.1-.3,1.1-.6,1.9-1.9,2.8-2.9-1.5-.9-.4-4.1-3.5-3.6-1.1.2-2.4-.3-3.2,0-5.2,2.6-11.2,3.3-16,7.3-1.9,1.6-3.1,2-.8,3.8,3.5,2.7,3,6.2,2,9.8-.3,1-.8,2-.6,3,.7,4.7-2.6,8.1-4.1,12-1.1,2.9-9.2,3-10,.2-.9-3.4-.3-6.9.8-10.5.8-2.6,1.8-3.6,4.4-3.5.3,0,.9-.8,1-1.2.1-1-4-5.1-5.1-5.2-11.1-1.5-20.4,3.9-30,7.9-2.1.9-2,1.5,0,2.6,2.5,1.4,4.9,2.9,7.4,4.1,6.3,3,11.9,7.1,17.7,11,2.9,1.9,6.1,3.4,8.6,6.1,1.2,1.3,2.9,2.4,4.5,3.2,3.9,2,8.1,3.7,12,5.7,1.6.8,3.2,2.9,5,1.4,1.6-1.4,2.9-3.6,3.5-5.6.5-1.4-.4-3.3-.4-4.9-.1-2.6-.4-5.3,0-7.9.5-3.7,1.9-7.4-1.4-10.7-.6-.6-.2-2.8.3-3.8,1-1.8,2.1-.6,3.6,0,4.1,1.6,7.6,4.7,12.6,4.4,1.7,0,5,1,5.2,4.4,0,.5.7.9,1,1.4-.8.2-1.6.5-2.4.4-2.4-.3-4.9-.9-7.3-1.2-.5,0-1.2.3-1.7.5.5.6,1,1.3,1.6,1.8.3.2.8.2,1.2.3,9.4,3,18.9,5.9,27.1,11.7,1.3.9,3.1.9,4.6,1.4,1.3.4,2.6,1,4,1.4.7.2,1.6.3,2.3,0,6.1-2.2,12.1-4.4,18.1-6.7,1.7-.7,1.7-1.9,0-2.5-2.8-1.1-5.8-1.6-8.7-2.7-5.3-2-11.3-3.2-15.4-6.6-7.1-5.8-14.9-10.2-22.9-14.2-5.1-2.6-10.5-5.2-17.9-4M1079.8,551.6c3,1.1,5.5,3.2,9.1,3.4,4.2.2,5.9-.3,6.6-4,.2-1.1.1-2.2,0-3.3-.4-4.8-1.3-9.6-1.2-14.4.1-8.5-1.8-8.7-8-10.9-13.9-4.9-27.8-9.6-42.2-13-4-.9-8.7-2.2-12.1-.9-4.3,1.6-11.3,2.4-9.7,10.4.2,1.2-1.5,3.3-1,3.8.9,1.1,2.7,1.6,4.3,2,8.9,2.5,17,6.4,24.3,12.3,4.1,3.3,8.7,6,13.5,8.3,5.1,2.4,10.6,3.8,16.6,6.3M901.5,547c-2.3-1.4-4.6-2.6-6.7-4.3-.6-.5-.4-2.4,0-3.4.3-.7,1.7-1.5,2.5-1.4,5.2,0,5.9-.4,6-5.2,0-3.4-.5-7.1.6-10.2,1.4-4.1.8-7-2.5-9.4-8-5.9-16-11.7-24.1-17.5-.8-.6-1.8-.9-2.7-1.4-.4,1.3-1.6,3.3-1.1,3.9,2.2,2.8,1,5.9,1,8.7,0,4.4-.9,8.8-1.2,13.2-.7,13.2,2.2,26.2,2.5,39.4,0,3.1,2.1,2.4,3.5,1.9,8.1-3.1,16.2-6.2,24-9.8,1.7-.8,5,1.4,5-1.9,0-.8-3.6-1.6-6.9-2.4M1245,527.4c1.4-.9,2.7-1.8,4.1-2.6,1-.5,2-.8,3-1.3-.8-.9-1.4-2.1-2.4-2.6-5.1-2.8-10.2-5.7-15.5-8-2.7-1.2-4.9-3.1-9-1.4-12.5,5.4-25.1,10.7-38.2,14.6-5.5,1.7-8.1,5.2-8,11,0,4.8-.3,9.6,1,14.5.9,3.2,0,3.6,3,2.4,5.6-2.3,11.6-4.1,16.4-7.5,7.6-5.4,16.6-7.3,24.7-11.2,6.3-3,13-5.3,20.8-7.9M877.3,605.2c2.6,1.5,5.1,3.3,7.9,4.5,6.2,2.8,13.2,4.4,18.7,8.2,5.1,3.4,10.1,3.8,15.5,3.5,2.3-.1,4.6-1.4,6.7-2.5,1.2-.7,1.6-2.2-.5-2.6-8.6-1.5-15.5-7-22.8-10.9-8.6-4.6-16.5-10.1-26.1-12.7-4-1.1-4.3-2.4-3.4-7.1.3-1.7,0-3.5,0-5.2,0-4.2-4.5-9.3-9.8-7-8.2,3.6-16.3,6.8-24.9,9.1-.7.2-1.7,1.2-1.7,1.8,0,.6,1,1.5,1.7,1.8,7.9,3.6,15.8,7,23.6,10.7,4.9,2.3,9.6,5.2,15,8.4M1073.9,722.1c-.3-.3-.6-.7-.9-.9-7.6-3.7-15.5-6.9-22.7-11.3-3.3-2-6.3-4.5-9.9-6.1-4.4-1.9-9.3-3-13-6.5-.8-.8-2.2-1-3.3-1.3-9.7-3.1-18.2-8.2-25.7-15.2-5.6-5.3-12-9.7-18.1-14.4-1.1-.8-2.5-1.2-3.8-1.8-.4,1.3-.9,2.5-1.1,3.8-.2,1.1.4,2.5-.1,3.2-3,3.9,0,5.6,2.6,7.3,6.6,4.4,14.1,7.5,20.1,12.8,1,.9,2.6,1,3.9,1.6,1.8.8,3.7,1.7,5.4,2.6,3,1.7,5.8,3.7,9,5.1,10.8,4.9,21.9,9.1,32.4,14.6,10.2,5.3,21,9.3,31.3,14.3,4.5,2.2,8.6,5.4,13.3,7.4,12.2,5.2,24.6,9.9,36.9,14.8.6.2,1.2.5,1.8.7-.3-.7-.4-1.7-.9-2-4-2.3-8.1-4.7-12.3-6.5-14.9-6.6-29.7-13.6-44.9-22.3M1187.6,485.6c-.4,0-1,.2-1.3,0-5.1-3-10-6.3-15.2-9.1-7.4-4.1-15.6-6.4-23.5-9.4-4.1-1.5-8.1-1.5-11.9-.9-4.7.8-9,3.3-13.5,5-2.8,1.1-5.6,2.1-8.4,3.3-.5.2-.8.9-1.3,1.3.4.2.7.6,1.1.6,6.3-.2,12,2.6,17.9,4,3.4.8,6.9,1.1,10.1,2.5,10.2,4.4,21.5,4.3,32,7.9,5.9,2,12.2,3,18.4,4.5,3.2.7,6.3,1.5,9.5,2.1.7.1,1.6-.3,2.4-.5-.4-.9-.6-2.2-1.3-2.6-4.7-2.7-9.5-5.3-15-8.6M998.8,598.6c-2.3-.2-4.6-.8-6.9-.6-6.7.5-11.2,5.7-11.5,12.2-.2,3.9,0,8.3-1.5,11.7-1.7,3.7-.8,7.1-1,10.6-.2,2.8,2.6,4.3,5.8,3.2,5.7-2,11.3-4.1,16.7-6.6,1.6-.7,2.9-3,3.4-4.9.9-3.4,1-7,1.4-10.5.4-2.9,2-6.2,1-8.4-1.1-2.6-4.5-4.1-7.5-6.8M1062.8,465.4c-3.9-1.7-7.7-3.4-11.6-5-1.5-.6-2.6.2-2.3,1.5,1.2,7.5,1.5,15-.3,22.6-.6,2.6-1.8,6.7,1.4,8.2,1.6.8,4.7-1,7-1.9,4.6-2,8.9-5,13.7-6.2,6.9-1.8,13.2-4.9,19.7-7.5.8-.3,1.6-.9,2.3-1.4-.9-.5-1.7-1.1-2.7-1.4-4.8-1.5-9.7-2.9-14.5-4.4-4-1.2-8-2.6-12.7-4.6M1094.2,583c0-5.9-.2-11.7,0-17.6.1-2.6-1.1-3.4-3-2.6-6.2,2.8-13,4.1-19,7.6-3,1.7-1.6,2.6-.2,3.4,3.1,1.8,6.6,3,9.8,4.6,2.2,1.1,4.3,2.3,6.2,3.8.7.6,1.1,2.5.7,3.4-.4.9-1.9,1.8-3,1.8-1.3,0-2.7-.6-4-1.2-4.9-2.3-10-4.2-14.6-7-2.4-1.5-3.4-.1-4.1,1.1-2.7,5.1-3.6,10.7-2.7,16.4.3,2.2,2.3,4.5,5,3.8,4.3-1,9-1.8,12.5-4.2,4.3-3,8.9-4.7,13.8-6.2,3.7-1.1,4-1.9,2.5-7.2M1045.8,599.9c-2.2-.9-4.5-1.7-6.7-2.8-5.2-2.7-10.3-5.6-15.5-8.3-3.9-2-8.9-1-10.5,2-2.7,4.9-1.3,9.9,3.3,12.4,3.7,2,7.5,4.1,11.2,6,9.6,4.9,9.7,5,19.2,0,2.4-1.3,6.6-1.4,6.4-4.7-.1-1.5-4.4-2.6-7.5-4.6M936.7,544.4c-2.2.9-4.5,1.7-6.7,2.6-.6.3-1.2.8-1.8,1.2.5.5,1,1.1,1.6,1.3,3.9,1.7,7.9,3,11.7,4.9,5.2,2.7,10,6.3,15.4,8.6,6,2.5,11.2,5.9,16.1,9.8,3.7,2.9,6.8,1.8,7.4-2.7.3-2.3.5-4.7-2-6.4-2.9-2-5.5-4.6-8.5-6.4-7-4.1-14.5-7.4-21.1-12-3.9-2.8-7.1-2.8-12.2-1.1M884.5,479.1c-.5.4-.9,1-1.4,1.3-5.4,3.2-5.9,5.9-1.7,9.9,1.9,1.9,4.2,3.4,6.3,5.1,4.6,3.7,9.1,7.4,13.7,11,.8.6,1.8.9,2.7,1.4.2-1,.6-2,.6-3,.6-9.4-1.2-18.8,1.2-28.1.7-2.6-1.3-4.7-3.3-4-5.7,2-11.3,4.2-18.2,6.4M1032.1,561.4c-2.7-.9-5.3-2-8-2.7-2.1-.6-4.4-.7-6.6-1.1,0,2.5-.7,5.2,0,7.4,1.1,3,.8,5.5-.5,8.3-.5,1.1-1.1,2.9-.6,3.6.9,1.2,2.5,2.2,4,2.7,1.6.4,3.5.4,5.1,0,7.3-2.1,14.2-5.8,22-6.5.8,0,1.4-1.5,2.1-2.2-.7-.6-1.3-1.2-2-1.6-4.8-2.6-9.5-5.2-15.6-7.8M920.4,526.8c-2.4-1.5-4.8-3.1-7.2-4.6-1-.6-2.3-1.3-3.3-1.2-.5,0-1.1,1.8-1.2,2.9-.5,4.4.1,9.2-1.7,12.9-1.6,3.4.1,4.5,1.8,5.5,5,3.2,10.1,5.1,15.9,1.1,3.1-2.1,7-3,10.5-4.4.7-.3,1.4-.5,2.1-.8-.5-.5-.9-1-1.4-1.4-4.9-3.2-9.9-6.4-15.5-10.3M941.3,635.2c5.7,3.5,11.4,7.1,17.1,10.5.6.4,1.8,0,2.6-.2,1.9-.5,3.9-1.1,5.8-1.8,3.8-1.3,4.3-2.4,1.4-5-6-5.4-13.5-8.2-20.5-11.7-2.9-1.4-6.5-2.1-9.4-4-3-1.9-5.7-.7-8.4.1-1.5.5-2.7,1.8-4.1,2.7,1.2.9,2.3,2,3.6,2.7,3.7,2.1,7.4,4,11.8,6.6M1137.3,555.5c-2.5-1.3.7-2.7-.1-4.1-1.5-2.7-5.6-4.3-8.9-2.5-7.5,4-15.4,6.9-23.5,9.1-.9.2-1.6,1.2-2.4,1.8.9.5,1.7,1.4,2.6,1.5,4.8.3,9.1,1.6,13.4,3.8,4.1,2.1,8.7,3.1,13.3,4,4,.8,4,.4,4.4-3.8.2-2.9-1.4-6.1,1.2-9.9M1146.4,542.5c-1.1,1.9-3.6,3.4,1.1,4.7,7.7,2.2,15.1,5.5,22.5,8.5,1.5.6,2.2.9,2.6-1.1.2-1.4,1.2-2.7,1.2-4,.2-4.6-.2-9.1.1-13.7.2-3-1.2-3.2-3.4-2.9-1,.1-2.1.2-3,.5-6.8,2.4-13.6,4.9-21.1,8M1122.9,571.2c-1.2-.2-2.5-.3-3.6-.7-5.4-1.6-10.8-3.3-16.3-4.8-.7-.2-2.2.4-2.2.7-.6,5.5-.9,10.9-1.4,16.4-.2,1.9.7,2.2,2.3,2.1,1.3-.1,2.7.2,3.8-.3,6.4-2.9,12.8-5.9,19.1-8.9.9-.4,1.5-1.3,2.2-2-1-.6-2.1-1.2-3.8-2.5M996.2,589.5c3.5,1.4,5.3-2,8.1-2.8,2.4-.7,3.9-1.9,3.8-4.9-.1-2.8-2.4-2.5-3.8-3.3-4.9-2.8-10-5.1-15-7.7-1.4-.8-2.7-1.9-4.1-2.8-.2,1.6-.6,3.2-.7,4.9-.1,1.7-.2,3.5,0,5.2.2,1.4.6,3,1.6,3.8,3,2.5,6.3,4.7,10.1,7.6M1048.4,594.7c2.8,1.2,5.6,1.6,6.5-2.2.8-3.7,1.1-7.4,1.3-11.2.3-4.6-.6-5.3-5-3.8-5.7,1.9-11.4,4-17.1,6-.9.3-1.8.6-2.7.9.7,1,1.2,2.4,2.1,2.9,4.7,2.3,9.5,4.4,14.9,7.3M1144.4,551c-.5.5-1.3.9-1.3,1.4-.3,5.4-.5,10.7-.5,16.1,0,.2,1.4.8,2,.6,7-2.5,14-5.1,20.9-7.8.7-.3,1.7-1.2,1.7-1.8,0-.6-1-1.5-1.7-1.8-1.5-.5-3.3-.5-4.8-1-5.2-1.6-10.4-3.3-16.2-5.7M1116.4,547.7c2.1-.9,4.3-1.8,6.4-2.7-2-1-3.9-2.1-5.9-3.1-.3-.2-.9,0-1.2-.1-4.1-2.7-8.1-5.5-12.2-8.2-.8-.5-2-.9-2.9-.7-.6.2-1.2,1.5-1.1,2.3.3,4.8.7,9.6,1.3,14.4.4,2.7,2.4,3.2,4.8,2.4,3.4-1.2,6.8-2.4,10.8-4.3M1019,611.1c-1.3-.5-3-.5-3.9-1.4-3-3.1-3.6,0-4,1.6-.9,3.5-1.4,7.2-1.9,10.9-.2,1.7.4,3.4,2.6,2.5,5.2-2,10.4-4.1,15.5-6.3,1.3-.6,1.8-1.7.1-2.7-2.4-1.5-4.8-3-8.5-4.5M966.1,623.5c-4.8-2.1-9.5-4.4-14.3-6.4-1.3-.5-2.8-.8-4.2-.7-.8,0-1.6,1.2-2.4,1.9.6.6,1.1,1.4,1.9,1.8,7,3.6,14,7.1,21,10.6,1.2.6,2.6.8,4,1.2-.8-.8-1.8-1.4-2.4-2.3-.3-.4.3-1.4,0-1.8-1.1-1.1-.1-3.9-3.5-4.3M844,484.3c.7,1.3.8,3.5,3.3,2.6,3.4-1.3,6.6-3,10-3.8,3-.7.9-1.4.3-2.1-2.7-2.8-5.3-5.5-8.2-8.1-1-.9-2.5-1.1-3.8-1.7-.3,1.1-.8,2.2-1,3.3-.6,3,1.3,6.4-.7,9.8M966.8,608.4c-.2.2-.3.4-.5.5-1.8.9-3.6,1.8-5.4,2.8,1.9,1.1,3.8,2.2,5.7,3.3.7.4,1.3,1,2.1,1.3.6.2,1.6.3,1.9,0,2.1-2.6,4.3-5.1,5.9-7.9.9-1.6-.3-3-2.3-2.4-2.1.6-4.1,1.7-7.4,2.6M604.3,644.4c.6,1.9,1.2,3.9,1.9,5.7.2.6.9.9,1.3,1.4.2-.7.7-1.5.7-2.2-.1-8.6-4.9-15.3-9.3-22.1-.4-.6-1.5-.9-2.3-1.3,0,.8-.4,1.8,0,2.5,2.3,5.1,4.7,10.2,7.8,15.9M888.4,584.9c-2.4-2-4.7-4.1-7.3-5.8-.6-.4-2.4,0-3,.5-2.6,2.9-1.8,5.2,1.7,6.6,2.6,1.1,4.9,2.6,7.4,3.8.9.4,2,.5,3,.7-.1-1-.2-2-.4-3-.2-.8-.6-1.5-1.5-2.9M1240.5,507.2c3.2.7,6.4,1.5,9.6,1.9,1.1.1,4.3.7,3.1-1.2-1-1.7.9-5-3-5.3-3.9-.3-6.6,2.1-9.8,4.7M970.7,668.5c-.2-2.5-.2-5-.8-7.4-.3-1.1-1.6-2-2.5-3-.4,1-1,1.9-1.3,3-.5,1.7-.8,3.5-1.1,5.3-.2,1.1,4.2,6.9,5.5,7.1.2,0,.8-.7.8-1.1.1-1.1,0-2.1-.6-3.9M991.6,638.5c-1.8,2.2.3,3.3,1.6,3.8,2.5,1,3.8-1.4,5.2-2.9.3-.3.5-1.5.2-1.7-1.6-1.2-3.1-.8-4.4.7-.2.2-.8,0-2.6,0M986.4,594.1c.8-1.2,3.3-1.9,1.2-4-.9-.8-1.8-1.6-2.7-2.3-.6,1.5-1.3,2.9-1.7,4.4-.2.8-.4,2.1,0,2.4.5.4,1.7.1,3.2-.5M1256.8,514.4c-1.1,0-2.2-.2-3.2,0-.6.1-.9,1-1.4,1.5,1.7.8,3.6,2.3,5.2,2.2,2.4-.2,1.4-2.3-.6-3.7M1265.3,517.6v1.3c1.4-.2,2.8-.4,4.2-.7.3,0,.4-.7.6-1-1.1-.5-2.1-1.1-3.2-1.5-.4-.1-1.1.4-1.6,1.9M970.7,648.9c-1.1.3-2.2.6-3.3.9,1,1,2,2,3.1,3.1.3-1.1.6-2.2.2-3.9M1258.1,500c-.9,0-1.7-.1-2.6,0-.7.1-1.3.6-2,.9.4.7.6,1.8,1.2,2,.6.3,1.6-.2,2.2-.5.7-.4,1.2-1.2,1.2-2.4M1007.3,595.4c-.2-.6-.2-1.5-.6-1.8-.6-.4-1.4-.5-2.2-.7-.2,1-.3,2-.5,3,.9,0,1.7,0,3.3-.6M613.4,653.5c.3,1.5.5,3,.8,4.5.1-1.6.2-3.1.3-4.7,0-.1-.3-.3-1.1.2Z"/>
      <path d="M1184.3,780.9c-6.2-3.5-8.4-9.5-6.1-15.4,1-2.6,2.9-4.2,5.9-4.2,3.3,0,6.2.6,8,3.6,4.1,6.8,1.9,12.3-5.8,14.7-.5.2-.9.8-2.1,1.3Z"/>
      <path d="M1069.3,675.1c4.4,2.3,8.8,3.9,9.6,9,.3,2.2.7,4.5.2,6.5-.8,3.3-3.6,4.1-6.6,2.8-2.7-1.3-4.5-4-8-4.3-1.7-.1-3.7-6.7-3-8.9.5-1.5,1.2-3.3,2.4-4.1,1.2-.9,3.1-.7,5.4-1Z"/>
      <path d="M1179.1,693.4c.1-2.1,0-3.7.5-5,.7-1.6,2.1-3.9,3.3-4,2.8-.2.9,2.5,1.4,3.9.9,2.4,1.8,4.9,2.6,7.3.2.8.4,2,0,2.5-1.2,1.6-2.7,2.9-4,4.3-1.3-1.3-2.9-2.5-3.6-4-.6-1.2-.1-3-.1-5.1Z"/>
      <path d="M2302.8,1619.9c.5.4.7,1.1.8,1.8,0,0-.5.1-.8.2-.1-.6-.2-1.1,0-2Z"/>
      <path d="M2131.7,1223.4c-.2-.9,0-1.4,0-2,.3,0,.8.2.8.2-.1.7-.3,1.4-.8,1.8Z"/>
      <path d="M2044.8,1508.8c0,.4-.5.4-.8.5.2-.3.3-.5.8-.5Z"/>
      <path d="M505.3,2103c-.4,0-.4-.5-.5-.8.3.2.5.3.5.8Z"/>
      <path d="M842.3,2142.2c-.4,0-.4-.5-.5-.8.3.2.5.3.5.8Z"/>
      <path d="M1217,617.6c-4.9.4-8.5-.6-11.2-4.1-1-1.3-.9-2.4,1-2.5,2.3-.1,4.5.3,6.4-1.9,2.1-2.4,6.7-2.8,7.8-1.3,1.9,2.7,1.5,6.3-1.1,8.8-.5.5-1.4.6-2.8.9Z"/>
      <path d="M1545.4,1692.7c-12.2-.1-23.9.6-35.4-.7-8.6-1-17.1-.2-25.6-.3-11.8-.2-23.6-.2-35.4-.5-3.1,0-6.1-.6-9.4,0-6.6,1.4-13.3-.3-20-1.5-1-.2-2.1-.3-3.1-.3-16.8,0-33.7.8-50.4-.3-16.4-1-32.8,1-49.1,0-8.2-.5-16.3.3-24.3-.5-18.4-1.9-36.7-1.1-55.1-1.4-7.4-.1-14.9.2-22.3-.5-20.8-2-41.5.7-62.2.4-9.5-.2-19.1-.8-28.6-1.1-1.7,0-3.4.9-5,.7-9.8-1.5-19.8.2-29.5-.8-6-.6-11.9-.4-17.8-.5-11.4-.3-22.8.5-34.1-.7-7.1-.8-14.1-.2-21.1-.5-9.7-.5-19.4-.1-29-1.8-.4,0-.9,0-1.3,0-9.8-.2-19.7.2-29.5-.7-22.1-1.9-44.1.4-66.1.6-22.2.2-44.4,1.2-66.6,1.5-4.7,0-9.4-1.2-14.1-1.8-.6,0-1.2-.2-1.8-.2-8.3-.2-16.6-.5-25-.7-9-.2-18.1.4-26.9-.9-6.5-.9-12.8-.2-19.1-.6-3.5-.2-7.2,1.1-10.6-.9-.8-.5-2.3-.3-3.2,0-5.7,2.5-11.8,1.1-17.7,1.7-2.8.3-5.7.5-8.5.1-2.8-.4-5.2,1.3-8.1.5-2.6-.7-5.6,0-8.4,0-12.9,0-25.8-.2-38.7-.3-6.5-3.4-12.7,1.1-19.2.6-6.7-.5-13.7-.8-20.2.6-9.4,2-18.8.9-28.2,1.8-3.3.3-6.6,1.1-9.9,1.5-1.5.2-3.1.4-4.5,0-1.2-.4-2.5-1.4-3.1-2.5-.8-1.7.7-2.1,2-3,2.6-1.7,5.1-2.4,8.2-2.5,12.4-.2,24.9.2,37.2-1.1,17.3-1.9,34.6-1.9,51.9-2.4,10.7-.3,21.5-.6,32.1.7,6,.8,11.5-1.1,17.2-.9,10.2.3,20.4-.6,30.7-.6,10.3,0,20.6-.5,30.8.7,6.9.8,13.6.1,20.4.6,6.6.5,13.2,1.7,19.9,2,10.7.5,21.4.5,32.1.5,5.2,0,10.4-.4,15.7-.3,5.5,0,11.1,1.4,16.4.7,21.7-2.9,43.6-1.9,65.4-2.7,9.6-.4,19.3-.3,28.8.6,10.3,1,20.7,1,31,2,11.2,1.1,22.5-1.1,33.4.5,8.2,1.2,16.3-.3,24.5,1.4,5.8,1.2,12.1-.2,18.2-.2,10.1,0,20.4-.5,30.4.8,6.9.9,13.6.5,20.4.5,23.3,0,46.7-.7,70-.3,13,.3,26-.5,38.9.4,12.3.9,24.6-.9,36.7.3,9.5.9,18.9-.6,28.2.6,8.4,1.1,16.7-.4,25,.6,7.9,1,15.9-.3,23.6.8,7.8,1.1,15.5-.4,23,.7,5.3.8,10.2-.5,15.3-.5,10.7-.1,21.5-.6,32.1.8,4.6.6,9.6-.8,14.1,1.8.7.4,2.3-.8,3.5-.8,3.8-.2,7.6-.2,11.4-.2,1.4,0,2.8.6,4.3.6,3.3,0,6.5-.2,9.8-.2,14.8,0,29.8-.8,44.5.4,10.1.8,20.2-.7,30.2.4,10.1,1.2,20.1,0,30.2.4,4.9.2,9.8,1.4,14.7,2.1.8.1,1.6-.3,2.4-.5-.2-.7-.4-1.5-.7-2.2-.3-.5-1.1-.8-1.3-1.4-.3-1-.4-2-.5-3,1,.2,2.3.1,3.1.6,3.6,2.4,7.3,4.8,10.7,7.5,1.1.9,2,2.8,2.1,4.3.3,2.9-1,3.2-4.2,2.6-3.7-.7-7.5-.7-11.1-1.4-5.5-1-11.1-.8-16.7-1.9-5.4-1-11.3,0-17.6.2Z"/>
      <path d="M567.9,1217.5c3,6.8,6.2,12.9,9.1,19.1,2.3,4.9,4.2,10,6.6,14.9,3.3,6.7,6.8,13.3,10.4,19.8,6.5,11.7,11.2,24.4,19.6,35,.4.5,1.1.9,1.6,1.4.1-.8.4-1.7.4-2.5,0-.6-.7-1.1-.7-1.6,0-.8.3-1.6.5-2.4.9.4,2.3.6,2.6,1.3,1.5,3.2,2.9,6.7,1.9,10.2-.5,1.6-2.5,3.2-4.3,4-2.3,1.1-4.2-.7-5.3-2.6-3.7-5.6-7.5-11.2-10.6-17.2-4.9-9.5-9-19.3-13.7-28.9-1.7-3.5-4-6.6-5.8-10-2.6-5-5-10.1-7.4-15.2-2.2-4.7-4.2-9.6-6.5-14.3-5.6-11.6-11.9-22.9-16.6-34.9-3.9-9.9-8.9-19.7-9.4-30.7,0-1.6-.9-3.1-1.2-4.7-1.8-7.1-3.9-14.2-5.1-21.4-1.3-7.6-1.1-15.6-2.9-23-2-8.3-.8-16.8-2-25.1-1.2-8.2-1.4-17,.7-25.6.9-3.7-.5-7.9-.8-11.9,0-1-.2-2.1,0-3.1.3-2.3.8-4.5,1.1-6.7.5-4.6.1-9.5,1.6-13.7.9-2.6,1.2-5.1.9-7.4-1.1-7.6,2.3-14.4,2.9-21.7.4-4.9,1.6-9.8,2.4-14.6,1-5.7,2-11.3,3-17,.7-3.8,1.9-7.7,2.1-11.5.3-6.1,1.7-11.8,3.4-17.6,1.3-4.5,2.2-9.3,2.8-13.7.9-7.1,4.3-13.1,6-19.8,1.8-7,3.9-14,6.2-20.9,1.2-3.6,2.8-7.1,4.4-10.6,4.1-9.2,8-18.5,12.6-27.4,3.3-6.3,7.8-12.1,11.9-17.9.8-1.1,2.3-1.9,3.6-2.3,1.7-.4,3.5-.2,5.3-.3-1,1.1-1.9,2.3-3.1,3.1-4.3,3-7,6.9-9.3,11.7-8.5,18-17.5,35.9-23.2,55-4.3,14.2-8.5,28.4-11.7,42.9-2.4,10.6-3.3,21.5-6,32-2.4,9.4-2.1,19.5-4.3,29-2.3,9.9-2.1,20-3.9,29.7-3.9,20.9-2.1,42-2.2,62.9,0,9.2,1.1,18.5,2.6,27.6,2.5,16,4.8,32.2,9.2,47.8,4.9,17.5,11.2,34.5,20.7,50.8Z"/>
      <path d="M773.3,1499.4c8.7.3,8,5.3,7.1,11.8-.1,1-.7,1.9-.9,2.9-1.3,6.6-4.5,8.3-10.7,5.6-2-.9-4.6-1.1-6.1-2.4-3.6-3.2-5.1-7.7-6.6-12.2-.2-.8.5-1.8.8-2.8.6.6,1.2,1.3,1.8,1.9.4.5.8,1,1.3,1.4.5.3,1.2.7,1.7.6.4,0,.9-.9.9-1.4-.2-1.4-.3-3-1-4.1-5.9-8.2-11.9-16.4-18-24.5-3.5-4.7-7.4-9.1-11-13.7-3.7-4.6-7.3-9.2-11.1-13.7-2.8-3.4-5.9-6.7-8.7-10.1-5.9-7.1-11.7-14.3-17.5-21.4-4.3-5.2-8.6-10.3-12.9-15.5-1.6-1.9-3-4-4.7-5.9-1.5-1.7-3.3-2.8-5.7-3.6-2.8-.9-4.8-4.2-7.3-6.4-1.5-1.3-3-2.8-4.7-3.7-3.1-1.5-5.5-5.6-4.3-8.6,1.5-3.9,3.3-7.8,5.2-11.6,1.1-2.3,2.5-2.1,3.9,0,.8,1.2,2.1,2.9,3.2,3,10.4.4,15.4,8.7,21.1,15.1,8.1,9.1,15.2,19.2,21.7,29.4,5.5,8.6,13.3,15.4,17.9,24.5,4.4,8.6,8.5,17.4,13.1,25.9,2.7,5,5.8,9.9,9.3,14.4,5.4,7.2,11.2,14.1,17.1,21,1.3,1.5,3.3,2.5,5.3,4.1M705.1,1410.2c.4,0,.8,0,1.2,0-.4-.2-.8-.5-1.2-1.4-.4-.2-.9-.4-1.3-1.3-1-2.3-1-5.3-4.3-5.9-.2,0-.3.2-.5.3,1.4,2.1,2.8,4.2,4.2,6.2,0,0,.4,0,.6.7.4.2.9.4,1.3,1.3M696.6,1396.5c-3.7-4.7-7.4-9.4-11.1-14.2-.3-.4-.5-.9-.8-1.4-.2.6-.5,1.1-.5,1.7-.3,6,7.9,14.7,12.6,16.3.1-.6.3-1.2-.2-2.4M723.3,1433.7c-2.2-3.5-4.3-7-6.5-10.4-.6-.8-1.5-1.4-2.4-2-.2-.2-.8,0-1.1.3,0,0,0,.7.2.9,5.7,5.6,8.2,13.2,12.5,19.6.3.4.6.8.9,1.1.1-.6.6-1.3.4-1.8-1-2.4-2.1-4.8-3.9-7.8M660.6,1375c0,.6-.2,1.3,0,1.9.3.9.9,1.8,1.4,2.7.4-1,1.2-2,1.1-2.9-.1-.8-1.2-1.5-2.5-1.7Z"/>
      <g id="TbcFSs" class="cls-1">
        <image id="TbcFSs-2" data-name="TbcFSs" width="470" height="242" transform="translate(434.4 114.7) scale(.5)" xlink:href="pdp_5-1.png"/>
      </g>
      <g id="xgjwuG" class="cls-1">
        <image id="xgjwuG-2" data-name="xgjwuG" width="1806" height="250" transform="translate(938.2 804.5) scale(.3)" xlink:href="pdp_5-2.png"/>
      </g>
      <g id="mEb2dE">
        <image id="mEb2dE-2" data-name="mEb2dE" width="1062" height="242" transform="translate(17.1 1329.4) scale(.5)" xlink:href="pdp_5-3.png"/>
      </g>
    </g>
  </g>
</svg>