<?xml version="1.0" encoding="UTF-8"?>
<svg xmlns="http://www.w3.org/2000/svg" xmlns:xlink="http://www.w3.org/1999/xlink" version="1.1" viewBox="0 0 2758 2758">
  <defs>
    <style>
      .cls-1 {
        isolation: isolate;
      }

      .cls-2 {
        stroke-width: 10px;
      }

      .cls-2, .cls-3 {
        stroke: #00a0d0;
      }

      .cls-2, .cls-3, .cls-4 {
        fill: none;
      }

      .cls-2, .cls-4 {
        stroke-miterlimit: 10;
      }

      .cls-3 {
        stroke-miterlimit: 10;
        stroke-width: 10px;
      }

      .cls-4 {
        stroke: #000;
        stroke-width: 8px;
      }

      .cls-5 {
        display: none;
      }
    </style>
  </defs>
  <!-- Generator: Adobe Illustrator 28.7.3, SVG Export Plug-In . SVG Version: 1.2.0 Build 164)  -->
  <g>
    <g id="Layer_1">
      <g>
        <g id="Contours">
          <path d="M2757.5,516c.5.3.5.7.5,1-.1,3.7,1.1,8.2-4.5,9-4,.6-5.1-1.4-5.5-9.5,3-.5,6-.5,9.5-.5Z"/>
          <path d="M1342,844c-5.6-.8-11.2-1.1-16.1-4.8-2-1.5-5.6-.7-8.4-1.3-2.1-.5-1.6-1.4.2-2,.8-.2,1.4-.8,2.1-1.2-.9-.3-2-1-2.6-.7-7,3.6-13,.4-19.6-1.8-12-4-24-8.5-36.7-10.4-3.8-.6-7.6-2.7-10.8-5-5.8-4.2-14.1-1.1-19.2-6.8-15-.7-27.6-9.4-41.9-12.3-9.7-2-19.8-3.8-28.6-8-13.9-6.7-29.3-7.8-43.5-13.3-9.8-3.8-21-3.8-31.3-6.5-17.4-4.5-35.4-5.7-52.6-10.6-2.9-.8-3.4,1.4-5.6,1-16.2-3-32.7-2.1-49.1-2.2-7.4-5.5-14.9.2-22.3.2-14.1,0-28.3,0-42.1,2.1-15.5,2.3-31.1,3.4-46.5,6.1-6.7,1.2-13.2,3.6-20.3,4-7.2.4-14.3,2.4-21.5,3.5-17.4,2.8-35,4.5-52,9.5-8.4,2.5-17.5,2.6-26.1,4.6-9,2.2-17.7,5.4-26.5,8.3-5.3,1.7-10.3,4.6-15.7,5.4-11.8,1.8-23.3,4.3-33.8,10.1-9.7-1.6-16.9,7-26.5,6.3-2.7-.2-5.5,2.6-8.3,3.7-14.6,5.7-29.9,10.2-43.9,17.2s-25.2,11.8-37.4,18.5c-14.5,8-30.3,13.6-45.5,20.5-4.8,2.2-9.1,5.4-13.7,7.9-9,4.9-17.9,9.8-27.1,14.3-17,8.5-33.1,18.6-49,28.9-7.5,4.9-15.9,8.3-23.6,12.8-16.1,9.5-32.2,19-47.9,29.1-13,8.3-25,18.3-38.3,25.8-16.8,9.5-32.3,20.8-47.5,32.3-13.1,9.9-27.3,18.6-38.2,31.4-6.6,7.8-14.2,14.7-21.6,21.7-3.5,3.3-7.3,6.3-11.2,9.2-8.9,6.5-12.1,17.2-18.8,25.4-1.6,2-2.8,3.8-4.6,2.8-1.3-.7-2.3-4.1-1.7-5.5,2.1-5.1,4.1-10.7,7.7-14.7,7.6-8.7,16.3-16.5,24.4-24.8,3.1-3.2,5.2-7.5,8.6-10.3,12.4-10.2,23.2-22.3,36.8-31.3,15.8-10.5,30.9-22.3,46-33.9,4.3-3.3,8-7.2,8.5-13.4.6-6.2,4.1-8.3,10.1-5.6,6.6,2.9,11.3,1.3,16.1-3.4,2.8-2.7,6.8-4.3,10.3-6.5,13-8.1,26.2-15.9,38.9-24.4,15.8-10.6,33.6-17.7,49.2-28.3,12.7-8.7,26.4-15.5,39.5-23.4,13.8-8.2,28.4-14.9,42.8-22.1,14.3-7.2,28.7-14.3,43.2-21.2,18.6-8.9,37.1-18.2,56.2-26,17.7-7.2,36.1-12.6,54.2-18.9,7-2.4,13.8-5.3,20.7-8,9.9-3.8,20.7-3.9,30.8-7.7,11.8-4.5,24.5-7,36.8-10.3,5.4-1.4,10.9-2.8,16.3-4,10.8-2.3,21.5-4.4,32.3-6.5,6.5-1.3,13-2.6,19.5-3.5,11.4-1.5,23-2.2,34.3-4.2,10.7-1.9,21.1-5.5,31.7-7.7,6.3-1.3,12.7-1.6,19.1-2.1,10.4-.8,20.9-.7,31.1-2.2,27-3.9,54.1-1.5,81.2-1.6,13.5,0,27.2,1.4,40.6,5.4,10.8,3.2,22.3,4.1,33.4,6.3,13.8,2.8,27.7,5.4,41.3,8.9,13.7,3.6,27.1,8.5,40.8,12.5,6.3,1.9,12.7,3.2,19.2,4.4,10.4,2,19.8,7.1,29.9,9.9,15.5,4.2,29.9,12.1,46.1,14.4,5.7.8,11,4,16.6,5.8,10.9,3.5,21.9,6.7,32.8,10,13.3,4,26.5,9.4,40.1,11.6,14.7,2.3,28.2,7.9,42.4,11.3,21.2,5.1,42.1,11.7,63.7,15.2,9.2,1.5,18,5,27.5,6.2,8.4,1.1,16.7,3.5,25.4,3.7,13.4.4,26.8,1.3,40.2,1.9,13.6.6,26.4-2.9,39.3-6.6,23.7-6.8,44.6-19.5,66.4-30.4,6.9-3.4,14.9-5.1,20.9-9.6,5.4-4,11-7.2,16.8-10.3,11.7-6.3,22.9-13.9,35.2-18.8,21.8-8.6,40.2-23.2,61.5-32.5,8.8-3.8,17.5-8.3,25.1-14,15.7-11.8,33.3-20.7,48.2-33.9,9-8,21.1-12.9,32.5-17.7,14.5-6.1,29.3-11.9,44.5-15.6,10.6-2.6,20-9.8,31.5-8.7,12.6-6.6,27.1-6.7,40.3-11.4,5.6-2,11.9-1.9,17.9-2.6,5.7-.7,11.9-.3,17.1-2.3,6.2-2.4,12.2-1.1,18.3-1.7,27.3-2.7,54.8-2.5,82.2-1.8,17.9.5,35.3,3.9,52.2,11.4,19.6,8.7,36.5,20.7,52.9,34.2,9.5,7.9,19.9,14.7,29.8,22,10.5,7.7,20.8,15.7,31.4,23.3,12.8,9.1,25.6,18.4,39,26.7,13.9,8.6,29,15.2,44.4,20.6,6.7,2.4,13.8,3.9,20.7,5.4,10.1,2.2,20.4,4,30.5,5.9,1.3.2,2.6,0,4,0,21.1.7,42.1,1.8,63.2,1.9,14.7,0,29.4-1.1,44.2-1.9,6.7-.4,13.5-1,20.2-2,6.1-.9,11.1-4.1,15.4-8.6,10.3-10.9,9.1-9.6,18.7.4,3,3.1,5.3,7.1,7.1,11,2.2,4.8-1.9,11-8.1,13.3-1.2.4-2.5.5-3.5,1.2-3.3,2.1-4.3.4-3.8-2.5.6-4.3-1.5-4.4-5-4.8-9.8-1-15.4,3-21.7,10.9-9.7,12.3-22.5,22.3-33.9,33.2-2.4,2.3-4.8,4.5-7.2,6.7-20.4,18.9-41.6,36.9-63.4,54.1-18.4,14.5-39,25-58.8,37.1-21.2,13.1-42.4,26.2-64,38.7-15,8.7-27.6,20.5-41.1,31.1-14.2,11.1-29.6,20.8-43.5,32.3-14.2,11.9-30,21.6-44.4,33.3-14.6,11.9-28.6,24.4-42.9,36.7-15.1,13-29.9,26.7-47.6,36.7-8.8,5-16,13-24,19.5-6.9,5.7-13.4,12.4-21.1,16.7-12.8,7.3-21.6,19.7-35.2,26-6.8,3.1-12.2,9.2-18.3,13.9-8.8,6.8-17.8,13.6-26.5,20.5-8.1,6.4-16,13.1-23.8,19.8-3.3,2.8-6.1,6.2-9.2,9.1-9.8,9.2-20.2,17.9-29.4,27.7-11.9,12.8-24.1,25.3-34.2,39.7-4.6,6.6-10.9,12.1-16.1,18.4-10.6,12.9-18.3,27.5-24.9,42.7-.6,1.4-1,3.1-2,4.1-3.4,3.1-1.7,3.7,1.5,5.8,8.2,5.6,5.1,11.7-1,15.3-.2,0-.7,0-1,0-9.4,4-17.4,9.1-17.5,21,0,1.1-1.2,2.2-1.9,3.2-.9,1.3-2,2.5-3,3.8-1-1.6-2-3.1-3-4.7,0-.2,0-.7,0-1-.2-3.9,0-7.9-.6-11.8-.7-5.8-5.3-4.9-8.9-4.3-3.5.5-6.6-1.3-10.4-.5-8.4,1.6-17.2,1.7-25.8,1.6-12.3-.2-23.9,3.3-35.8,5.3-5.9,1-11.7,2.5-17.6,3.5-9.1,1.5-18.3,2.4-27.3,4.2-2.8.6-5.6,2.9-7.8,5.1-3.4,3.4-2.5,7,1.9,9.4,8.8,4.8,15.5,12,18.6,21.1,2.1,6.1,2.5,13.9.5,19.9-5,14.9-16.9,24.7-29.2,33.7-8.3,6.1-16.8,12.1-26.3,16.1-8.2,3.5-15.8,8.4-24.6,10.6-4.7,1.1-8.9,4.2-13.6,5.8-11,3.6-22.2,6.6-33.2,10.1-7.9,2.6-15.5,6.1-23.5,8.4-13.8,3.9-26.5,12-41.6,11.8-3.4,0-6.8,2.7-10.4,3.8-8.9,2.8-18,4.8-26.6,8.2-13.6,5.3-27.5,9.7-41.8,12.5-14.8,2.8-28.1,9.5-42.1,14.4l-12.4,8.4c-5.7,6.6-12.5,10.9-21.5,11.7-7.2.6-12.7,4.9-18,9.7-9.2,8.4-18.8,16.5-29.3,23.3-1.3.8-3.1,1.2-4,2.3-9.3,12-23.8,17-34.9,26.6-2,1.7-5,2.8-7.7,3-14.5,1.4-25.7,9.7-36.6,17.8-10.7,8.1-19.9,18.1-29.7,27.4-.7.6-.7,1.8-1.1,2.8.9-.2,1.9,0,2.7-.5,2.2-1.3,4.4-2.6,6.2-4.2,11.3-9.8,22.5-19.8,33.7-29.6.5-.5,1.4-.6,2.1-.9,0,1,.5,2,.3,2.8-.6,2.1-1.6,4-2.4,6-.5,1.1-1.4,2.2-1.5,3.4-.4,7.7-1.2,9.5-6.4,14.5-5.7,5.5-10.4,12.7-17.1,16.4-7.1,4-13.4,9.2-21.2,12.2-9.7,3.8-19.1,8.9-28.1,14.2-3.7,2.2-6.7,2.3-10.6,2-8.3-.6-16.7,0-25-.2-1.2,0-2.4-.6-3.6-.9.5-1.1.6-2.6,1.4-3.4,4.1-3.7,8.6-6.9,12.5-10.7,7.7-7.3,14.8-15.2,22.6-22.4,4.2-3.8,9.2-6.7,13.9-9.9.2,0,1.4.7,1.5,1.1.3,3.1,1.2,1.2,2.8.8,3-.8-3.1-4.9,2.2-4.8,2.1,0,4.3-2.4,6.2-3.9,2-1.7,3.6-4,5.8-5.5,2-1.4,4.6-1.7,6.7-3,2.7-1.6,5.2-3.7,7.7-5.6,3.5-2.8,7.2-5.4,10.4-8.5,2.7-2.7,4.8-5.9,7.1-9,1.3-1.8,2.1-4.1,3.7-5.4,1.3-1.1,3.5-1.1,5.3-1.5-1.5-1.5-1.9-2.8.2-4.3,1.6-1.1,2.9-2.6,4.1-4.1,1.1-1.5,1.8-3.3,2.9-4.8,1.2-1.6,3.5-2.6,4-4.3.9-2.7,1.2-5.8.7-8.6,0-.7-4.1-1.4-6.1-1.1-6.4,1.2-13,2.4-19.1,4.6-10.7,3.8-21.9,5-33,7.3-9.5,2-19,3.9-28.5,6-5.2,1.2-10.2,2.8-15.4,3.9-6.8,1.4-13.6,2.8-20.4,3.7-2.8.4-5.9-1.3-8.8-.9-5.6.7-11.4,1.3-16.5,3.4-15.1,6.4-31.7,4.8-46.9,9.8-8.1-3.3-14.3,3.8-21.7,3.9-7.7.2-14.5,3.5-21.8,5.4-8.5,2.2-17.4,3.1-26.1,4.7-10.8,2-21.8,3.1-32.6,5.6-8.2,1.9-16.4,4.2-24.5,5.7-7.4,1.4-15.6,1.9-23.4,2.6-10.7,1-21.5.8-32.1,2.2-13.8,1.8-27.4,4.2-41.4,4-5.4,0-10.8,2-16.2,1.7-5.2-.3-10.3,0-15.4.3-11.5.5-23,1.2-34.5,2-2.8.2-5.9.6-8.1,2.1-3.4,2.2-6.1,2.8-9.8.6-1.7-1-4.5-1-6.6-.6-5.3,1-12.8,1.1-17.8,0-1.3-.3-2.6-.2-3.9-.2-18,0-35.1-3.7-52-9.7-3.5-1.2-7.4-1.3-11-2.4-8.5-2.6-11.7-7.7-12.3-16-1.2-16,6.1-28,16.3-39.3,14.4-15.9,31.6-28,50.1-38.6,4.3-2.5,8.5-5.3,12.7-8,2.1-1.3,8.3-.9,8.9,1,.9,2.8,0,5.2-2.6,6.8-13.4,8.7-27.3,16.7-40,26.4-14,10.6-28.2,21.5-33.8,39.5-1,3.3-3.4,7.8-2.1,10,2.1,3.6,6.3,6.9,10.3,8.1,6.2,1.9,12.3,5.5,19.3,4.3.6,0,1.6-.3,2,0,6.1,6.5,14.7,4,22,5.6,9.4,2,19.4,2.2,29.1,2.2s23.6,0,35.1-2.3c6.8-1.3,13.3-5,20.4-3.5,10.7,2.2,21.1-.9,31.7-.5,10.9.5,21.9-1.7,32.9-3.2,5.3,0,10.6,1,15.8.5,5-.5,9.7-2,14.9-1.2,2.5.4,5.6-.7,8.1-1.9,5.7-2.6,12,1.8,17.6-1.8.5-.3,2.7,1.6,2.8,1.4,8-9,19.1-5.6,28.9-7.6,6.4-1.3,12.7-3.3,19.2-4.2,5.6-.8,11-3.1,17-2.1,2.8.5,6.1-2.8,9.3-3.6,9.4-2.3,19-4.1,28.5-6.1,2.4-.5,4.8-2,7.2-1.8,2.8.2,5-2.2,8.5-.5,3.1,1.5,7.5.9,10.7-2.7.8-.9,5.9-7.4,8.1.6.3,1,8.7-2.6,9.9-3.9.7-.8,2.1-1.4,3.3-1.5,3.3-.3,6.9,2.6,10-.9.4-.4,1.8-.5,2-.2,3.3,5.3,7.3.9,10.9,1.3,4.6.5,6-3.6,9.4-4.3,3-.6,7.6,2.3,8.4-3.5,1.1.2,3.3.4,3.3.5,0,4.9,3.8,3.2,5.7,2.9,5.2-.9,10.3-2.5,15.4-3.9,4.6-1.3,9.4-2.7,13.8-3.4,4.1-.7,9.1.2,13.6-.6,5.5-1,10.9-2.6,16.3-3.9,2.4-.6,4.8-1.9,7.2-1.9,5.3,0,11.2.6,14.1-4.3,2.4-4.2,7.2,4.6,8.7-2.7.6-2.7,6-1,9.3.8,2.1,1.1,3.2-.4,4.6-4.5.2-.7,1.7-1.3,2.6-1.3,4.7,0,9.3.2,14-.2,2.1,0,4.1-1.3,6.1-2.1,1.4-.5,2.8-1.5,4.1-1.4,3.3.2,16.6-.6,18.9-1.6,1.2-.6,2.3-1.4,3.4-2.1-1.2-.2-2.5-.4-3.7-.7-1.2-.2-2.5-.5-3.7-.8,1.3-.4,2.7-.7,4-1.3,7.5-3,13.2-6.7,16.7-15.3,4.9-12,12.7-22.8,19.4-33.9,1.9-3.2-1.3-5.5-.8-8.3-2.7.6-3.7-3.2-7.6-1.7-19.9,7.6-40,14.5-60.2,21.1-6.3,2-8.9,7.5-13.3,11.2-.8.7,1,4.2.2,5.2-2.7,3.4-8.5,2.3-10.5-1.6-3.3-6.4-10.3-9.6-15.6-5.5-4.3,3.3-9.2,3-13.5,4.5-13.2,4.5-27.6,5.8-40.5,10.9-7.6,3-16.5,1.2-23,7.2-6.7-1.3-13.9-.5-19.1,2.8-5.1,3.2-10.3.4-15.1,3.3-4.3,2.6-10.1,4.2-15.1,3.9-3.6-.2-6.9.7-10.4.6-3.7,0-7.4,1.2-11.2,1.8-16.2,2.7-32.4,5.6-48.7,7.9-8.4,1.2-17,1.1-25.5,2.2-9.6,1.2-19.4.7-28.9,3.4-1,.3-2.3-.4-3.4-.4h-10.1c-5.8,0-11.6.4-17.4.4s-4.2-1.2-6.4-1.4c-5.1-.5-10.2,1.8-15.3-.2-4.6-1.8-9-4.8-13.7-5.4-5-.6-8.2-3.3-10.1-6.7-4.1-7.3-10.3-5.8-16.4-5.3-.8,0-1.5,1.5-2.3,1.5-2.9,0-6.2.9-7.9-2.5-2.1-4,1.2-6,3.5-8.2.6-.6,1.6-1,2.5-1.2,11.5-2.8,21.4-9.3,32.8-12.7,5-1.5,9-6.9,12.7-11.3,2.2-2.7,3.8-3.1,7-2.4,5.1,1.1,10.4,1.2,15.6,1.8.9,0,2.1.7,2.7.3,8.6-6.6,19.6-7.5,28.8-12.5,7.3-4,16.2-3.8,23.3-9,2.2-1.6,6.5,0,9.8-.3,6.5-.8,13.4-.5,18.9-5.4,2.2-.6,3.3-3.6,6.7-1.3,3.5,2.4,4.1,1.3,7.6-4.4.9-1.4,3.1-2.7,4.7-2.7,4.9,0,9.1-2.1,13.6-3.6,4.1-1.4,8.6-1.9,12.9-2.5,3.5-.5,6.2-5.8,10.5-2,7.2-2.7,14.4-5.6,21.7-7.9,5.4-1.6,11.1-2.1,16.6-3.5,5.1-1.3,9.2-4.7,15.1-4.9,6.2-.2,12.9-2.3,18.5-4.3,6.5-2.4,13.4-2.5,19.8-5.2,10.5-4.4,21.4-8.3,32.4-10.9,4.9-1.1,10-1.9,15.1-3.2,16.1-3.9,32.3-7.3,48.5-10.9.6,0,1.3-1.3,1.4-1.2,9.3,5.3,17.4-3.8,26.6-2.3,3.5.6,7.7-.5,11-2,2-.9,2.9,0,4.5,0,4.4,0,8.8-.8,13.1-1.8,2.3-.6,3.4-2.2,6.7-.5,3.6,1.9,8.6,1.2,13-1.3,2.6-1.5,6.1-2.3,9.1-2,7.2.7,14.3-1.8,21.5-.7.4,0,1.2-.9,1.4-1.5.9-2.9,2.8-3.9,5.8-4.2,1.6,0,3.5-1.8,4.6-3.2,5.6-7.9,11.5-15.3,14.2-25.2,1.4-5.1,7.2-9.3,11.6-13.3,5.2-4.9,5-9.7-1.8-11.9-7.6-2.6-15.7-4-23.5-6.2-5-1.4-10.1-3-14.9-5.1-8.3-3.7-16.5-4.5-25-.9-1.1.5-2.6,0-4,0-14-1-27,3.8-40.4,6.4-9.6,1.9-19.1,3.7-28.7,5.6-7.3,1.5-14.9,1.2-21.1,7.4-2.1,2.2-1.6,2.2-.9,4.1.5,1.5.2,3.3,0,5-.2,3.5-3,4.9-5.7,2.7-3.1-2.5-5.5-5.9-8.6-8.3-1.9-1.5-4.6-2.9-6.8-2.7-14.7,1.7-29.3,3.8-43.9,5.9-.9,0-1.9.3-2.7.7-3.7,1.8-6.7,3.3-11.8,2.2-5.1-1.1-11.1,2.9-16.8,4.3-7.6,1.8-15.4,3.2-23,4.8-3.4.7-6.9,1.1-10,2.4-17.6,7.4-35.9,11.8-54.5,15.7-8.4,1.8-16.4,5.5-24.7,7.8-11.1,3-22.5,5.2-33.6,8.1-9.9,2.6-19.6,5.8-29.4,8.6-9.1,2.6-18.3,4.6-27.3,7.5-10.6,3.4-20.9,7.4-31.4,11.2-7.8,2.9-15.6,5.9-23.4,8.7-5.8,2.1-11.9,3.5-17.4,6.2-16.4,8.1-34.5,11.5-51.3,18.7-14.7,6.3-30.5,10-45.7,15.1-10.8,3.6-21.5,7.6-32.3,11.3-14.6,5-29.3,9.7-43.9,14.7-6.1,2.1-12,4.8-18,7.2-9.7,4-19.3,8.1-29.5,10.9-6.4,1.8-12.5,5.4-18.2,9-5.3,3.3-12.1,3.5-16.6,8.3-.4.4-1.2.5-1.8.4-3.2-.3-6.4-.6-9.6-.9,1.6-2.3,2.8-5.2,5-6.8,5-3.7,10.2-7.4,15.9-9.9,17.8-7.7,36-14.6,53.7-22.4,13.4-5.9,26.8-11.1,41.2-14,4.2-.8,8-3.1,12-4.7,11.2-4.4,22.2-9.2,33.6-13.1,12.9-4.4,26.1-7.8,39-12.2,17.2-5.9,34.2-12.4,51.3-18.6,3.2-1.2,6.3-2.7,9.6-3.2,5.4-.8,9.8-3.5,14.6-5.9,7.2-3.6,15.2-5.5,22.9-8.2,3.5-1.2,6.9-2.6,10.3-4,23.8-9.8,49.2-14.5,73.4-23.1,7.5-2.6,15.4-5.6,24-5.2,5,.2,10-3.1,15.1-4.3,10.3-2.4,20.5-4.7,30.2-9.3,3.6-1.7,8.1-2.2,12.1-2,10,.4,18.3-4.5,27.1-8,10.8-4.3,22.2-6.2,33.6-8.1,1.9-.3,3.7-.7,5.5-1.1,16.2-3.6,32.3-7.2,48.5-10.8,5.8-1.3,11.9-4.5,17.3-3.6,8.4,1.4,15.6-2.5,23.6-2.7,7.1,0,14.2-2.5,21.3-3.7,8.1-1.4,16.2-2.7,24.3-4.2,6.3-1.2,12.6-2.2,18.7-3.9,6.4-1.8,12.6-4.2,19.3-4.1,1.2,0,2.4,0,3.5-.2,2.5-.5,6.4,2.9,7.2-1.8.6-3.6,1.2-7.6-3.7-9.9-18.9-9.1-37.8-18.3-56.4-28-12-6.3-23.5-13.5-33.7-22.7-1.8-1.6-4.3-2.5-6.6-3.2-6.3-1.7-11.6-5.7-18.4-6.5-2.5-.3-6.6-2.2-7.5-7.5-.6-3.7-5.1-7.7-8.9-9.9-13.2-7.7-24.5-17.4-35.4-27.9-7.8-7.5-8.7-7.1-19.3-3.5-7.6,2.6-14.1,8.9-23,7.3-.9-.2-1.8-.5-2.7-.7.9-.5,2-.8,2.8-1.4,6.8-5,13.6-9.5,22.8-8,1.1.2,2.6-1.7,3.8-2.6-1-1.1-2.1-3.1-3.1-3.1-5.2,0-5.1-3.6-7.2-7-3.2-5.3-9.3-8.9-14.2-13.1-3.2-2.7-6.6-5-9.8-7.6-12.4-10.3-24.8-20.7-37.1-31.1-.5-.4-.9-1-1.4-1.4-10.3-9.7-21.1-18.9-30.9-29.1-16.4-17-31.9-34.8-48.3-51.9-7.7-8-16.2-15.3-24.7-22.6-1.9-1.6-6.1-.8-7.8-2.5-3.4-3.3-5-1.2-7.2,1-.4.5-1,.9-1.5,1.1-2,.6-4,1.1-6,1.6,0-2.5-.4-5.1.4-7.4,1-2.8,4.7-5.7,4.1-7.6-1-3.4-4-6.5-6.7-9.1-9.9-9.5-19.1-20.2-30.3-27.9-12.9-8.9-23.6-20-35.4-30.1-3.7-3.2-7.2-6.8-10.5-10.5-13.2-14.3-30.1-23.7-45.6-35-8.3-6.1-16.8-12.6-26.2-16.2-10.2-3.9-17.6-13.2-29.2-14-2.5-.2-5.1-2.3-7.3-3.9-15.9-11.2-34.9-14.1-52.8-19.9-18.7-6.1-37.6-11.4-57.1-14.4-4.8-.7-9.5-1.4-14.2-1.6-16.1-.7-32.1-1.4-48.2-2-8.2-5.5-17.3,1.9-26-1.7-2.9-1.2-7.3,1.2-11.1,1.7-16.5,2.1-33,4-49.5,6.1-1.2,0-2.3.9-3.4,1.4-3.4,1.5-7.2,2.5-10,4.7-7.2,5.5-15.7,7.4-24.1,7.6-8,.2-14.4,4.2-21.5,6.3-5,1.5-10.3,2.4-15.2,4.4-15.2,6.2-29.8,13.6-44,21.7-6.9,4-14.9,6.1-21.8,10.1-13.4,7.8-28.3,12.5-41.3,21-7.3,4.7-15.2,8.4-22.6,12.8-11,6.5-22.5,12.4-32.6,20.1-13.9,10.7-29.6,19-41.9,32.1-4.5,4.8-11.6,7.3-15.7,12.3-9.3,11.3-20.3,21-27.6,34.4-4.8,8.9-12,16.7-15.9,26.5-.8,2-3.1,3.4-4.9,5-.5.5-1.4.6-2.1.9-.1-.6-.4-1.2-.4-1.8,0-5.7.2-11,3.6-16.5,9.5-15.5,18.9-30.9,32-43.7,13.3-12.9,26.8-25.3,41.8-36.5,15-11.1,31-20.6,45.8-31.8,15.9-12,34-19.7,50.9-29.6,15.8-9.4,33.5-15.5,50.2-23.5,7.3-3.5,13.9-8.3,21.1-11.8,16.3-8.1,33.7-13.7,50.7-20.1,5.5-2.1,11-4.1,16.5-6,13.9-4.8,28.4-7.5,42.8-10.2,14.8-2.7,29.4-5.1,44.5-6.2,18.3-1.3,36.5.5,54.7.9,9.3.2,18.8.3,28.2,1.5,14.6,1.8,29.2,3.6,43.3,8.8,10.4,3.9,21.4,6.7,32.3,8.9,11.7,2.4,22.5,6.6,33.5,11,15.3,6.2,29.7,14.1,43.4,23.2,5.1,3.4,11.4,4.8,16.6,8,10.6,6.6,20.5,14.1,31.3,20.6,11.1,6.7,20.9,15.8,30.8,24.4,10.6,9.3,20.5,19.3,31,28.7,6.4,5.7,13.2,11.2,20.3,16.1,5.4,3.7,10.2,7.9,14.6,12.8,4.1,4.5,9.4,7.9,13.9,12.2,15.3,14.5,30.4,29.2,45.8,43.6,8.6,8,16.1,17,24.1,25.5,14.4,15.4,31.2,28.6,46.5,43.3,11.5,11,23,21.8,35.6,31.6,4,3.1,6.2,9.3,10.5,11.1,7.8,3.3,11.3,11.9,19.6,14.1,1.2.3,2.3,1.1,3.2,1.9,8.4,8.4,16.6,17,28.5,20.5.8.3,2,1.4,2,2.1,0,6.3,5.3,7.9,9.1,11.2,7.3,6.3,15.7,11.6,21.7,19.4,8.9,1.1,13.2,9.5,20.7,12.8.9.4,1.6,2,2.2,1.9,8.5-2.2,13,5.6,19.7,7.8,1.1.4,2.7.7,3.2,1.5,7,10.1,9,13.3,16.9,16.2,5.4,2,7.8,7,13.2,9.2,5.9,2.4,12.5,3.5,18,7.2,6.7,4.5,13.8,8.3,21,12.1,8.2,4.3,16.8,7.8,24.9,12.2,6.6,3.6,12.8,7.9,19,12,1.3.8,2.3.6,3.5.7,4.8.3,9.7,1.5,14.1,3.4,4.2,1.8,8,2.5,12.5,2.3,2.1,0,6,3.5,6.1,3.4,4.2-6,11.6,1.7,15.7-3.7,4.6,3.7,7-3.4,11.6-2.3,4,.9,8.5,0,12.8-.2,4.8-.2,10-1.8,14.3-.4,5.3,1.7,9.1,0,13.7-1.4,5.7-1.6,11.6-3,17.5-3.5,3.3-.3,5.4-1.4,7.6-3.6,6.9-6.7,15-11.1,24.7-12.8,6.7-1.2,13.4-3.1,19.4-6.1,5.4-2.7,12.3-.4,16.7-5.7.4-.5,2.3-.5,2.9,0,5,4,8.1.2,11.3-2.6,4.8-4.2,7.9-7.8,5-15.7-2.3-6.3.5-14.4.5-21.6s-2.8-15.1-.6-21.3c3.2-8.9-3.7-14.8-3.1-22.4.2-2.3,0-4.6,0-6.8s.6-3.2.5-4.8c-.4-8.4-1.1-16.8-1.2-25.1,0-4,1.4-8,1-11.9-.3-2.9-3.7-5.5,0-8.5-4-5.2,0-10.1.2-15.2.8-14,1.4-28.1,2.1-42.2.3-5.3,2.2-10.5-.7-16.1-2-3.8-4.7-5.2-7.3-3.7-6.8,4-12.2.4-17.6-2.3-6-3-10.5-1.4-15.6,2.1-7.8,5.4-13.3,12.6-18.9,20-4,5.3-10,9-14.6,13.9-3.6,3.9-7,8.4-9.1,13.2-5.2,12-14.7,24.8-24.2,29.7-2.4,1.2-6.8,2.2-8.3.9-4.7-3.9-6.2,0-8.7,2.3-.8.7-1.6,1.3-2.1,2.1-1.7,2.9-3.2,5.9-4.8,8.9,3.3,1,6.5,2.3,9.8,2.8,7.4,1.1,7.4,1.3,4.5,8.9-1.7,4.3-4.2,8.1-4.8,13.1-.5,3.9-4.2,8.4-9.7,8-6.3-.6-8,3.4-7.7,7.9.3,5.2-1.8,8.5-6.4,9.1-3.3.4-7.1-.9-10.1-2.4-3.6-1.8-4.9-7.4-10.3-6.5-.2-2-1.2-5-.4-5.7,8.8-6.8,8.3-19.2,16.1-26.4,2.7-14.7,15.2-22.5,23.5-33.2,5.8-7.5,13.5-13.7,20.2-20.6,2-2,3.4-4.6,5.2-6.8,1-1.2,2.1-2.8,3.5-3.2,1.9-.6,3.5,2.9,6.3-.5,4.7-6,11.9-10.3,15.6-16.7,2.3-4,2.6-9.3,6-13.5,5.3-6.4,12.6-10,19.7-12.9,3.4-1.4,6-3.2,8.8-5.3,7.1-5.2,14.4-10.2,21.7-15.2,1.3-.9,3-1.5,3.8-2.6.4-.5-.6-3-1.4-3.2-1.1-.3-2.5.6-3.8,1,.6-1.4,1.2-2.7,1.7-4.1,1-2.9,1.4-6.2,3-8.7,1.6-2.7,2.3-4.1-1.6-4.4.6-2.7,1.1-5.4,2-8,.2-.5,2.4-.5,2.5-.8.9-9.5,9.9-10.6,15.5-15.1,5.9-4.7,13.2-3,19.4-1.6,5.1,1.1,11.3,1.4,15.4,6.3.9,1,4.1.8,5.9.3,13.9-4.2,26.7-11.3,39.7-17.6,2.8-1.3,6-1.9,8.5-3.5,5.3-3.4,11.1-5.3,15.9-10.2,4.6-4.8,12.4-6.6,18.7-9.7,1.4-.7,3.3-.9,4.1-2,6.4-8.8,17.2-10.4,25.9-15,4.7-2.5,10.1-4.4,15.1-6.8,13-6.2,25.3-13.8,36.6-22.5,6.7-5.1,13.4-10.5,19-17.4,6.9-8.4,16.9-14.4,26.2-20.7,3.1-2.1,8.1-1.2,11.9-2.4,5.6-1.7,10.9-4.3,16.4-6.2,1.8-.6,4.3-.5,6,.3.8.4,1.5,3.7.8,4.5-9.6,11.6-21.4,19.9-35.9,24.1-.3,0-.7,0-1,0-12.5-4.4-16,7.5-21.6,13.3-10,10.3-17.5,23.2-33,26.7-6.3,6.4-15,7.1-22.9,10-.9.3-2.4.8-2.4,1.1.5,10.6-9,9.3-14.4,10.5-6.8,1.5-12.4,4.6-17.4,8.6-2.2,1.8-3.7,5.5-4.1,8.5-1.1,7.4-5.4,11.1-12,13.4-4.8,1.6-8.9,6.7-14.5,1.9-10.6,3.3-22.2,1.8-32.3,9.2-8.8,6.4-20.1,9.4-29.6,15-9.2,5.3-18.7,11.1-24.5,20.2-3.6,5.6-7.2,12.3-3.9,20.3,2.1,5.3,1.7,11.1-4.9,14.3-1.1.5-2.4,2.7-2.2,3.9,1.3,10.6-5.4,21-.7,31.6-5.2,7.6,2.2,16.9-3.3,24.5,2.2,5.1-.2,10.2,0,15.3,0,9.8-2.2,20,.4,29.2,3.5,12.4-1.5,25.7,5.3,37.8,2.3,4.1,1.6,10.9,0,15.7-2.8,8.8-1.2,17.5-1.7,26.3-.3,5.7,0,11.3,0,17,0,7.3,4.7,11.9,12.3,11.7,4.4,0,9.2,1.7,13.2-1.9,11,2.5,21.5-4,32.5-2,8.9,1.7,17.8,3.8,26.7,5.5,3.5.7,7.1.4,10.7.8,12.3,1.3,24,5.7,36.6,5.9,11,0,22.3-2.6,33.2,1.8,8.1-3.3,17.3-1.5,25.1-7,12.5-8.8,25.7-16.7,38.6-25,1.9-1.2,3.2-3.3,5-4.8,2.2-1.8,4.4-3.8,7-4.8,1.9-.7,4.4,0,6.6.2-.4,2.7.2,6.4-1.4,7.9-4.1,3.9-9.1,6.8-13.7,10.1-6.9,4.9-13.8,10-20.9,14.8-4.9,3.3-3.5,8.1-3.4,12.6,0,.7,2.1,2,3.3,2,7,.2,14-.2,21,.2,5.7.3,11.6,3.8,16.5-2.1,7.1,3.5,15,.4,22,2.5,3.6,1.1,7.7,2.5,10,.9,4.3-2.8,9.1-6.8,10.6-11.4,4.9-14.3,14-26.2,20.8-39.4,1.3-2.5,2.9-4.5,3.9-7.4,1.7-4.9,5.1-9.6,8.8-13.3,13.2-13.1,23.9-28.2,36.1-42,7.3-8.3,16.3-15.1,24.4-22.8,5.8-5.5,11.3-11.2,16.9-16.8,18-18.1,36.6-35.6,58.7-48.9,7.1-4.3,8.2-7.4,5.3-15.6-1.2-3.4.7-4.6,2.2-5.4s3.9-1.9,5.3,1.6c2.2,5.5,5.3,4.7,9.8,1.3,6.7-5.1,14.6-8.5,21.2-13.8,6.6-5.2,12-11.7,18.9-16.8,15.9-11.8,30.8-25.1,47-36.4,11.2-7.8,21.4-16.4,31.5-25.5,13.3-12,28.2-22.4,41.7-34.2,18.2-16,38-29.9,57.9-43.8,13.5-9.5,27.3-18.8,39.6-29.8,16.2-14.6,34.5-26.3,51.8-39.3,2.4-1.8,5.5-2.7,8.2-4.3,18.2-10.8,36.3-21.7,54.5-32.5,10.7-6.4,21.5-12.4,32.1-19,5.6-3.5,10.9-7.6,16.3-11.5,5.4-3.9,10.7-8,16-12,2.5-1.9,5.3-3.5,7.6-5.7,15.4-14.7,32.7-27.3,47.3-43,9.8-10.6,21.1-19.9,31.5-29.9,1.3-1.3,1.7-3.6,2.5-5.5-2-.8-4.4-2.8-5.9-2.3-13.5,5-27.8-1-41.6,3.4-3.1,1-8,.8-12.2.6-19-.9-38.1-1.1-57.2-2.2-11.5-.7-23.5-.8-34.2-4.4-11.5-3.8-23.5-4.9-34.7-10.3-12.8-6.1-26-11.4-38.3-18.6-3.8-2.2-8.6-5.5-12.9-.2-2.4,3-3.6-.2-4.1-1.2-1.6-3-2-6.6-3.8-9.4-1.9-3-4.7-5.6-7.5-7.8-10.2-8.1-20.5-16.3-31.1-24-12-8.7-25-16.1-36.2-25.7-11.3-9.5-22.7-18.7-35.1-26.6-14-8.8-28.8-15.5-45.5-18.1-12.8-2-25.5-3.1-38.3-4.1-9.1-.8-18.1-1.8-27.2-1.5-12.7.4-25.5,1-38.2,2-11.5.9-23.1,1.8-34.3,4.1-18.6,3.8-37.3,7.4-55.6,12.8-16.7,4.8-33.3,9.8-49.8,15.2-12.6,4.1-25,8.9-37.2,14-11.9,4.9-22.7,11.6-29.2,23.4-.7,1.2-2.6,1.6-3.9,2.5-3.3,2.4-6.8,4.7-9.9,7.5-2.7,2.4-5.1,4.5-9,5-10.9,1.4-18.9,9.1-28.2,14-9.8,5.2-19.8,10.2-29.6,15.5-10.4,5.6-20.6,11.4-31,17-5.4,2.9-11,5.7-16.5,8.5-27.1,14.1-54.6,27.7-81.3,42.6-18.4,10.3-37.7,18.3-57.3,26-4.3,1.7-9.1,3.4-12.2,6.5-3.7,3.8-7.7,3.9-11.7,3.1-6-1.1-11.8-1.6-17.7,0-.9.3-2.2.4-3,0-4.2-2.4-7.9-1.8-12.5-.4-2.5.8-6.2-.3-9.6.3-2.2.4-4.8-1-7.2-1.8-3.8-1.2-8.7-.8-13.1.9-.6.2-1.6.2-2.1-.2-4.9-3.5-9.8-3.3-15.1-.9-.7.3-1.9-.6-2.3-1.4.2-1.2-.2-1.8-.5-2.5-3-3.9-6.5-1.9-10-.5-8.4-.9-16.8-2.1-25.1-3.8-1.5-.3-4.2-2.5-1-4.8-4-.5-8-1.1-11.9-1.6-1,5.4-3.2.8-5.1.9-10.5.7-19.3-4.8-28.4-7.8.5-1.1.6-1.7.6-2.4-.4.6-.8,1.2-1.1,1.9-3-1.3-6-2.7-9.5-4.5-2.3-.9-4.4-.9-5.7-1.9-5-3.6-1.9,1.6-2.8,2.4-4.5-3.2-12.8,1.1-14.5-7.5,0-.3-1.2-.7-1.7-.5-10,4.5-18.3-2.3-27.3-4-2.2-.4-4.3-.7-6-1.5,1.4-.5,2.4-.3,3.3-.5.7-.2,1.3-.7,2-1.1-.5-.3-1.2-.9-1.5-.8-1.5.5-2.9,1.3-4.3,1.9M1339,1636c2.4-3,4.8-6,7-9.1,2.7-3.8,5.3-7.7,8-11.7.6-.9.9-1.9,1.4-2.9-1.1.2-2.5,0-3.4.7-8.4,5.3-12.7,13.2-15,22.9,0,.6,0,1.2,0,1.9.4-.6.8-1.2,2.1-1.9M1339,1682c-2,.7-4.2,1.1-6.1,2-6.5,3.4-14.3,4-19.8,9.8-8.2,8.6-16.8,16.7-25,25.3-1.6,1.7-3.4,5.1-2.7,6.7,2.2,5.2,6,.8,7.8-.3,13.6-8.3,26.8-17.1,40.1-25.8,4.5-2.9,8.8-6,13.1-9.1.6-.4.9-1.4,1.3-2.1-.9-.2-1.9-.7-2.7-.5-1.2.2-2.2,1.2-3.4,1.4-1.1.2-2.3-.2-3.4-.4.2-.9.3-1.8.5-2.7.4-1.5.9-2.9,2.4-4.4,0-.6,0-1.2,0-1.9-.4.6-.8,1.2-2.1,1.9M1213,1584c-6.5,1.9-13,4.7-19.7,5.5-12.8,1.5-24.1,9.8-37.5,8.6-.5,0-1.1.6-1.7.8-13.8,4.4-27.5,9.3-41.5,13-11.8,3.1-23.6,6-35.6,8.4-9.6,2-18.4,7.4-28,9.3-9.7,1.9-16.6,12.4-27.9,8.4-8.9,4.8-19,5.6-28.4,8.6-13.7,4.4-26.9,10.5-40.3,16-6,2.5-11.9,5-17.8,7.8-7.8,3.7-15.6,7.5-23.1,11.8-2.4,1.4-3.6,4.7-5.3,7.1,2,.9,4.1,1.6,5.8,2.8,7.5,4.9,17.7-1.6,24.7,5.7,0,0,1-.5,1.3-.9,3.1-3.5,6.7-.9,10-.8,3.9,0,8.1,1.6,11.7.8,7.2-1.6,14.3-3.4,21.8-2.9,4.8.3,9.3-.4,14.1-2.1,4.2-1.5,9.6,0,14.4,0,.8,0,1.5-1.2,2.4-1.4,4.3-.9,8.6-1.6,12.9-2.6,2.4-.5,4.8-1.7,7.2-1.9,2.5-.2,5.5,1.3,7.6.5,5.3-2.3,10.8-2.3,16.3-2.4,4.1,0,8.5.3,12.3-.6,3.9-.8,7.7-3.1,11.7-1.9,5.2,1.6,8.3-2.4,12.1-3.8,8.3-3.2,17.1-2.1,25.8-5.2,14-5.2,29.5-6.4,44.4-8.7,10.7-1.7,21.3-4.7,31.8-7.5,9-2.3,17.8-5.4,26.6-7.9,14-4,28.3-7.3,41.7-12.8,4.6-1.9,10.3-.7,14.2-5.4,1.6-1.9,5.9-2.1,8.9-2.1,8.5,0,15.5-4.9,22.5-8.3,5.3-2.6,10.9-4.2,16.1-5.3,10-2.2,16-8.3,19.9-16.4,4.5-9.3,8.2-18.8,14.8-26.9.6-.7,4.1-3.3.8-6.2-1.3-1.2-.8-4.4-1.1-6.8-2.7.6-5.6,2.1-8.1,1.6-4.7-.9-8.4.7-12.6,2-4.6,1.4-9.7.6-14.6,1.2-5.4.6-10.8,1.6-16.2,2.5-10,1.5-20,3.2-30.1,4.6-6.7.9-13.5,1.2-20.1,2.1-4.6.7-9.1,2-13.7,3.2-9.9,2.5-19.8,5.2-30.8,8.7M1355,1666c3.4-.6,6.8-2.1,10.1-1.7,6.3.8,15.4-1.3,19.2-5.6,2.3-2.7,4.9-4.8,7.9-6.9,7.6-5.4,15.2-11.4,21.1-18.6,2.8-3.4,6.1-4.8,9-7.2,3.1-2.6,5.3-6.1,8.1-9.1.5-.6,1.8-.5,2.7-.7,6.3-1.6,11.8-4.3,15.8-9.7,2.3-3.1,3.5-2.9,7.6-.9.9.4,2.4.3,3.3-.2,12-6.5,24-12.9,35.7-19.8,3.6-2.1,5.4-7.1,10.7-6.5,3-7.1,9.3-8,15.8-10.6,8.3-3.4,20.8-4.3,21.1-18.1,0-1,1.8-1.9,2.7-2.8,3.9-4.1,9.7-7.4,4.5-14.7-1-1.4.8-5.4,2.1-7.8,4-7.3.8-14.4-.6-21.5-.2-1.3-3.4-2.8-5.1-2.8-4.1,0-8.2,1.2-12.3,1.4-5.6.3-11.3,0-17,0s-11.4-.4-17,0c-5.2.5-10.6,0-15.3-.7-6.8-.9-13.5-1.5-20.2-1.3-3.6,0-8.2.7-10.6,2.9-6.4,5.9-12.3,12.5-17.5,19.5-2,2.7-3.2,7.6-2.2,10.5,1.3,3.5,6.2,2.9,9.9,3.7,4.2.9,8.9-3.7,12.4,1.2,3.5-4.4,6.7-2,10.6-.2,2.4,1.2,6-.2,8.9.4,2,.4,4.4,1.6,5.4,3.2.7,1-.2,4-1.4,5.1-8.2,7.9-16.3,16.1-25.3,23.1-5.5,4.2-12.5,6.5-19,9.4-8.7,3.9-17.9,6.8-26.3,11.3-9.5,5.1-20.6,5.9-28.9,15-8.4,9.3-9.9,8-15,19.6-.6,1.4-2.2,2.5-3.4,3.6-5.9,5.8-13.1,10.7-14.6,19.8,0,.7-1.2,1.8-1.7,1.7-5.2-.6-4.7,4-6.2,6.6-.9,1.6-1.3,3.7-2.6,4.9-5.6,5.4-5.6,5.3,0,9.1.5.4,1.1.9,1.4,1.4,3.1,5.3,6.1-1.1,9.4,0,3.3.9,5.4-1.3,6.7-5.8M1536,1573c-9.7,7.1-19.3,14.3-29.2,21.2-14.4,10-29.1,19.8-43.6,29.7-.9.6-1.9,1-2.9,1.4.9.2,1.8.6,2.7.7,4.7.6,10-1.8,13.7,3.4.3.4,2.7-.5,4-1,10.1-4.6,20-9.6,30.8-12.4,14.7-3.8,29.5-7.5,43.9-12.2,7-2.3,14.1-5.7,20.9-7.2,15-3.3,28.7-9.8,43.5-13.6,10.7-2.7,20.8-7.5,31.4-11,11.8-3.8,22.4-9.4,31.6-17.7,1.1-1,3-2.5,4-2.2,4.6,1.5,6.6-2.5,9.3-4.3,6.7-4.5,14-9.8,15.5-17.8,1.1-5.7,2.3-9.1,7.2-12,4-2.4,6.3-8.6,4.4-11.2-4.6-6.2-8.3-13.8-16.5-16.9-4-1.5-7.9-3.6-11.5-5.9-5.9-3.9-12.4-1.4-18.5-1.6-3.8,0-7.9,3.2-11.5,5.6-11.1,7.8-21.9,16.2-33.1,23.9-7.7,5.3-16.4,9.2-23.7,15-10.9,8.7-21.8,17.2-34.5,23.1-4.8,2.2-10.2,3.8-13.8,7.3-6.8,6.6-15,10.3-24,15.6M1652,1437c-10.3-3.9-20.9-5.5-31.9-5-12.7.6-25.4,1.3-38.2,2-6.6.3-10.4,5.6-15.4,8.7-1.5.9-1.7,3.8-2.6,5.8,2,.5,4.1,1.3,6.1,1.4,3.6.2,7.5.7,10.9,0,13.9-3.1,13.9-3.3,28.1,2.2.6.2,1.3,0,2,0,6.1.7,12.2,1,18.1,2.1,3.9.7,7.7,2.3,11.5,3.7,4.1,1.4,8-1.4,12.3,0,4.4,1.5,9.4,1.6,14.1,2.1,2.3.3,4.9-.7,6.9.2,8.3,3.4,16,3.1,23.4-2.1,1.9-1.3,5.3-3.7,5.9-3.2,4.1,3.6,4.9-1.7,7.2-2.2,3.4-.8,4.6-3.1,3.3-5.4-1.3-2.3-1.7-5.9-6.5-5.4-6.9.8-14.2,1.2-20.9,0-11.1-2-22.1-3.9-34.4-4.8M1604,1517c8.2-7.9,18.9-13.7,30.1-17.1,2.2-.7,3.9-3.3,5.9-5-1.2-1.1-2.5-2.1-3.4-3.4-.5-.6-.7-2.2-.3-2.6,2.3-2.2,1.9-3.3-1.2-2.9-4.1.5-8.1,1.2-12.1,2-6.8,1.3-13.5,3.4-20.3,3.8-8,.5-14.9,5.8-23.3,4.4-3.4-.6-13.1,9.3-13.2,12.9-.2,6.6-.3,13.3,0,19.9,0,1.7,2.3,4.8,3.6,4.8,4.4,0,9.3,0,13-2,7.1-3.9,13.5-9.1,21.3-14.8M1550,1491c2.1-2.8,4.3-5.5,6.3-8.4.8-1.1,1.5-2.9,1.1-4-2-7.2-8.5-10.4-16.5-8.6-1.9.4-4,0-6,0-8.3,0-16.7-.5-24.9.2-5.8.5-13.6.9-16.6,4.5s-5.7,8.2-8.9,12.1c-.8.9-.7,3.6,0,4.4.8.9,3.4,1.3,4.5.7,8.6-5.2,17.9,4.3,26.4-1.5,5.4,3.1,10.7,1,16.2.4,5.7-.5,11.6.7,18.4.2M1413,1556c-4.4,5.7-4.1,14.4-11.7,18.1,0,0,.2,1.8.6,1.8,3.5.8,6.9,1.5,10.4,2,1.1.2,2.8,0,3.5-.9,3.1-3.3,9.6-1,11-6.8,5.1.7,7.4-5.1,11.6-5.4,6.1-.4,10.3-4.2,15.1-6.8.8-.5,2.9-10.6,2.1-11.2-.7-.5-2.1-1-2.6-.7-6.1,3.9-12.8,1.9-19.1,1.7-8-.3-13.9,3.3-21,8.2M1374,1567c-3.5,5.5-7,11-10.6,16.6-1.2,1.8-2.8,3.6-3.3,5.6-.6,2.4-1,5.5,3.5,4.9,3.2-.4,7.5.9,9.6-.7,5.4-4.2,10.4-9.2,14.7-14.5,3.1-3.8,4.9-8.5,7.1-12.9,1.2-2.5,2.4-5.1,2.8-7.8.5-3.2.6-7.3-3.6-7.8-3.5-.5-7.7,0-8.4,5.2,0,1-2.6,2.6-2.7,2.5-4.6-4.3-5-1.6-5.3,2.8,0,1.5-2.5,2.9-3.8,6.3M1602,1469c-4,.4-9.1,1.7-11.9.6-7.9-3.2-13.2,0-18.9,4.2-5.8,4.2-6.3,6.5-.6,9.7,3.3,1.9,6.7,3.1,11.5,1.9,8.8-2.1,18-2.7,26.8-5.2,1.8-.5,5-.9,5.8,0,4.1,5,7.7-1.2,11.5-.2.3,0,1.2-1.1,1.1-1.5-1.4-6.3-6.6-10.6-13.2-10.3-3.7,0-7.4,1.2-12.1.9M1506,1451c-2.3,3-4.6,6-7.1,9-.6.7-1.6,1-2.5,1.5.9.2,1.9.6,2.7.5,8.4-1.1,16.6-3.3,25.2-3.3s6.8,0,10.1.8c6,1.6,11.5-.6,16.1-3.3,6.7-4,6-7.5,1.3-13.8-3.6-4.8-6.3-.4-9.2-.3-12.4,0-23.7,4.9-36.5,8.9M1421,1506c-9.1,7-14.3,17-20.3,26.4-.5.7.2,2.9,1,3.5,6.7,4.4,13.5,2.1,18.3-5.7,3.7-5.8,7.8-11.3,11.7-17,3-4.4,5.2-8.9,6.9-14.1,1.7-5.2-1.1-3.2-2.5-3-6.2.6-10.1,4.9-15.2,9.9M1473,1478c1.4-9.4,1.3-9.5-7.5-6.6-2.6.9-5.3,1.7-7.9,2.6-6.5,2.2-7.5,5.3-3.6,11.1,3.1,4.5,6.5,5.3,9.6,2.2l9.3-9.3M1546,1191c-.7,1.4-2.2,3.1-1.8,4.1,1.5,4,3.5,7.8,5.6,11.6.4.8,2.7,1.5,3.2,1.1,3.6-3,4.2-7.5,5-11.8v-1c-.6-5.4-5.2-7.5-12-4M1416,1483c6.9,1.6,13.8,2.1,20.5-1.1.8-.4,1-1.9,1.5-2.9-.9.3-1.9.8-2.8.8-3,0-7.7,1.8-3.7-4.4,2.2-3.5-1.6-4.2-3.3-3.2-4.3,2.5-8.2,5.8-12.2,10.8M1740,1451c.2.9.5,1.8.7,2.7,1-1,2.1-1.9,3.1-2.9-2.9-1.8-.4-2.8.5-4.2,1.2-1.8,3.2,4,3.5-.4,0-.6-2.6-1.8-4.2-2.1-1.9-.4-4.3-.7-5.8,0-2.2,1.1-3.8,3.3-5.7,5,1.8-.2,3.7-.4,5.5-.4s.9.9,2.4,2.3M1422,1307c-.6,1.4-1.3,2.7-1.9,4.1.5,0,1.2.5,1.4.4,1.4-1.6,4.2-2.8.5-4.5M1411,1542c-.3-.7-.7-1.3-1-2-.3.7-.7,1.3,1,2M1300,829c-.4-.3-.8-.5-1.2-.8,0,.6,0,1.2,1.2.8M1238,811c.4.3.8.5,1.2.8,0-.6,0-1.2-1.2-.8M1164,787c.4.3.8.5,1.2.8,0-.6,0-1.2-1.2-.8Z"/>
          <path d="M122.5,1529.5c5.2,16.5,18.3,22.8,32.3,28.6,11.5,4.8,23.4,6.6,35.7,8.2,21.4,2.9,42.8,1,64.2,1.5,9,.2,18.1-1.3,27.2-1.8,5.8-.3,11.4.8,17.4.2,11.7-1.3,23.2-2.6,34.5-6.1,10.5-3.3,21.4-5.4,32.5-6.3,6.5-.5,12.9-2.6,19.2-4.2,9-2.4,18.2-4.2,26.7-7.8,9.3-4,18.9-2.8,28.4-4,13.9-1.8,27.4-2.7,40.9,2.1,5.3,1.9,11.4,2.1,17.1,2.1s13,2.1,19.4,3.8c5.5,1.4,6.7,4,6.8,8.6,0,.7.2,1.6.6,2.1,6.7,8.3,8.9,16.7,2.8,26.7-3.8,6.2-5.8,13.6-8.2,20.6-3.9,11.2-12.5,18-21.7,24.4-13,9.1-27.8,13.4-42.6,17.9-9.8,3-19.9,5-29.6,8.2-5.5,1.8-10.6,5.1-15.7,7.9-12.3,6.6-24.5,13.2-36.7,20-13.3,7.5-26.5,15-39.5,22.9-6.7,4-13,8.9-19.6,13.1-8.7,5.5-18,10.1-26.2,16.2-6.4,4.7-13,9.1-18.9,14.8-8.7,8.5-18.9,15.3-28.3,23-5.3,4.3-10.3,8.9-15.5,13.2-5.9,4.8-11.7,10-18.2,14-6.8,4.2-11.8,9.6-15.6,16.4-.8,1.4-3.7,1.4-5.1,2.6-11,10.1-21.6,20.5-20.9,37.3.1,3.5.4,6.3,3.3,8.8.9.8.6,3,.8,4.6-1.8.2-3.8,1-5.3.5-2.3-.9-4.6-2.3-6.2-4.2-4.8-5.4-9.8-5.4-15.2-1.4-6.1,4.5-12.1-1-18.3-.2-1.4.2-4-2.8-4.7-4.8-.7-1.9.3-4.4.5-6.6,1.6.8,3.3,1.3,4.8,2.3,7.3,4.9,7.8,4.8,11.8-2.9,3.4-6.6,7.4-13,9.7-19.9,3.1-9.1,4.9-18.7,6.9-28.1.8-3.7-.9-5.2-4.3-2.2-6.6,5.8-13.6,2.2-20.4.5-3.4-.8-4-4.3-1.3-6.6,2.3-2.1,5-4.3,7.8-5.1,12.9-3.9,13.1-3.7,20.3-11.2,11.2-11.6,22.4-23.2,33.2-35.2,13.2-14.7,26.1-29.8,38.9-44.9,3.2-3.8,5.9-8.2,8.4-12.5.7-1.2.7-3.8-.2-4.6-.8-.8-3.2-.8-4.6-.3-12.6,4.1-25.4,7.8-37.6,12.9-6,2.5-11.6,6.5-15.8,12.3-8.6,11.9-18.1,23.1-26.7,35-9.5,13.3-18.5,27-27.6,40.5-1.7,2.6-2.7,6.2-5.1,7.8-11.9,8.1-11.4,20.6-13.2,32.7-.8,5-.2,9.7-.4,14.4,0,4.3-3.1,9.2-3.5,14.3-.2,2.6-2.2,5-3.6,7.5-1,1.8-2.3,3.4-3.5,5.1-1.6-2.3-4.6-4.7-4.5-7,.2-5.6,1.8-11.2,2.7-16.8,2.3-13.9,5.7-27.8,1-41.9-.6-1.7-1.1-3.6-2.1-5.1-2.8-4.7-2.7-8.1,2.2-10.8,7.5-4.2,9.4-11.1,9.7-18.4.4-8.7,1.1-17.1,4.1-25.4.6-1.8.2-4,0-6,0-.8-.7-1.6-1.1-2.4-.9.6-2.4,1-2.7,1.8-3.9,8.5-10.1,16.4-8.1,26.6,1.2,5.8-3.8,8-6.9,11-.4.4-4.9-1.8-4.9-2.8,0-4.4,0-9.2,1.5-13.3,5.6-16.1,13.5-31.1,21.7-46,1.6-2.9,2.3-6.6,2.5-9.9.9-14.4,1.4-28.8,2.1-43.1,0-1.5.9-3,1.1-4.5.4-4.2.9-8.4.8-12.6,0-5.7-5.8-3.2-8.6-5-5.9-3.7-6.1-5.1-3.6-11.8,1.4-3.7,3.5-2.4,5.3-2.3,5,.2,6.4-2,7.2-6.9,1.2-7.9-.7-15.6-.3-23.4.4-8-.3-16,.2-24,1-17.3-2.3-34.3-4.3-51.3-.6-5.1-3.4-9.9-5.1-14.8-1.2-3.4,1-8.6,4.2-9.5.9-.3,2.9.4,3.3,1.2,3,6.9,7.9,11.6,14.7,14.7.6.3,1.1,2.9.7,3.2-7.2,6-5.4,14.1-5.1,22.3M322,1671c-2.1,2.1-4.2,4.2-6.4,6.4-13.4,13.4-26.9,26.9-40.3,40.3-1.6,1.6-2.9,3.9-5.6,1.2-2.1-2.2-2.8-4.3-.7-6.9.4-.5.9-.9,1.4-1.4,9.9-10.6,19.7-21.2,29.7-31.7,8.1-8.4,16.5-16.5,24.6-24.8,1.4-1.4,3.1-4.2,2.6-5.4-1.4-2.7-3.8-3.5-7.3-1.9-11,4.8-22.3,8.9-33.3,13.7-3.5,1.5-6.7,2.9-10.5,3.8-11.8,2.7-22,8.4-28.2,19.6-7.9,14.4-19.6,25.9-29.6,38.7-5.4,6.9-11.8,13.1-17.6,19.8-10.2,12-20.3,24.3-30.4,36.4-2.1,2.4-3.7,4.6-4.7,8.1-2.2,7.4-3,14.8-4.1,22.4-.3,2.1-.8,3.4.9,4.2,1,.5,3.1,0,4-.7,4.9-4.6,9.6-9.2,14.2-14.1,4.2-4.5,9-7,15.4-6.5,2.8.2,6.3,0,8.3-1.4,14.7-11.5,29.3-23.1,43.4-35.3,15.3-13.2,30.1-26.9,47.5-37.4,19.2-11.6,38.2-23.6,57.4-35.3s12.6-8.3,19.4-11.2c10.1-4.2,17.9-12.2,28.5-15.7,6.6-2.2,12.4-7.2,18.2-11.5,3.2-2.3,6.3-5.5,4.3-10.2-3.1-7.4-4.7-14.2,2.4-20.6,2.5-2.2.4-5.5-3.3-5.3-10.4.8-20.2,3.5-29.7,7.8-20.1,9.1-38.4,20.7-53.8,36.6-5.4,5.6-10.4,11.7-16.6,18.5M153,1652c-1.4,1.4-3.1,2.7-4.2,4.3-9.2,13.2-16,28-27.6,39.6-.8.8-1,2.3-1.2,3.5-.7,3.7-1.8,7.4-1.9,11.2,0,3.4,0,7.5-.5,10.2-3.6,14.7-2.3,29.9-5.4,44.6-.7,3.3.5,7,.8,10.6,2.3-2.3,4.7-4.5,6.9-6.8,2.1-2.1,4.3-4.2,6.1-6.5,11.4-14.6,22.8-29.2,34.2-43.8,2.6-3.3,5.2-6.5,7.7-9.8.3-.4.4-1.6,0-1.9-.6-.6-1.8-1.3-2.4-1.1-10,3.1-20,6.5-30.1,9.3-2.3.6-4.8,5.3-7.2,1.4-1.9-3,1.1-5.6,3.5-7.3,2-1.4,4.2-2.6,6.6-3.4,6.4-2.2,13-4.1,19.5-6,12.8-3.7,25.8-7.1,34.2-18.9,6-8.5,12.3-16.9,18.1-25.5,8-12,14.8-25,23.9-35.9,8.1-9.7,13.4-20.3,17.5-31.9,1.4-3.9.5-6.3-3-7.7-2.6-1-5.8-2.6-8.1-1.8-5.4,1.8-10.3.2-15.4,0-9.3-.5-18.7,0-28-.2-3.6,0-5.8.9-7,4.9-1.2,4.4-3.7,8.5-5.9,12.5-6.4,11.7-13,23.3-19.3,35-3.7,6.8-7.1,13.7-11.6,21.6M272,1651c-.7,1.1-1.7,2.1-1.8,3.2,0,.5,1.6,1.6,2.6,1.7,1.1,0,2.4-.6,3.5-1.1,14.9-6.8,29.8-13.6,46-16.9,12.6-2.5,24.2-7.3,32.6-17.8,2.2-2.7,4.3-5.5,6.4-8.4,5.4-7.4,10.9-14.8,16.2-22.3.5-.6.3-1.8.4-2.7-.9.4-1.9.8-2.8,1.2-.9.3-1.9.3-2.7.8-12.5,6.9-24.2,15-34.8,24.7-2.1,1.9-4.5,3.5-6.9,4.9-1.2.7-2.7.8-4.1,1.1.2-1.8-.4-4.1.6-5.3,2.7-3.4,5.7-6.6,9.1-9.2,10.5-8.2,21.2-16.2,32-24.1,6.3-4.6,12.7-8.9,20.6-10.7,4.3-1,6.1.5,5.2,5-.4,2.1-1.2,4.2-2.3,6-4.6,7.5-9.5,14.7-14,22.2-2.7,4.5-5.1,9.2-7.6,13.9-.3.5,0,1.3.1,1.9.7-.2,1.6,0,2.1-.5,4.9-3.5,9.5-7.6,14.7-10.5,8.9-4.9,18.4-8.7,27.3-13.6,13.8-7.6,27.7-14.9,42.3-20.9,3.8-1.6,7.5,1.4,10.6-1.5.3,2.9.7,5.8.8,8.7,0,1.6.2,3.5-.6,4.7-3.5,5.1.3,4.5,3.3,4.4,1.2,0,2.4-.6,3.5-1.1,11.9-4.5,18.5-15.2,27.2-23.5,3.1-2.9.1-10.1-4.3-11.3-4.6-1.2-9.5-1.1-14.1-2.3-13.9-3.8-28.1-4.1-42.4-3.7-2,0-4,1.4-6,1.4-8.6,0-16.9,1.4-25.1,4.1-10.9,3.5-22.8,3.9-32.7,10.4-.7.5-2,0-3,0-10.4,1.3-21.1,1.7-31.3,4.3-8.6,2.2-18.2,4.1-23.9,12.1-9.2,13.1-17.8,26.6-26.7,39.9-6.5,9.7-13.3,19.2-20,30.7M173,1576c-.7-.7-1.4-1.9-2.2-1.9-13.8-1.1-25.4-7.6-37.1-14.1-2.7-1.5-5.5-2.7-8.3-4-.5,3.1-1.2,6.1-1.3,9.2-1.2,24.3,1.9,48.7-1.9,73.1-1.2,7.8,1.5,16.4-.6,23.8-2.4,8.3,1.9,15.7.5,23.4,0,.7.6,1.6,1,2.4.3-.9.4-2.1,1-2.5,3.8-2.8,3-7.5,4.8-11,3.2-6.1,7.3-11.6,11.1-17.4,5.2-7.8,11.2-15.3,15.3-23.6,6.3-12.5,13.3-24.5,20.4-36.5,2.6-4.4,3.2-10,4.1-15.2.7-3.4-1.3-5.5-6.9-5.7M217,1660c-1.2,1.8-2.3,3.7-3.5,5.5-3.7,5.1-7.6,10.1-11.2,15.4-.7,1,0,3.1.4,4.6,0,.3,2,.6,2.5.2,12.7-9.3,28.8-10.7,42-19.3,9-5.9,17.9-16.6,16.7-26.9-.3-2.4-1.6-4.7-1.9-7.2-.4-4.5,3.7-8.7,7.4-7.8,4.8,1.1,10.9-.9,13.2-4,6.8-9.5,13.6-19,20.5-28.5,7.3-10,6-13.7-5.4-15.1-.7,0-1.4.5-2.1.6-6.6.2-13.2.9-19.7.5-8.7-.6-12.4,2.1-16.1,9.5-4.1,8-5,17.1-10.5,24.7-11,15.2-20.9,31.2-32.3,47.9M470,1599c-2.7-.6-5.9-2.3-8.2-1.6-12.8,4.4-22.7,13.1-31.2,23.3-2.1,2.6-2,7.1-2.5,10.8,0,.6,1.9,1.6,2.9,2.4,1.8-3.7,4.4-.3,5.2.3,4.6,3.2,10.1,2.8,14.2,1.5,13.5-4.3,27.4-6.8,40-14.6,11.1-6.9,18.9-15.6,24.1-27,1.3-2.8,1.8-8.5.3-9.6-2.7-2.1-6.6-3.6-11.4-1.4-8.3,3.8-14.9,8.6-19.6,16.6-4.8,8.2-8.6,8.1-13.9-.7M433,1594c-.7.7-1.5,1.3-2.2,2-1,.9-1.9,1.8-2.8,2.7,1.1.4,2.3,1.3,3.3,1.2,3.7-.5,7.9-.4,11-2.2,3.1-1.8,7.8-6.8,7.2-8-1.9-3.7-5.7-2-8.8.2-2,1.4-4.4,2.1-7.7,4.1M512,1567c-2,2.8-4,5.6-5.9,8.5-.1.2,1.1,1.8,1.6,1.8,5.1-.8,9.7-7.5,8.2-12.1,0-.4-2.5,0-3.8,1.8M150,1851l1.5,3c1.5-1.7,3.1-3.4,4.4-5.2.3-.5-.5-1.7-.7-2.6-1.4,1.3-2.8,2.5-5.2,4.8h0Z"/>
          <path d="M1014,1470.5c5.1-1.9,10.5-2.6,15.1-4.9,3.8-1.9,7.2-3.8,11.5-3.6,1.2,0,2.5-.5,3.5-1.1,6.4-4.1,34.7-15.3,43.4-16.8-6.3,3.3-12.9,6.9-19.8,9.9-14.1,6.1-28.3,12-42.6,17.9-16.5,6.8-33.2,13.2-49.6,20.3-6.5,2.8-12.7,6.5-18.8,10.2-10.8,6.7-21.9,12.8-33.6,17.9-5.9,2.6-11,7.2-16.8,10.2-5.7,3-11.2,6.7-17.8,7.7-1.5.2-2.9,1.1-4.2,2-7.6,5.2-16.5,7-24.7,10.5-10.9,4.6-22.3,7.4-33.2,11.5-15.6,5.9-31,12.3-46.9,17.1-15.5,4.6-29.4,12.8-44.8,17.6-9.8,3.1-18.4,10.1-27.7,15.1-11.9,6.5-23.1,14.3-36.3,18.6-6.4,2.1-12.5,5.7-17.9,9.8-11.1,8.4-24,12.8-36.6,17.9-8.3,3.4-16.6,6.8-24.4,11.1-12.9,7-27,10.5-40.8,15-12.6,4.1-24.9,9.1-37.5,13.1-8.9,2.8-18.2,4.4-27.1,6.9-6.8,1.9-13.6,4-20.2,6.7-12,4.9-23,11.8-35.5,15.7-6.1,1.9-11.4,6.1-17.3,8.9-11.1,5.3-21.1,12.9-33.9,14.9-4.9.8-9,5.3-13.8,7.6-16.1,7.8-32.7,14.5-48.6,22.6-14.3,7.3-28.7,14.4-42.9,22.1-9.3,5-18.4,10.2-27.5,15.6-7.7,4.5-14.8,10.3-24,12-.8.2-1.4,1.3-2.2,1.8-13.8,9.1-29.2,14.6-44.4,20.7-1.1.5-2.3,1.1-3.5,1.2-.8,0-2.1-.2-2.5-.8-.4-.6-.2-2,.4-2.6,1.6-1.6,3.1-3.7,5.1-4.4,17.1-5.7,32.6-14.6,48.8-22.2,7.6-3.5,14.8-7.8,22-12,5.4-3,6.6-6.7,5.5-13.8-.4-2.9-.7-6.5,2.7-7.7,3-1.1,6.1-.8,8.9,2.1,6.2,6.7,6.4,6.6,14.6,2.2,9.3-4.9,18.5-10.1,27.9-14.7,14.1-6.9,28.7-12.8,42.6-20.2,14.4-7.7,29.4-14.4,43.9-21.9,20-10.3,40.2-20.5,61.2-28.4,15-5.6,29.3-13.2,45.5-15.7,6.5-1,12.7-4.7,19-7.2,2.3-.9,4.5-2.1,6.9-2.5,6.2-1.2,11.9-3.3,17.7-5.4,10.5-3.6,20.8-8.4,31.7-10.3,4.9-.9,7.5-5.5,11.7-5.5,6.5,0,11.7-3.2,17.1-5.5,8.2-3.5,16.2-7.7,24-11.9,24.3-13,48.5-26.1,72.7-39.4,10.6-5.8,20.9-12.3,31.6-17.8,5.4-2.8,11.6-4.1,17.4-6.1,1.7-.6,3.8-.9,5.1-2.1,4.2-3.7,8.5-5.6,14.5-6.6,4.1-.7,8.7-4.2,13.6-5.4,4.3-1,8.3-2.6,12.4-4.9,7.6-4.4,16.9-5.7,25.5-8.2.4,0,1.6.6,1.6.9-1,7.2,3.7,2.3,5.4,2.2,3.7-.2,7.5-1,11.1-2,1.3-.4,2.2-2,3.3-3.1-.5-.5-1-.9-1.4-1.4-1.9-2.7-2.4.2-3.5.8-1.1.6-2.2,1.7-3.2,1.7-2.5,0-5.1-.5-7.6-.9,2.2-1,4.4-2.1,6.7-3,24.8-10,50.5-18.1,73.9-31.6,5.6-3.2,11.6-5.7,17.5-8.5,1.1-.5,2-7.8,1.1-9.7-.8-1.7-1.9-3.2-2.8-4.9-.6-1.1-.9-2.3-1.4-3.5,2-.6,5.1-2.2,5.9-1.5,2.2,2.1,3.4,5.1,5,7.8-4.3,1.3,4.3,7.8-3.1,7.9.5.6,1.1,1.9,1.4,1.8,2.1-.5,4.2-1,6.2-2,2.5-1.2,2.6-3.2-.2-3.8-2.7-.7-2.5-1.4-.7-2.6.6-.4,1.9-.3,2.8,0,1.4.6,1.9,3.7,4.3.9,7.8-9.3,19.9-11.5,29.7-17.6.8-.5,2.5-.5,3.3,0,5.9,3.8,5.9,4,10.9,1.6,9.2-4.4,18.3-8.9,27.4-13.9M798,1567c1.3-.7,2.6-1.4,4-2-1.3,0-2.6,0-4,2M954,1497c-.7.3-1.3.7-2,1,.7.3,1.3.7,2-1M869,1542c.3-.4.5-.8.8-1.2-.6,0-1.2,0-.8,1.2M804,1565c.4.3.8.5,1.2.8,0-.6,0-1.2-1.2-.8M761,1582c.3-.4.5-.8.8-1.2-.6,0-1.2,0-.8,1.2Z"/>
          <path d="M734,1486c1.8-.8,3.5-2.1,5.4-2.3,9.1-1.1,17.1-5.5,25.8-7.7,2.4-.6,5.6-1.4,6.5-3.1,2.5-4.8,6.9-5.5,11.2-6.9,7.4-2.3,11.9-10.2,20.5-10.6,3.9-.2,7.8-2,11.5-3.5,2.2-.9,4-3.2,6.2-3.8,2.5-.7,5.4.2,7.9-.3,1.7-.3,4.4-1.7,4.6-2.8.4-2.7,1.9-4,3.7-2.9,6.5,3.7,11.7-1.7,17.6-2.2,11.6-1,22.3-6,33.7-8,1.1-.2,2.1-1.3,3.2-1.9.6-.4,1.2-.9,1.8-1.3-.9-.2-1.8-.5-2.7-.7s-1.8-.5-2.7-.7c.6-.4,1.2-1,1.9-1.2,2.7-.8,5.6-2.3,8.1-1.7,2,.4,3.5,3.4,5.2,5.2,1.2-2.5,1.9-5.4,3.6-7.4,2.6-3,5.3-2.8,11.6-.4.6.2,1.3.5,1.9.3,8.9-3.4,17.9-6.7,26.7-10.4.9-.4,4.3-1.8,1.2-4.1l1.4-1.4c4.8,3.9,7.1-4.4,11.4-2.4,7.5-7.8,19.9-6.2,27.4-14.8,2.7-3.1,8.9-5,13.1-4.5,9.1,1.2,15.4-5.4,23.4-6.8,5.7-1,11.1-3.7,16.7-5.5,1.1-.3,2.5.3,3.7.5-.9,1.1-1.7,2.9-2.9,3.3-10.2,3.5-20.7,6.4-30.8,10.2-10.1,3.8-19.9,8.2-29.7,12.7-14.3,6.6-28,14.6-42.6,20.2-17.9,6.9-35.3,15.8-55,17-.3,0-.8,0-1,0-10,6.8-22.1,5.3-33,8.2-8,2.1-15.4,6.2-23.1,9.2-6.3,2.5-12.9,4.3-19,7.2-8.7,4.1-16.8,9.2-25.5,13.2-7.2,3.3-11.7,9.3-17.1,14.5-1.1,1.1-3.2,1.5-4.9,1.6-9.6,1-19.2,2-28.8,2.8-1.1,0-2.9-.3-3.4-1.2-1.7-2.5-1.1-5,1.5-6.7.5-.3,1.8.7,3.3,1.6,1.6.8,2.6,1,3.7,1.3,0-.4.2-.9.3-1.3l-3.5-.5h0Z"/>
          <path d="M705.5,1499.5c-1.4,0-2.7-.9-3.3-.6-15,7.3-29.9,14.9-44.1,23.7-11.5,7.1-23.6,13.8-36.3,18.2-13.2,4.6-25.5,10.9-38,16.6-2.3,1-4.2,2.8-6.3,4.2-11.8,7.9-24.4,13.9-38.9,14.4-1.5,0-3-.7-4.5-1,1-1.6,1.5-3.9,2.9-4.7,3.2-1.8,6.7-3.8,10.2-4.1,9-.8,15.9-5.3,22.6-10.8,2.6-2.1,5.8-3.6,8.9-5,12.9-5.7,25.8-11.7,38.9-16.8,12.3-4.7,23.8-10.3,34.5-18.2,6.8-5,15.1-8.4,23.2-11.1,4.4-1.5,7.9-3.3,11.6-5.9,5.2-3.6,10.9-7.1,17.9-4.6,3.4,1.2,5.3-1,7.6-2.9,1.4-1.2,3.6-1.4,5.4-2.1,0,1.6.6,3.4,0,4.9-.4,1.1-1.9,2-3.1,2.5-2.9,1.1-5.9,1.9-9.3,3.4h0Z"/>
          <path d="M1240,1384c10.4-4.6,19.6-9.4,29.8-12.5,5.2-1.6,10.6-1.8,15.6-3.9,5.1-2.1,10.3-4.1,15.6-5.6,14-4.1,28-8,42-11.9,9-2.5,18-4.9,27-7.1,3.5-.8,7.3-.7,10.9-.9.9,0,1.8.5,2.7.7-1,.5-1.9,1.1-3,1.4-6.8,2-13.6,4.4-20.6,5.7-10.2,2-19.7,6.5-30.5,6.5s-6.3,3.1-10.2,4c-12,2.7-23.6,7.2-35.5,10.6-10.7,3.1-21.2,6.7-31.3,11.1-4,1.7-7.6,4.4-11.6,5.7-3.5,1.1-4-1-1.1-3.7h.2Z"/>
          <path d="M1488,1188c-3-.8-2.8-3.2-.8-3.8,4.3-1.3,8.9-1.8,13.4-2.1,3.4-.2,6.6,0,7.5-4.5,0-.7,1.8-1.5,2.9-1.5,2.6-.2,5.3-.2,8,0,2.2,0,4.5.4,6.7.7-1.9,1.4-3.5,3.3-5.6,4.2-14.7,6.2-29.4,12.6-44.4,18.3-6.4,2.4-13.3,3.4-20,4.8-1.1.2-2.4-.5-3.6-.8.9-.9,1.6-2.3,2.6-2.7,4.3-1.6,9.2-2.3,13.1-4.5,6.4-3.7,12.8-6.3,20.7-7.3,1.3-.7,2.2-.9,3-1,0-.4-.3-.9-.4-1.3-1,.6-2.1,1.2-3.1,1.9v-.4Z"/>
          <path d="M1392,1230c.7,0,1.4.2,2,0,4-1.5,5.8-5.9,10.1-7.3,4.3-1.4,8.8-3.4,12.2-6.3,4-3.4,8-5.9,13.2-6.9,4.2-.8,8.3-2.3,12.5-3.4.5,0,1.1.4,1.7.7-.5.7-.9,1.8-1.6,2.1-5.9,2.5-11.9,4.9-18,7.2-1.2.4-2.8,0-3.7.6-10.7,7.2-21.2,14.6-31.9,21.7-3.6,2.4-8.4,3-11.1,7-.3.5-2.2,0-3.3-.2,0-.9,0-2.1.4-2.6,2.2-2.5,7.1-5.7,6.6-6.9-3.7-9.3,6.7-5.6,8.3-9.6.9,1,1.7,2,2.1,3.5-3.7,0-6.2.9-7.5,4.2-.2.5.2,1.2.4,1.8,2-1.1,4.1-2.2,6-3.5.7-.4,1.1-1.3,1.6-2h0Z"/>
          <path d="M1146.5,1422c3.2-2.7,6.5-6.3,10.6-7.8,15.9-5.8,32-10.9,48-16.1.7-.2,1.8.4,2.7.7-.5.7-.9,1.8-1.6,2-4.5,1.5-7.9,7-13.7,3.8-4.9,5.5-12.1,6-18.4,8.3-8.9,3.2-18,6.1-27.5,9.1h0Z"/>
          <path d="M1145.5,1422c-4.6,4.6-11.3,5.7-17.5,8-10.3,3.9-20.6,8-30.9,11.9-2.6,1-5.4,1.4-8.6,2,.7-5.4,6.2-4.7,9.5-5.7,11.2-3.5,22.1-7.3,32.4-13.3,4.1-2.4,9.7-2.1,15.1-3h0Z"/>
          <path d="M1232.5,1308c4.3-2.4,9.4-4.4,13.7-7.4,7.8-5.5,18-4.6,25.6-10.5.7-.5,2.4.2,3.7.4-1,.7-2,1.6-3.1,2.1-11.1,5.2-22.2,10.4-33.5,15.3-1.7.7-3.9,0-6.4,0h0Z"/>
          <path d="M1178.5,1328c1.6-5.3,6.7-5.1,11-6.5,9.8-3.2,19.7-6.3,30-9.5-4.2,2.4-8.8,5.2-13.7,7.1-8.8,3.3-17.9,6-27.3,8.9Z"/>
          <path d="M118.5,1466.5c-4.5,2.5-8.4,2.4-10.3-1.9-.8-1.8,0-6,1.5-6.9,2.5-1.5,6-1.3,9.2-1.6.3,0,1.1,1.6,1,2.4-.2,2.5-.6,5-1.4,8Z"/>
          <path d="M577.5,1810.5c-.2-2,0-3.7.5-5.1,1.5-3.7,4.9-4,8.1-3.2,1.5.4,3.1,2.2,3.7,3.7.8,1.9-3.8,8.5-5.8,9.1-1.9.6-3.4-.4-6.6-4.4h0Z"/>
          <path d="M422,1798c.7-3,3.3-2.7,3.8-.9.8,3,.7,6.6,0,9.7-.3,1.3-3.5,3.3-4.2,2.9-2.8-1.6-6.2-3.5-7.3-6.2-2-4.6,1.4-7.2,7.3-5.1,1.1.5,1.7.6,2.4.6-.6-.4-1.2-.8-1.9-1.1h0Z"/>
          <path d="M1092.5,1348.5c-4-3.8-4.2-9.9-.8-13,.5-.5,2.3-.4,2.6,0,2.5,3.5,4.8,7.2,6.8,11,.2.3-2.8,2-3.9,3.4-4.1,5.3-2.5-1.9-4.7-1.4Z"/>
          <path d="M597.5,1643.5c-.8,1-1.3,1.5-1.5,2.1-.7,2.1-1.4,4.3-2,6.4-2.4-1.4-5.7-2.2-6.9-4.3-1.1-2-.4-5.3.2-7.8.2-.8,2.6-1.7,3.9-1.6,2.4.2,4.8.9,7.1,1.7,3.7,1.3-.3,1.9-.8,3.5h0Z"/>
          <path d="M276,1476c-6.7-1.7-6.2-6.4-5.8-10.7,0-1.2,2.3-3.3,3.2-3.1,3,.5,5.9,1.7,8.5,3.1.4.2,0,3.1-.8,4.4-1.1,2.2-2.7,4.2-5.1,6.3h0Z"/>
          <path d="M752.5,1818.5c-8,1.2-10.6,0-10.4-4.7,0-2-2.3-6.1,2.6-5.6,2.8.2,8-2.8,7.3,4.2-.2,1.9.6,3.8.4,6.2h.1Z"/>
          <path d="M1014,1469.5c-5.9,0-11,1.1-16,5.1-3.9,3.1-9.3,4.4-14.1,6.4-.5.2-1.5,0-1.9-.2-.3-.3-.2-1.7,0-1.8,10.3-3.1,18.1-11.7,29.2-13,1,0,2.1-.3,2.9,0,3.7,1.3-.3,1.9-.3,3.5h.2Z"/>
          <path d="M133.5,1145.5c-4.2-.9-7.8-1.9-5.7-7.6.9-2.6,1.3-5.2,4-5.7,1.5-.3,4.6.8,4.9,1.8.7,2.6.4,5.5,0,8.2-.2,1.1-1.7,1.9-3.2,3.3h0Z"/>
          <path d="M2614.5,648.5c2.3,0,4.6,0,5.7,1,1.6,1.5,3.7,4.8,3.1,5.8-1.5,2.5-3.7,5.8-7.6,4.6-3.2-1-4.3-3.7-3.6-6.8.3-1.4,1.3-2.7,2.4-4.6h0Z"/>
          <path d="M434.5,1479.5c-2.8-3.6-4.8-6.4,0-9.6,3.9-2.6,5.9,0,8.4,1.9,3.7,3-.8,5-1.3,7.3-.9,4.7-4.3.2-7,.4h-.1Z"/>
          <path d="M2743.5,1114.5c-.8-1.4-1.5-2.2-1.5-3.1.1-6.3,1.8-7.8,7.2-7.5,4.9.3,2.6,3.8,2.6,5.8,0,5.5-.9,5.9-8.4,4.7h0Z"/>
          <path d="M281.5,1301.5c4.4-2.7,7.2-1.6,8.4,2.6.8,2.9-3.5,7.9-6.7,7.7-1.2,0-2.2-2.1-3.4-3-3.9-3.1-.7-4.8,1.7-7.3h0Z"/>
          <path d="M120,1294c2.1-.7,3.3-2.1,4.1-1.9,2,.6,3.9,10.8,2.5,12.2-2.9,2.8-7.9,2-8.5-1.8-.5-2.7.5-5.7,1.8-8.6h0Z"/>
          <path d="M479.5,669.5c7.4-1.2,8.5-.5,8.5,4.6s-1.1,5.5-6,4.1c-7.4-2.2-7.6-1.7-2.5-8.7h0Z"/>
          <path d="M475.5,826.5c1.6,3.6,2.8,6.7,3.8,9.9.1.4,0,.9,0,1.4-3.2-.3-6.7.2-9.4-1.1-3.1-1.5-3-4.8-.3-7.1,1.6-1.4,3.6-2.3,5.9-3h0Z"/>
          <path d="M636,682c1.2-2.2,2.2-3.8,3.6-4.4,1.8-.8,5.3-1.5,5.8-.8,1.5,2.2,1.8,5.2,2.6,7.9-1.7.4-3.6,1.5-5.2,1.2-2.4-.4-4.5-1.9-6.8-3.9h0Z"/>
          <path d="M2752,808c1.3,1.5,1.8,3,2,4.6.5,3.1-.2,7-3.3,7s-5.6-3.4-6.4-5.9c-1.2-3.9,1.7-5.8,5.7-5.7h2Z"/>
          <path d="M2748,968c-3.9-1.8-4.5-4.7-4-7.7.6-3.6,5.2-6.2,8.3-4,1.4,1,1.9,4.7,1.4,6.8-.5,2-3.1,3.4-5.7,5h0Z"/>
          <path d="M2614,1094c3.9,1.8,4.6,4.7,3.9,7.7-.4,1.6-2.1,4-3.3,4.1-1.9.2-4.5-.9-5.8-2.3-.9-.9-.6-3.7.1-5.2.8-1.7,2.7-2.9,5.1-4.3h0Z"/>
          <path d="M2203.5,616.5c-.4,2.1-1,4.6-2.3,5.1-3,1-6.7,1.4-8.5-2.1-.7-1.5-.2-4.5.9-5.8,2.8-3.4,5.6-1.7,8,1,.4.5.9.9,1.9,1.9h0Z"/>
          <path d="M2608.5,953.5c-.5-1.5-.8-2.6-.4-3.4,1.3-2.5,2.4-5.7,6.2-4.8,3.2.8,5.7,5.9,3.6,8.9-2.2,3.1-5.9,2.6-9.3-.7h-.1Z"/>
          <path d="M290.5,1140.5c1.5-.5,2.5-.5,3.5-.5,3.9,0,6.3,1.4,6,5.6-.3,3.4-4.7,6-8.1,4.3-3-1.5-4.4-4.5-1.9-7.9.2-.2,0-.6.5-1.5Z"/>
          <path d="M452,1314c-1.9,2-3.7,3.1-5.7,4-4.5,1.9-5.3-3-5.5-4.6-.3-2.6,1.5-5.1,4.9-6.3,3.3-1.1,3.4,1.1,4.3,2.7.6,1.1,1.3,2.1,2,4.1h0Z"/>
          <path d="M1228.5,1822.5c2-.3,4.3-.6,5,.3,1.5,2.1,6.1,2.8,4,6.7-1.9,3.5-5.9,3.5-8.5,2.2-3.5-1.8-4.5-5.3-.4-9.1h0Z"/>
          <path d="M912.5,1822.5c-3,0-6,.2-7.8-1.2-1.2-1-1.2-4.5-.4-6.3.6-1.3,4.1-2.8,5.1-2.2,1.7,1,5.7.7,4.6,4.7-.4,1.5-.7,3-1.5,5h0Z"/>
          <path d="M2752.5,670.5c-4.5,3.3-6.4-.6-6.2-2.6.4-2.8,2.8-5.3,4.8-7.7.2-.3,4.2,1.5,4.3,2.5.2,2.5,3.1,6.6-3,7.8h0Z"/>
          <path d="M1193.5,1397.5c-3.6,1.8-6.6,4-9.8,4.3-4.6.4-8.7.9-12.5,3.8-.5.4-2.1-.5-3.2-.7.6-1,.9-2.2,1.8-2.8,1.2-.9,2.7-2,4.1-2,7.2.2,13.5-2.2,19.5-6,.3-.2,1.4,1,2.1,1.5l-1.9,1.9h0Z"/>
          <path d="M2475.5,785.5c2.5,1,5.2,2,6.2,4,.6,1.3-.7,4.6-2.2,5.6-1.3.9-4.4.5-5.8-.5-3.3-2.4-2.7-5.4,1.7-9h.1Z"/>
          <path d="M1707.5,1838.5c2.4,2.6,8.6,2,5.5,7.2-1.2,2.1-4.7,4.2-6.9,4-4.6-.5-1.5-4.7-1.9-7.1-.2-1.3,1.8-3.1,3.3-4.1Z"/>
          <path d="M2486,640c-.2,1.9-.2,3.3-.7,3.6-1.9,1-2.3,5.3-5.5,3-2.5-1.8-5.7-4.3-3.3-8,2-3.1,4.9-4.2,8.1-1,.5.5.9.9,1.4,2.4Z"/>
          <path d="M146.5,980.5c-3.4,0-5.5,6.4-8.2,2.2-1.4-2.2-1-6.5,2.6-8.4,1.4-.8,3.7-2,4.6-1.5,2.7,1.6,3.9,4.2,1,7.8h0Z"/>
          <path d="M1394.5,1836.5c-4.5,2.8-7.4,1.5-8.3-2.7-.3-1.4.9-3.9,2.2-4.8,1.2-.9,3.9-1,5.1-.3,2.7,1.6,4,4.3,1,7.8h0Z"/>
          <path d="M758,1654c-3-.7-5.5-.9-7-2.2-2.3-2.1-1.3-4.5.8-6.7,2.6-2.7,3.9-.4,5.5,1.2,1.2,1.1,2.9,2.2,3.3,3.5.3,1.2-1,2.7-2.6,4.1h0Z"/>
          <path d="M1554,1840c-2.4,5.7-5.8,3.4-8.5,1.8-1-.6-1.8-3.5-1.2-4.8,1.3-3,4.3-3.2,7.4-3.1,4.1.2,1.8,3.3,2.4,6h-.1Z"/>
          <path d="M596,1480c1.3-2,2.6-3.9,3.7-3.8,2,.2,4.8,1.1,5.7,2.6.8,1.4,0,4.6-1.3,5.8-1.2,1.1-4,.9-5.9.4-1-.3-1.5-2.6-2.2-4.9h0Z"/>
          <path d="M2193.5,763.5c2.3.7,4.9,1.5,5.8,3.1.7,1.4.2,4.9-1,5.6-1.6,1-4.6,1.1-6.5.3-2.5-1.1-2.5-3.3-.2-5.3.8-.7,1-2.2,1.9-3.8h0Z"/>
          <path d="M2047.5,913.5c-2.4,3.4-4.7,4.7-8,2.5-1.1-.8-2.3-1.4-3.5-2.1,1.2-1.1,2.3-2.4,3.6-3.3.6-.4,1.9.2,2.3-.2,1.2-1.3,2.8-4.1,3.2-4,2.6,1.3,3.5,3.7,2.4,7.1Z"/>
          <path d="M2336.5,631.5c-.5-.8-.5-1.2-.5-1.5.1-3-1-7.4,3.5-7.3,3.7,0,5.2,3.4,4.6,7.6-1,7.5-4.2,3.3-7.6,1.2Z"/>
          <path d="M458.5,1154.5c-2.3,1.4-4.1,2.2-5.9,3.1-.6-2.5-1.8-5-1.5-7.3.1-1,1.6-4.7,5.3-3,3.5,1.6,5.4,3.1,2.1,7.3h0Z"/>
          <path d="M2480,1090c-1.2,2.8-2.1,4.8-3.5,6.4-2.7,3.1-3.7,1.8-4.9-1.6-1.4-4,.5-6.4,3.1-8.1.9-.6,3.5,1.5,5.3,3.3h0Z"/>
          <path d="M1074,1828c-3.1-1.9-5.4-3.6-7.2-5.8-.3-.4,1.8-3.9,2.8-3.9,2,0,5.1,1,5.7,2.4.9,2,0,4.8-1.3,7.3Z"/>
          <path d="M2022,1534c2.4-6.1,6.1-.5,8.9-2,.4.8,1.2,1.9,1,2.5-.8,1.9-1.6,4.6-3.2,5.4-4.4,2.1-4.4-3.2-6.7-5.8h0Z"/>
          <path d="M2049.5,601.5c6.1-4.2,5.1,2.5,6.2,4,1.7,2.4-1.6,2.3-3.5,2.5-2,.2-3.9.9-5.9,1.3.4-2.6-2.9-6.6,3.1-7.9h.1Z"/>
          <path d="M2472.5,945.5c-.5-1.8-.7-3.2-.5-4.5.3-1.7,1-3.4,1.5-5,2,.8,4.8,1.2,5.7,2.6.8,1.3,0,4.4-1,5.8-.9,1.2-3.4,1.1-5.7,1h0Z"/>
          <path d="M2338,1084c-1.2,2.5-2.4,4-3.5,5.5-1.5-2.7-3.3-5.3-4.2-8.2-.2-.5,3.2-2.8,5.2-3.1,4.3-.6,2,3.1,2.6,5.9h-.1Z"/>
          <path d="M610.5,1315.5c1.4,2.3,2.9,4.1,2.8,5.9,0,.9-2.9,2.5-4.5,2.4-1.6,0-3.5-1.4-4.5-2.8-.4-.6.7-2.8,1.6-3.8,1-1.1,2.7-1.5,4.6-1.7h0Z"/>
          <path d="M621.5,1154.5c3.4,2.7,3.2,5.2.2,6.5-2.1.9-4.8.3-7.3.4.6-2.3.9-4.8,2.1-6.7.5-.9,2.9-.6,5-.3h0Z"/>
          <path d="M638,840c-1.9,3.3-4.3,5.5-7.3,3.4-1-.7-1.4-4.3-.6-5.3,1.5-1.9,4.2-2.8,6.4-4.2.5,1.7,1,3.3,1.4,6h0Z"/>
          <path d="M1242.5,1374.5c4.7-2.1,9-3.7,13.2-5.2.7-.2,1.4-.3,2.1-.5,0,.9,0,2.4-.3,2.6-5.2,2.3-10.4,5.4-15.9,6.3-3.3.5.4-1.6.9-3.1h0Z"/>
          <path d="M1868.5,1533.5c-.5-1.8-.8-3.2-.4-4.3.4-1.2,1.3-2.9,2.2-3,1.7-.3,3.6.4,5.5.6-.3,1.8,0,4.2-1,5.1-1.4,1.3-3.8,1.5-6.3,1.6h0Z"/>
          <path d="M783.5,1167.5c-3.7,3.4-6.1.9-7.2-1.4-.6-1.3,1.5-3.8,2.3-5.7,1.8.9,3.9,1.5,5.3,2.8.7.6,0,2.5-.4,4.3h0Z"/>
          <path d="M1708,1686c.3-5.1,2.8-6.4,6.5-5.9.6,0,1.5,1.9,1.4,2.8,0,4.2-2.7,5.4-6.4,5-.5,0-1-.6-1.5-2h0Z"/>
          <path d="M1134.5,1414.5c4.9.2,8.4-1.6,12-3.9.8-.5,2.2,0,3.3.2-.4,1.1-.5,2.9-1.1,3.1-4.6,1.4-9.3,2.6-14,3.8-.2-.9-.5-1.8-.2-3.2h0Z"/>
          <path d="M629.5,994.5c.7,4.6-.2,7.8-5.2,7.4-.8,0-2.1-1.4-2.2-2.2-.4-5,2.8-5.9,7.4-5.2Z"/>
          <path d="M792,848c.7-2.3,1.1-3.9,2-5,2.4-2.7,4.3-.3,5.1,1.4.5,1-.3,3.9-1.3,4.4-1.7.7-3.9.2-5.9-.8h.1Z"/>
          <path d="M790.5,1003.5c2.4,4.9,0,6.4-3.7,6.4s-2.6-1.7-2.6-2.6c0-3.8,1.5-6.2,6.4-3.7h-.1Z"/>
          <path d="M938,1332c-1.5,2-3,3-4.6,4-1.1-2-3.5-4.2-3.2-6,.6-3.6,3.5-2.2,5.7-1,.8.4,1.4,1.3,2.1,3Z"/>
          <path d="M2192.5,1071.5c3.3,4.6-.4,6.2-2.8,6.2s-4.5-2.7-3.7-5.6c1.1-3.9,3.7-2.1,6.4-.6h.1Z"/>
          <path d="M1292,1280h2c3.4-.7,5.1-6.7,9.9-3.1-2.8,1.7-5.6,3.5-8.5,5.1-1.3.8-2.7,1.6-4.1,1.9-.9.2-2-.7-3-1.1.9-.9,1.9-1.9,3.8-2.8h-.1Z"/>
          <path d="M2338.5,934.5c-1.6.7-2.8,1.1-3.9,1-.3,0-.7-1.7-.6-2.6.4-2.3,1.1-4.6,1.6-6.9,4.1,1.4,5.8,3.9,2.8,8.5h0Z"/>
          <path d="M2196.5,919.5c1,4.8-2,4.7-4.7,4.4-.7,0-1.9-2.2-1.6-2.6,1.2-1.9,2.9-3.6,4.3-5.3.5,1,1,2,2,3.5h0Z"/>
          <path d="M953.5,856.5c-3.3-4.5.3-5.6,2.7-6.3.9-.2,3.8,2.7,3.5,3.5-.7,2.5-1.7,6-6.3,2.7h0Z"/>
          <path d="M963.5,699.5c-1.4.9-2.4,1.3-3.3,1.7-.7-2-1.5-4-2.2-6,2.4-.3,4.8-.6,7.2-1-.4,1.6-.8,3.2-1.7,5.3Z"/>
          <path d="M1898.5,592.5c3.3-4.4,5.6-2.1,7.1.5.5.8-1,3.9-2.3,4.5-3.9,1.6-4.8-1.4-4.8-4.9h0Z"/>
          <path d="M1340,1344c3.3-.7,5.6-1.4,8-2,.5,0,1.1.4,1.7.6-.2.5-.3,1.2-.7,1.3-3.6,1.4-7.3,2.8-11,3.9-.4,0-1.3-1.6-1.9-2.4,1-.5,2-1,4-1.5h0Z"/>
          <path d="M772,1322c6.5.3,4,3.7,2.9,5.8-.6,1-2.9,1.1-4.5,1.6-.6-2.5-3.5-5.3,1.6-7.4Z"/>
          <path d="M804.5,690.5c-2.8,1.5-5.2,3.2-6.5-.6-.7-2.1,2.8-6.3,4.7-5.6,2,.8,5,2.4,1.7,6.2h0Z"/>
          <path d="M1550.5,1676.5c2.5-1,2.7-6.4,6-2.8,1.1,1.3.6,3.9.9,5.9-2.6-.4-6.6,2.9-6.8-3.2h0Z"/>
          <path d="M2035.5,1379.5c-1.8,1.2-3.2,1.8-4.5,2.5-.3-2.4-.7-4.8-.7-7.2s2.2-.8,3.3-.8c4,0,1.7,3.2,1.8,5.5h0Z"/>
          <path d="M1089.5,1498.5c-.2,1.2-.8,2.4-1.6,2.5-1.9.2-3.9,0-5.9,0,.7-2,1.4-4,2.1-6,1.4.8,2.8,1.6,4.2,2.5.3.2.5.5,1.2,1.2h0Z"/>
          <path d="M1124,704c-2.5,4.1-6.8,5.2-7.9,3-.3-.6,0-1.9.5-2.6,2-2.5,4.3-3.8,7.3-.4h0Z"/>
          <path d="M2038,1068c.5-2.7,1.1-5.8,1.4-5.8,3.4.2,5.3,2.4,4.5,5.8-1,3.7-3.7,2.1-5.9,0Z"/>
          <path d="M949.5,1008.5c.9,2.1,2.1,4.7,1.6,5.1-1.6,1.3-3.8,1.7-5.8,2.4-.4-1-1.4-2.6-1.1-3.1,1.3-1.8,3.1-3.3,5.2-4.4h0Z"/>
          <path d="M1248.5,1347.5c.4-5.9,1.9-7,5.6-4.4,1.4,1,2.6,2.3.3,3.4-1.6.8-3.6,1-5.9,1Z"/>
          <path d="M1879.5,1368.5c1,3.8,0,6.3-3.2,7.4-.6.2-2.1-.7-2.2-1.2-.4-3.7.6-6.4,5.4-6.2h0Z"/>
          <path d="M2049.5,759.5c-2.1-.4-4-1-5.1-2.3-.5-.6.5-2.8,1.4-3.8.4-.4,2.4.2,3.3.9,1.4,1.2,4.2,2.5.4,5.2h0Z"/>
          <path d="M1115.5,865.5c-2.2,0-3.8-.5-5.5-1,1.1-1.5,2.1-3,3.2-4.5,1.4,1.2,2.8,2.4,4.2,3.6l-1.9,1.9h0Z"/>
          <path d="M1435.5,718.5c3.1,2,2.2,3.7.3,4.6-1.5.7-3.5.3-5.3.4.2-1.1,0-2.6.6-3.3,1-1,2.6-1.5,4.5-1.7h0Z"/>
          <path d="M1890.5,1058.5c-2.5.5-4.5.4-6.5.4.9-1.6,1.6-4.1,2.9-4.6,2.6-.9,4.5.4,3.6,4.1h0Z"/>
          <path d="M1220.5,1312c2.1-4.3,6.3-4.1,11-4-2.1,4.3-6.3,4.1-11,4Z"/>
          <path d="M1105.5,1022.5c-3.2-3.1-.5-4.5,1-5.8.3-.3,3,1.2,3.2,2.2.6,2.6-.5,4.5-4.2,3.6Z"/>
          <path d="M1720.5,1362.5c2.1.4,3.7,1.3,5.2,2.2-1,1.1-2.2,3.2-3,3.1-1.7-.3-3.1-1.7-4.7-2.7.6-.7,1.3-1.4,2.4-2.6h0Z"/>
          <path d="M1748.5,580.5c1.1-.5,2.2-.7,2.3-.5,1.1,1.7,2,3.5,2.9,5.2-1.2.3-2.3.7-3.5.7-3.9,0-1.6-3.2-1.8-5.5h0Z"/>
          <path d="M1880.5,1212.5c2-3.1,3.8-2.3,4.5-.3.5,1.3-.5,3.1-1,4.6,0,0-2.1,0-2.6-.6-.8-.8-1-2.2-.9-3.8h0Z"/>
          <path d="M1414.5,1195.5c-1-2-1.4-3.6-1.9-5.1,1.7.2,4.9,0,5,.5.5,2,1.9,5.4-3.1,4.6Z"/>
          <path d="M1266.5,1030.5c-1.7,0-3-.3-3.9-1-.5-.4-.8-2.1-.4-2.5.9-1,2.9-2.5,3.3-2.2,1.6,1.2,4.2,2.6,1,5.8h0Z"/>
          <path d="M1260,1184c3.3,3.4,1.4,4.9-1.7,5.1-1.3,0-2.6-1.6-4-2.5,1.6-.9,3.1-1.8,5.7-2.7h0Z"/>
          <path d="M1894.5,749.5c-.5-1.1-.7-2.2-.5-2.3,1.7-1.1,3.5-2,5.2-2.9.3,1.2.7,2.3.7,3.5,0,3.9-3.2,1.6-5.5,1.8h.1Z"/>
          <path d="M1423.5,1037.5c-2.1-.4-3.7-1.3-5.2-2.2,1-1.1,2.2-3.2,3-3.1,1.7.3,3.1,1.7,4.7,2.7-.6.7-1.3,1.4-2.4,2.6h0Z"/>
          <path d="M1588.5,726.5c6,.2,2.7,4.2,3.1,6.8,0,.2-.4.6-.7.6-1.4.2-3.6-5-2.5-7.5h0Z"/>
          <path d="M1732.5,1048.5c4.7-1.1,3.5,2.1,3.3,4,0,.5-2.5,1.6-2.8,1.3-1.4-1.2-4.4-2.5-.5-5.3Z"/>
          <path d="M1094.5,1358.5c3.2-1.1,5.9-1.8,8.6-2.3,0,0,.5,1.1.4,1.3-2.7,3.4-5.9,3.4-9,1Z"/>
          <path d="M1311.5,1353.5c-2.5,1.2-4.5,2-6.6,2.4-.8.2-1.8-.4-2.6-.7.3-.5.5-1.2.9-1.4,2.9-1,5.9-1.9,8.8-2.9,0,.7,0,1.3-.5,2.5h0Z"/>
          <path d="M1574.5,1042.5c2.1-.9,3.7-1.3,5.3-1.7,0,1.6-.2,3.1-.3,4.7-1.8-.8-3.7-1.7-5-3Z"/>
          <path d="M1277.5,710.5c1.6,1.4,2.7,2.3,3.8,3.2-1.6,1.5-2.7,3.6-5.5,1.2-3.4-2.9.6-3.4,1.7-4.4Z"/>
          <path d="M1101.5,1181.5c-3.2.8-4.5-.5-3-2.8.9-1.3,3.1-1.7,4.7-2.5-.4,1.6-.8,3.2-1.7,5.3Z"/>
          <path d="M1054,1372c-.6-5.9,3.9-3.5,7-3.9.2,0,.4.8.7,1.3-.6.2-1.1.4-1.7.7-1.7.7-3.3,1.3-6,2h0Z"/>
          <path d="M1272.5,872.5c-1.8-.6-3.2-1.7-4.5-2.8,1.3-.6,2.6-1.7,3.9-1.6,3.2.2,2.6,2,.6,4.4h0Z"/>
          <path d="M1430,878c-.5,2-1,3-1.4,4-1.3-.8-2.7-1.4-3.8-2.4-.2-.2.6-2.3,1.3-2.5,1.2-.4,2.6,0,3.9.9Z"/>
          <path d="M1295.5,1359.5c-2.1.3-3.6,0-5.2-.2,2-1.1,4.1-3.3,5.9-3.1,3.9.6-.2,1.8-.7,3.3h0Z"/>
          <path d="M1159.5,1408c-.3.7-1.1,1.5-2,2-1.6.7-3.2,1.1-4.9,1.7,0-.5,0-1.2.2-1.3,1.9-.8,2.1-5.1,5.5-3,.3.2.5.5,1.2.7h0Z"/>
          <path d="M1724.5,1208.5c1-1,1.4-1.6,1.9-1.9,1.1-.6,2.3-1.1,3.5-1.7-.5,1.7-.5,3.7-1.5,4.9-.5.6-2.9-.5-3.9-1.3Z"/>
          <path d="M1746,740c-2-.8-3-1.7-4-2.5,1.3-.5,2.7-1.5,3.9-1.4,3.1.3,2.4,2.1,0,3.9h0Z"/>
          <path d="M1895.5,902.5c.8,6.5-2,1.4-3.2,1.4s-2.8-.7-4.2-1c2.3,0,4.1-4.2,7.4-.4h0Z"/>
          <path d="M1363.5,1250c.3.5.2,1.5-.2,1.6-2.4.6-4.8,1-7.2,1.5,0-.6-.2-1.8,0-1.8,2.3-.5,4.6-.9,7.5-1.3h-.1Z"/>
          <path d="M1741.5,892.5c.5,1.1.8,2,.5,2.3-.9,1.1-2.1,2-3.2,2.9-.3-.5-.7-1-.7-1.6,0-2.1-.8-4.7,3.5-3.7h-.1Z"/>
          <path d="M1167.5,1329.5c1.8-.5,3.1-.6,4.4-.6,0,.9-.2,2.5-.4,2.5-1.7,0-3.4,0-5.2,0v-.6c.2-.3.4-.5,1.1-1.2h0Z"/>
          <path d="M1400,858c-.9.8,2.2,6-2.8,2.4-1.4-1-3.5-1-4.7-1.9,2.8-.5,5.2-.5,7.5-.5Z"/>
          <path d="M1269.5,1365.5c1.2,0,1.8.8,2.5,1.4-1.4.4-2.9,1-4.3,1s-2.2-.9-3.3-1.4c1.5-.2,3-.4,5-1h.1Z"/>
          <path d="M1283.5,1287.5c-1.5-.3-2.5-1-3.5-1.8,1.2-.6,2.4-1.7,3.6-1.6,4.5.2,1.1,1.8,0,3.4h0Z"/>
          <path d="M720.5,1486.5c1.5.3,2.5,1,3.5,1.8l-1.7,1.7c-.8-1-1.5-2-1.8-3.5Z"/>
          <path d="M1308.5,1272.5c1.5.3,2.5,1,3.5,1.8l-1.7,1.7c-.8-1-1.5-2-1.8-3.5Z"/>
          <path d="M1032.5,1456.5c1.4-.5,2.4-.6,3.3-.5.7.2,1.3.7,2,1.1-.5.3-1.1.8-1.5.8-1.5-.2-2.9-.6-3.8-1.4Z"/>
          <path d="M1364.5,1250c.9-.7,2.3-1.4,3.8-1.9.4,0,1,.5,1.5.8-.7.4-1.3,1-2,1.1-.9.2-1.9,0-3.3,0Z"/>
          <path d="M1087.5,1363.5c-1.4.5-2.4.6-3.3.5-.7-.2-1.3-.7-2-1.1.5-.3,1.1-.8,1.5-.8,1.5.2,2.9.6,3.8,1.4Z"/>
          <path d="M1522.5,1170.5l2.5-2.5c.3,1,.6,2.1.9,3.1-1.3,0-2.6,0-3.3-.7h0Z"/>
          <path d="M1020,1625.5c-1.7.5-3.3.5-5.5.5,1-3.6,3.3-2.1,5.5-.5Z"/>
          <path d="M1119.5,1424c-.5.6-1.6,1.2-2.6,1.9,0-.4-.3-.9-.4-1.3.8-.2,1.7-.4,3-.5h0Z"/>
          <path d="M1160.5,1408c.5-.6,1.6-1.2,2.6-1.9,0,.4.3.9.4,1.3-.8.2-1.7.4-3,.5h0Z"/>
          <path d="M1177.5,1328c-.5.6-1.6,1.2-2.6,1.9,0-.4-.3-.9-.4-1.3.8-.2,1.7-.4,3-.5h0Z"/>
          <path d="M1380,1336c-.7-.7-.3-1.3,0-2,.3.7.7,1.3,0,2Z"/>
          <path d="M2024,1378c.7.7.3,1.3,0,2-.3-.7-.7-1.3,0-2Z"/>
          <path d="M1013.5,1626c0,.6-.3,1.2-.6,1.9,0-.6,0-1.2.6-1.9Z"/>
          <path d="M724.5,1492.5c.6,0,.6.7.7,1.3-.4-.3-.8-.5-.7-1.3Z"/>
          <path d="M1899.5,601.5c-.6,0-.6-.7-.7-1.3.4.3.8.5.7,1.3Z"/>
          <path d="M1285.5,1361.5c-.6,0-.6-.7-.7-1.3.4.3.8.5.7,1.3Z"/>
          <path d="M1492,882c-.3-.7-.7-1.3-.5-1.5.5.5.5,1.5.5,1.5Z"/>
          <path d="M931.5,1413.5c-.6,0-.6-.7-.7-1.3.4.3.8.5.7,1.3Z"/>
          <path d="M1120.5,1424c0-.6.3-1.2.6-1.9,0,.6,0,1.2-.6,1.9Z"/>
          <path d="M1482,880.5c.6,0,1.2.3,1.9.6-.6,0-1.2,0-1.9-.6Z"/>
          <path d="M1441.5,1461.5c-.6,0-.6-.7-.7-1.3.4.3.8.5.7,1.3Z"/>
          <path d="M880,1763.5c-.6,0-1.2-.3-1.9-.6.6,0,1.2,0,1.9.6Z"/>
          <path d="M1146,1646c-3.1.7-5.2,2.2-7.1,1.8-5.5-.9-11-2.2-16.3-3.9-7.2-2.3-14.2-3.4-21.5-.2-2,.9-4.6,0-6.9.3-4.5.5-7.6-2.7-7.8-5.8-.3-3.4,3.5-5.1,7.2-6.5,11.3-4.1,23.3-5.6,34.6-10.4,12.4-5.3,26-8,39.2-11.3,12.1-3,24.3-5.8,36.6-7.9,6.9-1.2,14.5-1.8,21-1.3,6.7.5,13.6,0,20.2,1.3,1.9.4,3.3,3.1,4.8,4.9,2.1,2.4,5.6,5,5.6,7.5,0,3.7-2,7.9-4.4,10.9-2.3,2.8-4.3,6.2-9.1,6.9-3.2.5-8.7,1.4-8.2,7.5,0,.6-1.4,1.7-2.4,2.1-6.6,2.5-13.2,5-19.9,7.4-1.5.5-3.2.7-4.7.6-1,0-1.9-1-2.9-1.6.8-.8,1.6-1.5,2.2-2.3.7-.9,1.2-1.9,1.8-2.8-1.1-.3-3-1-3.2-.8-3.3,6.1-10,3.5-14.9,5.2-9.7,3.4-20.2,4.4-30.3,6.4-1.3.2-2.7,0-4,0-.6,0-1.1-.6-1.6-.9.5-.5.8-1.1,1.4-1.4,2.5-1.3,4.9-2.7,7.5-3.6,2.2-.8,4.5-.9,6.8-1.4-2.6-.2-5.1-.6-7.7-.7-5,0-10,0-16,0M1149,1628c-8.7,1.3-16.2,7.3-25.5,6.1-1.1-.2-2.6.4-3.5,1.1s-1.7,2-1.8,3.1c0,.5,1.7,1.5,2.7,1.7,4,.8,8.1,1.9,12.2,2,18.7.2,37.1-1.1,55.6-5.4,16.7-3.9,32.7-9.8,49-14.7,1.1-.3,2.1-2.6,2.2-4.1,0-1.2-.9-3.4-1.7-3.6-2.8-.6-5.7-.9-8.5-.7-8,.5-15.9,1.4-23.9,1.8-6.7.3-12.7,3.6-19.1,4.5-12.2,1.7-24.1,4-37.6,8.3M1215,1642c1.6-1.1,3.2-2.2,4.8-3.2-.5-.3-1-.7-1.6-.7-2.1,0-4.7-.8-3.2,4h0Z"/>
          <path d="M1080,1656c1.9,1.8,2.7,3.6,3.6,5.4-1.9.9-4,2.6-5.7,2.3-1.5-.3-3.4-2.7-3.8-4.4-1.1-4.5,2.6-3.1,5.9-3.3Z"/>
          <path d="M1120,1652c6.2-.7,12.3-.4,18.5,0,.5,0,1,.7,1.4,1-.5.3-1.1.9-1.6.9-6.1-.3-12.2-.6-18.4-2h0Z"/>
          <path d="M1151.5,1653.5c-1.1.5-1.8.6-2.4.5-1.7-.3-3.3-.7-4.9-1.1.9-.9,1.7-2.4,2.7-2.6,2.1-.3,5.4-1.8,4.6,3.2h0Z"/>
          <path d="M1473.5,1590c-1.3,1.5-3.1,3.2-5,4.5-3.1,2-6.4,3.6-9.6,5.4.8-5.1,5.4-5.9,9-7.8,1.6-.8,3.4-1.4,5.6-2h0Z"/>
          <path d="M1474.5,1590c.5-.6,1.6-1.2,2.6-1.9,0,.4.3.9.4,1.3-.8.2-1.7.4-3,.5h0Z"/>
          <g id="Xuv1kj">
            <image id="Xuv1kj-2" class="cls-1" width="511" height="258" transform="translate(1297 1021) scale(.6)" xlink:href="../../../../../../Downloads/Shape 18-2.png"/>
          </g>
          <g id="o8WUtG">
            <image id="o8WUtG-2" class="cls-1" width="945" height="270" transform="translate(887.5 1861.7) scale(.5)" xlink:href="../../../../../../Downloads/Shape 18-3.png"/>
          </g>
          <g>
            <line class="cls-4" x1="371.5" y1="2049" x2="924.5" y2="2269"/>
            <polygon points="367.6 2090.4 318.2 2027.8 397.1 2016.3 367.6 2090.4"/>
            <polygon points="898.9 2301.7 977.8 2290.2 928.4 2227.6 898.9 2301.7"/>
          </g>
          <g id="ANnCoV">
            <image id="ANnCoV-2" class="cls-1" width="225" height="153" transform="translate(521.2 2220.8) scale(.5)" xlink:href="../../../../../../Downloads/Shape 18-4.png"/>
          </g>
          <g>
            <line class="cls-4" x1="2157.3" y1="1527.4" x2="1718.4" y2="1929.4"/>
            <polygon points="2121.7 1505.9 2199.6 1488.7 2175.6 1564.8 2121.7 1505.9"/>
            <polygon points="1700.1 1892.1 1676.1 1968.1 1754 1950.9 1700.1 1892.1"/>
          </g>
          <g id="dIduZi">
            <image id="dIduZi-2" class="cls-1" width="231" height="154" transform="translate(1980.3 1769.8) scale(.5)" xlink:href="../../../../../../Downloads/Shape 18-5.png"/>
          </g>
        </g>
        <g id="Layer_2" class="cls-5">
          <path class="cls-2" d="M154,1188.2c27.1-35.4,59.5-66.8,95.8-92.6,51-36.3,109-61.5,166.4-86.3,43.2-18.7,88.5-31.6,134.8-39.5,23.3-3.9,46.7-7.9,70.3-7,17.5.6,34.8,3.9,51.6,8.6,51.8,14.6,98.5,43,144.4,71.1,27.5,16.8,55.3,33.8,78.3,56.4,48.5,47.5,100.1,91.9,147.5,140.6,20.8,21.4,43,41.2,65.2,61.1,34,30.4,68,60.8,102,91.3,15,13.4,30.6,27.2,49.7,33.5,17.9,5.9,38.6,5.3,53.6,16.7,46.4,35.1,101.3,47.8,159,55.1,19.6,2.5,39.3,4.1,59.1,3.7,105.6-2.1,208.6-61.1,312.2-40.7"/>
          <path class="cls-2" d="M155.5,1112.3c35.3-70.3,103.1-117.6,168.6-161.1,89.2-59.3,180.3-117.7,280.8-154.9,63.2-23.4,129.6-38,196.8-43.5,272.5-22,535.2,106.7,808.1,122.7,88.5,5.2,149.8-89.3,220.6-142.6,79.4-59.9,179.1-92.4,278.5-90.8,27.2.4,54.7,3.4,79.9,13.6,26.9,10.8,49.9,29.1,73,46.6,105.3,79.6,234.6,148.4,363.8,121.6"/>
          <path class="cls-2" d="M1840.2,1455.1c22-58.5,70.8-102.2,118.4-142.8,199.9-171,408.3-332.2,624-482.7"/>
          <path class="cls-2" d="M126.3,2019.4c-1-37,97.3-106.3,140.7-135.1,69.4-46,151.5-86.6,242.8-120,8.4-3.1,17.1-6.2,22.7-10.7,5.6-4.5,7.5-10.9,1.6-15.3-2.4-1.8-5.8-3.1-9.2-4.3-52-18.3-120-15.3-181.2-9.2-43.9,4.4-89,10.1-132.6,4.8-43.5-5.2-84.7-25.6-80.7-49.3l-4.1,339.2h0Z"/>
          <circle class="cls-2" cx="1558" cy="1164.4" r="40.5"/>
          <path class="cls-2" d="M1403.6,1339c-4.5-15.8-.5-33,7.6-47.3s20-25.9,32.1-37c62.1-56.9,134.5-102.5,212.5-134.1,26.5-10.7,53.7-19.9,78.5-34.1,32.4-18.6,59.9-45.7,78.9-77.9"/>
          <path class="cls-2" d="M1176.7,1809.5c31.1-14.5,55.7-39.7,79.5-64.5,11.4-11.8,22.8-23.6,32.9-36.6,23.2-29.7,39-64.3,54.6-98.6,5.1-11.2,6.3-23.4,12.8-33.8,31.7-50.7,69.9-100.8,124.1-126.1,10.4,1.1,20.6-3.5,30.2-7.9,41.1-18.6,87.4-25.7,132.1-20.2,27.3,3.3,54.5,7.1,82,8.2,31,1.3,62.4-8.8,86.8-27.9"/>
          <path class="cls-2" d="M1191.7,1810.3c47.7-35.2,95.4-70.4,143-105.6,26.7-19.7,53.4-39.4,80.2-58.9,55.5-40.4,111.5-79.9,168.2-118.7,35.8-24.5,67.6-35.7,105-57.7,24.7-14.5,49.5-29.1,76.3-39.5"/>
          <ellipse class="cls-3" cx="1172.5" cy="1625.8" rx="290.7" ry="32.2" transform="translate(-347.1 318.6) rotate(-13.5)"/>
          <ellipse class="cls-3" cx="1171" cy="1628.4" rx="74.1" ry="15.6" transform="translate(-347.8 318.4) rotate(-13.5)"/>
          <ellipse class="cls-3" cx="1164.7" cy="1613.2" rx="503.5" ry="103.5" transform="translate(-344.4 316.5) rotate(-13.5)"/>
          <line class="cls-2" x1="1683.6" y1="1479.7" x2="302.5" y2="2297.5"/>
          <line class="cls-2" x1="1675.5" y1="1106.8" x2="95.9" y2="1867.5"/>
        </g>
        <g id="ssjIIa">
          <image id="ssjIIa-2" data-name="ssjIIa" width="858" height="258" transform="translate(-570.3 1436.7) scale(.7)" xlink:href="shapley_v-1.png"/>
        </g>
      </g>
    </g>
  </g>
</svg>