<?xml version="1.0" encoding="UTF-8"?>
<svg xmlns="http://www.w3.org/2000/svg" xmlns:xlink="http://www.w3.org/1999/xlink" version="1.1" viewBox="0 0 1642.3 1642.3">
  <defs>
    <style>
      .cls-1 {
        font-size: 96px;
      }

      .cls-1, .cls-2 {
        font-family: MyriadPro-Regular, 'Myriad Pro';
      }

      .cls-2 {
        font-size: 128px;
      }

      .cls-3 {
        fill: none;
        stroke: #000;
        stroke-miterlimit: 10;
        stroke-width: 10px;
      }
    </style>
  </defs>
  <!-- Generator: Adobe Illustrator 28.7.3, SVG Export Plug-In . SVG Version: 1.2.0 Build 164)  -->
  <g>
    <g id="Contours">
      <path d="M291.2,630.6v-52.2c0-62-.1-124.1,0-186.1,0-31,.4-62,1.1-93,.2-10.2,1.8-20.4,3-30.5.3-2.2,1.5-3.9,2.3-5.8,0,2.6.2,5.1.1,7.7,0,1.5-.6,3-.5,4.4.3,4.2.8,8.4,1.2,12.6,1.6-2.2,3.3-4.2,4.9-6.6,3.5-5.4,6.8-11.6,10.6-16.1,2.3-2.7,5.4-3.1,8.1-3.8,6.4-1.6,12.8-3.1,19.2-3.9,19.2-2.2,38.5-4,57.8-5.9,8.2-.8,16.4-1.1,24.6-2,16.9-1.8,33.8-3.8,50.8-5.8,5.9-.7,11.7-1.6,17.6-1.9,14.5-.8,29.1-1.3,43.6-2,8.5-.5,17.1-1.3,25.6-1.9,8.9-.7,17.7-1.5,26.6-1.9,17.7-.8,35.4-1.7,53.1-1.8,12.9,0,25.7,1.6,38.6,1.7,28.1.3,56.1,0,84.2,0s33.4-.2,50.2,0c10,.2,20.1,1.5,30.1,1.8,28.5.8,57.1,1.3,85.6,2,25.9.6,51.7,1.2,77.6,2,9.2.3,18.4.2,27.6,2.1,22.1,4.6,44.1,8.6,66.4,7.7,10.2-.4,20.4,1.4,30.6,1.7,23.9.8,47.7,1.3,71.6,2,18.9.6,37.7,1,56.6,2,19.1,1,38.1,2.4,57.2,3.9,5.8.5,11.6,1.7,17.4,2.7.7.1,1.4.8,2.1,1.2-.4,1.9-.6,4.5-1.4,5.6-4.2,5.8-8.5,8.9-13.4,2.2-1.3-1.8-3.3-2-5-2-6.8-.2-13.7.1-20.5-.1-13.4-.5-26.7-1.2-40.1-1.9-11.5-.6-23.1-1.6-34.6-1.9-32.6-.8-65.2-1.3-97.7-2.1-2,0-4-1.6-6.1-1.8-3.5-.3-7.1,0-10.7-.1-14.4-.6-28.7-.7-43.1-2.1-13.1-1.2-26.2-4.1-39.3-5.6-15.4-1.7-30.8-2.7-46.2-4-7.9-.7-15.7-1.9-23.6-1.8-15.9.2-31.7,1.7-47.6,1.7-22.3,0-44.5-.8-66.8-1.9-15.6-.7-31.1-2.3-46.7-3.9-6.9-.7-13.8-3.4-20.7-3.5-5.7,0-11.4,3.4-17.2,3.4-40.3.3-80.7.4-121,0-21.2-.2-42.4-2-63.6-1.6-21.2.3-42.4,2.3-63.7,3.7-6.2.4-12.4,1.3-18.6,1.9-15.6,1.3-31.3.3-46.6,4.5-20.8,5.6-41.5,4.1-62.3,5.6-11.6.8-23.2,4.8-34.8,7.4-8.4,1.9-16.8,3.8-25.3,5.8-11.9,2.9-24.6,23.8-23.8,51.8.5,18,.1,36.1,0,54.2-.3,161.9-.8,323.9-.9,485.8,0,35.9,1.3,71.8,1.9,107.7.8,52.7,1.5,105.3,2,158,.3,26.4-.3,52.9.1,79.3.6,33.7,1.8,67.4,3,101.1.7,18.3,2.2,36.4,2.9,54.7.7,17.4.8,34.9,1.1,52.4.4,22.3.2,44.7,1.2,66.9,1,22.3,3.3,44.4,4.8,66.7.7,9.6.6,19.5,1.1,29.2,1.2,23.8,2.4,47.6,4.2,71.2.3,4.5,3.3,9.4,5.7,12,6.6,7.4,13.8,1.8,20.7,1.8,4.2,0,8.4-2.7,12.7-3.4,16.3-2.8,32.6-5.3,48.8-7.8,6.5-1,13.1-.9,19.6-2.1,12.8-2.3,25.6-5.2,38.3-7.6,4.8-.9,9.7-1.5,14.6-2,14.4-1.4,28.8-2.5,43.2-4,9.6-1,19.2-1.7,28.7-4,25-6,50.1-3.3,75.2-3.5,20.9-.2,41.7,1.1,62.6,1.8,16.4.6,32.7,1.4,49.1,1.9,23.9.7,47.7,1.5,71.6,1.8,6.5,0,13.1-1.5,19.6-1.7,3.9,0,7.7,1.9,11.6,1.7,18.2-1,36.4-2.4,54.7-3.8,7.9-.6,15.7-1.3,23.6-1.9,15.6-1.3,31.1-2.6,46.7-3.9,7-.6,14.1-1.2,21.1-1.9,12.4-1.2,24.8-2.5,37.2-3.9,5.2-.6,10.4-1.4,15.6-1.9,13.1-1.3,26.1-2.6,39.2-3.9,6.9-.7,13.7-1.7,20.6-1.9,31-.8,62.1-1.1,93.1-2.1,14.4-.5,28.8-2.5,43.2-3.7,8.2-.7,16.4-1.5,24.6-1.9,14.4-.8,28.8-1.6,43.3-1.8,7.2-.1,14.4,1.9,21.6,1.6,8.2-.4,16.4-2.8,24.7-3.5,3.8-.3,7.7.9,11.6,2,.9.3,2.2,2.8,2.3,4.5,0,1.4-1.2,4-2.2,4.6-2.1,1.3-4.3,2.2-6.5,2.2-28.3.1-56.7.2-85,0-4.5,0-9.1-1.8-13.6-1.7-10.7.3-21.5-.6-32.1,2.1-33.9,9-67.8,4.1-101.8,5.5-15,.6-30.1,1-45.1,2-11.1.8-22.1,2.7-33.2,3.7-9.4.9-18.7.7-28.1,2.1-13.5,2-26.9,5-40.3,7.6-1.3.2-2.7,0-4,0-27.9,1.3-55.8,2.4-83.7,3.9-18.1,1-36.1,3.1-54.2,3.7-35,1.1-70.1,1.8-105.1,1.9-23.7,0-47.4-1.3-71.1-1.8-36.5-.8-73.1-1.9-109.6-1.7-14.6.1-29.2,3.5-43.8,5.5-8.7,1.2-17.5,2.1-26.2,4-10.1,2.1-20.2,5.4-30.4,7.5-6.3,1.3-12.7,1.3-19.1,2.1-14.9,1.9-29.8,3.7-44.8,5.8-7.1,1-14.1,2.4-21.2,3.9-11.6,2.4-23.2,5.4-34.9,7.4-1.9.3-4-2.6-6-4.2-.5-.4-.7-1.7-1.1-2.6-.4,1.3-1.2,2.7-1.1,3.9.4,5.7,1.1,11.4,1.6,17.1.8,9.4,1.8,18.7,2.2,28.1.1,2.5-1.4,5.2-2.1,7.8-.6-2.4-1.5-4.8-1.7-7.3-2.1-30.9-4-61.9-6.1-92.9-1.6-24.8-3.5-49.5-4.9-74.4-.9-15.5-1.5-31.1-2-46.8-.8-26.5-1.3-53.1-2.1-79.7-.5-17.9-1.3-35.7-2-53.5-1-29.2-1.5-58.5-3.1-87.5-2.8-50.7-3.1-101.5-3-152.4,0-25.5-.7-51.1-.9-76.6-.2-17.5,0-35.1,0-52.6-.2-23.9-.7-47.8-1-71.8-.4-26.8-.8-53.6-1-80.5-.4-73.9-.7-147.8-1-222.7Z"/>
      <path d="M1574.2,1269c2.7,16.2,5,32,8.1,47.7,2.9,15,6.8,29.9,9.9,44.9,2.3,11.3,3.6,22.8,6.2,34,2.3,10.1,5.8,19.9,8.7,29.9.6,2.1,1.4,3.9,3.8,1.5,1.3-1.3,2.8-2.3,4.2-3.4.4,2.9,1.4,5.9,1.2,8.8-.5,5.8-5.6,5.5-9.4,5.6-9.7.4-19.3,0-29,.1-13.6.2-27.2,1-40.5,4.9-2.2.6-5.3.5-7.1-.6-1.7-1-2.1-4-3.1-6,2.4-1.1,4.8-3,7.2-3.1,20-.9,40.1-1.5,60.2-2.1,7-.2,8.1-1.1,5.5-7.4-6.4-15.4-8.7-31.8-12-48-2.5-12.4-5.5-24.8-7.9-37.2-2.2-11.5-4-23-6.1-34.5-2.6-14.2-5.4-28.4-7.9-42.7-1.9-10.8-3.4-21.6-5-32.4-2.4-15.5-4.7-31.1-7-46.6-1.2-8.2-1.7-16.5-3.1-24.7-2.4-14.8-5.4-29.4-7.9-44.2-1.6-9.2-2.6-18.6-4.1-27.8-1.9-11.4-4.1-22.7-5.9-34-1.3-8.4-2-16.8-3.1-25.2-1.2-9.3-2.7-18.6-3.9-27.8-.8-6.5-1.3-13.1-2.1-19.7-1.2-10.1-2.7-20.2-4-30.3-.5-3.8-.6-7.7-1-11.6-1.3-12.9-2.7-25.9-4-38.8-.4-4.5-.7-9.1-1-13.6-.7-10.7-1.3-21.4-2-32.2-.3-4-.3-8.1-1.1-12.1-.9-4.4-.9-9.1-6.1-12-4.5-2.5-3.7-5.8,1.1-8.1,1-.5,2-2.2,2-3.3-.2-15.4-.5-30.7-.9-46.1-.1-4-.8-8.1-.9-12.1-.4-9-.4-18.1-1.2-27.1-.3-3.3-.6-7.1-4.8-9-2.3-1-3.3-3.3-.5-5.4,4.6-3.4,4.8-8.2,4.5-13.2-.7-11.6-1.4-23.1-2-34.7-.7-15.1-.2-30.3-2.5-45.1-1.1-7.2-.8-13.7-.7-20.7.3-17.2-.4-34.4-.8-51.6-.2-10.5-.6-21.1-1.1-31.6,0-1.2-1.3-2.4-1.8-3.6-.8-2.3-4.9-4.2-.4-7.2,1.3-.8,1.2-4.2,1.2-6.3,0-14.3,0-28.7,0-43,.2-14.4.6-28.7,1-43.1,0-3.3-.3-5.3-4.4-5.2-1.5,0-3.1-2.4-4.6-3.6,1.6-1,3.1-2.8,4.8-3,4.2-.6,6-3,6.2-6.8.7-12.1,1.3-24.1,2-36.2.5-8.4,1.5-16.8,1.9-25.2.5-11.2.6-22.4,1.1-33.6.6-15.6,1.6-31.1,1.8-46.7,0-5.2-1.4-10.4-2.6-15.6-.2-1-2.4-2-3.7-2.1-5.3-.2-10.7,0-16-.1-14.9-.3-29.7-.7-44.6-1-4.8,0-6.6,2.2-7,7-.5,5.4-1.5,10.7-2.4,16,0,.3-.2.6-.2.9-.4-.5-1.3-1-1.3-1.5.4-5.1.6-10.3,1.5-15.4.5-3,2.4-5.6,3.4-8.6,1.6-5,5.6-4.6,9.5-4.5,1.9,0,3.7.9,5.6.9,12.9.4,25.8,0,38.6,1.3,7.4.8,14,.2,20.6-2.9.3-.1.6-.4.8-.4,7.1,3.3,11.2-3,16.6-5,2.2-.8,4.4-1.7,6.7-1.9,1.2,0,2.5,1.3,3.8,2-.8.6-1.6,1.7-2.5,1.8-8,1-13.7,6-19.5,10.8-1.1.9-1.4,3-2,4.6-.1.3,0,.7,0,1-.3,22.5-.5,45.1-1.1,67.6-.3,11.7-1.1,23.5-2,35.2-.8,10.9-2.1,21.8-2.9,32.8-.8,10.9-1.5,21.8-2,32.7-.5,11.9-.8,23.7-1,35.6-.4,26.4-.8,52.7-1,79.1,0,9.5.6,19.1.9,28.6,0,3.1,0,6.1,0,9.2.3,14.5.5,29.1,1,43.6.4,11.1,1.3,22.1,1.9,33.2.7,12.6,1.3,25.1,2,37.7.7,12.1,1.5,24.1,2,36.2.8,18.4,1.2,36.8,2.1,55.2.8,16.8,1.8,33.5,3,50.3,1.1,14.6,2.6,29.2,4,43.8,1.3,14.1,2.6,28.2,4,42.3,1.6,15.3,3.1,30.6,5,45.9,1.7,13,4.1,26,5.9,39,1,7,1.3,14.1,2.1,21.2,1.2,10.6,2.5,21.2,4,31.8,1.9,13.2,3.9,26.4,6,39.5,2.6,16.7,5.2,33.5,8,50.2,2.4,14.3,5.6,28.4,7.9,42.7,1.8,10.9,2.6,21.9,4.1,32.8,2.2,16.5,4.6,33.1,7,49.6.4,2.9,1.3,5.8,2,9.2Z"/>
      <path d="M1424.2,471c.3,1.2.9,1.9,1,2.6.4,10,.8,20.1,1,30.1.4,15.5.5,31.1,1.1,46.6.4,12.7,1.3,25.4,1.9,38.2.4,8,.6,16.1,1,24.1.6,11.6,1.3,23.1,2,34.7.6,9.4,1.2,18.8,2,28.2,1.2,13.3,2.6,26.6,4,39.8,0,1,0,2,0,3,.3,14.4.6,28.7,1,43.1.2,7,.7,14.1,1,21.1.7,14.9,1.2,29.8,2.1,44.7.7,11.9,2.1,23.8,2.9,35.8.6,8.2.8,16.4,1,24.6.4,13.4.5,26.7,1.1,40.1.4,10.4,1.3,20.8,2,31.2,1,14.8,2,29.5,3,44.3.7,10.9,1.1,21.8,2.1,32.7,1,11,2.7,21.9,3.9,32.9.6,5.5.5,11.1,1.1,16.6,1.2,12.5,2.7,24.9,3.9,37.3,1.1,10.9,2,21.8,3,32.8,1.3,13.8,2.7,27.6,4,41.3.7,7.4,1.2,14.8,2,22.2,1.2,10.8,2.7,21.6,3.9,32.3.8,6.7,1.3,13.5,2,20.2,1.3,11,2.5,21.9,4,32.8,1.5,11.3,3.1,22.7,5,33.9,2.4,13.9,5,27.9,8.1,41.6.9,3.7,4,7,6.2,10.4.5.9,1,1.8,1.5,2.8-1.1.1-2.3.6-3.3.3-6.6-1.7-9.1-7.4-10.4-12.9-3.8-15.7-7.2-31.5-10-47.3-2-11.3-2.8-22.9-4.1-34.3-1.6-13.6-3.5-27.3-4.9-40.9-1-9.7-1.2-19.5-2.1-29.2-1.1-11.1-2.7-22.2-3.9-33.3-.5-5-.5-10.1-1.1-15.1-1.2-11.3-2.7-22.6-3.9-33.8-1.1-10.7-2-21.5-3-32.2-1.3-13.6-2.7-27.2-4-40.8-.4-4.2-.8-8.4-1-12.6-.4-7.5-.6-15.1-1-22.6-.6-11.2-.8-22.5-2.1-33.7-1.6-13.9-3.1-27.7-3-41.8,0-10.2-1.4-20.4-1.8-30.7-.8-18.2-1.1-36.5-2.1-54.7-.8-12.8-2.6-25.6-3.9-38.3-.1-1,0-2,0-3-.3-13-.5-26.1-1-39.1-.5-14.2-1.3-28.4-2-42.7-.7-14.6-1.3-29.1-2-43.7-.6-13.7-1.3-27.4-2-41.2-.6-11.4-1.3-22.8-2-34.2-.7-12.1-1.4-24.1-2-36.2-.7-14.2-1.3-28.4-2-42.7-.3-7-.7-14.1-1-21.1-.7-17.9-1.2-35.8-2-53.7-.4-9.9-1.2-19.8-2-29.7-1.3-15.8-3.4-31.5-3.8-47.3-.9-30.7-.8-61.4-1.2-92.1-.1-10.5-1.1-21.1-.8-31.6.3-9.8,1.7-19.5,3-29.2.3-2.2,1.9-4.2,2.9-6.3.3-.6.6-1.2.9-1.7.7.9,2.1,1.9,2,2.5-5.7,27.8-3.5,55.9-3.8,83.9-.2,18.9-.3,37.8,0,56.7.2,12.6,1.1,25.1,2,37.7.8,11.4,2,22.8,3,34.3.4,4,.7,8.1,1,12.6Z"/>
      <path d="M559.5,479.7c15.3,6,29.3,13.3,33.4,30.6,3.3,13.9,4.6,28.2-4.8,40.6-5.4,7.1-11.4,14.6-20.8,16.2-4.8.8-10.3-.3-15.1-1.8-7.7-2.5-15.3-5.7-22.5-9.5-7.6-4-10.1-12-12.4-19.6-3.3-10.7.5-20.5,4.5-30.2,1.3-3.1,2.1-6.5,3.6-9.5,4.3-8.5,24.1-20.8,34.1-16.7M583.7,513c.8,5.5,1.5,11,2.6,16.4.2,1.2,1.7,2.2,2.7,3.3.4-1.2,1.3-2.4,1.2-3.5-1.1-10.3-2.9-20.3-8.8-29.3-2.5-3.8-5.3-6.4-9.4-8-5.8-2.3-11.6-4.8-17.6-6.9-1.8-.6-4.1-.2-6.1,0-.3,0-.7,1.8-.6,1.8,4.8,2.4,9.7,4.7,14.5,7.1,3.5,1.8,7.1,3.8,10.4,6,1.9,1.3,3.4,3.2,4.9,5,2,2.4,3.8,5,6.2,8M525.2,528.5c0-2.5.2-5-.1-7.5-.2-1.1-1.5-2-2.4-3.1-.8,1-2.4,2-2.4,2.9,0,4.5-.3,9.3,1.1,13.5,1.9,5.7,5.1,10.9,8,16.1.5.8,2.2,1,3.3,1.4,0-1.2.4-2.5.2-3.7-.1-.9-1-1.6-1.3-2.4-2.2-5.4-4.3-10.9-6.4-17.3M541.7,539c.4.4.6.8,1.1,1,1.1.6,2.3,1,3.4,1.5,0-1.4.3-2.9-.2-4.1-1.4-3.1-3-6.1-4.9-8.8-.5-.7-2.5-.4-3.8-.6,0,.9-.2,1.9.1,2.6,1.2,2.7,2.5,5.2,4.3,8.4M552.7,554c-1.8-.2-3.6-.4-5.4-.6.6,1.7.9,3.5,1.9,5,.8,1.4,2.1,2.6,3.5,3.4,1,.6,2.4.4,3.7.5-.1-1.4,0-2.8-.4-4-.6-1.4-1.8-2.6-3.2-4.3M533.2,540.5c3.5-2.1,3.7-2.2,2-4.8-1.8-2.8-4-5.3-6-8-.2-.2-.6-.3-.8-.4-.2.6-.7,1.3-.5,1.7,1.5,3.7,3.2,7.3,5.3,11.4M544.2,547.5c-1.6-.7-3.2-1.5-4.8-2.2.6,1.7.7,4,1.9,5,1.4,1.1,3.7,1.1,5.6,1.5-.7-1.3-1.5-2.5-2.7-4.3M578.2,518.5c0-1.6.2-3.3,0-4.9,0-.6-1-1.2-1.7-1.5-.2-.1-1.2.3-1.2.5,0,2.4.1,4.8.2,7.3.9,0,1.8-.2,2.7-1.3M531.7,518c.4-2.2.9-4.5,1.3-6.7-.6-.1-1.8-.3-1.8-.3-.4,1.9-.8,3.8-1,5.7,0,.4.3.8,1.5,1.3M548.7,516c.3,1.7.6,3.3,1.1,5,0,.1,1.4-.2,2.2-.3-.8-1.6-1.5-3.1-3.3-4.7M544.2,510.5c.8,1.2,1.6,2.3,2.4,3.5.2-1.4.4-2.8.6-4.1-.8,0-1.7,0-3,.6M539.2,519.5c.9.8,1.8,1.5,2.7,2.3.1-1.4.2-2.8.3-4.3-1,.3-2,.6-3,1.9M579.2,534.5c.2.8.4,1.7.6,2.5l1.3-.4c-.5-.9-.9-1.7-1.9-2.1Z"/>
      <path d="M594,384.7c-2.1,9.2-4.1,18-5.7,27-.9,5.5-4.8,8.4-9.1,9.1-12.1,2-24.3,1.9-35.7-3.2-12.6-5.7-20.9-14.8-23.5-29.4-3.4-19.3,7.7-41.8,23.3-50.1,18.3-9.7,40.8-3.2,49,20.5,3,8.6,2.8,17.1,1.6,26.1M587.2,366.5c1.2,1.5,2.3,3,3.5,4.5.2-1.4.7-2.9.5-4.2-.4-2.6-1-5.2-2-7.7-7.7-19.7-22.4-22.9-39.8-18.7-1.5.4-2.8,2-4.1,3.1,1.6.5,3.2,1.4,4.9,1.4,2.2,0,4.4-.4,6.6-.9,6.4-1.5,18.9,3.1,22.7,8.8,2.8,4.1,5.2,8.5,7.8,13.7M579.2,371.5c1.7,4.6,3.5,9.2,5,13.9,1.3,4.2.2,7.7-2.8,11-1.4,1.5-2.2,3.7-2.8,5.8-.3,1,.5,2.3.8,3.4.7-.5,1.4-.9,2.1-1.4.9-.7,2-1.4,2.7-2.3,3.3-4.3,3-9.1,3.6-14.3,1.1-10-4.7-17.1-6.7-25.7-.2-.8-1.6-1.3-2.4-1.9-.5.8-1.4,1.6-1.3,2.3.4,2.7,1.2,5.4,1.8,9.1M576.2,410.5c-.4-3.7-3.6-3-5.3-2.4-8.4,3-16.4,2.5-24.6-.5-1.5-.5-3.3-.2-5-.2,1.1,1.5,1.9,3.5,3.4,4.5,10.5,6.5,20.9,4.6,31.6-1.4M537.2,371.5c-1,.2-2.4,0-2.9.7-3.5,4.3-2.5,12.3,0,17.1.4.9,2.1,1.1,3.1,1.7.3-1,.8-2,.7-3-.2-5.2-.6-10.3-1-16.5M524.7,394c1.5,1.8,3,3.6,4.5,5.5.4.4.6,1,.8,1.5.4-.7,1.3-1.5,1.1-2-1.2-3.9-2.6-7.8-4.2-11.6-.2-.6-1.8-.7-2.7-.8-.3,0-1,.9-1,1.4.2,1.9.6,3.7,1.4,6M569.7,355c-1.5-.2-2.9-.4-4.4-.6.1,1.2.2,2.5.4,3.7.4,1.5.7,3.1,1.5,4.3.7,1.1,2.1,1.8,3.1,2.7.3-1,.8-2,.8-2.9-.2-2.2-.6-4.4-1.4-7.1M574.7,415c.2,1,.4,2,.6,3,2.6-1.2,5.4-2.1,7.9-3.7.8-.5.7-2.6,1-3.9-1.1.2-2.4.1-3.4.6-1.9,1-3.7,2.3-6,3.9M555.7,363c.7.7,1.3,1.6,2.1,2.1.9.5,2,.7,3,.7.3,0,1-1.4.9-1.6-.7-.8-1.6-1.5-2.5-2.1-1.4-1-2.9-1.9-4.3-2.7-.5-.3-1.5-.9-1.7-.7-.5.5-1.2,1.6-.9,1.9.6,1,1.6,1.7,3.4,2.5M545.7,359c-2.2-3-4.8-2.3-7.3-.6-.6.4-1.1,1.7-.8,2.3.3.6,1.6,1.3,2.2,1.1,2.2-.6,4.3-1.5,5.9-2.8M534.2,352.5c-1.3,1.2-2.8,2.4-3.9,3.8-.2.3.7,1.6,1.1,2.4.9-1.2,1.9-2.4,2.8-3.7.2-.3,0-1,0-2.5M543.2,393.5c-.2,0-.5-.2-.7-.3,0,0-.2.2-.3.4-2.3,2.8,1.1,2.7,2.1,3.8.1.2,1.2-.6,1.9-.9-.8-.8-1.6-1.6-3-3Z"/>
      <path d="M440,414.7c-8,6-16.6,8.6-26.4,8.4-9.4-.3-15.3-5.5-20.1-12.5-6.1-8.9-9.2-19.2-9-29.6.4-15.1,9.3-33.2,28.9-39,1.5-.4,3.1-.5,4.6-1.1.9-.4,1.5-1.3,2.3-2.1-1.1-.4-2.3-1.3-3.2-1.1-5.6,1.7-11.1,3.7-16.7,5.5-.6.2-1.4.2-2.1.3.4-.5.8-1,1.2-1.4,6-4.9,12.2-8.8,20.6-8.3,6.5.4,13.1-.2,19.6-.9,11.2-1.2,17.6,8.1,18.4,17.1,1.4,15.6.4,31.1-4.9,46-2.6,7.3-6.2,14-13.2,18.7M444.7,366c-.2,6.9,0,13.9-.9,20.7-.6,4.3-3,8.4-4.3,12.6-.4,1.4,0,3.1.2,4.7,1.3-.6,2.7-.9,3.7-1.8,1.2-1,2-2.5,2.9-3.8,5.4-7.9,5.4-16.9,4.8-25.8-.2-3-2.5-5.9-4.3-8.6-.9-1.3-2.7-2-4-3,.5,1.5,1,3,2,5M449.2,342.5c-1-.7-2.2-1.3-3-2.2-3.7-4.2-11.2-5.9-16.4-3.4-.9.4-1.7,1.2-2.6,1.7,1,.5,1.9.9,2.9,1.4,3.6,1.8,7.7,2.9,10.7,5.5,3.7,3.2,6.4,7.6,9.7,11.3.8.9,2.3,1.3,3.4,1.9.2-1.3.9-2.7.5-3.7-1.4-4.1-3.2-8-5.3-12.5M421.7,413c-2,.3-4.1.6-6.1,1-5.9,1.1-10.2-2.7-14.9-5-.7-.4-1.6-.4-2.4-.6,0,.8-.2,2,.2,2.3,3.9,2.9,7.7,6.5,12.1,8.1,7.2,2.6,14.3-.8,21.3-2.8.8-.2,1.3-1.2,1.9-1.8-.8-.7-1.7-2-2.5-2-2.9,0-5.7.6-9.6.9M403.7,353c0,.2-.2.5-.3.7,0,0,.3.3.3.3,6.1-2,12.3-4,18.4-6.2,1.1-.4,1.8-1.7,2.8-2.5-1.5-.4-3.3-1.6-4.4-1.1-5.6,2.6-10.9,5.5-16.8,8.9M409.7,408c2.9,2.8,5.6,2.5,7.7-.9.4-.7-.2-3-.4-3-3,0-6.7-1.3-7.3,3.9M427.2,348.5c0,.5-.2,1.4-.1,1.4,2.8.4,5.7.7,8.5,1.1.5,0,1,.4,1.4.7,0-.6,0-1.2-.3-1.7-1.9-4.5-4-5.1-9.5-1.5M433.7,379c1.4-.2,2.9-.4,4.3-.7-1.3-1.1-2.5-2.8-4-3.2-2-.6-6.2-.6-6.2-.3-.7,3.8,3.5,2.3,5.9,4.1M404.2,364.5c-1.7-.3-4.3-1.3-4.8-.7-1.4,1.7-1.8,4.1-2.6,6.3.9,0,2.2.5,2.7,0,1.6-1.5,2.9-3.4,4.8-5.6M420.7,378c.6,1.3,1.1,2.6,1.8,3.8.7,1.1,1.6,2,2.4,2.9-.2-1.7,0-3.5-.7-5-.4-1-2-1.5-3.6-1.7M411.2,395.5c.6,1.2,1.1,2.6,2,3.4.4.4,2-.7,3-1-1-.9-2-1.9-3-2.8-.3-.2-1,0-2,.5M395.2,395.5c1.8-.4,2.6-1.2,1.9-2.5-.8-1.5-2.2-2.7-3.3-4,.1,1.1.3,2.2.4,3.2.1.9.3,1.8,1,3.3M433.7,359c.4.1.9.3,1.3.3.9,0,1.8-.2,2.7-.4-.3-.6-.4-1.5-.9-1.7-1.4-.5-2.9-.8-4.3-1.2.2.8.4,1.6,1.1,2.9M428.2,366.5c-1,.2-2,.4-3,.7.5.9.8,2.3,1.5,2.7.8.4,2.1,0,3.2-.1-.4-.9-.9-1.8-1.8-3.2M401.2,380.5c1,.3,2,.6,3,.8-.6-1.4-1.1-2.9-1.7-4.3-.4.8-.9,1.7-1.3,3.5M407.7,386c-.4.9-.9,1.8-1.3,2.7,1.1.1,2.2.2,3.3.3-.3-1-.6-2-2-3M422.7,355c-.3.7-.6,1.4-.9,2.1.7-.1,1.5-.1,2.1-.4.2-.1-.1-1.1-1.2-1.7Z"/>
      <path d="M1084.2,540c-17.6,2-41.2-18.4-41.9-36.4-.6-18.6,2.6-33.2,19.9-41.1,10.8-5,20.8-2.9,30.5,3.4,17.6,11.5,23.5,28.4,21.4,48.3-1.4,12.9-12.8,22.2-24.8,24.7-1.5.3-3.1.7-5.1,1M1056.7,471l-2.2,4.8c1.8-.3,3.6-.6,5.4-1.1.4-.1.7-.9,1.1-1,4.5-1.3,8.9-3.2,13.4-3.5,3.6-.2,7.2,1.7,10.9,2.3,1.5.3,3.2-.5,4.9-.7-1-1.3-1.8-3.1-3.1-3.7-10.3-4.7-20.4-4.5-30.4,2.9M1063.7,529c1.5-.1,4.3,0,4.3-.4.7-4.5-5.9-11.7-10.4-11.6-.8,0-1.5.3-2.3.4.2.9,0,2,.6,2.7,2.4,2.9,4.9,5.6,7.8,8.9M1100.2,508.5c0-2.5,0-4.9,0-7.4,0-.7-.7-1.4-1.1-2.1-.6.5-1.5.8-1.8,1.4-1.2,3.1-2.4,6.3-3.4,9.5-.4,1.2-.2,2.7-.3,4,1.5-.4,3.2-.4,4.3-1.3,1-.7,1.2-2.4,2.3-4.1M1069.2,479.5c.8-.2,1.6-.2,2.3-.5,1-.6,1.8-1.4,2.7-2.1-1.2-.6-2.3-1.6-3.5-1.8-4.4-.7-8.1.9-11.2,4.1-.6.6-.9,1.6-1.3,2.4.9.1,1.9.6,2.8.4,2.6-.5,5.1-1.3,8.1-2.4M1092.7,481c-.3,1-1.2,2.5-.8,3,1.9,2.6,4,5,6.3,7.3.5.5,1.8.3,2.8.4,0-.8.4-1.9,0-2.3-2.4-2.9-4.9-5.6-8.3-8.4M1086.7,525c.6,2.9,2.7,1.3,3.3.5,1-1.5,1.4-3.5,2-5.3-1.1.3-2.5.3-3.3.9-1,.8-1.7,2.2-2,3.8M1101.7,523c-.7-.3-1.9-1-2-.9-1.7,2.2-3.3,4.5-4.9,6.8-.2.3,0,.7-.1,1,.8,0,1.9.1,2.3-.3,1.9-2,3.5-4.1,4.8-6.7M1084.7,521c-.7-.3-1.5-1.1-2-.9-1.4.4-2.9,1.1-3.9,2-.5.4,0,1.9,0,2.9,1.4-.5,3-.8,4.3-1.5.8-.4,1.4-1.3,1.6-2.5M1057.2,507.5c-.4-.5-.9-1-1.3-1.5-.1.6-.5,1.4-.3,1.9.5.8,1.3,1.4,2,2.1,0-.7,0-1.3-.4-2.5Z"/>
      <path d="M460.2,708c2.8,12,.6,23.5-3.4,33.8-5.7,14.8-16,25.5-32.6,27.7-13.7,1.8-23.8-2.4-31.7-12-4.2-5-6.7-11.9-8.5-18.3-3.2-11.1-3.3-22.4,2.2-33.1,6.5-12.5,17.4-19.1,30.5-23,12.4-3.7,23.9-1.1,33.2,7.2,4.2,3.8,6.2,10,9.3,15.2.4.7.7,1.4,1,2.6M456.7,720c.5-.6,1.6-1.4,1.4-1.8-3.3-9.7-1.3-21.2-14.5-27.1-8.6-3.9-16.2-5.9-25-4.1-9.6,2-18.2,6.8-24.6,13.9-7.6,8.5-9.6,19.4-7.8,30.8.2,1.2,1.3,2.2,2.1,3.3.6-1.2,1.6-2.3,1.8-3.5.5-3.7.4-7.4,1.1-11.1,1.6-7.5,4-14.6,11.5-18.5,5.1-2.6,10.1-5.5,15.1-8.1,12.7-6.6,29.3,1.5,32.8,12.3,1.5,4.7,3.3,9.3,5.9,14M409.2,750.5c-.6-.6-1.1-1.2-1.8-1.7-1.6-1.3-3.2-2.5-4.8-3.7.2,2,0,4.1.6,5.8,3.8,9,12.9,10.5,20.6,14,.6.3,2.2-1.5,3.4-2.3-.9-.5-1.8-1.2-2.9-1.5-6.2-1.4-11.4-4.3-15.1-10.5M401.7,718c-3-1.7-4.2,0-4.5,2.6-.5,5.5-.8,11-1,16.5,0,.8.7,1.6,1,2.4,1-.6,2.4-.9,2.9-1.8,3.5-6,3.8-12.5,1.6-19.7M441.7,709c2.1,2.4,4.2,4.9,6.3,7.3.5.6,1.4.9,2.1,1.3.4-.8,1.1-1.7,1-2.5-.8-7.3-12.8-16.8-20.1-16-.7,0-1.3.6-1.9.9.5.4,1.1.8,1.6,1.2,3.5,2.5,6.9,4.9,10.9,7.9M401.2,760.5c3.1,2.1,6.2,4.3,9.4,6.3.6.4,2-.4,3-.7-.4-.8-.6-1.9-1.3-2.4-5.3-4.4-10.6-8.8-16.1-13-.8-.6-2.3-.5-3.4-.7.2,1.3,0,2.9.6,3.7,2.2,2.3,4.8,4.3,7.8,6.9M432.2,744.5c-3.2.9-2.3,3.3-.9,4.5,1.4,1.2,4.2,2.1,5.6,1.5,3.9-1.6,6.2-7.5,5.2-12,0-.4-1.6-1.1-1.9-.9-2.7,1.9-5.3,3.9-8,6.9M410.2,727.5c.8-3.1,1.6-6.3,2.4-9.4.4-1.5,1.1-2.9,1.5-4.3,0-.1-.9-.8-.9-.7-1,1.1-2.2,2.2-3,3.4-4.8,6.9-5.6,13.9-.2,21,.2.3,0,1-.1,1.6.4-.3,1.3-.7,1.2-1-.2-3.2-.6-6.3-.9-10.5M428.2,753.5c-3.9-4.9-9.1-7.1-15.2-7.5-.9,0-1.8.3-2.8.5.5.8.7,1.9,1.4,2.4,4.9,3.6,10,6.8,16.6,4.6M427.2,706.5c-.2.5-.6,1.3-.6,1.3,3.4,2.2,6.8,4.3,10.3,6.3,1.2.7,2.5,1.2,3.7,1.8,0-1.6.6-3.5,0-4.9-1.6-4.7-6.7-6.6-13.5-4.6M445.2,725.5c.3,3.3.6,6.7,1,10,0,.8.5,1.7.8,2.5.7-.6,1.7-1,2.2-1.7,2.5-3.7,2.3-7.7,1-11.6-.6-1.7-1.7-3.1-2.6-4.7-.8,1.5-1.6,3-2.3,5.5M436.2,724.5c-.3,1.5-1.1,3.1-.9,4.5.2,1.4,1.5,2.7,2.3,4,.9-1.2,2.2-2.4,2.5-3.7.4-1.9.3-4,0-5.9-.3-1.8-1.1-3.6-1.6-5.3-.8,1.8-1.6,3.7-2.3,6.5M428.2,711.5c-1.2-.4-2.5-.8-3.7-1.3.5,1.4.8,2.9,1.6,4,1.5,2.2,3.3,4.2,5.2,6.1.2.2,1.8-.4,1.9-.9,1-3.9-2.6-5.2-4.9-8M422.7,724c-4.2,1.1-3.8,3.9-2.5,6.9.3.7.8,1.4,1.2,2.1.6-.7,1.6-1.3,1.7-2.1.2-2.1,0-4.3-.4-6.9M408.7,703c.7,1.9-4.4-1.4-1.9,2.1.8,1,1.7,1.9,2.6,2.9,0-1.3-.1-2.7-.2-4,0-.2,0-.3-.5-1M417.7,708c.7.7,1.3,1.3,2,2,.5-.7,1-1.5,1.5-2.2-.8,0-1.7.1-3.5.2M416.2,699.5c1-.2,2-.3,3-.5,0-.6-.2-1.2-.3-1.8-.9.4-1.8.9-2.7,2.3M419.7,738c.6.7,1.1,1.3,1.7,2,.3-.6.6-1.3.8-1.9-.7-.2-1.3-.4-2.5,0M452.2,742.5c0-1,0-2,0-3.1-.3,0-.9.2-.9.2.1,1.1.3,2.2,1,2.9Z"/>
      <path d="M876,411.7c-4.7-6.4-7.3-13.7-7.6-21.4-.4-8.7.3-17.5.9-26.2.4-5.6,4.6-10.1,11-10.2,10.2-.1,20.4-.1,30.5-1.1,6.8-.7,13.1-1.7,19,3.1,4.9,3.9,8.4,8.7,9.2,14.6,2.8,20.8-12.9,44.3-36.2,47.6-9.1,1.3-17.3.9-24.8-4.7-.7-.5-1.8-.5-2.7-.8,0,0,0-.3,0-.3,0-.1.2-.2.6-.6M931.2,376.5c.3,1.5.5,3.1,1.1,4.6.3.8,1.2,1.3,1.9,1.9.7-.8,1.8-1.5,2-2.3,1.7-7.5-4.2-19.8-11.1-23.2-.7-.4-1.8,0-2.7-.1.1.9,0,2.3.4,2.6,5.6,3.7,6.5,9.9,8.4,16.5M897.7,410c-6.1.6-11.7-.6-16.5-4.6-.5-.4-.9-.9-1.4-1.4-.2.7-.6,1.4-.6,2.1-.4,4.5,3.6,6.2,6.3,6.6,5.9.9,12,.3,18.1.2.6,0,1.1-1.4,1.6-2.1-.7-.3-1.3-.7-2-.7-1.5-.1-3,0-5.5,0M911.2,375.5c-.7.4-2,1-1.9,1.1.7,2.2,1.4,4.4,2.5,6.4.5.9,1.6,1.3,2.5,2,.5-1.3,1.8-2.9,1.5-3.7-1-2.3-2.6-4.2-4.5-5.8M898.7,371l1.2-3.8c-1.2-.2-3.3-1-3.6-.6-1,1.4-1.4,3.3-2,5,1.1-.2,2.3-.4,4.4-.6M877.7,358c-.5.5-1.1.9-1.4,1.4-.5,1-.7,2.1-1.1,3.1.8.2,1.9.7,2.2.4,1.4-1.2,2.5-2.8,3.7-4.2-.8-.3-1.7-.5-3.5-.8Z"/>
      <path d="M945.5,658.2c-2.6,6.8-6,13.2-7,19.9-1,7-4.2,11.8-9.9,14.7-4.3,2.2-9.4,3.3-14.3,4.1-12.4,1.9-20.4-4.3-27.3-14.1-4.9-6.8-8.2-13.9-10.2-21.8-.3-1.2-.6-2.6-.5-3.8.9-6.6,1.6-13.3,3.1-19.7,1-4.2,3.4-7.6,8.1-9.7,9.4-4.1,18.6-8.5,29.2-7.9,5.3.3,9.9,1.9,13.6,5.7,3.5,3.7,6.7,7.6,10.3,11.2,6.1,6.1,7.2,13.2,4.8,21.4M931.2,677.5c4.1-4.1,5.4-9.8,3-13.9-.5-1-1.6-1.6-2.4-2.4-.2.8-.4,1.7-.7,2.4-2.1,4.1-3.5,9-6.5,12.2-4.8,5.1-10.7,8.9-18.5,6.4-1-.3-2.6.9-3.9,1.4,1.1.8,2.1,2.3,3.3,2.4,9.7,1.6,17.9-1.7,25.7-8.4M906.7,636c2.7,0,5.4,0,8.1,0,.3,0,.8-.9.7-1.1-1.2-2-2.1-4.8-3.9-5.7-2.4-1.1-5.5-.7-8.3-.9.8,2.3,1.7,4.5,2.5,6.8,0,.1.2.2.8.9M939.2,649.5c-.7,4.2-1.5,8.4-1.9,12.6,0,.9,1.2,1.9,1.8,2.9.7-.9,1.8-1.8,2-2.8.8-3.5,1.7-7.1,1.8-10.6,0-1-2.4-2.1-3.7-2.1M925.2,637.5c0-1.2.4-2.5,0-3.4-1.2-2.2-2.9-4.1-4.3-6.1-.2,2.1-.5,4.2-.7,6.4,0,1.1-.3,2.5.2,3.3.7,1.2,2.1,2.1,3.2,3.1.6-.8,1.2-1.5,1.7-3.3M935.2,645.5c0-.8.3-1.8,0-2.4-.9-1.8-2.2-3.4-3.3-5.1-.6,1.5-1.2,3-1.6,4.5-.2.9-.3,2.1,0,2.9.5,1.3,1.5,2.3,2.4,3.5.7-1,1.4-1.9,2.6-3.4M899.2,667.5c-1.4-.3-2.7-.6-4.1-.9,0,1.4-.1,2.8.2,4.2.2.8.9,1.6,1.6,2.2.9.7,2,1.2,3,1.8.4-1.5,1.1-2.9,1.2-4.4,0-.7-.9-1.6-1.9-2.9M924.2,647.5l-4.5-4.5c-.2.8-.7,1.7-.4,2.3.7,1.7,1.8,3.2,2.7,4.7.8-.5,1.5-1,2.3-2.5M931.2,653.5c-1.3.9-2.7,1.7-4,2.6.8.6,1.6,1.3,2.4,1.9.5-1.2,1.1-2.3,1.6-4.5M892.7,646c-1.1,1.2-2.2,2.5-3.3,3.7.8.1,1.6.3,2.5.3,3.4,0,1.4-2.1.9-4Z"/>
      <path d="M1342.2,392.4c0-7.6-.2-14.4,0-21,1.2-28.6,2.5-57.2,4-85.7.6-11.8,1.9-23.5,3-35.3,0-1.1.6-2,.7-3.1.7-5.7,2.2-10.3,5.5-12.3,0,5.2,0,10.5-.3,15.7-1.4,22.3-3.6,44.5-.4,66.9.1,1-.2,2.3-.3,3.5-.4-.9-1.1-1.8-1.2-2.8-.4-2.8-.4-5.8-.8-8.6-.2-1.8-.8-3.4-1.1-5.1-1,1.7-2.2,3.3-3,5.3-.3.7,0,2.4,0,3.6-.3,69-1,138-.8,207,0,25.2,1.6,50.4,2.9,75.5,1.4,28.1,3.4,56,4.9,84.1,1.2,21.2,2.1,42.4,3,63.6.8,17.5,1.3,35,2,52.5,1.3,30.7,2.7,61.4,4,92.2.5,13.1.7,26.3,1,39.5.7,26.6,1.3,53.3,2,79.9.3,10.7.8,21.5,1,32.2.4,32.7.5,65.4,1.1,98.1.3,20.6,1.2,41.1,2,61.6.8,21.2,1.9,42.4,3,63.6,1.3,26.5,2.6,52.9,4,79.3,1,19.4,2.2,38.7,2.9,58.1.6,15,.6,30,1.1,45,1.3,46.6,2.9,93,12,137.4,1.7,8.2,3.1,16.6,4.5,25,.2,1.4-.4,3.3-.7,5-.9-.8-2.4-1.3-2.6-2.5-5.1-27.3-10.8-54.3-14.8-82.1-2.2-15.2-1.8-31.8-2.2-47.8-.5-22.9-.4-45.9-1.1-68.8-1-28.3-2.6-56.6-3.9-84.8-1-20-2.1-40-3-60-1.1-27.3-2.2-54.6-3-81.9-.8-26.6-1.5-53.3-2-79.9-.8-43.1-1.3-86.3-2.1-129.4-.4-22.1-1.1-44.2-2-66.2-1.1-28-2.7-55.9-3.9-83.9-.8-17.5-1.4-35-2-52.5-1-26.1-1.9-52.2-3-78.3-.8-17.6-2-35.1-2.9-52.7-1.4-25.5-2.7-51.1-4-76.6-.4-8.9-.9-17.8-1-26.7-.7-48.6-1.4-97.2-2-146.8Z"/>
      <path d="M23.2,340.4c-1.1-11.9-2.3-22.8-3.1-33.8-.2-2.5.9-5.3,1.4-8,.8,1.4,1.8,2.5,2.4,4.1,3.8,9.5,4.3,20.3,4.4,31.9,0,29.3.5,58.6.9,88,.3,23.9.9,47.8.9,71.7.1,81.6.1,163.1,0,244.7,0,22.3-.6,44.7-1,67-.3,20.1-.6,40.2-1,60.3-.6,28.4-1.5,56.8-1.9,85.3-.8,52.3-1.4,104.6-2,156.9-.5,41.7-.7,83.5-1,125.2-.4,49.4-.6,98.7-1,148.1-.2,23.9-.9,47.8-.9,71.7,0,37,.6,73.9.9,110.9.3,25.8.6,51.7,1,77.5.1,7.4.8,14.7.9,22.1,0,1.8-1.2,3.6-1.8,5.4-1-1.8-2.7-3.4-2.9-5.4-.9-9.6-1.6-19.2-2.1-28.9-1.1-20.2-2-40.4-3-60.6,0-2,.3-4.1.5-6.2.2,1.8.3,3.6.5,5.3.6,4.9,1.2,9.9,2.1,14.6.3,1.8,1.5,3.1,2.3,4.7.2-1.6.6-3.3.6-4.9-.6-39.6-1.3-79.1-2-118.7-.4-26.1-1-52.3-1-78.4.2-71.3.6-142.6,1-214,.2-45.2.6-90.5,1-135.7.2-23.9.5-47.8,1-71.7.6-28.8,1.3-57.5,2-86.2.3-15,.4-30.1,1.1-45,3.1-68.4,1.6-137,1.9-205.5.4-67.8.8-135.6.9-203.5,0-17.2-.6-34.5-.9-51.7,0-4.7,0-8.7-3.6-4.9-.9,1-2.9-1.5-4.3-2.5.5-3,.8-6.5,1.7-9,1.5-3.7,3.9-6.3,5-10.3.6-2.2-.5-6.3-.8-10.5Z"/>
      <path d="M122.2,739.4c.3,46.5.6,92.1,1,137.6.3,34.7.5,69.5,1,104.2.5,34.8.5,69.7,2.1,104.4,3.2,67.2,1,134.5,1.9,201.8.3,26.9,1.3,53.7,2,80.5.3,10.2.8,20.5,1,30.7.4,23,1,45.9,1,68.9,0,25.5-.2,51.1-1,76.5-.8,23-2.6,45.9-8.9,66.4-.2.8-.5,1.5-.8,2.2-1.8,3.6-3.7,7.2-5.6,10.8,1-3.9,2.3-7.7,3-11.8,2.2-12.9,5.3-25.7,6.2-38.9,3.4-52.4,3.7-105.2,3.1-158-.3-30.7-1.4-61.3-1.9-92-.8-51.3-1.4-102.7-2-154-.4-31.2-.6-62.5-1-93.7-.3-22.7-.7-45.3-1-67.9-.4-26.8-.7-53.6-1-80.4s-.7-53.6-1-80.4c-.3-26.1-.9-52.3-.9-78.4,0-7.7-1.7-11.8-4.7-15.1-4.4-4.9-4.8-7-.5-11.9,3.5-4,4.1-9.1,4.1-15.9,0-39.5,0-78.9,0-118.4,0-8.3.6-16.7,1-25,.4-9.5-.7-18-3.5-25.9-.7-2.1-.7-6.7,0-8.9,2.4-7.2,3.7-14.4,3.5-23.1-.3-15.3-.2-30.6,0-45.8.2-18.5.5-37,1-55.5.4-15.7,1.5-31.4,1.8-47.1,0-3.3-2.3-6.5-2.8-10.2-.5-3.2-.8-8.9,0-10.1,6.9-9.7,3.5-22.2,3.4-34.1,0-9.8.7-19.9,1.8-29.5,1-8.3,3-16.2,4.5-24.2.2-1.1.5-2.1.7-3.2.2,1.1.5,2.3.4,3.4-.3,8.7-.6,17.3-1,25.9-.2,3.6-.9,7.1-.9,10.7-.4,22-.6,44-1.1,66-.5,25.9-1.4,51.8-1.9,77.7-.5,20.7-.8,41.5-1,62.2-.4,42.7-.7,85.4-1,128.1-.3,33.5-.7,66.9-1,101.4Z"/>
      <path d="M190.2,546c-.7-4.4-1.5-8.3-2-12.2-.8-7.7-1.4-15.4-2-23.2,0-.8-.2-1.7,0-2.5.3-1,.8-2,1.3-3,.9.8,2.3,1.5,2.6,2.5.9,3,1.6,6.1,2.1,9.1.8,5.2,1.5,10.4,2,15.7,1.4,14.6,2.7,29.2,4,43.8.4,4.6,4,5.7,7.4,5.5,7.3-.5,14.6-1.7,21.9-2.6,10.3-1.4,20.5-3,30.8-4.1,4.1-.4,6.1-1.7,6-6-.4-13-.5-26.1-1.1-39.1-.4-8.9-1.4-17.8-1.9-26.7-.1-2,.5-4.1.9-6.1.8-3.6-1.2-6.6-4.7-6.2-10,1.1-19.9,3-29.9,3.8-7.6.6-15.4-.3-23,.3-6.1.4-12.1,2.1-18.2,3-1.3.2-2.9,0-4.1-.6-.7-.4-1.3-2.7-1.2-2.8,1.3-.8,2.7-1.6,4.1-1.7,11.6-1.1,23.2-1.8,34.7-3.1,12.2-1.4,24.3-3.7,36.4-4.7,5.8-.5,11.8,1.1,17.7,1.8-.2.7-.4,2-.7,2.1-7.9.9-5.9,5.9-5.5,11.2.7,8.2,0,16.4.2,24.7.2,12.2.4,24.4,1.1,36.6.2,3,2.4,6,3.8,8.9.9,1.8,3.1,4.7,2.8,5-2,1.9-4.5,4-7,4.4-4.6.7-9.5-.3-14.1.3-8.5,1-16.8,2.7-25.3,4.1-6.1,1-12.2,1.9-18.3,2.8-2.4.4-4.7.6-7.1,1-6.5,1.1-10.1-1-10.8-7.3-1.2-11.4-2.1-22.8-3.1-34.7Z"/>
      <path d="M253.2,352c1,12.4,2,24.3,3,36.2.4,4.4-2,6.1-5.8,6.8-8,1.6-15.9,3.3-23.9,5-1.9.4-4,1-5.6,2-3.8,2.4-5.1-.6-5.5-3-1-6.2-1.3-12.4-2.2-18.6-.8-6-1.9-11.9-2.8-17.8-.1-.6-.3-1.4-.1-1.9.7-1.9,1.5-3.7,2.3-5.5.9,1.7,2.3,3.3,2.6,5.1,1.8,9.9,3.4,19.9,5.1,29.9.7,3.9,3.8,5.9,7.5,4.8,4.5-1.2,8.8-3,13.4-3.8,4.9-.8,7.8-4.5,7.8-8.1.1-10-1-20.1-1.7-30.1-.2-3.1-2.2-4.2-5.1-3.8-5,.7-9.9,2-14.9,2.4-3,.2-6.1-.5-9.1-1.1-.6-.1-1.1-1.3-1.6-2,.8-.4,1.6-1.2,2.5-1.2,8.6-.3,16.8-2.1,24.6-5.7,1.3-.6,4.2.7,5.3,2,1.9,2.4,3,5.4,4.4,8.6Z"/>
      <path d="M136.2,252c1.9.7,3.2,1.4,4.6,2.1-1,.6-1.9,1.5-2.9,1.7-5.2,1.2-10.4,2.3-15.7,3.2-9.5,1.7-18.9,3.5-28.4,4.9-6.5,1-13.1,1.4-19.6,2.1-12.8,1.3-25.5,2.6-38.3,4-8.9,1-17.8,1.9-26.7,3-1.8.2-3.5,1.1-5.2,1.8-1.2.5-2.5,1-3.7,1.5.5-2.1.4-5.4,1.7-6.1,3.6-2,7.7-3.6,11.7-4.1,8.7-1.1,17.4-1.4,26.1-2.2,13.9-1.3,27.9-2.4,41.8-4,14.7-1.7,29.3-3.9,44-6,3.4-.5,6.8-1.3,10.7-2Z"/>
      <path d="M247.2,681c-5.4,1.5-10.2,3.1-15.1,4.5-3.4,1-5.6-1.7-5.9-7-.2-3.9-.5-7.8-.7-11.7-.2-5.4-.8-10.6-3.2-15.7-.8-1.7.3-4.4.7-6.5.4-1.9,1.2-3.8,1.8-5.6,1,1.4,1.7,3.4,3.1,4.1,2.1,1,4.8,1.8,7,1.4,3.9-.7,7.8-2,11.4-3.6,3.7-1.6,5.3.2,6.3,3.2,3.9,11.2,7.7,22.4,11.4,33.7.3,1-.5,2.4-.8,3.6-1-.3-2.2-.3-3.1-.9-4.4-3-8.4-1.5-13,.5M253.2,664.5c-.7-2.9-1.5-5.7-2-8.6-1.1-7.7-2.4-9.5-7.7-8.8-3.5.5-7,1.6-10.2,3.1-1.5.7-3,3-3.1,4.6-.4,5.3-.3,10.6-.1,15.9.3,6.3,3.7,8.9,9.5,7.1,3.4-1,6.6-2.5,9.9-3.8q6.3-2.4,3.6-9.6Z"/>
      <path d="M231,739.2c-1.6-3.8-.8-5.5,3.4-6.4,7.4-1.5,14.6-3.9,22-5.8,3.3-.9,4.4,1.8,4.8,4,1.3,7,1.8,14.2,3.2,21.1.8,3.8,3,7.4,4.6,11,.4,1,1.1,1.9,1.7,2.8-1.4.3-2.8,1.1-4,.8-6.1-1.4-12-1.7-17.8,1-3.1,1.4-6.1,3-9.3,4.1-1,.4-3.4,2.6-3.4-1.2,0-1.5-.8-3-.9-4.6-.4-7-.5-14-1.2-21-.2-2-1.9-3.8-3.1-6M257.2,740.5c-.4-5.7-1.5-6.6-7.1-5.5-.6.1-1.3,0-2,0-8,1-9.1,2-8.9,10,.1,5,.6,10,1,15,.2,3.5,2.6,4.6,5.5,3.8,3.7-.9,7.5-2.1,10.7-4.1,1.9-1.2,3.7-4.4,3.6-6.6-.2-3.9-1.8-7.8-2.8-12.7Z"/>
      <path d="M53.5,1664.1c-1.2.8-2.2,1.8-3,1.3-1.2-.8-2.2-2.6-3.2-4,.8-1.8,1.5-4.8,2.5-5.2,6.4-2.9,12.8-5.2,19.3-7.8,8.8-3.6,17.7-7,24.8-19.2.5-.9,1.3-1.1,2-1.6-.2,1.5-.2,3.6-.7,4.5-1.7,3.1-3.5,6.4-5.5,8.6-11.1,12.3-22.9,21.3-36.2,23.4Z"/>
      <path d="M1,1260.2c.3.6.2.9.3,1.2,0,1.3.2,2.5.2,3.8,0,.1-.7.3-1,.4,0-1.1-.2-2.3-.2-3.4,0-.8.3-1.5.7-2Z"/>
      <g id="ZdPcmC">
        <image id="ZdPcmC-2" data-name="ZdPcmC" width="514" height="258" transform="translate(-257 833.7) scale(.5)" xlink:href="shapley_kernel_regression-1.png"/>
      </g>
      <g id="_x34_UiJBP">
        <image id="_x34_UiJBP-2" data-name="_x34_UiJBP" width="846" height="258" transform="translate(1554.4 502.9) scale(.5)" xlink:href="shapley_kernel_regression-2.png"/>
      </g>
      <text class="cls-2" transform="translate(631.8 202.8)"><tspan x="0" y="0">Features</tspan></text>
      <text class="cls-2" transform="translate(1554.4 801.3)"><tspan x="0" y="0">Shapley Values</tspan></text>
      <text class="cls-2" transform="translate(-58.7 696.3) rotate(-90)"><tspan x="0" y="0">Subsets</tspan></text>
      <text class="cls-1" transform="translate(99.3 154.8)"><tspan x="0" y="0">Weights</tspan></text>
      <g>
        <line class="cls-3" x1="233.2" y1="190.1" x2="233.2" y2="285.2"/>
        <polygon points="213.3 279.3 233.2 313.9 253.2 279.3 213.3 279.3"/>
      </g>
    </g>
  </g>
</svg>