<?xml version="1.0" encoding="UTF-8"?>
<svg id="Contours" xmlns="http://www.w3.org/2000/svg" xmlns:xlink="http://www.w3.org/1999/xlink" version="1.1" viewBox="0 0 3037.9 3037.9">
  <!-- Generator: Adobe Illustrator 29.1.0, SVG Export Plug-In . SVG Version: 2.1.0 Build 142)  -->
  <defs>
    <style>
      .st0 {
        fill: #dd1d1d;
      }

      .st1 {
        isolation: isolate;
      }

      .st2 {
        stroke-width: 8px;
      }

      .st2, .st3 {
        fill: none;
        stroke: #000;
        stroke-miterlimit: 10;
      }

      .st3 {
        stroke-width: 4px;
      }
    </style>
  </defs>
  <path d="M2796.5,1250.6c-4.7-1.2-6.9.6-7.8,5.2-.3,1.7-1.4,3.4-2.7,4.7-3.3,3.4-7,6.3-10.3,9.7-7.5,7.7-14.6,15.7-22.3,23.1-6.9,6.6-14.7,12.3-21.6,18.9-6.7,6.4-12.6,13.5-19.2,20-7.1,7-14.8,13.4-22.1,20.2-8.2,7.6-15.6,16.1-25.2,22.5-11,7.4-22.4,13.9-34.5,19.3-8.4,3.8-16.4,8.8-24.9,12.2-13.6,5.5-27.4,10.3-41.3,15.1-8.2,2.9-16.2,6.1-25,7.4-7.2,1-14,4.7-20.9,7.3-7,2.7-13.9,5.9-21.1,8.3-11,3.6-22.3,6.6-33.3,10.1-11.9,3.8-23.8,7.7-35.5,12-16.3,6.1-32.5,12.5-48.6,19-13.9,5.5-27.7,11.2-41.5,17-12.8,5.4-25.6,10.7-38,16.8-16.5,8.2-32.7,17-48.8,25.8-8.3,4.5-16.4,9.5-24.5,14.5-4.9,3-9.6,6.6-14.6,9.5-13,7.6-26.4,14.6-39.1,22.6-10.9,6.9-21.4,14.6-31.7,22.4-12.6,9.5-24.9,19.5-37.4,29.3-7.4,5.8-14.8,11.6-22.3,17.3-4.9,3.7-10.2,7-14.9,11-10.1,8.8-19.8,18.1-30,26.7-14.5,12.3-29.5,23.9-44,36.2-13.5,11.6-26.5,23.7-39.8,35.6-2.8,2.5-5.7,4.8-8.3,7.4-5.7,5.5-11.3,11.1-16.9,16.8-5.3,5.4-10.3,11.1-15.6,16.5-6.1,6.3-12.7,12.2-18.6,18.7-10.3,11.4-18.1,24.8-29.8,35.2-8.9,7.9-15.6,18.2-23.6,27-10.3,11.3-20.7,22.5-31.5,33.4-2.6,2.7-6.3,4.7-9.9,6.1-5.5,2.1-11.3,3.3-16.9,5-14.3,4.5-28.6,9-42.8,13.8-11.7,3.9-23.2,8.4-34.9,12.2-6.8,2.2-13.9,3.3-20.7,5.5-8.5,2.7-17,5.7-25.2,9.2-13.2,5.5-26.3,11.4-39.3,17.4-6.4,3-12.5,6.7-18.9,9.9-8.7,4.4-17.4,8.6-26.2,12.9-9.6,4.6-19,9.6-28.8,13.7-6.4,2.7-13.5,3.7-19.9,6.2-11.6,4.6-23.6,6.9-36,7.2-17.6.3-35.1-.6-52-5.9-7.2-2.3-15.2-3.2-21.7-6.7-14.9-8.1-29.6-16.8-43.5-26.5-12.9-9-24.7-19.4-36.8-29.5-4.9-4.1-9.2-9-13.7-13.6-10.8-10.8-21.7-21.6-32.4-32.5-4.3-4.4-8.2-9.2-12-14-5.2-6.3-10-12.9-15.3-19.2-6.1-7.4-12.5-14.5-18.7-21.8-2.3-2.7-3-5.5,1.4-6.8,7.6-2.3,15.2-4.3,22.9-6.4,14-3.7,28-7.3,41.9-11,12-3.2,23.9-6.7,35.9-9.9,2.5-.7,5.4-.5,5.4,3.5,0,2.3,0,4.9,1,6.7,1.1,1.9,3.4,4,5.4,4.4,1.6.3,4.4-1.7,5.2-3.4.6-1.3-.5-4.1-1.7-5.5-1.2-1.4-3.5-1.9-5.2-2.8-.7-.4-1.2-1-1.8-1.5.5-.5.9-1.1,1.4-1.4,6.2-2.7,12.3-5.8,18.7-8,11.1-3.8,22.6-6.6,33.7-10.5,24.9-8.7,49.7-17.6,74.5-26.6,8-2.9,15.9-6,23.6-9.4,17.2-7.6,34.3-15.4,51.3-23.3,5.9-2.7,11.5-6,17.2-9.2,9.5-5.3,19-10.6,28.3-16.2,4.7-2.9,9.2-6.2,13.4-9.8,6.7-5.8,13-11.9,19.4-18,6.4-6.1,10-14.2,15-21.1,7-9.8,6.8-20,7.2-30.4.3-7.5.7-10.4,7.4-13,7.6-3,15.3-5.8,23-8.4,4.9-1.6,10.2-2.1,15.1-3.9,14.3-5.2,28.5-10.8,42.8-16.2,9.6-3.7,19.3-7.3,28.9-11,12.9-5,25.8-10.2,38.8-14.9,8.7-3.2,17.8-5.4,26.4-8.8,14.2-5.6,28.1-11.8,42.1-17.9,20.9-9.1,41.7-18.5,62.6-27.5,15-6.4,30.2-12.5,45.4-18.4,13.6-5.3,27.5-10.1,41.2-15.3,6.6-2.5,13-5.8,19.7-8,9.4-3.1,19-5.6,28.7-8,4.2-1,5.8-3.9,5-7.2-.3-1.1-5-2.3-7.1-1.7-11.6,3.6-23.1,7.6-34.6,11.8-17.8,6.5-35.6,13.1-53.3,19.9-9.6,3.7-19.1,7.7-28.7,11.6-9.1,3.7-18.3,7.4-27.3,11.3-9.6,4.2-19,8.9-28.6,13-7.6,3.3-15.5,5.9-23.2,9.1-7.7,3.2-15.3,6.5-22.9,10-6.2,2.8-12.1,6.4-18.4,8.7-13.1,4.9-26.6,9.1-39.7,14-11.4,4.3-22.5,9.3-33.8,13.7-20.2,7.7-40.4,15.2-60.7,22.5-3.1,1.1-6.7,1.2-10,.9-8.5-1-16.9-2.9-25.4-3.6-7-.6-14.1,0-21.2-.2-6.1-.1-12.2-.3-18.2-1-9.5-1.1-19-2.2-28.2-4.3-8.4-1.9-16.6-4.9-24.8-7.7-6.1-2.1-12.5-3.9-18-7.2-12.3-7.2-23.4-16.8-36.3-22.4-17.8-7.7-30.5-20.6-43.4-33.9-7.9-8.2-16-16.2-24.7-23.5-5.6-4.7-13.3-7.4-20.4-5.6-9.7,2.4-18.6,7.4-26,14.4-5,4.8-10.1,9.7-14.8,14.8-10.6,11.5-20,24-28,37.4-1.8,3.1-3.1,7.3-5.8,8.8-3.1,1.7-7.5,1.3-11.4,1.2-5.1,0-10.2-.9-15.3-.9-21.2-.1-42.4,0-63.7,0h-71.2c-6,0-12-.3-18,0-11.8.8-23.5,2-35.3,2.9-1.3,0-2.7-.9-4-1-1.7-.1-4.2-.5-5,.4-2.6,3.3-4.5.2-6.6-.4-.8-.3-1.2-1.6-1.8-2.4,1.7-.8,3.2-2.1,5-2.4,4.3-.7,9-.1,12.8-1.7,6.8-2.8,13.6-6.3,19.6-10.5,11.5-8.1,22.4-16.9,33.6-25.3,1.1-.8,2.4-1.4,3.8-1.7.4-.1,1.4.7,1.6,1.3.8,2.6,1.4,5.2,2,7.8,2.6-.9,6.3-.9,7.7-2.8,12.1-16,31.6-22.7,45.7-36.1,1-.9,2.6-1.2,3.6-2.1,6.1-5.4,13.2-9.1,18.5-15.8,6.6-8.5,14.7-15.9,22.8-23,9.1-8,19.5-14.6,28.3-22.8,7.1-6.7,12.9-14.9,21.9-19.4,5.9-2.9,10.4-8.5,18.2-8.2,4,.2,8.2-3.2,12.1-5.3,4.9-2.7,8.5-7.7,14.5-8.5,2-.3,4.5,0,6-1.2,4.7-3.3,9.6-3.8,15.1-2.9,2.2.4,4.7-1.3,7-2.1,1.2-.4,2.2-1.5,3.3-1.6,9.1-.7,18.3-3,27.2,1.6.6.3,1.6.4,2.3.2,5.6-1.3,11.3-2.4,16.9-3.9,16.6-4.5,33.2-9.2,49.8-13.7,6.2-1.7,12.4-3.1,18.7-4.3,6.5-1.3,13.1-2.1,19.7-3.2,5.8-.9,11.5-2.5,17.3-2.7,5.5-.2,11.1,1.2,16.7,1.8,1.2.1,2.6-.2,3.6-.8,3.5-2,7.3-3.8,10.3-6.4,5.5-4.8,11.3-4.2,17.5-2.2,3.1,1,6.3,1.9,9.5,2.4,3.7.6,7.6.4,11.2,1.1,8.7,1.7,15.8,9.8,25.8,6.1,0,0,.2.3.3.3,11.4,1.2,22.5,4.8,34.2,3.7,3.6-.4,7.4,1.5,11.2,1.8,9.7.6,19.5.8,29.2,1.2,9.3.3,18.6,1.4,27.8.7,7.8-.6,15.3-1.5,22.6,2.1,1.4.7,3.5.6,5.2.3,5.4-.9,10.7-2.5,16.2-3.1,5-.5,10.2.4,15.1-.2,8.5-1,16.9-2.5,25.2-4.2,4.3-.9,8.3-3.1,12.6,0,.7.5,2.3.5,3.3,0,4.9-2.2,10.7-2.9,14.5-7.3.7-.8,2.2-1.1,3.4-1.4,5.6-1.4,11.6-1.9,16.8-4.2,17.8-7.8,37.3-10.1,55.2-17.6,11.9-5,24.9-7.5,37.3-11.3,1.5-.5,2.8-1.8,4.2-2.7-1.1-1.4-2-3.5-3.4-3.9-2.2-.7-4.8-.8-7-.2-10,2.7-20,5.6-29.8,8.8-12.2,3.9-24.2,8.4-36.5,12-12.1,3.5-25,4.9-36.5,9.6-8.5,3.4-17.1,5.6-25.7,8-6.6,1.8-13.4,3.6-20.2,4.4-8.9.9-17.8,1-26.7,1.1-9.7.2-19.4,0-29.2,0s-12.9.2-19.3,0c-15.2-.5-30.5-1.3-45.7-2-4.7-.2-9.4-.3-14.1-1.1-8.7-1.4-17.3-3.4-26-4.9-3.9-.6-8.1,0-11.9-.8-5.1-1.1-9.9-3.4-15-4.8-17.3-4.6-30.4-13.5-39.5-29.9-6.7-12.1-15.3-14.5-27.4-3.9-5.6,5-11.6,6-18.4,5.3-4.2-.5-8.5-1-12.7-2-9.1-2.1-17.8,0-26.8.9-6.9.7-14.4,4.4-20.9-1.8-.3-.3-1.5,0-2.3.4-4.9,1.8-9.8,3.7-14.7,5.6-6.3,2.4-13,4.2-19,7.3-12.4,6.4-24.5,13.4-36.5,20.4-12.9,7.6-25.6,15.6-38.4,23.3-4.2,2.5-9.6,3.9-12.9,7.3-6.2,6.6-14.2,8.1-22.1,9.7-15.2,3-30.5,5.1-45.6,8.2-13.6,2.8-26.9,6.6-40.4,9.8-2.7.6-6.3,1.6-8.3.5-5.7-3.3-11.3-1.3-16.2.4-11.6,4-23.7,5.6-35.6,8.3-8.3,1.9-17,3.6-24.2,7.7-8.4,4.8-17.4,6.1-26.2,8-11,2.3-22.3,3.2-32.9,7.6-1.9.8-3.8,1.3-5.8,1.6-8.4,1.2-16.9,2.1-25.2,3.6-8.8,1.5-17.5,3.4-26.2,5.5-17.9,4.5-35.8,8.8-53.3,14.8-12.1,4.2-24.4,8-36.7,11.7-9.2,2.7-18.6,5.1-28,7.3-1.8.4-4.5-.2-5.8-1.4-6.1-6-12-12.2-17.7-18.5-8.5-9.6-16.7-19.4-25.2-29-6.4-7.2-12.7-14.6-19.5-21.4-7.1-7-14.6-13.6-22.1-20.2-6.4-5.6-13-11-19.8-16.2-11-8.4-22.3-16.4-33.2-24.9-8.7-6.8-17.9-12.6-27.9-17.2-8.3-3.9-16-8.9-24.3-12.7-10.7-4.8-21.4-10-32.6-13-14.1-3.8-28.9-4.8-43.1-8.5-15.1-4-30.2-5.2-45.7-4.9-10.9.2-21.8-1.9-32.7-1.7-12.8.2-25.5,2.4-38.3,2.7-12.9.3-25.1,3.8-37.5,6.2-6.7,1.3-13.3,3.3-19.9,4.9-16.5,4-33.2,7.3-49.5,12.2-14.3,4.3-27.8,11.1-42,15.6-18.9,6-36.6,14.8-54.4,23.3-5.7,2.7-11,6.5-16.5,9.7-.8.4-1.8.4-2.7.6,0-.9,0-1.9.2-2.7.2-.9.7-1.8,1.3-2.4,7.1-6.9,14.1-13.8,21.5-20.4,14.9-13.4,29.9-26.7,44.9-40,3.1-2.8,6.4-5.3,9.8-7.8,8.5-6.3,17.3-12.4,25.7-18.8,14.5-11,28.7-22.3,43.3-33.2,9.3-6.9,19.3-13.1,28.7-19.9,16.2-11.6,32.2-23.6,48.4-35.3,17.6-12.7,35.3-25.2,52.8-37.9,11.6-8.4,22.9-17.1,34.5-25.4,11.2-7.9,22.7-15.3,33.9-23.1,14-9.7,27.5-20.1,44.3-24.6.6-.2,1-.8,1.5-1.2,6.3-4.9,12.3-10.4,18.9-14.7,13.2-8.7,26.6-16.9,40.1-25,7.6-4.5,15.4-8.5,23.3-12.5,12.9-6.6,25.7-13.7,39-19.4,20.4-8.7,41.2-16.4,61.8-24.5,8.2-3.2,16.2-6.8,24.5-9.6,17.3-5.9,34.6-11.4,52-16.9,15-4.8,29.9-10.2,45.2-14,19.3-4.8,38.9-8.5,58.5-12.1,15.9-2.9,32-5.4,48.1-6.9,11.3-1.1,22.8-.6,34.1-.1,16.4.7,32.8,1.9,49.3,2.9,5.3.3,10.7.5,16,1.2,7.8,1,15.6,2.5,23.4,3.8,6.2,1,12.5,1.9,18.8,3,8.8,1.6,17.6,3.2,26.4,5,9.7,1.9,19.5,3.5,29,6.1,11.9,3.2,23.5,7.7,35.5,10.9,11.8,3.1,23.9,4.9,35.7,8.1,24.4,6.7,48.5,14,72.8,20.9,13.8,3.9,28,6.4,41.3,11.3,19.6,7.3,39.6,12.6,60.1,16.7,11.9,2.3,23.8,4.4,35.6,7.1,11.7,2.6,22.9,7.5,35.2,8,3.3.1,6.6.9,9.8,1.6,10.7,2.3,21.2,5.5,32.3,5.4,4.5,0,9.3-.1,13.5,1.1,16,4.4,32.3,4.5,48.6,4.8,8.2.1,16.4-.5,24.6-.9,4.5-.2,9.1-.4,13.6-1,12-1.8,24-3.9,36-6,6.6-1.2,13.2-2.6,19.8-4,11.4-2.5,22.8-4.6,33.8-8.8,11.2-4.3,22.8-7.7,34.3-11.4,8.4-2.7,16.9-5,25.3-7.8,6.1-2.1,12-4.8,18.1-6.9,9.2-3.2,18.6-5.9,27.6-9.4,10.8-4.2,21.1-9.5,31.9-13.5,17.8-6.6,35.9-12.4,53.6-19,19.6-7.3,39.1-15,58.7-22.6,15.7-6,31.3-12.1,47-18,13-4.9,26.3-9,39.1-14.3,7.8-3.2,16.1-5.1,23.8-9,7.6-3.8,16.2-6,24.6-8.1,7.6-1.9,15.5-2.8,23.3-4.1,3.6-.6,5.8-3.5,5.2-7.3-.7-4.1-3.8-4-6.8-3.6-2.8.4-5.5,1.2-8.2,1.9-9.8,2.6-19.7,4.6-29.3,7.9-15.6,5.3-30.9,11.4-46.4,17.1-11.9,4.4-23.9,8.4-35.7,12.9-8,3.1-15.8,7-23.8,10.1-13,4.9-26.2,9.2-39.2,14.1-8.8,3.3-17.3,7.3-26.1,10.7-11.6,4.5-23.4,8.8-35.1,13.1-6.5,2.4-13,4.8-19.6,7.1-12.6,4.5-25.4,8.7-37.9,13.5-13.1,4.9-25.9,10.9-39.1,15.4-19.7,6.8-39.6,13-59.6,19.1-15.4,4.7-31,8.9-46.6,13-8.2,2.1-16.6,3.6-24.9,5-4,.7-8.1.6-12.1,1.1-11.1,1.3-22.2,3.4-33.4,3.8-14.3.5-28.7-.4-43.1-.8-4.7-.1-9.4-.3-14.1-1-15.1-2.2-30.1-4.6-45.1-7-7.2-1.1-14.4-2.2-21.4-3.8-9.4-2.1-18.6-5.1-28-7.1-13.5-2.9-27.1-5.3-40.7-8.1-11.1-2.4-22.3-4.6-33.3-7.8-18.7-5.4-37.2-11.5-55.9-17.2-12.4-3.8-24.9-7.7-37.5-11-20-5.3-40.2-10-60.3-15.1-13-3.3-25.9-6.6-38.8-10.1-9.1-2.5-18.1-5.6-27.3-7.8-9-2.1-18.3-3.3-27.4-5.1-5.5-1.1-10.8-3-16.4-3.9-7.9-1.3-15.8-2-23.7-3.1-8.8-1.2-17.5-2.9-26.4-3.9-6-.7-12.1-.6-18.1-1.1-14.1-1.2-28.2-3.6-42.3-3.7-15.9-.1-31.8,1.6-47.8,2.8-9.1.7-18.3,1.5-27.2,3-15,2.6-30,5.3-44.8,9-20.3,5.1-40.4,10.9-60.5,16.9-10.6,3.2-20.8,7.7-31.4,11.1-9.3,3-18.9,5-28.1,8.3-17.6,6.5-35.1,13.5-52.5,20.4-13.7,5.5-27.6,10.7-40.9,17.1-17.5,8.4-34.7,17.7-51.8,27.1-13.9,7.7-27.4,16.1-40.9,24.4-8,4.9-15.6,10.6-23.6,15.4-9.8,5.9-20.4,10.7-29.8,17.2-25.2,17.5-49.9,35.8-74.9,53.6-20,14.3-40.3,28.2-60.4,42.5-16.8,11.9-33.4,24-50.1,36-14.5,10.5-29,20.9-43.5,31.5-10.9,8-21.8,16-32.4,24.4-14.6,11.6-29.1,23.3-43.4,35.4-15.6,13.2-31.4,26.3-46.2,40.4-14,13.3-26.7,27.8-40.1,41.7-6.7,6.9-13.4,13.9-20.5,20.4-5.9,5.5-12.6,10.1-18.4,15.7-7.3,7-14.4,14.2-20.8,21.9-7.1,8.4-13.6,17.3-17,27.9-.7,2.2.2,5,.3,7.5,1.9-1.7,4.5-3,5.4-5,6.7-15.5,19.6-26.4,30.1-38.9,8.3-9.9,18.6-18.1,28.4-26.6,2-1.7,6.1-2.5,8.6-1.6,12.4,4,21.8,12,28,23.6,2.3,4.3,5,5,8.5,1.5,5.8-5.8,11.7-11.7,16.9-18,7.7-9.2,16.2-17.2,27.3-22.2,2.2-1,4-3,6-4.5-2.9,0-5.7-.2-8.6-.2-.4,0-.8.4-1.2.6-12.8,7.9-24.1,17.7-33.9,29.1-7.9,9.2-8.4,10.1-16.9.9-6.8-7.4-14.5-13.4-24.9-14.7-.4,0-1.2-.7-1.1-1,0-.7.3-1.5.8-1.9,7.1-5.7,13.8-12.1,21.6-16.7,15.5-9.3,31.5-17.9,47.6-26.2,11.5-5.9,23.4-11.2,35.4-16,12.6-5,25.9-8.4,38.3-13.7,17.6-7.6,36.4-10.3,54.6-15.3,10.3-2.8,20.8-4.6,31.4-6.4,14.9-2.5,29.8-4.9,44.7-6.6,8.3-.9,16.8-.2,25.2-.2,14.1,0,28.1-.4,42.2.1,8.3.3,16.5,1.6,24.7,3,11.1,2,22.2,4.2,33.1,6.9,11,2.7,22,5.4,32.7,9.1,8,2.8,15.4,7,23,10.8,10.5,5.3,21.4,10,31.2,16.4,14.4,9.5,28.2,20,41.8,30.7,11.4,9,22.4,18.5,33.2,28.2,6.8,6.1,13.2,12.7,19.4,19.3,11.7,12.4,23.2,25,34.7,37.6,4.7,5.2,9.3,10.4,13.8,15.8,2.1,2.6,2.4,5.7-1.4,6.8-8.1,2.3-16.3,4.3-24.5,6-10.2,2.1-20.6,3.4-30.8,5.9-8.2,2-16.2,5.1-24.2,8-11.3,4.1-22.3,9.3-33.8,12.4-9.7,2.7-20,3.2-30.1,4.7-6,.9-11.9,1.8-17.9,2.6-6.2.8-12.3,1.6-18.5,2.3-.7,0-1.5-.6-2.3-.9.8-.3,1.5-.8,2.3-1,.6-.2,1.2-.4,1.8-.5-1.1,0-2.2-.2-3.2-.5-2.7-.7-4.5-1.9-5.6-3.4-2.9,0-5.9-.8-8.8-3.5-.4-.3-1.4-.2-1.9,0-3.3,1.3-6.5,2.8-9.9,3.9-9.7,3.1-19.4,6.2-29.2,9.1-24.2,7.2-48.3,14.6-72.6,21.5-16,4.5-32.3,8.2-48.4,12.4-14.4,3.8-28.7,7.8-43,12-17.5,5.2-34.9,10.7-52.4,15.9-12.9,3.9-26,7.1-38.8,11.4-19.1,6.5-37.6,15.2-57.5,19.3-11.7,2.4-23.6,4.2-35.4,6.3-7.2,1.2-14.4,2-21.5,3.7-15,3.8-30,8.1-44.9,12.4-2,.6-3.9,2.3-5.3,3.9-.5.6.6,3.6,1.3,3.8,2.4.5,5.1.8,7.4,0,14.2-4.3,28.2-9.2,42.5-13.2,7.7-2.2,15.7-3.2,23.6-4.6.7-.1,1.6.5,2.4.8-.7.5-1.2,1.3-2,1.6-7.6,2.9-15.2,5.9-23,8.5-9.5,3.2-19.2,6-28.8,9-5.3,1.7-10.5,3.6-15.9,4.9-11.9,2.8-23.8,5.5-35.7,7.8-5.2,1-11.4,2.7-15.9.9-12-4.8-24.6-4.8-36.8-7.6-7.1-1.6-14.3-2.5-21.3-4.1-9.1-2.1-18-4.8-27.1-6.9-6.4-1.5-13-2.5-19.5-3.6-8.3-1.5-15.7-5.9-23.6-8-8.5-2.3-16.5-5.2-24.4-8.9-3.8-1.8-4.3-4.4-3.9-7.9,1.3-10.5,2.8-20.9,3.9-31.4.4-3.6.1-7.3,0-11-.3-15.2-.9-30.4-.9-45.6,0-10.7.6-21.4.9-32.1,0-1.5.3-3.1,0-4.5-.4-1.4-1.5-2.7-2.3-4.1-.9,1-2.2,1.9-2.6,3.1-.7,1.9-1.1,4-1,6.1.2,16.5.9,33.1.9,49.6,0,16-.6,32.1-1,48.1,0,.7-.6,1.5-.7,2.2-.2,5.5-.3,11-.3,16.6,0,3,.2,5.8-4.2,5.3-1.3-.2-2.7-.1-4,0-3.1.3-3.9-1.1-3.9-4-.6-32.7-1.3-65.4-1.9-98.2-.1-5.6-.1-11.1,0-16.7.1-3.9.8-7.7.9-11.6.2-4.6,0-9.1,0-13.7,0-1.6-.4-3.3-.6-4.9-1.6,1.3-3.9,2.3-4.6,4-1.1,2.7-1.6,5.8-1.7,8.8-.8,15.8-1.4,31.6-2,47.3,0,.8-.3,1.9,0,2.4,5.4,6.4,3.3,14.5,3.5,21.4.7,24.2,0,48.4-.7,72.6-.4,13.6-1.8,27.2-2.9,40.8-.9,11.3-1.9,22.5-3,33.8-.4,3.6-1.1,7.2-2.1,10.6-.4,1.3-1.9,2.2-3,3.3-1-1.8-2.7-3.7-2.7-5.5,0-3.1,1.5-6.1,1.7-9.2,1.1-12.6,2.2-25.2,3-37.8.8-11.7,1.5-23.4,2-35.2.5-13.7.9-27.5,1-41.3.2-26.4,0-52.8,0-79.2,0-6.4.8-12.7.8-19.1,0-1.3-1.6-2.6-2.4-3.9-.8,1.3-2.3,2.6-2.4,3.9-.5,13.7-.8,27.4-1.1,41.1-.3,14.6-.7,29.2-1,43.8-.3,14-.5,28.1-1,42.1-.5,12.4-1.3,24.8-2,37.2-.7,12.4-1.2,24.8-2,37.2-.5,7.9-1.2,15.8-2.1,23.7-.2,1.9-1.6,3.7-2.7,5.3-.4.6-1.7.6-2.6.8-.2-.7-.6-1.5-.6-2.2.3-3.9.7-7.7,1-11.6.7-9.1,1.4-18.1,2-27.2,1.1-17.1,2.1-34.2,3-51.3.8-15.1,1.5-30.1,2-45.2.5-14.2.6-28.4,1.1-42.6.2-5.3.6-10.5,1-15.8,1-16.1,1.9-32.2,3.1-48.3.5-6.1,2.6-12.2,2.5-18.3-.2-6.7,4.2-13.6-.6-20.2-.6-.8-1.2-1.7-1.8-2.5-.7.9-2,1.7-2.1,2.7-.6,3.7-1.3,7.4-1,11.1.6,7.9-2.8,15.3-2.7,23.4,0,6.4-1.9,12.9-1.6,19.9.4,11-1.2,22.1-1.7,33.2-.5,11.9-.7,23.7-1,35.6-.3,9.1-.5,18.2-1,27.3-.4,7.7-1.4,15.4-1.9,23.2-.8,13-1.3,26.1-2.1,39.2-.9,14.4-1.9,28.8-3,43.3-.9,11.1-2.1,22.2-2.9,33.3-1.1,13.7-2,27.5-3,41.3-.3,4.7-.5,9.4-1,14.1-1.2,11-2.7,21.9-3.9,32.8-.8,6.7-1.3,13.5-2,20.2-1.3,11.3-2.6,22.6-4,33.8-.3,2.7-.6,5.4-1.1,8.1-.1.5-1.9,1.3-2,1.2-3.2-3.1-2.8-.5-2.9,1.7-.1,2.1-.3,4.2-.7,6.2-1.1,6.2-2.2,12.4-3.3,18.6-.9,5.5-1.2,11.1-2.8,16.4-2.6,8.7-1.1,17.4-1.2,26.2,0,4.8,1.6,11-.7,14.3-5,6.9-3.6,13.8-3.3,20.9,0,1.2.1,2.3,0,3.5-1.3,12.1-2.6,24.2-4,36.3-.4,3.1-1.3,6.1-1.9,9.2-.6,2.9-2,6.3,1.2,8,2.6,1.4,6,2.5,8.9,2.3,3.6-.3,4-4.3,2-7.3-1.6-2.4-3.1-5.5-3-8.2.6-11.8,1.7-23.5,2.9-35.3.4-3.9.3-8.4,2.2-11.5,2.4-3.9,1.3-7.7,1.9-11.5,1.9-12.1,4.2-24.2,6.6-36.2,1.9-9.3,4.3-18.6,6.2-27.9,1.9-9.4,3-19,5.3-28.4.9-3.6,1.8-7.7,6.4-9.9,7.7-3.7,14.6-8.8,22.3-12.6,11.8-5.7,23.7-11.3,35.9-16,13-4.9,26.3-9.1,39.6-12.9,6.3-1.8,13.3-5.2,18.6,2.9.6,1,4.6.6,6.5-.4,1.6-.8,3.2-3.1,3.3-4.9.3-4,1.5-6.2,5.8-7,10.9-2.1,21.8-4.5,32.6-6.9,17-3.9,34-8.3,51.1-11.9,16.8-3.5,33.9-5.6,50.7-9.2,19.5-4.3,37.8-11.8,54.5-22.8,9.8-6.5,15.4-16.5,20.9-26.3,2.4-4.2,4.2-9.4,1.1-14.8-7.4-13.1-19.9-20.6-32.1-27.4-11.7-6.5-25.2-9.9-38-14.4-4.2-1.5-8.8-2.2-13.2-3.1-6.2-1.1-12.5-2-18.7-3.1-.6,0-1-.8-1.5-1.2.5-.6,1-1.5,1.6-1.7,3.7-1.1,7.4-2.6,11.3-2.9,3.2-.3,6.9-1.7,8.9,3.7,1.6,4.5,6.1,5,8.5,2,1.2-1.4,1.9-4,1.5-5.7-1-4.1.4-6,4.1-7.3,6.3-2.2,12.4-4.7,18.6-7,17.5-6.5,34.8-13.4,52.5-19.3,9.3-3.1,19.1-4.6,28.7-6.7,13.5-2.9,26.9-5.9,40.4-8.6,4.1-.8,8.6-1.9,12.6-1.1,3.1.6,5.7.5,8.3-.4,5.3-4.5,10-10.2,15.7-14.2-.9-.2-1.8-.5-2.8-.7,1.3-1,2.5-2.5,4-3,9.1-3.1,18.2-6,27.3-8.8,9.9-3.1,19.7-6.3,29.7-9.2,16.4-4.8,32.8-9.1,49.1-14.1,13.3-4,26.3-9,39.6-13,15.6-4.7,31.4-8.6,47.1-12.9,4.5-1.2,8.8-3,13.4-3.9,7.9-1.6,15.9-2.6,23.8-4.1,8.6-1.6,17.2-3.5,25.8-5.2,1.6-.3,3.1-.6,4.7-.7,6.6-.6,13.2-1.2,19.8-1.8,7.6-.7,15.2-1.5,22.7-2.2,3.5-.3,7.1-.7,10.6-1,.8,0,1.6.5,2.4.8-.6.7-1,1.8-1.8,2.1-.8.3-1.6.5-2.4.7.5,0,1,0,1.5,0,2.9,0,4.5,2.1,4.8,4.2,8.4-3,16.7-6.2,25.2-8.8,11.9-3.6,23.9-6.6,36-9.8,6-1.6,12.1-3.1,18.2-4.3,6.7-1.3,13.5-2.1,20.2-3.2.6,0,1.1-.7,1.6-.8,2.7-.7,5.4-1.4,8.2-2,1.9-.4,3.9-.2,5.7-.7,10.8-3,21.4-6.3,32.3-8.9,2.2-.5,5.8.8,7.4,2.6,3.3,3.5,5.7,7.9,8.5,11.9,13.6,19.6,27.1,39.1,40.6,58.7.9,1.3,1.2,3.9.5,5.3-.5,1.2-2.8,1.8-4.4,2.1-1.6.4-3.3,0-5,.1-11,1.3-21.9,2.7-32.8,4-5.9.7-11.8,1.3-17.7,2-9.8,1.3-19.6,2.7-29.4,3.9-6.7.8-13.5,1.1-20.2,2.1-13.6,2.1-27.1,4.5-40.6,7-14.4,2.6-28.8,5.2-43.1,8.3-12.2,2.6-24.3,5.6-36.4,8.7-21.5,5.5-43,11.2-64.5,17-15.4,4.2-30.8,8.4-46,13.2-16.9,5.4-33.6,11.4-50.4,17.2-8.7,3-16.5,8.5-26.4,7.7-1.1,0-2.3,1.4-3.5,2.2-1.8,1.2-3.5,2.7-5.5,3.6-10.4,4.8-20.7,9.5-31.2,14-18.1,7.8-36.5,14.9-54.4,23.2-12.5,5.8-24.4,12.9-36.2,20-5.4,3.2-10.3,7.5-15.1,11.8-4,3.6-3.9,7.1.3,10.5,2.5,2,5.6,4.1,8.6,4.4,6.8.6,13.8.2,20.7.2.5,0,1.5-1,1.4-1.2-.4-.8-.9-1.8-1.6-2.1-4.5-1.7-9.1-3.1-13.6-4.7-1.6-.6-3.5-1.3-4.3-2.5-.4-.6.8-3,1.9-3.9,6.2-5.7,12.7-10.9,20.4-14.6,13.8-6.6,27.1-14.3,40.9-20.7,16.8-7.8,33.9-14.8,50.9-21.9,6.7-2.8,13-7.3,21-5.3,1,.2,2.6-.5,3.4-1.3,3.6-4.1,8-6.4,13.2-8.2,24.4-8.3,48.6-17.2,73-25.3,12.6-4.2,25.5-7.6,38.4-11.1,15.8-4.2,31.7-8,47.5-12.1,8.9-2.3,17.7-4.9,26.6-6.9,15.3-3.5,30.6-6.7,45.9-9.9,9.4-1.9,18.9-3.6,28.4-5.1,8.2-1.3,16.5-2,24.7-3.1,9-1.2,17.9-2.8,26.9-3.9,9.2-1.2,18.5-1.9,27.7-3.1,13.2-1.6,26.3-3.3,39.4-5,6.4-.8,12.8-1.3,19.1-2.2,12.7-1.7,12.7-2,18.1,7.4,1.6,2.8,3.3,5.7,5.3,8.3,8.4,10.9,17,21.6,25.4,32.5,4.3,5.6,3.3,9.4-2.9,9.9-12.2,1.2-24.5,2-36.8,3.1-7.9.7-15.8,1.2-23.7,2-11.6,1.2-23.2,2.7-34.8,3.9-7.7.8-15.5,1.2-23.2,2.1-11.1,1.2-22.2,2.7-33.3,3.9-7.2.8-14.5,1.1-21.7,2.1-14,1.8-28,4.1-42,5.9-13.6,1.8-27.3,3.1-40.9,5.1-9.6,1.5-19.1,3.8-28.6,5.8-3.5.7-7.1,1.4-10.6,2.1-.6.7-1.5,1.3-2.8,1.5-5.8.8-11.6,2-17.4,2.4-.6.8-1.6,1.4-2.9,1.9-4.9,1.8-10,3.3-14.8,5.4-9.8,4.3-18.9,9.6-26.2,17.6-5.1,5.6-3.9,10.4,3,13.6,2.6,1.2,5.8,1.3,8.8,1.7,1.1.1,2.2-.6,3.3-.9-.6-1.1-1.1-2.2-1.8-3.3-.5-.7-1.1-1.2-1.7-1.8-2.7-2.7-3.2-4.8,0-8.1,6.9-7.2,15.5-11.9,24.5-14.6,17.4-5.3,35.2-9.4,53.1-13.1,12.9-2.7,26-4.2,39-6.1,12.6-1.8,25.3-3.4,37.9-5,6.7-.9,13.4-1.2,20-2.5,4.7-.9,7-.5,7.8,2.5,3.9-1.2,7.7-2.2,11.7-2.9.5-1.1,1.7-1.8,3.5-2.1,7-1.2,14.1-2.3,21.3-3,17-1.8,33.9-3.4,50.9-5,11.1-1.1,22.2-2.1,33.3-3,10.4-.8,20.8-1.2,31.2-2.1,7-.6,13.8-2.2,20.8-2.8,3.3-.3,7.1-1.3,9.9,2.4,5.8,7.5,12,14.7,18,22.1.9,1.1,2.1,2.1,2.9,3.3,2.2,3.7.9,7-3.4,7-12.5,0-24.6,1.9-36.9,4-11.4,1.9-23,2.3-34.3,4.2-14.3,2.5-28.7,5.3-42.8,9-18.3,4.8-36.2,10.9-54.4,15.7-10.3,2.7-21.1,3.7-31.5,6.2-11.3,2.8-22.3,6.6-31.6,14.2-3.9,3.2-8,6-13.6,5.8-4-.2-8.1.3-12,1-11.9,2.2-23.8,4.5-35.6,6.9-10.7,2.2-21.5,4.4-32.1,6.9-10.4,2.5-20.9,5.1-31.1,8.2-12.3,3.7-24.5,7.5-36.5,12-12.5,4.8-23.8,11.5-32.2,22.4-4.6,5.9-3.6,9.9,3.7,12.5,12.9,4.7,26.6,4.7,40,5.8,8.4.8,17,.2,25.5.1,3.9,0,6,.5,4.5,4.8,3.9-.3,7.8-.4,11.7-.4-.2-.5-.5-.9-.7-1.3-1.2-2.7-.5-4,2.5-4.1,6.8-.3,13.5-.6,20.3-1,10.1-.6,20.1-1.1,30.2-2,12.8-1.1,25.6-2.7,38.4-3.9,9.2-.9,18.5-1.3,27.7-2.1,14.5-1.2,28.9-2.7,43.3-4,5.3-.5,10.7-.5,16.1-1.1,16.3-1.6,32.6-3.3,48.9-5,7.7-.8,15.5-1.2,23.2-2.1,12.8-1.5,25.6-3.4,38.4-4.9,10.7-1.2,21.5-2,32.3-3.1,13.8-1.3,27.6-2.6,41.3-4,12.5-1.3,24.9-2.6,37.3-4,2.8-.3,5.6-.5,5.7,2.9,0,1.4-2.1,3.2-3.7,4.2-4.9,2.9-10.2,5.3-15.1,8.2-13.8,8.3-27.3,16.9-41.2,25-14.4,8.5-29.1,16.6-43.7,24.8-6.1,3.4-12.3,6.5-18.6,9.5-3.6,1.7-7.6,2.7-11.2,4.4-1.2.6-2.8,2.6-2.6,3.7,1.3,6.7-4.1,7.9-8,10.4-1.4.9-3.1,1.3-4.6,2-10,5.1-19.5,10.8-31.4,11.2-11.6.4-23.2,2.5-34.9,3.8-3.9.4-7.7.5-11.6,1-9.5,1.2-18.9,2.8-28.4,3.9-6.9.9-13.8,1.2-20.7,2.1-11.7,1.5-23.3,3.4-34.9,4.9-7,.9-14.1,1.2-21.2,2.1-7.8,1.1-15.5,2.9-23.4,3.8-10.9,1.3-21.8,2.2-32.8,3-14.6,1.1-29.2,2-43.8,3-10.2.7-20.4,1.3-30.7,2-14.1,1-28.2,2.2-42.3,2.9-11.6.6-23.2.8-34.8,1-7.6.1-15.1.3-22.7,0-8.9-.4-17.8-1.1-26.7-2-11.5-1.2-23-2.3-34.3-4.1-9.6-1.5-19.2-3.3-28.5-6-10.7-3.1-17.6-8-16.6-22.3.3-4.7,2.3-9.3,3.9-13.8,5.1-14.1,12.1-27.2,21.1-39.3,4.6-6.2,9.3-12.5,13.8-18.8.9-1.3,1.1-3,1.7-4.5-1.5.7-3.4,1.1-4.4,2.3-6,7.1-12,14.3-17.7,21.6-10.8,13.9-18.8,29.4-23.3,46.3-4.1,15.4-1.2,24.9,13.6,32.5,9,4.6,18.9,7,29.1,8.2,16.9,2.1,33.7,5.7,50.6,6.6,17.8,1,35.7-.2,53.6-.7,16.6-.5,33.1-1.1,49.7-2,13.6-.7,27.2-2,40.8-2.9,17.1-1.1,34.3-2,51.4-3,5.7-.3,11.4-.4,17.1-1.1,10.3-1.1,20.6-2.7,30.9-3.9,9.7-1.1,19.5-1.7,29.2-3.1,12-1.7,24-4.2,36-5.8,12.4-1.7,24.9-2.6,37.3-4.1,12.3-1.5,24.6-3.4,36.9-4.9,1.4-.2,2.9.8,4.4,1.3-.9,1.2-1.5,2.9-2.6,3.6-7,4-14,8-21.2,11.5-15.6,7.7-31.3,15.3-47.2,22.5-12.2,5.6-24.6,10.6-37,15.7-10.2,4.2-20.6,8.2-30.9,12.4-14.3,5.8-29.1,10-43,16.8-17.4,8.5-36.1,14.4-53.2,23.8-3.1,1.7-6.4,3.2-4.5,6.8,1.7,3.3,5.5,2.5,8.7,1.1,13.2-5.9,26.4-11.8,39.7-17.5,14.1-6.1,28.3-12.2,42.6-18,7-2.8,14.4-4.6,21.5-7.3,8.3-3.2,16.4-7.1,24.6-10.5,10.8-4.5,21.8-8.6,32.5-13.3,13.5-6,27.1-12,40.3-18.7,10.4-5.2,20.3-11.4,30.3-17.3,7.7-4.5,15.1-9.4,22.9-13.7,5.6-3.1,11.4-5.5,18.3-5.5,7.9,0,15.9-1.6,23.8-2.8,9.3-1.5,18.6-3.5,27.9-4.9,10.2-1.6,20.6-2.2,30.8-4.2,15.4-2.9,30.6-6.7,45.9-9.9,15.1-3.1,30.2-5.9,45.3-9.1,13.3-2.8,26.6-5.6,39.7-9.1,4.5-1.2,7.5-.3,10.1,2.8,10.5,12.1,21.8,23.7,31.2,36.5,9.6,13.1,20.6,24.7,31.7,36.3,11.7,12.1,23.7,24,35.7,35.7,4.1,4,8.9,7.3,13.5,10.9,2.9,2.3,5,4.8,4.9,8.9-.2,5.5,1.8,7.5,7.3,7.1,5.1-.4,9.5.9,13.6,3.6,5.4,3.5,10.6,7.4,16,10.9,5.9,3.7,12,7.1,18.1,10.6,10.5,6,21.8,9.4,33.5,12,7.2,1.6,14.3,4.7,21.4,4.7,16.5.1,33.2,1.9,49.7-1.7,15-3.3,29.7-7.6,43.7-14,11.5-5.3,22.6-11.4,34-17,14.7-7.2,29.4-14.4,44.3-21,15.5-6.9,31-13.7,46.8-19.7,14.7-5.6,29.7-10.4,44.7-15.2,12.4-4,24.9-7.4,37.4-11.1,13.7-4,27.3-8.4,41.1-11.8,5.5-1.4,11.5-.7,17.2-1.3,2.1-.2,4.7-1,5.8-2.5.7-1-1-3.6-1.2-5.6-.2-1.9-.8-4.5.2-5.7,5.1-6.3,10.8-12.2,16.1-18.4,8.8-10.3,17.4-20.8,26.2-31.1,8-9.3,16.3-18.3,24.4-27.4,12.1-13.7,23.6-27.8,36.2-40.9,11-11.4,23.3-21.5,35-32.3,11.1-10.3,22-20.8,33.2-31.1,4.5-4.2,9.3-8.1,14-11.9,10.9-8.7,22-17.1,32.7-26,9.3-7.7,17.9-16.2,27.1-23.9,14.7-12.1,29.6-24,44.7-35.7,14.6-11.3,29.9-21.6,44.1-33.5,13-10.9,28-18.4,42.4-27,9.7-5.9,20.1-10.8,29.2-17.5,13.2-9.6,27.7-16.7,42.2-23.8,3.5-1.7,7-2.6,10.6.4,1.7,1.4,5,3.3,5.9,2.6,2.3-1.6,5.5-4.9,5.2-7-1.6-8.5,5-10.9,10-13.4,12-5.9,24.5-10.8,36.8-16.1,9.3-4,18.6-8.3,28-12,12.6-5,25.4-9.5,38.1-14.2,16.7-6.3,33.3-13,50.2-18.7,15.1-5.1,30.7-8.7,45.9-13.5,9.4-3,18.3-7.4,27.6-10.5,10.7-3.6,21.8-6.1,32.5-9.6,8.9-2.9,17.5-6.9,26.3-10.1,7.1-2.6,14.4-4.7,21.4-7.4,3.9-1.5,7.3-4.1,11.1-5.9,11.1-5.4,22.5-10.3,33.3-16.1,16.9-9.1,31.2-21.6,44.3-35.6,5.3-5.7,11.2-10.6,16.8-16,6.9-6.6,13.9-13.1,20.7-19.7,3.6-3.5,7-7.1,10.6-10.6,5.9-5.7,12-11.3,18-16.9,7.7-7.4,15.6-14.6,23.1-22.2,4.2-4.3,8.1-9.2,11.2-14.4,1.4-2.3,1.2-6.4-3-7.5ZM1575.3,1342.5c1.2,1.2,1.8,1.9,2.5,2.5-1,0-2,0-3-.1.2-.8.4-1.6.6-2.4ZM1441.7,1384.5c3.6-2.8,7.7-5.6,12.1-6.7,3.1-.8,6.3-1.1,9.5-1.3,4.4-3.6,9.3-6.5,14.4-9-.1,0-.3,0-.4,0,.3-2.3-.2-5.6,1.1-6.6,4.3-3.3,8.6-5.9,14.9-5.7,5.9.1,12-2.7,17.9-4.5,2.2-.7,4-2.5,6.2-3,2.4-.5,5.1,0,7.6-.1,6.5-.3,13-.9,19.5-1.1,8.5-.3,17-.9,24.5,4.2,2.4,1.6,4.3,4,6.4,6.1.4.5.4,1.5.3,2.3,0,.2-1.2.5-1.6.3-.6-.4-1.2-.7-1.8-1,1.5,1.8,1.5,4.5,0,6.4.3,0,.6,0,.9-.1,3-.4,4.4.7,2.5,3.9-1.7,2.9,1.6,3.4,2.6,5,.4.7.9,1.3,1.4,1.9-.7.4-1.4,1-2.2,1.1-3.9.1-7.8-.2-11.7.2-1.7.2-3.1,2.4-4.8,2.8-7.9,1.6-16,4.3-23.8,3.6-6.3-.5-10.9,1.4-16.2,3.3-1.5.5-3.6,1.1-4.8-.2-4.5,0-8.9,0-13.3.2-2.4.3-4.8.4-7.3.5-2.2.2-4.5.5-6.7.8-2.2.8-4.2,1.6-6.3,2.2,0,.2,0,.4,0,.6,0,.2.7.7.9.6,2.2-1.1,4.4-2.3,6.5-3.5,1.6.7,2.8.6,3.7,1.1,1.1.6,1.9,1.7,2.8,2.7-.9.8-1.6,1.9-2.6,2.3-10.4,3.4-20.8,6.7-31.2,10-.3.1-.8-.3-1.2-.5.6-.6,1.1-1.3,1.7-1.6,4.9-2.3,9.8-4.4,14.6-6.8.5-.3.7-1.5.8-2.3,0-.5,0-1.1,0-1.6-.8,0-1.7.2-2.5.1-1.4.3-2.7.7-4.1,1-8.7,2.7-18.1,5.5-26.6,2.8-1.3-.4-2.2-1.2-2.8-2.2-1.4-.3-2.8-.9-2.8-1.2,0-2.3.1-5.5,1.6-6.6ZM34.8,1882.5c0,.6-1.1,1.2-1.7,1.8-.4-.7-1.2-1.3-1.2-2,.2-3.3.5-6.7,1-10,0-.4,1.6-.5,2.4-.8.2,4,0,7.5-.6,11ZM275.3,1698.5c-.7,1-1.9,1.4-3.1,1.9-.1-.4-.3-.8-.4-1.3,1.2-.2,2.3-.4,3.5-.6ZM244.5,1699.8s.2.8.3,1.3c-2,.3-4,.7-6,1,1.9-1.4,3.8-1.9,5.7-2.3ZM182.2,1701.7c1.2-2.9,2.2-5.7,3.6-8.5,1.6-3.4,3.5-5,8.1-3.9,8.8,2.1,17.8,2.9,26.8,4.2,2,.3,4.1.6,6.1,1.1.5.1,1,1,1.1,1.6,0,.4-.5,1.2-.9,1.3-12.8,2.4-25.7,4.7-38.6,7-1.7.3-2.4.9-3.1.9-1.4,0-2.9-.2-4.3-.4.4-1.1.8-2.3,1.2-3.4ZM228.3,1702.5c-2,1.3-4.4,2.2-6.9,2.9,0,0-.6-.7-.6-1.1,0-.3.5-.8.9-.8,2.2-.4,4.4-.7,6.6-1ZM204.8,1708.7c-.3.3-.6.7-1,.8-2.2.4-4.4.7-6.5,1-3.7.7-6.4,1.4-9.1,1.9-.4,0-.9-.6-1.4-.9.4-.4.8-1,1.2-1.1,5.2-1.1,10.4-2.1,15.7-3,.3,0,.7.7,1.1,1.1ZM181.3,1712.5c.5.7.1,1.7-.6,1.9-.5.2-1.3-.7-1.9-1.1.8-.2,1.7-.5,2.5-.7ZM155.5,1696.7c.5,1.1.7,2.6,1.5,3.4,2,2,4.4,3.7,6.6,5.5,1.8-2.3,4.2-4.3,5.1-6.9,1.2-3.3,0-6.7-3.9-7.5-1.7-.3-3.9,1.1-5.8,1.8-.7.3-1.4.7-2.1,1.1-.3-.9-1.1-1.8-.9-2.6.5-2.4.9-5,2.1-7.1.7-1.3,3-2.9,4-2.6,5.5,1.5,11.7,1.4,15.8,6.3-2.4,7-4.4,13.2-7.2,19-.9,1.8-3.6,2.9-5.7,3.9-5,2.5-10,4.8-15.1,7-.8.4-2.5.4-2.9,0-.6-.8-.9-2.4-.5-3.3,2-5,4.2-9.9,6.5-14.8.6-1.2,1.7-2.1,2.6-3.1ZM72.8,1715.1c.7-6.6,1.5-13.1,2-19.6,1.1-12.4,2-24.8,3.1-37.2,0-1,2-2.5,3.1-2.5,1.7,0,3.5,1.2,5.2,1.7,2.9.9,3.6,2.3,2.7,5.6-1.3,4.7-1.5,9.7-2.1,14.6,0,.3.6.6.9.9.7-.9,1.8-1.8,2-2.8.8-4,1.6-8.1,2-12.2.3-3.6,2.7-3.8,4.8-2.7,15.8,8,33.1,11.8,49.7,17.6,2.3.8,2.5,1.6,2.3,4.1-1.2,12.9-9.1,23.3-12.8,35.3-.6,1.9-3.2,3.9-5.3,4.6-5.3,1.8-10.8,3.1-16.3,4.1-4.7.9-5.9-.6-4.1-5.2,2.3-5.7,5.1-11.2,7.5-16.9,1.4-3.2,2.6-6.6,3.9-9.9,1.5-4.8,2.1-9.1,3.6-13.2,1.1-2.9.2-5.4-2-5.5-2-.1-5.7,2-5.9,3.6-1.9,12.1-8.4,22.2-13.2,33.1-1.6,3.5-3.1,7.1-4.2,10.8-2,6.7-6.8,9.9-13.1,11.2-2.7.6-5.5.7-8.2,1,1.3-2.3,2.8-4.6,3.9-7,.9-1.9,1.2-4.2,2.2-6.1,3.8-7.3,7.9-14.4,11.6-21.7,3.8-7.6,7.4-15.3,10.6-23.1.7-1.6-.1-5.6-1-5.9-2.7-.8-5.4-.3-6.9,3.2-7.3,17.2-19.2,32.2-23.9,50.6-.2.7-.9,1.3-1.4,1.9-.5-.8-1.5-1.6-1.4-2.3.1-3.4.5-6.7.9-10.1ZM53.9,1777.8c.7-4.2,2.2-8.4,3.7-12.5.3-.8,1.7-1.2,2.7-1.8.5.9,1.1,1.9,1.6,2.8.6,1,1.1,2,1.6,3.1.5-1,1.1-1.9,1.3-2.9.8-3.9,1.5-7.8,2-11.7.6-4.7,3.9-7.4,7.6-9.1,4.3-2,9-3.2,13.5-4.7.6-.2,1.4.2,2,.3-.2.7-.1,1.5-.5,2.1-9,13.6-16.7,28-23.6,42.7-4.2,8.9-8,18-12,27-1.3-.2-2.9-.8-2.9-1.5.1-4.7.5-9.4.9-14.1.6-6.6,1-13.2,2.1-19.7ZM51,1749.6c.2,0,.6.6.8.9l-3,1.6c-.9,0-1.4-.6-1.8-1.2,1.3-.4,2.6-.9,4-1.3ZM44.9,1762.9c.4-1.8.7-3.7,1.5-5.3.5-.9,2.2-1.2,3.3-1.7.4,1.3,1.2,2.7,1,4-.2,1.4-1.2,2.8-1.9,4.1-1.4,1.5-2.9,2-4.3,2.5.1-1.2,0-2.5.3-3.6ZM39.1,1836.5c-.4-3.2-.9-6.3-1.3-9.5,0-.7,0-1.3,0-2,1.7-10.3,2.7-20.2,4.1-30,.5-3.8,1.9-7.5,3.2-11.2.2-.6,1.5-.9,2.3-1.3.1.8.5,1.6.4,2.3-.8,7.3-1.7,14.6-2.7,21.8-1,6.7-2,13.4-3.3,20.1-.6,3.3-1.8,6.5-2.7,9.7ZM146.7,1837.3c-.6,1.3-2.3,2.7-3.7,3.1-12.2,3.5-24.6,6.5-36.8,10.3-15.5,4.8-30.5,11-44.5,19.3-4.9,2.9-10,5.5-15.1,8.2-4.1,2.1-4.9,1.6-4.8-3.2.1-3.4.5-6.7,1-10.1,1.9-13,3.9-26,6.1-39,.3-1.6,1.7-4,2.9-4.2,8.2-1.2,9.4-2.5,12.1-9.8,2.6-7.2,6.2-14.1,9.2-21.2,2.7-6.1,8.1-10.4,9.2-17.8.8-5.1,5.3-9.7,8.1-14.5,2.2-3.8,4.9-7.4,6.2-11.4,2.9-8.5,9.2-11.4,17.2-12.5,3.8-.5,7.5-1.9,11.3-2.8,1.1-.2,2.2,0,3.3.1-.2,1-.3,2.1-.8,3-4.1,7.6-8.2,15.3-12.5,22.8-9.7,17.1-19.6,34.2-29.3,51.4-.9,1.6-1.4,3.4-2.2,5.1-6.5,11.2-12.7,21.8-18.4,32.6-1.2,2.2-1.5,5.2-1.1,7.7.2,1.3,3.7,3.4,4.3,3,2.4-1.5,5-3.6,6-6,4.4-10.7,8.1-21.6,14.3-31.6,6.1-9.9,11.1-20.4,16.9-30.5,4.5-7.7,10-14.8,14.2-22.6,6-11,11.1-22.4,16.7-33.5,2.1-4.2,6.2-6.1,10.4-7.3,3.9-1.1,8-1.5,12.1-2.2.9-.2,1.8-.2,2.8-.3-.2,1-.2,2.2-.6,3.1-6.7,15.1-13.9,30-22.2,44.3-7.5,13-14.7,26.2-21.5,39.6-3.4,6.5-5.9,13.6-8.5,20.5-1.1,2.9-1,6.3,2.2,7.6,2.9,1.2,5.5-.3,6.8-3.7,3-7.6,6.2-15.1,9.5-22.6,2.9-6.5,5.9-12.9,9.2-19.2,5.5-10.7,11.4-21.3,16.9-32,5.3-10.4,10.8-20.8,15.4-31.6,2.3-5.5,5.1-8.7,11.2-8.9,4.1-.2,8.1-1.1,12.2-1.9,2.7-.6,5.3-1.6,8-2.3.7-.2,1.6,0,2.4,0,0,.9,0,2-.3,2.8-7.5,16.6-14.7,33.3-22.7,49.6-8.7,17.7-18.4,35-27.4,52.7-2.6,5-3.8,10.8-6,16ZM164.5,1847.4c-1.7.1-3.4.2-5.1.2,0,0-.1-.7-.2-1,1.7,0,3.4,0,5.1,0,.4.6.3.8.2.8ZM301.3,1715.2c14.1,2.3,26.4,8.9,39.7,12.8,11.8,3.4,21,10.8,30.8,17.3,5.8,3.8,6.3,10,3.3,16.4-7.4,16.1-21,25-36.4,31.8-14.4,6.4-29.4,10.8-45.1,13.1-15.2,2.3-30.2,5.8-45.3,8.8-10.5,2.1-21,3.9-31.5,6.1-9.1,2-18.2,4.3-27.2,6.6-5.2,1.3-5.8.6-4.9-4.6,1.7-10.4,6.2-19.8,11.4-28.8,6.1-10.8,12.7-21.4,19-32.1,6.8-11.7,13.5-23.4,20.1-35.2,1-1.7.5-4.3.7-6.4-2.4.7-4.9,1.1-7.2,2.1-5.2,2.2-4.9,7.8-7.2,11.9-6.8,12.3-14.1,24.3-21.8,36-10.3,15.5-17.4,32.4-22.8,50.1-.5,1.5-.5,3.5,0,5,1.5,4.3-1.3,5.4-4.4,6.2-5.1,1.5-10.2,2.9-15.3,4.2-.7.2-1.6-.2-2.3-.3.1-.6.2-1.2.5-1.7,4-8.3,7.8-16.8,12.1-25,7.3-14,15.5-27.5,22.4-41.7,7.5-15.3,14.4-31,20.7-46.9,2.6-6.5,7.4-8.1,13.1-9.3,1.5-.3,3.1-.7,4.6-1,10.5-2,20-4.1,29.5-5.9,1.8-.4,3.8-.5,5.5,0,12.7,3.5,25.1,8.4,38,10.6ZM459.4,1640.5c-7.8,2.1-15.6,4.1-23.5,6.1-4.1,1-8.2,1.9-12.4,2.7-.9.2-1.8,0-2.7-.2.6-.9,1-2.3,1.8-2.5,7.4-2,14.8-3.8,22.2-5.6,5-1.3,9.5-2.2,14-2.9,1-.2,2,0,3,0-.8.8-1.5,2.1-2.4,2.4ZM484.3,1633.5c-.1-.9.7-1.8,1.7-2.6,0,0,.5.2.8.4-.8.8-1.7,1.5-2.5,2.3ZM814.7,1551.5c-.3-.4-.6-.9-.9-1.3.8-.2,1.7-.4,2.5-.7-.2,1-.9,1.5-1.6,2ZM939.6,1521.5c-1.1.5-2.5.4-3.7.6-7.4,1.8-13.4,6.3-20.7,5.7-.4,0-.8,0-1.3,0,.2-.4.2-1.1.5-1.2,5.3-2.1,10.6-4.2,15.9-6,2.8-.9,5.8-1.3,8.7-1.7.9-.1,1.9.3,2.8.5-.7.7-1.4,1.7-2.3,2.1ZM1639.9,1633.1c2.1-1.9,4.3-3.7,6.5-5.6,8.1,0,15.3,0,22.4,0,1,0,2.9.7,2.9,1.2,0,2.6.3,7.2-.6,7.5-5.7,1.5-11.2,5.1-17.5,2.6-.1,0-.3-.3-.4-.3-6.3,5.2-8-3.9-12.6-4.1-.3,0-.9-1.3-.8-1.4ZM1373.8,1584.9c5-7.1,9.3-14.6,14.7-21.3,6.8-8.5,13.6-17.2,21.7-24.4,7.2-6.3,15.9-11.1,24.4-15.6,3.8-2,8.8-1.6,12.2,2.4,8.4,3.1,13.9,8.7,19,14.9,1.9,2.3,4.1,4.3,6.2,6.4,8.3,8.3,16.3,17.2,25.2,24.8,5.2,4.5,12,7.1,18.1,10.4,3.5,1.9,7.1,3.7,10.6,5.7,4.7,2.6,9.5,5.3,14.1,8.2,1.2.8,2.9,3.1,2.6,3.6-1,1.5-2.8,3.5-4.3,3.4-5.7-.3-11.4-1.2-17.1-1.9-3.8-.5-7.5-1.5-11.2-1.8-14.2-1.4-28.3-2.9-42.5-4-6-.5-12.1.2-18.2-.2-11.4-.8-22.8-2-34.2-2.8-4-.3-8.1,0-12.2,0-6.7,0-13.4,0-20.2,0-2,0-4.2-.3-6.1-1-3-1.1-5.8-2.5-3-6.6ZM1361.2,1602.5c2.3-4.2,5.3-4.5,9.2-3.9,4.2.7,8.4,1.6,12.7,1.9,7.7.6,15.4.7,23.1,1.1,18.9,1,37.8,1.9,56.7,3,9.4.5,18.8,1.1,28.2,2,11.3,1.1,22.5,2.7,33.8,3.9,7.4.8,14.8,1.4,22.2,1.9.9,0,1.8-1.6,2.8-1.8,2.3-.4,4.9-1,7-.4,7.9,2.2,15.6,5.1,23.5,7.2,11,2.9,22.1,5.3,33.1,8.2,6.8,1.8,14,2.8,18.6,9.4,1.1,1.6,3.5,2.9,5.5,3.4,4.1,1.1,2.8,5,4.3,7.3-1.5.9-3,2.1-4.7,2.8-9.4,3.5-18.8,7-28.2,10.4-5.8,2.1-11.8,3.8-17.6,5.7-15.6,5-30.2,10-44.8,15-8.2,2.8-16.3,5.8-24.6,8.2-4.7,1.4-9.8,1.2-14.4,2.7-5.8,1.9-11.4,4.6-17,7.1-5,2.2-13.5.6-16.8-3.7-5.3-6.8-12.5-11-20.1-14.1-12.2-5-24.8-9.6-37.6-13-10.7-2.8-21.9-3.6-32.9-5.2-9.6-1.4-19.2-2.8-28.8-4-5.4-.6-10.9-.7-16.4-1-1.5,0-3.1.3-4.5,0-6-1.3-6.9-3.7-3.3-8.8,6.2-8.6,12.6-17.1,18.7-25.8,4.4-6.3,8.6-12.7,12.3-19.4ZM1259.6,1726.2c-8.7,8.9-17.6,17.7-26.4,26.5s-7.6,8.5-12.1,11.8c-4.3,3.2-9.5,5.1-14.3,7.6-2.9.5-5.3.2-7.7.6-5.5.7-11,1.6-16.4,2.6-2.3.4-4.6,1.2-6.9,1.4-5.4.4-9.6-1.5-12.9-6.2-6.5-9.2-13.2-18.3-20.1-27.1-6.7-8.5-13.9-16.5-20.7-25-.7-.9-.4-3.9.4-4.6,1.6-1.2,4-1.9,6.1-2,10.4-.5,20.8-1,31.2-1,12.4,0,24.7.3,37.1,1,12.8.7,25.5,1.7,38.2,3,7.5.8,14.9,2.5,22.3,3.9,3.4.7,4.6,5,2.1,7.6ZM1269.3,1726.5c2.7-3.2,6.2-2.4,9.1-1.6,3,.8,5.7,3.1,8.3,5.1,2.9,2.2,2.7,7,.4,9.9-6.3,7.6-15.2,10.9-23.9,14.7-1.1.5-2.2,1-3.4,1.5-4.9,1.9-9.3,3.3-13.7,4.7-1.2.4-2.5,1-3.6.7-1.3-.3-2.5-1.3-3.4-2.4-.2-.3.7-1.9,1.5-2.6,5-4.8,10.2-9.2,15-14.2,4.8-5,9.3-10.4,13.8-15.7ZM1178.8,1784c5.1-1.8,9.7-3.4,14.3-4.3,1-.2,2.8,1.5,3.5,2.7.3.5-1,2.6-2,3.1-4,1.9-8.1,4.1-12.4,4.9-3.9.7-5.1-2.1-3.5-6.3ZM1190.8,1802c2.3-1.8,4.9-3.8,6.9-3.3,8.6,2.1,16.6-.7,24.8-2.1,1-.2,2.8,1.1,3.1,2,.4,1.2,0,3.8-.8,4.1-8.2,3.1-16.4,6.6-24.9,8.6-6.1,1.4-11.1-4.5-9.2-9.3ZM1212.1,1792c-2.9.6-5.5,1-6.6-1.7-.6-1.4.6-4.3,2-5.7,9.3-9.3,20.9-13.1,33.7-15.3,8-1.4,16-4,23.5-7.2,8.2-3.5,15.9-8.3,23.8-12.6,7.4-4,9.9-10.8,8.2-18.3-.8-3.7-4.9-6.8-8-9.7-3-2.8-7.7-4.4-6.5-9.5.6-2.7,2.7-5.3,4.4-7.6,8.9-12,17.8-24,26.9-35.9,1.7-2.2,3.7-4.5,6.1-5.9,1.5-.9,4-.5,6-.2,5.1.8,10.1,2.3,15.3,2.8,4.2.5,8.5-.3,12.6.2,14,1.8,28.1,3.5,42,6,13.2,2.4,26.6,4.8,39.2,9.2,11.3,3.9,21.6,10.5,32.2,16.3,1.3.7,2.1,3.7,1.9,5.5-.1,1.4-1.9,3.2-3.4,3.8-9.7,4-19.5,7.9-29.4,11.6-11,4-22.2,7.7-33.2,11.6-2.2.8-4.2,2-6.3,3-13.4,5.1-26.5,9.2-39.2,14.4-19.4,7.9-38.9,15.7-57.7,24.9-13,6.3-26.8,9.3-40.4,13.7-6.5,2.1-13.2,3.8-19.9,5.1-3.8.7-7.8,0-11.7.2-5.1.2-10.4.3-15.4,1.3ZM1297.9,1781.4c.6-1.1,1.4-2.4,2.5-2.8,12.7-5.4,25.5-10.9,38.3-16,13.7-5.5,27.6-10.6,41.3-16.1,11.5-4.5,22.7-9.5,34.2-13.9,11.1-4.3,22.3-8.1,33.5-12.1,6.5-2.3,13.1-4.5,19.5-7.1,2.8-1.1,5.3-1.6,6.7,1.1,1,1.9,1.4,4.9.6,6.8-4.9,12.5-15.7,19.4-26.4,26.2-2.3,1.5-5,2.4-7.5,3.6-8.1,3.5-15.5,7.1-23.3,9.4-15.7,4.5-31.6,8.5-47.5,12-15.3,3.4-30.8,6.1-46.2,9.1-5.7,1.1-11.5,2.3-17.3,2.9-2.6.3-5.4-.5-8.1-1-.3,0-.8-1.6-.6-2ZM1215.6,1537.2c-.3.3-1.1,0-1.7,0,.1-.6.1-1.4.5-1.7,2.6-2,5.3-4,7.9-6-1.6,2.6-4.1,5.2-6.7,7.6ZM1230,1526.5c-.5.3-1.3,0-1.9-.1.1-.4.2-.8.5-1,3.2-2.3,6.4-4.5,9.7-6.6.3-.2,1.3.6,2,.9-3.1,2.7-6.7,4.9-10.3,7ZM1010,1500c6.4-2.2,12.9-4.3,19.3-6.4,9.1-3.4,17.6-6.8,26.3-9.2,13-3.6,26.3-6.5,39.4-9.8,6.9-1.7,13.8-3.7,20.7-5.4,3.1-.7,6.2-1,9.3-1.6,6.9-1.4,13.8-2.9,20.6-4.4.8-.2,1.5-.6,2.3-.5.6,0,1.2.6,1.8.9-.4.3-.8.8-1.3,1-4.1,1.4-8.2,2.8-12.3,4-15.3,4.4-30.7,8.8-46,13.1-9.2,2.6-18.4,5.3-27.7,7.9-14.8,4.1-29.6,8.1-44.5,12-2.3.6-4.7.8-7.1,1-.7,0-1.4-.4-2.1-.6.4-.7.6-1.8,1.2-2ZM1038.2,1598.6c-6.8,1.3-11-3.1-14.3-7.6-7.1-9.8-13.2-20.2-20.2-30.1-7.3-10.4-15.2-20.4-22.7-30.6-2.1-2.9-3.4-6.3-5.4-9.2-2.2-3.3-.7-5.4,2.3-6.4,5.6-1.9,11.2-4.6,16.9-4.8,11.6-.5,22.8-2.4,33.9-5.2,11-2.8,22.2-5.1,33.2-8.1,11.5-3.1,22.9-6.6,34.4-9.9,9.6-2.7,18.1-5.4,26.7-8,9.5-2.8,19-5.9,28.7-7.8,4.3-.8,9,1.2,13.6,1.7,1.7.2,3.6.4,5.1-.2,5.1-2.1,9.9-5.8,15.2-6.7,5.6-.9,10.4-3.6,15.6-5.1,9.1-2.6,18.3-4.9,27.1-8.1,6.2-2.3,12.3-3.4,18.9-4,5.5-.5,10.8-2.7,16.3-3.9,3.9-.9,7.9-.9,11.7-2,9-2.4,17.8-5.3,26.8-7.6,9.6-2.4,19.4-4.3,29.1-6.1,2.3-.4,4.8.4,7.2.7,1.5.2,2.9.4,4.4.6.7,0,1.4.2,2.1.4-.4.7-.7,1.5-1.3,2-11.2,8.8-22.4,17.6-33.6,26.4-.6.5-1.3,1.6-1.8,1.6-6.4-.8-8.9,4.7-12.7,8-3.8,3.3-7.2,7.4-11.4,10.1-3.5,2.2-7.4,4.4-12.4,3.2-5.7-1.4-10,2.3-14.1,5.6-.4.3-.5,1.1-.8,1.6.7.2,1.5.7,2.2.5,2.1-.5,4.1-1.5,6.2-1.7,1.1-.1,3.3.9,3.4,1.5,0,1.4-1,4.1-1.4,4.1-6.4-.8-9.5,4.7-14,7.4-5.4,3.1-10.7,6.5-15.9,9.9-5.1,3.3-10.1,6.8-15.2,10.2-10.5,6.9-21,13.7-31.5,20.5-9.9,6.3-19.4,13.4-29.8,18.5-9.3,4.5-15.9,13.4-26.7,15.3-2.1.4-3.9,2.8-5.6,4.4-6.2,6-13.2,10.7-21.5,13.3-3.1,1-6.5,1.4-9.8,1.7-5.2.5-10.4.6-15.6,1.1-4.1.4-8.1,1.3-12.2,1.8-1.3.2-2.6.1-4,.1-7.2,0-14.4,0-21.7,0-1.9,0-3.7.6-5.6,1ZM1074.7,1657.3c-4.9-6.6-10-13.2-15.8-18.9-6.7-6.6-9.9-15.3-15.1-22.8-.4-.5-.6-1.2-1-1.6-2.4-1.9-4.4-4.5-2.6-7,1.1-1.6,4.4-1.9,6.8-2.4,2.8-.6,5.7-1.1,8.6-.9,1.5.1,2.8,2,4.2,3.1-1,1.2-1.9,2.7-3.2,3.7-2.6,2.2-7.6,2.1-6.8,7.3.3,2.2.9,3.8,3.7,1.6,5.9-4.6,11.9-9,18.1-13,2.4-1.5,5.5-2.6,8.3-2.8,17.1-1.2,34.3-2.1,51.4-3.1,5.9-.7,10.8-1.8,15.7-1.9,6.7-.1,13.5.9,20.2.8,23.2-.2,46.4-.6,69.6-.9,5.1,0,10.1.1,15.2,0,7.9-.2,15.8-.8,23.7-.9,5.4,0,10.8.8,16.3.9,8.3.2,16.6,0,24.8,0s16.1,0,24.2,0c2.4,0,4.9.2,7,1.1,2.5,1.1,4.1,3.2,2,6.2-10.4,14.7-20.5,29.5-31.2,44-3.6,4.9-9.3,5.9-15.3,4.9-1.3-.2-2.6-.2-3.9-.2-25.9,0-51.8-.2-77.6,0-9.6,0-19.1,1.3-28.7,1.9-3.4.2-6.8-.2-10.2,0-8.3.6-16.6,1.4-24.8,1.9-6.2.4-12.5.7-18.7,1-12.6.7-25.1,1.2-37.7,2.1-4.4.3-8.8,1.4-13.2,1.9-5.8.6-10.4-1.2-14-6.2ZM1089.1,1677.3c-3.6-4.4-2.7-6.9,3-7.7,4.5-.6,9-.8,13.6-1,14-.7,28.1-1.3,42.2-2,9.4-.5,18.8-1.3,28.2-2,7.4-.6,14.8-1.6,22.2-1.9,8-.3,16.1,0,24.2,0,6.3-.3,12.1,0,17.9,0,7.7-.1,15.4-.8,23.1-.9,4.2,0,8.5.7,12.8.9,4.4.2,8.8,0,13.2,0,4.4.2,8.7.5,13.1,1,2.9.3,3.5,2.9,1.6,5.4-7.1,9.4-14.1,18.8-21.2,28.1-3.6,4.7-6.8,9.8-11.1,13.7-1.9,1.8-6.5,2.4-9.1,1.5-8.6-3-17.4-4.3-26.5-4.9-10.3-.7-20.5-2.7-30.8-3.7-3.8-.4-7.7.9-11.6.8-5.8,0-11.6-.9-17.4-.9-9.5,0-18.9.7-28.4.9-8.1.2-16.2-.9-24.1.3-9.3,1.3-14.8-2.8-19.8-9.6-4.6-6.2-9.9-11.9-14.8-17.9ZM922.5,1755.7c-9.5,1-18.9,2.5-28.4,3.9-3.6.5-7.1,1.6-10.7,1.9-1.5.1-3.1-1-4.6-1.6,1.1-1,2-2.6,3.3-3,8.8-2.3,17.6-4.4,26.4-6.3,8.5-1.8,17-3.4,25.5-4.7,6.6-1,13.3-1.8,20.1-2.3,17.6-1.2,35.2-2,52.7-3.1,10.2-.6,20.4-1.4,30.7-2,12.1-.7,24.1-1.3,36.2-2,.9,0,1.7-.8,2.6-.9,2-.2,4.9.5,4.4-2.9-.4-2.9-3-3.3-5.7-3.2-12.2.4-24.4.5-36.6,1.1-13.9.7-27.8,1.9-41.8,2.9-4.5.3-9.1.8-13.6.9-1.1,0-2.2-1.3-3.3-2,1-.6,1.9-1.6,3-1.9,16.4-3.4,32.8-7,49.4-9.9,9-1.6,18.1-2.2,27.2-3.1,13.9-1.4,27.9-2.7,41.8-4,1.1-.1,2.1-.6,3.1-1,4.1.7,6.3,2.4,8.4,5.1,12.3,15.8,25.2,31.3,37.6,47,2.7,3.4,4.9,7.2,6.9,11.1.3.5-2,3.4-3.4,3.6-6,1-12.1,1.6-18.1,2.1-15.1,1.4-30.2,2.8-45.3,4-7.7.6-15.4.9-23.1,1-21.6.4-43.2.9-64.7,1-12.4,0-24.8,0-37.1-1.1-14.6-1.3-29.1-3.5-43.5-5.9-13-2.2-25.8-5.2-38.7-8-1.9-.4-3.6-1.9-5.5-2.9,2.2-1,4.2-2.6,6.5-2.9,13.3-1.9,26.6-3.3,39.9-5.2,1.7-.2,3.1-2.1,4.6-3.2-2.1-.9-4.3-2.7-6.3-2.5ZM1124.4,1800.5c-5,.5-10.1.7-15.1,1-8.1.7-15.1,1.2-22.2,2-11.5,1.3-22.9,2.7-34.3,4-6.7.7-13.4,1.3-20.2,2-12.3,1.3-24.6,2.7-36.8,4-3.4.4-6.7.8-10.1,1-7.7.4-15.4.4-23.1,1.1-10.3,1-20.5,2.7-30.8,3.9-5.3.6-10.7.6-16.1,1.1-13.8,1.3-27.5,2.7-41.3,4-8.9.8-17.8,1.2-26.7,2.1-13.1,1.2-26.2,2.7-39.3,3.9-8.9.8-17.8,1.6-26.7,2-21.4.8-42.8,1.9-64.1,1.8-10.4,0-20.9-2.4-31.3-3.8-.8-.1-1.7.2-2.5,0-2-.7-4.9-1.1-5.8-2.5-1.4-2.4.3-4.8,2.5-6.7,10.9-9.9,24.1-15.4,37.9-19.6,11.3-3.5,22.7-6.4,34.1-9.3,14.8-3.7,29.7-7.3,44.5-10.7,10.7-2.5,21.4-4.8,32.1-6.9,5.8-1.1,11.7-1.4,17.6-2.2,3.4-.5,6.8-1.6,10.3-1.6,2.7,0,5.7.5,8.1,1.7,13.6,6.9,28.2,10.4,43.1,13,14,2.5,28,4.9,42.1,6.9,6.1.9,12.4.9,18.6,1.1,14.9.4,29.8.8,44.7,1,8.9.1,17.9.2,26.8,0,16.7-.5,33.4-1.1,50.1-2,11.1-.6,22.2-1.9,33.2-2.9,10.6-1,21.2-2.1,31.7-3,3.2-.3,6.6-.7,9.6.2,1.9.6,3.1,3.4,4.5,5.3-2,1.5-3.9,4-6.1,4.3-13.1,1.7-26.2,2.9-39.3,4.1ZM1084.4,1860.6c10.4-5.8,21-11.3,31.3-17.1,11-6.2,21.8-12.5,32.6-19,8.6-5.2,16.8-10.8,25.5-15.8,2.1-1.2,6-1.4,8.1-.3,2.7,1.5,5.9,3.9,5,8.2-.9,4.5-5,4.4-7.9,5.7-7.1,3.3-14.4,6.1-21.7,9.1-15.2,6.7-29.5,13.2-43.6,20-6.8,3.3-13.3,7.2-20.1,10.6-2.7,1.3-5.7,3.9-9,1.3-.5-.4-.5-2.6-.2-2.8ZM1220.7,1863.1c-2.8,3.6-6.7,4.9-11.2,5.5-4.8.6-9.5,2-14.2,3-4.4,1-8.8,2-13.3,2.9-7.4,1.5-14.7,3-22.1,4.5-7.9,1.9-15.3,3.2-22.7,4.7-10.7,2.2-21.4,4.6-32.2,6.7-11,2.1-22,4.2-33,6-9.6,1.6-19.2,2.7-28.8,4.1-2.9.4-5.8,1.5-8.7,1.8-1.5.1-3.1-1-4.6-1.5.8-1.3,1.2-3.4,2.3-3.9,7.8-3.6,15.8-6.9,23.7-10.3,12-5.2,24-10.4,36-15.6,13.4-5.8,26.9-11.5,40.2-17.5,5.6-2.6,10.7-6.3,16.3-8.9,10.2-4.6,20.7-8.7,31.1-13.1,2.4-1,4.7-2.2,7.1-3.2,6.6-2.8,10.7-1,14.2,5.6,1.9,3.5,2.4,6.6.2,10.5-1.3,2.3-.9,6.3.3,8.8.7,1.3,5,1.4,7.4.8,4.9-1.4,9.6,1,12.3,6.6.3.7,0,2-.5,2.7ZM1227.9,1856.4c-7.3-9.8-15.4-19-23.2-28.4-3.2-3.9-2.5-9.2,2-10.3,16-4,29.1-14.2,44.1-20.4,5.8-2.4,12.3-3.5,18.6-4.6,5.8-1.1,11.8-2.3,17.6-1.9,13.8,1,27.3-.7,40.8-2.4,13.1-1.6,26-4.8,38.9-7.2,6.8-1.3,13.7-2.1,20.5-3.6,7.4-1.7,14.8-3.7,22-6,9.5-3.1,19.1-6.3,28.3-10,11.5-4.6,22.2-10.4,31.8-18.7,9.7-8.3,13.5-18.8,15.4-30.7.2-1.3,1.3-3,2.4-3.4,7-2.4,12.7-7.1,20.5-8.6,11.4-2.2,22.2-7.4,33.2-11.3,8.3-2.9,16.7-5.5,25.1-8.3,20.9-7,41.9-13.9,62.8-21,4.4-1.5,8.5-3.7,12.8-5.3,6.3-2.4,8.9-.4,9.1,6.6.2,7.1-2.4,13.5-5.5,19.7-3.6,5.6-6.2,11-9.8,15.6-13.4,17.5-30.6,30.5-49.6,41.4-10,5.7-19.7,11.9-29.9,17.1-11.2,5.7-22.9,10.7-34.4,15.8-9.7,4.3-19.6,8.3-29.4,12.2-10.3,4.1-20.6,8.2-31,12-6.9,2.6-14.1,4.6-21,7.2-7.1,2.7-13.8,6.1-20.9,8.6-11.5,4-23.2,7.5-34.9,11.2-18,5.7-35.9,11.5-54,16.8-13.9,4.1-27.9,7.4-41.9,11.1-15.3,4-30.6,8.3-46.1,11.8-5.1,1.2-10.4.3-14.3-5Z"/>
  <path d="M1566.2,1356.7c-1.3,0-2.5,0-3.8.1,1.3,0,2.5,0,3.8-.1Z"/>
  <path d="M2745.8,1140.5c-4.9-1-9.3-2-13.8-3-6.1-1.4-12.1-2.9-18.2-4.4-8.1-2.1-16.2-4.3-24.3-6.6-8.5-2.4-17-4.9-25.5-7.2-4.2-1.1-8.6-1.7-12.8-2.9-16.3-4.3-32.4-9-47.7-16.5-18-8.8-36.7-16-54.8-24.7-11.2-5.4-21.8-12-32.2-18.7-14.3-9.1-28.4-18.6-42.3-28.3-5.2-3.6-9.7-8.1-14.4-12.3-12.5-11.3-24.1-23.5-34.3-37.1-4.1-5.5-9.1-10.3-14-15.1-12.4-12.2-22-26.4-30.8-41.3-5.9-10-12.1-19.9-17.4-30.3-1.2-2.3,1-6.5,2-9.6.1-.4,3.3-.6,3.8,0,7.5,9.8,15.2,19.3,18.9,31.7,2.2,7.5,7.2,14.6,12.1,20.9,10.7,13.6,22.2,26.6,33.5,39.7,7.9,9.1,15.4,18.7,24.2,26.9,10.1,9.3,21.4,17.3,32.3,25.6,7.8,5.9,15.7,11.8,23.9,17.1,9.7,6.2,19.7,11.9,29.7,17.6,9.3,5.3,18.8,10.2,28.2,15.2,3.6,1.9,3.8,1.2,5.2-1.9,1.3-2.9,4-5.6,6.8-7.2,1.6-.9,6,.2,6.6,1.5,1.5,3.5,2.5,7.7,1.8,11.4-.6,3.6.9,5.6,3,6.4,19.8,7.1,39.1,15.4,59.6,20.2,13.6,3.2,27.1,6.9,40.6,10.5,11.2,3,22.3,6.8,33.6,9.3,10.3,2.3,20.9,3.3,31.4,5.2,7.4,1.3,14.7,3.1,22.1,4.5,11.3,2.2,22.6,4.2,33.8,6.4,7.1,1.4,14.1,3.1,21.1,4.5,7.9,1.6,15.8,3,23.7,4.4,11.3,2,22.7,3.9,34,6.1,5.5,1.1,10.9,2.5,16.3,4,2.8.8,3.4,3.4,2.9,6-.6,3-5.7,5.9-8.6,4.8-3.2-1.2-6.1-3.3-9.3-4.1-9.2-2.2-18.4-4-27.6-5.7-13.3-2.5-26.7-4.6-40-7.2-10.9-2.1-21.7-4.7-32.6-6.8-12.2-2.4-24.4-4.7-36.6-7-4.5-.8-9.1-1.4-14.2-2Z"/>
  <path d="M242.6,1760.3c5.1-9.4,9.9-18.6,14.7-27.7.4-.8.5-1.8.5-2.8.3-6.2,5.8-12.1,11.7-12.2.8,0,2,1.1,2.3,1.9.3,1.2.2,2.7-.3,3.8-6.5,12.7-12.2,25.8-19.8,37.7-7.4,11.5-14.4,23.3-20.8,35.4-.7,1.4-1.9,2.7-3.1,3.7-.9.7-2.6,1.6-3.3,1.2-1.1-.6-2.2-2.1-2.4-3.4-.2-1.2.2-2.9.9-4,6.4-11.2,13-22.3,19.7-33.7Z"/>
  <path d="M277.6,1783.3c-1.1,3.1-1.7,6-2.8,8.7-1.2,3-2.5,6.2-4.7,8.5-1.2,1.3-4.8,2.1-6.2,1.3-2.2-1.3-2.8-4.1-1.2-7.1,5.7-10.6,11.4-21.2,16.4-32.2,4.5-9.9,9.5-19.7,9.8-31,0-1.4,1.8-2.7,2.8-4,1.4,1.5,3.6,2.8,3.9,4.5,1.4,7.1-1.6,13.8-3.5,20.5-1.1,3.8-3.1,7.4-4.9,11-3.1,6.5-6.3,13-9.8,19.8Z"/>
  <path d="M316.6,1770.8c-1.3-4.4-.1-9.4-4.4-12.6-.6-.4-.4-2.7.2-3.5.5-.7,2.2-.9,3.3-.7,4.1.7,6.7,3.6,7,7.3.6,6,0,12.1.2,18.2,0,2.5,1,5.1.8,7.6,0,1.5-1.4,3-2.2,4.5-1.5-1.1-4.2-2.1-4.4-3.4-.7-4.5-.5-9.2-.5-13.8,0-1.1.2-2.2,0-3.6Z"/>
  <path class="st3" d="M1462.7,1401.1c6.5-.2,13-2.1,18.6-5.4"/>
  <path class="st3" d="M1490.2,1393c-1.7.8-3.3,1.6-3.7,2-2.7-.3-5.5,0-8.1.7,4.3-1.1,8.5-2.7,12.4-4.8s2.6-.4,5.2-.2c-3.5.4-7.3,2.3-10.8,3s-9.2,2.3-13.6,4.1"/>
  <path class="st3" d="M1466,1401c-2,0-3.9.1-5.8.5"/>
  <path class="st3" d="M1463.4,1403.1c-.3,0-.6.1-.8.4,1.6-.5,3.1-.9,4.6-1.4"/>
  <path class="st3" d="M1478.8,1397.9c2.2-1.2,4.3-2.4,6.7-3,1.4-.4,2.8-.5,4.2-.7,2.5-.4,5-1,7.4-1.8"/>
  <path class="st3" d="M1476.9,1393.4c2.7.5,5.4-.7,7.9-1.9s5-2.6,7.8-2.4"/>
  <g>
    <line class="st2" x1="2440.2" y1="1899.8" x2="1919.3" y2="2187.8"/>
    <polygon points="2410.7 1870.6 2490.4 1872.1 2449.3 1940.5 2410.7 1870.6"/>
    <polygon points="1910.3 2147.2 1869.2 2215.5 1948.9 2217 1910.3 2147.2"/>
  </g>
  <g>
    <line class="st2" x1="889.5" y1="2414.8" x2="355.4" y2="2152.2"/>
    <polygon points="896.6 2373.8 941 2440.2 861.3 2445.5 896.6 2373.8"/>
    <polygon points="383.5 2121.6 304 2126.9 348.3 2193.2 383.5 2121.6"/>
  </g>
  <g id="dIduZi">
    <image id="dIduZi-2" class="st1" width="231" height="154" transform="translate(2205.4 2129.5) scale(.7)" xlink:href="../../../../../../Downloads/Shape 18-5.png"/>
  </g>
  <image id="o8WUtG-2" class="st1" width="945" height="270" transform="translate(691.6 2043.8) scale(.5)" xlink:href="../../../../../../Downloads/Shape 18-3.png"/>
  <image id="ANnCoV-2" class="st1" width="225" height="153" transform="translate(484.3 2336.4) scale(.7)" xlink:href="../../../../../../Downloads/Shape 18-4.png"/>
  <image id="ssjIIa-2" class="st1" width="858" height="258" transform="translate(-514.6 1650.3) scale(.6)" xlink:href="shapley_v-1.png"/>
  <circle class="st0" cx="1605.6" cy="1364.2" r="39.4"/>
  <g id="GaLO9j">
    <image id="GaLO9j1" data-name="GaLO9j" width="990" height="258" transform="translate(1668.2 1217.6) scale(.4)" xlink:href="shapley_v2-1.png"/>
  </g>
  <g id="cuymY3">
    <image id="cuymY31" data-name="cuymY3" width="990" height="270" transform="translate(1001.8 1270) scale(.4)" xlink:href="shapley_v2-2.png"/>
  </g>
</svg>