<?xml version="1.0" encoding="UTF-8"?>
<svg id="Contours" xmlns="http://www.w3.org/2000/svg" xmlns:xlink="http://www.w3.org/1999/xlink" version="1.1" viewBox="0 0 1323 1323">
  <!-- Generator: Adobe Illustrator 29.1.0, SVG Export Plug-In . SVG Version: 2.1.0 Build 142)  -->
  <defs>
    <style>
      .st0 {
        font-family: MyriadPro-Regular, 'Myriad Pro';
        font-size: 48px;
      }

      .st1 {
        fill: none;
        stroke: #000;
        stroke-miterlimit: 10;
        stroke-width: 4px;
      }
    </style>
  </defs>
  <path d="M1323,723.2c-.6.8-1.2,1.4-1.8,1.9-.4-.6-.8-1.3-1.2-1.9.8-.2,1.7-.5,2.8-.7.2,0,.2.5.2.8Z"/>
  <path d="M223,540.4c7,13.7,13.4,27.7,21.2,40.9,4.6,7.7,6.5,15.1,7.1,23.9.8,11,4.3,21.8,6.5,32.7.9,4.7,1.4,9.4,2.1,14.1.2,1.4.5,2.8,1.2,4,.4.7,1.5,1.3,2.3,1.3.5,0,1.4-1.1,1.4-1.8,0-7.8,6-12.3,9.7-18,6.9-10.7,14.4-21.2,22.2-31.3,8.4-10.8,17.5-21.1,26.5-31.6,2.1-2.5,4.2-4.7,3.2-8.3,0-.3.3-.9.6-1,10.1-3.9,16.8-12.3,24.4-19.4,11.4-10.6,24.4-19,37.2-27.5,12-8,24.3-16,37.4-21.9,23.3-10.5,47-20.2,71.1-28.6,16.1-5.6,33.3-7.9,49.7-12.8,22.4-6.6,45.2-6.6,68-5.6,15.1.7,30,3.8,45,5.7,13.9,1.8,27.4,4.7,40.3,10.1,10.6,4.5,21,9.7,31.6,14.3,15.4,6.8,28.7,16.6,41.9,26.7,1.4,1,1.9,3.3,3.2,4.3,1,.8,2.9.6,4.3.6.8,0,1.6-.4,2.4-.6-.3.7-.5,1.4-.8,2.1-2.1,4.5-4.3,5-7.9,1.1-7.6-8.3-16.2-15.4-26-20.7-15.8-8.5-32-16.1-48.1-23.9-13.6-6.5-28.5-8.9-43-11.9-6.9-1.4-14.1-1.6-21.1-2.1-15.9-1.1-31.8-2.8-47.8-2.8-10.8,0-21.7,1.8-32.3,3.9-14.1,2.7-28.1,6.1-41.9,10-15,4.2-30.1,8.5-44.6,14.3-18,7.1-36,14.8-53.1,23.9-14.6,7.7-28.3,17.4-41.8,27-11.7,8.3-23.9,16.6-33.7,27-17.4,18.6-35.7,36.5-49.2,58.5-8.4,13.6-17.6,26.8-26.7,39.9-5.1,7.3-2.3,14.7-.8,21.9,3,13.9,6.3,27.7,9.9,41.4,2.5,9.2,6,18.2,8.8,27.3.4,1.4-.1,3-.2,4.5-.9-1.1-2.3-2.1-2.7-3.4-4.8-16.2-9.4-32.5-14.1-48.7-.5-1.6-1.6-3.6-3-4.1-3.7-1.5-3-3-1-5.6.9-1.2,1.2-3.4,1-5-.4-4.1-1.1-8.1-2-12.2-.3-1.7-1.3-3.3-1.9-4.9-1,1.2-2.1,2.2-3,3.5-2.1,3-4.2,5.9-6,9-8.1,14.6-16.1,29.3-24,44-3.1,5.8-6,11.8-9.1,17.7-.3.6-1.1,1.1-1.6,1.6-.1-.8-.6-1.7-.3-2.3,2.3-5.4,4.3-10.9,7.1-16.1,5.9-10.9,12.2-21.6,18.3-32.4,4.3-7.6,8-15.5,12.9-22.6,4.8-7.2,3.9-14.5,2.6-22-1.8-9.9-3.9-19.7-5.8-29.6-.8-4.4-1.3-8.8-2.1-13.1-.2-.9-1.5-1.7-2.2-2.5-.6,1-1.3,1.9-1.7,2.9-5.4,16.3-10.4,32.7-16.1,48.8-4.3,11.9-9.3,23.5-14.4,35-5.8,13.1-12.3,25.9-17.8,39.1-1.3,3.2-.3,7.6.4,11.3,2.1,10.7,4.2,21.5,7,32.1,4,15.1,8.3,30.2,13.1,45.1,5.1,15.9,10.8,31.5,16.1,47.3.5,1.5.2,3.4.3,5-1.2-1.4-3-2.7-3.5-4.3-8.1-24-16.3-47.9-24-72.1-4.2-13.3-7.6-26.8-11.4-40.3-.3-1.1-.2-2.3-.8-3.2-.8-1.3-2-2.5-3.1-3.7-.6,1.1-1.8,2.3-1.8,3.4.1,16.6-7.6,31.2-12.9,46.2-8.2,23.4-18,46.2-27.2,69.2-.3.7-.5,1.6-1,2-.7.7-1.7,1-2.6,1.5-.1-1-.6-2.1-.3-3,3.7-11.3,7.6-22.5,11.4-33.8,4.5-13.1,8.7-26.4,13.7-39.3,3.2-8.3,7.3-16.3,11.1-24.4,3-6.2,5.5-12.6,4.7-19.5-1.1-8.9,3.5-16.3,5.4-24.4,1.9-8.2,5.1-16.2,7.7-24.3.3-1.1.5-2.7,0-3.4-2.5-3.1-.4-6,1.2-7.7,6.1-6.4,6.8-14.9,9.8-22.5,7.4-18.8,14.6-37.6,22.1-56.3,1.3-3.3,3.6-6.2,5.4-9.2.4-.6.7-1.3,1.1-1.9.1.8.6,1.7.4,2.3-2.2,5.6-4.4,11.2-7,16.6-10.8,22.8-19.2,46.4-27,70.3-3.2,9.8-6.4,19.7-9.3,29.6-.4,1.4.3,3.2.5,4.7.9-1.2,2.1-2.4,2.8-3.7,4.9-11,10-21.9,14.5-33,6.1-15.1,11.8-30.4,17.5-45.7,4.4-11.7,8-23.7,12.7-35.2,3.6-8.6,1.8-15.5-3-22.9-12.5-19.6-24.5-39.5-36.8-59.3-2.4-3.9-4.7-7.7-7.2-11.5-2.6-3.9-6.9-4.9-9.8-1.6-8.3,9.4-19.3,12.8-30.6,16.9-8.9,3.2-16.8,9.4-24.9,14.5-8.1,5.1-16,10.5-23.9,15.9-2.2,1.5-4.2,3.5-6.3,5.2-.7.6-1.5,1.6-2.3,1.6-1.2,0-2.4-.6-3.5-1,.7-.4,1.6-.6,2.2-1.1,15.3-11.9,31.8-22.2,47.5-33.5,6.4-4.6,13.7-6.4,21.1-8.2,7-1.8,12.4-6,17.7-10.5,1-.8,1.8-2,3-2.5,4-1.8,4-5.1,2.5-8.1-6.5-12.8-13.4-25.5-20.1-38.2-.4-.8-.9-1.6-1.3-2.5-2.3-4.7-2.9-4.8-6.7-1.1-13.9,13.2-25.4,28.3-36.4,43.9-9.4,13.4-19.6,26.3-29.8,39.2-8.4,10.6-17.6,20.7-25.9,31.4-1.3,1.7-.8,5.5,0,7.9,3,8.1,7.2,15.8,9.6,24,3.9,13.4,6.7,27.2,10.2,40.8,4,15.8,7.8,31.7,12.4,47.4,3.1,10.5,7.6,20.5,11.5,30.7.3.8.2,1.7.3,2.5-1.4-.4-3.7-.5-4-1.3-4.2-10.6-8.2-21.3-12.1-32-4.5-12.5-9-24.9-13.3-37.5-2.5-7.3-4.3-14.9-6.9-22.2-.9-2.4-3.5-4.1-5.1-6.2-.5-.6-.9-1.9-.6-2.3,3.5-4.4,1.3-8.6,0-13-2.3-8.3-4.1-16.6-6.2-25-.1-.5-.4-1-.6-1.5-.8.8-1.9,1.5-2.3,2.5-1.5,3.9-2.7,7.9-4.1,11.8-5.7,17.1-11,34.4-17.1,51.4-4,11.1-9.6,21.7-13.8,32.8-4.8,12.5-8.8,25.4-13.1,38.1-.3,1-.7,2.1-1.3,3-.3.4-1.2.8-1.7.7-.4-.1-1.1-1.1-.9-1.5,1.5-3.9-3.9-7.2-.3-11.7,2.4-3,2.3-7.9,3.5-11.9,6.2-19.8,11.8-39.7,19-59.2,4.3-11.7,11-22.4,16.7-33.6,3.9-7.7,8-15.3,12-23,.3-.5.4-1.6.2-1.7-.8-.4-1.8-.7-2.7-.8-.8,0-1.6.4-2.4.6.4-.8.7-1.7,1.2-2.4,4.8-6.5,9.6-13,14.5-19.5,9.5-12.6,19-25.2,28.7-37.6,5.3-6.7,10.8-13.3,16.6-19.6,11.7-12.7,22.6-26,30.9-41.2.5-.8,1-1.6,1.6-2.3.3-.3.7-.5,1-.8,0,.6.1,1.2,0,1.7-.3,1.4-.8,2.8-1.2,4.1,1.6-1,3.6-1.6,4.9-2.9,1.8-1.8,3.2-3.9,4.6-6,4-5.9,7.8-5.8,11.1.6,5.7,11.1,11.3,22.3,17,33.5,1.8,3.6,3.8,7.2,6.1,10.5.9,1.2,2.9,1.7,4.4,2.5.3-1.7,1.4-3.8.8-5-4.2-7.9-8.8-15.7-13.3-23.5-2.2-3.8-4.4-7.5-6.3-11.4-.5-1.1-.2-2.7-.2-4,.6.9,1.2,1.8,1.8,2.7,4.3,7.7,8.5,15.5,12.8,23.2,2.2,4,3.9,8.3,6.6,11.8,1.1,1.4,4.8,2.2,6.5,1.4,5.6-2.6,10.7-6.2,16.3-9.1,11.1-5.7,22.2-11.6,33.7-16.4,15.3-6.4,31-12.1,46.6-17.8,15.5-5.6,31.1-11,46.9-15.8,8.8-2.7,18-4.2,27-6,13.9-2.8,27.8-5.4,41.7-7.9,7.7-1.3,15.5-2.1,23.2-3.2,7.6-1,15.2-2,22.8-3,3.9-.6,7.8-1.6,11.7-1.9,7.8-.6,15.7-.7,23.6-1.1,13.4-.6,26.8-1.9,40.2-1.8,15.4,0,30.8.7,46.2,2,14.6,1.3,29,4.9,43.5,5.6,20.9,1.1,40.9,6.3,60.9,11.3,19.6,4.9,39.4,9.9,57.1,20.1,6.6,3.7,12.7,8.5,18.4,13.4,14.6,12.5,28.8,25.5,43.3,38.1,5.2,4.5,10.9,8.2,16.3,12.5.6.5.3,2.1.5,3.2-1.3,0-3.1.6-3.9,0-3.8-2.7-7.4-5.7-10.9-8.8-13.1-11.4-26.1-22.9-39.3-34.2-7.4-6.4-14.7-13.1-22.8-18.6-12.7-8.7-27.4-13.5-42.1-17.7-12.4-3.5-25-6.5-37.7-9.3-10.3-2.3-20.7-4-31.1-5.8-10-1.8-19.9-3.5-29.9-4.9-5.1-.7-10.4-.9-15.6-1-12.7-.4-25.4-.5-38.1-1.1-9.2-.4-18.5-1.9-27.7-1.8-12.4,0-24.8,1.3-37.2,1.8-15.2.7-30.1,3.5-45,6-17.9,3-35.9,5.9-53.8,9-14.2,2.5-28.6,4.7-42.6,8.3-12.9,3.4-25.3,8.9-38.2,12.8-19.8,6-39.1,13.4-57.6,22.7-5.9,3-12.7,4.2-18.5,7.2-9.2,4.9-18,10.5-26.8,16.2-2.7,1.7-2.7,4.5-1.1,7.5,5.7,10.5,11.2,21.1,16.5,32-7-11-13.7-22.3-20.5-33.5-.6-1-2-1.5-3.1-2.3-.4.9-1.2,1.8-1.1,2.6.2,1.5.7,3.1,1.5,4.4,4.8,8,9.6,16,14.5,24,2.3,3.7,4.6,7.5,7,11.1.8,1.2,2.3,2,3.5,2.9-.2-1.3-.3-2.6-.5-3.9-.3-1.7-.7-3.4-1-5.1M30,653.9c-3.4,10.7-6.9,21.5-10.2,32.3-.3,1.1.1,2.5.2,3.7,1-.9,2.5-1.7,2.9-2.8,3-7.6,6-15.2,8.7-22.9,4.7-13.2,9.2-26.5,13.8-39.8.4-1.2,0-2.7,0-4-.9.9-2.2,1.7-2.7,2.8-4.3,9.9-8.5,19.8-12.8,30.7M74,610.9c1.3,4.8,2.6,9.5,4,14.3,2.3,8,4.6,16,7.1,24,.3.9,1.4,1.5,2.1,2.2.3-.8.6-1.6.8-2.5.1-.8.2-1.7,0-2.5-4.6-16.9-9.3-33.7-14-50.5-.4-1.6-1.5-3-2.3-4.5-.3,1.8-1,3.6-.7,5.3.8,4.4,2,8.8,3.1,14.2M99.5,532.4c3.5-4.5,7.1-9.1,10.6-13.6.3-.4,0-1.2,0-1.7-.7,0-1.7,0-2.1.3-3.2,3.6-6.5,7.2-9.5,11.1-5.2,6.6-10.2,13.4-15.2,20.2-.7,1-.6,2.5-.9,3.7,1-.7,2.3-1.1,3.1-2,4.6-5.7,9-11.6,14-17.9M173,800.9c.8-2.5,1.8-4.9,2.3-7.4.3-1.1-.3-2.5-.5-3.7-.7.8-1.6,1.4-2,2.4-1.5,3.3-2.9,6.7-4.1,10.1-.3.8.4,2,.7,3.1.9-.6,1.9-1,2.5-1.7.4-.5.4-1.5,1.1-2.7Z"/>
  <path d="M1242.4,545.5c-.5,1-1.1,1.9-1.3,2.9-2.7,13.2-5.4,26.4-8,39.7-2,9.9-4,19.7-5.8,29.6-1.6,9.2-3,18.5-4.2,27.8-1.2,9.6-1.9,19.2-3.1,28.7-1.5,11.5-3.2,23-5,34.4-2,13-3.5,26.1-6.1,39-2.8,13.9-6.6,27.6-9.9,41.4-1.5,6.4-2.6,7.5-9.2,7.3-9.2-.2-18.4-.6-27.6-1-8.5-.3-17.1-.7-25.6-1-9.5-.4-19.1-.7-28.6-1-10.9-.4-21.7-.6-32.6-1-13.1-.6-26.1-1.4-39.2-1.9-10.9-.5-21.7-.8-32.6-1-27.7-.4-55.4-.7-83.1-1-3,0-6-.1-9,0-3.9.2-5.8-1.3-5.6-5.4.7-17.9,1.3-35.8,2-53.7.6-15.2,1.9-30.4,1.9-45.7,0-33.4-.6-66.7-.9-100.1,0-3.8,0-7.7,0-11.5s-.1-2,0-3c1.7-9.9,4-19.7,1.9-29.8-.2-1.1-1.3-1.9-1.9-2.9-.7,1-1.9,1.9-1.9,2.9-.2,4.9.1,9.8-.2,14.6-.5,7.9-1.5,15.8-1.8,23.7-.2,5.5.9,11.1.8,16.6-.2,33.5-.5,67.1-1,100.6-.2,11.4-1.4,22.8-1.9,34.2-.5,13.2-.7,26.4-1,39.6,0,4.3-.6,8.8.1,13,1,6.2-2.6,6-6.7,5.9-23-.4-46.1-.7-69.1-1.1-1.5,0-3.1-.6-4.6-1-.4-.1-.8-.8-.9-1.2-1-4-2-8-2.8-12.1-1.5-8.3-3.6-16.5-3.9-24.8-.8-21.7-.8-43.4-1.2-65.1-.2-9.4-.6-18.7-1-28.1-.6-12.9-1.3-25.8-2-38.7-.7-12.9-1.3-25.8-2-38.7-.2-3.2-.7-6.4-1-9.6-1-11.8-2.1-23.5-2.8-35.3,0-1.1,2.1-3.2,3.3-3.3,3.2-.2,6.4.6,9.6.8,9.2.4,18.4.4,27.6,1.3,1.9.2,4.7,2.9,5.2,5,1.3,4.7,1.6,9.7,2.2,14.6,1.7,13.3,3.5,26.6,5,39.9,1.6,14.6,3.1,29.2,4,43.8.8,13.3,1,26.7,1.1,40.1.2,21.3,0,42.7,0,64,0,2.1.9,4.4.3,6.3-3.6,11.8-2,24-2.3,36,0,1,.9,1.9,1.4,2.9.5-.9,1.5-1.8,1.5-2.7,0-5.6.4-11.3-.3-16.9-.1-1.3.3-1.8.9-2.1-.2-2.4-.1-4.8,0-7.2.2-2.9,1.2-5.8,1.8-8.7-.2-1.9-.3-3.8-.3-5.7-.7-35.7,1.3-71.5-2-107.2-.8-8.3-.7-16.7-1.1-25.1-.2-5.2-.4-10.4-1-15.6-1.1-8.8-2.7-17.6-3.9-26.4-1.4-9.8-2.6-19.6-4.1-29.3-.6-4.3.7-6.2,5.3-6.1,3.9,0,7.7.9,11.6.9,17.7-.2,35.4-.8,53.1-.9,13.4,0,26.7.6,40.1.9,44.1.9,88.2-1.9,132.2,1.9,12.1,1,24.4.8,36.6,1.1,16.5.4,33.1.7,49.6,1,5.5,0,11,0,16.5,0,1.4,0,2.8.6,4.2.6,6.6-.1,13.3-.4,19.9-.6.3,0,.6-.5,1-.8-.4-.4-.7-1-1.1-1.1-2.5-.4-5-.9-7.6-1-12-.4-24.1-.7-36.1-1-13.9-.4-27.7-.6-41.6-1-11-.3-22.1-.6-33.1-1-8.9-.3-17.7-.8-26.6-1-26.4-.4-52.7-.9-79.1-1-52-.2-104,0-156,0-2.8,0-5.7-.7-8.5-.7-2.7,0-5.5.9-8.1.7-10.6-.8-21.2-2.2-31.8-2.8-7-.4-14-.5-21,0-5.2.4-8.2-1.2-9.2-6.4-.2-.9-.7-1.7-1-2.5-.2.9-.5,1.8-1,3-.2,4.1-2.5,4.9-5.7,4.8-12.1-.7-24.1-1.6-36.2-1.9-21.5-.6-43.1-1-64.6-1-19.7,0-39.4.5-59.1,1-8.2.2-16.4.6-24.6,1-1.4,0-2.8.4-4,1-.6.3-.7,1.5-1,2.2.4,0,.8,0,1.3,0,13.2-.7,26.4-1.9,39.6-2.1,11.7-.2,23.4.6,35.1.9,19,.4,38.1.7,57.1,1,18.4.3,36.7.7,55.1,1,.8,0,1.9-.3,2.5,0,1.9,1.4,4.2,2.7,5.3,4.7,1.1,2,.9,4.6,1.1,7,1.4,13.9,3,27.9,3.9,41.8,1,14.4,1.6,28.8,2,43.2.5,16,.8,32.1,1,48.1.4,22.4,0,44.8,1.2,67.1.7,13.6,3.7,27,5.8,40.5.6,3.5-1.6,6.5-5.4,6.5-8.8,0-17.7.2-26.5,0-31.6-.6-63.1,1.4-94.7-1.8-14.1-1.4-28.5-.7-42.7-1.2-11.4-.4-22.8-1.2-34.2-2-13.1-.9-26.2-2.1-39.3-2.9-2.4-.2-3.6-.3-3.3-3.1,1.4-12.1,2.8-24.2,4-36.3.8-7.4,1.4-14.8,2-22.2,1.1-13.2,2.1-26.5,3-39.8.7-10.6,1.3-21.1,2-31.7,1-15.3,2-30.5,3-45.8.7-11.7,1.1-23.5,2.1-35.2.5-5.6,2-11.2,2.9-16.8.8-5.7,1.4-11.4,2-17.2,0-.7-.7-1.4-1.1-2.1-.5.6-1.3,1.2-1.4,1.9-1.9,11.4-3.8,22.8-5.4,34.3-1.3,9.5-2.2,19.1-3,28.8-1.2,14.4-2.1,28.8-3,43.3-.7,10.2-1.4,20.4-2,30.7-.7,12.1-1.3,24.1-2,36.2-.6,9.2-1.3,18.4-2,27.7-1,14.3-2.1,28.5-2.9,42.8-.2,2.8-.1,4.9-3.9,4.7-1,0-2,1-3.1,1.5,1.1.5,2.3,1.2,3.4,1.3,12.4,1.1,24.8,2.1,37.3,3,11,.8,22.1,1.5,33.2,2,5.7.3,11.5-.2,17.2,0,16.6.9,33.2,2.3,49.8,2.9,20.5.7,41.1.8,61.6,1.1,15.5.2,31,0,46.5.1.9,0,1.8.2,2.7.5.3,0,.6-.1.8-.2,2.6-.4,5-.2,7.3.5.8-.5,2.7-.9,3.9-.8,19.4.2,38.7.6,58.1.9,16.2.3,32.4.7,48.6,1,17.5.3,35.1.7,52.6,1,17.9.3,35.7.5,53.6,1,16.2.5,32.5,1.2,48.7,2,11.9.6,23.8,1.4,35.7,1.9,11.5.5,23.1.7,34.6,1,8.4.3,16.7.7,25.1,1,12.9.4,25.7.8,38.6,1,6.5,0,13,0,19.5,0,.5-1,1-2,1.6-2.9.1-.2.3-.4.4-.6-1.9-.9-2-2.8-1.5-4.8,3.1-13.2,6.9-26.2,9.8-39.4,2.2-10.2,3.5-20.6,5.1-30.9.9-5.9,1.2-11.8,2.1-17.7,1.6-10.8,3.4-21.6,4.9-32.4,1.2-8.7,1.8-17.5,3.1-26.2,1.8-12,3.8-24,6-36,2.1-11.4,4.5-22.8,6.6-34.2,1.6-8.9,3-17.8,4.3-26.7.1-.9-.4-2-.6-3ZM814.1,786.3c-4,0-8.1-.8-12.1-.8-4.4,0-8.7.8-13.1.9-7.6.2-8.9-1.2-10-8.5-1.5-10.2-3.6-20.2-4.8-30.4-.7-5.6,0-11.3-.2-17-.2-7.5-.9-15-.9-22.6-.1-19.5.3-39.1-.1-58.6-.6-23.3-1.7-46.5-3-69.7-.6-11.6-1.9-23.2-2.9-34.7-.3-3.7-.9-7.4-1-11.1-.2-6.3,1.8-7.9,8.2-7.3,4.3.4,8.7.7,13.1,1,3.2.3,6.6.1,9.5,1.2,1.5.6,2.4,3.3,3.1,5.2.6,1.6.7,3.4,1.1,5.1,1.3,14.3,2.7,27.5,4,40.8.4,4.4.8,8.7,1,13.1.4,9.2.6,18.4,1,27.6.6,14.1,1.3,28.1,2,42.2.3,5.7.7,11.4,1,17.1.4,9.7.9,19.4.9,29.1,0,7.9-1.3,15.8-.8,23.6,1.2,17.1.4,34.6,7.1,51,1.5,3.6-1.9,3.1-3.2,3.1Z"/>
  <path d="M1318.7,858.7c.7-.3,1.6-.5,2.5-.5,0,0,.4,1.1.2,1.3-.6.7-1.3,1.2-2,1.8-.1-.8-.2-1.5-.6-2.6Z"/>
  <g id="NZC7g2">
    <image id="NZC7g21" data-name="NZC7g2" width="738" height="258" transform="translate(682.1 323.7) scale(.3)" xlink:href="tree_regression_correspondence-1.png"/>
  </g>
  <g id="moEs0i">
    <image id="moEs0i1" data-name="moEs0i" width="738" height="258" transform="translate(897 419.7) scale(.3)" xlink:href="tree_regression_correspondence-2.png"/>
  </g>
  <g>
    <line x1="766" y1="419.5" x2="783" y2="512.8"/>
    <g>
      <line class="st1" x1="766" y1="419.5" x2="780.5" y2="498.7"/>
      <polygon points="770.1 497.6 783 512.8 789.8 494.1 770.1 497.6"/>
    </g>
  </g>
  <g>
    <line x1="882.5" y1="481.7" x2="842" y2="512.8"/>
    <g>
      <line class="st1" x1="882.5" y1="481.7" x2="853.4" y2="504.1"/>
      <polygon points="849.6 494.4 842 512.8 861.8 510.2 849.6 494.4"/>
    </g>
  </g>
  <g id="xHbOgo">
    <image id="xHbOgo1" data-name="xHbOgo" width="192" height="154" transform="translate(8.5 515.7) scale(.3)" xlink:href="tree_regression_correspondence-3.png"/>
  </g>
  <g id="_x36_gv2Ph">
    <image id="_x36_gv2Ph1" data-name="_x36_gv2Ph" width="198" height="154" transform="translate(134.2 658.1) scale(.3)" xlink:href="tree_regression_correspondence-4.png"/>
  </g>
  <text class="st0" transform="translate(240.4 336.9)"><tspan x="0" y="0">Nodes splitting </tspan><tspan x="0" y="57.6">feature </tspan></text>
  <g id="qEB7xx">
    <image id="qEB7xx1" data-name="qEB7xx" width="108" height="222" transform="translate(390.9 348.7) scale(.3)" xlink:href="tree_regression_correspondence-5.png"/>
  </g>
</svg>