<svg xmlns="http://www.w3.org/2000/svg" xmlns:xlink="http://www.w3.org/1999/xlink" class="httpgd" width="743.00" height="708.00" viewBox="0 0 594.40 566.40">
<defs>
  <style type='text/css'><![CDATA[
    .httpgd line, .httpgd polyline, .httpgd polygon, .httpgd path, .httpgd rect, .httpgd circle {
      fill: none;
      stroke: #000000;
      stroke-linecap: round;
      stroke-linejoin: round;
      stroke-miterlimit: 10.00;
    }
  ]]></style>
<clipPath id="c0"><rect x="0.00" y="0.00" width="594.40" height="566.40"/></clipPath>
<clipPath id="c1"><rect x="59.04" y="59.04" width="505.12" height="433.92"/></clipPath>
<clipPath id="c2"><rect x="0.00" y="0.00" width="594.40" height="566.40"/></clipPath>
</defs>
<rect width="100%" height="100%" style="stroke: none;fill: #FFFFFF;"/>
<g clip-path="url(#c0)">
</g><g clip-path="url(#c2)">
<polyline points="260.38,131.33 260.38,58.31 366.43,58.31" style="stroke-width: 0.37;stroke-linecap: butt;"/>
<polyline points="182.73,199.56 182.73,155.61 260.38,155.61" style="stroke-width: 0.37;stroke-linecap: butt;"/>
<polyline points="138.68,267.79 138.68,223.84 182.73,223.84" style="stroke-width: 0.37;stroke-linecap: butt;"/>
<polyline points="106.23,336.02 106.23,292.07 138.68,292.07" style="stroke-width: 0.37;stroke-linecap: butt;"/>
<polyline points="78.42,404.25 78.42,360.29 106.23,360.29" style="stroke-width: 0.37;stroke-linecap: butt;"/>
<polyline points="59.87,513.41 59.87,428.52 78.42,428.52" style="stroke-width: 0.37;stroke-linecap: butt;"/>
<polyline points="96.96,484.34 96.96,428.52 78.42,428.52" style="stroke-width: 0.37;stroke-linecap: butt;"/>
<polyline points="134.05,513.41 134.05,360.29 106.23,360.29" style="stroke-width: 0.37;stroke-linecap: butt;"/>
<polyline points="171.14,484.34 171.14,292.07 138.68,292.07" style="stroke-width: 0.37;stroke-linecap: butt;"/>
<polyline points="226.77,238.72 226.77,223.84 182.73,223.84" style="stroke-width: 0.37;stroke-linecap: butt;"/>
<polyline points="208.22,513.41 208.22,263.00 226.77,263.00" style="stroke-width: 0.37;stroke-linecap: butt;"/>
<polyline points="245.31,484.34 245.31,263.00 226.77,263.00" style="stroke-width: 0.37;stroke-linecap: butt;"/>
<polyline points="338.03,170.49 338.03,155.61 260.38,155.61" style="stroke-width: 0.37;stroke-linecap: butt;"/>
<polyline points="300.94,267.79 300.94,194.77 338.03,194.77" style="stroke-width: 0.37;stroke-linecap: butt;"/>
<polyline points="282.40,513.41 282.40,292.07 300.94,292.07" style="stroke-width: 0.37;stroke-linecap: butt;"/>
<polyline points="319.49,484.34 319.49,292.07 300.94,292.07" style="stroke-width: 0.37;stroke-linecap: butt;"/>
<polyline points="375.12,238.72 375.12,194.77 338.03,194.77" style="stroke-width: 0.37;stroke-linecap: butt;"/>
<polyline points="356.58,513.41 356.58,263.00 375.12,263.00" style="stroke-width: 0.37;stroke-linecap: butt;"/>
<polyline points="393.66,484.34 393.66,263.00 375.12,263.00" style="stroke-width: 0.37;stroke-linecap: butt;"/>
<polyline points="472.47,102.26 472.47,58.31 366.43,58.31" style="stroke-width: 0.37;stroke-linecap: butt;"/>
<polyline points="430.75,513.41 430.75,126.54 472.47,126.54" style="stroke-width: 0.37;stroke-linecap: butt;"/>
<polyline points="514.20,170.49 514.20,126.54 472.47,126.54" style="stroke-width: 0.37;stroke-linecap: butt;"/>
<polyline points="486.38,267.79 486.38,194.77 514.20,194.77" style="stroke-width: 0.37;stroke-linecap: butt;"/>
<polyline points="467.84,484.34 467.84,292.07 486.38,292.07" style="stroke-width: 0.37;stroke-linecap: butt;"/>
<polyline points="504.93,513.41 504.93,292.07 486.38,292.07" style="stroke-width: 0.37;stroke-linecap: butt;"/>
<polyline points="542.01,484.34 542.01,194.77 514.20,194.77" style="stroke-width: 0.37;stroke-linecap: butt;"/>
<polygon points="327.42,61.22 327.42,54.67 405.43,54.67 405.43,61.22 327.42,61.22" style="stroke-width: 0.37;stroke: #FFFFFF;fill: #FFFFFF;" />
<polygon points="212.92,158.52 212.92,151.97 307.84,151.97 307.84,158.52 212.92,158.52" style="stroke-width: 0.37;stroke: #FFFFFF;fill: #FFFFFF;" />
<polygon points="135.27,226.75 135.27,220.20 230.18,220.20 230.18,226.75 135.27,226.75" style="stroke-width: 0.37;stroke: #FFFFFF;fill: #FFFFFF;" />
<polygon points="93.65,294.98 93.65,288.42 183.72,288.42 183.72,294.98 93.65,294.98" style="stroke-width: 0.37;stroke: #FFFFFF;fill: #FFFFFF;" />
<polygon points="58.78,363.21 58.78,356.65 153.69,356.65 153.69,363.21 58.78,363.21" style="stroke-width: 0.37;stroke: #FFFFFF;fill: #FFFFFF;" />
<polygon points="35.43,431.44 35.43,424.88 121.40,424.88 121.40,431.44 35.43,431.44" style="stroke-width: 0.37;stroke: #FFFFFF;fill: #FFFFFF;" />
<polygon points="186.32,265.91 186.32,259.36 267.22,259.36 267.22,265.91 186.32,265.91" style="stroke-width: 0.37;stroke: #FFFFFF;fill: #FFFFFF;" />
<polygon points="294.07,197.68 294.07,191.13 381.99,191.13 381.99,197.68 294.07,197.68" style="stroke-width: 0.37;stroke: #FFFFFF;fill: #FFFFFF;" />
<polygon points="247.09,294.98 247.09,288.42 354.79,288.42 354.79,294.98 247.09,294.98" style="stroke-width: 0.37;stroke: #FFFFFF;fill: #FFFFFF;" />
<polygon points="333.58,265.91 333.58,259.36 416.66,259.36 416.66,265.91 333.58,265.91" style="stroke-width: 0.37;stroke: #FFFFFF;fill: #FFFFFF;" />
<polygon points="420.07,129.45 420.07,122.90 524.88,122.90 524.88,129.45 420.07,129.45" style="stroke-width: 0.37;stroke: #FFFFFF;fill: #FFFFFF;" />
<polygon points="475.19,197.68 475.19,191.13 553.21,191.13 553.21,197.68 475.19,197.68" style="stroke-width: 0.37;stroke: #FFFFFF;fill: #FFFFFF;" />
<polygon points="450.76,294.98 450.76,288.42 522.00,288.42 522.00,294.98 450.76,294.98" style="stroke-width: 0.37;stroke: #FFFFFF;fill: #FFFFFF;" />
<g><text x="366.43" y="59.80" text-anchor="middle" style="font-family: Arial;font-size: 5.85px;font-weight: bold;" textLength="51.55px" lengthAdjust="spacingAndGlyphs">slope_tax25 &lt; 0.47</text></g>
<g><text x="260.38" y="157.33" text-anchor="middle" style="font-family: Arial;font-size: 5.85px;font-weight: bold;" textLength="62.93px" lengthAdjust="spacingAndGlyphs">curvature_tax22 &lt; 0.12</text></g>
<g><text x="182.73" y="225.56" text-anchor="middle" style="font-family: Arial;font-size: 5.85px;font-weight: bold;" textLength="62.93px" lengthAdjust="spacingAndGlyphs">curvature_tax43 &lt; 0.89</text></g>
<g><text x="138.68" y="293.78" text-anchor="middle" style="font-family: Arial;font-size: 5.85px;font-weight: bold;" textLength="59.67px" lengthAdjust="spacingAndGlyphs">curvature_tax53 &lt; 1.2</text></g>
<g><text x="106.23" y="362.01" text-anchor="middle" style="font-family: Arial;font-size: 5.85px;font-weight: bold;" textLength="62.93px" lengthAdjust="spacingAndGlyphs">curvature_tax118 &lt; 2.3</text></g>
<g><text x="78.42" y="430.01" text-anchor="middle" style="font-family: Arial;font-size: 5.85px;font-weight: bold;" textLength="56.91px" lengthAdjust="spacingAndGlyphs">slope_tax136 &gt;= -1.2</text></g>
<g><text x="226.77" y="264.49" text-anchor="middle" style="font-family: Arial;font-size: 5.85px;font-weight: bold;" textLength="53.50px" lengthAdjust="spacingAndGlyphs">slope_tax22 &lt; -0.62</text></g>
<g><text x="338.03" y="196.26" text-anchor="middle" style="font-family: Arial;font-size: 5.85px;font-weight: bold;" textLength="58.22px" lengthAdjust="spacingAndGlyphs">slope_tax108 &gt;= 0.26</text></g>
<g><text x="300.94" y="293.79" text-anchor="middle" style="font-family: Arial;font-size: 5.85px;font-weight: bold;" textLength="71.54px" lengthAdjust="spacingAndGlyphs">curvature_tax106 &gt;= -0.58</text></g>
<g><text x="375.12" y="264.49" text-anchor="middle" style="font-family: Arial;font-size: 5.85px;font-weight: bold;" textLength="54.96px" lengthAdjust="spacingAndGlyphs">slope_tax128 &gt;= 1.1</text></g>
<g><text x="472.47" y="128.27" text-anchor="middle" style="font-family: Arial;font-size: 5.85px;font-weight: bold;" textLength="69.60px" lengthAdjust="spacingAndGlyphs">curvature_tax123 &gt;= 0.96</text></g>
<g><text x="514.20" y="196.26" text-anchor="middle" style="font-family: Arial;font-size: 5.85px;font-weight: bold;" textLength="51.55px" lengthAdjust="spacingAndGlyphs">slope_tax116 &lt; 0.7</text></g>
<g><text x="486.38" y="293.56" text-anchor="middle" style="font-family: Arial;font-size: 5.85px;font-weight: bold;" textLength="46.99px" lengthAdjust="spacingAndGlyphs">slope_tax2 &lt; -0.8</text></g>
<polygon points="348.82,37.67 348.95,36.73 349.34,35.85 349.94,35.10 350.74,34.52 351.66,34.16 352.65,34.03 380.20,34.03 381.19,34.16 382.12,34.52 382.91,35.10 383.52,35.85 383.90,36.73 384.03,37.67 384.03,49.83 383.90,50.77 383.52,51.64 382.91,52.40 382.12,52.97 381.19,53.34 380.20,53.46 352.65,53.46 351.66,53.34 350.74,52.97 349.94,52.40 349.34,51.64 348.95,50.77 348.82,49.83" style="stroke-width: 0.37;fill: #E5F5E0;" />
<polygon points="241.81,134.97 241.94,134.03 242.33,133.15 242.93,132.40 243.73,131.82 244.65,131.46 245.64,131.33 275.12,131.33 276.11,131.46 277.03,131.82 277.82,132.40 278.43,133.15 278.81,134.03 278.94,134.97 278.94,147.12 278.81,148.07 278.43,148.94 277.82,149.70 277.03,150.27 276.11,150.64 275.12,150.76 245.64,150.76 244.65,150.64 243.73,150.27 242.93,149.70 242.33,148.94 241.94,148.07 241.81,147.12" style="stroke-width: 0.37;fill: #DEEBF7;" />
<polygon points="164.16,203.20 164.29,202.25 164.67,201.38 165.28,200.63 166.07,200.05 167.00,199.68 167.99,199.56 197.47,199.56 198.46,199.68 199.38,200.05 200.17,200.63 200.78,201.38 201.16,202.25 201.29,203.20 201.29,215.35 201.16,216.29 200.78,217.17 200.17,217.92 199.38,218.50 198.46,218.86 197.47,218.99 167.99,218.99 167.00,218.86 166.07,218.50 165.28,217.92 164.67,217.17 164.29,216.29 164.16,215.35" style="stroke-width: 0.37;fill: #C6DBEF;" />
<polygon points="120.12,271.42 120.25,270.48 120.63,269.61 121.24,268.85 122.03,268.28 122.95,267.91 123.94,267.79 153.43,267.79 154.42,267.91 155.34,268.28 156.13,268.85 156.74,269.61 157.12,270.48 157.25,271.42 157.25,283.58 157.12,284.52 156.74,285.40 156.13,286.15 155.34,286.73 154.42,287.09 153.43,287.22 123.94,287.22 122.95,287.09 122.03,286.73 121.24,286.15 120.63,285.40 120.25,284.52 120.12,283.58" style="stroke-width: 0.37;fill: #B2D2E8;" />
<polygon points="87.67,339.65 87.80,338.71 88.18,337.84 88.79,337.08 89.58,336.51 90.50,336.14 91.49,336.02 120.97,336.02 121.96,336.14 122.89,336.51 123.68,337.08 124.29,337.84 124.67,338.71 124.80,339.65 124.80,351.81 124.67,352.75 124.29,353.63 123.68,354.38 122.89,354.96 121.96,355.32 120.97,355.45 91.49,355.45 90.50,355.32 89.58,354.96 88.79,354.38 88.18,353.63 87.80,352.75 87.67,351.81" style="stroke-width: 0.37;fill: #84BCDB;" />
<polygon points="59.85,407.88 59.98,406.94 60.36,406.06 60.97,405.31 61.76,404.73 62.69,404.37 63.68,404.25 93.16,404.25 94.15,404.37 95.07,404.73 95.86,405.31 96.47,406.06 96.85,406.94 96.98,407.88 96.98,420.04 96.85,420.98 96.47,421.86 95.86,422.61 95.07,423.19 94.15,423.55 93.16,423.68 63.68,423.68 62.69,423.55 61.76,423.19 60.97,422.61 60.36,421.86 59.98,420.98 59.85,420.04" style="stroke-width: 0.37;fill: #84BCDB;" />
<polygon points="41.31,517.05 41.44,516.11 41.82,515.23 42.43,514.48 43.22,513.90 44.14,513.54 45.13,513.41 74.61,513.41 75.60,513.54 76.53,513.90 77.32,514.48 77.93,515.23 78.31,516.11 78.44,517.05 78.44,529.21 78.31,530.15 77.93,531.02 77.32,531.78 76.53,532.35 75.60,532.72 74.61,532.84 45.13,532.84 44.14,532.72 43.22,532.35 42.43,531.78 41.82,531.02 41.44,530.15 41.31,529.21" style="stroke-width: 0.37;fill: #6BAED6;" />
<polygon points="79.36,487.98 79.49,487.04 79.87,486.16 80.48,485.41 81.27,484.83 82.19,484.47 83.18,484.34 110.74,484.34 111.73,484.47 112.65,484.83 113.44,485.41 114.05,486.16 114.43,487.04 114.56,487.98 114.56,500.14 114.43,501.08 114.05,501.96 113.44,502.71 112.65,503.29 111.73,503.65 110.74,503.77 83.18,503.77 82.19,503.65 81.27,503.29 80.48,502.71 79.87,501.96 79.49,501.08 79.36,500.14" style="stroke-width: 0.37;fill: #D6EFD0;" />
<polygon points="116.45,517.05 116.58,516.11 116.96,515.23 117.57,514.48 118.36,513.90 119.28,513.54 120.27,513.41 147.83,513.41 148.82,513.54 149.74,513.90 150.53,514.48 151.14,515.23 151.52,516.11 151.65,517.05 151.65,529.21 151.52,530.15 151.14,531.02 150.53,531.78 149.74,532.35 148.82,532.72 147.83,532.84 120.27,532.84 119.28,532.72 118.36,532.35 117.57,531.78 116.96,531.02 116.58,530.15 116.45,529.21" style="stroke-width: 0.37;fill: #B4E1AD;" />
<polygon points="153.53,487.98 153.66,487.04 154.05,486.16 154.65,485.41 155.45,484.83 156.37,484.47 157.36,484.34 184.91,484.34 185.90,484.47 186.83,484.83 187.62,485.41 188.23,486.16 188.61,487.04 188.74,487.98 188.74,500.14 188.61,501.08 188.23,501.96 187.62,502.71 186.83,503.29 185.90,503.65 184.91,503.77 157.36,503.77 156.37,503.65 155.45,503.29 154.65,502.71 154.05,501.96 153.66,501.08 153.53,500.14" style="stroke-width: 0.37;fill: #74C476;" />
<polygon points="209.17,242.36 209.30,241.41 209.68,240.54 210.29,239.79 211.08,239.21 212.00,238.84 212.99,238.72 240.55,238.72 241.54,238.84 242.46,239.21 243.25,239.79 243.86,240.54 244.24,241.41 244.37,242.36 244.37,254.51 244.24,255.45 243.86,256.33 243.25,257.08 242.46,257.66 241.54,258.02 240.55,258.15 212.99,258.15 212.00,258.02 211.08,257.66 210.29,257.08 209.68,256.33 209.30,255.45 209.17,254.51" style="stroke-width: 0.37;fill: #E5F5E0;" />
<polygon points="189.66,517.05 189.79,516.11 190.17,515.23 190.78,514.48 191.57,513.90 192.49,513.54 193.48,513.41 222.96,513.41 223.95,513.54 224.88,513.90 225.67,514.48 226.28,515.23 226.66,516.11 226.79,517.05 226.79,529.21 226.66,530.15 226.28,531.02 225.67,531.78 224.88,532.35 223.95,532.72 222.96,532.84 193.48,532.84 192.49,532.72 191.57,532.35 190.78,531.78 190.17,531.02 189.79,530.15 189.66,529.21" style="stroke-width: 0.37;fill: #D2E3F3;" />
<polygon points="227.71,487.98 227.84,487.04 228.22,486.16 228.83,485.41 229.62,484.83 230.54,484.47 231.53,484.34 259.09,484.34 260.08,484.47 261.00,484.83 261.79,485.41 262.40,486.16 262.78,487.04 262.91,487.98 262.91,500.14 262.78,501.08 262.40,501.96 261.79,502.71 261.00,503.29 260.08,503.65 259.09,503.77 231.53,503.77 230.54,503.65 229.62,503.29 228.83,502.71 228.22,501.96 227.84,501.08 227.71,500.14" style="stroke-width: 0.37;fill: #A1D99B;" />
<polygon points="320.43,174.13 320.56,173.19 320.94,172.31 321.55,171.56 322.34,170.98 323.26,170.62 324.25,170.49 351.81,170.49 352.80,170.62 353.72,170.98 354.51,171.56 355.12,172.31 355.50,173.19 355.63,174.13 355.63,186.28 355.50,187.23 355.12,188.10 354.51,188.86 353.72,189.43 352.80,189.80 351.81,189.92 324.25,189.92 323.26,189.80 322.34,189.43 321.55,188.86 320.94,188.10 320.56,187.23 320.43,186.28" style="stroke-width: 0.37;fill: #E5F5E0;" />
<polygon points="282.38,271.42 282.51,270.48 282.89,269.61 283.50,268.85 284.29,268.28 285.21,267.91 286.20,267.79 315.68,267.79 316.67,267.91 317.60,268.28 318.39,268.85 319.00,269.61 319.38,270.48 319.51,271.42 319.51,283.58 319.38,284.52 319.00,285.40 318.39,286.15 317.60,286.73 316.67,287.09 315.68,287.22 286.20,287.22 285.21,287.09 284.29,286.73 283.50,286.15 282.89,285.40 282.51,284.52 282.38,283.58" style="stroke-width: 0.37;fill: #D2E3F3;" />
<polygon points="263.83,517.05 263.97,516.11 264.35,515.23 264.95,514.48 265.75,513.90 266.67,513.54 267.66,513.41 297.14,513.41 298.13,513.54 299.05,513.90 299.84,514.48 300.45,515.23 300.83,516.11 300.96,517.05 300.96,529.21 300.83,530.15 300.45,531.02 299.84,531.78 299.05,532.35 298.13,532.72 297.14,532.84 267.66,532.84 266.67,532.72 265.75,532.35 264.95,531.78 264.35,531.02 263.97,530.15 263.83,529.21" style="stroke-width: 0.37;fill: #9ECAE1;" />
<polygon points="301.89,487.98 302.02,487.04 302.40,486.16 303.01,485.41 303.80,484.83 304.72,484.47 305.71,484.34 333.27,484.34 334.26,484.47 335.18,484.83 335.97,485.41 336.58,486.16 336.96,487.04 337.09,487.98 337.09,500.14 336.96,501.08 336.58,501.96 335.97,502.71 335.18,503.29 334.26,503.65 333.27,503.77 305.71,503.77 304.72,503.65 303.80,503.29 303.01,502.71 302.40,501.96 302.02,501.08 301.89,500.14" style="stroke-width: 0.37;fill: #8ACE88;" />
<polygon points="357.52,242.36 357.65,241.41 358.03,240.54 358.64,239.79 359.43,239.21 360.35,238.84 361.34,238.72 388.90,238.72 389.89,238.84 390.81,239.21 391.60,239.79 392.21,240.54 392.59,241.41 392.72,242.36 392.72,254.51 392.59,255.45 392.21,256.33 391.60,257.08 390.81,257.66 389.89,258.02 388.90,258.15 361.34,258.15 360.35,258.02 359.43,257.66 358.64,257.08 358.03,256.33 357.65,255.45 357.52,254.51" style="stroke-width: 0.37;fill: #A1D99B;" />
<polygon points="338.01,517.05 338.14,516.11 338.52,515.23 339.13,514.48 339.92,513.90 340.84,513.54 341.83,513.41 371.32,513.41 372.31,513.54 373.23,513.90 374.02,514.48 374.63,515.23 375.01,516.11 375.14,517.05 375.14,529.21 375.01,530.15 374.63,531.02 374.02,531.78 373.23,532.35 372.31,532.72 371.32,532.84 341.83,532.84 340.84,532.72 339.92,532.35 339.13,531.78 338.52,531.02 338.14,530.15 338.01,529.21" style="stroke-width: 0.37;fill: #B2D2E8;" />
<polygon points="376.06,487.98 376.19,487.04 376.57,486.16 377.18,485.41 377.97,484.83 378.90,484.47 379.89,484.34 407.44,484.34 408.43,484.47 409.35,484.83 410.15,485.41 410.75,486.16 411.14,487.04 411.27,487.98 411.27,500.14 411.14,501.08 410.75,501.96 410.15,502.71 409.35,503.29 408.43,503.65 407.44,503.77 379.89,503.77 378.90,503.65 377.97,503.29 377.18,502.71 376.57,501.96 376.19,501.08 376.06,500.14" style="stroke-width: 0.37;fill: #8ACE88;" />
<polygon points="454.87,105.90 455.00,104.96 455.38,104.08 455.99,103.33 456.78,102.75 457.71,102.39 458.70,102.26 486.25,102.26 487.24,102.39 488.17,102.75 488.96,103.33 489.56,104.08 489.95,104.96 490.08,105.90 490.08,118.06 489.95,119.00 489.56,119.87 488.96,120.63 488.17,121.20 487.24,121.57 486.25,121.69 458.70,121.69 457.71,121.57 456.78,121.20 455.99,120.63 455.38,119.87 455.00,119.00 454.87,118.06" style="stroke-width: 0.37;fill: #C7E9C0;" />
<polygon points="412.19,517.05 412.32,516.11 412.70,515.23 413.31,514.48 414.10,513.90 415.02,513.54 416.01,513.41 445.49,513.41 446.48,513.54 447.40,513.90 448.20,514.48 448.80,515.23 449.19,516.11 449.32,517.05 449.32,529.21 449.19,530.15 448.80,531.02 448.20,531.78 447.40,532.35 446.48,532.72 445.49,532.84 416.01,532.84 415.02,532.72 414.10,532.35 413.31,531.78 412.70,531.02 412.32,530.15 412.19,529.21" style="stroke-width: 0.37;fill: #6BAED6;" />
<polygon points="496.60,174.13 496.73,173.19 497.11,172.31 497.72,171.56 498.51,170.98 499.43,170.62 500.42,170.49 527.98,170.49 528.97,170.62 529.89,170.98 530.68,171.56 531.29,172.31 531.67,173.19 531.80,174.13 531.80,186.28 531.67,187.23 531.29,188.10 530.68,188.86 529.89,189.43 528.97,189.80 527.98,189.92 500.42,189.92 499.43,189.80 498.51,189.43 497.72,188.86 497.11,188.10 496.73,187.23 496.60,186.28" style="stroke-width: 0.37;fill: #B4E1AD;" />
<polygon points="468.78,271.42 468.91,270.48 469.29,269.61 469.90,268.85 470.69,268.28 471.61,267.91 472.60,267.79 500.16,267.79 501.15,267.91 502.07,268.28 502.87,268.85 503.47,269.61 503.85,270.48 503.99,271.42 503.99,283.58 503.85,284.52 503.47,285.40 502.87,286.15 502.07,286.73 501.15,287.09 500.16,287.22 472.60,287.22 471.61,287.09 470.69,286.73 469.90,286.15 469.29,285.40 468.91,284.52 468.78,283.58" style="stroke-width: 0.37;fill: #D6EFD0;" />
<polygon points="449.27,487.98 449.40,487.04 449.79,486.16 450.39,485.41 451.19,484.83 452.11,484.47 453.10,484.34 482.58,484.34 483.57,484.47 484.49,484.83 485.28,485.41 485.89,486.16 486.27,487.04 486.40,487.98 486.40,500.14 486.27,501.08 485.89,501.96 485.28,502.71 484.49,503.29 483.57,503.65 482.58,503.77 453.10,503.77 452.11,503.65 451.19,503.29 450.39,502.71 449.79,501.96 449.40,501.08 449.27,500.14" style="stroke-width: 0.37;fill: #DEEBF7;" />
<polygon points="487.32,517.05 487.45,516.11 487.84,515.23 488.44,514.48 489.24,513.90 490.16,513.54 491.15,513.41 518.70,513.41 519.69,513.54 520.62,513.90 521.41,514.48 522.02,515.23 522.40,516.11 522.53,517.05 522.53,529.21 522.40,530.15 522.02,531.02 521.41,531.78 520.62,532.35 519.69,532.72 518.70,532.84 491.15,532.84 490.16,532.72 489.24,532.35 488.44,531.78 487.84,531.02 487.45,530.15 487.32,529.21" style="stroke-width: 0.37;fill: #C7E9C0;" />
<polygon points="524.41,487.98 524.54,487.04 524.92,486.16 525.53,485.41 526.32,484.83 527.25,484.47 528.24,484.34 555.79,484.34 556.78,484.47 557.70,484.83 558.50,485.41 559.10,486.16 559.49,487.04 559.62,487.98 559.62,500.14 559.49,501.08 559.10,501.96 558.50,502.71 557.70,503.29 556.78,503.65 555.79,503.77 528.24,503.77 527.25,503.65 526.32,503.29 525.53,502.71 524.92,501.96 524.54,501.08 524.41,500.14" style="stroke-width: 0.37;fill: #74C476;" />
<g><text x="366.43" y="38.83" text-anchor="middle" style="font-family: Arial;font-size: 5.85px;" textLength="18.84px" lengthAdjust="spacingAndGlyphs">healthy</text></g>
<g><text x="366.43" y="45.85" text-anchor="middle" style="font-family: Arial;font-size: 5.85px;" textLength="11.37px" lengthAdjust="spacingAndGlyphs">0.52</text></g>
<g><text x="366.43" y="52.87" text-anchor="middle" style="font-family: Arial;font-size: 5.85px;" textLength="14.94px" lengthAdjust="spacingAndGlyphs">100%</text></g>
<g><text x="260.38" y="136.12" text-anchor="middle" style="font-family: Arial;font-size: 5.85px;" textLength="20.13px" lengthAdjust="spacingAndGlyphs">disease</text></g>
<g><text x="260.38" y="143.14" text-anchor="middle" style="font-family: Arial;font-size: 5.85px;" textLength="11.37px" lengthAdjust="spacingAndGlyphs">0.40</text></g>
<g><text x="260.38" y="150.16" text-anchor="middle" style="font-family: Arial;font-size: 5.85px;" textLength="11.69px" lengthAdjust="spacingAndGlyphs">70%</text></g>
<g><text x="182.73" y="204.35" text-anchor="middle" style="font-family: Arial;font-size: 5.85px;" textLength="20.13px" lengthAdjust="spacingAndGlyphs">disease</text></g>
<g><text x="182.73" y="211.37" text-anchor="middle" style="font-family: Arial;font-size: 5.85px;" textLength="11.37px" lengthAdjust="spacingAndGlyphs">0.26</text></g>
<g><text x="182.73" y="218.39" text-anchor="middle" style="font-family: Arial;font-size: 5.85px;" textLength="11.69px" lengthAdjust="spacingAndGlyphs">47%</text></g>
<g><text x="138.68" y="272.58" text-anchor="middle" style="font-family: Arial;font-size: 5.85px;" textLength="20.13px" lengthAdjust="spacingAndGlyphs">disease</text></g>
<g><text x="138.68" y="279.60" text-anchor="middle" style="font-family: Arial;font-size: 5.85px;" textLength="11.37px" lengthAdjust="spacingAndGlyphs">0.20</text></g>
<g><text x="138.68" y="286.62" text-anchor="middle" style="font-family: Arial;font-size: 5.85px;" textLength="11.69px" lengthAdjust="spacingAndGlyphs">41%</text></g>
<g><text x="106.23" y="340.81" text-anchor="middle" style="font-family: Arial;font-size: 5.85px;" textLength="20.13px" lengthAdjust="spacingAndGlyphs">disease</text></g>
<g><text x="106.23" y="347.83" text-anchor="middle" style="font-family: Arial;font-size: 5.85px;" textLength="11.37px" lengthAdjust="spacingAndGlyphs">0.17</text></g>
<g><text x="106.23" y="354.85" text-anchor="middle" style="font-family: Arial;font-size: 5.85px;" textLength="11.69px" lengthAdjust="spacingAndGlyphs">40%</text></g>
<g><text x="78.42" y="409.04" text-anchor="middle" style="font-family: Arial;font-size: 5.85px;" textLength="20.13px" lengthAdjust="spacingAndGlyphs">disease</text></g>
<g><text x="78.42" y="416.06" text-anchor="middle" style="font-family: Arial;font-size: 5.85px;" textLength="11.37px" lengthAdjust="spacingAndGlyphs">0.15</text></g>
<g><text x="78.42" y="423.08" text-anchor="middle" style="font-family: Arial;font-size: 5.85px;" textLength="11.69px" lengthAdjust="spacingAndGlyphs">38%</text></g>
<g><text x="59.87" y="518.21" text-anchor="middle" style="font-family: Arial;font-size: 5.85px;" textLength="20.13px" lengthAdjust="spacingAndGlyphs">disease</text></g>
<g><text x="59.87" y="525.23" text-anchor="middle" style="font-family: Arial;font-size: 5.85px;" textLength="11.37px" lengthAdjust="spacingAndGlyphs">0.12</text></g>
<g><text x="59.87" y="532.25" text-anchor="middle" style="font-family: Arial;font-size: 5.85px;" textLength="11.69px" lengthAdjust="spacingAndGlyphs">37%</text></g>
<g><text x="96.96" y="489.14" text-anchor="middle" style="font-family: Arial;font-size: 5.85px;" textLength="18.84px" lengthAdjust="spacingAndGlyphs">healthy</text></g>
<g><text x="96.96" y="496.16" text-anchor="middle" style="font-family: Arial;font-size: 5.85px;" textLength="11.37px" lengthAdjust="spacingAndGlyphs">0.71</text></g>
<g><text x="96.96" y="503.18" text-anchor="middle" style="font-family: Arial;font-size: 5.85px;" textLength="8.45px" lengthAdjust="spacingAndGlyphs">1%</text></g>
<g><text x="134.05" y="518.21" text-anchor="middle" style="font-family: Arial;font-size: 5.85px;" textLength="18.84px" lengthAdjust="spacingAndGlyphs">healthy</text></g>
<g><text x="134.05" y="525.23" text-anchor="middle" style="font-family: Arial;font-size: 5.85px;" textLength="11.37px" lengthAdjust="spacingAndGlyphs">0.86</text></g>
<g><text x="134.05" y="532.25" text-anchor="middle" style="font-family: Arial;font-size: 5.85px;" textLength="8.45px" lengthAdjust="spacingAndGlyphs">1%</text></g>
<g><text x="171.14" y="489.14" text-anchor="middle" style="font-family: Arial;font-size: 5.85px;" textLength="18.84px" lengthAdjust="spacingAndGlyphs">healthy</text></g>
<g><text x="171.14" y="496.16" text-anchor="middle" style="font-family: Arial;font-size: 5.85px;" textLength="11.37px" lengthAdjust="spacingAndGlyphs">1.00</text></g>
<g><text x="171.14" y="503.18" text-anchor="middle" style="font-family: Arial;font-size: 5.85px;" textLength="8.45px" lengthAdjust="spacingAndGlyphs">1%</text></g>
<g><text x="226.77" y="243.51" text-anchor="middle" style="font-family: Arial;font-size: 5.85px;" textLength="18.84px" lengthAdjust="spacingAndGlyphs">healthy</text></g>
<g><text x="226.77" y="250.53" text-anchor="middle" style="font-family: Arial;font-size: 5.85px;" textLength="11.37px" lengthAdjust="spacingAndGlyphs">0.66</text></g>
<g><text x="226.77" y="257.55" text-anchor="middle" style="font-family: Arial;font-size: 5.85px;" textLength="8.45px" lengthAdjust="spacingAndGlyphs">6%</text></g>
<g><text x="208.22" y="518.21" text-anchor="middle" style="font-family: Arial;font-size: 5.85px;" textLength="20.13px" lengthAdjust="spacingAndGlyphs">disease</text></g>
<g><text x="208.22" y="525.23" text-anchor="middle" style="font-family: Arial;font-size: 5.85px;" textLength="11.37px" lengthAdjust="spacingAndGlyphs">0.27</text></g>
<g><text x="208.22" y="532.25" text-anchor="middle" style="font-family: Arial;font-size: 5.85px;" textLength="8.45px" lengthAdjust="spacingAndGlyphs">2%</text></g>
<g><text x="245.31" y="489.14" text-anchor="middle" style="font-family: Arial;font-size: 5.85px;" textLength="18.84px" lengthAdjust="spacingAndGlyphs">healthy</text></g>
<g><text x="245.31" y="496.16" text-anchor="middle" style="font-family: Arial;font-size: 5.85px;" textLength="11.37px" lengthAdjust="spacingAndGlyphs">0.86</text></g>
<g><text x="245.31" y="503.18" text-anchor="middle" style="font-family: Arial;font-size: 5.85px;" textLength="8.45px" lengthAdjust="spacingAndGlyphs">4%</text></g>
<g><text x="338.03" y="175.28" text-anchor="middle" style="font-family: Arial;font-size: 5.85px;" textLength="18.84px" lengthAdjust="spacingAndGlyphs">healthy</text></g>
<g><text x="338.03" y="182.30" text-anchor="middle" style="font-family: Arial;font-size: 5.85px;" textLength="11.37px" lengthAdjust="spacingAndGlyphs">0.68</text></g>
<g><text x="338.03" y="189.32" text-anchor="middle" style="font-family: Arial;font-size: 5.85px;" textLength="11.69px" lengthAdjust="spacingAndGlyphs">23%</text></g>
<g><text x="300.94" y="272.58" text-anchor="middle" style="font-family: Arial;font-size: 5.85px;" textLength="20.13px" lengthAdjust="spacingAndGlyphs">disease</text></g>
<g><text x="300.94" y="279.60" text-anchor="middle" style="font-family: Arial;font-size: 5.85px;" textLength="11.37px" lengthAdjust="spacingAndGlyphs">0.34</text></g>
<g><text x="300.94" y="286.62" text-anchor="middle" style="font-family: Arial;font-size: 5.85px;" textLength="8.45px" lengthAdjust="spacingAndGlyphs">8%</text></g>
<g><text x="282.40" y="518.21" text-anchor="middle" style="font-family: Arial;font-size: 5.85px;" textLength="20.13px" lengthAdjust="spacingAndGlyphs">disease</text></g>
<g><text x="282.40" y="525.23" text-anchor="middle" style="font-family: Arial;font-size: 5.85px;" textLength="11.37px" lengthAdjust="spacingAndGlyphs">0.19</text></g>
<g><text x="282.40" y="532.25" text-anchor="middle" style="font-family: Arial;font-size: 5.85px;" textLength="8.45px" lengthAdjust="spacingAndGlyphs">6%</text></g>
<g><text x="319.49" y="489.14" text-anchor="middle" style="font-family: Arial;font-size: 5.85px;" textLength="18.84px" lengthAdjust="spacingAndGlyphs">healthy</text></g>
<g><text x="319.49" y="496.16" text-anchor="middle" style="font-family: Arial;font-size: 5.85px;" textLength="11.37px" lengthAdjust="spacingAndGlyphs">0.89</text></g>
<g><text x="319.49" y="503.18" text-anchor="middle" style="font-family: Arial;font-size: 5.85px;" textLength="8.45px" lengthAdjust="spacingAndGlyphs">2%</text></g>
<g><text x="375.12" y="243.51" text-anchor="middle" style="font-family: Arial;font-size: 5.85px;" textLength="18.84px" lengthAdjust="spacingAndGlyphs">healthy</text></g>
<g><text x="375.12" y="250.53" text-anchor="middle" style="font-family: Arial;font-size: 5.85px;" textLength="11.37px" lengthAdjust="spacingAndGlyphs">0.86</text></g>
<g><text x="375.12" y="257.55" text-anchor="middle" style="font-family: Arial;font-size: 5.85px;" textLength="11.69px" lengthAdjust="spacingAndGlyphs">15%</text></g>
<g><text x="356.58" y="518.21" text-anchor="middle" style="font-family: Arial;font-size: 5.85px;" textLength="20.13px" lengthAdjust="spacingAndGlyphs">disease</text></g>
<g><text x="356.58" y="525.23" text-anchor="middle" style="font-family: Arial;font-size: 5.85px;" textLength="11.37px" lengthAdjust="spacingAndGlyphs">0.25</text></g>
<g><text x="356.58" y="532.25" text-anchor="middle" style="font-family: Arial;font-size: 5.85px;" textLength="8.45px" lengthAdjust="spacingAndGlyphs">2%</text></g>
<g><text x="393.66" y="489.14" text-anchor="middle" style="font-family: Arial;font-size: 5.85px;" textLength="18.84px" lengthAdjust="spacingAndGlyphs">healthy</text></g>
<g><text x="393.66" y="496.16" text-anchor="middle" style="font-family: Arial;font-size: 5.85px;" textLength="11.37px" lengthAdjust="spacingAndGlyphs">0.94</text></g>
<g><text x="393.66" y="503.18" text-anchor="middle" style="font-family: Arial;font-size: 5.85px;" textLength="11.69px" lengthAdjust="spacingAndGlyphs">13%</text></g>
<g><text x="472.47" y="107.06" text-anchor="middle" style="font-family: Arial;font-size: 5.85px;" textLength="18.84px" lengthAdjust="spacingAndGlyphs">healthy</text></g>
<g><text x="472.47" y="114.08" text-anchor="middle" style="font-family: Arial;font-size: 5.85px;" textLength="11.37px" lengthAdjust="spacingAndGlyphs">0.80</text></g>
<g><text x="472.47" y="121.10" text-anchor="middle" style="font-family: Arial;font-size: 5.85px;" textLength="11.69px" lengthAdjust="spacingAndGlyphs">30%</text></g>
<g><text x="430.75" y="518.21" text-anchor="middle" style="font-family: Arial;font-size: 5.85px;" textLength="20.13px" lengthAdjust="spacingAndGlyphs">disease</text></g>
<g><text x="430.75" y="525.23" text-anchor="middle" style="font-family: Arial;font-size: 5.85px;" textLength="11.37px" lengthAdjust="spacingAndGlyphs">0.00</text></g>
<g><text x="430.75" y="532.25" text-anchor="middle" style="font-family: Arial;font-size: 5.85px;" textLength="8.45px" lengthAdjust="spacingAndGlyphs">1%</text></g>
<g><text x="514.20" y="175.28" text-anchor="middle" style="font-family: Arial;font-size: 5.85px;" textLength="18.84px" lengthAdjust="spacingAndGlyphs">healthy</text></g>
<g><text x="514.20" y="182.30" text-anchor="middle" style="font-family: Arial;font-size: 5.85px;" textLength="11.37px" lengthAdjust="spacingAndGlyphs">0.84</text></g>
<g><text x="514.20" y="189.32" text-anchor="middle" style="font-family: Arial;font-size: 5.85px;" textLength="11.69px" lengthAdjust="spacingAndGlyphs">28%</text></g>
<g><text x="486.38" y="272.58" text-anchor="middle" style="font-family: Arial;font-size: 5.85px;" textLength="18.84px" lengthAdjust="spacingAndGlyphs">healthy</text></g>
<g><text x="486.38" y="279.60" text-anchor="middle" style="font-family: Arial;font-size: 5.85px;" textLength="11.37px" lengthAdjust="spacingAndGlyphs">0.70</text></g>
<g><text x="486.38" y="286.62" text-anchor="middle" style="font-family: Arial;font-size: 5.85px;" textLength="11.69px" lengthAdjust="spacingAndGlyphs">12%</text></g>
<g><text x="467.84" y="489.14" text-anchor="middle" style="font-family: Arial;font-size: 5.85px;" textLength="20.13px" lengthAdjust="spacingAndGlyphs">disease</text></g>
<g><text x="467.84" y="496.16" text-anchor="middle" style="font-family: Arial;font-size: 5.85px;" textLength="11.37px" lengthAdjust="spacingAndGlyphs">0.35</text></g>
<g><text x="467.84" y="503.18" text-anchor="middle" style="font-family: Arial;font-size: 5.85px;" textLength="8.45px" lengthAdjust="spacingAndGlyphs">3%</text></g>
<g><text x="504.93" y="518.21" text-anchor="middle" style="font-family: Arial;font-size: 5.85px;" textLength="18.84px" lengthAdjust="spacingAndGlyphs">healthy</text></g>
<g><text x="504.93" y="525.23" text-anchor="middle" style="font-family: Arial;font-size: 5.85px;" textLength="11.37px" lengthAdjust="spacingAndGlyphs">0.84</text></g>
<g><text x="504.93" y="532.25" text-anchor="middle" style="font-family: Arial;font-size: 5.85px;" textLength="8.45px" lengthAdjust="spacingAndGlyphs">9%</text></g>
<g><text x="542.01" y="489.14" text-anchor="middle" style="font-family: Arial;font-size: 5.85px;" textLength="18.84px" lengthAdjust="spacingAndGlyphs">healthy</text></g>
<g><text x="542.01" y="496.16" text-anchor="middle" style="font-family: Arial;font-size: 5.85px;" textLength="11.37px" lengthAdjust="spacingAndGlyphs">0.95</text></g>
<g><text x="542.01" y="503.18" text-anchor="middle" style="font-family: Arial;font-size: 5.85px;" textLength="11.69px" lengthAdjust="spacingAndGlyphs">16%</text></g>
<polygon points="298.93,56.35 298.95,56.18 299.02,56.03 299.13,55.89 299.27,55.79 299.43,55.72 299.61,55.70 322.39,55.70 322.57,55.72 322.73,55.79 322.88,55.89 322.99,56.03 323.05,56.18 323.08,56.35 323.08,60.27 323.05,60.44 322.99,60.59 322.88,60.73 322.73,60.83 322.57,60.90 322.39,60.92 299.61,60.92 299.43,60.90 299.27,60.83 299.13,60.73 299.02,60.59 298.95,60.44 298.93,60.27" style="stroke-width: 0.37;fill: #FFFFFF;" />
<polygon points="409.38,56.35 409.40,56.18 409.47,56.03 409.58,55.89 409.72,55.79 409.89,55.72 410.07,55.70 429.78,55.70 429.96,55.72 430.12,55.79 430.26,55.89 430.37,56.03 430.44,56.18 430.46,56.35 430.46,60.27 430.44,60.44 430.37,60.59 430.26,60.73 430.12,60.83 429.96,60.90 429.78,60.92 410.07,60.92 409.89,60.90 409.72,60.83 409.58,60.73 409.47,60.59 409.40,60.44 409.38,60.27" style="stroke-width: 0.37;fill: #FFFFFF;" />
<g><text x="310.04" y="59.50" text-anchor="middle" style="font-family: Arial;font-size: 4.68px;font-style: italic;" textLength="7.26px" lengthAdjust="spacingAndGlyphs">yes</text></g>
<g><text x="418.87" y="59.52" text-anchor="middle" style="font-family: Arial;font-size: 4.68px;font-style: italic;" textLength="5.20px" lengthAdjust="spacingAndGlyphs">no</text></g>
</g>
</svg>