<svg xmlns="http://www.w3.org/2000/svg" xmlns:xlink="http://www.w3.org/1999/xlink" class="httpgd" width="410.00" height="690.00" viewBox="0 0 328.00 552.00">
<defs>
  <style type='text/css'><![CDATA[
    .httpgd line, .httpgd polyline, .httpgd polygon, .httpgd path, .httpgd rect, .httpgd circle {
      fill: none;
      stroke: #000000;
      stroke-linecap: round;
      stroke-linejoin: round;
      stroke-miterlimit: 10.00;
    }
  ]]></style>
<clipPath id="c0"><rect x="0.00" y="0.00" width="328.00" height="552.00"/></clipPath>
<clipPath id="c1"><rect x="61.18" y="29.26" width="261.34" height="477.69"/></clipPath>
<clipPath id="c2"><rect x="0.00" y="0.00" width="328.00" height="552.00"/></clipPath>
<clipPath id="c3"><rect x="61.18" y="5.48" width="261.34" height="23.78"/></clipPath>
<clipPath id="c4"><rect x="0.00" y="0.00" width="328.00" height="552.00"/></clipPath>
</defs>
<rect width="100%" height="100%" style="stroke: none;fill: #FFFFFF;"/>
<g clip-path="url(#c0)">
<rect x="0.00" y="0.00" width="328.00" height="552.00" style="stroke-width: 1.07;stroke: #FFFFFF;fill: #FFFFFF;"/>
</g><g clip-path="url(#c1)">
<rect x="61.18" y="29.26" width="261.34" height="477.69" style="stroke-width: 1.07;stroke: none;fill: #FFFFFF;"/>
<polyline points="289.04,50.97 310.64,50.97" style="stroke-width: 1.07;stroke: #000000;stroke-opacity: 0.50;stroke-linecap: butt;"/>
<polyline points="299.84,50.97 299.84,254.13" style="stroke-width: 1.07;stroke: #000000;stroke-opacity: 0.50;stroke-linecap: butt;"/>
<polyline points="289.04,254.13 310.64,254.13" style="stroke-width: 1.07;stroke: #000000;stroke-opacity: 0.50;stroke-linecap: butt;"/>
<polyline points="265.05,50.97 286.64,50.97" style="stroke-width: 1.07;stroke: #000000;stroke-opacity: 0.50;stroke-linecap: butt;"/>
<polyline points="275.84,50.97 275.84,254.13" style="stroke-width: 1.07;stroke: #000000;stroke-opacity: 0.50;stroke-linecap: butt;"/>
<polyline points="265.05,254.13 286.64,254.13" style="stroke-width: 1.07;stroke: #000000;stroke-opacity: 0.50;stroke-linecap: butt;"/>
<polyline points="241.05,50.97 262.65,50.97" style="stroke-width: 1.07;stroke: #000000;stroke-opacity: 0.50;stroke-linecap: butt;"/>
<polyline points="251.85,50.97 251.85,254.13" style="stroke-width: 1.07;stroke: #000000;stroke-opacity: 0.50;stroke-linecap: butt;"/>
<polyline points="241.05,254.13 262.65,254.13" style="stroke-width: 1.07;stroke: #000000;stroke-opacity: 0.50;stroke-linecap: butt;"/>
<polyline points="217.05,50.97 238.65,50.97" style="stroke-width: 1.07;stroke: #000000;stroke-opacity: 0.50;stroke-linecap: butt;"/>
<polyline points="227.85,50.97 227.85,254.13" style="stroke-width: 1.07;stroke: #000000;stroke-opacity: 0.50;stroke-linecap: butt;"/>
<polyline points="217.05,254.13 238.65,254.13" style="stroke-width: 1.07;stroke: #000000;stroke-opacity: 0.50;stroke-linecap: butt;"/>
<polyline points="193.05,50.97 214.65,50.97" style="stroke-width: 1.07;stroke: #000000;stroke-opacity: 0.50;stroke-linecap: butt;"/>
<polyline points="203.85,50.97 203.85,254.13" style="stroke-width: 1.07;stroke: #000000;stroke-opacity: 0.50;stroke-linecap: butt;"/>
<polyline points="193.05,254.13 214.65,254.13" style="stroke-width: 1.07;stroke: #000000;stroke-opacity: 0.50;stroke-linecap: butt;"/>
<polyline points="169.05,50.97 190.65,50.97" style="stroke-width: 1.07;stroke: #000000;stroke-opacity: 0.50;stroke-linecap: butt;"/>
<polyline points="179.85,50.97 179.85,254.13" style="stroke-width: 1.07;stroke: #000000;stroke-opacity: 0.50;stroke-linecap: butt;"/>
<polyline points="169.05,254.13 190.65,254.13" style="stroke-width: 1.07;stroke: #000000;stroke-opacity: 0.50;stroke-linecap: butt;"/>
<polyline points="145.06,50.97 166.65,50.97" style="stroke-width: 1.07;stroke: #000000;stroke-opacity: 0.50;stroke-linecap: butt;"/>
<polyline points="155.85,50.97 155.85,254.13" style="stroke-width: 1.07;stroke: #000000;stroke-opacity: 0.50;stroke-linecap: butt;"/>
<polyline points="145.06,254.13 166.65,254.13" style="stroke-width: 1.07;stroke: #000000;stroke-opacity: 0.50;stroke-linecap: butt;"/>
<polyline points="121.06,50.97 142.66,50.97" style="stroke-width: 1.07;stroke: #000000;stroke-opacity: 0.50;stroke-linecap: butt;"/>
<polyline points="131.86,50.97 131.86,254.13" style="stroke-width: 1.07;stroke: #000000;stroke-opacity: 0.50;stroke-linecap: butt;"/>
<polyline points="121.06,254.13 142.66,254.13" style="stroke-width: 1.07;stroke: #000000;stroke-opacity: 0.50;stroke-linecap: butt;"/>
<polyline points="97.06,54.82 118.66,54.82" style="stroke-width: 1.07;stroke: #000000;stroke-opacity: 0.50;stroke-linecap: butt;"/>
<polyline points="107.86,54.82 107.86,250.28" style="stroke-width: 1.07;stroke: #000000;stroke-opacity: 0.50;stroke-linecap: butt;"/>
<polyline points="97.06,250.28 118.66,250.28" style="stroke-width: 1.07;stroke: #000000;stroke-opacity: 0.50;stroke-linecap: butt;"/>
<polyline points="73.06,289.77 94.66,289.77" style="stroke-width: 1.07;stroke: #000000;stroke-opacity: 0.50;stroke-linecap: butt;"/>
<polyline points="83.86,289.77 83.86,485.23" style="stroke-width: 1.07;stroke: #000000;stroke-opacity: 0.50;stroke-linecap: butt;"/>
<polyline points="73.06,485.23 94.66,485.23" style="stroke-width: 1.07;stroke: #000000;stroke-opacity: 0.50;stroke-linecap: butt;"/>
<circle cx="299.84" cy="152.55" r="1.95" style="stroke-width: 0.71;stroke: #545454;fill: #545454;"/>
<circle cx="275.84" cy="152.55" r="1.95" style="stroke-width: 0.71;stroke: #545454;fill: #545454;"/>
<circle cx="251.85" cy="152.55" r="1.95" style="stroke-width: 0.71;stroke: #545454;fill: #545454;"/>
<circle cx="227.85" cy="152.55" r="1.95" style="stroke-width: 0.71;stroke: #545454;fill: #545454;"/>
<circle cx="203.85" cy="152.55" r="1.95" style="stroke-width: 0.71;stroke: #545454;fill: #545454;"/>
<circle cx="179.85" cy="152.55" r="1.95" style="stroke-width: 0.71;stroke: #545454;fill: #545454;"/>
<circle cx="155.85" cy="152.55" r="1.95" style="stroke-width: 0.71;stroke: #545454;fill: #545454;"/>
<circle cx="131.86" cy="152.55" r="1.95" style="stroke-width: 0.71;stroke: #545454;fill: #545454;"/>
<circle cx="107.86" cy="152.55" r="1.95" style="stroke-width: 0.71;stroke: #545454;fill: #545454;"/>
<circle cx="83.86" cy="387.50" r="1.95" style="stroke-width: 0.71;stroke: #545454;fill: #545454;"/>
</g><g clip-path="url(#c3)">
<rect x="61.18" y="5.48" width="261.34" height="23.78" style="stroke-width: 2.13;fill: #FFFFFF;"/>
<g><text x="191.85" y="23.11" text-anchor="middle" style="font-family: Arial;font-size: 16.00px;fill: #1A1A1A;" textLength="64.02px" lengthAdjust="spacingAndGlyphs">accuracy</text></g>
</g><g clip-path="url(#c4)">
<polyline points="61.18,506.95 322.52,506.95" style="stroke-width: 1.07;stroke-linecap: butt;"/>
<polyline points="320.42,509.69 320.42,506.95" style="stroke-width: 1.07;stroke: #333333;stroke-linecap: butt;"/>
<polyline points="268.31,509.69 268.31,506.95" style="stroke-width: 1.07;stroke: #333333;stroke-linecap: butt;"/>
<polyline points="216.20,509.69 216.20,506.95" style="stroke-width: 1.07;stroke: #333333;stroke-linecap: butt;"/>
<polyline points="164.08,509.69 164.08,506.95" style="stroke-width: 1.07;stroke: #333333;stroke-linecap: butt;"/>
<polyline points="111.97,509.69 111.97,506.95" style="stroke-width: 1.07;stroke: #333333;stroke-linecap: butt;"/>
<g><text x="320.42" y="523.35" text-anchor="middle" style="font-family: Arial;font-size: 16.00px;fill: #4D4D4D;" textLength="23.13px" lengthAdjust="spacingAndGlyphs">-25</text></g>
<g><text x="268.31" y="523.35" text-anchor="middle" style="font-family: Arial;font-size: 16.00px;fill: #4D4D4D;" textLength="23.13px" lengthAdjust="spacingAndGlyphs">-20</text></g>
<g><text x="216.20" y="523.35" text-anchor="middle" style="font-family: Arial;font-size: 16.00px;fill: #4D4D4D;" textLength="23.13px" lengthAdjust="spacingAndGlyphs">-15</text></g>
<g><text x="164.08" y="523.35" text-anchor="middle" style="font-family: Arial;font-size: 16.00px;fill: #4D4D4D;" textLength="23.13px" lengthAdjust="spacingAndGlyphs">-10</text></g>
<g><text x="111.97" y="523.35" text-anchor="middle" style="font-family: Arial;font-size: 16.00px;fill: #4D4D4D;" textLength="14.23px" lengthAdjust="spacingAndGlyphs">-5</text></g>
<polyline points="61.18,506.95 61.18,29.26" style="stroke-width: 1.07;stroke-linecap: butt;"/>
<g><text x="56.25" y="442.19" text-anchor="end" style="font-family: Arial;font-size: 16.00px;fill: #4D4D4D;" textLength="31.14px" lengthAdjust="spacingAndGlyphs">0.68</text></g>
<g><text x="56.25" y="344.29" text-anchor="end" style="font-family: Arial;font-size: 16.00px;fill: #4D4D4D;" textLength="31.14px" lengthAdjust="spacingAndGlyphs">0.70</text></g>
<g><text x="56.25" y="246.40" text-anchor="end" style="font-family: Arial;font-size: 16.00px;fill: #4D4D4D;" textLength="31.14px" lengthAdjust="spacingAndGlyphs">0.72</text></g>
<g><text x="56.25" y="148.50" text-anchor="end" style="font-family: Arial;font-size: 16.00px;fill: #4D4D4D;" textLength="31.14px" lengthAdjust="spacingAndGlyphs">0.74</text></g>
<g><text x="56.25" y="50.60" text-anchor="end" style="font-family: Arial;font-size: 16.00px;fill: #4D4D4D;" textLength="31.14px" lengthAdjust="spacingAndGlyphs">0.76</text></g>
<polyline points="58.44,436.45 61.18,436.45" style="stroke-width: 1.07;stroke: #333333;stroke-linecap: butt;"/>
<polyline points="58.44,338.55 61.18,338.55" style="stroke-width: 1.07;stroke: #333333;stroke-linecap: butt;"/>
<polyline points="58.44,240.66 61.18,240.66" style="stroke-width: 1.07;stroke: #333333;stroke-linecap: butt;"/>
<polyline points="58.44,142.76 61.18,142.76" style="stroke-width: 1.07;stroke: #333333;stroke-linecap: butt;"/>
<polyline points="58.44,44.87 61.18,44.87" style="stroke-width: 1.07;stroke: #333333;stroke-linecap: butt;"/>
<g><text x="191.85" y="542.54" text-anchor="middle" style="font-family: Arial;font-size: 18.00px;" textLength="131.03px" lengthAdjust="spacingAndGlyphs">Cost Complexity</text></g>
<g><text transform="translate(18.39,268.10) rotate(-90.00)" text-anchor="middle" style="font-family: Arial;font-size: 18.00px;" textLength="104.02px" lengthAdjust="spacingAndGlyphs">CV Accuracy</text></g>
</g>
</svg>