<?xml version="1.0" encoding="UTF-8"?>
<svg id="Calque_1" xmlns="http://www.w3.org/2000/svg" xmlns:xlink="http://www.w3.org/1999/xlink" version="1.1" viewBox="0 0 1240.7 620.7">
  <!-- Generator: Adobe Illustrator 29.6.1, SVG Export Plug-In . SVG Version: 2.1.1 Build 9)  -->
  <defs>
    <style>
      .st0, .st1, .st2, .st3, .st4 {
        fill: none;
      }

      .st1 {
        stroke: #575757;
      }

      .st1, .st2, .st3, .st5, .st6, .st4 {
        stroke-miterlimit: 10;
      }

      .st1, .st3, .st4 {
        stroke-width: 5px;
      }

      .st2, .st3 {
        stroke: #212121;
      }

      .st2, .st5 {
        stroke-width: 4px;
      }

      .st7 {
        fill: #86b0ad;
      }

      .st5, .st6 {
        fill: #fff;
      }

      .st5, .st6, .st4 {
        stroke: #000;
      }

      .st8 {
        fill: #e2e0e1;
      }

      .st9 {
        fill: #212121;
      }

      .st10 {
        isolation: isolate;
      }

      .st11 {
        fill: #2b615d;
      }

      .st12 {
        fill: #afdbd8;
      }
    </style>
  </defs>
  <rect class="st8" y="140.7" width="456" height="480"/>
  <line class="st4" x1="250" y1="140.7" x2="250" y2="620.7"/>
  <line class="st1" y1="368.4" x2="456" y2="368.4"/>
  <ellipse class="st12" cx="182" cy="405.2" rx="120" ry="76"/>
  <polygon class="st8" points="922.7 201.7 604.7 507.7 1240.7 507.7 922.7 201.7"/>
  <ellipse class="st7" cx="182" cy="405.2" rx="86.7" ry="49"/>
  <ellipse class="st11" cx="182" cy="405.2" rx="46.7" ry="24.5"/>
  <path class="st6" d="M805.9,402.1"/>
  <path class="st6" d="M780.4,443.1"/>
  <path class="st6" d="M744.7,422.1"/>
  <path class="st12" d="M789,419.4c8.5-13.4,21.1-23.9,35-31.5s29.1-12.5,44.5-16.3c7.8-1.9,15.7-3.6,23.7-3.6s16.2,1.6,22.9,5.9c4.3,2.9,8,6.5,11.1,10.5,9.7,12,16.5,27.5,13.8,42.7-.5,3.5-1.8,6.8-3.7,9.7-2.4,3.2-5.5,5.7-9.1,7.4-6.5,3.2-13.8,4.3-21,5-11.5.8-23,.9-34.5.3-26-1.1-52.5-3.7-76.4-14.3-2.2-.8-4.3-2.1-6-3.8-1.7-1.8-4.6-5.2-.2-12Z"/>
  <path class="st7" d="M813,411.5c6-9.2,14.9-16.3,24.9-21.4s20.9-8.3,32-10.7c5.6-1.4,11.3-2.1,17.1-2.2,5.9,0,11.6,1.5,16.7,4.5,3.1,2.1,5.9,4.6,8.2,7.5,7.2,8.5,12.3,19.3,10.6,29.9-.3,2.4-1.2,4.7-2.5,6.7-1.7,2.2-3.9,3.9-6.5,5-4.7,2.1-9.9,2.8-15.2,3.1-8.3.4-16.7.3-25-.3-18.9-1.1-38.1-3.4-55.5-11-1.6-.6-3.1-1.5-4.4-2.7-1.2-1.2-3.3-3.7-.3-8.3Z"/>
  <path class="st11" d="M847.3,407.1c3.5-5.3,8.2-9.7,13.8-12.7,5.5-3,11.4-5.2,17.5-6.7,3-.9,6.1-1.4,9.3-1.5,3.1-.1,6.2.7,8.9,2.3,1.7,1.1,3.1,2.6,4.3,4.2,3.7,4.8,6.3,10.9,5.2,17-.2,1.4-.7,2.7-1.5,3.9-.9,1.3-2.2,2.3-3.6,3-2.6,1.2-5.4,1.9-8.2,2.1-4.5.4-9,.5-13.5.2-10.2-.4-20.5-1.3-29.8-5.4-.9-.3-1.7-.8-2.3-1.5-.6-.7-1.7-2.1,0-4.8Z"/>
  <path class="st6" d="M744.7,292.6"/>
  <g id="_7o2srB">
    <image id="_7o2srB-2" class="st10" width="328" height="232" transform="translate(536.8 14.8) scale(.3)" xlink:href="lnm-1.png"/>
  </g>
  <line class="st0" x1="102.5" y1="311.8" x2="182" y2="405.2"/>
  <line class="st2" x1="130.3" y1="290.9" x2="202.4" y2="375.6"/>
  <polygon class="st9" points="194.8 379 209.8 384.3 207 368.6 194.8 379"/>
  <path class="st5" d="M337.2,338.3"/>
  <path class="st12" d="M332,338.3"/>
  <path class="st12" d="M273.7,356.2"/>
  <path class="st12" d="M309.2,338.3"/>
  <line class="st0" x1="305.6" y1="481.2" x2="274.7" y2="454.2"/>
  <line class="st2" x1="305.6" y1="481.2" x2="283.3" y2="461.8"/>
  <polygon class="st9" points="290.3 457.3 274.7 454.2 279.8 469.3 290.3 457.3"/>
  <circle cx="218.8" cy="393.6" r="7.5"/>
  <ellipse cx="895.5" cy="393.9" rx="7.5" ry="4.3"/>
  <g>
    <line class="st9" x1="386.4" y1="100.8" x2="909.8" y2="100.8"/>
    <g>
      <line class="st3" x1="386.4" y1="100.8" x2="873.9" y2="100.8"/>
      <polygon class="st9" points="866.6 125.7 909.8 100.8 866.6 75.8 866.6 125.7"/>
    </g>
  </g>
  <g id="mZnoxl.tif">
    <image id="Layer_0" width="97" height="87" transform="translate(74.7 239.2) scale(.5)" xlink:href="lnm-2.png"/>
  </g>
  <g id="hBDdcf.tif">
    <image id="Layer_01" data-name="Layer_0" width="478" height="163" transform="translate(922.7 317.4) scale(.4)" xlink:href="lnm-3.png"/>
  </g>
  <g id="_x33_uMDjt.tif">
    <image id="Layer_02" data-name="Layer_0" width="79" height="95" transform="translate(142.2 407.7) scale(.4 .5)" xlink:href="lnm-4.png"/>
  </g>
  <g id="V1Zltn.tif">
    <image id="Layer_03" data-name="Layer_0" width="88" height="99" transform="translate(315.2 471.5) scale(.5)" xlink:href="lnm-5.png"/>
  </g>
  <rect class="st9" x="174.4" y="397.6" width="15.3" height="15.3"/>
</svg>