<?xml version="1.0" encoding="UTF-8" standalone="no"?>
<svg
   width="2715.8"
   height="1293.7471"
   viewBox="0 0 2715.8 1293.747"
   version="1.1"
   xml:space="preserve"
   style="clip-rule:evenodd;fill-rule:evenodd;stroke-linejoin:round;stroke-miterlimit:2"
   id="svg34"
   sodipodi:docname="riemann_transformation-label-2.svg"
   inkscape:version="1.3.2 (091e20e, 2023-11-25)"
   xmlns:inkscape="http://www.inkscape.org/namespaces/inkscape"
   xmlns:sodipodi="http://sodipodi.sourceforge.net/DTD/sodipodi-0.dtd"
   xmlns="http://www.w3.org/2000/svg"
   xmlns:svg="http://www.w3.org/2000/svg"><defs
   id="defs34" /><sodipodi:namedview
   id="namedview34"
   pagecolor="#ffffff"
   bordercolor="#000000"
   borderopacity="0.25"
   inkscape:showpageshadow="2"
   inkscape:pageopacity="0.0"
   inkscape:pagecheckerboard="0"
   inkscape:deskcolor="#d1d1d1"
   inkscape:zoom="0.25826953"
   inkscape:cx="1184.8087"
   inkscape:cy="662.09901"
   inkscape:window-width="1472"
   inkscape:window-height="773"
   inkscape:window-x="0"
   inkscape:window-y="37"
   inkscape:window-maximized="0"
   inkscape:current-layer="svg34" />
    <path
   id="path16"
   d="m 2159.7404,53.924367 c -1.21,-9.352 5.4,-17.93 14.75,-19.143 9.35,-1.213 17.92,5.395 19.13,14.747 2.89,22.227 9.02,44.594 4.02,76.261003 -4.94,31.364 -20.8,72.175 -63.36,131.108 -5.52,7.645 -16.21,9.37 -23.87,3.848 -7.63,-5.522 -9.36,-16.212 -3.84,-23.857 37.94,-52.518 52.9,-88.474 57.32,-116.423 4.35,-27.647003 -1.63,-47.137003 -4.15,-66.541003 z" />
    <path
   id="path19"
   d="m 14.501444,850.46437 c 41.387,-19.032 53.699,-34.724 83.412,-45.852 28.487996,-10.669 58.818996,-17.451 89.176996,-19.386 29.777,-1.898 60.532,-0.601 89.177,7.754 32.186,9.389 62.403,26.345 89.176,46.527 28.47,21.462 52.811,48.629 73.668,77.545 25.705,35.63896 47.954,74.69296 62.036,116.31793 18.19,53.77 27.813,129.04 38.35,181.76 4.294,21.49 -22.104,49.5 0.422,54.75 43.312,10.09 50.502,-73.26 77.545,-108.56 39.649,-51.76 76.733,-106.38 124.072,-151.21 34.91,-33.06497 69.715,-73.47297 116.317,-85.30293 27.814,-7.061 57.711,3.73496 85.3,11.63096 33.802,9.676 88.51696,77.51197 96.22696,43.207 10.1,-44.994 20.83,-93.03196 27.84,-140.13796 9.58,-64.234 18.71,-128.922 19.39,-193.862 0.51,-49.262 9,-102.598 -11.63,-147.335 -17.6,-38.175 -50.04,-73.839 -89.17796,-89.177 -31.309,-12.269 -67.611,9.24 -100.808,3.877 -21.802,-3.522 -40.117,-20.565 -62.036,-23.263 -45.188,-5.563 -91.144,6.161 -135.703,15.509 -72.816,15.275 -144.434,37.628 -213.249,65.913 -64.694,26.591 -128.514,57.24 -186.108,96.931 -51.258,35.325 -95.735,79.882 -139.581,124.072 -38.706,39.01 -74.122996,81.248 -108.561996,124.072 -8.885,11.047 -38.1340001,40.143 -25.254,34.22 z"
   style="fill:#ececec;stroke:#010101;stroke-width:1px" />
    <path
   id="path1"
   d="m 12.544444,862.77537 c 29.09,-58.18 210.000996,-131.26 360.530996,-12.99 169.98,133.55996 147.318,337.74493 172.15,427.11493"
   style="fill:#5f263b;fill-opacity:0" />
    <path
   id="path2"
   d="m 23.763444,868.38537 c -3.096,6.2 -10.637,8.71 -16.8290001,5.61 -6.19199996,-3.09 -8.705,-10.63 -5.609,-16.83 9.6190001,-19.23 33.8390001,-40.51 68.1570001,-56.56 75.825996,-35.48 201.362996,-47.09 311.342996,39.32 104.926,82.44 138.811,190.87493 154.4,284.42493 10.02,60.09 12.24,113.76 22.08,149.2 1.85,6.66 -2.06,13.58 -8.73,15.44 -6.67,1.86 -13.59,-2.07 -15.44,-8.72 -10.017,-36.08 -12.462,-90.65 -22.653,-151.79 -14.718,-88.33 -46.106,-191.00497 -145.156,-268.83493 -100.763,-79.17 -215.741,-68.83 -285.212996,-36.32 -27.956,13.08 -48.514,29.39 -56.35,45.06 z" />
    <path
   id="path3"
   d="m 17.743444,869.23537 c -17.11700006,-7.58 99.172996,-167.28 269.258996,-292.28 148.108,-108.853 424.693,-205.763 609.003,-168.9"
   style="fill:#5f263b;fill-opacity:0" />
    <path
   id="path4"
   d="m 29.266444,864.28537 c 1.328,3.1 1.416,6.71 -0.055,10.03 -2.804,6.33 -10.219,9.19 -16.549,6.39 l -3.3410001,-2.04 -2.721,-2.85 -2.014,-3.78 -1.024,-5.07 c -0.263,-4.75 2.019,-13.52 8.2570001,-25.02 26.831,-49.47 129.719996,-173.65 267.754996,-275.1 150.479,-110.593 431.631,-208.543 618.891,-171.09 6.79,1.358 11.2,7.971 9.84,14.759 -1.35,6.789 -7.97,11.198 -14.76,9.84 -181.36,-36.273 -453.377,59.597 -599.115,166.701 -134.103,98.56 -234.491996,218.79 -260.558996,266.85 -1.996,3.68 -3.712,8 -4.605,10.38 z" />
    <path
   id="path5"
   d="m 543.74544,1281.1903 c 3.34,-13.39 171.3,-280.02 288.93,-338.83497 95.16,-47.57996 231.19496,62.00497 237.10496,64.96497"
   style="fill:#5f263b;fill-opacity:0" />
    <path
   id="path6"
   d="m 555.71544,1284.9303 c -1.96,6.31 -8.53,10.06 -15.01,8.44 -6.72,-1.69 -10.81,-8.49 -9.132,-15.22 0.372,-1.47 1.942,-5.28 5.062,-10.88 9.16,-16.49 33.57,-55.41 66.14,-101.43 61.54,-86.96 152.37,-198.74497 224.29,-234.70497 41.11,-20.54996 89.28,-14.65996 132.7,0.87 60.98496,21.81 112.03496,62.3 115.61496,64.09 6.2,3.1 8.72,10.64497 5.62,16.83497 -3.1,6.19 -10.63,8.7 -16.84,5.6 -3.51,-1.75 -53.23,-41.58497 -112.84496,-62.90497 -36.98,-13.23 -78.01,-19.56 -113.03,-2.05 -69.24,34.62 -155.8,143.04497 -215.03,226.75497 -27.92,39.44 -49.73,73.54 -60.76,92.27 -3.49,5.93 -6.42,11.65 -6.78,12.33 z" />
    <path
   id="path7"
   d="m 883.57544,413.75637 c 293.47496,-51.24 194.85496,355.399 153.72496,561.07896"
   style="fill:#5f263b;fill-opacity:0" />
    <path
   id="path8"
   d="m 885.73544,426.11337 c -6.82,1.19 -13.32,-3.38 -14.51,-10.199 -1.19,-6.82 3.38,-13.323 10.2,-14.514 62.82,-10.969 108.76,-1.669 141.84496,20.927 33.35,22.763 54.07,59.341 65.23,104.551 27.96,113.371 -4.91,282.938 -30.09,406.92096 -3.1,15.252 -6.08,29.814 -8.81,43.496 -1.36,6.79 -7.98,11.2 -14.76,9.84 -6.79,-1.36 -11.2,-7.97 -9.84,-14.76 24.38,-121.90996 69.8,-315.22996 39.13,-439.48696 -9.53,-38.65 -26.5,-70.382 -55,-89.842 -28.74496,-19.628 -68.82496,-26.461 -123.39496,-16.933 z" />
    <path
   id="path9"
   d="m 1909.6004,470.88737 c -0.04,0.964 -0.17,3.863 -0.22,6.771 -1.07,50.729 -1.99,314.827 -42.03,603.16193 -0.96,6.85 -7.29,11.64 -14.16,10.7 -6.84,-0.95 -11.64,-7.3 -10.69,-14.15 39.86,-286.94493 40.74,-549.75593 41.8,-600.23993 0.13,-6.649 0.52,-10.49 0.71,-11.298 l 2.33,-4.85 3.32,-2.992 c 5.9,-3.633 13.64,-1.798 17.26,4.095 1.7,2.735 2.2,5.868 1.68,8.802 z" />
    <path
   id="path10"
   d="m 1839.3604,1102.6003 c -6.82,-1.21 -11.37,-7.72 -10.18,-14.53 1.2,-6.82 7.72,-11.39 14.54,-10.18 155.58,27.46 185.92,-20.2 831.19,40.02 6.89,0.66 11.96,6.76 11.31,13.67 -0.64,6.88 -6.75,11.96 -13.65,11.31 -646.83,-60.36 -677.25,-12.77 -833.21,-40.29 z" />
    <path
   id="path11"
   d="m 1891.2904,471.40937 c -6.72,-1.669 -10.82,-8.478 -9.16,-15.197 1.68,-6.718 8.49,-10.818 15.21,-9.149 33.78,8.391 608.13,12.469 803.61,19.328 6.92,0.242 12.33,6.057 12.1,12.975 -0.25,6.919 -6.06,12.338 -12.98,12.096 -196.73,-6.903 -774.78,-11.607 -808.78,-20.053 z" />
    <path
   id="path12"
   d="m 2690.7804,492.94337 c 0.67,-6.89 6.8,-11.946 13.69,-11.282 6.89,0.665 11.94,6.798 11.27,13.689 -56.42,585.53993 -36.89,586.30993 -36.16,607.84993 0.24,6.92 -5.19,12.73 -12.11,12.96 -6.92,0.24 -12.73,-5.18 -12.96,-12.1 -0.73,-21.66 -20.48,-22.44 36.27,-611.11693 z" />
    <path
   id="path13"
   d="m 915.91235,169.57555 c -2.08,-0.06 -3.73,-1.804 -3.67,-3.891 0.06,-2.087 1.8,-3.732 3.89,-3.672 435.15495,12.552 433.54495,11.731 867.83495,17.847 2.1,0.03 3.76,1.749 3.73,3.836 -0.03,2.088 -1.75,3.759 -3.83,3.73 -434.34,-6.118 -432.74,-5.296 -867.95495,-17.85 z" />
    <path
   id="path14"
   d="m 1727.7673,140.08755 c -1.44,0.811 -3.31,0.604 -4.54,-0.623 -1.46,-1.476 -1.46,-3.873 0,-5.35 l 1.01,-0.778 1,-0.459 c 0.68,-0.238 1.57,-0.396 2.65,-0.397 2.45,-0.001 6.57,0.933 11.83,2.676 27.23,9.017 88.31,39.533 94.97,42.871 4.73,2.362 6.33,5.436 6.3,8.336 0,1.783 -0.65,3.695 -2.09,5.614 -1.51,2.019 -4,4.173 -7.28,6.314 -18.63,12.164 -64.47,25.607 -68.95,26.911 -2.01,0.585 -4.1,-0.568 -4.7,-2.572 -0.57,-2.004 0.58,-4.106 2.59,-4.691 4.33,-1.265 48.86,-14.183 66.91,-25.982 2.05,-1.331 3.71,-2.625 4.87,-3.898 0.57,-0.642 1.08,-1.151 1.09,-1.738 0,-0.144 -0.16,-0.209 -0.29,-0.338 -0.45,-0.423 -1.05,-0.805 -1.82,-1.188 -6.62,-3.303 -67.03,-33.534 -93.97,-42.457 -4.12,-1.364 -8.66,-2.108 -9.58,-2.251 z" />
    <path
   id="path15"
   d="m 336.08844,125.89837 c 0.99,-0.429 1.996,-0.892 2.976,-1.381 18.881,-9.441 24.067,-15.432 30.135,-27.538003 5.245,-10.465 11.171,-24.282 23.53,-44.934 4.081,-6.821 12.327,-9.926 19.894,-7.492 7.567,2.434 12.457,9.764 11.797,17.686 -6.111,73.326003 -10.161,109.810003 -11.83,130.738003 -1.383,17.358 -1.071,21.832 1.762,31.042 1.647,5.35 2.792,9.542 3.881,12.94 0.594,1.852 0.659,3.279 1.694,4.283 2.101,2.037 5.553,3.139 11.213,5.403 8.756,3.502 13.021,13.455 9.519,22.211 -3.503,8.757 -13.455,13.022 -22.211,9.519 -11.652,-4.66 -17.989,-8.407 -22.314,-12.601 -6.349,-6.158 -8.94,-13.814 -14.445,-31.705 -3.332,-10.829 -4.6,-17.182 -3.915,-32.354 0.542,-11.997 2.524,-30.678 5.81,-65.706 -6.513,6.28 -15.39,12.151 -29.237,19.075 -10.523,5.261 -18.389,7.542 -24.005,8.014 l -8.837,-0.537 -4.725,-1.56 -4.483,-2.623 -4.781,-4.745 -0.689,-1.177 c -12.077,24.521 -26.731,51.042 -42.407,72.289 -18.792,25.469 -39.939,43.102 -59.357,46.397 -9.298,1.578 -18.128,-4.69 -19.705,-13.988 -1.578,-9.298 4.689,-18.127 13.987,-19.705 5.43,-0.921 10.733,-4.435 16.21,-9.098 7.258,-6.179 14.403,-14.46 21.365,-23.896 35.412,-47.996 65.067,-124.619003 69.318,-135.550003 2.941,-7.563 10.796,-12.014 18.796,-10.651 8,1.363 13.937,8.165 14.207,16.275 0.614,18.4 -1.727,35.287003 -2.936,48.296003 -0.092,0.984 -0.163,2.027 -0.217,3.073 z" />
    <path
   id="path17"
   d="m 2212.0104,53.830367 c 2.5,17.898 9.69,71.520003 18.17,179.993003 24.67,-44.129 57.92,-114.46 63.58,-132.586 18.92,-60.521003 6.12,-70.308003 4.02,-80.796001 -1.85,-9.247 4.15,-18.2569998 13.4,-20.10699984 9.25,-1.84899996 18.25,4.15700004 20.1,13.40499984 2.55,12.681 17.96,24.512998 -4.9,97.691001 -7.72,24.687 -63.62,140.556 -86.66,171.97 -4.67,6.365 -9,10.195 -11.79,11.834 l -3.98,1.817 -3.9,0.856 -4.12,0.002 -4.58,-1.126 -4.49,-2.529 -3.28,-3.245 -3.07,-5.639 -1.19,-6.025 c -11.02,-154.233 -20.66,-216.805003 -21.96,-226.661003 l -0.27,-4.62 1.03,-4.964 1.93,-3.733 3.25,-3.544 6.58,-3.348 7.03,-0.321 6.95,2.798 3.49,3.207 2.68,4.534 c 0.17,0.421 0.81,2.362 1.59,5.737 0.43,1.818 0.56,3.636 0.39,5.4 z" />
    <path
   id="path18"
   d="m 1895.9604,453.20937 -10.64,347.526 -34.89,290.79493 155.09,3.87 166.72,-3.87 275.28,11.63 217.13,31.02 -3.88,-201.61897 23.27,-248.14396 15.51,-213.248 h -217.13 l -205.49,-7.754 -275.29,-3.878 z"
   style="fill:#ececec;stroke:#010101;stroke-width:1px" />
    <g
   transform="translate(-62.284056,-95.804331)"
   id="g1">
        <ellipse
   cx="616.17499"
   cy="653.935"
   rx="45.174"
   ry="19.34"
   style="fill:#65ad9f"
   id="ellipse1" />
    </g>
    <path
   d="m 1255.2173,130.69655 c -1.35,-1.124 -2.61,-2.32 -3.78,-3.577 -10.01,-10.752 -13.7,-26.491 -12.63,-42.846003 1,-15.292 6.1,-31.051 13.11,-42.978 5.1,-8.683 11.28,-15.359002 17.53,-18.928002 3.83,-2.191 8.72,-0.857 10.91,2.977 2.19,3.833002 0.86,8.724002 -2.97,10.915002 -4.26,2.431 -8.2,7.223 -11.68,13.138 -5.85,9.968 -10.1,23.143 -10.94,35.923 -0.76,11.721 1.21,23.191003 8.38,30.896003 0.27,0.291 0.55,0.575 0.83,0.853 7.47,-9.712 18.19,-21.550003 28.02,-31.402003 10.17,-10.207 19.45,-18.263 23.09,-20.235 14.78,-8.003 25.58,-8.399 32.4,-5.587 8.39,3.464 12.92,11.694 12.39,22.597 -1.17,23.873003 -29.66,63.229003 -77.89,58.636003 -4.68,-0.446 -8.91,-1.346 -12.73,-2.632 -23.74,50.896 -15.9,53.047 -17,110.286 -0.09,4.415 -3.74,7.93 -8.15,7.845 -4.42,-0.085 -7.93,-3.738 -7.85,-8.152 1.17,-60.988 -6.78,-62.826 18.96,-117.729 z m 23.16,-6.326 c 1.62,0.347 3.32,0.609 5.13,0.78 36.81,3.506 59.5,-25.263003 60.38,-43.485003 0.14,-2.735 -0.04,-5.183 -1.68,-6.544 -1.14,-0.946 -2.84,-1.07 -4.97,-0.867 -3.91,0.37 -8.7,2.091 -14.53,5.247 -3.09,1.676 -10.74,8.79 -19.38,17.462 -8.62,8.642003 -18.14,18.860003 -24.95,27.407003 z"
   style="fill:#001300"
   id="path20" />
    <g
   transform="matrix(1.26795,-0.45816,0.37868,1.04799,-972.27656,371.72437)"
   id="g20">
        <rect
   x="825.29199"
   y="550.28302"
   width="432.771"
   height="169.862"
   style="fill:#65ad9f;fill-opacity:0.15;stroke:#65ad9f;stroke-width:10.9px;stroke-linecap:round;stroke-miterlimit:1.5"
   id="rect20" />
    </g>
    <path
   d="m 449.70498,564.0884 c -0.97184,-0.77922 -1.52301,-2.05689 -1.34031,-3.40081 0.27328,-2.00483 2.08031,-3.40395 4.03166,-3.12318 l 1.25586,0.39276 0.93498,0.62464 0.74462,0.8013 0.69087,1.14517 c 0.76611,1.58052 1.47695,4.73053 1.96977,9.00835 2.44418,21.25818 1.39251,73.93753 1.27736,79.60029 -0.0415,2.02534 -1.67346,3.63425 -3.64323,3.59166 -1.9713,-0.0425 -3.5373,-1.71933 -3.49584,-3.74309 0.11361,-5.59177 1.1837,-57.60074 -1.22975,-78.58762 -0.29632,-2.58057 -0.97338,-5.41195 -1.19599,-6.30947 z"
   id="path21"
   style="stroke-width:1.55618" />
    <path
   d="m 460.80199,557.76001 c 0.69089,1.77295 -0.0661,3.82037 -1.76556,4.66269 -1.77479,0.88017 -3.91037,0.11357 -4.76552,-1.70986 -1.9667,-4.1895 0.24871,-8.68342 6.19333,-11.38702 5.56079,-2.52853 14.52531,-3.70208 21.93458,-2.28561 5.57769,1.06788 10.24187,3.6516 12.59239,7.67705 5.36582,9.18817 5.9262,16.70906 4.00862,22.77245 -1.92064,6.06972 -6.44818,10.80655 -11.88461,14.33513 -9.95325,6.46248 -22.87266,8.83956 -24.95143,9.21656 -1.94059,0.35175 -3.79368,-0.98113 -4.13605,-2.97492 -0.34236,-1.9938 0.95495,-3.89768 2.89555,-4.24943 1.86229,-0.33756 13.45982,-2.40391 22.37828,-8.19284 3.99941,-2.59636 7.49372,-5.93564 8.90771,-10.40275 1.41553,-4.47499 0.61872,-9.95004 -3.34078,-16.72957 -1.17602,-2.01429 -3.50044,-3.14684 -6.16262,-3.8677 -4.92212,-1.33445 -11.05557,-1.04737 -15.86254,0.20663 -1.96823,0.51423 -3.70617,1.17988 -4.98506,2.008 -0.38536,0.24922 -0.84287,0.70035 -1.05629,0.92119 z"
   id="path22"
   style="stroke-width:1.55618" />
    <path
   d="m 746.81023,434.75236 c 10e-4,-0.35808 0.0215,-0.70667 0.0552,-1.04581 -0.43755,-0.82023 -0.74,-1.72879 -0.85208,-2.63262 l -0.0199,-1.51743 0.39303,-1.62153 0.71236,-1.30134 1.02711,-1.09783 1.24051,-0.80605 c 0.40071,-0.2019 0.85054,-0.37856 1.35873,-0.5221 3.45131,-0.96693 6.00909,-0.42273 7.87139,0.76975 2.50097,0.58521 4.65497,2.24302 5.73121,5.00972 1.62587,4.17214 1.53067,6.88994 0.86129,8.50517 l -0.63714,1.15305 -0.87664,0.96693 -1.51686,0.95589 c -0.35312,0.15458 -0.73848,0.2855 -1.15453,0.38645 -1.32649,2.54429 -3.29626,4.10116 -5.14781,4.44029 -2.17704,0.3975 -5.13552,-0.37699 -7.38472,-5.00025 -0.0921,-0.18772 -0.17808,-0.37227 -0.26099,-0.55682 -1.61359,-0.54418 -2.66679,-2.21619 -2.41807,-4.00336 0.11361,-0.82023 0.48515,-1.5395 1.01789,-2.08211 z"
   id="path23"
   style="stroke-width:1.55618" />
    <path
   d="m 803.12133,549.14622 c 0.001,-10e-4 0.003,-10e-4 0.005,-10e-4 4.51987,-1.5474 7.42617,-1.97171 9.09963,-1.82502 l 2.0235,0.50318 1.40018,0.94011 0.73233,0.90699 0.48668,1.05053 0.21801,1.04421 0.0123,0.9417 c -0.10282,1.43382 -1.04246,3.55696 -2.73434,5.74477 -0.4268,0.5505 -0.89967,1.11835 -1.40171,1.69094 0.15353,2.02849 -0.44984,4.36142 -2.45798,6.83788 -4.05623,5.00027 -10.04229,4.12324 -13.80066,0.54104 -2.47027,-2.35342 -3.83668,-5.84099 -3.13044,-9.31593 0.65864,-3.2415 3.19492,-6.88206 9.54792,-9.05883 z m -1.84388,9.90902 c 0.0215,0.17351 0.0706,0.52684 0.16274,0.91645 l 0.50051,0.2366 c 0.0138,-0.23976 0.0184,-0.49686 0.006,-0.73977 -0.0113,-0.17983 -0.0246,-0.36438 -0.043,-0.5584 -0.10903,0.0112 -0.21495,0.0253 -0.31934,0.0458 -0.0891,0.019 -0.21495,0.0647 -0.30706,0.0993 z"
   id="path24"
   style="stroke-width:1.55618" />
    <path
   d="m 813.44917,429.65587 c -3.73073,-3.06797 -5.67287,-4.6974 -7.1406,-6.65333 -0.86743,2.88027 -2.04499,5.74951 -3.61405,7.76853 -2.63762,3.39293 -6.12271,4.96713 -10.59191,3.13108 -4.7517,-1.95279 -6.9011,-5.96246 -7.59966,-10.30179 -0.87051,-5.40407 0.71237,-11.26713 0.99026,-12.26245 0.54042,-1.94648 2.51787,-3.0743 4.41241,-2.51906 1.89453,0.55681 2.9938,2.58845 2.45184,4.53493 -0.17348,0.62463 -1.06702,3.79199 -0.97644,7.18649 0.0675,2.54113 0.59262,5.40721 3.37302,6.55081 1.74254,0.71455 2.60077,-0.98112 3.42828,-2.65313 2.37354,-4.79363 3.06749,-11.90914 3.16729,-12.86187 0.17195,-1.65939 1.414,-2.98911 3.0199,-3.23675 1.60438,-0.24765 3.1719,0.64829 3.81058,2.1815 3.45131,8.27171 3.41139,8.21335 10.34012,13.90764 l 0.84748,0.84232 0.61718,1.04422 c 0.13818,0.32967 0.19191,0.75713 0.46212,1.8676 0.47748,1.96383 -0.68627,3.95762 -2.5977,4.44818 -1.91142,0.49214 -3.85202,-0.70509 -4.32949,-2.6689 -0.0246,-0.10259 -0.0492,-0.20664 -0.0706,-0.30602 z m -0.17349,-0.90225 c -10e-4,-0.0157 -0.003,-0.0237 -0.003,-0.0237 0,0 10e-4,0.008 0.003,0.0237 z"
   id="path25"
   style="stroke-width:1.55618" />
    <path
   d="m 825.6992,537.72608 c -1.01329,-1.73511 -0.46519,-3.99075 1.22516,-5.0318 1.6888,-1.04264 3.88426,-0.47796 4.89755,1.25715 0.85054,1.45591 2.5501,4.34881 7.70405,15.8068 3.19492,-5.5539 4.31414,-7.37261 9.8473,-15.64118 1.11615,-1.66884 3.34078,-2.09159 4.9651,-0.94483 1.6228,1.14674 2.03579,3.43235 0.91964,5.10121 -7.0055,10.46898 -6.79517,10.39485 -13.06679,21.27237 -0.6786,1.17829 -1.93753,1.86918 -3.26862,1.79347 -1.32956,-0.0758 -2.50712,-0.90541 -3.05675,-2.15311 -7.1621,-16.28948 -9.21017,-19.82278 -10.16664,-21.46008 z"
   id="path26"
   style="stroke-width:1.55618" />
    <path
   d="m 751.29939,470.3078 c 0.0798,0.21452 0.16427,0.45585 0.24565,0.70666 0.62332,1.92123 -0.38843,4.0002 -2.25841,4.63904 -1.86844,0.64041 -3.89194,-0.39908 -4.51526,-2.31874 -0.68781,-2.11682 -0.87972,-2.70833 -0.84287,-3.35979 l 0.21187,-1.15463 c 0.10598,-0.34071 0.29785,-0.79342 0.64636,-1.50166 0.88892,-1.80608 3.03832,-2.53167 4.79775,-1.61837 1.65504,0.85966 2.37816,2.86765 1.71491,4.60749 z"
   id="path27"
   style="stroke-width:1.55618" />
    <path
   d="m 753.54244,486.32439 c -0.15199,-2.01745 1.31881,-3.7841 3.28243,-3.94184 1.96517,-0.15617 3.68469,1.35495 3.83667,3.37241 l 0.40533,5.34728 c 0.15352,2.01745 -1.31728,3.7841 -3.28244,3.94026 -1.96363,0.15773 -3.68315,-1.35338 -3.83667,-3.37084 z"
   id="path28"
   style="stroke-width:1.55618" />
    <path
   d="m 764.98337,503.73223 c 0.15967,-2.01904 1.88225,-3.52385 3.84742,-3.36138 1.96363,0.16247 3.42982,1.93385 3.27015,3.95131 -0.33469,4.26835 -0.008,3.58693 0.62793,8.15815 0.27942,2.00483 -1.0793,3.86454 -3.02911,4.15005 -1.95134,0.28708 -3.76145,-1.10732 -4.03933,-3.11215 -0.76304,-5.48136 -1.0793,-4.67059 -0.67706,-9.78598 z"
   id="path29"
   style="stroke-width:1.55618" />
    <path
   d="m 772.56153,532.45136 c -0.0276,-2.02376 1.55063,-3.68947 3.52193,-3.71628 1.96977,-0.0268 3.59103,1.59471 3.61713,3.61848 l 0.0768,5.8126 c 0.0261,2.02376 -1.55217,3.68947 -3.52194,3.71628 -1.97129,0.0268 -3.59255,-1.59314 -3.61865,-3.61849 z"
   id="path30"
   style="stroke-width:1.55618" />
    <path
   d="m 778.77635,545.46149 c 0.17656,-2.01746 1.91296,-3.50649 3.87505,-3.32667 1.9621,0.18139 3.41294,1.9654 3.23638,3.98127 l -0.28096,3.23361 c -0.17655,2.01587 -1.91296,3.50649 -3.87505,3.32509 -1.96363,-0.17983 -3.41293,-1.96383 -3.23791,-3.98128 z"
   id="path31"
   style="stroke-width:1.55618" />
    <path
   d="m 691.40186,513.36521 c 0.21034,-6.77953 0.0645,-13.13317 -0.13509,-17.8211 -4.13146,4.11219 -7.45381,8.09505 -10.04383,10.22291 -2.61766,2.14995 -5.0127,2.70361 -6.82893,2.20674 l -1.27736,-0.5363 -1.0747,-0.8092 c -0.51585,-0.49055 -1.01635,-1.13728 -1.46006,-1.98747 -0.81215,-1.56318 -1.51531,-4.14218 -1.93752,-8.04616 -0.80142,-7.40417 -0.38228,-12.3082 0.58955,-15.47871 0.88432,-2.88342 2.26915,-4.63904 3.74916,-5.71954 2.3889,-1.74299 5.24453,-1.86759 7.91745,-1.09627 3.03065,0.87229 5.72661,2.91182 6.29005,3.3456 1.5752,1.21457 1.89608,3.51596 0.71391,5.13433 -1.18216,1.61997 -3.42215,1.94806 -4.99888,0.73348 -0.28556,-0.21925 -1.40632,-1.09154 -2.82338,-1.73353 -0.87818,-0.3975 -1.90683,-0.91014 -2.81111,-0.49372 -0.80909,0.37384 -1.17295,1.45592 -1.52146,3.22414 -0.50664,2.57742 -0.55578,6.21483 -0.009,11.27346 0.18576,1.71144 0.5788,3.33928 0.86744,4.37877 0.68473,-0.54262 1.42628,-1.24928 2.23536,-2.06636 3.43597,-3.4639 7.84684,-8.67395 13.32472,-13.17575 1.03325,-0.85178 2.44111,-1.04264 3.65552,-0.49845 1.21593,0.54261 2.03731,1.73353 2.13404,3.09165 0.28556,3.9513 2.70824,39.20231 -4.24967,57.52029 -3.6816,9.68977 -9.85805,14.99761 -18.98991,12.31767 -1.06855,-0.3139 -4.65497,-1.62785 -7.74703,-4.16584 -2.30293,-1.88968 -4.29727,-4.42609 -5.12171,-7.58556 -0.81984,-3.14054 -0.57266,-6.9767 2.04807,-11.51321 3.15501,-5.46084 10.20502,-12.36971 24.02717,-20.65405 1.10694,-0.66407 2.42115,-0.64514 3.47742,-0.0678 z m -0.327,6.67383 c -10.05457,6.06814 -16.1389,11.17408 -19.49657,15.52131 -2.59923,3.36611 -3.39604,5.98454 -2.83259,8.13764 0.41606,1.59471 1.51993,2.80298 2.68061,3.75414 2.10026,1.72405 4.52754,2.63263 5.2522,2.84556 3.96102,1.16252 6.69076,-0.82495 8.68048,-4.28098 1.75483,-3.04589 2.98767,-7.07922 3.89349,-11.56525 0.91348,-4.516 1.48461,-9.47052 1.82238,-14.41242 z"
   id="path32"
   style="stroke-width:1.55618" />
    <path
   d="m 712.62869,529.86762 c 0.0859,-2.02376 1.75483,-3.59323 3.72306,-3.5049 1.96823,0.0899 3.49584,1.80451 3.40986,3.82669 -0.13356,3.1295 0.54195,6.25742 0.40839,9.38691 -0.0737,1.73353 -0.0875,1.60419 -1.17142,21.65569 -0.10903,2.02218 -1.79475,3.57116 -3.76298,3.45917 -1.9667,-0.11202 -3.47588,-1.84395 -3.36534,-3.86613 1.0793,-19.97264 1.09158,-19.84329 1.16527,-21.5705 0.13511,-3.1295 -0.54041,-6.25742 -0.40684,-9.38693 z"
   id="path33"
   style="stroke-width:1.55618" />
    <path
   d="m 718.90953,527.4858 c -1.68881,1.04264 -3.88426,0.47794 -4.89755,-1.25716 -1.01482,-1.73668 -0.46519,-3.99231 1.22362,-5.03338 0.68166,-0.41958 5.2046,-3.16578 9.71527,-3.9166 2.87712,-0.47953 5.72814,-0.1467 7.99422,1.36757 2.24919,1.50323 4.15294,4.21158 4.58282,9.08249 0.60029,6.78426 -3.21642,10.83966 -7.56588,13.13948 -3.69236,1.9512 -7.70711,2.50642 -8.50393,2.61369 -1.95442,0.26184 -3.74763,-1.15621 -4.00249,-3.1642 -0.25485,-2.00642 1.12537,-3.84878 3.07825,-4.11062 0.57727,-0.0773 3.4897,-0.45113 6.16262,-1.86287 2.01429,-1.06473 3.99942,-2.80772 3.72153,-5.94984 -0.16274,-1.83921 -0.51739,-3.0317 -1.36641,-3.59797 -0.83057,-0.55524 -1.90375,-0.45271 -2.95695,-0.27603 -3.34691,0.5568 -6.68002,2.6547 -7.18512,2.96544 z"
   id="path34"
   style="stroke-width:1.55618" />
</svg>
