<?xml version="1.0" encoding="utf-8"?>
<!-- Generator: Adobe Illustrator 25.3.1, SVG Export Plug-In . SVG Version: 6.00 Build 0)  -->
<svg version="1.1" id="Calque_1" xmlns="http://www.w3.org/2000/svg" xmlns:xlink="http://www.w3.org/1999/xlink" x="0px" y="0px"
	 viewBox="0 0 378 307" style="enable-background:new 0 0 378 307;" xml:space="preserve">
<style type="text/css">
	.Ombre_x0020_portée{fill:none;}
	.Lueur_x0020_externe_x0020_5 pt{fill:none;}
	.Néon_x0020_bleu{fill:none;stroke:#8AACDA;stroke-width:7;stroke-linecap:round;stroke-linejoin:round;}
	.Ton_x0020_clair_x0020_chrome{fill:url(#SVGID_1_);stroke:#FFFFFF;stroke-width:0.3629;stroke-miterlimit:1;}
	.Swing_GS{fill:#FFDD00;}
	.Alysse_GS{fill:#A6D0E4;}
	.st0{opacity:0.4;}
	.st1{fill:#795F9E;}
	.st2{fill:#FFFFFF;}
	.st3{fill:none;stroke:#000000;stroke-width:2;stroke-miterlimit:10;}
	.st4{fill:none;}
	.st5{font-family:'ArialMT';}
	.st6{font-size:30px;}
</style>
<linearGradient id="SVGID_1_" gradientUnits="userSpaceOnUse" x1="-37" y1="-232" x2="-37" y2="-233">
	<stop  offset="0" style="stop-color:#656565"/>
	<stop  offset="0.618" style="stop-color:#1B1B1B"/>
	<stop  offset="0.6292" style="stop-color:#545454"/>
	<stop  offset="0.9831" style="stop-color:#3E3E3E"/>
</linearGradient>
<g class="st0">
	
		<rect x="11.5" y="89.7" transform="matrix(0.7533 -0.6576 0.6576 0.7533 -59.1228 144.4562)" class="st1" width="303" height="122.7"/>
	<path d="M236.8,5.9l80,91.7L89.3,296.2l-80-91.7L236.8,5.9 M236.9,4.5L7.8,204.4l81.3,93.2l229-199.9L236.9,4.5L236.9,4.5z"/>
</g>
<g>
	<line class="st2" x1="147.5" y1="144.5" x2="210" y2="73"/>
	<g>
		<line class="st3" x1="147.5" y1="144.5" x2="200.6" y2="83.8"/>
		<g>
			<polygon points="206.1,92.6 210,73 191.1,79.4 			"/>
		</g>
	</g>
</g>
<g>
	<line class="st2" x1="147.5" y1="144.5" x2="220.5" y2="83.5"/>
	<g>
		<line class="st3" x1="147.5" y1="144.5" x2="209.5" y2="92.7"/>
		<g>
			<polygon points="213.6,102.2 220.5,83.5 200.9,86.9 			"/>
		</g>
	</g>
</g>
<rect x="304.6" y="117.4" class="st4" width="65.4" height="33.6"/>
<text transform="matrix(1 0 0 1 304.5542 138.8584)" class="st5 st6">σ(Z)</text>
<rect x="226.1" y="60.3" class="st4" width="139.9" height="33.7"/>
<text transform="matrix(1 0 0 1 226.1201 81.752)" class="st5 st6">E[Y[t]|Z,X]</text>
<text transform="matrix(1 0 0 1 147.0893 72.7151)" class="st5 st6">Y[t]</text>
</svg>
