<?xml version="1.0" encoding="UTF-8"?>
<svg id="Calque_1" xmlns="http://www.w3.org/2000/svg" xmlns:xlink="http://www.w3.org/1999/xlink" version="1.1" viewBox="0 0 1308 854.8">
  <!-- Generator: Adobe Illustrator 29.6.1, SVG Export Plug-In . SVG Version: 2.1.1 Build 9)  -->
  <defs>
    <style>
      .st0, .st1, .st2, .st3, .st4, .st5, .st6 {
        fill: none;
      }

      .st1, .st2, .st3, .st4, .st7, .st5, .st8, .st6, .st9 {
        stroke-miterlimit: 10;
      }

      .st1, .st2, .st7, .st9 {
        stroke-width: 5px;
      }

      .st1, .st3, .st9 {
        stroke: #9e005d;
      }

      .st2, .st4, .st7 {
        stroke: #04aa9e;
      }

      .st3, .st4, .st5, .st8, .st6 {
        stroke-width: 8px;
      }

      .st10 {
        font-size: 48px;
      }

      .st10, .st11, .st12 {
        isolation: isolate;
      }

      .st10, .st12 {
        font-family: ArialMT, Arial;
      }

      .st7 {
        fill: #04aa9e;
      }

      .st7, .st9 {
        fill-opacity: .2;
      }

      .st5 {
        stroke-dasharray: 12 12 12 12 12 12;
      }

      .st5, .st6 {
        stroke: #000;
      }

      .st12 {
        font-size: 30px;
      }

      .st8 {
        fill: #fff;
        stroke: #cacbcd;
      }

      .st9 {
        fill: #9e005d;
      }
    </style>
  </defs>
  <path class="st8" d="M282.7,0v590"/>
  <path class="st8" d="M280,587.2h1028"/>
  <line class="st4" x1="594" y1="452.5" x2="594" y2="590"/>
  <line class="st3" x1="932" y1="452.5" x2="932" y2="590"/>
  <line class="st5" x1="932" y1="263.3" x2="932" y2="435.3"/>
  <line class="st6" x1="594" y1="443.9" x2="932" y2="443.9"/>
  <path class="st7" d="M915.2,590.1c-62.5,15.7-120.3,49.7-164.3,96.8-35.4,38-61.7,83.6-96,122.5-15,17-34.2,33.7-56.8,32.9-18.3-.7-34.2-12.9-47-26.1-37.5-38.6-60.3-88.6-89.7-133.6-29.5-45-70-87.8-122.9-97.3"/>
  <path class="st9" d="M1291.1,588.4c-69.9,9.5-136.5,41.6-187.5,90.3-44.7,42.8-81.6,100.3-141.3,116.4-56,15.1-115-12.1-160.7-47.9s-84.2-80.8-133.9-110.6c-62.7-37.6-137.4-48-209.9-57.6"/>
  <path class="st1" d="M283.6,526.6c116.1.4,228.7-40.8,332.2-93.5s200.5-117.5,304.3-169.6,217-91.9,333.1-89.5"/>
  <path class="st2" d="M276.6,538.6c116.1.4,228.7-40.8,332.2-93.5s200.5-117.5,304.3-169.6,217-91.9,333.1-89.5"/>
  <rect class="st0" x="39.8" y="155.5" width="183.5" height="37.5"/>
  <rect class="st0" x="705" y="640.2" width="166" height="60"/>
  <g id="_x39_M3Rwj.tif">
    <image id="Layer_0" class="st11" width="155" height="147" transform="translate(230.8 148.7) scale(.3)" xlink:href="geometric_2-1.png"/>
  </g>
  <g id="YoKUEA.tif">
    <image id="Layer_01" data-name="Layer_0" class="st11" width="175" height="97" transform="translate(817.9 645.3) scale(.3)" xlink:href="geometric_2-2.png"/>
  </g>
  <g id="wFLYAc.tif">
    <image id="Layer_02" data-name="Layer_0" class="st11" width="717" height="213" transform="translate(1153.8 122.6) scale(.2)" xlink:href="geometric_2-3.png"/>
  </g>
  <g id="ldwu5p.tif">
    <image id="Layer_03" data-name="Layer_0" class="st11" width="717" height="200" transform="translate(1152.9 201.3) scale(.2 .2)" xlink:href="geometric_2-4.png"/>
  </g>
  <rect class="st0" x="942.2" y="351.8" width="311" height="83.6"/>
  <text class="st12" transform="translate(942.2 373.1)"><tspan x="0" y="0">Indirect effect</tspan></text>
  <text class="st10" transform="translate(18 183.4)"><tspan x="0" y="0">Response</tspan></text>
  <text class="st10" transform="translate(615 676.4)"><tspan x="0" y="0">Mediator</tspan></text>
</svg>