<?xml version="1.0" encoding="utf-8"?>
<!-- Generator: Adobe Illustrator 25.3.1, SVG Export Plug-In . SVG Version: 6.00 Build 0)  -->
<svg version="1.1" xmlns="http://www.w3.org/2000/svg" xmlns:xlink="http://www.w3.org/1999/xlink" x="0px" y="0px"
	 viewBox="0 0 1848 828.6" style="enable-background:new 0 0 1848 828.6;" xml:space="preserve">
<style type="text/css">
	.st0{fill:#DEFBFE;}
	.st1{fill:#A4F4FD;}
	.st2{fill:#04C4D9;}
	.st3{fill:#0378A6;}
	.st4{fill:#03588C;}
	.st5{fill:#012941;}
	.st6{fill:#CAF9FE;}
	.st7{fill:#B8F6FD;}
	.st8{fill:#7DF0FD;}
	.st9{fill:#04C4D9;stroke:#04C4D9;stroke-width:3;stroke-miterlimit:10;}
	.st10{fill:none;}
	.st11{fill:#F15A24;}
	.st12{font-family:'SourceSansPro-Regular';}
	.st13{font-size:40px;}
	.st14{fill:#FCD7CA;}
	.st15{display:none;}
	.st16{display:inline;fill:none;stroke:#000000;stroke-width:3;stroke-miterlimit:10;}
	.st17{font-size:48px;}
</style>
<g id="Calque_2">
	<rect x="937.1" y="63" class="st0" width="910.9" height="765.7"/>
	<path class="st1" d="M1466,811c31-137.8,14.8-285.8-63-409.2c-77.8-123.5-220.9-219.1-383.1-238.2l-82.8-8.1v673.2h525.3L1466,811z
		"/>
	<path class="st2" d="M1240.2,806.8c50.4-62.6,92.4-131.4,109.5-206c17.1-74.6,7.2-155.6-39.7-220
		c-38.9-53.4-102.5-93.2-173.6-108.7c-59.4-12.9-131.8-5.3-167.2,37.5l-31.9,30.7v488.3h283.5"/>
	<path class="st3" d="M1013.5,486.9c14.2-23,29.9-47.2,56.7-59.3c22.3-10.1,49.6-9.9,73.5-3.1c41.8,11.9,74,43.2,88.5,78.8
		c14.5,35.7,12.8,75.1,1.3,111.6c-8.7,27.7-24,55.3-51,72.3c-15.7,9.8-34.6,15.6-54,17.3c-45,4-91.8-14.9-116.8-47.2
		c-22-28.5-26.9-64.7-21.4-98.5C995.8,525,1010,492.6,1013.5,486.9z"/>
	<path class="st4" d="M1046.4,568.5c2.9-18.1,8.4-35.9,16.2-52.8c5.1-11.1,11.8-22.5,23.7-28.7c16.7-8.8,39.7-4.5,54.5,6.6
		c14.8,11.1,22.7,27.5,27.3,43.9c9.8,34.9,6.8,72.3-8.5,105.7c-7.1,15.5-18.1,31.1-36.1,37.3c-20.9,7.2-45.9-1.1-60.2-16
		s-19.4-34.9-19.9-54.1C1042.8,591,1045.8,571.8,1046.4,568.5z"/>
	<path class="st5" d="M1103.6,548.6c13.8-0.4,26.5,7.9,32.8,18.4c6.3,10.5,7.2,22.8,6,34.5c-0.9,9-3.1,18.1-8.8,25.6
		c-5.7,7.5-15.6,13.2-26.1,12.8c-10.7-0.4-20-7.1-24.7-15.3c-4.7-8.2-5.4-17.7-4.6-26.8C1079.6,579.8,1086.7,562.2,1103.6,548.6z"/>
	<path class="st6" d="M1688.2,828.6c-173.4-103.2-136.3-237.2-210.4-406.6c-55.6-127.2-97-223.2-92.9-359H1848v765.7H1688.2z"/>
	<path class="st1" d="M1577,62.6c-35.8,51.4-59.9,68.4-72.6,127.3c-10.2,46.9-6.5,95.3,0.5,142.6c13.5,91.6,39.4,182.6,86.5,265.7
		c47.1,83.1,116.2,158.1,205.7,209.6l50.9,20.9V63"/>
	<path class="st2" d="M1620.8,131.8c-40.8,31.7-64.4,77.1-75.7,123.3c-6.4,26.3-9.2,53.7-2,79.8c6.5,23.6,20.8,45.2,37.9,64.6
		c17.4,19.7,37.8,37.5,60.5,52.8c11.9,8,24.8,15.5,39.5,18.4c35.1,7,69.9-13.1,93.5-36.4c69.6-68.6,82.1-175.4,29.7-254.5
		c-19.4-29.3-48.7-55.7-86.6-64.5S1634.1,121.5,1620.8,131.8z"/>
	<path class="st3" d="M1691.2,199c-52.3,21.9-89.6,68.1-94.9,117.7c-1.6,14.9-0.3,30.5,8.3,43.5c11.1,16.6,32.8,26.4,54.9,29.6
		c22,3.2,44.6,0.6,66.7-2.2c11.4-1.5,23.1-3.1,33.1-8c12.9-6.2,21.8-17.2,28.2-28.6c23.9-43.2,13.9-98.6-24.2-133.6
		c-11.7-10.7-26.3-19.9-43.2-22.3C1703,192.7,1683.9,198.5,1691.2,199z"/>
	<path class="st4" d="M1687.4,236.4c-16.6,17.9-31.4,37.1-43.9,57.2c-8.4,13.6-15.9,30.3-7.1,43.7c6.3,9.7,19.4,14.5,32,17.1
		c15.2,3.2,31,4.1,46.5,2.9c9.7-0.8,19.6-2.6,27.5-7.4c11.4-7,16.9-19.1,19.6-30.9c6.1-27.3-0.4-56.5-17.7-79.9
		c-5.7-7.7-13.4-15.3-23.8-17.3C1703.8,218.6,1691.5,232,1687.4,236.4z"/>
	<path class="st5" d="M1706.9,277c-10.6,4.5-21.4,9.2-29.1,16.9s-11.2,19.3-5.4,28.1c6.4,9.7,21.7,12.5,34.3,9.8
		c19.6-4.2,35.1-20.1,36.3-37.4c0.6-8-2.1-16.6-9.4-21.5S1717.4,272.5,1706.9,277z"/>
	<rect y="62.6" class="st0" width="910.9" height="766"/>
	<path class="st7" d="M0,62.6v766h375.1c34.2-93.5,66.4-188.1,86.3-285.5c32.3-158.1,31.4-322.7-2.6-480.5H0z"/>
	<path class="st8" d="M167.5,64.2c-45.6,2.5-80.3,24.9-94.4,48.3c-91.2,150.7-13.5,716.2-13.5,716.2h193.5c-7.2-18.1-0.9-46,8-63.2
		c51.6-99.5,131.3-182.4,169.6-288.4c39.9-110.7,28.5-240.8-30.2-341.7c-14.4-24.8-36.8-54.9-55.5-63.7c-18.1-8.5-32.8-9-78.9-9"/>
	<path class="st2" d="M105.7,330.5c16.8-37.8,35.9-78.3,72.3-98c22.2-12,48.2-14.7,73.5-14.1c16.7,0.4,33.4,2,49.4,6.8
		c36.4,10.8,67.3,37.7,85.1,71.3s23.1,73.2,17,110.7c-11,67.9-60.2,128.2-124.5,152.7c-42.1,16-91.6,16.5-130.6-6
		c-40.7-23.5-65.5-69.9-68.5-116.8C76.4,390,98.5,346.7,105.7,330.5z"/>
	<path class="st3" d="M175.9,313.5c20.6-24.9,57.6-33.5,88.1-22.8c30.5,10.7,53.4,38.8,60.7,70.3c4.2,18.2,3.5,37.5-1.9,55.4
		c-10.8,35.7-40.5,64.1-75.3,77.7c-17.6,6.9-37,10.4-55.7,7.1c-18.7-3.3-36.5-13.9-46-30.4c-8-13.9-9.6-30.7-8.5-46.7
		C140.5,378.6,160.4,332.2,175.9,313.5z"/>
	<path class="st4" d="M211.8,359.2c4.8-7,9.7-14.1,16.4-19.2s15.7-8.1,23.8-5.7c13.5,4,18.9,20.1,20,34.2
		c1.5,17.4-0.6,35.4-8.1,51.2s-20.8,29.2-37.4,34.6c-13,4.3-29.5,2.5-37.2-8.8c-6.1-9-4.9-21-2.2-31.5
		C192.8,392.7,202.7,372.4,211.8,359.2z"/>
	<path class="st8" d="M910.9,828.6H627.3c6.6-51.8-20.7-85.6-44.8-132c-33-63.4-63.8-128.9-77.5-199c-15.9-81.3-8-165.7,10.8-246.4
		c15.2-65,37.4-128.4,66.1-188.7h329"/>
	<path class="st9" d="M626.6,170.4c46.1-27.6,107.9-20.7,152.1,9.8s71.7,81.3,82.4,133.9c11.3,55.7,4.8,115.7-22.8,165.3
		s-77,87.8-133.1,97.1c-15.7,2.6-32.2,2.9-47.3-2.1c-11.7-3.9-22.1-10.9-31.8-18.5c-58.4-46.2-92.4-121.7-88.2-196.1
		C542.2,285.4,574.4,201.7,626.6,170.4z"/>
	<path class="st3" d="M595.5,369c13.8-39.9,29.4-82.1,63.3-107.3c15.6-11.6,35.9-18.8,54.5-13.5c17.3,5,30,19.7,40.4,34.4
		c18.6,26.4,33.4,55.5,43.9,86c8.1,23.6,13.4,50.6,1.9,72.8c-14,27.2-47.6,37.2-77.9,40.9c-22.9,2.8-46,3.5-69,2.2
		c-10.8-0.6-22.1-1.8-31.4-7.5c-7.5-4.6-13.2-11.7-17.7-19.3C584.9,427.3,588.2,390.2,595.5,369z"/>
	<path class="st4" d="M656.3,354.8c10.9-15.2,24.2-28.6,39.4-39.5c22.4,11.1,33.8,36.7,38.5,61.3c2.3,12.3,3.2,25.6-2.6,36.7
		c-4.5,8.4-12.4,14.4-20.6,19.1c-17.4,9.8-37.5,14.6-57.4,13.7c-9.4-0.4-19.6-2.5-25.6-9.8c-8.2-9.9-5.1-24.7-0.2-36.6
		C636.6,377.7,650.3,357.7,656.3,354.8z"/>
	<path class="st5" d="M653.3,402.1c13-17.9,28.7-33.8,46.5-47c10.8,8.4,13.7,24.6,8.6,37.3s-16.7,22-29.5,26.8
		c-6.6,2.5-14.4,3.8-20.4,0C652.5,415.5,651.2,405,653.3,402.1z"/>
</g>
<g id="Calque_4">
	<rect x="302.3" y="127.9" class="st10" width="206.4" height="99.9"/>
	<text transform="matrix(1 0 0 1 302.2711 156.4023)"><tspan x="0" y="0" class="st11 st12 st13">Original</tspan><tspan x="0" y="48" class="st11 st12 st13">Community</tspan></text>
	<rect x="544.9" y="771.5" class="st10" width="403.4" height="57.2"/>
	<text transform="matrix(1 0 0 1 544.9126 799.959)" class="st4 st12 st13">Phenotype Fitness</text>
	<path class="st11" d="M1516.4,249.9c5.7-8.3,7.2-18.2,10.9-27.3s10.9-18.4,21.9-20.3c12.4-2.2,23.9,5.5,33,12.9
		c31.5,25.7,58.9,54.9,81.4,86.8c6.1,8.6,12,18.3,10.1,28.3c-2.5,13-17.2,21.3-31.1,26.9c-43.5,17.4-92.9,23.7-140.4,17.9
		c-4.1-0.5-8.5-1.3-11.1-4c-2.5-2.6-2.6-6.3-2.5-9.7C1490.1,313.5,1515.8,269,1516.4,249.9z"/>
	<path class="st11" d="M328.7,319.1c2.2-21.8-2.6-44.2-13.7-63.2c-6.3-10.8-14.8-23.1-9.8-34.5c3.5-7.9,12.8-12,21.5-11.9
		s16.9,3.6,24.9,7c21.1,9,42.1,18.1,63.2,27.1c24.6,10.5,51.7,23.8,60.3,49.1c7,20.7-0.8,43.5-10.5,63.1
		c-11.4,23.2-25.8,45.4-46,61.5c-20.2,16.1-46.7,25.6-72.1,21c-16.2-2.9-32.6-13-36.9-29c-4.9-18.1,6.7-35.9,13.1-53.5
		C328.3,340.5,328.2,324,328.7,319.1z"/>
	<path class="st14" d="M1267.6,319.1c2.2-21.8-2.6-44.2-13.7-63.2c-6.3-10.8-14.8-23.1-9.8-34.5c3.5-7.9,12.8-12,21.5-11.9
		c8.7,0.1,16.9,3.6,24.9,7c21.1,9,42.1,18.1,63.2,27.1c24.6,10.5,51.7,23.8,60.3,49.1c7,20.7-0.8,43.5-10.5,63.1
		c-11.4,23.2-25.8,45.4-46,61.5c-20.2,16.1-46.7,25.6-72.1,21c-16.2-2.9-32.6-13-36.9-29c-4.9-18.1,6.7-35.9,13.1-53.5
		C1267.2,340.5,1267.1,324,1267.6,319.1z"/>
</g>
<g id="Calque_1" class="st15">
	<path class="st16" d="M252.6,163.5c16.8-37.8,35.9-78.3,72.3-98c22.2-12,48.2-14.7,73.5-14.1c16.7,0.4,33.4,2,49.4,6.8
		c36.4,10.8,67.3,37.7,85.1,71.3c17.9,33.5,23.1,73.2,17,110.7c-11,67.9-60.2,128.2-124.5,152.7c-42.1,16-91.6,16.5-130.6-6
		c-40.7-23.5-65.5-69.9-68.5-116.8S245.4,179.8,252.6,163.5z"/>
	<path class="st16" d="M322.8,146.5c20.6-24.9,57.6-33.5,88.1-22.8c30.5,10.7,53.4,38.8,60.7,70.3c4.2,18.2,3.5,37.5-1.9,55.4
		c-10.8,35.7-40.5,64.1-75.3,77.7c-17.6,6.9-37,10.4-55.7,7.1c-18.7-3.3-36.5-13.9-46-30.4c-8-13.9-9.6-30.7-8.5-46.7
		C287.4,211.6,307.3,165.3,322.8,146.5z"/>
	<path class="st16" d="M358.8,192.2c4.8-7,9.7-14.1,16.4-19.2c6.7-5.2,15.7-8.1,23.8-5.7c13.5,4,18.9,20.1,20,34.2
		c1.5,17.4-0.6,35.4-8.1,51.2c-7.5,15.8-20.8,29.2-37.4,34.6c-13,4.3-29.5,2.5-37.2-8.8c-6.1-9-4.9-21-2.2-31.5
		C339.7,225.7,349.7,205.5,358.8,192.2z"/>
	<path class="st16" d="M773.5,3.4c46.1-27.6,107.9-20.7,152.1,9.8s71.7,81.3,82.4,133.9c11.3,55.7,4.8,115.7-22.8,165.3
		s-77,87.8-133.1,97.1c-15.7,2.6-32.2,2.9-47.3-2.1c-11.7-3.9-22.1-10.9-31.8-18.5c-58.4-46.2-92.4-121.7-88.2-196.1
		C689.1,118.5,721.3,34.8,773.5,3.4z"/>
	<path class="st16" d="M742.4,202.1c13.8-39.9,29.4-82.1,63.3-107.3c15.6-11.6,35.9-18.8,54.5-13.5c17.3,5,30,19.7,40.4,34.4
		c18.6,26.4,33.4,55.5,43.9,86c8.1,23.6,13.4,50.6,1.9,72.8c-14,27.2-47.6,37.2-77.9,40.9c-22.9,2.8-46,3.5-69,2.2
		c-10.8-0.6-22.1-1.8-31.4-7.5c-7.5-4.6-13.2-11.7-17.7-19.3C731.8,260.4,735.2,223.2,742.4,202.1z"/>
	<path class="st16" d="M803.2,187.9c10.9-15.2,24.2-28.6,39.4-39.5c22.4,11.1,33.8,36.7,38.5,61.3c2.3,12.3,3.2,25.6-2.6,36.7
		c-4.5,8.4-12.4,14.4-20.6,19.1c-17.4,9.8-37.5,14.6-57.4,13.7c-9.4-0.4-19.6-2.5-25.6-9.8c-8.2-9.9-5.1-24.7-0.2-36.6
		C783.6,210.8,797.2,190.8,803.2,187.9z"/>
	<path class="st16" d="M800.2,235.2c13-17.9,28.7-33.8,46.5-47c10.8,8.4,13.7,24.6,8.6,37.3s-16.7,22-29.5,26.8
		c-6.6,2.5-14.4,3.8-20.4,0S798.1,238,800.2,235.2z"/>
	<path class="st16" d="M413-61c25.2-11.1,55.4-5.8,78.9,8.5s41.1,36.6,55.5,60c58.6,95.2,70.1,218,30.2,322.4
		C539.4,430,459.6,508.2,408,602.1c-8.9,16.2-17.1,35.6-9.9,52.6"/>
	<path class="st16" d="M728.8-120.2c-28.7,60.3-51,123.6-66.1,188.7c-18.8,80.6-26.7,165.1-10.8,246.4
		c13.7,70.1,44.5,135.6,77.5,199c24.1,46.4,50.4,96,43.8,147.9"/>
	<path class="st16" d="M596.7-127.7c35.9,170.2,36.9,347.7,2.8,518.3c-21,105.1-55.1,207.1-91.2,308"/>
</g>
<g id="Calque_3">
	<rect x="343.2" y="15.4" class="st10" width="403.4" height="57.2"/>
	<text transform="matrix(1 0 0 1 343.1894 49.5386)" class="st12 st17">Pre-Intervention</text>
	<rect x="1279.1" y="15.4" class="st10" width="403.4" height="57.2"/>
	<text transform="matrix(1 0 0 1 1279.0967 49.5386)" class="st12 st17">Post-Intervention</text>
	<rect x="1496.2" y="771.5" class="st10" width="403.4" height="57.2"/>
	<text transform="matrix(1 0 0 1 1496.2064 799.959)" class="st4 st12 st13">Changed Landscape</text>
	<rect x="1492.5" y="112.8" class="st10" width="206.4" height="99.9"/>
	<text transform="matrix(1 0 0 1 1492.4564 141.2624)"><tspan x="0" y="0" class="st11 st12 st13">Shifted</tspan><tspan x="0" y="48" class="st11 st12 st13">Community</tspan></text>
	<rect x="1235.2" y="105.5" class="st10" width="206.4" height="99.9"/>
	<text transform="matrix(1 0 0 1 1235.2408 133.9748)"><tspan x="0" y="0" class="st14 st12 st13">Original</tspan><tspan x="0" y="48" class="st14 st12 st13">Community</tspan></text>
</g>
</svg>
