<?xml version="1.0" encoding="utf-8"?>
<!-- Generator: Adobe Illustrator 25.3.1, SVG Export Plug-In . SVG Version: 6.00 Build 0)  -->
<svg version="1.1" id="Calque_1" xmlns="http://www.w3.org/2000/svg" xmlns:xlink="http://www.w3.org/1999/xlink" x="0px" y="0px"
	 viewBox="0 0 1023 699" style="enable-background:new 0 0 1023 699;" xml:space="preserve">
<style type="text/css">
	.st0{fill:#203655;}
	.st1{fill:#795F9E;}
	.st2{fill:none;}
	.st3{font-family:'Lato-Light';}
	.st4{font-size:40px;}
	.st5{font-size:36px;}
	.st6{fill:#FFFFFF;stroke:#203655;stroke-width:4;stroke-miterlimit:10;}
	.st7{fill:#FFFFFF;}
	.st8{fill:none;stroke:#0F071C;stroke-width:4;stroke-miterlimit:10;}
	.st9{fill:#0F071C;}
	.st10{fill:#FFFFFF;stroke:#0F071C;stroke-width:4;stroke-miterlimit:10;}
</style>
<g>
	<circle class="st0" cx="183" cy="206" r="50"/>
</g>
<g>
	<circle class="st0" cx="440" cy="209" r="50"/>
</g>
<g>
	<circle class="st0" cx="698" cy="214" r="50"/>
</g>
<g>
	<circle class="st0" cx="183" cy="347" r="50"/>
</g>
<g>
	<circle class="st0" cx="440" cy="350" r="50"/>
</g>
<g>
	<circle class="st0" cx="697" cy="357" r="50"/>
</g>
<g>
	<circle class="st1" cx="182" cy="500" r="50"/>
</g>
<g>
	<circle class="st1" cx="439" cy="503" r="50"/>
</g>
<g>
	<circle class="st1" cx="697" cy="503" r="50"/>
</g>
<g>
	<circle class="st1" cx="182" cy="641" r="50"/>
</g>
<g>
	<circle class="st1" cx="439" cy="644" r="50"/>
</g>
<g>
	<circle class="st1" cx="697" cy="649" r="50"/>
</g>
<rect x="873.56" y="440.13" class="st2" width="187.44" height="59.87"/>
<text transform="matrix(1 0 0 1 873.5645 469.2676)" class="st3 st4">Subjects</text>
<rect x="507.76" y="133.08" class="st2" width="187.44" height="59.87"/>
<text transform="matrix(1 0 0 1 507.7566 159.3044)" class="st3 st5">4 months</text>
<line class="st6" x1="370.49" y1="106.48" x2="370.49" y2="370"/>
<rect x="350.1" y="11" class="st2" width="257.9" height="94.95"/>
<text transform="matrix(1 0 0 1 350.0957 40.139)"><tspan x="0" y="0" class="st3 st4">Mindfulness </tspan><tspan x="0" y="48" class="st3 st4">Training</tspan></text>
<g>
	<line class="st7" x1="508" y1="178.97" x2="630.74" y2="178.97"/>
	<g>
		<line class="st8" x1="522.35" y1="178.97" x2="616.38" y2="178.97"/>
		<g>
			<polygon class="st9" points="525.27,188.95 508,178.98 525.27,169 			"/>
		</g>
		<g>
			<polygon class="st9" points="613.47,188.95 630.74,178.98 613.47,169 			"/>
		</g>
	</g>
</g>
<text transform="matrix(1 0 0 1 3.9229 155.5518)"><tspan x="0" y="0" class="st0 st3 st4">Trea</tspan><tspan x="79.16" y="0" class="st0 st3 st4">t</tspan><tspan x="94.22" y="0" class="st0 st3 st4">ed</tspan></text>
<polyline class="st10" points="840,679 840,193 796.13,192.95 "/>
<line class="st10" x1="841.91" y1="679" x2="798.04" y2="678.95"/>
<line class="st10" x1="868" y1="452.75" x2="839.66" y2="452.73"/>
<text transform="matrix(1 0 0 1 4.6476 448.4534)" class="st1 st3 st4">Control</text>
</svg>
