<?xml version="1.0" encoding="utf-8"?>
<!-- Generator: Adobe Illustrator 25.3.1, SVG Export Plug-In . SVG Version: 6.00 Build 0)  -->
<svg version="1.1" id="Calque_1" xmlns="http://www.w3.org/2000/svg" xmlns:xlink="http://www.w3.org/1999/xlink" x="0px" y="0px"
	 viewBox="0 0 864 699" style="enable-background:new 0 0 864 699;" xml:space="preserve">
<style type="text/css">
	.Ombre_x0020_portée{fill:none;}
	.Lueur_x0020_externe_x0020_5 pt{fill:none;}
	.Néon_x0020_bleu{fill:none;stroke:#8AACDA;stroke-width:7;stroke-linecap:round;stroke-linejoin:round;}
	.Ton_x0020_clair_x0020_chrome{fill:url(#SVGID_1_);stroke:#FFFFFF;stroke-width:0.3629;stroke-miterlimit:1;}
	.Swing_GS{fill:#FFDD00;}
	.Alysse_GS{fill:#A6D0E4;}
	.st0{fill:#203655;}
	.st1{fill:#795F9E;}
	.st2{fill:none;}
	.st3{font-family:'Lato-Light';}
	.st4{font-size:40px;}
	.st5{font-size:36px;}
	.st6{fill:#FFFFFF;stroke:#203655;stroke-width:4;stroke-miterlimit:10;}
	.st7{fill:#FFFFFF;}
	.st8{fill:none;stroke:#0F071C;stroke-width:4;stroke-miterlimit:10;}
	.st9{fill:#0F071C;}
	.st10{fill:#FFFFFF;stroke:#0F071C;stroke-width:4;stroke-miterlimit:10;}
</style>
<linearGradient id="SVGID_1_" gradientUnits="userSpaceOnUse" x1="-67" y1="-56" x2="-67" y2="-57">
	<stop  offset="0" style="stop-color:#656565"/>
	<stop  offset="0.618" style="stop-color:#1B1B1B"/>
	<stop  offset="0.6292" style="stop-color:#545454"/>
	<stop  offset="0.9831" style="stop-color:#3E3E3E"/>
</linearGradient>
<g>
	<circle class="st0" cx="252" cy="213" r="50"/>
</g>
<g>
	<circle class="st0" cx="539" cy="217" r="50"/>
</g>
<g>
	<circle class="st0" cx="252" cy="354" r="50"/>
</g>
<g>
	<circle class="st0" cx="538" cy="360" r="50"/>
</g>
<g>
	<circle class="st1" cx="251" cy="507" r="50"/>
</g>
<g>
	<circle class="st1" cx="538" cy="506" r="50"/>
</g>
<g>
	<circle class="st1" cx="251" cy="648" r="50"/>
</g>
<g>
	<circle class="st1" cx="538" cy="652" r="50"/>
</g>
<rect x="714.6" y="443.1" class="st2" width="187.4" height="59.9"/>
<text transform="matrix(1 0 0 1 714.5645 472.2676)" class="st3 st4">Subjects</text>
<rect x="348.8" y="136.1" class="st2" width="187.4" height="59.9"/>
<text transform="matrix(1 0 0 1 348.7566 162.3044)" class="st3 st5">4 months</text>
<line class="st6" x1="322.5" y1="106.5" x2="322.5" y2="370"/>
<rect x="302.1" y="11" class="st2" width="257.9" height="95"/>
<text transform="matrix(1 0 0 1 302.0957 40.139)"><tspan x="0" y="0" class="st3 st4">Mindfulness </tspan><tspan x="0" y="48" class="st3 st4">Training</tspan></text>
<g>
	<line class="st7" x1="349" y1="182" x2="471.7" y2="182"/>
	<g>
		<line class="st8" x1="363.4" y1="182" x2="457.4" y2="182"/>
		<g>
			<polygon class="st9" points="366.3,191.9 349,182 366.3,172 			"/>
		</g>
		<g>
			<polygon class="st9" points="454.5,191.9 471.7,182 454.5,172 			"/>
		</g>
	</g>
</g>
<text transform="matrix(1 0 0 1 62.9229 166.5518)"><tspan x="0" y="0" class="st0 st3 st4">Trea</tspan><tspan x="79.2" y="0" class="st0 st3 st4">t</tspan><tspan x="94.2" y="0" class="st0 st3 st4">ed</tspan></text>
<polyline class="st10" points="681,682 681,196 637.1,196 "/>
<line class="st10" x1="682.9" y1="682" x2="639" y2="681.9"/>
<line class="st10" x1="709" y1="455.8" x2="680.7" y2="455.7"/>
<text transform="matrix(1 0 0 1 9.6476 452.4534)"><tspan x="0" y="0" class="st1 st3 st4">Control</tspan><tspan x="0" y="48" class="st1 st3 st4">(active or </tspan><tspan x="0" y="96" class="st1 st3 st4">  waitlisted)</tspan></text>
</svg>
