<?xml version="1.0" encoding="utf-8"?>
<!-- Generator: Adobe Illustrator 25.3.1, SVG Export Plug-In . SVG Version: 6.00 Build 0)  -->
<svg version="1.1" id="Calque_1" xmlns="http://www.w3.org/2000/svg" xmlns:xlink="http://www.w3.org/1999/xlink" x="0px" y="0px"
	 viewBox="0 0 564 360.6" style="enable-background:new 0 0 564 360.6;" xml:space="preserve">
<style type="text/css">
	.st0{fill:#7767C0;stroke:#7767C0;stroke-width:12;stroke-miterlimit:10;}
	.st1{fill:none;stroke:#000000;stroke-width:3;stroke-miterlimit:10;}
	.st2{fill:#7767C0;stroke:#7767C0;stroke-width:3;stroke-miterlimit:10;}
	.st3{fill:#FFFFFF;stroke:#000000;stroke-miterlimit:10;}
	.st4{fill:none;}
	.st5{fill:#7767C0;}
	.st6{font-family:'ArialMT';}
	.st7{font-size:30px;}
	.st8{fill:none;stroke:#000000;stroke-width:3;stroke-miterlimit:10;stroke-dasharray:3.0049,3.0049;}
</style>
<g>
	<g>
		<line class="st0" x1="236.7" y1="187.2" x2="371.2" y2="189.6"/>
		<g>
			<polygon class="st0" points="367.3,202 389.1,189.9 367.8,177.1 			"/>
		</g>
	</g>
</g>
<g>
	<g>
		<line class="st1" x1="362.4" y1="67.4" x2="406.8" y2="134.7"/>
		<g>
			<polygon points="394.4,138.5 416.7,149.6 415.2,124.8 			"/>
		</g>
	</g>
</g>
<g>
	<g>
		<line class="st2" x1="219.9" y1="157.9" x2="294.1" y2="83"/>
		<g>
			<polygon class="st2" points="300.4,94.4 306.7,70.3 282.6,76.9 			"/>
		</g>
	</g>
</g>
<path class="st3" d="M167.4,40.2"/>
<g>
	<g>
		<path class="st1" d="M32.5,276c-17.7-129.8,97.2-235.8,220-247.9"/>
		<g>
			<polygon points="250.2,41 270.4,26.3 247.6,16.2 			"/>
		</g>
	</g>
</g>
<g>
	<g>
		<path class="st1" d="M403.2,249.7c-86.1,71.7-204.2,96.6-314.3,90"/>
		<g>
			<polygon points="392.2,242.6 416.7,237.9 408.6,261.5 			"/>
		</g>
	</g>
</g>
<rect x="94.8" y="167.1" class="st4" width="164.2" height="26.5"/>
<text transform="matrix(1 0 0 1 80.1693 187.2001)" class="st5 st6 st7">Treatment</text>
<rect x="294.7" y="28.8" class="st4" width="116.4" height="26.5"/>
<text transform="matrix(1 0 0 1 294.65 50.3145)" class="st6 st7">Diet</text>
<rect x="403.2" y="176.4" class="st4" width="179.8" height="26.5"/>
<text transform="matrix(1 0 0 1 403.2 197.8295)" class="st5 st6 st7">Microbiome</text>
<rect x="11.2" y="303" class="st4" width="116.4" height="26.5"/>
<text transform="matrix(1 0 0 1 13.3915 316.2495)" class="st6 st7">Baseline</text>
<g>
	<g>
		<path class="st1" d="M279.3,21c-0.1,0.1-0.3,0.6-0.6,1.4"/>
		<path class="st8" d="M277.6,25.1c-2.4,6.9-5.5,20.8,4.6,30.9c12.9,12.9,36.9,9.3,47.1,7.8c27.7-4.1,44.9-20.4,51.9-28.2"/>
		<path class="st1" d="M382.1,34.6c0.4-0.4,0.7-0.8,1-1.1"/>
	</g>
</g>
</svg>
