<?xml version="1.0" encoding="utf-8"?>
<!-- Generator: Adobe Illustrator 25.3.1, SVG Export Plug-In . SVG Version: 6.00 Build 0)  -->
<svg version="1.1" xmlns="http://www.w3.org/2000/svg" xmlns:xlink="http://www.w3.org/1999/xlink" x="0px" y="0px"
	 viewBox="0 0 564 360.6" style="enable-background:new 0 0 564 360.6;" xml:space="preserve">
<style type="text/css">
	.st0{fill:none;stroke:#000000;stroke-width:5;stroke-miterlimit:10;}
	.st1{fill:#FFFFFF;stroke:#000000;stroke-miterlimit:10;}
	.st2{fill:none;}
	.st3{font-family:'ArialMT';}
	.st4{font-size:30px;}
	.st5{fill:#FFFFFF;stroke:#000000;stroke-width:3;stroke-miterlimit:10;}
	.st6{fill:#6D76A6;stroke:#000000;stroke-miterlimit:10;}
	.st7{fill:none;stroke:#484F73;stroke-width:2;stroke-miterlimit:10;}
	.st8{fill:#F2D16D;stroke:#000000;stroke-width:2;stroke-miterlimit:10;}
	.st9{fill:#0367A6;stroke:#000000;stroke-width:2;stroke-miterlimit:10;}
</style>
<g id="Calque_1">
	<g>
		<g>
			<line class="st0" x1="362.4" y1="67.4" x2="406.8" y2="134.7"/>
			<g>
				<polygon points="394.4,138.5 416.7,149.6 415.2,124.8 				"/>
			</g>
		</g>
	</g>
	<g>
		<g>
			<line class="st0" x1="219.9" y1="157.9" x2="294.1" y2="83"/>
			<g>
				<polygon points="300.4,94.4 306.7,70.3 282.6,76.9 				"/>
			</g>
		</g>
	</g>
	<path class="st1" d="M167.4,40.2"/>
	<g>
		<g>
			<path class="st0" d="M32.5,276c-17.7-129.8,97.2-235.8,220-247.9"/>
			<g>
				<polygon points="250.2,41 270.4,26.3 247.6,16.2 				"/>
			</g>
		</g>
	</g>
	<g>
		<g>
			<path class="st0" d="M403.2,249.7c-86.1,71.7-204.2,96.6-314.3,90"/>
			<g>
				<polygon points="392.2,242.6 416.7,237.9 408.6,261.5 				"/>
			</g>
		</g>
	</g>
	<rect x="94.8" y="167.1" class="st2" width="164.2" height="26.5"/>
	<text transform="matrix(1 0 0 1 80.1693 187.2001)" class="st3 st4">Treatment</text>
	<rect x="294.7" y="28.8" class="st2" width="116.4" height="26.5"/>
	<text transform="matrix(1 0 0 1 294.65 50.3145)" class="st3 st4">Diet</text>
	<rect x="403.2" y="176.4" class="st2" width="179.8" height="26.5"/>
	<text transform="matrix(1 0 0 1 403.2 197.8295)" class="st3 st4">Microbiome</text>
	<rect x="11.2" y="303" class="st2" width="116.4" height="26.5"/>
	<text transform="matrix(1 0 0 1 13.3915 316.2495)" class="st3 st4">Baseline</text>
	<g>
		<g>
			<line class="st0" x1="236.7" y1="187.2" x2="371.2" y2="189.6"/>
			<g>
				<polygon points="367.3,202 389.1,189.9 367.8,177.1 				"/>
			</g>
		</g>
	</g>
	<line class="st5" x1="215.5" y1="246.4" x2="215.5" y2="311.3"/>
	<line class="st5" x1="215.6" y1="311.3" x2="315.6" y2="311.3"/>
	<circle class="st6" cx="229.7" cy="286" r="2"/>
	<circle class="st6" cx="224.9" cy="308.1" r="2"/>
	<circle class="st6" cx="261.3" cy="272" r="2"/>
	<circle class="st6" cx="287.9" cy="272" r="2"/>
	<circle class="st6" cx="280.1" cy="273.8" r="2"/>
	<circle class="st6" cx="251.9" cy="267.8" r="2"/>
	<circle class="st6" cx="302.6" cy="262" r="2"/>
	<circle class="st6" cx="278.6" cy="264" r="2"/>
	<circle class="st6" cx="240.9" cy="281.8" r="2"/>
	<circle class="st6" cx="268.5" cy="270" r="2"/>
	<circle class="st6" cx="308.1" cy="254.7" r="2"/>
	<circle class="st6" cx="229.7" cy="297.2" r="2"/>
	<path class="st7" d="M218,310.8c3.9-7.4,7.9-14.8,13-21.4c5.1-6.6,11.5-12.4,19.2-15.7c16.3-7,36.2-1.9,51.7-10.5
		c5.1-2.8,9.4-7,13.6-11.1"/>
	<line class="st5" x1="416.7" y1="43.9" x2="416.7" y2="114.6"/>
	<line class="st5" x1="416.7" y1="114.6" x2="521.7" y2="114.6"/>
	<circle class="st6" cx="479.3" cy="106.4" r="2.4"/>
	<circle class="st6" cx="523.6" cy="51.6" r="2.4"/>
	<circle class="st6" cx="476.2" cy="104.6" r="2.4"/>
	<circle class="st6" cx="516.6" cy="80.2" r="2.4"/>
	<circle class="st6" cx="515.4" cy="91.6" r="2.4"/>
	<circle class="st6" cx="430.5" cy="112.2" r="2.4"/>
	<circle class="st6" cx="522.2" cy="74.4" r="2.4"/>
	<circle class="st6" cx="501.6" cy="99.8" r="2.4"/>
	<circle class="st6" cx="488.3" cy="104" r="2.4"/>
	<circle class="st6" cx="491.9" cy="99.2" r="2.4"/>
	<circle class="st6" cx="446.8" cy="107" r="2.4"/>
	<circle class="st6" cx="463.4" cy="108.8" r="2.4"/>
	<path class="st7" d="M419.1,112.4c14.1-2.4,28.5-2.7,42.7-4.1c14.2-1.4,28.6-4,41.2-10.8c3.5-1.9,6.9-4.2,9.5-7.2
		c3.2-3.7,5-8.3,6.6-12.9c3.6-10.8,6-22.1,6.9-33.5"/>
	<line class="st5" x1="20.4" y1="34.1" x2="20.4" y2="88.1"/>
	<line class="st5" x1="20.4" y1="88.1" x2="98" y2="88.1"/>
	<circle class="st6" cx="66.7" cy="82.1" r="1.8"/>
	<circle class="st6" cx="99.4" cy="41.6" r="1.8"/>
	<circle class="st6" cx="64.4" cy="80.8" r="1.8"/>
	<circle class="st6" cx="94.2" cy="62.7" r="1.8"/>
	<circle class="st6" cx="93.3" cy="71.1" r="1.8"/>
	<circle class="st6" cx="30.6" cy="86.3" r="1.8"/>
	<circle class="st6" cx="98.3" cy="58.4" r="1.8"/>
	<circle class="st6" cx="83.1" cy="77.2" r="1.8"/>
	<circle class="st6" cx="73.3" cy="80.3" r="1.8"/>
	<circle class="st6" cx="76" cy="76.7" r="1.8"/>
	<circle class="st6" cx="42.7" cy="82.5" r="1.8"/>
	<circle class="st6" cx="54.9" cy="83.9" r="1.8"/>
	<path class="st7" d="M22.2,86.5c10.4-1.8,21-2,31.5-3s21.1-3,30.4-8c2.6-1.4,5.1-3.1,7-5.3c2.3-2.7,3.7-6.1,4.8-9.5
		c2.7-8,4.4-16.3,5.1-24.7"/>
	<rect x="243.3" y="115.1" class="st8" width="5.5" height="1.9"/>
	<rect x="149.3" y="111.7" class="st9" width="5.5" height="5.4"/>
	<rect x="154.9" y="97.3" class="st9" width="5.5" height="19.8"/>
	<rect x="160.4" y="85" class="st9" width="5.5" height="32.1"/>
	<rect x="165.9" y="90.2" class="st9" width="5.5" height="26.9"/>
	<rect x="171.4" y="94.6" class="st9" width="5.5" height="22.5"/>
	<rect x="177" y="99.6" class="st9" width="5.5" height="17.5"/>
	<rect x="182.5" y="103.6" class="st9" width="5.5" height="13.4"/>
	<rect x="188" y="106.4" class="st9" width="5.5" height="10.7"/>
	<rect x="193.6" y="110.1" class="st9" width="5.5" height="7"/>
	<rect x="199.1" y="111.8" class="st9" width="5.5" height="5.3"/>
	<rect x="204.6" y="114.2" class="st9" width="5.5" height="2.9"/>
	<rect x="210.1" y="114.4" class="st9" width="5.5" height="2.7"/>
	<rect x="215.7" y="115.5" class="st9" width="5.5" height="1.5"/>
	<rect x="221.2" y="116.3" class="st9" width="5.5" height="0.8"/>
	<rect x="269.5" y="181.8" class="st9" width="6.7" height="5.4"/>
	<rect x="276.2" y="177.8" class="st9" width="6.7" height="9.4"/>
	<rect x="160.4" y="112.1" class="st8" width="5.5" height="4.9"/>
	<rect x="165.9" y="107.2" class="st8" width="5.5" height="9.8"/>
	<rect x="171.4" y="101.3" class="st8" width="5.5" height="15.7"/>
	<rect x="177" y="102.9" class="st8" width="5.5" height="14.1"/>
	<rect x="182.5" y="99.6" class="st8" width="5.5" height="17.4"/>
	<rect x="188" y="98.4" class="st8" width="5.5" height="18.6"/>
	<rect x="193.6" y="97.4" class="st8" width="5.5" height="19.6"/>
	<rect x="199.1" y="99.4" class="st8" width="5.5" height="17.6"/>
	<rect x="204.6" y="104.6" class="st8" width="5.5" height="12.4"/>
	<rect x="210.1" y="101.3" class="st8" width="5.5" height="15.7"/>
	<rect x="215.7" y="104.6" class="st8" width="5.5" height="12.4"/>
	<rect x="221.2" y="107.2" class="st8" width="5.5" height="9.8"/>
	<rect x="226.7" y="107.2" class="st8" width="5.5" height="9.8"/>
	<rect x="232.3" y="110.8" class="st8" width="5.5" height="6.2"/>
	<rect x="237.8" y="109.6" class="st8" width="5.5" height="7.4"/>
	<rect x="283" y="158.9" class="st9" width="6.7" height="28.3"/>
	<rect x="289.7" y="149.8" class="st9" width="6.7" height="37.4"/>
	<rect x="296.5" y="162.6" class="st9" width="6.7" height="24.6"/>
	<rect x="303.2" y="167" class="st9" width="6.7" height="20.2"/>
	<rect x="310" y="170.7" class="st9" width="6.7" height="16.5"/>
	<rect x="316.7" y="177.1" class="st9" width="6.7" height="10.1"/>
	<rect x="323.4" y="181.8" class="st9" width="6.7" height="5.4"/>
	<rect x="330.2" y="182.5" class="st9" width="6.7" height="4.7"/>
	<rect x="336.9" y="182.1" class="st9" width="6.7" height="5.1"/>
	<rect x="343.7" y="184.5" class="st9" width="6.7" height="2.7"/>
	<rect x="350.4" y="185.9" class="st9" width="6.7" height="1.3"/>
	<rect x="269.5" y="122.4" class="st8" width="6.7" height="64"/>
	<rect x="269.5" y="123.2" class="st8" width="6.7" height="64"/>
	<rect x="276.2" y="167" class="st8" width="6.7" height="20.2"/>
	<rect x="283" y="175.1" class="st8" width="6.7" height="12.1"/>
	<rect x="289.7" y="181.1" class="st8" width="6.7" height="6.1"/>
	<rect x="296.5" y="177.1" class="st8" width="6.7" height="10.1"/>
	<rect x="303.2" y="182.1" class="st8" width="6.7" height="5.1"/>
	<rect x="310" y="184.2" class="st8" width="6.7" height="3"/>
	<rect x="316.7" y="185.7" class="st8" width="6.7" height="1.5"/>
	<rect x="323.4" y="182.1" class="st8" width="6.7" height="5.1"/>
	<rect x="330.2" y="184.7" class="st8" width="6.7" height="2.5"/>
</g>
<g id="Calque_2">
</g>
<g id="Calque_2_-_copie">
</g>
</svg>
