<?xml version="1.0" encoding="utf-8"?>
<!-- Generator: Adobe Illustrator 25.3.1, SVG Export Plug-In . SVG Version: 6.00 Build 0)  -->
<svg version="1.1" id="Calque_1" xmlns="http://www.w3.org/2000/svg" xmlns:xlink="http://www.w3.org/1999/xlink" x="0px" y="0px"
	 viewBox="0 0 564 360.6" style="enable-background:new 0 0 564 360.6;" xml:space="preserve">
<style type="text/css">
	.st0{fill:none;stroke:#000000;stroke-width:5;stroke-miterlimit:10;}
	.st1{fill:#FFFFFF;stroke:#000000;stroke-miterlimit:10;}
	.st2{fill:none;}
	.st3{font-family:'ArialMT';}
	.st4{font-size:30px;}
</style>
<g>
	<g>
		<line class="st0" x1="236.7" y1="187.2" x2="371.2" y2="189.6"/>
		<g>
			<polygon points="367.3,202 389.1,189.9 367.8,177.1 			"/>
		</g>
	</g>
</g>
<g>
	<g>
		<line class="st0" x1="362.4" y1="67.4" x2="406.8" y2="134.7"/>
		<g>
			<polygon points="394.4,138.5 416.7,149.6 415.2,124.8 			"/>
		</g>
	</g>
</g>
<g>
	<g>
		<line class="st0" x1="219.9" y1="157.9" x2="294.1" y2="83"/>
		<g>
			<polygon points="300.4,94.4 306.7,70.3 282.6,76.9 			"/>
		</g>
	</g>
</g>
<path class="st1" d="M167.4,40.2"/>
<g>
	<g>
		<path class="st0" d="M32.5,276c-17.7-129.8,97.2-235.8,220-247.9"/>
		<g>
			<polygon points="250.2,41 270.4,26.3 247.6,16.2 			"/>
		</g>
	</g>
</g>
<g>
	<g>
		<path class="st0" d="M403.2,249.7c-86.1,71.7-204.2,96.6-314.3,90"/>
		<g>
			<polygon points="392.2,242.6 416.7,237.9 408.6,261.5 			"/>
		</g>
	</g>
</g>
<rect x="94.8" y="167.1" class="st2" width="164.2" height="26.5"/>
<text transform="matrix(1 0 0 1 80.1693 187.2001)" class="st3 st4">Treatment</text>
<rect x="294.7" y="28.8" class="st2" width="116.4" height="26.5"/>
<text transform="matrix(1 0 0 1 294.65 50.3145)" class="st3 st4">Diet</text>
<rect x="403.2" y="176.4" class="st2" width="179.8" height="26.5"/>
<text transform="matrix(1 0 0 1 403.2 197.8295)" class="st3 st4">Microbiome</text>
<rect x="11.2" y="303" class="st2" width="116.4" height="26.5"/>
<text transform="matrix(1 0 0 1 13.3915 316.2495)" class="st3 st4">Baseline</text>
</svg>
