<?xml version="1.0" encoding="utf-8"?>
<!-- Generator: Adobe Illustrator 25.3.1, SVG Export Plug-In . SVG Version: 6.00 Build 0)  -->
<svg version="1.1" id="Calque_1" xmlns="http://www.w3.org/2000/svg" xmlns:xlink="http://www.w3.org/1999/xlink" x="0px" y="0px"
	 viewBox="0 0 432 216" style="enable-background:new 0 0 432 216;" xml:space="preserve">
<style type="text/css">
	.st0{fill:none;}
	.st1{clip-path:url(#SVGID_8_);}
	.st2{fill:none;stroke:#EBEBEB;stroke-width:1.07;stroke-linejoin:round;stroke-miterlimit:10;}
	.st3{fill:none;stroke:#D3D3D3;stroke-width:2.13;stroke-linejoin:round;stroke-miterlimit:10;}
	.st4{stroke:#000000;stroke-width:0.71;stroke-linecap:round;stroke-linejoin:round;stroke-miterlimit:10;}
	.st5{clip-path:url(#SVGID_10_);}
	.st6{fill:#4D4D4D;}
	.st7{font-family:'ArialMT';}
	.st8{font-size:8.8px;}
	.st9{font-size:11px;}
</style>
<rect class="st0" width="432" height="216"/>
<g>
	<defs>
		<rect id="SVGID_1_" width="432" height="216"/>
	</defs>
	<clipPath id="SVGID_2_">
		<use xlink:href="#SVGID_1_"  style="overflow:visible;"/>
	</clipPath>
</g>
<g>
	<defs>
		<rect id="SVGID_3_" x="127.5" width="177.1" height="216"/>
	</defs>
	<clipPath id="SVGID_4_">
		<use xlink:href="#SVGID_3_"  style="overflow:visible;"/>
	</clipPath>
</g>
<g>
	<defs>
		<rect id="SVGID_5_" width="432" height="216"/>
	</defs>
	<clipPath id="SVGID_6_">
		<use xlink:href="#SVGID_5_"  style="overflow:visible;"/>
	</clipPath>
</g>
<g>
	<defs>
		<rect id="SVGID_7_" x="158.8" y="5.5" width="140.3" height="178.8"/>
	</defs>
	<clipPath id="SVGID_8_">
		<use xlink:href="#SVGID_7_"  style="overflow:visible;"/>
	</clipPath>
	<g class="st1">
		<line class="st2" x1="158.8" y1="178.6" x2="299.1" y2="178.6"/>
		<line class="st2" x1="158.8" y1="131.2" x2="299.1" y2="131.2"/>
		<line class="st2" x1="158.8" y1="83.9" x2="299.1" y2="83.9"/>
		<line class="st2" x1="158.8" y1="36.5" x2="299.1" y2="36.5"/>
		<line class="st2" x1="177.9" y1="184.3" x2="177.9" y2="5.5"/>
		<line class="st2" x1="201.6" y1="184.3" x2="201.6" y2="5.5"/>
		<line class="st2" x1="225.3" y1="184.3" x2="225.3" y2="5.5"/>
		<line class="st2" x1="249" y1="184.3" x2="249" y2="5.5"/>
		<line class="st2" x1="272.6" y1="184.3" x2="272.6" y2="5.5"/>
		<line class="st2" x1="296.3" y1="184.3" x2="296.3" y2="5.5"/>
		<line class="st3" x1="225.3" y1="184.3" x2="225.3" y2="5.5"/>
		<line class="st3" x1="158.8" y1="83.9" x2="299.1" y2="83.9"/>
		<circle class="st4" cx="215.1" cy="74.3" r="1.2"/>
		<circle class="st4" cx="242.3" cy="63" r="1.2"/>
		<circle class="st4" cx="236.7" cy="42.7" r="1.2"/>
		<circle class="st4" cx="249.2" cy="58" r="1.2"/>
		<circle class="st4" cx="196.9" cy="76.4" r="1.2"/>
		<circle class="st4" cx="235.6" cy="77.1" r="1.2"/>
		<circle class="st4" cx="221.6" cy="69.7" r="1.2"/>
		<circle class="st4" cx="244.9" cy="31.1" r="1.2"/>
		<circle class="st4" cx="225.4" cy="91.8" r="1.2"/>
		<circle class="st4" cx="239.6" cy="29.8" r="1.2"/>
		<circle class="st4" cx="245.3" cy="95.9" r="1.2"/>
		<circle class="st4" cx="233.8" cy="98.3" r="1.2"/>
		<circle class="st4" cx="219.6" cy="104.7" r="1.2"/>
		<circle class="st4" cx="238.1" cy="64.7" r="1.2"/>
		<circle class="st4" cx="248.1" cy="29.1" r="1.2"/>
		<circle class="st4" cx="170.9" cy="159.1" r="1.2"/>
		<circle class="st4" cx="231.1" cy="65.9" r="1.2"/>
		<circle class="st4" cx="208.6" cy="80.3" r="1.2"/>
		<circle class="st4" cx="256.2" cy="30.2" r="1.2"/>
		<circle class="st4" cx="237.8" cy="79.3" r="1.2"/>
		<circle class="st4" cx="208.1" cy="117.7" r="1.2"/>
		<circle class="st4" cx="242.6" cy="36" r="1.2"/>
		<circle class="st4" cx="209.7" cy="102.1" r="1.2"/>
		<circle class="st4" cx="190.6" cy="112.6" r="1.2"/>
		<circle class="st4" cx="242.8" cy="45.4" r="1.2"/>
		<circle class="st4" cx="211.1" cy="66" r="1.2"/>
		<circle class="st4" cx="224.9" cy="68.1" r="1.2"/>
		<circle class="st4" cx="243.2" cy="69.7" r="1.2"/>
		<circle class="st4" cx="260.4" cy="46" r="1.2"/>
		<circle class="st4" cx="214.2" cy="76.4" r="1.2"/>
		<circle class="st4" cx="197.2" cy="100.1" r="1.2"/>
		<circle class="st4" cx="251.4" cy="113.8" r="1.2"/>
		<circle class="st4" cx="236.5" cy="70.7" r="1.2"/>
		<circle class="st4" cx="242.3" cy="97.1" r="1.2"/>
		<circle class="st4" cx="201.9" cy="118.1" r="1.2"/>
		<circle class="st4" cx="182.7" cy="95.8" r="1.2"/>
		<circle class="st4" cx="231.6" cy="94.1" r="1.2"/>
		<circle class="st4" cx="230.3" cy="91.7" r="1.2"/>
		<circle class="st4" cx="203" cy="36.7" r="1.2"/>
		<circle class="st4" cx="191.4" cy="113.7" r="1.2"/>
		<circle class="st4" cx="190.5" cy="87" r="1.2"/>
		<circle class="st4" cx="209" cy="68.9" r="1.2"/>
		<circle class="st4" cx="189.6" cy="80.7" r="1.2"/>
		<circle class="st4" cx="222.7" cy="60" r="1.2"/>
		<circle class="st4" cx="269.7" cy="82.2" r="1.2"/>
		<circle class="st4" cx="236.5" cy="86.2" r="1.2"/>
		<circle class="st4" cx="212" cy="83.2" r="1.2"/>
		<circle class="st4" cx="204.4" cy="94.3" r="1.2"/>
		<circle class="st4" cx="255" cy="101" r="1.2"/>
		<circle class="st4" cx="227.4" cy="91.1" r="1.2"/>
		<circle class="st4" cx="215.1" cy="63.1" r="1.2"/>
		<circle class="st4" cx="217" cy="111.1" r="1.2"/>
		<circle class="st4" cx="213.6" cy="111" r="1.2"/>
		<circle class="st4" cx="207.6" cy="118.7" r="1.2"/>
		<circle class="st4" cx="235.9" cy="69.2" r="1.2"/>
		<circle class="st4" cx="213.5" cy="83.1" r="1.2"/>
		<circle class="st4" cx="204.6" cy="121.4" r="1.2"/>
		<circle class="st4" cx="214.9" cy="91.1" r="1.2"/>
		<circle class="st4" cx="258.2" cy="71.4" r="1.2"/>
		<circle class="st4" cx="248.7" cy="37.6" r="1.2"/>
		<circle class="st4" cx="168.7" cy="110.3" r="1.2"/>
		<circle class="st4" cx="224" cy="112.5" r="1.2"/>
		<circle class="st4" cx="251.9" cy="107.2" r="1.2"/>
		<circle class="st4" cx="202.9" cy="116.5" r="1.2"/>
		<circle class="st4" cx="218.5" cy="87.1" r="1.2"/>
		<circle class="st4" cx="223.5" cy="89.6" r="1.2"/>
		<circle class="st4" cx="179.5" cy="176.1" r="1.2"/>
		<circle class="st4" cx="202.2" cy="68.5" r="1.2"/>
		<circle class="st4" cx="199.7" cy="102.9" r="1.2"/>
		<circle class="st4" cx="240.9" cy="27.8" r="1.2"/>
		<circle class="st4" cx="228" cy="106.5" r="1.2"/>
		<circle class="st4" cx="223.7" cy="65.7" r="1.2"/>
		<circle class="st4" cx="280.6" cy="60.4" r="1.2"/>
		<circle class="st4" cx="255.1" cy="84.7" r="1.2"/>
		<circle class="st4" cx="243.8" cy="74.5" r="1.2"/>
		<circle class="st4" cx="225.6" cy="45.4" r="1.2"/>
		<circle class="st4" cx="278.6" cy="38.5" r="1.2"/>
		<circle class="st4" cx="292.7" cy="35.1" r="1.2"/>
		<circle class="st4" cx="195.4" cy="123.9" r="1.2"/>
		<circle class="st4" cx="219.5" cy="106.9" r="1.2"/>
		<circle class="st4" cx="255" cy="84.5" r="1.2"/>
		<circle class="st4" cx="251.1" cy="43.8" r="1.2"/>
		<circle class="st4" cx="211.3" cy="91.8" r="1.2"/>
		<circle class="st4" cx="192.7" cy="107.9" r="1.2"/>
		<circle class="st4" cx="254.4" cy="66.4" r="1.2"/>
		<circle class="st4" cx="281.1" cy="38.7" r="1.2"/>
		<circle class="st4" cx="235.3" cy="82.8" r="1.2"/>
		<circle class="st4" cx="245.8" cy="103.1" r="1.2"/>
		<circle class="st4" cx="229.6" cy="95.6" r="1.2"/>
		<circle class="st4" cx="192.3" cy="135.6" r="1.2"/>
		<circle class="st4" cx="222.3" cy="86.5" r="1.2"/>
		<circle class="st4" cx="226.4" cy="55.4" r="1.2"/>
		<circle class="st4" cx="254.7" cy="56.2" r="1.2"/>
		<circle class="st4" cx="225.2" cy="121.4" r="1.2"/>
		<circle class="st4" cx="204.4" cy="85.1" r="1.2"/>
		<circle class="st4" cx="214.3" cy="71.6" r="1.2"/>
		<circle class="st4" cx="222.8" cy="37.5" r="1.2"/>
		<circle class="st4" cx="224" cy="87.9" r="1.2"/>
		<circle class="st4" cx="241.8" cy="72.2" r="1.2"/>
		<circle class="st4" cx="197.9" cy="87.7" r="1.2"/>
		<circle class="st4" cx="234.2" cy="82.1" r="1.2"/>
		<circle class="st4" cx="234" cy="94.5" r="1.2"/>
		<circle class="st4" cx="189.1" cy="101.2" r="1.2"/>
		<circle class="st4" cx="237" cy="104.5" r="1.2"/>
		<circle class="st4" cx="218.4" cy="55.2" r="1.2"/>
		<circle class="st4" cx="253.3" cy="34.2" r="1.2"/>
		<circle class="st4" cx="238.8" cy="63.8" r="1.2"/>
		<circle class="st4" cx="208.9" cy="80.4" r="1.2"/>
		<circle class="st4" cx="215.7" cy="71.9" r="1.2"/>
		<circle class="st4" cx="238.1" cy="75.1" r="1.2"/>
		<circle class="st4" cx="249.8" cy="78.9" r="1.2"/>
		<circle class="st4" cx="165.1" cy="139.2" r="1.2"/>
		<circle class="st4" cx="206.4" cy="83.1" r="1.2"/>
		<circle class="st4" cx="178.6" cy="96.1" r="1.2"/>
		<circle class="st4" cx="214.2" cy="119" r="1.2"/>
		<circle class="st4" cx="226" cy="70.1" r="1.2"/>
		<circle class="st4" cx="223" cy="102.8" r="1.2"/>
		<circle class="st4" cx="217" cy="70.5" r="1.2"/>
		<circle class="st4" cx="223.3" cy="109.1" r="1.2"/>
		<circle class="st4" cx="244.2" cy="76.4" r="1.2"/>
		<circle class="st4" cx="219.6" cy="58.4" r="1.2"/>
		<circle class="st4" cx="259.4" cy="40.4" r="1.2"/>
		<circle class="st4" cx="278.5" cy="33.3" r="1.2"/>
		<circle class="st4" cx="241.7" cy="101.2" r="1.2"/>
		<circle class="st4" cx="220" cy="38.9" r="1.2"/>
		<circle class="st4" cx="274.8" cy="68.1" r="1.2"/>
		<circle class="st4" cx="210.2" cy="46.6" r="1.2"/>
		<circle class="st4" cx="222.1" cy="75.9" r="1.2"/>
		<circle class="st4" cx="238.6" cy="47.1" r="1.2"/>
		<circle class="st4" cx="208.3" cy="73.9" r="1.2"/>
		<circle class="st4" cx="253.5" cy="108" r="1.2"/>
		<circle class="st4" cx="235" cy="20.8" r="1.2"/>
		<circle class="st4" cx="231.9" cy="24.2" r="1.2"/>
		<circle class="st4" cx="221.6" cy="88.2" r="1.2"/>
		<circle class="st4" cx="251.5" cy="86.4" r="1.2"/>
		<circle class="st4" cx="183.6" cy="112.8" r="1.2"/>
		<circle class="st4" cx="213.8" cy="104.8" r="1.2"/>
		<circle class="st4" cx="270.4" cy="35.6" r="1.2"/>
		<circle class="st4" cx="202" cy="89.8" r="1.2"/>
		<circle class="st4" cx="246.2" cy="67.3" r="1.2"/>
		<circle class="st4" cx="187.9" cy="94.6" r="1.2"/>
		<circle class="st4" cx="279.6" cy="36.4" r="1.2"/>
		<circle class="st4" cx="204.3" cy="73.2" r="1.2"/>
		<circle class="st4" cx="240.2" cy="93.2" r="1.2"/>
		<circle class="st4" cx="189.5" cy="100.3" r="1.2"/>
		<circle class="st4" cx="249.6" cy="87.4" r="1.2"/>
		<circle class="st4" cx="271.9" cy="56.2" r="1.2"/>
		<circle class="st4" cx="188.8" cy="144.9" r="1.2"/>
		<circle class="st4" cx="192" cy="117.4" r="1.2"/>
		<circle class="st4" cx="191.5" cy="147.2" r="1.2"/>
		<circle class="st4" cx="190" cy="112.2" r="1.2"/>
		<circle class="st4" cx="193.5" cy="120" r="1.2"/>
		<circle class="st4" cx="270.9" cy="37.1" r="1.2"/>
		<circle class="st4" cx="197.2" cy="130.6" r="1.2"/>
		<circle class="st4" cx="209.3" cy="88" r="1.2"/>
		<circle class="st4" cx="220.1" cy="30.1" r="1.2"/>
		<circle class="st4" cx="222" cy="68" r="1.2"/>
		<circle class="st4" cx="231.9" cy="74.3" r="1.2"/>
		<circle class="st4" cx="185.9" cy="108.3" r="1.2"/>
		<circle class="st4" cx="197.4" cy="106.6" r="1.2"/>
		<circle class="st4" cx="196.8" cy="108.9" r="1.2"/>
		<circle class="st4" cx="183.6" cy="100.8" r="1.2"/>
		<circle class="st4" cx="232.6" cy="88.4" r="1.2"/>
		<circle class="st4" cx="245.8" cy="59.4" r="1.2"/>
		<circle class="st4" cx="221" cy="67.9" r="1.2"/>
		<circle class="st4" cx="211.5" cy="117" r="1.2"/>
		<circle class="st4" cx="235" cy="70.2" r="1.2"/>
		<circle class="st4" cx="223.4" cy="63" r="1.2"/>
		<circle class="st4" cx="248.7" cy="58.7" r="1.2"/>
		<circle class="st4" cx="256.2" cy="30.8" r="1.2"/>
		<circle class="st4" cx="200.9" cy="132.2" r="1.2"/>
		<circle class="st4" cx="252.9" cy="87.6" r="1.2"/>
		<circle class="st4" cx="230.3" cy="66.6" r="1.2"/>
		<circle class="st4" cx="205.8" cy="118.6" r="1.2"/>
		<circle class="st4" cx="233.2" cy="87.1" r="1.2"/>
		<circle class="st4" cx="265.9" cy="53.6" r="1.2"/>
		<circle class="st4" cx="236.3" cy="70.1" r="1.2"/>
		<circle class="st4" cx="214" cy="60" r="1.2"/>
		<circle class="st4" cx="214.2" cy="98.3" r="1.2"/>
		<circle class="st4" cx="252.5" cy="13.6" r="1.2"/>
		<circle class="st4" cx="180.3" cy="121.3" r="1.2"/>
		<circle class="st4" cx="244.6" cy="82.9" r="1.2"/>
		<circle class="st4" cx="225.1" cy="94.6" r="1.2"/>
		<circle class="st4" cx="192.2" cy="97.4" r="1.2"/>
		<circle class="st4" cx="223.1" cy="139.3" r="1.2"/>
		<circle class="st4" cx="229.4" cy="75.6" r="1.2"/>
		<circle class="st4" cx="207.8" cy="112.5" r="1.2"/>
		<circle class="st4" cx="246.7" cy="59.6" r="1.2"/>
		<circle class="st4" cx="230.1" cy="70.9" r="1.2"/>
		<circle class="st4" cx="169.8" cy="116.6" r="1.2"/>
		<circle class="st4" cx="215.8" cy="95.1" r="1.2"/>
		<circle class="st4" cx="234.9" cy="71.7" r="1.2"/>
		<circle class="st4" cx="215.4" cy="126.3" r="1.2"/>
		<circle class="st4" cx="228" cy="68.4" r="1.2"/>
		<circle class="st4" cx="229.5" cy="96.8" r="1.2"/>
		<circle class="st4" cx="211.8" cy="78.6" r="1.2"/>
		<circle class="st4" cx="254.8" cy="37.1" r="1.2"/>
		<circle class="st4" cx="199.9" cy="118.6" r="1.2"/>
		<circle class="st4" cx="247.5" cy="76" r="1.2"/>
		<circle class="st4" cx="248.6" cy="57.8" r="1.2"/>
	</g>
</g>
<g>
	<defs>
		<rect id="SVGID_9_" width="432" height="216"/>
	</defs>
	<clipPath id="SVGID_10_">
		<use xlink:href="#SVGID_9_"  style="overflow:visible;"/>
	</clipPath>
	<g class="st5">
		<rect x="146" y="174.2" class="st0" width="7.8" height="10.4"/>
		<text transform="matrix(1 0 0 1 146.0054 181.7598)" class="st6 st7 st8">-4</text>
		<rect x="146" y="126.8" class="st0" width="7.8" height="10.4"/>
		<text transform="matrix(1 0 0 1 146.0054 134.3999)" class="st6 st7 st8">-2</text>
		<rect x="148.9" y="79.5" class="st0" width="4.9" height="10.4"/>
		<text transform="matrix(1 0 0 1 148.936 87.0298)" class="st6 st7 st8">0</text>
		<rect x="148.9" y="32.1" class="st0" width="4.9" height="10.4"/>
		<text transform="matrix(1 0 0 1 148.936 39.6699)" class="st6 st7 st8">2</text>
		<rect x="174" y="187.9" class="st0" width="7.8" height="10.4"/>
		<text transform="matrix(1 0 0 1 173.9976 195.5)" class="st6 st7 st8">-2</text>
		<rect x="197.7" y="187.9" class="st0" width="7.8" height="10.4"/>
		<text transform="matrix(1 0 0 1 197.6875 195.5)" class="st6 st7 st8">-1</text>
		<rect x="222.8" y="187.9" class="st0" width="4.9" height="10.4"/>
		<text transform="matrix(1 0 0 1 222.833 195.5)" class="st6 st7 st8">0</text>
		<rect x="246.5" y="187.9" class="st0" width="4.9" height="10.4"/>
		<text transform="matrix(1 0 0 1 246.5127 195.5)" class="st6 st7 st8">1</text>
		<rect x="270.2" y="187.9" class="st0" width="4.9" height="10.4"/>
		<text transform="matrix(1 0 0 1 270.1929 195.5)" class="st6 st7 st8">2</text>
		<rect x="293.9" y="187.9" class="st0" width="4.9" height="10.4"/>
		<text transform="matrix(1 0 0 1 293.8828 195.5)" class="st6 st7 st8">3</text>
		<rect x="226.2" y="198.7" class="st0" width="5.5" height="13"/>
		<text transform="matrix(1 0 0 1 226.16 208.09)" class="st7 st9">x</text>
		<rect x="131.4" y="92.1" class="st0" width="13" height="5.5"/>
		<text transform="matrix(6.123234e-17 -1 1 6.123234e-17 140.83 97.6201)" class="st7 st9">y</text>
	</g>
</g>
</svg>
