<?xml version="1.0" encoding="utf-8"?>
<!-- Generator: Adobe Illustrator 25.3.1, SVG Export Plug-In . SVG Version: 6.00 Build 0)  -->
<svg version="1.1" id="Calque_1" xmlns="http://www.w3.org/2000/svg" xmlns:xlink="http://www.w3.org/1999/xlink" x="0px" y="0px"
	 viewBox="0 0 360 360" style="enable-background:new 0 0 360 360;" xml:space="preserve">
<style type="text/css">
	.st0{fill:none;}
	.st1{clip-path:url(#SVGID_2_);}
	.st2{fill:none;stroke:#EBEBEB;stroke-width:1.07;stroke-linejoin:round;stroke-miterlimit:10;}
	.st3{fill:none;stroke:#D3D3D3;stroke-width:2.13;stroke-linejoin:round;stroke-miterlimit:10;}
	.st4{fill:#E5E5E5;stroke:#E5E5E5;stroke-width:0.71;stroke-linecap:round;stroke-linejoin:round;stroke-miterlimit:10;}
	.st5{fill:none;stroke:#F8E4DF;stroke-width:2.13;stroke-linejoin:round;stroke-miterlimit:10;}
	.st6{clip-path:url(#SVGID_4_);}
	.st7{fill:#4D4D4D;}
	.st8{font-family:'ArialMT';}
	.st9{font-size:8.8px;}
	.st10{font-size:11px;}
	.st11{fill:none;stroke:#D9674E;stroke-width:2.13;stroke-linejoin:round;}
	.st12{fill:#D9674E;}
	.st13{fill:none;stroke:#E3917E;stroke-width:2.13;stroke-linejoin:round;stroke-miterlimit:10;}
	.st14{font-family:'MyriadPro-Regular';}
	.st15{font-size:8px;}
</style>
<rect class="st0" width="360" height="360"/>
<g>
	<g>
		<defs>
			<rect id="SVGID_1_" x="31.3" y="32.3" width="323.2" height="269.2"/>
		</defs>
		<clipPath id="SVGID_2_">
			<use xlink:href="#SVGID_1_"  style="overflow:visible;"/>
		</clipPath>
		<g class="st1">
			<line class="st2" x1="31.3" y1="298.5" x2="354.5" y2="298.5"/>
			<line class="st2" x1="31.3" y1="245.6" x2="354.5" y2="245.6"/>
			<line class="st2" x1="31.3" y1="192.6" x2="354.5" y2="192.6"/>
			<line class="st2" x1="31.3" y1="139.7" x2="354.5" y2="139.7"/>
			<line class="st2" x1="31.3" y1="86.7" x2="354.5" y2="86.7"/>
			<line class="st2" x1="31.3" y1="33.8" x2="354.5" y2="33.8"/>
			<line class="st2" x1="62.4" y1="301.5" x2="62.4" y2="32.3"/>
			<line class="st2" x1="168.2" y1="301.5" x2="168.2" y2="32.3"/>
			<line class="st2" x1="274.1" y1="301.5" x2="274.1" y2="32.3"/>
			<line class="st3" x1="168.2" y1="301.5" x2="168.2" y2="32.3"/>
			<line class="st3" x1="31.3" y1="192.6" x2="354.5" y2="192.6"/>
			<circle class="st4" cx="138.6" cy="193.1" r="1.2"/>
			<circle class="st4" cx="156.1" cy="188.5" r="1.2"/>
			<circle class="st4" cx="250.8" cy="129.4" r="1.2"/>
			<circle class="st4" cx="172" cy="183.9" r="1.2"/>
			<circle class="st4" cx="175.1" cy="191.5" r="1.2"/>
			<circle class="st4" cx="259" cy="125" r="1.2"/>
			<circle class="st4" cx="192.6" cy="181.4" r="1.2"/>
			<circle class="st4" cx="101.3" cy="252.5" r="1.2"/>
			<circle class="st4" cx="131.9" cy="204.2" r="1.2"/>
			<circle class="st4" cx="144.6" cy="212.1" r="1.2"/>
			<circle class="st4" cx="233.1" cy="139.5" r="1.2"/>
			<circle class="st4" cx="187.3" cy="174.8" r="1.2"/>
			<circle class="st4" cx="189.5" cy="162.6" r="1.2"/>
			<circle class="st4" cx="174.1" cy="193.4" r="1.2"/>
			<circle class="st4" cx="138.8" cy="226.7" r="1.2"/>
			<circle class="st4" cx="262.9" cy="99.2" r="1.2"/>
			<circle class="st4" cx="194.6" cy="176.2" r="1.2"/>
			
				<ellipse transform="matrix(3.327813e-02 -0.9994 0.9994 3.327813e-02 -221.4761 338.2268)" class="st4" cx="64.1" cy="283.6" rx="1.2" ry="1.2"/>
			<circle class="st4" cx="205.4" cy="176" r="1.2"/>
			<circle class="st4" cx="143.2" cy="226.2" r="1.2"/>
			<circle class="st4" cx="111.7" cy="243.9" r="1.2"/>
			<circle class="st4" cx="156.7" cy="195.3" r="1.2"/>
			<circle class="st4" cx="113.9" cy="224.3" r="1.2"/>
			<circle class="st4" cx="129.7" cy="216" r="1.2"/>
			<circle class="st4" cx="135.1" cy="222.9" r="1.2"/>
			<circle class="st4" cx="78.9" cy="263.4" r="1.2"/>
			<circle class="st4" cx="212.6" cy="164.6" r="1.2"/>
			<circle class="st4" cx="176.4" cy="193.7" r="1.2"/>
			<circle class="st4" cx="108" cy="231.4" r="1.2"/>
			<circle class="st4" cx="234.6" cy="150.3" r="1.2"/>
			<circle class="st4" cx="190.8" cy="153.9" r="1.2"/>
			<circle class="st4" cx="152.6" cy="206.1" r="1.2"/>
			<circle class="st4" cx="215.6" cy="152.4" r="1.2"/>
			<circle class="st4" cx="214.7" cy="163.2" r="1.2"/>
			<circle class="st4" cx="211.7" cy="163.9" r="1.2"/>
			<circle class="st4" cx="204.7" cy="177.4" r="1.2"/>
			<circle class="st4" cx="197.6" cy="171.1" r="1.2"/>
			<circle class="st4" cx="165" cy="190.8" r="1.2"/>
			<circle class="st4" cx="152.1" cy="202.1" r="1.2"/>
			<circle class="st4" cx="148.1" cy="217" r="1.2"/>
			<circle class="st4" cx="131.5" cy="230.4" r="1.2"/>
			<circle class="st4" cx="157.2" cy="206.7" r="1.2"/>
			<circle class="st4" cx="101.2" cy="230.4" r="1.2"/>
			<circle class="st4" cx="283.1" cy="112.8" r="1.2"/>
			<circle class="st4" cx="232.2" cy="143.4" r="1.2"/>
			<circle class="st4" cx="108.8" cy="220" r="1.2"/>
			<circle class="st4" cx="146.9" cy="210.7" r="1.2"/>
			<circle class="st4" cx="143.5" cy="226.8" r="1.2"/>
			<circle class="st4" cx="209.5" cy="166.6" r="1.2"/>
			<circle class="st4" cx="163.8" cy="191" r="1.2"/>
			<circle class="st4" cx="181.6" cy="185.9" r="1.2"/>
			<circle class="st4" cx="166.7" cy="199.8" r="1.2"/>
			<circle class="st4" cx="166" cy="198.1" r="1.2"/>
			<circle class="st4" cx="240.7" cy="133.7" r="1.2"/>
			<circle class="st4" cx="156.3" cy="185.2" r="1.2"/>
			<circle class="st4" cx="248.5" cy="129.3" r="1.2"/>
			<circle class="st4" cx="86.2" cy="246.8" r="1.2"/>
			<circle class="st4" cx="199.2" cy="161.2" r="1.2"/>
			<circle class="st4" cx="174.8" cy="188.6" r="1.2"/>
			<circle class="st4" cx="179.7" cy="199.7" r="1.2"/>
			<circle class="st4" cx="188.3" cy="182.1" r="1.2"/>
			<circle class="st4" cx="141.6" cy="219.1" r="1.2"/>
			<circle class="st4" cx="150.6" cy="206.2" r="1.2"/>
			<circle class="st4" cx="114.3" cy="222" r="1.2"/>
			<circle class="st4" cx="111.5" cy="213.7" r="1.2"/>
			<circle class="st4" cx="184.3" cy="163.4" r="1.2"/>
			<circle class="st4" cx="192" cy="175" r="1.2"/>
			<circle class="st4" cx="171.1" cy="209" r="1.2"/>
			<circle class="st4" cx="217.1" cy="157.7" r="1.2"/>
			<circle class="st4" cx="276.8" cy="104.8" r="1.2"/>
			<circle class="st4" cx="142.2" cy="204.5" r="1.2"/>
			<circle class="st4" cx="46" cy="280.2" r="1.2"/>
			<circle class="st4" cx="221.5" cy="142.8" r="1.2"/>
			<circle class="st4" cx="130.7" cy="237.4" r="1.2"/>
			<circle class="st4" cx="131.8" cy="212.8" r="1.2"/>
			<circle class="st4" cx="222.5" cy="153.9" r="1.2"/>
			<circle class="st4" cx="153.2" cy="202.8" r="1.2"/>
			<circle class="st4" cx="103.6" cy="243.5" r="1.2"/>
			<circle class="st4" cx="177.8" cy="180.4" r="1.2"/>
			<circle class="st4" cx="160.9" cy="198.2" r="1.2"/>
			<circle class="st4" cx="168.6" cy="210" r="1.2"/>
			<circle class="st4" cx="188.6" cy="168.5" r="1.2"/>
			<circle class="st4" cx="148.6" cy="204.2" r="1.2"/>
			<circle class="st4" cx="202.4" cy="168.1" r="1.2"/>
			<circle class="st4" cx="156.6" cy="200.7" r="1.2"/>
			<circle class="st4" cx="185.8" cy="177.1" r="1.2"/>
			<circle class="st4" cx="226.3" cy="143.8" r="1.2"/>
			<circle class="st4" cx="191.3" cy="156.8" r="1.2"/>
			<circle class="st4" cx="151" cy="208.7" r="1.2"/>
			<circle class="st4" cx="229.1" cy="142.2" r="1.2"/>
			<circle class="st4" cx="220.8" cy="138.2" r="1.2"/>
			<circle class="st4" cx="197.3" cy="158.2" r="1.2"/>
			<circle class="st4" cx="180.9" cy="170.4" r="1.2"/>
			<circle class="st4" cx="135" cy="225.3" r="1.2"/>
			<circle class="st4" cx="240.3" cy="113.8" r="1.2"/>
			<circle class="st4" cx="136.5" cy="217.3" r="1.2"/>
			<circle class="st4" cx="284" cy="80.2" r="1.2"/>
			<circle class="st4" cx="249.4" cy="142" r="1.2"/>
			<circle class="st4" cx="155.8" cy="202.4" r="1.2"/>
			<circle class="st4" cx="113.9" cy="222.9" r="1.2"/>
			<circle class="st4" cx="130.6" cy="230.3" r="1.2"/>
			<circle class="st4" cx="181.8" cy="189.7" r="1.2"/>
			<circle class="st4" cx="155.2" cy="213" r="1.2"/>
			<circle class="st4" cx="149.8" cy="218.5" r="1.2"/>
			<circle class="st4" cx="117.9" cy="237.5" r="1.2"/>
			<circle class="st4" cx="165.9" cy="191" r="1.2"/>
			<circle class="st4" cx="126.7" cy="247.2" r="1.2"/>
			<circle class="st4" cx="79.9" cy="261" r="1.2"/>
			<circle class="st4" cx="148.1" cy="195.6" r="1.2"/>
			<circle class="st4" cx="216.9" cy="132.1" r="1.2"/>
			<circle class="st4" cx="137.8" cy="203.2" r="1.2"/>
			<circle class="st4" cx="200.4" cy="158.9" r="1.2"/>
			<circle class="st4" cx="82.6" cy="279.4" r="1.2"/>
			<circle class="st4" cx="165.3" cy="201.3" r="1.2"/>
			<circle class="st4" cx="195.7" cy="174.3" r="1.2"/>
			<circle class="st4" cx="184.2" cy="172.4" r="1.2"/>
			<circle class="st4" cx="173.8" cy="189.2" r="1.2"/>
			<circle class="st4" cx="134.3" cy="233.1" r="1.2"/>
			<circle class="st4" cx="123.3" cy="210.8" r="1.2"/>
			<circle class="st4" cx="114" cy="226.3" r="1.2"/>
			<circle class="st4" cx="174.5" cy="185.1" r="1.2"/>
			<circle class="st4" cx="118.1" cy="219.8" r="1.2"/>
			<circle class="st4" cx="142.3" cy="227.6" r="1.2"/>
			<circle class="st4" cx="154.7" cy="196.5" r="1.2"/>
			<circle class="st4" cx="265.9" cy="120.1" r="1.2"/>
			<circle class="st4" cx="133.7" cy="213" r="1.2"/>
			<circle class="st4" cx="180.7" cy="183.3" r="1.2"/>
			<circle class="st4" cx="172.4" cy="182.6" r="1.2"/>
			<circle class="st4" cx="117.3" cy="219.2" r="1.2"/>
			<circle class="st4" cx="164.5" cy="195.6" r="1.2"/>
			<circle class="st4" cx="244.7" cy="120.7" r="1.2"/>
			<circle class="st4" cx="192.1" cy="186.1" r="1.2"/>
			<circle class="st4" cx="170.4" cy="198.5" r="1.2"/>
			<circle class="st4" cx="145.9" cy="194.4" r="1.2"/>
			<circle class="st4" cx="59.5" cy="275.6" r="1.2"/>
			<circle class="st4" cx="228.1" cy="166.4" r="1.2"/>
			<circle class="st4" cx="90.9" cy="268.9" r="1.2"/>
			<circle class="st4" cx="207.4" cy="163.4" r="1.2"/>
			<circle class="st4" cx="269.3" cy="102.6" r="1.2"/>
			<circle class="st4" cx="91.8" cy="254.8" r="1.2"/>
			<circle class="st4" cx="205.4" cy="156.3" r="1.2"/>
			<circle class="st4" cx="154.4" cy="193.6" r="1.2"/>
			<circle class="st4" cx="85" cy="241.5" r="1.2"/>
			<circle class="st4" cx="88.1" cy="256.2" r="1.2"/>
			<circle class="st4" cx="83.5" cy="261" r="1.2"/>
			<circle class="st4" cx="140.1" cy="233.7" r="1.2"/>
			<circle class="st4" cx="90.9" cy="253.5" r="1.2"/>
			<circle class="st4" cx="204.7" cy="169.5" r="1.2"/>
			<circle class="st4" cx="279.4" cy="114" r="1.2"/>
			<circle class="st4" cx="100.1" cy="249" r="1.2"/>
			<circle class="st4" cx="209.9" cy="148.5" r="1.2"/>
			<circle class="st4" cx="209" cy="181.1" r="1.2"/>
			<circle class="st4" cx="185.8" cy="183.1" r="1.2"/>
			<circle class="st4" cx="114.9" cy="234.1" r="1.2"/>
			<circle class="st4" cx="161.9" cy="207.1" r="1.2"/>
			<circle class="st4" cx="153.4" cy="200.9" r="1.2"/>
			<circle class="st4" cx="198.1" cy="164.4" r="1.2"/>
			<circle class="st4" cx="148.5" cy="208.7" r="1.2"/>
			<circle class="st4" cx="220" cy="177.3" r="1.2"/>
			<circle class="st4" cx="148.4" cy="181.2" r="1.2"/>
			<circle class="st4" cx="224" cy="150.2" r="1.2"/>
			<circle class="st4" cx="112.7" cy="230.1" r="1.2"/>
			<circle class="st4" cx="101.5" cy="243.1" r="1.2"/>
			<circle class="st4" cx="339.8" cy="44.5" r="1.2"/>
			<circle class="st4" cx="146.2" cy="201.6" r="1.2"/>
			<circle class="st4" cx="184" cy="182.2" r="1.2"/>
			<circle class="st4" cx="201.9" cy="161.6" r="1.2"/>
			<circle class="st4" cx="142.6" cy="223.1" r="1.2"/>
			<circle class="st4" cx="195.6" cy="161.6" r="1.2"/>
			<circle class="st4" cx="187.8" cy="181.9" r="1.2"/>
			<circle class="st4" cx="156.8" cy="176.1" r="1.2"/>
			<circle class="st4" cx="171.7" cy="207.3" r="1.2"/>
			<circle class="st4" cx="166.4" cy="199" r="1.2"/>
			<circle class="st4" cx="280.9" cy="93.7" r="1.2"/>
			<circle class="st4" cx="129" cy="218.6" r="1.2"/>
			<circle class="st4" cx="110.2" cy="245.3" r="1.2"/>
			<circle class="st4" cx="170.2" cy="201.6" r="1.2"/>
			<circle class="st4" cx="184.7" cy="177.9" r="1.2"/>
			<circle class="st4" cx="191.4" cy="174.3" r="1.2"/>
			<circle class="st4" cx="144" cy="231" r="1.2"/>
			<circle class="st4" cx="111.9" cy="237.3" r="1.2"/>
			<circle class="st4" cx="235.1" cy="137.1" r="1.2"/>
			<circle class="st4" cx="149.7" cy="205.6" r="1.2"/>
			<circle class="st4" cx="122.4" cy="240.4" r="1.2"/>
			<circle class="st4" cx="155.7" cy="197.6" r="1.2"/>
			<circle class="st4" cx="157.8" cy="186.4" r="1.2"/>
			<circle class="st4" cx="227" cy="140.8" r="1.2"/>
			<circle class="st4" cx="172.7" cy="201.1" r="1.2"/>
			<circle class="st4" cx="208.2" cy="165.3" r="1.2"/>
			<circle class="st4" cx="141.8" cy="210.1" r="1.2"/>
			<circle class="st4" cx="179.6" cy="190.4" r="1.2"/>
			<circle class="st4" cx="151.1" cy="229.2" r="1.2"/>
			<circle class="st4" cx="173.2" cy="179.2" r="1.2"/>
			<circle class="st4" cx="120.8" cy="239.3" r="1.2"/>
			<circle class="st4" cx="98.8" cy="254.2" r="1.2"/>
			<circle class="st4" cx="274" cy="92.1" r="1.2"/>
			<circle class="st4" cx="200.1" cy="175.4" r="1.2"/>
			<circle class="st4" cx="102" cy="236.6" r="1.2"/>
			<circle class="st4" cx="135.9" cy="231.8" r="1.2"/>
			<circle class="st4" cx="105.5" cy="246.6" r="1.2"/>
			<polyline class="st5" points="46,289.2 49.7,286.3 53.4,283.3 57.2,280.4 60.9,277.4 64.6,274.5 68.3,271.5 72,268.6 75.8,265.6 
				79.5,262.7 83.2,259.7 86.9,256.8 90.6,253.8 94.3,250.9 98.1,247.9 101.8,244.9 105.5,242 109.2,239 112.9,236.1 116.7,233.1 
				120.4,230.2 124.1,227.2 127.8,224.3 131.5,221.3 135.3,218.4 139,215.4 142.7,212.4 146.4,209.5 150.1,206.6 153.9,203.6 
				157.6,200.6 161.3,197.7 165,194.7 168.7,191.8 172.4,188.8 176.2,185.9 179.9,182.9 183.6,180 187.3,177 191.1,174.1 
				194.8,171.1 198.5,168.1 202.2,165.2 205.9,162.2 209.6,159.3 213.4,156.3 217.1,153.4 220.8,150.4 224.5,147.5 228.2,144.5 
				232,141.6 235.7,138.6 239.4,135.7 243.1,132.7 246.8,129.8 250.6,126.8 254.3,123.8 258,120.9 261.7,117.9 265.4,115 269.2,112 
				272.9,109.1 276.6,106.1 280.3,103.2 284,100.2 287.8,97.3 291.5,94.3 295.2,91.3 298.9,88.4 302.6,85.4 306.4,82.5 310.1,79.5 
				313.8,76.6 317.5,73.6 321.2,70.7 325,67.7 328.7,64.8 332.4,61.8 336.1,58.9 339.8,55.9 			"/>
		</g>
	</g>
</g>
<g>
	<g>
		<defs>
			<rect id="SVGID_3_" width="360" height="360"/>
		</defs>
		<clipPath id="SVGID_4_">
			<use xlink:href="#SVGID_3_"  style="overflow:visible;"/>
		</clipPath>
		<g class="st6">
			<rect x="18.5" y="294.1" class="st0" width="7.8" height="10.4"/>
			<text transform="matrix(1 0 0 1 18.5454 301.6499)" class="st7 st8 st9">-2</text>
			<rect x="18.5" y="241.2" class="st0" width="7.8" height="10.4"/>
			<text transform="matrix(1 0 0 1 18.5454 248.71)" class="st7 st8 st9">-1</text>
			<rect x="21.5" y="188.2" class="st0" width="4.9" height="10.4"/>
			<text transform="matrix(1 0 0 1 21.4761 195.7598)" class="st7 st8 st9">0</text>
			<rect x="21.5" y="135.3" class="st0" width="4.9" height="10.4"/>
			<text transform="matrix(1 0 0 1 21.4761 142.8198)" class="st7 st8 st9">1</text>
			<rect x="21.5" y="82.3" class="st0" width="4.9" height="10.4"/>
			<text transform="matrix(1 0 0 1 21.4761 89.8799)" class="st7 st8 st9">2</text>
			<rect x="21.5" y="29.4" class="st0" width="4.9" height="10.4"/>
			<text transform="matrix(1 0 0 1 21.4761 36.9399)" class="st7 st8 st9">3</text>
			<rect x="58.4" y="305.2" class="st0" width="7.8" height="10.4"/>
			<text transform="matrix(1 0 0 1 58.4478 312.73)" class="st7 st8 st9">-2</text>
			<rect x="165.8" y="305.2" class="st0" width="4.9" height="10.4"/>
			<text transform="matrix(1 0 0 1 165.793 312.73)" class="st7 st8 st9">0</text>
			<rect x="271.7" y="305.2" class="st0" width="4.9" height="10.4"/>
			<text transform="matrix(1 0 0 1 271.6831 312.73)" class="st7 st8 st9">2</text>
			<rect x="190.2" y="315.9" class="st0" width="5.5" height="13"/>
			<text transform="matrix(1 0 0 1 190.16 325.31)" class="st8 st10">x</text>
			<rect x="3.9" y="164.1" class="st0" width="13" height="5.5"/>
			<text transform="matrix(6.123234e-17 -1 1 6.123234e-17 13.37 169.6201)" class="st8 st10">y</text>
		</g>
	</g>
</g>
<g>
	<g>
		<line class="st11" x1="213.4" y1="156.3" x2="278.3" y2="156.3"/>
		<g>
			<polygon class="st12" points="276.1,163.7 289,156.3 276.1,148.9 			"/>
		</g>
	</g>
</g>
<line class="st13" x1="213.4" y1="193.6" x2="213.4" y2="156.3"/>
<line class="st13" x1="289" y1="96.3" x2="289" y2="193.7"/>
<g>
	<g>
		<line class="st11" x1="289" y1="106.6" x2="289" y2="157.2"/>
		<g>
			<polygon class="st12" points="281.6,108.8 289,95.9 296.4,108.8 			"/>
		</g>
	</g>
</g>
<rect x="224.4" y="159.3" class="st0" width="46" height="23.5"/>
<text transform="matrix(1 0 0 1 224.3841 165.0168)"><tspan x="0" y="0" class="st14 st15">Planned </tspan><tspan x="0" y="9.6" class="st14 st15">Intervention</tspan></text>
<rect x="293" y="117.6" class="st0" width="46" height="23.5"/>
<text transform="matrix(1 0 0 1 293.0404 123.2731)"><tspan x="0" y="0" class="st14 st15">Expected </tspan><tspan x="0" y="9.6" class="st14 st15">Effect</tspan></text>
</svg>
