<?xml version="1.0" encoding="utf-8"?>
<!-- Generator: Adobe Illustrator 25.3.1, SVG Export Plug-In . SVG Version: 6.00 Build 0)  -->
<svg version="1.1" id="Calque_1" xmlns="http://www.w3.org/2000/svg" xmlns:xlink="http://www.w3.org/1999/xlink" x="0px" y="0px"
	 viewBox="0 0 511 280" style="enable-background:new 0 0 511 280;" xml:space="preserve">
<style type="text/css">
	.st0{fill:none;stroke:#000000;stroke-width:5;stroke-miterlimit:10;}
	.st1{fill:#FFFFFF;stroke:#000000;stroke-miterlimit:10;}
	.st2{fill:none;}
	.st3{font-family:'ArialMT';}
	.st4{font-size:30px;}
	.st5{enable-background:new    ;}
	.st6{fill:none;stroke:#000000;stroke-width:4;stroke-miterlimit:10;}
	.st7{fill:none;stroke:#000000;stroke-width:4;stroke-miterlimit:10;stroke-dasharray:5.2628,5.2628;}
</style>
<g>
	<g>
		<line class="st0" x1="153.7" y1="134.8" x2="288.2" y2="137.2"/>
		<g>
			<polygon points="284.3,149.6 306.1,137.5 284.8,124.7 			"/>
		</g>
	</g>
</g>
<g>
	<g>
		<line class="st0" x1="238.9" y1="22.6" x2="283.3" y2="89.9"/>
		<g>
			<polygon points="270.9,93.7 293.2,104.8 291.7,80 			"/>
		</g>
	</g>
</g>
<g>
	<g>
		<path class="st0" d="M194.7,31.2"/>
	</g>
</g>
<g>
	<g>
		<line class="st0" x1="216.2" y1="257.1" x2="290.4" y2="182.2"/>
		<g>
			<polygon points="296.7,193.6 303,169.5 278.9,176.1 			"/>
		</g>
	</g>
</g>
<path class="st1" d="M84.4-12.2"/>
<rect x="2.3" y="121.5" class="st2" width="164.2" height="26.5"/>
<text transform="matrix(1 0 0 1 2.2862 143.0094)" class="st3 st4">Treatment</text>
<rect x="73" y="2.9" class="st2" width="180.3" height="26.5"/>
<text transform="matrix(1 0 0 1 72.9826 24.3944)" class="st3 st4">Microbiome</text>
<rect x="320.2" y="123.9" class="st2" width="225.8" height="26.5"/>
<text transform="matrix(1 0 0 1 333.1537 131.6321)" class="st5"><tspan x="0" y="0" class="st3 st4">Depression / </tspan><tspan x="0" y="36" class="st3 st4">Distress</tspan></text>
<text transform="matrix(1 0 0 1 84.382 276.8524)" class="st3 st4">Baseline</text>
<g>
	<g>
		<path class="st6" d="M206.7,104.2c-0.1-0.8-0.3-1.6-0.4-2.5"/>
		<path class="st7" d="M205.5,96.5c-3.3-19.9-6.6-39.8-9.9-59.7"/>
		<path class="st6" d="M195.1,34.2c-0.1-0.8-0.3-1.6-0.4-2.5"/>
		<g>
			<polygon points="218,98.8 209.6,121.2 194.3,102.7 			"/>
		</g>
	</g>
</g>
</svg>
