<?xml version="1.0" encoding="utf-8"?>
<!-- Generator: Adobe Illustrator 25.3.1, SVG Export Plug-In . SVG Version: 6.00 Build 0)  -->
<svg version="1.1" id="Calque_1" xmlns="http://www.w3.org/2000/svg" xmlns:xlink="http://www.w3.org/1999/xlink" x="0px" y="0px"
	 viewBox="0 0 1426.2 730.3" style="enable-background:new 0 0 1426.2 730.3;" xml:space="preserve">
<style type="text/css">
	._x005B_Default_x005D_{fill:#FFFFFF;stroke:#000000;stroke-miterlimit:10;}
	.st0{fill:#D9BFB0;}
	.st1{opacity:0.8;}
	.st2{fill:#4177A6;}
	.st3{fill:none;}
	.st4{font-family:'SourceSansPro-Regular';}
	.st5{font-size:48px;}
	.st6{fill:none;stroke:#000000;stroke-width:4;stroke-miterlimit:10;}
	.st7{fill:none;stroke:#000000;stroke-width:3;stroke-miterlimit:10;}
</style>
<polygon class="st0" points="299,546.6 854.6,297.3 1417,554.2 "/>
<g class="st1">
	<g id="XMLID_1_">
		<g>
			<path class="st2" d="M885.5,287.7L1384,531.2c-206.5,7.2-413.8,2.1-618.8-24c-91.4-11.6-183.5-27.8-266.9-67.1
				c-43.7-20.6-84.8-47.6-118.1-82.7c-84.3-88.7-109.8-217.4-120.9-339.3c22.2,57.9,49.2,112,81.3,165.1
				c32.1,53,74.9,101,129.5,130.2c63.1,33.6,137.9,39.9,208.8,30.7C749.9,335,818,311.3,885.5,287.7z"/>
		</g>
		<g>
		</g>
	</g>
</g>
<rect x="137.7" y="622.5" class="st3" width="299.3" height="107.8"/>
<text transform="matrix(1 0 0 1 137.694 656.6869)"><tspan x="0" y="0" class="st4 st5">Only </tspan><tspan x="0" y="57.6" class="st4 st5">Lactobacillus</tspan></text>
<rect x="11.2" y="93.3" class="st3" width="299.3" height="107.8"/>
<text transform="matrix(1 0 0 1 11.2031 127.4847)" class="st4 st5">Stability</text>
<g>
	<g>
		<path class="st6" d="M227,501.2c-0.5-150.4-1-300.8-1.5-451.2"/>
		<g>
			<polygon points="245.5,55.7 225.5,21.2 205.6,55.8 			"/>
		</g>
	</g>
</g>
<g>
	<g>
		<line class="st7" x1="277.6" y1="635.4" x2="325.7" y2="586.1"/>
		<g>
			<polygon points="333.3,599.6 340.7,570.6 311.9,578.7 			"/>
		</g>
	</g>
</g>
</svg>
