<?xml version="1.0" encoding="utf-8"?>
<!-- Generator: Adobe Illustrator 25.3.1, SVG Export Plug-In . SVG Version: 6.00 Build 0)  -->
<svg version="1.1" id="Calque_1" xmlns="http://www.w3.org/2000/svg" xmlns:xlink="http://www.w3.org/1999/xlink" x="0px" y="0px"
	 viewBox="0 0 1378.6 531.2" style="enable-background:new 0 0 1378.6 531.2;" xml:space="preserve">
<style type="text/css">
	._x005B_Default_x005D_{fill:#FFFFFF;stroke:#000000;stroke-miterlimit:10;}
	.st0{fill:#D9BFB0;}
	.st1{opacity:0.8;fill:#4177A6;stroke:#000000;stroke-width:2;stroke-miterlimit:10;}
	.st2{fill:#4177A6;stroke:#000000;stroke-miterlimit:10;}
	.st3{fill:none;}
	.st4{font-family:'SourceSansPro-Regular';}
	.st5{font-size:48px;}
	.st6{fill:none;stroke:#000000;stroke-width:4;stroke-miterlimit:10;}
	.st7{fill:none;stroke:#000000;stroke-width:3;stroke-miterlimit:10;}
</style>
<polygon class="st0" points="248.4,512.3 804,263 1366.4,519.9 "/>
<path class="st1" d="M628.3,418.4c68-63.4,101.2-243,167.4-312.4c8.7-9.1,18.5-16.6,28.5-14.7c7.9,1.5,15.1,8.6,21.6,16.8
	c33.6,42.8,51,115.7,72.2,180.1s52.9,128.3,93.8,130"/>
<path class="st2" d="M723.9,247.5C784.5,235,847.2,222.6,906,249C859.5,268.6,811.1,276.8,723.9,247.5z"/>
<path class="st2" d="M691.9,317.7c60.6-12.6,178.9-24,237.7,2.5C883.1,339.7,779.1,346.9,691.9,317.7z"/>
<path class="st2" d="M628.3,418.4c126-16,255-31.9,378.8-1.9C869,436.8,729.8,448.6,628.3,418.4z"/>
<rect x="1048.5" y="266.7" class="st3" width="330.1" height="50.2"/>
<text transform="matrix(1 0 0 1 1048.4797 300.8259)" class="st4 st5">Diverse Mixture</text>
<rect x="11.9" y="98.7" class="st3" width="299.3" height="107.8"/>
<text transform="matrix(1 0 0 1 11.9408 132.9238)" class="st4 st5">Stability</text>
<g>
	<g>
		<path class="st6" d="M227.8,506.6c-0.5-150.4-1-300.8-1.5-451.2"/>
		<g>
			<polygon points="246.2,61.2 226.2,26.7 206.4,61.3 			"/>
		</g>
	</g>
</g>
<g>
	<g>
		<line class="st7" x1="1143.2" y1="320.7" x2="1017.2" y2="389.3"/>
		<g>
			<polygon points="1013.8,374.1 998.2,399.6 1028.2,400.3 			"/>
		</g>
	</g>
</g>
</svg>
