<?xml version="1.0" encoding="UTF-8" standalone="no"?>
<svg
   width="2377.3071"
   height="1095.0007"
   viewBox="0 0 2377.3071 1095.0007"
   version="1.1"
   xml:space="preserve"
   style="clip-rule:evenodd;fill-rule:evenodd;stroke-linejoin:round;stroke-miterlimit:2"
   id="svg17"
   sodipodi:docname="random-walk-laplacian.svg"
   inkscape:version="1.3.2 (091e20e, 2023-11-25)"
   xmlns:inkscape="http://www.inkscape.org/namespaces/inkscape"
   xmlns:sodipodi="http://sodipodi.sourceforge.net/DTD/sodipodi-0.dtd"
   xmlns="http://www.w3.org/2000/svg"
   xmlns:svg="http://www.w3.org/2000/svg"><defs
   id="defs17" /><sodipodi:namedview
   id="namedview17"
   pagecolor="#ffffff"
   bordercolor="#000000"
   borderopacity="0.25"
   inkscape:showpageshadow="2"
   inkscape:pageopacity="0.0"
   inkscape:pagecheckerboard="0"
   inkscape:deskcolor="#d1d1d1"
   inkscape:zoom="0.076724015"
   inkscape:cx="1759.5534"
   inkscape:cy="1264.2717"
   inkscape:window-width="1312"
   inkscape:window-height="449"
   inkscape:window-x="0"
   inkscape:window-y="37"
   inkscape:window-maximized="0"
   inkscape:current-layer="g8" />
    <g
   transform="translate(-93.643639,-41.236484)"
   id="g8">
        <g
   transform="translate(674.36949,-555.52543)"
   id="g2">
            <path
   d="m 860.857,690.982 c 29.939,-75.458 392.383,-179.687 345.783,76.587 -28.48,156.642 -103.1,416.211 178.65,331.301 1.54,-0.47 465.61,-196.339 396.26,108.81 -62,272.76 -606.6,564.36 -717.82,324.8 -52.58,-113.24 165.32,-384.93 48.72,-397.88 -146.677,-16.3 -427.638,152.82 -415.747,-90.95 2.564,-52.556 103.936,-280.952 181.89,-354.034"
   style="fill:#eff5f3"
   id="path1" />
            <path
   d="m 858.71,698.689 c -0.27,-0.076 -0.538,-0.166 -0.803,-0.271 -4.104,-1.629 -6.114,-6.283 -4.486,-10.387 5.241,-13.21 19.465,-27.556 40.01,-40.633 28.853,-18.366 70.306,-34.803 113.899,-43.701 66.58,-13.591 137.86,-9.103 178.05,30.575 27.15,26.803 40.96,69.714 29.14,134.728 -11.88,65.308 -31.93,148.626 -30.36,217.075 0.99,43.265 10.39,80.505 37.84,101.985 29.89,23.39 80.1,27.52 160.98,3.15 0.93,-0.28 170.11,-71.32 290.12,-61.77 42.06,3.35 78.18,16.6 100.3,44.76 21.94,27.92 30.55,70.99 15.95,135.25 -15.17,66.72 -58.49,134.64 -117.41,195.82 -87.63,90.99 -209.68,167.14 -322.96,202.56 -128.99,40.34 -246.43,27.26 -292.51,-71.98 -13.27,-28.59 -10.67,-66.78 0.03,-108.51 15.32,-59.71 46.9,-127.02 66.49,-182.38 10.39,-29.38 17.48,-55.19 16.14,-74.32 -0.56,-7.94 -2.58,-14.57 -7.01,-19.39 -4.46,-4.84 -11.23,-7.67 -20.55,-8.7 -72.87,-8.1 -179.042,30.12 -265.564,39.83 -55.295,6.2 -102.79,0.54 -130.779,-32.01 -18.629,-21.67 -29.027,-55.6 -26.515,-107.11 1.048,-21.48 17.993,-71.8 43.357,-129.123 33.914,-76.647 82.713,-166.005 126.641,-215.448 z m 17.187,-16.606 c 2.909,-1.038 6.286,-0.334 8.532,2.062 3.02,3.221 2.856,8.288 -0.365,11.307 -46.215,43.327 -100.574,142.015 -137.363,225.159 -24.28,54.871 -41.005,102.869 -42.008,123.429 -2.244,46 6.03,76.55 22.666,95.9 24.912,28.97 67.647,32.06 116.862,26.54 87.655,-9.84 195.299,-48.04 269.109,-39.84 12.53,1.4 21.74,5.51 28.32,11.54 7.82,7.16 12.14,17.17 13.3,29.67 1.03,11 -0.41,24.1 -3.74,38.77 -12.48,55.02 -51.99,133.68 -73.65,204.95 -13.75,45.22 -20.62,87.29 -6.57,117.54 42.9,92.41 153.11,101.01 273.22,63.45 110.91,-34.68 230.4,-109.29 316.21,-198.39 56.7,-58.88 98.73,-124.06 113.32,-188.27 13.14,-57.8 6.82,-96.7 -12.92,-121.82 -19.54,-24.88 -51.83,-35.73 -88.99,-38.69 -117.63,-9.36 -283.32,60.86 -284.24,61.14 -88.18,26.57 -142.86,19.64 -175.45,-5.87 -30.88,-24.17 -42.86,-65.54 -43.98,-114.218 -1.59,-69.459 18.56,-154.033 30.61,-220.304 10.55,-58 -0.41,-96.568 -24.63,-120.48 -36.87,-36.394 -102.54,-38.751 -163.61,-26.284 -41.515,8.474 -81.029,24.031 -108.507,41.521 -10.916,6.948 -19.925,14.079 -26.126,21.188 z"
   id="path2" />
        </g>
        <path
   d="m 1393.6395,396.79847 c 1.09,-7.94 6.03,-5.77 45.16,-89.383 44.46,-94.986 73.44,-99.415 108.41,-176.35799 24.77,-54.483004 220.72,-100.288004 256.8,-71.943004 39.55,31.08 59.96,15.764 68.44,64.948004 5.66,32.823 21.03,55.79299 6,110.91099 -3.64,13.332 -18.06,66.237 -28.48,170.365 -7.48,74.81 33.65,111.64 -5.99,139.39 -18.54,12.98 -16.95,15.05 -37.47,23.98 -46.16,20.07 -57.66,7.19 -112.41,14.49 -57.48,7.66 -55.23,17.71 -112.91,23.48 -64.01,6.4 -63.25,18.25 -135.89,10.99 -26.46,-2.65 -31.34,-2.95 -57.46,-32.47 -15.97,-18.06 -28.41,-89.88 2.5,-169.37 3.75,-9.65 4.08,-9.1 5.5,-18.98 0,-0.06 0,0 0.5,-0.5"
   style="fill:#adffe0"
   id="path3" />
        <path
   d="m 1392.2795,399.58847 c -1.17,-0.57 -1.91,-1.85 -1.72,-3.21 0.38,-2.77 1.1,-4.5 3.24,-8.15 4.28,-7.33 14.88,-23.781 42.19,-82.129 44.45,-94.971 73.43,-99.396 108.4,-176.32699 6.15,-13.537 22.37,-26.717 44.21,-38.282004 31.87,-16.887 75.73,-30.604 116,-38.041 26.95,-4.977 52.3,-7.137 71.42,-5.609 13.37,1.068 23.78,4.022 29.91,8.833 15.56,12.23 28.13,17.138 38.12,21.745 8.1,3.733 14.59,7.339 19.79,13.866 5.12,6.436 9.01,15.783004 11.67,31.251004 5.73,33.219 21.15,56.47199 5.93,112.25499 -3.62,13.292 -18,66.04 -28.38,169.858 -3.7,37.01 4.67,64.63 9.02,86.42 4.67,23.41 4.73,40.46 -16.32,55.2 -18.8,13.16 -17.2,15.24 -38.01,24.29 -28.27,12.28 -43.79,12.48 -63.76,12.27 -12.93,-0.14 -27.78,-0.45 -49.48,2.44 -57.53,7.68 -55.28,17.72 -113.01,23.5 -64.3,6.43 -63.54,18.29 -136.51,10.99 -13.76,-1.38 -21.89,-2.24 -29.99,-6.5 -8.02,-4.21 -16.05,-11.82 -29.48,-27.01 -5.03,-5.68 -9.82,-16.38 -13.05,-30.9 -7.28,-32.73 -6.94,-85.29 14.98,-141.64 3.15,-8.12 3.81,-8.75 4.83,-15.12 z m 5.6,-5.94 c 0.23,0.14 0.45,0.3 0.65,0.5 1.13,1.13 1.21,2.91 0.24,4.13 -1.35,9.22 -1.78,9.02 -5.54,18.68 -18.32,47.11 -21.25,91.5 -17.23,123.32 2.61,20.65 8.03,35.92 14.17,42.86 12.68,14.34 20.15,21.64 27.72,25.62 7.48,3.94 15.02,4.55 27.72,5.82 72.31,7.23 71.55,-4.62 135.27,-10.99 57.63,-5.76 55.38,-15.81 112.81,-23.47 22.09,-2.95 37.2,-2.64 50.37,-2.5 19.17,0.2 34.08,0.04 61.21,-11.76 20.24,-8.8 18.64,-10.88 36.93,-23.68 18.58,-13.01 17.91,-28.24 13.79,-48.89 -4.44,-22.26 -12.89,-50.46 -9.11,-88.26 10.45,-104.439 24.93,-157.5 28.57,-170.872 14.86,-54.454 -0.47,-77.13899 -6.06,-109.56599 -2.42,-14.043 -5.76,-22.596 -10.41,-28.439004 -4.58,-5.752 -10.4,-8.803 -17.53,-12.094 -10.33,-4.759 -23.28,-9.868 -39.36,-22.501 -5.42,-4.26 -14.73,-6.58 -26.57,-7.526 -18.68,-1.493 -43.46,0.662 -69.79,5.525 -39.65,7.323 -82.84,20.796 -114.23,37.423 -20.34,10.777004 -35.72,22.749004 -41.46,35.363004 -34.98,76.95699 -63.96,81.38799 -108.43,176.39099 -27.47,58.703 -38.15,75.246 -42.45,82.626 -0.53,0.9 -0.95,1.64 -1.28,2.29 z"
   style="fill:#a2cbb7"
   id="path4" />
        <g
   transform="translate(673.17949,-554.84553)"
   id="g6">
            <path
   d="m 860.857,690.982 c 29.939,-75.458 392.383,-179.687 345.783,76.587 -28.48,156.642 -103.1,416.211 178.65,331.301 1.54,-0.47 465.61,-196.339 396.26,108.81 -62,272.76 -606.6,564.36 -717.82,324.8 -52.58,-113.24 165.32,-384.93 48.72,-397.88 -146.677,-16.3 -427.638,152.82 -415.747,-90.95 2.564,-52.556 103.936,-280.952 181.89,-354.034"
   style="fill:#eff5f3;fill-opacity:0"
   id="path5" />
            <path
   d="m 858.71,698.689 c -0.27,-0.076 -0.538,-0.166 -0.803,-0.271 -4.104,-1.629 -6.114,-6.283 -4.486,-10.387 5.241,-13.21 19.465,-27.556 40.01,-40.633 28.853,-18.366 70.306,-34.803 113.899,-43.701 66.58,-13.591 137.86,-9.103 178.05,30.575 27.15,26.803 40.96,69.714 29.14,134.728 -11.88,65.308 -31.93,148.626 -30.36,217.075 0.99,43.265 10.39,80.505 37.84,101.985 29.89,23.39 80.1,27.52 160.98,3.15 0.93,-0.28 170.11,-71.32 290.12,-61.77 42.06,3.35 78.18,16.6 100.3,44.76 21.94,27.92 30.55,70.99 15.95,135.25 -15.17,66.72 -58.49,134.64 -117.41,195.82 -87.63,90.99 -209.68,167.14 -322.96,202.56 -128.99,40.34 -246.43,27.26 -292.51,-71.98 -13.27,-28.59 -10.67,-66.78 0.03,-108.51 15.32,-59.71 46.9,-127.02 66.49,-182.38 10.39,-29.38 17.48,-55.19 16.14,-74.32 -0.56,-7.94 -2.58,-14.57 -7.01,-19.39 -4.46,-4.84 -11.23,-7.67 -20.55,-8.7 -72.87,-8.1 -179.042,30.12 -265.564,39.83 -55.295,6.2 -102.79,0.54 -130.779,-32.01 -18.629,-21.67 -29.027,-55.6 -26.515,-107.11 1.048,-21.48 17.993,-71.8 43.357,-129.123 33.914,-76.647 82.713,-166.005 126.641,-215.448 z m 17.187,-16.606 c 2.909,-1.038 6.286,-0.334 8.532,2.062 3.02,3.221 2.856,8.288 -0.365,11.307 -46.215,43.327 -100.574,142.015 -137.363,225.159 -24.28,54.871 -41.005,102.869 -42.008,123.429 -2.244,46 6.03,76.55 22.666,95.9 24.912,28.97 67.647,32.06 116.862,26.54 87.655,-9.84 195.299,-48.04 269.109,-39.84 12.53,1.4 21.74,5.51 28.32,11.54 7.82,7.16 12.14,17.17 13.3,29.67 1.03,11 -0.41,24.1 -3.74,38.77 -12.48,55.02 -51.99,133.68 -73.65,204.95 -13.75,45.22 -20.62,87.29 -6.57,117.54 42.9,92.41 153.11,101.01 273.22,63.45 110.91,-34.68 230.4,-109.29 316.21,-198.39 56.7,-58.88 98.73,-124.06 113.32,-188.27 13.14,-57.8 6.82,-96.7 -12.92,-121.82 -19.54,-24.88 -51.83,-35.73 -88.99,-38.69 -117.63,-9.36 -283.32,60.86 -284.24,61.14 -88.18,26.57 -142.86,19.64 -175.45,-5.87 -30.88,-24.17 -42.86,-65.54 -43.98,-114.218 -1.59,-69.459 18.56,-154.033 30.61,-220.304 10.55,-58 -0.41,-96.568 -24.63,-120.48 -36.87,-36.394 -102.54,-38.751 -163.61,-26.284 -41.515,8.474 -81.029,24.031 -108.507,41.521 -10.916,6.948 -19.925,14.079 -26.126,21.188 z"
   id="path6" />
        </g>
        <path
   d="m 1610.5395,358.84447 c -0.43,-0.14 -1.26,-0.972 -1.18,-0.889"
   style="fill:#519b77"
   id="path7" />
        
    </g>
    <g
   transform="translate(-1817.651,-603.41316)"
   id="g17">
        <g
   transform="translate(1129.31,69.2494)"
   id="g10">
            <path
   d="m 860.857,690.982 c 29.939,-75.458 392.383,-179.687 345.783,76.587 -28.48,156.642 -103.1,416.211 178.65,331.301 1.54,-0.47 465.61,-196.339 396.26,108.81 -62,272.76 -606.6,564.36 -717.82,324.8 -52.58,-113.24 165.32,-384.93 48.72,-397.88 -146.677,-16.3 -427.638,152.82 -415.747,-90.95 2.564,-52.556 103.936,-280.952 181.89,-354.034"
   style="fill:#eff5f3"
   id="path9" />
            <path
   d="m 858.71,698.689 c -0.27,-0.076 -0.538,-0.166 -0.803,-0.271 -4.104,-1.629 -6.114,-6.283 -4.486,-10.387 5.241,-13.21 19.465,-27.556 40.01,-40.633 28.853,-18.366 70.306,-34.803 113.899,-43.701 66.58,-13.591 137.86,-9.103 178.05,30.575 27.15,26.803 40.96,69.714 29.14,134.728 -11.88,65.308 -31.93,148.626 -30.36,217.075 0.99,43.265 10.39,80.505 37.84,101.985 29.89,23.39 80.1,27.52 160.98,3.15 0.93,-0.28 170.11,-71.32 290.12,-61.77 42.06,3.35 78.18,16.6 100.3,44.76 21.94,27.92 30.55,70.99 15.95,135.25 -15.17,66.72 -58.49,134.64 -117.41,195.82 -87.63,90.99 -209.68,167.14 -322.96,202.56 -128.99,40.34 -246.43,27.26 -292.51,-71.98 -13.27,-28.59 -10.67,-66.78 0.03,-108.51 15.32,-59.71 46.9,-127.02 66.49,-182.38 10.39,-29.38 17.48,-55.19 16.14,-74.32 -0.56,-7.94 -2.58,-14.57 -7.01,-19.39 -4.46,-4.84 -11.23,-7.67 -20.55,-8.7 -72.87,-8.1 -179.042,30.12 -265.564,39.83 -55.295,6.2 -102.79,0.54 -130.779,-32.01 -18.629,-21.67 -29.027,-55.6 -26.515,-107.11 1.048,-21.48 17.993,-71.8 43.357,-129.123 33.914,-76.647 82.713,-166.005 126.641,-215.448 z m 17.187,-16.606 c 2.909,-1.038 6.286,-0.334 8.532,2.062 3.02,3.221 2.856,8.288 -0.365,11.307 -46.215,43.327 -100.574,142.015 -137.363,225.159 -24.28,54.871 -41.005,102.869 -42.008,123.429 -2.244,46 6.03,76.55 22.666,95.9 24.912,28.97 67.647,32.06 116.862,26.54 87.655,-9.84 195.299,-48.04 269.109,-39.84 12.53,1.4 21.74,5.51 28.32,11.54 7.82,7.16 12.14,17.17 13.3,29.67 1.03,11 -0.41,24.1 -3.74,38.77 -12.48,55.02 -51.99,133.68 -73.65,204.95 -13.75,45.22 -20.62,87.29 -6.57,117.54 42.9,92.41 153.11,101.01 273.22,63.45 110.91,-34.68 230.4,-109.29 316.21,-198.39 56.7,-58.88 98.73,-124.06 113.32,-188.27 13.14,-57.8 6.82,-96.7 -12.92,-121.82 -19.54,-24.88 -51.83,-35.73 -88.99,-38.69 -117.63,-9.36 -283.32,60.86 -284.24,61.14 -88.18,26.57 -142.86,19.64 -175.45,-5.87 -30.88,-24.17 -42.86,-65.54 -43.98,-114.218 -1.59,-69.459 18.56,-154.033 30.61,-220.304 10.55,-58 -0.41,-96.568 -24.63,-120.48 -36.87,-36.394 -102.54,-38.751 -163.61,-26.284 -41.515,8.474 -81.029,24.031 -108.507,41.521 -10.916,6.948 -19.925,14.079 -26.126,21.188 z"
   id="path10" />
        </g>
        <path
   d="m 2066.72,982.396 c -0.43,-0.14 -1.26,-0.972 -1.18,-0.889"
   style="fill:#519b77"
   id="path11" />
        
        <path
   d="m 2102.46,937.919 c 1.84,5.24 -0.91,10.99 -6.15,12.833 -5.24,1.844 -10.99,-0.914 -12.84,-6.153 -3.82,-10.874 -3.39,-18.302 -1.45,-23.43 2.46,-6.475 7.4,-10.474 13.81,-12.868 4.04,-1.506 8.78,-2.298 13.22,-3.233 2.14,-0.45 4.27,-0.609 5.59,-1.746 0.81,-0.692 0.37,-1.838 0.43,-2.895 0.14,-2.605 0.05,-5.345 0.22,-8.001 0.46,-7.36 2.67,-14.072 9.4,-18.967 4.29,-3.116 7.91,-4.263 11.39,-4.954 3.62,-0.717 6.9,-0.333 12.71,-7.599 3.47,-4.337 9.81,-5.041 14.15,-1.571 4.34,3.469 5.04,9.808 1.57,14.145 -8.41,10.509 -14.48,12.729 -19.76,13.906 -2.59,0.577 -5.06,0.056 -8.22,2.351 -1.02,0.743 -0.97,1.933 -1.08,3.035 -0.24,2.362 -0.15,4.833 -0.22,7.214 -0.22,7.327 -1.97,13.892 -7.49,18.618 -4.07,3.491 -10.37,5.355 -17.07,6.67 -2.34,0.46 -4.72,0.891 -6.89,1.574 -1.13,0.354 -2.38,0.405 -2.9,1.385 -0.39,0.726 -0.27,1.7 -0.13,2.958 0.22,1.911 0.8,4.127 1.71,6.728 z"
   style="fill:#a2cbb7"
   id="path13" />
        <path
   d="m 2118.83,1023.81 c 3.8,-3.94 11.05,-12.78 10.6,-22.53 -0.28,-6.019 -2.78,-12.753 -8.46,-20.139 -6.33,-8.227 -7.83,-15.197 -7.29,-20.406 1.24,-11.893 13.7,-19.339 27.83,-17.916 11.94,1.204 23.41,8.534 26.3,20.051 1.42,-0.314 3.28,-0.761 4.6,-1.21 6.89,-2.337 14.01,-4.618 18.76,-4.09 13.62,1.513 19.17,8.197 20.8,14.321 1.65,6.177 -0.56,14.166 -7.36,20.967 -3.93,3.927 -10.31,3.927 -14.23,0 -3.93,-3.928 -3.93,-10.305 0,-14.233 0.19,-0.193 0.39,-0.425 0.59,-0.671 -0.66,-0.162 -1.36,-0.307 -2.02,-0.38 -1.62,-0.18 -3.71,0.934 -6.02,1.738 -4.6,1.594 -9.47,3.32 -13.66,3.881 -2.61,0.349 -5.06,0.308 -7.26,-0.119 l -2.76,-0.768 -2.78,-1.339 -3.16,-2.519 -2.45,-3.222 c -1.11,-1.89 -2.02,-4.253 -2.52,-7.238 -0.29,-1.694 -1.71,-2.713 -3.19,-3.502 -2.58,-1.371 -5.75,-1.918 -8.57,-1.67 -0.81,0.072 -1.92,0.421 -2.63,0.669 0.46,1.127 1.51,3.481 2.97,5.384 10.54,13.697 13.33,26.25 12.54,36.861 -1.2,16.24 -11.18,28.34 -17.97,34.14 -2.34,2 -4.38,3.32 -5.69,4 l -4.2,1.4 c -6.62,0.88 -11.34,-0.69 -14.8,-3.2 l -2.33,-2.01 -1.85,-2.26 c -1.39,-2.01 -2.45,-4.39 -3.14,-7.09 -2.05,-8.05 0.12,-20.38 0.38,-28.31 0.19,-5.554 4.84,-9.911 10.39,-9.726 5.55,0.184 9.91,4.841 9.73,10.396 -0.16,4.74 -1.23,11.23 -1.38,17.17 -0.03,1.06 0.09,2.4 0.23,3.57 z"
   style="fill:#a2cbb7"
   id="path14" />
        <path
   d="m 2081.53,1057.74 c 0.23,0.06 0.47,0.12 0.7,0.16 18.58,3.85 22.39,12.91 23,20.77 0.25,3.16 -0.64,8.09 -1.32,11.26 1.5,0.84 2.67,1.65 3.59,2.45 l 2.58,2.85 1.89,3.92 c 1.01,3.4 0.66,8.12 -2.67,15.43 -2.3,5.06 -8.27,7.3 -13.33,5 -5.05,-2.3 -7.29,-8.27 -4.99,-13.32 0.04,-0.1 0.08,-0.19 0.12,-0.28 l -3.09,-1.89 -3,-3.57 -1.36,-3.19 -0.58,-4.21 c -0.01,-2.17 0.45,-4.71 1.11,-7.43 0.3,-1.21 0.64,-2.48 0.85,-3.78 0.1,-0.59 0.35,-1.2 0.13,-1.78 -0.12,-0.32 -0.58,-0.36 -1.06,-0.61 -1.48,-0.78 -3.43,-1.39 -5.94,-1.91 -9.44,-1.95 -13.96,-5.4 -16.13,-8.38 l -1.72,-3.12 -0.89,-3.38 -0.08,-3.16 0.45,-2.72 c 0.73,-2.99 2.7,-6.56 5.04,-10.56 1.84,-3.13 4.19,-6.77 4.19,-11.22 0,-5.55 4.51,-10.06 10.07,-10.06 5.55,0 10.06,4.51 10.06,10.06 0,7.17 -2.53,13.46 -5.49,18.84 -0.65,1.17 -1.42,2.56 -2.13,3.83 z"
   style="fill:#a2cbb7"
   id="path15" />
        <path
   d="m 2010.45,927.119 c 0.17,-0.355 0.37,-0.749 0.52,-1.03 3.83,-7.024 10.09,-10.62 16.81,-12.076 3.1,-0.671 6.75,-0.751 9.98,-0.613 -0.05,-1.052 -0.06,-2.31 -1.3,-2.586 -5.42,-1.205 -8.85,-6.585 -7.64,-12.007 1.2,-5.422 6.58,-8.846 12,-7.641 15.85,3.522 18.56,20.068 16.43,30.454 -0.43,2.091 -1.02,3.881 -1.61,5.213 l -2.55,3.99 -2.6,2.083 -3.23,1.222 -3.08,0.152 c -0.77,-0.071 -3.53,-0.71 -6.98,-0.898 -1.6,-0.087 -3.41,-0.078 -5.16,0.303 -1.29,0.278 -2.67,0.696 -3.4,2.043 -0.86,1.564 -1.44,2.968 -2.66,4.468 -1.99,2.442 -6.14,5.951 -20.69,9.45 0.12,4.072 -0.09,6.967 -0.8,9.68 -1.11,4.284 -3.42,8.285 -8.6,15.406 0.38,0.09 0.73,0.166 1.05,0.217 2.89,0.463 5.86,0.544 7.97,0.537 1.68,-0.006 2.84,-0.075 3.06,-0.084 l 1.6,0.051 2.95,0.795 2.53,1.6 c 4.19,3.636 4.65,9.997 1.01,14.196 -1.89,2.187 -4.53,3.358 -7.21,3.465 0,0 0.01,10e-4 0.01,10e-4 0,0 -0.46,0.023 -0.98,0.043 -3.34,0.128 -13.13,0.161 -20.28,-2.179 -3.14,-1.028 -5.87,-2.5 -7.95,-4.289 l -2.52,-2.68 -2,-3.535 c -1.83,-4.526 -2.12,-10.958 3.87,-19.13 3.37,-4.601 5.32,-6.8 6.01,-9.468 0.72,-2.785 0.14,-5.865 -0.34,-11.868 -0.41,-5.133 3.12,-9.747 8.18,-10.695 9.44,-1.767 15.85,-3.959 17.6,-4.59 z"
   style="fill:#a2cbb7"
   id="path16" />
        <path
   d="m 1961.9,1029.9 c -0.06,0.4 -0.18,1.31 -0.15,2.01 0.05,1.5 0.33,3.25 0.81,5.29 0.24,1.02 1.03,1.89 1.9,2.82 1.68,1.8 3.88,3.45 6.28,5.03 8.85,5.78 20.38,10.16 26.44,12.75 3.49,1.49 5.81,2.87 6.7,3.61 l 2.6,3.17 1.13,3.47 c 0.53,3.85 0.06,7.78 0.01,11.68 1.03,0.52 2.54,1.2 3.74,1.44 1.54,0.31 3.27,0.73 4.47,-0.25 1.04,-0.85 1.14,-2.48 1.2,-4.74 0.08,-3.14 -0.49,-7 -1.76,-11.72 -1.04,-1.58 -11.34,-17.28 -13.53,-25.89 -0.88,-3.46 -1.01,-6.67 -0.48,-9.42 l 1.16,-3.68 2.23,-3.53 c 2.97,-3.51 8.38,-6.71 18.2,-6 5.53,0.41 9.71,5.23 9.3,10.77 -0.38,5.23 -4.7,9.24 -9.85,9.33 0.66,1.67 1.49,3.64 2.3,5.1 4.26,7.65 9.25,15 9.89,17.28 5.2,18.72 1.77,29.52 -3.14,35.34 -3.94,4.67 -9.28,7.08 -15.05,7.64 -6.99,0.7 -14.62,-1.55 -19.76,-4.71 -2.75,-1.69 -4.86,-3.67 -6.23,-5.54 l -2,-3.77 -0.71,-3.46 c -0.18,-2.68 0.12,-5.38 0.23,-8.07 -7.19,-2.98 -22.52,-9.69 -31.4,-16.24 -7.09,-5.23 -11.97,-11.48 -13.46,-17.8 -2.78,-11.78 -0.81,-18.79 2.23,-23.29 3.36,-4.96 8.72,-7.69 15.1,-9.28 5.38,-1.35 10.85,1.93 12.2,7.32 1.35,5.39 -1.93,10.86 -7.32,12.21 -1.07,0.26 -2.75,0.92 -3.28,1.13 z"
   style="fill:#a2cbb7"
   id="path17" />
    </g>
<circle
   style="fill:#29835d;fill-opacity:1;stroke:none;stroke-width:1.00157"
   id="path18"
   cx="242.9975"
   cy="382.79459"
   r="33.85939" /><circle
   style="clip-rule:evenodd;fill:#29835d;fill-opacity:1;fill-rule:evenodd;stroke:none;stroke-width:1.00157;stroke-linejoin:round;stroke-miterlimit:2"
   id="path18-3"
   cx="1512.9705"
   cy="314.48361"
   r="33.85939" /></svg>
