<?xml version="1.0" encoding="UTF-8" standalone="no"?>
<!DOCTYPE svg PUBLIC "-//W3C//DTD SVG 1.1//EN" "http://www.w3.org/Graphics/SVG/1.1/DTD/svg11.dtd">
<svg width="100%" height="100%" viewBox="0 0 2716 1294" version="1.1" xmlns="http://www.w3.org/2000/svg" xmlns:xlink="http://www.w3.org/1999/xlink" xml:space="preserve" xmlns:serif="http://www.serif.com/" style="fill-rule:evenodd;clip-rule:evenodd;stroke-linejoin:round;stroke-miterlimit:2;">
    <path id="path16" d="M2159.74,53.924C2158.53,44.572 2165.14,35.994 2174.49,34.781C2183.84,33.568 2192.41,40.176 2193.62,49.528C2196.51,71.755 2202.64,94.122 2197.64,125.789C2192.7,157.153 2176.84,197.964 2134.28,256.897C2128.76,264.542 2118.07,266.267 2110.41,260.745C2102.78,255.223 2101.05,244.533 2106.57,236.888C2144.51,184.37 2159.47,148.414 2163.89,120.465C2168.24,92.818 2162.26,73.328 2159.74,53.924Z"/>
    <path id="path19" d="M14.501,850.464C55.888,831.432 68.2,815.74 97.913,804.612C126.401,793.943 156.732,787.161 187.09,785.226C216.867,783.328 247.622,784.625 276.267,792.98C308.453,802.369 338.67,819.325 365.443,839.507C393.913,860.969 418.254,888.136 439.111,917.052C464.816,952.691 487.065,991.745 501.147,1033.37C519.337,1087.14 528.96,1162.41 539.497,1215.13C543.791,1236.62 517.393,1264.63 539.919,1269.88C583.231,1279.97 590.421,1196.62 617.464,1161.32C657.113,1109.56 694.197,1054.94 741.536,1010.11C776.446,977.045 811.251,936.637 857.853,924.807C885.667,917.746 915.564,928.542 943.153,936.438C976.955,946.114 1031.67,1013.95 1039.38,979.645C1049.48,934.651 1060.21,886.613 1067.22,839.507C1076.8,775.273 1085.93,710.585 1086.61,645.645C1087.12,596.383 1095.61,543.047 1074.98,498.31C1057.38,460.135 1024.94,424.471 985.802,409.133C954.493,396.864 918.191,418.373 884.994,413.01C863.192,409.488 844.877,392.445 822.958,389.747C777.77,384.184 731.814,395.908 687.255,405.256C614.439,420.531 542.821,442.884 474.006,471.169C409.312,497.76 345.492,528.409 287.898,568.1C236.64,603.425 192.163,647.982 148.317,692.172C109.611,731.182 74.194,773.42 39.755,816.244C30.87,827.291 1.621,856.387 14.501,850.464Z" style="fill:rgb(236,236,236);stroke:rgb(1,1,1);stroke-width:1px;"/>
    <path id="path1" d="M12.544,862.775C41.634,804.595 222.545,731.515 373.075,849.785C543.055,983.345 520.393,1187.53 545.225,1276.9" style="fill:rgb(95,38,59);fill-opacity:0;"/>
    <path id="path2" d="M23.763,868.385C20.667,874.585 13.126,877.095 6.934,873.995C0.742,870.905 -1.771,863.365 1.325,857.165C10.944,837.935 35.164,816.655 69.482,800.605C145.308,765.125 270.845,753.515 380.825,839.925C485.751,922.365 519.636,1030.8 535.225,1124.35C545.245,1184.44 547.465,1238.11 557.305,1273.55C559.155,1280.21 555.245,1287.13 548.575,1288.99C541.905,1290.85 534.985,1286.92 533.135,1280.27C523.118,1244.19 520.673,1189.62 510.482,1128.48C495.764,1040.15 464.376,937.475 365.326,859.645C264.563,780.475 149.585,790.815 80.113,823.325C52.157,836.405 31.599,852.715 23.763,868.385Z"/>
    <path id="path3" d="M17.743,869.235C0.626,861.655 116.916,701.955 287.002,576.955C435.11,468.102 711.695,371.192 896.005,408.055" style="fill:rgb(95,38,59);fill-opacity:0;"/>
    <path id="path4" d="M29.266,864.285C30.594,867.385 30.682,870.995 29.211,874.315C26.407,880.645 18.992,883.505 12.662,880.705L9.321,878.665L6.6,875.815L4.586,872.035L3.562,866.965C3.299,862.215 5.581,853.445 11.819,841.945C38.65,792.475 141.539,668.295 279.574,566.845C430.053,456.252 711.205,358.302 898.465,395.755C905.255,397.113 909.665,403.726 908.305,410.514C906.955,417.303 900.335,421.712 893.545,420.354C712.185,384.081 440.168,479.951 294.43,587.055C160.327,685.615 59.938,805.845 33.871,853.905C31.875,857.585 30.159,861.905 29.266,864.285Z"/>
    <path id="path5" d="M543.745,1281.19C547.085,1267.8 715.045,1001.17 832.675,942.355C927.835,894.775 1063.87,1004.36 1069.78,1007.32" style="fill:rgb(95,38,59);fill-opacity:0;"/>
    <path id="path6" d="M555.715,1284.93C553.755,1291.24 547.185,1294.99 540.705,1293.37C533.985,1291.68 529.895,1284.88 531.573,1278.15C531.945,1276.68 533.515,1272.87 536.635,1267.27C545.795,1250.78 570.205,1211.86 602.775,1165.84C664.315,1078.88 755.145,967.095 827.065,931.135C868.175,910.585 916.345,916.475 959.765,932.005C1020.75,953.815 1071.8,994.305 1075.38,996.095C1081.58,999.195 1084.1,1006.74 1081,1012.93C1077.9,1019.12 1070.37,1021.63 1064.16,1018.53C1060.65,1016.78 1010.93,976.945 951.315,955.625C914.335,942.395 873.305,936.065 838.285,953.575C769.045,988.195 682.485,1096.62 623.255,1180.33C595.335,1219.77 573.525,1253.87 562.495,1272.6C559.005,1278.53 556.075,1284.25 555.715,1284.93Z"/>
    <path id="path7" d="M883.575,413.756C1177.05,362.516 1078.43,769.155 1037.3,974.835" style="fill:rgb(95,38,59);fill-opacity:0;"/>
    <path id="path8" d="M885.735,426.113C878.915,427.303 872.415,422.733 871.225,415.914C870.035,409.094 874.605,402.591 881.425,401.4C944.245,390.431 990.185,399.731 1023.27,422.327C1056.62,445.09 1077.34,481.668 1088.5,526.878C1116.46,640.249 1083.59,809.816 1058.41,933.799C1055.31,949.051 1052.33,963.613 1049.6,977.295C1048.24,984.085 1041.62,988.495 1034.84,987.135C1028.05,985.775 1023.64,979.165 1025,972.375C1049.38,850.465 1094.8,657.145 1064.13,532.888C1054.6,494.238 1037.63,462.506 1009.13,443.046C980.385,423.418 940.305,416.585 885.735,426.113Z"/>
    <path id="path9" d="M1909.6,470.887C1909.56,471.851 1909.43,474.75 1909.38,477.658C1908.31,528.387 1907.39,792.485 1867.35,1080.82C1866.39,1087.67 1860.06,1092.46 1853.19,1091.52C1846.35,1090.57 1841.55,1084.22 1842.5,1077.37C1882.36,790.425 1883.24,527.614 1884.3,477.13C1884.43,470.481 1884.82,466.64 1885.01,465.832L1887.34,460.982L1890.66,457.99C1896.56,454.357 1904.3,456.192 1907.92,462.085C1909.62,464.82 1910.12,467.953 1909.6,470.887Z"/>
    <path id="path10" d="M1839.36,1102.6C1832.54,1101.39 1827.99,1094.88 1829.18,1088.07C1830.38,1081.25 1836.9,1076.68 1843.72,1077.89C1999.3,1105.35 2029.64,1057.69 2674.91,1117.91C2681.8,1118.57 2686.87,1124.67 2686.22,1131.58C2685.58,1138.46 2679.47,1143.54 2672.57,1142.89C2025.74,1082.53 1995.32,1130.12 1839.36,1102.6Z"/>
    <path id="path11" d="M1891.29,471.409C1884.57,469.74 1880.47,462.931 1882.13,456.212C1883.81,449.494 1890.62,445.394 1897.34,447.063C1931.12,455.454 2505.47,459.532 2700.95,466.391C2707.87,466.633 2713.28,472.448 2713.05,479.366C2712.8,486.285 2706.99,491.704 2700.07,491.462C2503.34,484.559 1925.29,479.855 1891.29,471.409Z"/>
    <path id="path12" d="M2690.78,492.943C2691.45,486.053 2697.58,480.997 2704.47,481.661C2711.36,482.326 2716.41,488.459 2715.74,495.35C2659.32,1080.89 2678.85,1081.66 2679.58,1103.2C2679.82,1110.12 2674.39,1115.93 2667.47,1116.16C2660.55,1116.4 2654.74,1110.98 2654.51,1104.06C2653.78,1082.4 2634.03,1081.62 2690.78,492.943Z"/>
    <path id="path13" d="M915.912,169.576C913.832,169.516 912.182,167.772 912.242,165.685C912.302,163.598 914.042,161.953 916.132,162.013C1351.29,174.565 1349.68,173.744 1783.97,179.86C1786.07,179.89 1787.73,181.609 1787.7,183.696C1787.67,185.784 1785.95,187.455 1783.87,187.426C1349.53,181.308 1351.13,182.13 915.912,169.576Z"/>
    <path id="path14" d="M1727.77,140.088C1726.33,140.899 1724.46,140.692 1723.23,139.465C1721.77,137.989 1721.77,135.592 1723.23,134.115L1724.24,133.337L1725.24,132.878C1725.92,132.64 1726.81,132.482 1727.89,132.481C1730.34,132.48 1734.46,133.414 1739.72,135.157C1766.95,144.174 1828.03,174.69 1834.69,178.028C1839.42,180.39 1841.02,183.464 1840.99,186.364C1840.99,188.147 1840.34,190.059 1838.9,191.978C1837.39,193.997 1834.9,196.151 1831.62,198.292C1812.99,210.456 1767.15,223.899 1762.67,225.203C1760.66,225.788 1758.57,224.635 1757.97,222.631C1757.4,220.627 1758.55,218.525 1760.56,217.94C1764.89,216.675 1809.42,203.757 1827.47,191.958C1829.52,190.627 1831.18,189.333 1832.34,188.06C1832.91,187.418 1833.42,186.909 1833.43,186.322C1833.43,186.178 1833.27,186.113 1833.14,185.984C1832.69,185.561 1832.09,185.179 1831.32,184.796C1824.7,181.493 1764.29,151.262 1737.35,142.339C1733.23,140.975 1728.69,140.231 1727.77,140.088Z"/>
    <path id="path15" d="M336.088,125.898C337.078,125.469 338.084,125.006 339.064,124.517C357.945,115.076 363.131,109.085 369.199,96.979C374.444,86.514 380.37,72.697 392.729,52.045C396.81,45.224 405.056,42.119 412.623,44.553C420.19,46.987 425.08,54.317 424.42,62.239C418.309,135.565 414.259,172.049 412.59,192.977C411.207,210.335 411.519,214.809 414.352,224.019C415.999,229.369 417.144,233.561 418.233,236.959C418.827,238.811 418.892,240.238 419.927,241.242C422.028,243.279 425.48,244.381 431.14,246.645C439.896,250.147 444.161,260.1 440.659,268.856C437.156,277.613 427.204,281.878 418.448,278.375C406.796,273.715 400.459,269.968 396.134,265.774C389.785,259.616 387.194,251.96 381.689,234.069C378.357,223.24 377.089,216.887 377.774,201.715C378.316,189.718 380.298,171.037 383.584,136.009C377.071,142.289 368.194,148.16 354.347,155.084C343.824,160.345 335.958,162.626 330.342,163.098L321.505,162.561L316.78,161.001L312.297,158.378L307.516,153.633L306.827,152.456C294.75,176.977 280.096,203.498 264.42,224.745C245.628,250.214 224.481,267.847 205.063,271.142C195.765,272.72 186.935,266.452 185.358,257.154C183.78,247.856 190.047,239.027 199.345,237.449C204.775,236.528 210.078,233.014 215.555,228.351C222.813,222.172 229.958,213.891 236.92,204.455C272.332,156.459 301.987,79.836 306.238,68.905C309.179,61.342 317.034,56.891 325.034,58.254C333.034,59.617 338.971,66.419 339.241,74.529C339.855,92.929 337.514,109.816 336.305,122.825C336.213,123.809 336.142,124.852 336.088,125.898Z"/>
    <path id="path17" d="M2212.01,53.83C2214.51,71.728 2221.7,125.35 2230.18,233.823C2254.85,189.694 2288.1,119.363 2293.76,101.237C2312.68,40.716 2299.88,30.929 2297.78,20.441C2295.93,11.194 2301.93,2.184 2311.18,0.334C2320.43,-1.515 2329.43,4.491 2331.28,13.739C2333.83,26.42 2349.24,38.252 2326.38,111.43C2318.66,136.117 2262.76,251.986 2239.72,283.4C2235.05,289.765 2230.72,293.595 2227.93,295.234L2223.95,297.051L2220.05,297.907L2215.93,297.909L2211.35,296.783L2206.86,294.254L2203.58,291.009L2200.51,285.37L2199.32,279.345C2188.3,125.112 2178.66,62.54 2177.36,52.684L2177.09,48.064L2178.12,43.1L2180.05,39.367L2183.3,35.823L2189.88,32.475L2196.91,32.154L2203.86,34.952L2207.35,38.159L2210.03,42.693C2210.2,43.114 2210.84,45.055 2211.62,48.43C2212.05,50.248 2212.18,52.066 2212.01,53.83Z"/>
    <path id="path18" d="M1895.96,453.209L1885.32,800.735L1850.43,1091.53L2005.52,1095.4L2172.24,1091.53L2447.52,1103.16L2664.65,1134.18L2660.77,932.561L2684.04,684.417L2699.55,471.169L2482.42,471.169L2276.93,463.415L2001.64,459.537L1895.96,453.209Z" style="fill:rgb(236,236,236);stroke:rgb(1,1,1);stroke-width:1px;"/>
    <g id="g1" transform="matrix(1,0,0,1,-62.2841,-95.8043)">
        <ellipse id="ellipse1" cx="616.175" cy="653.935" rx="45.174" ry="19.34" style="fill:rgb(101,173,159);"/>
    </g>
    <path id="path20" d="M1255.22,130.697C1253.87,129.573 1252.61,128.377 1251.44,127.12C1241.43,116.368 1237.74,100.629 1238.81,84.274C1239.81,68.982 1244.91,53.223 1251.92,41.296C1257.02,32.613 1263.2,25.937 1269.45,22.368C1273.28,20.177 1278.17,21.511 1280.36,25.345C1282.55,29.178 1281.22,34.069 1277.39,36.26C1273.13,38.691 1269.19,43.483 1265.71,49.398C1259.86,59.366 1255.61,72.541 1254.77,85.321C1254.01,97.042 1255.98,108.512 1263.15,116.217C1263.42,116.508 1263.7,116.792 1263.98,117.07C1271.45,107.358 1282.17,95.52 1292,85.668C1302.17,75.461 1311.45,67.405 1315.09,65.433C1329.87,57.43 1340.67,57.034 1347.49,59.846C1355.88,63.31 1360.41,71.54 1359.88,82.443C1358.71,106.316 1330.22,145.672 1281.99,141.079C1277.31,140.633 1273.08,139.733 1269.26,138.447C1245.52,189.343 1253.36,191.494 1252.26,248.733C1252.17,253.148 1248.52,256.663 1244.11,256.578C1239.69,256.493 1236.18,252.84 1236.26,248.426C1237.43,187.438 1229.48,185.6 1255.22,130.697ZM1278.38,124.371C1280,124.718 1281.7,124.98 1283.51,125.151C1320.32,128.657 1343.01,99.888 1343.89,81.666C1344.03,78.931 1343.85,76.483 1342.21,75.122C1341.07,74.176 1339.37,74.052 1337.24,74.255C1333.33,74.625 1328.54,76.346 1322.71,79.502C1319.62,81.178 1311.97,88.292 1303.33,96.964C1294.71,105.606 1285.19,115.824 1278.38,124.371Z" style="fill:rgb(0,19,0);"/>
    <g id="g20" transform="matrix(1.26795,-0.45816,0.37868,1.04799,-972.277,371.724)">
        <rect id="rect20" x="825.292" y="550.283" width="432.771" height="169.862" style="fill:rgb(101,173,159);fill-opacity:0.15;stroke:rgb(101,173,159);stroke-width:10.9px;stroke-linecap:round;stroke-miterlimit:1.5;"/>
        <g transform="matrix(0.697593,0.304973,-0.252068,0.844009,771.953,-17.2201)">
            <path d="M664.446,479.578C664.769,478.827 665.348,478.182 666.136,477.788C667.906,476.903 670.061,477.621 670.946,479.391L671.306,480.541L671.245,481.968L670.573,483.465C670.286,483.884 669.784,484.45 669.03,485.094C661.945,491.15 621.459,513.39 605.846,523.963C603.975,525.23 602.165,526.693 601.344,527.372C601.236,527.799 601.047,528.213 600.773,528.591C599.613,530.193 597.369,530.552 595.767,529.392L595.132,528.818L594.592,528.037L594.256,527.14L594.149,526.276L594.426,524.742L595.138,523.471C595.974,522.349 598.322,520.399 601.825,518.026C617.271,507.567 657.363,485.634 664.372,479.644C664.395,479.623 664.421,479.601 664.446,479.578ZM664.295,481.99C664.355,482.203 664.437,482.405 664.533,482.598C664.433,482.399 664.354,482.196 664.295,481.99Z" style="fill:rgb(77,77,77);"/>
        </g>
        <g transform="matrix(0.697593,0.304973,-0.252068,0.844009,771.953,-17.2201)">
            <path d="M611.457,556.825C609.484,556.977 607.759,555.499 607.607,553.526C607.455,551.553 608.933,549.828 610.906,549.676C658.294,546.024 657.792,544.153 705.258,540.763C707.232,540.622 708.948,542.11 709.089,544.083C709.23,546.057 707.742,547.774 705.769,547.915C658.323,551.304 658.825,553.174 611.457,556.825Z" style="fill:rgb(77,77,77);"/>
        </g>
        <g transform="matrix(0.697593,0.304973,-0.252068,0.844009,771.953,-17.2201)">
            <path d="M788.052,533.968C789.721,533.403 791.595,534.142 792.405,535.762C793.289,537.532 792.571,539.687 790.801,540.572C790.428,540.758 788.264,541.24 784.961,541.617C774.481,542.811 749.905,544.873 747.186,545.101C745.215,545.266 743.48,543.8 743.314,541.828C743.149,539.856 744.615,538.121 746.587,537.956C749.291,537.729 773.728,535.681 784.149,534.493C785.911,534.292 787.764,534.012 788.052,533.968Z" style="fill:rgb(77,77,77);"/>
        </g>
        <g transform="matrix(0.697593,0.304973,-0.252068,0.844009,771.953,-17.2201)">
            <path d="M395.812,628.865C400.509,614.388 407.198,603.208 412.371,597.073C414.758,594.242 416.926,592.404 418.504,591.562C419.172,591.206 419.788,590.984 420.333,590.862L421.923,590.744C425.21,591.018 428.15,593.862 429.45,598.838C431.6,607.068 429.648,621.471 423.121,628.685C414.576,638.131 406.683,640.636 400.265,639.338C396.417,655.3 395.524,674.548 401.806,694.963C402.388,696.854 401.325,698.862 399.434,699.444C397.543,700.025 395.535,698.962 394.953,697.071C388.075,674.718 389.259,653.677 393.646,636.37C389.699,633.513 386.454,628.956 384.216,623.396C380.626,614.476 379.559,603.026 381.789,593.142C383.349,586.227 386.522,580.083 391.397,575.904C392.9,574.617 395.165,574.791 396.452,576.293C397.74,577.795 397.566,580.061 396.063,581.348C392.302,584.572 389.987,589.385 388.783,594.72C386.867,603.213 387.782,613.053 390.867,620.719C392.158,623.924 393.799,626.771 395.812,628.865ZM402.178,632.398C406.666,633.068 411.841,630.466 417.805,623.875C422.169,619.051 423.682,610.05 423.015,603.545C422.816,601.604 422.433,599.895 421.78,598.66C421.701,598.511 421.577,598.337 421.462,598.188C421.072,598.468 420.523,598.884 420.074,599.31C418.202,601.083 415.942,603.891 413.571,607.554C409.585,613.712 405.341,622.217 402.178,632.398Z"/>
        </g>
        <g transform="matrix(0.697593,0.304973,-0.252068,0.844009,771.953,-17.2201)">
            <path d="M431.392,567.137C430.156,568.358 428.177,568.53 426.738,567.463L425.974,566.759L425.419,565.939L425.062,564.903L425.034,563.618L425.367,562.532L426.158,561.427L427.253,560.649L428.441,560.21C431.76,559.338 443.962,559.879 445.059,559.936C447.035,560.04 448.555,561.729 448.451,563.705C448.347,565.681 446.658,567.201 444.683,567.097C443.9,567.055 434.652,567.114 431.392,567.137ZM431.48,562.12C431.348,561.979 431.193,561.84 431.011,561.705C431.182,561.832 431.338,561.971 431.48,562.12Z"/>
        </g>
        <g transform="matrix(0.697593,0.304973,-0.252068,0.844009,771.953,-17.2201)">
            <path d="M459.856,546.935C458.338,546.049 457.664,544.157 458.348,542.484C459.096,540.652 461.191,539.773 463.022,540.522L464.489,541.309L465.634,542.438C466.153,543.129 466.676,544.158 467.003,546.009C467.569,549.21 467.778,556.446 468.214,573.887C468.263,575.865 466.697,577.512 464.719,577.561C462.741,577.61 461.095,576.045 461.046,574.067C460.693,559.954 460.521,552.722 460.153,548.905C460.082,548.163 459.943,547.383 459.856,546.935Z"/>
        </g>
        <g transform="matrix(0.697593,0.304973,-0.252068,0.844009,771.953,-17.2201)">
            <path d="M459.408,589.037C461.359,589.363 462.68,591.211 462.355,593.163C462.029,595.115 460.181,596.435 458.229,596.11C456.659,595.848 451.446,595.685 445.938,611.752C442.473,621.856 441.948,628.823 442.817,633.852C443.674,638.803 445.914,641.717 447.561,643.906C448.55,645.221 449.368,646.363 449.866,647.435C450.699,649.229 449.919,651.363 448.124,652.196C446.329,653.029 444.196,652.249 443.363,650.454C442.895,649.447 441.949,648.403 440.952,647.033C438.962,644.296 436.718,640.656 435.752,635.074C434.744,629.245 435.139,621.14 439.155,609.426C443.734,596.072 449.046,591.496 452.744,589.854C455.878,588.462 458.302,588.853 459.408,589.037Z"/>
        </g>
        <g transform="matrix(0.697593,0.304973,-0.252068,0.844009,771.953,-17.2201)">
            <path d="M487.345,622.368C487.628,622.066 487.913,621.765 488.201,621.467C489.344,620.281 491.148,620.027 492.575,620.851C494.001,621.675 494.682,623.365 494.226,624.948C493.439,627.68 488.348,645.304 485.308,661.67C488.962,661.395 491.801,661.631 493.954,662.204C497.145,663.055 499.149,664.645 500.357,666.528C501.997,669.086 502.216,672.41 501.145,675.979C499.902,680.121 496.887,684.689 493.618,688.173C490.909,691.061 488.002,693.182 485.839,693.983C484.946,694.314 484.118,694.466 483.391,694.478L482.421,694.413L481.386,694.144C479.813,693.553 478.485,692.378 477.539,690.537C476.637,688.78 476.067,686.224 475.914,683.062C475.736,679.408 476.092,674.793 476.776,669.75C475.649,669.34 474.753,668.375 474.488,667.117C474.08,665.181 475.321,663.278 477.258,662.871C477.465,662.827 477.671,662.785 477.875,662.743C479.312,654.56 481.303,645.926 483.096,638.769C482.163,639.968 481.289,641.079 480.476,642.058C478.746,644.14 477.199,645.69 475.929,646.52C475.608,646.729 475.296,646.904 474.996,647.047L473.877,647.459L472.015,647.607L470.751,647.303L469.625,646.687L468.75,645.888L468.113,645.022C467.255,643.623 466.507,640.887 466.28,636.338C466.13,633.338 466.976,630.368 467.49,627.409C468.157,623.573 469.216,620.601 470.475,618.585C471.657,616.693 473.082,615.496 474.562,614.878C477.853,613.504 482.547,614.722 486.932,621.489C487.113,621.769 487.25,622.065 487.345,622.368ZM483.311,626.97C482.361,626.805 481.479,626.26 480.914,625.388C479.964,623.921 479.068,622.819 478.191,622.097C477.889,621.848 477.422,621.613 477.267,621.538C477.212,621.579 477.133,621.641 477.085,621.69C476.897,621.88 476.724,622.114 476.556,622.383C475.668,623.805 475.025,625.934 474.554,628.638C474.13,631.077 473.317,633.508 473.441,635.98C473.489,636.957 473.61,637.942 473.742,638.792C474.294,638.218 474.896,637.562 475.425,636.912C477.645,634.185 480.282,630.62 483.311,626.97ZM484.088,668.977C483.732,671.419 483.451,673.769 483.267,675.968C482.963,679.609 482.921,682.798 483.326,685.205C483.437,685.861 483.576,686.444 483.771,686.935C484.812,686.26 486.966,684.785 488.389,683.268C490.909,680.581 493.319,677.112 494.278,673.918C494.675,672.593 494.93,671.347 494.321,670.398C493.756,669.517 492.562,669.121 490.803,668.875C489.021,668.625 486.806,668.648 484.088,668.977Z"/>
        </g>
        <g transform="matrix(0.697593,0.304973,-0.252068,0.844009,771.953,-17.2201)">
            <path d="M517.39,604.265C516.017,602.841 516.057,600.57 517.481,599.196C518.905,597.822 521.177,597.863 522.55,599.287C528.94,605.909 531.898,609.506 533.334,613.667C534.745,617.757 534.662,622.488 534.464,631.588C533.963,654.656 521.495,665.742 520.007,668.223C518.989,669.92 516.785,670.471 515.088,669.453C513.392,668.435 512.841,666.231 513.859,664.534C515.209,662.284 526.841,652.357 527.296,631.432C527.466,623.605 527.77,619.524 526.556,616.006C525.366,612.558 522.685,609.753 517.39,604.265Z"/>
        </g>
    </g>
    <g id="path23" transform="matrix(1,0,0,1,-66.7703,21.76)">
        <path d="M746.81,434.752C746.811,434.394 746.832,434.046 746.865,433.707C746.428,432.886 746.125,431.978 746.013,431.074L745.993,429.557L746.386,427.935L747.099,426.634L748.126,425.536L749.366,424.73C749.767,424.528 750.217,424.351 750.725,424.208C754.177,423.241 756.734,423.785 758.597,424.977C761.098,425.563 763.252,427.22 764.328,429.987C765.954,434.159 765.858,436.877 765.189,438.492L764.552,439.645L763.675,440.612L762.158,441.568C761.805,441.723 761.42,441.854 761.004,441.955C759.677,444.499 757.708,446.056 755.856,446.395C753.679,446.792 750.721,446.018 748.471,441.395C748.379,441.207 748.293,441.022 748.21,440.838C746.597,440.294 745.544,438.622 745.792,436.834C745.906,436.014 746.277,435.295 746.81,434.752L746.81,434.752Z"/>
    </g>
    <g id="path24" transform="matrix(1,0,0,1,13.0475,-32.1108)">
        <path d="M803.121,549.146C803.122,549.145 803.124,549.145 803.126,549.145C807.646,547.598 810.552,547.174 812.226,547.32L814.249,547.823L815.65,548.763L816.382,549.67L816.869,550.721L817.087,551.765L817.099,552.707C816.996,554.141 816.057,556.264 814.365,558.452C813.938,559.002 813.465,559.57 812.963,560.143C813.116,562.171 812.513,564.504 810.505,566.981C806.449,571.981 800.463,571.104 796.704,567.522C794.234,565.168 792.868,561.681 793.574,558.206C794.232,554.964 796.769,551.324 803.122,549.147L803.121,549.146ZM801.277,559.055C801.299,559.229 801.348,559.582 801.44,559.972L801.941,560.208C801.954,559.969 801.959,559.711 801.947,559.469C801.935,559.289 801.922,559.104 801.904,558.91C801.795,558.921 801.689,558.935 801.584,558.956C801.495,558.975 801.369,559.021 801.277,559.055L801.277,559.055Z"/>
    </g>
    <path d="M704.237,575.774C704.013,576.251 703.683,577.011 703.544,577.625C703.402,578.249 703.298,578.916 703.226,579.604C703.064,581.155 703.067,582.808 703.215,584.335C703.334,585.568 703.793,587.127 704.045,587.914C708.714,588.042 712.257,585.864 715.018,582.498C715.181,566.935 717.349,561.718 726.001,539.549C726.635,537.924 728.346,536.991 730.055,537.339C731.764,537.687 732.975,539.214 732.924,540.957C732.84,543.803 732.232,563.039 726.155,577.415C725.026,580.087 723.709,582.585 722.189,584.814C722.183,588.961 722.301,593.871 722.464,600.034C722.516,602.012 720.952,603.66 718.974,603.712C716.996,603.764 715.348,602.201 715.296,600.223C715.217,597.211 715.147,594.484 715.097,591.991C711.511,594.32 707.257,595.479 702.251,594.979L701.225,594.763L700.319,594.367L699.25,593.585L698.474,592.716C697.333,591.194 696.398,588.329 696.078,585.026C695.676,580.875 696.161,576.051 697.544,573.001C698.453,570.996 699.776,569.612 701.269,568.912L702.655,568.453L704.135,568.336C704.991,568.37 705.923,568.578 706.917,569.044C708.787,569.92 711.177,571.969 713.876,575.923C714.992,577.558 714.571,579.79 712.937,580.906C711.303,582.021 709.071,581.6 707.955,579.966C706.804,578.28 705.786,577.054 704.86,576.237C704.669,576.069 704.437,575.905 704.237,575.774Z"/>
    <path d="M742.082,587.307C747.384,579.309 753.642,575.704 757.357,574.249C759.327,573.478 760.813,573.248 761.494,573.23L762.464,573.304L763.227,573.534L764.008,573.98L764.647,574.59L765.141,575.381L765.433,576.376C765.608,577.602 765.396,579.203 764.641,580.971C763.441,583.784 760.752,587.348 757.374,590.223C753.847,593.224 749.616,595.315 745.607,595.57C741.207,604.521 738.246,618.448 740.461,639.858C740.665,641.827 739.232,643.59 737.264,643.793C735.296,643.997 733.533,642.564 733.329,640.596C731.06,618.663 733.942,603.747 738.566,593.662C734.823,590.99 731.564,585.052 730.99,573.575C730.891,571.599 732.415,569.914 734.392,569.815C736.368,569.717 738.052,571.241 738.151,573.217C738.393,578.057 739.091,581.662 740.176,584.26C740.731,585.588 741.355,586.603 742.082,587.307Z"/>
    <path d="M757.661,557.219C755.684,557.133 754.149,555.458 754.235,553.481C754.321,551.505 755.995,549.97 757.972,550.055C767.958,550.49 767.543,550.318 777.191,552.462C779.122,552.891 780.342,554.808 779.913,556.739C779.483,558.671 777.567,559.891 775.635,559.461C766.613,557.456 767,557.625 757.661,557.219Z"/>
    <path d="M790.236,553.821C790.477,551.857 792.266,550.457 794.23,550.698C796.194,550.938 797.593,552.728 797.353,554.692L795.081,573.25C794.841,575.214 793.051,576.614 791.087,576.373C789.123,576.133 787.724,574.343 787.964,572.379L790.236,553.821Z"/>
    <path d="M794.909,581.322C795.988,579.663 798.21,579.191 799.869,580.27C801.528,581.348 801.999,583.57 800.921,585.229C796.34,592.277 793.734,595.87 792.893,599.778C792.07,603.602 793.03,607.65 795.001,615.531C795.48,617.451 794.312,619.399 792.392,619.878C790.473,620.358 788.525,619.19 788.045,617.27C785.674,607.787 784.893,602.87 785.883,598.27C786.855,593.754 789.615,589.466 794.909,581.322Z"/>
    <path d="M819.937,609.569C820.163,609.415 820.404,609.244 820.627,609.076C822.429,607.717 825.112,605.539 829.566,602.422C830.699,601.628 832.189,601.558 833.392,602.242C834.595,602.925 835.298,604.24 835.197,605.62C830.372,671.557 805.223,656.393 801.526,653.518C794.197,647.818 791.936,642.849 792.504,638.932C792.891,636.265 794.514,633.729 797.512,631.449C800.869,628.897 806.199,626.508 812.973,624.069C814.835,623.399 816.89,624.366 817.56,626.228C818.23,628.09 817.263,630.145 815.401,630.815C810.399,632.616 806.259,634.331 803.299,636.169C801.3,637.411 799.816,638.471 799.6,639.961C799.483,640.762 799.871,641.58 800.514,642.536C801.6,644.151 803.397,645.89 805.928,647.858C806.78,648.521 809.146,650.096 811.993,649.8C813.931,649.598 815.994,648.441 818.029,645.783C821.982,640.618 825.433,630.761 827.347,612.919C824.799,614.854 823.333,616.033 822.254,616.57L820.58,617.159L819.581,617.268L818.563,617.189C817.663,617.034 816.715,616.634 815.59,615.831C814.248,614.872 813.003,612.548 812.534,609.439C811.822,604.723 812.287,597.909 812.355,596.967C812.496,594.994 814.212,593.506 816.186,593.647C818.16,593.788 819.647,595.505 819.506,597.478C819.455,598.192 819.126,602.724 819.431,606.633C819.505,607.581 819.757,608.789 819.937,609.569Z"/>
    <path d="M852.302,593.788C851.859,591.86 853.065,589.934 854.993,589.491C856.922,589.048 858.847,590.255 859.29,592.183L865.335,618.504C865.431,618.92 865.451,619.35 865.395,619.774C865.071,622.235 864.103,624.553 863.087,626.855C862.348,628.53 861.563,630.188 861.327,631.978C861.069,633.94 859.267,635.323 857.305,635.065C855.343,634.806 853.96,633.004 854.219,631.043C854.542,628.581 855.511,626.263 856.527,623.961C857.184,622.471 857.878,620.994 858.19,619.424L852.302,593.788Z"/>
    <path d="M573.165,348.574C574.505,346.548 575.764,344.34 576.942,342.01C575.214,327.093 576.301,322.769 583.577,301.98C585.307,297.036 586.731,294.043 587.751,292.583L589.082,291.107L589.961,290.537L590.785,290.224L591.64,290.091L592.588,290.157L593.503,290.449L594.265,290.903L595.364,292.131L595.995,293.664C596.315,294.891 596.44,297.088 596.221,300.001C595.503,309.555 591.378,328.237 584.31,343.203C584.712,346.494 585.243,350.328 585.865,354.994C586.126,356.955 584.746,358.759 582.785,359.021C580.824,359.282 579.019,357.902 578.758,355.941C578.649,355.126 578.543,354.334 578.44,353.565C571.208,363.996 561.911,369.541 551.308,365.175C549.218,364.314 547.458,362.568 546.231,360.164C544.782,357.326 544.061,353.495 544.22,349.745C544.384,345.868 545.502,342.115 547.427,339.555C549.049,337.398 551.218,335.991 553.877,335.633C555.921,335.358 558.334,335.714 561.084,337.142C564.304,338.815 568.214,342.13 572.72,347.847C572.901,348.076 573.049,348.32 573.165,348.574ZM569.31,353.601C568.462,353.459 567.663,353.013 567.09,352.286C564,348.367 561.316,345.754 558.964,344.206C557.317,343.121 555.983,342.584 554.833,342.739C553.856,342.871 553.221,343.639 552.718,344.549C551.877,346.067 551.468,348.043 551.383,350.048C551.295,352.139 551.57,354.275 552.232,356.026C552.66,357.158 553.149,358.179 554.038,358.545C559.917,360.966 564.954,358.398 569.31,353.601Z"/>
    <path d="M612.677,357.262C614.236,354.411 616.031,351.171 618.097,347.364C621.611,340.891 624.336,337.388 626.291,335.796C627.089,335.147 627.829,334.729 628.491,334.469L630.336,334.065L631.523,334.145L632.663,334.497L633.642,335.066L634.414,335.753C635.295,336.692 636.047,338.22 636.463,340.162C637.327,344.195 636.948,350.506 636.618,353.115C636.528,353.826 636.427,354.332 636.361,354.574L636.046,355.387C630.532,365.916 623.564,368.683 617.63,367.83C616.894,367.724 616.167,367.556 615.451,367.333C610.473,377.305 609.723,382.878 609.723,401.959C609.723,403.937 608.117,405.544 606.138,405.544C604.159,405.544 602.553,403.937 602.553,401.959C602.553,380.825 603.361,375.216 609.214,363.756C606.072,361.035 603.602,357.255 602.357,353.216C600.004,345.583 601.836,337.364 610.366,333.599C612.176,332.8 614.295,333.621 615.093,335.432C615.892,337.242 615.071,339.36 613.261,340.159C608.562,342.233 607.913,346.9 609.209,351.104C609.899,353.345 611.11,355.533 612.677,357.262ZM618.926,360.767C622.505,361.136 626.131,358.663 629.468,352.487C629.674,351.083 629.96,347.585 629.783,344.428C629.757,343.962 629.689,343.439 629.605,342.931C628.274,344.606 626.255,347.365 624.398,350.785C622.289,354.671 620.479,357.927 618.926,360.767Z"/>
    <path d="M643.185,318.322C641.21,318.215 639.692,316.524 639.799,314.548C639.906,312.572 641.597,311.055 643.573,311.162C651.639,311.599 651.225,311.689 659.393,311.209C661.368,311.092 663.066,312.602 663.182,314.577C663.298,316.552 661.789,318.25 659.814,318.366C651.229,318.871 651.664,318.781 643.185,318.322Z"/>
    <path d="M682.548,300.7C681.663,298.93 682.382,296.775 684.151,295.89C685.921,295.005 688.076,295.724 688.961,297.493C690.13,299.832 690.219,303.883 689.266,308.628C687.476,317.549 682.498,329.501 681.02,333.937C680.394,335.814 678.362,336.83 676.485,336.204C674.608,335.578 673.592,333.546 674.218,331.669C675.647,327.381 680.506,315.842 682.237,307.217C682.566,305.576 682.779,304.056 682.799,302.742C682.811,301.916 682.802,301.208 682.548,300.7Z"/>
    <path d="M697.222,339.162C699.197,339.036 700.902,340.537 701.028,342.512C701.154,344.487 699.653,346.192 697.679,346.318C695.592,346.451 684.82,347.33 676.679,361.868C674.672,365.452 673.653,368.015 673.39,369.898C673.297,370.561 673.172,371.011 673.434,371.277C673.924,371.773 674.731,371.748 675.375,371.849C676.581,372.037 677.653,372.203 678.324,372.461C680.171,373.172 681.094,375.248 680.384,377.094C679.673,378.941 677.597,379.864 675.751,379.153C674.851,378.808 672.957,378.822 671.331,378.21C669.311,377.45 667.585,376.097 666.704,373.766C665.729,371.185 665.865,366.503 670.423,358.365C680.694,340.022 694.59,339.33 697.222,339.162Z"/>
    <path d="M693.339,361.127C691.819,359.861 691.613,357.598 692.88,356.078C694.147,354.558 696.409,354.352 697.929,355.619C706.145,362.466 705.794,362.428 712.381,370.662C713.617,372.207 713.366,374.465 711.821,375.701C710.276,376.937 708.018,376.686 706.782,375.141C700.65,367.476 700.988,367.501 693.339,361.127Z"/>
    <path d="M694.176,376.714C694.589,378.65 693.352,380.555 691.417,380.968C689.482,381.38 687.576,380.143 687.164,378.208C686.601,375.569 686.594,373.685 687.002,372.106C687.457,370.341 688.406,368.854 690.112,367.252C692.348,365.153 696.332,362.596 702.501,356.901C703.955,355.559 706.225,355.65 707.567,357.104C708.909,358.558 708.818,360.828 707.364,362.17C702.356,366.792 698.77,369.38 696.373,371.32C695.207,372.263 694.362,372.865 694.004,373.72C693.686,374.477 693.888,375.36 694.176,376.714Z"/>
    <path d="M728.327,338.804C734.222,356.184 734.813,356.431 729.34,374.064" style="fill:rgb(185,185,185);"/>
    <path d="M724.932,339.956C724.296,338.082 725.301,336.045 727.175,335.409C729.049,334.773 731.086,335.779 731.722,337.652C734.832,346.822 736.466,351.493 736.678,356.177C736.892,360.917 735.686,365.711 732.764,375.127C732.178,377.016 730.167,378.074 728.278,377.488C726.388,376.901 725.33,374.891 725.916,373.001C728.467,364.783 729.702,360.638 729.515,356.501C729.326,352.308 727.717,348.165 724.932,339.956Z"/>
    <path d="M2092.25,783.365C2094.4,782.992 2096.53,783.224 2098.43,784.119C2099.34,784.551 2100.27,785.155 2101.15,785.983C2103.01,787.124 2104.73,789.017 2105.8,792.045C2106.86,793.853 2107.51,796.157 2107.19,799.007C2107.51,804.697 2105.3,810.203 2101.28,812.8C2098.21,814.785 2093.8,815.657 2087.92,812.984C2083.36,810.911 2080.93,807.788 2079.84,804.444C2078.96,803.234 2078.3,801.953 2077.91,800.651C2077.39,798.94 2077.62,795.2 2079.57,791.599C2081.95,787.203 2086.51,783.382 2091.27,783.332C2091.59,783.329 2091.92,783.339 2092.25,783.365Z"/>
    <path d="M2005.63,839.61C2007.16,838.001 2009.51,837.324 2011.74,838.002C2014.6,838.876 2016.38,841.732 2015.91,844.692C2014.99,850.433 2008.23,892.36 2007.17,924.961C2016.08,927.48 2020.79,932.185 2023.12,937.276C2026.77,945.276 2024.26,955.103 2020.42,961.743C2018.37,965.295 2015.95,967.905 2014.17,969.123L2011.48,970.415L2009.82,970.682L2008.46,970.609L2006.03,969.932L2003.89,968.752C2002.74,967.947 2001.67,966.88 2000.72,965.526C1998.78,962.763 1997.24,958.449 1996.33,952.913C1993.18,933.881 1996.62,897.936 1999.88,872.143C1998.44,873.024 1996.78,873.934 1994.87,874.891C1988.16,878.244 1983.47,877.908 1980.3,876.59C1976.68,875.084 1974.4,872.05 1973.22,868.639C1971.92,864.909 1972.04,860.84 1972.07,860.077C1972.4,851.727 1973.41,845.134 1975.3,840.714C1977.17,836.313 1979.96,833.593 1983.38,832.308C1987.96,830.593 1994.79,831.546 2004.04,837.976C2004.69,838.427 2005.22,838.985 2005.63,839.61ZM2001.46,848.842C2000.01,849.048 1998.49,848.729 1997.19,847.829C1994.36,845.858 1991.97,844.519 1989.91,843.854C1988.98,843.554 1988.23,843.307 1987.6,843.544C1987.26,843.671 1987.08,844.018 1986.86,844.381C1986.43,845.088 1986.09,845.95 1985.79,846.938C1984.75,850.368 1984.28,854.983 1984.06,860.556C1984.05,860.878 1983.98,862.361 1984.34,863.936C1984.42,864.29 1984.52,864.652 1984.67,864.997C1984.74,865.174 1984.72,865.431 1984.91,865.511C1985.24,865.65 1985.67,865.529 1986.21,865.41C1987.17,865.2 1988.25,864.782 1989.5,864.158C1993.62,862.098 1996,860.565 1997.48,858.76C1998.87,857.054 1999.37,855.158 2000.18,852.68C2000.56,851.51 2000.97,850.239 2001.46,848.842ZM2007.09,937.645C2007.1,938.075 2007.11,938.502 2007.12,938.925C2007.33,945.497 2007.91,951.162 2009.12,955.274C2009.21,955.613 2009.34,955.967 2009.49,956.315C2010.35,955.005 2011.26,953.429 2011.8,951.972C2012.95,948.818 2013.65,945.138 2012.08,942.014C2011.19,940.228 2009.56,938.771 2007.09,937.645Z"/>
    <path d="M2234.04,658.981C2234.03,658.556 2234.07,658.124 2234.16,657.691C2234.78,654.69 2237.55,652.678 2240.53,652.925C2242.26,652.134 2244.06,651.692 2245.53,651.571L2248.05,651.66L2250.25,652.364C2253.21,653.846 2254.82,655.478 2255.7,656.845L2256.8,659.357L2257,662.205L2256.59,664.015L2255.9,665.503L2254.92,666.884L2253.39,668.375C2250.87,670.447 2246.86,671.861 2246.39,672.018C2246.35,672.033 2246.3,672.047 2246.26,672.061L2245.77,672.399L2243.53,673.304L2240.69,673.541L2238.42,672.963L2236.61,671.841L2235.2,670.268C2234.2,668.769 2233.62,667.344 2233.3,666.026L2233,663.712L2233.2,661.424C2233.38,660.569 2233.66,659.752 2234.04,658.981Z"/>
    <path d="M2282.81,770.015C2283.3,769.293 2283.78,768.716 2284.23,768.257L2285.56,767.109L2287.3,766.151L2289.09,765.674L2291.03,765.657L2292.83,766.113L2294.3,766.88L2296.54,769.063C2297.16,769.926 2297.72,771.004 2298.15,772.195C2299.09,774.853 2299.27,778.071 2298.85,779.97C2298.74,780.449 2297.24,784.358 2295.04,786.676L2292.34,788.733L2290.93,789.288L2289.2,789.579L2287.08,789.382L2285.1,788.6L2283.54,787.449L2282.4,786.158C2281.27,784.624 2279.95,781.732 2279.09,776.585C2278.62,773.741 2280.23,771.028 2282.81,770.015Z"/>
    <path d="M2290.88,623.798C2288.13,621.954 2287.39,618.224 2289.24,615.473C2291.08,612.722 2294.81,611.985 2297.56,613.828C2315.16,625.617 2314.7,625.658 2331.56,638.181C2334.22,640.156 2334.78,643.917 2332.8,646.575C2330.83,649.234 2327.06,649.789 2324.41,647.814C2307.78,635.465 2308.23,635.422 2290.88,623.798Z"/>
    <path d="M2302.97,648.041C2303.26,651.34 2300.81,654.25 2297.51,654.534C2294.21,654.818 2291.3,652.37 2291.02,649.071C2290.62,644.46 2293.29,637.699 2298.05,630.677C2307.18,617.198 2323.35,601.607 2325.67,599.383C2328.05,597.088 2331.86,597.163 2334.15,599.55C2336.45,601.937 2336.37,605.738 2333.98,608.033C2331.81,610.124 2316.57,624.739 2307.98,637.409C2306.31,639.869 2304.91,642.239 2303.97,644.407C2303.37,645.795 2302.88,647.006 2302.97,648.041Z"/>
    <path d="M2396.39,773.016C2405.13,767.788 2415.89,761.957 2429.09,755.479C2432.06,754.02 2435.66,755.249 2437.12,758.221C2438.58,761.194 2437.35,764.792 2434.38,766.251C2418.5,774.045 2406.33,780.788 2397.07,786.62C2397.07,792.064 2396.7,796.651 2396.05,800.505C2394.12,812.003 2389.64,817.875 2385.2,820.909C2377.47,826.192 2368.73,823.554 2365.82,822.096C2363.5,820.937 2361.07,818.828 2359.78,815.676C2358.64,812.889 2358.24,809.124 2360.39,804.271C2362.14,800.308 2365.94,795.139 2373.47,788.822C2376.57,786.222 2380.36,783.375 2384.95,780.268C2384.75,776.764 2384.41,772.921 2383.89,768.706C2382.82,770.34 2381.97,771.631 2381.21,772.646C2379.43,775.012 2377.8,776.366 2375.95,777.249C2374.18,778.093 2372.11,778.529 2369.11,778.529C2360.65,778.529 2356,773.568 2353.66,767.17C2351.01,759.916 2351.94,750.573 2352.1,749.153C2352.47,745.861 2355.44,743.486 2358.73,743.852C2362.02,744.218 2364.39,747.187 2364.03,750.478C2363.93,751.329 2363.37,756.141 2364.3,760.74C2364.84,763.454 2365.72,766.529 2369.11,766.529C2369.84,766.529 2370.33,766.707 2370.73,766.446C2371.46,765.975 2371.92,765.055 2372.79,763.753C2374.81,760.742 2377.62,756.175 2382.71,749.31C2384.14,747.387 2386.57,746.497 2388.9,747.043C2391.23,747.59 2393.01,749.469 2393.44,751.825C2394.86,759.756 2395.82,766.787 2396.39,773.016ZM2384.73,795.114C2379.47,799.146 2375.9,802.613 2373.58,805.594C2372.16,807.408 2371.31,808.906 2370.97,810.208C2370.82,810.809 2370.9,811.22 2371.18,811.363C2372.13,811.837 2374.7,812.668 2377.26,811.631C2379.21,810.841 2380.95,808.929 2382.34,805.509C2383.44,802.807 2384.27,799.397 2384.73,795.114Z"/>
    <path d="M2249.24,691.484C2246.37,690.055 2245.12,686.593 2246.45,683.646C2247.81,680.627 2251.37,679.283 2254.38,680.645C2255.69,681.236 2258.63,681.792 2265.21,694.951C2266.69,697.913 2265.49,701.52 2262.52,703.001C2259.56,704.482 2255.95,703.279 2254.47,700.317C2251.83,695.031 2249.65,692.028 2249.24,691.484Z"/>
    <path d="M2271.78,710.706C2272.83,712.032 2274.9,714.955 2277.49,720.121C2278.97,723.082 2277.76,726.689 2274.8,728.17C2271.84,729.651 2268.23,728.449 2266.75,725.487C2263.08,718.146 2261.4,717.027 2261.07,716.454L2260.4,714.858L2260.19,713.387L2260.31,711.987L2260.75,710.587C2262.08,707.556 2265.63,706.179 2268.66,707.513C2270.13,708.16 2271.21,709.328 2271.78,710.706ZM2272,714.676C2271.93,714.927 2271.84,715.176 2271.73,715.421C2271.85,715.163 2271.93,714.915 2272,714.676Z"/>
    <path d="M2281.76,738.362C2282.24,739 2283.33,740.438 2286.74,744.987C2288.73,747.637 2288.19,751.401 2285.54,753.387C2282.89,755.374 2279.13,754.837 2277.14,752.187C2271.94,745.251 2271.96,745.305 2271.52,744.695L2270.66,743.098C2270.52,742.75 2270.36,742.143 2270.25,741.749C2269.02,739.165 2269.78,735.988 2272.2,734.274C2274.89,732.357 2278.64,732.992 2280.56,735.692L2281.43,737.289C2281.53,737.563 2281.66,737.997 2281.76,738.362Z"/>
</svg>
